<?xml version="1.0" encoding="UTF-8" standalone="no"?>
<!DOCTYPE svg PUBLIC "-//W3C//DTD SVG 1.1//EN"
 "http://www.w3.org/Graphics/SVG/1.1/DTD/svg11.dtd">
<!-- Generated by graphviz version 2.43.0 (0)
 -->
<!-- Title: B Pages: 1 -->
<svg width="558pt" height="421pt"
 viewBox="0.00 0.00 558.48 420.70" xmlns="http://www.w3.org/2000/svg" xmlns:xlink="http://www.w3.org/1999/xlink">
<g id="page0,1_graph0" class="graph" transform="scale(1 1) rotate(0) translate(4 416.7)">
<title>B</title>
<polygon fill="white" stroke="transparent" points="-4,4 -4,-416.7 554.48,-416.7 554.48,4 -4,4"/>
<!-- address -->
<g id="node1" class="node">
<title>address</title>
<ellipse fill="none" stroke="black" cx="96.12" cy="-385.83" rx="52.15" ry="26.74"/>
<text text-anchor="middle" x="96.12" y="-389.63" font-family="Times,serif" font-size="14.00">library</text>
<text text-anchor="middle" x="96.12" y="-374.63" font-family="Times,serif" font-size="14.00">Address</text>
</g>
<!-- strings -->
<g id="node2" class="node">
<title>strings</title>
<ellipse fill="none" stroke="black" cx="215.12" cy="-385.83" rx="48.58" ry="26.74"/>
<text text-anchor="middle" x="215.12" y="-389.63" font-family="Times,serif" font-size="14.00">library</text>
<text text-anchor="middle" x="215.12" y="-374.63" font-family="Times,serif" font-size="14.00">Strings</text>
</g>
<!-- math -->
<g id="node3" class="node">
<title>math</title>
<ellipse fill="none" stroke="black" cx="74.12" cy="-206.35" rx="45.92" ry="26.74"/>
<text text-anchor="middle" x="74.12" y="-210.15" font-family="Times,serif" font-size="14.00">library</text>
<text text-anchor="middle" x="74.12" y="-195.15" font-family="Times,serif" font-size="14.00">Math</text>
</g>
<!-- ierc721receiver -->
<g id="node4" class="node">
<title>ierc721receiver</title>
<ellipse fill="none" stroke="black" cx="101.12" cy="-296.09" rx="101.23" ry="26.74"/>
<text text-anchor="middle" x="101.12" y="-299.89" font-family="Times,serif" font-size="14.00">interface</text>
<text text-anchor="middle" x="101.12" y="-284.89" font-family="Times,serif" font-size="14.00">IERC721Receiver</text>
</g>
<!-- ierc721 -->
<g id="node5" class="node">
<title>ierc721</title>
<ellipse fill="none" stroke="black" cx="402.12" cy="-296.09" rx="56.64" ry="26.74"/>
<text text-anchor="middle" x="402.12" y="-299.89" font-family="Times,serif" font-size="14.00">interface</text>
<text text-anchor="middle" x="402.12" y="-284.89" font-family="Times,serif" font-size="14.00">IERC721</text>
</g>
<!-- erc721 -->
<g id="node7" class="node">
<title>erc721</title>
<ellipse fill="none" stroke="black" cx="291.12" cy="-116.61" rx="53.98" ry="26.74"/>
<text text-anchor="middle" x="291.12" y="-120.41" font-family="Times,serif" font-size="14.00">contract</text>
<text text-anchor="middle" x="291.12" y="-105.41" font-family="Times,serif" font-size="14.00">ERC721</text>
</g>
<!-- ierc721&#45;&gt;erc721 -->
<g id="edge5" class="edge">
<title>ierc721&#45;&gt;erc721</title>
<path fill="none" stroke="black" d="M370.8,-273.64C357.03,-262.87 341.63,-248.81 331.12,-233.22 314.8,-209.03 304.47,-177.51 298.41,-153.5"/>
<polygon fill="black" stroke="black" points="301.8,-152.62 296.07,-143.71 294.99,-154.25 301.8,-152.62"/>
</g>
<!-- ierc721metadata -->
<g id="node9" class="node">
<title>ierc721metadata</title>
<ellipse fill="none" stroke="black" cx="445.12" cy="-206.35" rx="105.22" ry="26.74"/>
<text text-anchor="middle" x="445.12" y="-210.15" font-family="Times,serif" font-size="14.00">interface</text>
<text text-anchor="middle" x="445.12" y="-195.15" font-family="Times,serif" font-size="14.00">IERC721Metadata</text>
</g>
<!-- ierc721&#45;&gt;ierc721metadata -->
<g id="edge9" class="edge">
<title>ierc721&#45;&gt;ierc721metadata</title>
<path fill="none" stroke="black" d="M414.55,-269.71C418.71,-261.22 423.43,-251.6 427.89,-242.5"/>
<polygon fill="black" stroke="black" points="431.15,-243.8 432.41,-233.28 424.86,-240.72 431.15,-243.8"/>
</g>
<!-- ierc165 -->
<g id="node6" class="node">
<title>ierc165</title>
<ellipse fill="none" stroke="black" cx="338.12" cy="-385.83" rx="56.64" ry="26.74"/>
<text text-anchor="middle" x="338.12" y="-389.63" font-family="Times,serif" font-size="14.00">interface</text>
<text text-anchor="middle" x="338.12" y="-374.63" font-family="Times,serif" font-size="14.00">IERC165</text>
</g>
<!-- ierc165&#45;&gt;ierc721 -->
<g id="edge1" class="edge">
<title>ierc165&#45;&gt;ierc721</title>
<path fill="none" stroke="black" d="M356.28,-359.92C363.1,-350.58 370.95,-339.82 378.2,-329.87"/>
<polygon fill="black" stroke="black" points="381.06,-331.9 384.12,-321.76 375.4,-327.77 381.06,-331.9"/>
</g>
<!-- erc165 -->
<g id="node10" class="node">
<title>erc165</title>
<ellipse fill="none" stroke="black" cx="274.12" cy="-296.09" rx="53.98" ry="26.74"/>
<text text-anchor="middle" x="274.12" y="-299.89" font-family="Times,serif" font-size="14.00">contract</text>
<text text-anchor="middle" x="274.12" y="-284.89" font-family="Times,serif" font-size="14.00">ERC165</text>
</g>
<!-- ierc165&#45;&gt;erc165 -->
<g id="edge2" class="edge">
<title>ierc165&#45;&gt;erc165</title>
<path fill="none" stroke="black" d="M319.95,-359.92C313.08,-350.5 305.15,-339.64 297.84,-329.62"/>
<polygon fill="black" stroke="black" points="300.61,-327.47 291.89,-321.45 294.95,-331.6 300.61,-327.47"/>
</g>
<!-- nftmanager -->
<g id="node12" class="node">
<title>nftmanager</title>
<ellipse fill="lightgrey" stroke="black" cx="368.12" cy="-26.87" rx="78.48" ry="26.74"/>
<text text-anchor="middle" x="368.12" y="-30.67" font-family="Times,serif" font-size="14.00">contract</text>
<text text-anchor="middle" x="368.12" y="-15.67" font-family="Times,serif" font-size="14.00">NFTManager</text>
</g>
<!-- erc721&#45;&gt;nftmanager -->
<g id="edge10" class="edge">
<title>erc721&#45;&gt;nftmanager</title>
<path fill="none" stroke="black" d="M312.16,-91.63C320.6,-82.01 330.47,-70.77 339.55,-60.43"/>
<polygon fill="black" stroke="black" points="342.33,-62.56 346.3,-52.73 337.07,-57.94 342.33,-62.56"/>
</g>
<!-- context -->
<g id="node8" class="node">
<title>context</title>
<ellipse fill="none" stroke="black" cx="192.12" cy="-206.35" rx="53.98" ry="26.74"/>
<text text-anchor="middle" x="192.12" y="-210.15" font-family="Times,serif" font-size="14.00">contract</text>
<text text-anchor="middle" x="192.12" y="-195.15" font-family="Times,serif" font-size="14.00">Context</text>
</g>
<!-- context&#45;&gt;erc721 -->
<g id="edge3" class="edge">
<title>context&#45;&gt;erc721</title>
<path fill="none" stroke="black" d="M217.87,-182.53C230.01,-171.76 244.66,-158.78 257.65,-147.27"/>
<polygon fill="black" stroke="black" points="260.33,-149.57 265.49,-140.32 255.69,-144.33 260.33,-149.57"/>
</g>
<!-- ierc721metadata&#45;&gt;erc721 -->
<g id="edge6" class="edge">
<title>ierc721metadata&#45;&gt;erc721</title>
<path fill="none" stroke="black" d="M403.44,-181.61C382.16,-169.48 356.29,-154.74 334.74,-142.46"/>
<polygon fill="black" stroke="black" points="336.22,-139.28 325.8,-137.37 332.75,-145.36 336.22,-139.28"/>
</g>
<!-- inftmanager -->
<g id="node11" class="node">
<title>inftmanager</title>
<ellipse fill="lightgrey" stroke="black" cx="445.12" cy="-116.61" rx="82.05" ry="26.74"/>
<text text-anchor="middle" x="445.12" y="-120.41" font-family="Times,serif" font-size="14.00">interface</text>
<text text-anchor="middle" x="445.12" y="-105.41" font-family="Times,serif" font-size="14.00">INFTManager</text>
</g>
<!-- ierc721metadata&#45;&gt;inftmanager -->
<g id="edge7" class="edge">
<title>ierc721metadata&#45;&gt;inftmanager</title>
<path fill="none" stroke="black" d="M445.12,-179.03C445.12,-171.06 445.12,-162.17 445.12,-153.68"/>
<polygon fill="black" stroke="black" points="448.62,-153.61 445.12,-143.61 441.62,-153.61 448.62,-153.61"/>
</g>
<!-- erc165&#45;&gt;erc721 -->
<g id="edge4" class="edge">
<title>erc165&#45;&gt;erc721</title>
<path fill="none" stroke="black" d="M276.62,-268.9C279.55,-238.41 284.39,-187.85 287.66,-153.66"/>
<polygon fill="black" stroke="black" points="291.16,-153.9 288.63,-143.62 284.19,-153.24 291.16,-153.9"/>
</g>
<!-- inftmanager&#45;&gt;nftmanager -->
<g id="edge8" class="edge">
<title>inftmanager&#45;&gt;nftmanager</title>
<path fill="none" stroke="black" d="M423.26,-90.7C415.05,-81.35 405.59,-70.57 396.85,-60.61"/>
<polygon fill="black" stroke="black" points="399.26,-58.05 390.03,-52.84 394,-62.67 399.26,-58.05"/>
</g>
</g>
</svg>
