<?xml version="1.0" encoding="UTF-8" standalone="no"?>
<!DOCTYPE svg PUBLIC "-//W3C//DTD SVG 1.1//EN"
 "http://www.w3.org/Graphics/SVG/1.1/DTD/svg11.dtd">
<!-- Generated by graphviz version 2.43.0 (0)
 -->
<!-- Title: A Pages: 1 -->
<svg width="332pt" height="331pt"
 viewBox="0.00 0.00 331.74 330.96" xmlns="http://www.w3.org/2000/svg" xmlns:xlink="http://www.w3.org/1999/xlink">
<g id="graph0" class="graph" transform="scale(1 1) rotate(0) translate(4 326.96)">
<title>A</title>
<polygon fill="white" stroke="transparent" points="-4,4 -4,-326.96 327.74,-326.96 327.74,4 -4,4"/>
<!-- context -->
<g id="node1" class="node">
<title>context</title>
<ellipse fill="none" stroke="black" cx="53.74" cy="-206.35" rx="53.98" ry="26.74"/>
<text text-anchor="middle" x="53.74" y="-210.15" font-family="Times,serif" font-size="14.00">contract</text>
<text text-anchor="middle" x="53.74" y="-195.15" font-family="Times,serif" font-size="14.00">Context</text>
</g>
<!-- erc20 -->
<g id="node5" class="node">
<title>erc20</title>
<ellipse fill="none" stroke="black" cx="138.74" cy="-116.61" rx="53.98" ry="26.74"/>
<text text-anchor="middle" x="138.74" y="-120.41" font-family="Times,serif" font-size="14.00">contract</text>
<text text-anchor="middle" x="138.74" y="-105.41" font-family="Times,serif" font-size="14.00">ERC20</text>
</g>
<!-- context&#45;&gt;erc20 -->
<g id="edge2" class="edge">
<title>context&#45;&gt;erc20</title>
<path fill="none" stroke="black" d="M76.52,-181.84C86.43,-171.61 98.17,-159.48 108.78,-148.54"/>
<polygon fill="black" stroke="black" points="111.45,-150.81 115.9,-141.19 106.43,-145.93 111.45,-150.81"/>
</g>
<!-- ierc165 -->
<g id="node2" class="node">
<title>ierc165</title>
<ellipse fill="none" stroke="black" cx="266.74" cy="-116.61" rx="56.64" ry="26.74"/>
<text text-anchor="middle" x="266.74" y="-120.41" font-family="Times,serif" font-size="14.00">interface</text>
<text text-anchor="middle" x="266.74" y="-105.41" font-family="Times,serif" font-size="14.00">IERC165</text>
</g>
<!-- tokencc -->
<g id="node6" class="node">
<title>tokencc</title>
<ellipse fill="none" stroke="black" cx="202.74" cy="-26.87" rx="56.64" ry="26.74"/>
<text text-anchor="middle" x="202.74" y="-30.67" font-family="Times,serif" font-size="14.00">contract</text>
<text text-anchor="middle" x="202.74" y="-15.67" font-family="Times,serif" font-size="14.00">TokenCC</text>
</g>
<!-- ierc165&#45;&gt;tokencc -->
<g id="edge5" class="edge">
<title>ierc165&#45;&gt;tokencc</title>
<path fill="none" stroke="black" d="M248.57,-90.7C241.76,-81.36 233.91,-70.6 226.65,-60.65"/>
<polygon fill="black" stroke="black" points="229.45,-58.55 220.73,-52.54 223.8,-62.68 229.45,-58.55"/>
</g>
<!-- ierc20 -->
<g id="node3" class="node">
<title>ierc20</title>
<ellipse fill="none" stroke="black" cx="224.74" cy="-296.09" rx="56.64" ry="26.74"/>
<text text-anchor="middle" x="224.74" y="-299.89" font-family="Times,serif" font-size="14.00">interface</text>
<text text-anchor="middle" x="224.74" y="-284.89" font-family="Times,serif" font-size="14.00">IERC20</text>
</g>
<!-- ierc20metadata -->
<g id="node4" class="node">
<title>ierc20metadata</title>
<ellipse fill="none" stroke="black" cx="224.74" cy="-206.35" rx="98.99" ry="26.74"/>
<text text-anchor="middle" x="224.74" y="-210.15" font-family="Times,serif" font-size="14.00">interface</text>
<text text-anchor="middle" x="224.74" y="-195.15" font-family="Times,serif" font-size="14.00">IERC20Metadata</text>
</g>
<!-- ierc20&#45;&gt;ierc20metadata -->
<g id="edge1" class="edge">
<title>ierc20&#45;&gt;ierc20metadata</title>
<path fill="none" stroke="black" d="M224.74,-268.77C224.74,-260.8 224.74,-251.91 224.74,-243.42"/>
<polygon fill="black" stroke="black" points="228.24,-243.35 224.74,-233.35 221.24,-243.35 228.24,-243.35"/>
</g>
<!-- ierc20metadata&#45;&gt;erc20 -->
<g id="edge3" class="edge">
<title>ierc20metadata&#45;&gt;erc20</title>
<path fill="none" stroke="black" d="M199.87,-179.97C190.21,-170.12 179.05,-158.74 168.94,-148.42"/>
<polygon fill="black" stroke="black" points="171.29,-145.82 161.79,-141.13 166.29,-150.72 171.29,-145.82"/>
</g>
<!-- erc20&#45;&gt;tokencc -->
<g id="edge4" class="edge">
<title>erc20&#45;&gt;tokencc</title>
<path fill="none" stroke="black" d="M156.57,-91.17C163.44,-81.74 171.42,-70.81 178.78,-60.72"/>
<polygon fill="black" stroke="black" points="181.72,-62.63 184.79,-52.48 176.07,-58.5 181.72,-62.63"/>
</g>
</g>
</svg>
