<?xml version="1.0" encoding="UTF-8" standalone="no"?>
<!DOCTYPE svg PUBLIC "-//W3C//DTD SVG 1.1//EN"
 "http://www.w3.org/Graphics/SVG/1.1/DTD/svg11.dtd">
<!-- Generated by graphviz version 2.43.0 (0)
 -->
<!-- Title: A Pages: 1 -->
<svg width="489pt" height="331pt"
 viewBox="0.00 0.00 489.01 330.96" xmlns="http://www.w3.org/2000/svg" xmlns:xlink="http://www.w3.org/1999/xlink">
<g id="graph0" class="graph" transform="scale(1 1) rotate(0) translate(4 326.96)">
<title>A</title>
<polygon fill="white" stroke="transparent" points="-4,4 -4,-326.96 485.01,-326.96 485.01,4 -4,4"/>
<!-- context -->
<g id="node1" class="node">
<title>context</title>
<ellipse fill="none" stroke="black" cx="192.1" cy="-206.35" rx="53.98" ry="26.74"/>
<text text-anchor="middle" x="192.1" y="-210.15" font-family="Times,serif" font-size="14.00">contract</text>
<text text-anchor="middle" x="192.1" y="-195.15" font-family="Times,serif" font-size="14.00">Context</text>
</g>
<!-- erc20 -->
<g id="node5" class="node">
<title>erc20</title>
<ellipse fill="none" stroke="black" cx="277.1" cy="-116.61" rx="53.98" ry="26.74"/>
<text text-anchor="middle" x="277.1" y="-120.41" font-family="Times,serif" font-size="14.00">contract</text>
<text text-anchor="middle" x="277.1" y="-105.41" font-family="Times,serif" font-size="14.00">ERC20</text>
</g>
<!-- context&#45;&gt;erc20 -->
<g id="edge2" class="edge">
<title>context&#45;&gt;erc20</title>
<path fill="none" stroke="black" d="M214.88,-181.84C224.79,-171.61 236.54,-159.48 247.14,-148.54"/>
<polygon fill="black" stroke="black" points="249.82,-150.81 254.26,-141.19 244.79,-145.93 249.82,-150.81"/>
</g>
<!-- ierc165 -->
<g id="node2" class="node">
<title>ierc165</title>
<ellipse fill="none" stroke="black" cx="60.1" cy="-296.09" rx="56.64" ry="26.74"/>
<text text-anchor="middle" x="60.1" y="-299.89" font-family="Times,serif" font-size="14.00">interface</text>
<text text-anchor="middle" x="60.1" y="-284.89" font-family="Times,serif" font-size="14.00">IERC165</text>
</g>
<!-- itokencc -->
<g id="node7" class="node">
<title>itokencc</title>
<ellipse fill="lightgrey" stroke="black" cx="60.1" cy="-206.35" rx="60.21" ry="26.74"/>
<text text-anchor="middle" x="60.1" y="-210.15" font-family="Times,serif" font-size="14.00">interface</text>
<text text-anchor="middle" x="60.1" y="-195.15" font-family="Times,serif" font-size="14.00">ITokenCC</text>
</g>
<!-- ierc165&#45;&gt;itokencc -->
<g id="edge8" class="edge">
<title>ierc165&#45;&gt;itokencc</title>
<path fill="none" stroke="black" d="M60.1,-268.77C60.1,-260.8 60.1,-251.91 60.1,-243.42"/>
<polygon fill="black" stroke="black" points="63.6,-243.35 60.1,-233.35 56.6,-243.35 63.6,-243.35"/>
</g>
<!-- ierc20 -->
<g id="node3" class="node">
<title>ierc20</title>
<ellipse fill="none" stroke="black" cx="363.1" cy="-296.09" rx="56.64" ry="26.74"/>
<text text-anchor="middle" x="363.1" y="-299.89" font-family="Times,serif" font-size="14.00">interface</text>
<text text-anchor="middle" x="363.1" y="-284.89" font-family="Times,serif" font-size="14.00">IERC20</text>
</g>
<!-- ierc20metadata -->
<g id="node4" class="node">
<title>ierc20metadata</title>
<ellipse fill="none" stroke="black" cx="363.1" cy="-206.35" rx="98.99" ry="26.74"/>
<text text-anchor="middle" x="363.1" y="-210.15" font-family="Times,serif" font-size="14.00">interface</text>
<text text-anchor="middle" x="363.1" y="-195.15" font-family="Times,serif" font-size="14.00">IERC20Metadata</text>
</g>
<!-- ierc20&#45;&gt;ierc20metadata -->
<g id="edge5" class="edge">
<title>ierc20&#45;&gt;ierc20metadata</title>
<path fill="none" stroke="black" d="M363.1,-268.77C363.1,-260.8 363.1,-251.91 363.1,-243.42"/>
<polygon fill="black" stroke="black" points="366.6,-243.35 363.1,-233.35 359.6,-243.35 366.6,-243.35"/>
</g>
<!-- ierc20&#45;&gt;erc20 -->
<g id="edge3" class="edge">
<title>ierc20&#45;&gt;erc20</title>
<path fill="none" stroke="black" d="M409.75,-280.85C432.53,-271.27 457.83,-256.12 471.1,-233.22 483.08,-212.56 485.2,-198.76 471.1,-179.48 441.6,-139.1 385.45,-124.45 341.12,-119.43"/>
<polygon fill="black" stroke="black" points="341.29,-115.93 331,-118.43 340.6,-122.9 341.29,-115.93"/>
</g>
<!-- ierc20&#45;&gt;itokencc -->
<g id="edge4" class="edge">
<title>ierc20&#45;&gt;itokencc</title>
<path fill="none" stroke="black" d="M312.93,-283.37C265.26,-271.87 191.76,-253.19 129.1,-233.22 124.2,-231.66 119.14,-229.95 114.08,-228.17"/>
<polygon fill="black" stroke="black" points="115.01,-224.79 104.42,-224.71 112.65,-231.38 115.01,-224.79"/>
</g>
<!-- ierc20metadata&#45;&gt;erc20 -->
<g id="edge6" class="edge">
<title>ierc20metadata&#45;&gt;erc20</title>
<path fill="none" stroke="black" d="M338.23,-179.97C328.57,-170.12 317.41,-158.74 307.3,-148.42"/>
<polygon fill="black" stroke="black" points="309.66,-145.82 300.16,-141.13 304.66,-150.72 309.66,-145.82"/>
</g>
<!-- tokencc -->
<g id="node6" class="node">
<title>tokencc</title>
<ellipse fill="lightgrey" stroke="black" cx="211.1" cy="-26.87" rx="56.64" ry="26.74"/>
<text text-anchor="middle" x="211.1" y="-30.67" font-family="Times,serif" font-size="14.00">contract</text>
<text text-anchor="middle" x="211.1" y="-15.67" font-family="Times,serif" font-size="14.00">TokenCC</text>
</g>
<!-- erc20&#45;&gt;tokencc -->
<g id="edge1" class="edge">
<title>erc20&#45;&gt;tokencc</title>
<path fill="none" stroke="black" d="M258.72,-91.17C251.63,-81.74 243.41,-70.81 235.81,-60.72"/>
<polygon fill="black" stroke="black" points="238.43,-58.37 229.62,-52.48 232.83,-62.58 238.43,-58.37"/>
</g>
<!-- itokencc&#45;&gt;tokencc -->
<g id="edge7" class="edge">
<title>itokencc&#45;&gt;tokencc</title>
<path fill="none" stroke="black" d="M80.78,-181.04C107.48,-149.67 154.01,-94.97 183.65,-60.14"/>
<polygon fill="black" stroke="black" points="186.62,-62.05 190.43,-52.17 181.29,-57.51 186.62,-62.05"/>
</g>
</g>
</svg>
