<?xml version="1.0" encoding="UTF-8" standalone="no"?>
<!DOCTYPE svg PUBLIC "-//W3C//DTD SVG 1.1//EN"
 "http://www.w3.org/Graphics/SVG/1.1/DTD/svg11.dtd">
<!-- Generated by graphviz version 2.43.0 (0)
 -->
<!-- Title: B Pages: 1 -->
<svg width="533pt" height="403pt"
 viewBox="0.00 0.00 532.76 402.96" xmlns="http://www.w3.org/2000/svg" xmlns:xlink="http://www.w3.org/1999/xlink">
<g id="page0,1_graph0" class="graph" transform="scale(1 1) rotate(0) translate(4 398.96)">
<title>B</title>
<polygon fill="white" stroke="transparent" points="-4,4 -4,-398.96 528.76,-398.96 528.76,4 -4,4"/>
<!-- address -->
<g id="node1" class="node">
<title>address</title>
<ellipse fill="none" stroke="black" cx="147.02" cy="-368.09" rx="52.15" ry="26.74"/>
<text text-anchor="middle" x="147.02" y="-371.89" font-family="Times,serif" font-size="14.00">library</text>
<text text-anchor="middle" x="147.02" y="-356.89" font-family="Times,serif" font-size="14.00">Address</text>
</g>
<!-- strings -->
<g id="node2" class="node">
<title>strings</title>
<ellipse fill="none" stroke="black" cx="266.02" cy="-368.09" rx="48.58" ry="26.74"/>
<text text-anchor="middle" x="266.02" y="-371.89" font-family="Times,serif" font-size="14.00">library</text>
<text text-anchor="middle" x="266.02" y="-356.89" font-family="Times,serif" font-size="14.00">Strings</text>
</g>
<!-- ierc721 -->
<g id="node3" class="node">
<title>ierc721</title>
<ellipse fill="none" stroke="black" cx="307.02" cy="-278.35" rx="56.64" ry="26.74"/>
<text text-anchor="middle" x="307.02" y="-282.15" font-family="Times,serif" font-size="14.00">interface</text>
<text text-anchor="middle" x="307.02" y="-267.15" font-family="Times,serif" font-size="14.00">IERC721</text>
</g>
<!-- erc721 -->
<g id="node5" class="node">
<title>erc721</title>
<ellipse fill="none" stroke="black" cx="241.02" cy="-98.87" rx="53.98" ry="26.74"/>
<text text-anchor="middle" x="241.02" y="-102.67" font-family="Times,serif" font-size="14.00">contract</text>
<text text-anchor="middle" x="241.02" y="-87.67" font-family="Times,serif" font-size="14.00">ERC721</text>
</g>
<!-- ierc721&#45;&gt;erc721 -->
<g id="edge5" class="edge">
<title>ierc721&#45;&gt;erc721</title>
<path fill="none" stroke="black" d="M284.57,-253.53C275.56,-242.69 265.94,-229.23 260.02,-215.48 249.22,-190.37 244.52,-159.75 242.5,-136.34"/>
<polygon fill="black" stroke="black" points="245.97,-135.85 241.75,-126.13 238.99,-136.36 245.97,-135.85"/>
</g>
<!-- ierc721metadata -->
<g id="node7" class="node">
<title>ierc721metadata</title>
<ellipse fill="none" stroke="black" cx="374.02" cy="-188.61" rx="105.22" ry="26.74"/>
<text text-anchor="middle" x="374.02" y="-192.41" font-family="Times,serif" font-size="14.00">interface</text>
<text text-anchor="middle" x="374.02" y="-177.41" font-family="Times,serif" font-size="14.00">IERC721Metadata</text>
</g>
<!-- ierc721&#45;&gt;ierc721metadata -->
<g id="edge9" class="edge">
<title>ierc721&#45;&gt;ierc721metadata</title>
<path fill="none" stroke="black" d="M325.69,-252.91C332.71,-243.72 340.81,-233.1 348.36,-223.22"/>
<polygon fill="black" stroke="black" points="351.24,-225.21 354.53,-215.14 345.68,-220.97 351.24,-225.21"/>
</g>
<!-- inftmanager -->
<g id="node9" class="node">
<title>inftmanager</title>
<ellipse fill="lightgrey" stroke="black" cx="82.02" cy="-98.87" rx="82.05" ry="26.74"/>
<text text-anchor="middle" x="82.02" y="-102.67" font-family="Times,serif" font-size="14.00">interface</text>
<text text-anchor="middle" x="82.02" y="-87.67" font-family="Times,serif" font-size="14.00">INFTmanager</text>
</g>
<!-- ierc721&#45;&gt;inftmanager -->
<g id="edge10" class="edge">
<title>ierc721&#45;&gt;inftmanager</title>
<path fill="none" stroke="black" d="M250.38,-277C201.78,-273.43 133.79,-260.04 96.02,-215.48 77.72,-193.89 75.25,-161.34 76.77,-136.27"/>
<polygon fill="black" stroke="black" points="80.28,-136.3 77.63,-126.04 73.31,-135.71 80.28,-136.3"/>
</g>
<!-- ierc165 -->
<g id="node4" class="node">
<title>ierc165</title>
<ellipse fill="none" stroke="black" cx="389.02" cy="-368.09" rx="56.64" ry="26.74"/>
<text text-anchor="middle" x="389.02" y="-371.89" font-family="Times,serif" font-size="14.00">interface</text>
<text text-anchor="middle" x="389.02" y="-356.89" font-family="Times,serif" font-size="14.00">IERC165</text>
</g>
<!-- ierc165&#45;&gt;ierc721 -->
<g id="edge1" class="edge">
<title>ierc165&#45;&gt;ierc721</title>
<path fill="none" stroke="black" d="M366.62,-343.12C357.31,-333.15 346.37,-321.45 336.43,-310.82"/>
<polygon fill="black" stroke="black" points="338.79,-308.21 329.4,-303.3 333.68,-312.99 338.79,-308.21"/>
</g>
<!-- erc165 -->
<g id="node8" class="node">
<title>erc165</title>
<ellipse fill="none" stroke="black" cx="471.02" cy="-278.35" rx="53.98" ry="26.74"/>
<text text-anchor="middle" x="471.02" y="-282.15" font-family="Times,serif" font-size="14.00">contract</text>
<text text-anchor="middle" x="471.02" y="-267.15" font-family="Times,serif" font-size="14.00">ERC165</text>
</g>
<!-- ierc165&#45;&gt;erc165 -->
<g id="edge2" class="edge">
<title>ierc165&#45;&gt;erc165</title>
<path fill="none" stroke="black" d="M411.43,-343.12C420.82,-333.07 431.85,-321.26 441.86,-310.55"/>
<polygon fill="black" stroke="black" points="444.66,-312.69 448.93,-302.99 439.54,-307.91 444.66,-312.69"/>
</g>
<!-- nftmanager -->
<g id="node10" class="node">
<title>nftmanager</title>
<ellipse fill="lightgrey" stroke="black" cx="159.02" cy="-18" rx="71.49" ry="18"/>
<text text-anchor="middle" x="159.02" y="-14.3" font-family="Times,serif" font-size="14.00">NFTmanager</text>
</g>
<!-- erc721&#45;&gt;nftmanager -->
<g id="edge7" class="edge">
<title>erc721&#45;&gt;nftmanager</title>
<path fill="none" stroke="black" d="M216.87,-74.63C206.37,-64.54 194.1,-52.74 183.57,-42.6"/>
<polygon fill="black" stroke="black" points="185.89,-39.98 176.25,-35.57 181.03,-45.02 185.89,-39.98"/>
</g>
<!-- context -->
<g id="node6" class="node">
<title>context</title>
<ellipse fill="none" stroke="black" cx="159.02" cy="-188.61" rx="53.98" ry="26.74"/>
<text text-anchor="middle" x="159.02" y="-192.41" font-family="Times,serif" font-size="14.00">contract</text>
<text text-anchor="middle" x="159.02" y="-177.41" font-family="Times,serif" font-size="14.00">Context</text>
</g>
<!-- context&#45;&gt;erc721 -->
<g id="edge3" class="edge">
<title>context&#45;&gt;erc721</title>
<path fill="none" stroke="black" d="M181.43,-163.63C190.82,-153.59 201.85,-141.78 211.86,-131.07"/>
<polygon fill="black" stroke="black" points="214.66,-133.21 218.93,-123.51 209.54,-128.43 214.66,-133.21"/>
</g>
<!-- ierc721metadata&#45;&gt;erc721 -->
<g id="edge6" class="edge">
<title>ierc721metadata&#45;&gt;erc721</title>
<path fill="none" stroke="black" d="M337.33,-163.4C319.89,-151.89 298.99,-138.11 281.13,-126.33"/>
<polygon fill="black" stroke="black" points="282.91,-123.31 272.63,-120.72 279.05,-129.15 282.91,-123.31"/>
</g>
<!-- erc165&#45;&gt;erc721 -->
<g id="edge4" class="edge">
<title>erc165&#45;&gt;erc721</title>
<path fill="none" stroke="black" d="M484.61,-252.04C496.21,-226.58 508.12,-187.49 488.02,-161.74 465.53,-132.92 369,-115.51 303.48,-106.8"/>
<polygon fill="black" stroke="black" points="303.62,-103.29 293.25,-105.48 302.72,-110.23 303.62,-103.29"/>
</g>
<!-- inftmanager&#45;&gt;nftmanager -->
<g id="edge8" class="edge">
<title>inftmanager&#45;&gt;nftmanager</title>
<path fill="none" stroke="black" d="M106.39,-72.92C115.7,-63.37 126.3,-52.51 135.54,-43.06"/>
<polygon fill="black" stroke="black" points="138.12,-45.42 142.6,-35.82 133.11,-40.53 138.12,-45.42"/>
</g>
</g>
</svg>
