<?xml version="1.0" encoding="UTF-8" standalone="no"?>
<!DOCTYPE svg PUBLIC "-//W3C//DTD SVG 1.1//EN"
 "http://www.w3.org/Graphics/SVG/1.1/DTD/svg11.dtd">
<!-- Generated by graphviz version 2.43.0 (0)
 -->
<!-- Title: A Pages: 1 -->
<svg width="381pt" height="241pt"
 viewBox="0.00 0.00 380.84 241.22" xmlns="http://www.w3.org/2000/svg" xmlns:xlink="http://www.w3.org/1999/xlink">
<g id="graph0" class="graph" transform="scale(1 1) rotate(0) translate(4 237.22)">
<title>A</title>
<polygon fill="white" stroke="transparent" points="-4,4 -4,-237.22 376.84,-237.22 376.84,4 -4,4"/>
<!-- context -->
<g id="node1" class="node">
<title>context</title>
<ellipse fill="none" stroke="black" cx="53.74" cy="-206.35" rx="53.98" ry="26.74"/>
<text text-anchor="middle" x="53.74" y="-210.15" font-family="Times,serif" font-size="14.00">contract</text>
<text text-anchor="middle" x="53.74" y="-195.15" font-family="Times,serif" font-size="14.00">Context</text>
</g>
<!-- erc20 -->
<g id="node4" class="node">
<title>erc20</title>
<ellipse fill="none" stroke="black" cx="180.74" cy="-116.61" rx="53.98" ry="26.74"/>
<text text-anchor="middle" x="180.74" y="-120.41" font-family="Times,serif" font-size="14.00">contract</text>
<text text-anchor="middle" x="180.74" y="-105.41" font-family="Times,serif" font-size="14.00">ERC20</text>
</g>
<!-- context&#45;&gt;erc20 -->
<g id="edge2" class="edge">
<title>context&#45;&gt;erc20</title>
<path fill="none" stroke="black" d="M84.48,-184.11C101.52,-172.34 122.88,-157.58 141.15,-144.96"/>
<polygon fill="black" stroke="black" points="143.6,-147.52 149.84,-138.96 139.62,-141.76 143.6,-147.52"/>
</g>
<!-- ierc165 -->
<g id="node2" class="node">
<title>ierc165</title>
<ellipse fill="none" stroke="black" cx="312.74" cy="-206.35" rx="56.64" ry="26.74"/>
<text text-anchor="middle" x="312.74" y="-210.15" font-family="Times,serif" font-size="14.00">interface</text>
<text text-anchor="middle" x="312.74" y="-195.15" font-family="Times,serif" font-size="14.00">IERC165</text>
</g>
<!-- itokencc -->
<g id="node6" class="node">
<title>itokencc</title>
<ellipse fill="lightgrey" stroke="black" cx="312.74" cy="-116.61" rx="60.21" ry="26.74"/>
<text text-anchor="middle" x="312.74" y="-120.41" font-family="Times,serif" font-size="14.00">interface</text>
<text text-anchor="middle" x="312.74" y="-105.41" font-family="Times,serif" font-size="14.00">ITokenCC</text>
</g>
<!-- ierc165&#45;&gt;itokencc -->
<g id="edge5" class="edge">
<title>ierc165&#45;&gt;itokencc</title>
<path fill="none" stroke="black" d="M312.74,-179.03C312.74,-171.06 312.74,-162.17 312.74,-153.68"/>
<polygon fill="black" stroke="black" points="316.24,-153.61 312.74,-143.61 309.24,-153.61 316.24,-153.61"/>
</g>
<!-- ierc20 -->
<g id="node3" class="node">
<title>ierc20</title>
<ellipse fill="none" stroke="black" cx="181.74" cy="-206.35" rx="56.64" ry="26.74"/>
<text text-anchor="middle" x="181.74" y="-210.15" font-family="Times,serif" font-size="14.00">interface</text>
<text text-anchor="middle" x="181.74" y="-195.15" font-family="Times,serif" font-size="14.00">IERC20</text>
</g>
<!-- ierc20&#45;&gt;erc20 -->
<g id="edge3" class="edge">
<title>ierc20&#45;&gt;erc20</title>
<path fill="none" stroke="black" d="M181.44,-179.03C181.35,-171.06 181.25,-162.17 181.15,-153.68"/>
<polygon fill="black" stroke="black" points="184.65,-153.57 181.04,-143.61 177.65,-153.65 184.65,-153.57"/>
</g>
<!-- tokencc -->
<g id="node5" class="node">
<title>tokencc</title>
<ellipse fill="lightgrey" stroke="black" cx="246.74" cy="-26.87" rx="56.64" ry="26.74"/>
<text text-anchor="middle" x="246.74" y="-30.67" font-family="Times,serif" font-size="14.00">contract</text>
<text text-anchor="middle" x="246.74" y="-15.67" font-family="Times,serif" font-size="14.00">TokenCC</text>
</g>
<!-- erc20&#45;&gt;tokencc -->
<g id="edge1" class="edge">
<title>erc20&#45;&gt;tokencc</title>
<path fill="none" stroke="black" d="M199.12,-91.17C206.22,-81.74 214.44,-70.81 222.03,-60.72"/>
<polygon fill="black" stroke="black" points="225.01,-62.58 228.23,-52.48 219.42,-58.37 225.01,-62.58"/>
</g>
<!-- itokencc&#45;&gt;tokencc -->
<g id="edge4" class="edge">
<title>itokencc&#45;&gt;tokencc</title>
<path fill="none" stroke="black" d="M294,-90.7C286.98,-81.36 278.88,-70.6 271.4,-60.65"/>
<polygon fill="black" stroke="black" points="274.1,-58.42 265.29,-52.54 268.51,-62.63 274.1,-58.42"/>
</g>
</g>
</svg>
