<?xml version="1.0" encoding="UTF-8" standalone="no"?>
<!DOCTYPE svg PUBLIC "-//W3C//DTD SVG 1.1//EN"
 "http://www.w3.org/Graphics/SVG/1.1/DTD/svg11.dtd">
<!-- Generated by graphviz version 2.43.0 (0)
 -->
<!-- Title: B Pages: 1 -->
<svg width="460pt" height="514pt"
 viewBox="0.00 0.00 460.48 513.91" xmlns="http://www.w3.org/2000/svg" xmlns:xlink="http://www.w3.org/1999/xlink">
<g id="page0,1_graph0" class="graph" transform="scale(1 1) rotate(0) translate(4 509.91)">
<title>B</title>
<polygon fill="white" stroke="transparent" points="-4,4 -4,-509.91 456.48,-509.91 456.48,4 -4,4"/>
<!-- address -->
<g id="node1" class="node">
<title>address</title>
<ellipse fill="none" stroke="black" cx="91.74" cy="-479.04" rx="52.15" ry="26.74"/>
<text text-anchor="middle" x="91.74" y="-482.84" font-family="Times,serif" font-size="14.00">library</text>
<text text-anchor="middle" x="91.74" y="-467.84" font-family="Times,serif" font-size="14.00">Address</text>
</g>
<!-- strings -->
<g id="node2" class="node">
<title>strings</title>
<ellipse fill="none" stroke="black" cx="210.74" cy="-479.04" rx="48.58" ry="26.74"/>
<text text-anchor="middle" x="210.74" y="-482.84" font-family="Times,serif" font-size="14.00">library</text>
<text text-anchor="middle" x="210.74" y="-467.84" font-family="Times,serif" font-size="14.00">Strings</text>
</g>
<!-- ierc721 -->
<g id="node3" class="node">
<title>ierc721</title>
<ellipse fill="none" stroke="black" cx="268.74" cy="-389.3" rx="56.64" ry="26.74"/>
<text text-anchor="middle" x="268.74" y="-393.1" font-family="Times,serif" font-size="14.00">interface</text>
<text text-anchor="middle" x="268.74" y="-378.1" font-family="Times,serif" font-size="14.00">IERC721</text>
</g>
<!-- erc721 -->
<g id="node5" class="node">
<title>erc721</title>
<ellipse fill="none" stroke="black" cx="201.74" cy="-209.82" rx="53.98" ry="26.74"/>
<text text-anchor="middle" x="201.74" y="-213.62" font-family="Times,serif" font-size="14.00">contract</text>
<text text-anchor="middle" x="201.74" y="-198.62" font-family="Times,serif" font-size="14.00">ERC721</text>
</g>
<!-- ierc721&#45;&gt;erc721 -->
<g id="edge5" class="edge">
<title>ierc721&#45;&gt;erc721</title>
<path fill="none" stroke="black" d="M220.46,-375.06C196.21,-365.7 169.02,-350.43 154.74,-326.43 142.53,-305.91 147.12,-295.33 154.74,-272.69 158.4,-261.83 164.81,-251.36 171.74,-242.22"/>
<polygon fill="black" stroke="black" points="174.63,-244.21 178.19,-234.23 169.18,-239.81 174.63,-244.21"/>
</g>
<!-- ierc721metadata -->
<g id="node7" class="node">
<title>ierc721metadata</title>
<ellipse fill="none" stroke="black" cx="268.74" cy="-299.56" rx="105.22" ry="26.74"/>
<text text-anchor="middle" x="268.74" y="-303.36" font-family="Times,serif" font-size="14.00">interface</text>
<text text-anchor="middle" x="268.74" y="-288.36" font-family="Times,serif" font-size="14.00">IERC721Metadata</text>
</g>
<!-- ierc721&#45;&gt;ierc721metadata -->
<g id="edge9" class="edge">
<title>ierc721&#45;&gt;ierc721metadata</title>
<path fill="none" stroke="black" d="M268.74,-361.98C268.74,-354.01 268.74,-345.12 268.74,-336.63"/>
<polygon fill="black" stroke="black" points="272.24,-336.57 268.74,-326.57 265.24,-336.57 272.24,-336.57"/>
</g>
<!-- ierc165 -->
<g id="node4" class="node">
<title>ierc165</title>
<ellipse fill="none" stroke="black" cx="333.74" cy="-479.04" rx="56.64" ry="26.74"/>
<text text-anchor="middle" x="333.74" y="-482.84" font-family="Times,serif" font-size="14.00">interface</text>
<text text-anchor="middle" x="333.74" y="-467.84" font-family="Times,serif" font-size="14.00">IERC165</text>
</g>
<!-- ierc165&#45;&gt;ierc721 -->
<g id="edge1" class="edge">
<title>ierc165&#45;&gt;ierc721</title>
<path fill="none" stroke="black" d="M315.29,-453.14C308.37,-443.79 300.4,-433.03 293.03,-423.09"/>
<polygon fill="black" stroke="black" points="295.78,-420.92 287.01,-414.97 290.15,-425.09 295.78,-420.92"/>
</g>
<!-- erc165 -->
<g id="node8" class="node">
<title>erc165</title>
<ellipse fill="none" stroke="black" cx="398.74" cy="-389.3" rx="53.98" ry="26.74"/>
<text text-anchor="middle" x="398.74" y="-393.1" font-family="Times,serif" font-size="14.00">contract</text>
<text text-anchor="middle" x="398.74" y="-378.1" font-family="Times,serif" font-size="14.00">ERC165</text>
</g>
<!-- ierc165&#45;&gt;erc165 -->
<g id="edge2" class="edge">
<title>ierc165&#45;&gt;erc165</title>
<path fill="none" stroke="black" d="M352.19,-453.14C359.17,-443.72 367.22,-432.85 374.64,-422.83"/>
<polygon fill="black" stroke="black" points="377.55,-424.79 380.69,-414.67 371.93,-420.62 377.55,-424.79"/>
</g>
<!-- inftmanager -->
<g id="node9" class="node">
<title>inftmanager</title>
<ellipse fill="lightgrey" stroke="black" cx="201.74" cy="-109.48" rx="82.05" ry="37.45"/>
<text text-anchor="middle" x="201.74" y="-120.78" font-family="Times,serif" font-size="14.00">abstract</text>
<text text-anchor="middle" x="201.74" y="-105.78" font-family="Times,serif" font-size="14.00">contract</text>
<text text-anchor="middle" x="201.74" y="-90.78" font-family="Times,serif" font-size="14.00">INFTmanager</text>
</g>
<!-- erc721&#45;&gt;inftmanager -->
<g id="edge7" class="edge">
<title>erc721&#45;&gt;inftmanager</title>
<path fill="none" stroke="black" d="M201.74,-182.73C201.74,-174.87 201.74,-166.01 201.74,-157.24"/>
<polygon fill="black" stroke="black" points="205.24,-157.06 201.74,-147.06 198.24,-157.06 205.24,-157.06"/>
</g>
<!-- context -->
<g id="node6" class="node">
<title>context</title>
<ellipse fill="none" stroke="black" cx="53.74" cy="-299.56" rx="53.98" ry="26.74"/>
<text text-anchor="middle" x="53.74" y="-303.36" font-family="Times,serif" font-size="14.00">contract</text>
<text text-anchor="middle" x="53.74" y="-288.36" font-family="Times,serif" font-size="14.00">Context</text>
</g>
<!-- context&#45;&gt;erc721 -->
<g id="edge3" class="edge">
<title>context&#45;&gt;erc721</title>
<path fill="none" stroke="black" d="M87.69,-278.43C108.94,-265.84 136.49,-249.51 159.19,-236.05"/>
<polygon fill="black" stroke="black" points="161.13,-238.97 167.94,-230.86 157.56,-232.95 161.13,-238.97"/>
</g>
<!-- ierc721metadata&#45;&gt;erc721 -->
<g id="edge6" class="edge">
<title>ierc721metadata&#45;&gt;erc721</title>
<path fill="none" stroke="black" d="M249,-272.71C242.01,-263.56 234.06,-253.15 226.7,-243.51"/>
<polygon fill="black" stroke="black" points="229.27,-241.11 220.42,-235.29 223.71,-245.36 229.27,-241.11"/>
</g>
<!-- erc165&#45;&gt;erc721 -->
<g id="edge4" class="edge">
<title>erc165&#45;&gt;erc721</title>
<path fill="none" stroke="black" d="M402.38,-362.28C404.46,-336.61 403.36,-297.71 382.74,-272.69 354.01,-237.85 304.74,-222.57 264.85,-215.89"/>
<polygon fill="black" stroke="black" points="265.34,-212.43 254.93,-214.38 264.28,-219.35 265.34,-212.43"/>
</g>
<!-- nftmanager -->
<g id="node10" class="node">
<title>nftmanager</title>
<ellipse fill="lightgrey" stroke="black" cx="201.74" cy="-18" rx="71.49" ry="18"/>
<text text-anchor="middle" x="201.74" y="-14.3" font-family="Times,serif" font-size="14.00">NFTmanager</text>
</g>
<!-- inftmanager&#45;&gt;nftmanager -->
<g id="edge8" class="edge">
<title>inftmanager&#45;&gt;nftmanager</title>
<path fill="none" stroke="black" d="M201.74,-71.82C201.74,-63.33 201.74,-54.43 201.74,-46.42"/>
<polygon fill="black" stroke="black" points="205.24,-46.15 201.74,-36.15 198.24,-46.15 205.24,-46.15"/>
</g>
</g>
</svg>
