<?xml version="1.0" encoding="UTF-8" standalone="no"?>
<!DOCTYPE svg PUBLIC "-//W3C//DTD SVG 1.1//EN"
 "http://www.w3.org/Graphics/SVG/1.1/DTD/svg11.dtd">
<!-- Generated by graphviz version 2.43.0 (0)
 -->
<!-- Title: A Pages: 1 -->
<svg width="501pt" height="352pt"
 viewBox="0.00 0.00 501.31 352.17" xmlns="http://www.w3.org/2000/svg" xmlns:xlink="http://www.w3.org/1999/xlink">
<g id="graph0" class="graph" transform="scale(1 1) rotate(0) translate(4 348.17)">
<title>A</title>
<polygon fill="white" stroke="transparent" points="-4,4 -4,-348.17 497.31,-348.17 497.31,4 -4,4"/>
<!-- context -->
<g id="node1" class="node">
<title>context</title>
<ellipse fill="none" stroke="black" cx="53.74" cy="-216.96" rx="53.98" ry="37.45"/>
<text text-anchor="middle" x="53.74" y="-228.26" font-family="Times,serif" font-size="14.00">abstract</text>
<text text-anchor="middle" x="53.74" y="-213.26" font-family="Times,serif" font-size="14.00">contract</text>
<text text-anchor="middle" x="53.74" y="-198.26" font-family="Times,serif" font-size="14.00">Context</text>
</g>
<!-- erc20 -->
<g id="node5" class="node">
<title>erc20</title>
<ellipse fill="none" stroke="black" cx="135.74" cy="-116.61" rx="53.98" ry="26.74"/>
<text text-anchor="middle" x="135.74" y="-120.41" font-family="Times,serif" font-size="14.00">contract</text>
<text text-anchor="middle" x="135.74" y="-105.41" font-family="Times,serif" font-size="14.00">ERC20</text>
</g>
<!-- context&#45;&gt;erc20 -->
<g id="edge1" class="edge">
<title>context&#45;&gt;erc20</title>
<path fill="none" stroke="black" d="M80.14,-184.3C89.4,-173.18 99.82,-160.69 109.11,-149.55"/>
<polygon fill="black" stroke="black" points="111.92,-151.64 115.64,-141.72 106.54,-147.16 111.92,-151.64"/>
</g>
<!-- ierc165 -->
<g id="node2" class="node">
<title>ierc165</title>
<ellipse fill="none" stroke="black" cx="436.74" cy="-216.96" rx="56.64" ry="26.74"/>
<text text-anchor="middle" x="436.74" y="-220.76" font-family="Times,serif" font-size="14.00">interface</text>
<text text-anchor="middle" x="436.74" y="-205.76" font-family="Times,serif" font-size="14.00">IERC165</text>
</g>
<!-- itokencc -->
<g id="node7" class="node">
<title>itokencc</title>
<ellipse fill="lightgrey" stroke="black" cx="267.74" cy="-116.61" rx="60.21" ry="26.74"/>
<text text-anchor="middle" x="267.74" y="-120.41" font-family="Times,serif" font-size="14.00">interface</text>
<text text-anchor="middle" x="267.74" y="-105.41" font-family="Times,serif" font-size="14.00">ITokenCC</text>
</g>
<!-- ierc165&#45;&gt;itokencc -->
<g id="edge7" class="edge">
<title>ierc165&#45;&gt;itokencc</title>
<path fill="none" stroke="black" d="M401.72,-195.58C375.73,-180.45 340.08,-159.71 312.09,-143.42"/>
<polygon fill="black" stroke="black" points="313.7,-140.3 303.29,-138.3 310.18,-146.35 313.7,-140.3"/>
</g>
<!-- ierc20 -->
<g id="node3" class="node">
<title>ierc20</title>
<ellipse fill="none" stroke="black" cx="198.74" cy="-317.3" rx="56.64" ry="26.74"/>
<text text-anchor="middle" x="198.74" y="-321.1" font-family="Times,serif" font-size="14.00">interface</text>
<text text-anchor="middle" x="198.74" y="-306.1" font-family="Times,serif" font-size="14.00">IERC20</text>
</g>
<!-- ierc20metadata -->
<g id="node4" class="node">
<title>ierc20metadata</title>
<ellipse fill="none" stroke="black" cx="262.74" cy="-216.96" rx="98.99" ry="26.74"/>
<text text-anchor="middle" x="262.74" y="-220.76" font-family="Times,serif" font-size="14.00">interface</text>
<text text-anchor="middle" x="262.74" y="-205.76" font-family="Times,serif" font-size="14.00">IERC20Metadata</text>
</g>
<!-- ierc20&#45;&gt;ierc20metadata -->
<g id="edge4" class="edge">
<title>ierc20&#45;&gt;ierc20metadata</title>
<path fill="none" stroke="black" d="M214.89,-291.49C222.65,-279.56 232.08,-265.07 240.51,-252.12"/>
<polygon fill="black" stroke="black" points="243.63,-253.74 246.15,-243.45 237.76,-249.92 243.63,-253.74"/>
</g>
<!-- ierc20&#45;&gt;erc20 -->
<g id="edge2" class="edge">
<title>ierc20&#45;&gt;erc20</title>
<path fill="none" stroke="black" d="M177.58,-292.33C169.13,-281.47 160.14,-268.03 154.74,-254.43 141.83,-221.92 137.46,-182.04 136.09,-153.74"/>
<polygon fill="black" stroke="black" points="139.58,-153.36 135.71,-143.5 132.59,-153.63 139.58,-153.36"/>
</g>
<!-- ierc20metadata&#45;&gt;erc20 -->
<g id="edge5" class="edge">
<title>ierc20metadata&#45;&gt;erc20</title>
<path fill="none" stroke="black" d="M231.02,-191.39C213.1,-177.52 190.63,-160.12 172.01,-145.7"/>
<polygon fill="black" stroke="black" points="174.08,-142.87 164.03,-139.52 169.79,-148.41 174.08,-142.87"/>
</g>
<!-- ierc20metadata&#45;&gt;itokencc -->
<g id="edge3" class="edge">
<title>ierc20metadata&#45;&gt;itokencc</title>
<path fill="none" stroke="black" d="M264.07,-189.86C264.63,-178.77 265.3,-165.65 265.91,-153.66"/>
<polygon fill="black" stroke="black" points="269.41,-153.65 266.42,-143.49 262.42,-153.3 269.41,-153.65"/>
</g>
<!-- tokencc -->
<g id="node6" class="node">
<title>tokencc</title>
<ellipse fill="lightgrey" stroke="black" cx="201.74" cy="-26.87" rx="56.64" ry="26.74"/>
<text text-anchor="middle" x="201.74" y="-30.67" font-family="Times,serif" font-size="14.00">contract</text>
<text text-anchor="middle" x="201.74" y="-15.67" font-family="Times,serif" font-size="14.00">TokenCC</text>
</g>
<!-- erc20&#45;&gt;tokencc -->
<g id="edge8" class="edge">
<title>erc20&#45;&gt;tokencc</title>
<path fill="none" stroke="black" d="M154.12,-91.17C161.22,-81.74 169.44,-70.81 177.03,-60.72"/>
<polygon fill="black" stroke="black" points="180.01,-62.58 183.23,-52.48 174.42,-58.37 180.01,-62.58"/>
</g>
<!-- itokencc&#45;&gt;tokencc -->
<g id="edge6" class="edge">
<title>itokencc&#45;&gt;tokencc</title>
<path fill="none" stroke="black" d="M249,-90.7C241.98,-81.36 233.88,-70.6 226.4,-60.65"/>
<polygon fill="black" stroke="black" points="229.1,-58.42 220.29,-52.54 223.51,-62.63 229.1,-58.42"/>
</g>
</g>
</svg>
