<?xml version="1.0" encoding="UTF-8" standalone="no"?>
<!DOCTYPE svg PUBLIC "-//W3C//DTD SVG 1.1//EN"
 "http://www.w3.org/Graphics/SVG/1.1/DTD/svg11.dtd">
<!-- Generated by graphviz version 10.0.1 (20240210.2158)
 -->
<!-- Title: B Pages: 1 -->
<svg width="466pt" height="442pt"
 viewBox="0.00 0.00 465.76 441.91" xmlns="http://www.w3.org/2000/svg" xmlns:xlink="http://www.w3.org/1999/xlink">
<g id="page0,1_graph0" class="graph" transform="scale(1 1) rotate(0) translate(4 437.91)">
<title>B</title>
<polygon fill="white" stroke="none" points="-4,4 -4,-437.91 461.76,-437.91 461.76,4 -4,4"/>
<!-- address -->
<g id="node1" class="node">
<title>address</title>
<ellipse fill="none" stroke="black" cx="77.32" cy="-404.92" rx="42.6" ry="28.99"/>
<text text-anchor="middle" x="77.32" y="-408.12" font-family="Times,serif" font-size="14.00">library</text>
<text text-anchor="middle" x="77.32" y="-391.62" font-family="Times,serif" font-size="14.00">Address</text>
</g>
<!-- strings -->
<g id="node2" class="node">
<title>strings</title>
<ellipse fill="none" stroke="black" cx="176.32" cy="-404.92" rx="38.36" ry="28.99"/>
<text text-anchor="middle" x="176.32" y="-408.12" font-family="Times,serif" font-size="14.00">library</text>
<text text-anchor="middle" x="176.32" y="-391.62" font-family="Times,serif" font-size="14.00">Strings</text>
</g>
<!-- math -->
<g id="node3" class="node">
<title>math</title>
<ellipse fill="none" stroke="black" cx="58.32" cy="-216.96" rx="36.77" ry="28.99"/>
<text text-anchor="middle" x="58.32" y="-220.16" font-family="Times,serif" font-size="14.00">library</text>
<text text-anchor="middle" x="58.32" y="-203.66" font-family="Times,serif" font-size="14.00">Math</text>
</g>
<!-- ierc721receiver -->
<g id="node4" class="node">
<title>ierc721receiver</title>
<ellipse fill="none" stroke="black" cx="81.32" cy="-310.94" rx="81.32" ry="28.99"/>
<text text-anchor="middle" x="81.32" y="-314.14" font-family="Times,serif" font-size="14.00">interface</text>
<text text-anchor="middle" x="81.32" y="-297.64" font-family="Times,serif" font-size="14.00">IERC721Receiver</text>
</g>
<!-- ierc721 -->
<g id="node5" class="node">
<title>ierc721</title>
<ellipse fill="none" stroke="black" cx="335.32" cy="-310.94" rx="47.38" ry="28.99"/>
<text text-anchor="middle" x="335.32" y="-314.14" font-family="Times,serif" font-size="14.00">interface</text>
<text text-anchor="middle" x="335.32" y="-297.64" font-family="Times,serif" font-size="14.00">IERC721</text>
</g>
<!-- erc721 -->
<g id="node7" class="node">
<title>erc721</title>
<ellipse fill="none" stroke="black" cx="245.32" cy="-122.97" rx="44.19" ry="28.99"/>
<text text-anchor="middle" x="245.32" y="-126.17" font-family="Times,serif" font-size="14.00">contract</text>
<text text-anchor="middle" x="245.32" y="-109.67" font-family="Times,serif" font-size="14.00">ERC721</text>
</g>
<!-- ierc721&#45;&gt;erc721 -->
<g id="edge5" class="edge">
<title>ierc721&#45;&gt;erc721</title>
<path fill="none" stroke="black" d="M311.4,-285.79C301.26,-274.46 290.03,-260.31 282.32,-245.95 268.3,-219.87 258.83,-187.73 252.98,-162.99"/>
<polygon fill="black" stroke="black" points="256.41,-162.31 250.8,-153.32 249.58,-163.84 256.41,-162.31"/>
</g>
<!-- ierc721metadata -->
<g id="node9" class="node">
<title>ierc721metadata</title>
<ellipse fill="none" stroke="black" cx="374.32" cy="-216.96" rx="83.44" ry="28.99"/>
<text text-anchor="middle" x="374.32" y="-220.16" font-family="Times,serif" font-size="14.00">interface</text>
<text text-anchor="middle" x="374.32" y="-203.66" font-family="Times,serif" font-size="14.00">IERC721Metadata</text>
</g>
<!-- ierc721&#45;&gt;ierc721metadata -->
<g id="edge9" class="edge">
<title>ierc721&#45;&gt;ierc721metadata</title>
<path fill="none" stroke="black" d="M346.81,-282.84C350.29,-274.63 354.18,-265.44 357.92,-256.62"/>
<polygon fill="black" stroke="black" points="361.1,-258.11 361.78,-247.53 354.65,-255.37 361.1,-258.11"/>
</g>
<!-- ierc165 -->
<g id="node6" class="node">
<title>ierc165</title>
<ellipse fill="none" stroke="black" cx="280.32" cy="-404.92" rx="47.38" ry="28.99"/>
<text text-anchor="middle" x="280.32" y="-408.12" font-family="Times,serif" font-size="14.00">interface</text>
<text text-anchor="middle" x="280.32" y="-391.62" font-family="Times,serif" font-size="14.00">IERC165</text>
</g>
<!-- ierc165&#45;&gt;ierc721 -->
<g id="edge1" class="edge">
<title>ierc165&#45;&gt;ierc721</title>
<path fill="none" stroke="black" d="M296.23,-377.32C301.64,-368.26 307.79,-357.97 313.58,-348.29"/>
<polygon fill="black" stroke="black" points="316.54,-350.16 318.67,-339.78 310.53,-346.57 316.54,-350.16"/>
</g>
<!-- erc165 -->
<g id="node10" class="node">
<title>erc165</title>
<ellipse fill="none" stroke="black" cx="225.32" cy="-310.94" rx="44.19" ry="28.99"/>
<text text-anchor="middle" x="225.32" y="-314.14" font-family="Times,serif" font-size="14.00">contract</text>
<text text-anchor="middle" x="225.32" y="-297.64" font-family="Times,serif" font-size="14.00">ERC165</text>
</g>
<!-- ierc165&#45;&gt;erc165 -->
<g id="edge2" class="edge">
<title>ierc165&#45;&gt;erc165</title>
<path fill="none" stroke="black" d="M264.41,-377.32C258.99,-368.26 252.84,-357.97 247.05,-348.29"/>
<polygon fill="black" stroke="black" points="250.1,-346.57 241.97,-339.78 244.09,-350.16 250.1,-346.57"/>
</g>
<!-- nftmanager -->
<g id="node12" class="node">
<title>nftmanager</title>
<ellipse fill="lightgrey" stroke="black" cx="309.32" cy="-28.99" rx="63.82" ry="28.99"/>
<text text-anchor="middle" x="309.32" y="-32.19" font-family="Times,serif" font-size="14.00">contract</text>
<text text-anchor="middle" x="309.32" y="-15.69" font-family="Times,serif" font-size="14.00">NFTManager</text>
</g>
<!-- erc721&#45;&gt;nftmanager -->
<g id="edge10" class="edge">
<title>erc721&#45;&gt;nftmanager</title>
<path fill="none" stroke="black" d="M263.14,-96.35C269.59,-87.09 277,-76.44 283.97,-66.42"/>
<polygon fill="black" stroke="black" points="286.77,-68.53 289.6,-58.32 281.02,-64.53 286.77,-68.53"/>
</g>
<!-- context -->
<g id="node8" class="node">
<title>context</title>
<ellipse fill="none" stroke="black" cx="155.32" cy="-216.96" rx="42.07" ry="28.99"/>
<text text-anchor="middle" x="155.32" y="-220.16" font-family="Times,serif" font-size="14.00">contract</text>
<text text-anchor="middle" x="155.32" y="-203.66" font-family="Times,serif" font-size="14.00">Context</text>
</g>
<!-- context&#45;&gt;erc721 -->
<g id="edge3" class="edge">
<title>context&#45;&gt;erc721</title>
<path fill="none" stroke="black" d="M178.49,-192.27C189.33,-181.2 202.39,-167.85 214.08,-155.9"/>
<polygon fill="black" stroke="black" points="216.36,-158.58 220.85,-148.98 211.35,-153.68 216.36,-158.58"/>
</g>
<!-- ierc721metadata&#45;&gt;erc721 -->
<g id="edge6" class="edge">
<title>ierc721metadata&#45;&gt;erc721</title>
<path fill="none" stroke="black" d="M338.38,-190.33C321.4,-178.22 301.1,-163.75 283.81,-151.42"/>
<polygon fill="black" stroke="black" points="285.95,-148.65 275.78,-145.69 281.89,-154.35 285.95,-148.65"/>
</g>
<!-- inftmanager -->
<g id="node11" class="node">
<title>inftmanager</title>
<ellipse fill="lightgrey" stroke="black" cx="374.32" cy="-122.97" rx="67" ry="28.99"/>
<text text-anchor="middle" x="374.32" y="-126.17" font-family="Times,serif" font-size="14.00">interface</text>
<text text-anchor="middle" x="374.32" y="-109.67" font-family="Times,serif" font-size="14.00">INFTManager</text>
</g>
<!-- ierc721metadata&#45;&gt;inftmanager -->
<g id="edge7" class="edge">
<title>ierc721metadata&#45;&gt;inftmanager</title>
<path fill="none" stroke="black" d="M374.32,-187.61C374.32,-180.09 374.32,-171.83 374.32,-163.82"/>
<polygon fill="black" stroke="black" points="377.82,-163.9 374.32,-153.9 370.82,-163.9 377.82,-163.9"/>
</g>
<!-- erc165&#45;&gt;erc721 -->
<g id="edge4" class="edge">
<title>erc165&#45;&gt;erc721</title>
<path fill="none" stroke="black" d="M228.35,-281.7C231.74,-250.2 237.24,-199.03 241.06,-163.56"/>
<polygon fill="black" stroke="black" points="244.53,-164 242.12,-153.68 237.57,-163.25 244.53,-164"/>
</g>
<!-- inftmanager&#45;&gt;nftmanager -->
<g id="edge8" class="edge">
<title>inftmanager&#45;&gt;nftmanager</title>
<path fill="none" stroke="black" d="M355.17,-94.87C348.82,-85.89 341.65,-75.75 334.9,-66.19"/>
<polygon fill="black" stroke="black" points="337.83,-64.28 329.2,-58.13 332.12,-68.32 337.83,-64.28"/>
</g>
</g>
</svg>
