<?xml version="1.0" encoding="UTF-8" standalone="no"?>
<!DOCTYPE svg PUBLIC "-//W3C//DTD SVG 1.1//EN"
 "http://www.w3.org/Graphics/SVG/1.1/DTD/svg11.dtd">
<!-- Generated by graphviz version 14.1.2 (20260124.0452)
 -->
<!-- Title: A Pages: 1 -->
<svg width="418pt" height="371pt"
 viewBox="0.00 0.00 418.00 371.00" xmlns="http://www.w3.org/2000/svg" xmlns:xlink="http://www.w3.org/1999/xlink">
<g id="graph0" class="graph" transform="scale(1 1) rotate(0) translate(4 367.27)">
<title>A</title>
<polygon fill="white" stroke="none" points="-4,4 -4,-367.27 414.45,-367.27 414.45,4 -4,4"/>
<!-- context -->
<g id="node1" class="node">
<title>context</title>
<ellipse fill="none" stroke="black" cx="42.07" cy="-228.62" rx="42.07" ry="40.66"/>
<text xml:space="preserve" text-anchor="middle" x="42.07" y="-240.07" font-family="Times,serif" font-size="14.00">abstract</text>
<text xml:space="preserve" text-anchor="middle" x="42.07" y="-223.57" font-family="Times,serif" font-size="14.00">contract</text>
<text xml:space="preserve" text-anchor="middle" x="42.07" y="-207.07" font-family="Times,serif" font-size="14.00">Context</text>
</g>
<!-- erc20 -->
<g id="node5" class="node">
<title>erc20</title>
<ellipse fill="none" stroke="black" cx="112.07" cy="-122.97" rx="42.07" ry="28.99"/>
<text xml:space="preserve" text-anchor="middle" x="112.07" y="-126.17" font-family="Times,serif" font-size="14.00">contract</text>
<text xml:space="preserve" text-anchor="middle" x="112.07" y="-109.67" font-family="Times,serif" font-size="14.00">ERC20</text>
</g>
<!-- context&#45;&gt;erc20 -->
<g id="edge1" class="edge">
<title>context&#45;&gt;erc20</title>
<path fill="none" stroke="black" d="M64.8,-193.97C72.33,-182.82 80.74,-170.37 88.34,-159.11"/>
<polygon fill="black" stroke="black" points="91.24,-161.08 93.94,-150.83 85.44,-157.16 91.24,-161.08"/>
</g>
<!-- ierc165 -->
<g id="node2" class="node">
<title>ierc165</title>
<ellipse fill="none" stroke="black" cx="363.07" cy="-228.62" rx="47.38" ry="28.99"/>
<text xml:space="preserve" text-anchor="middle" x="363.07" y="-231.82" font-family="Times,serif" font-size="14.00">interface</text>
<text xml:space="preserve" text-anchor="middle" x="363.07" y="-215.32" font-family="Times,serif" font-size="14.00">IERC165</text>
</g>
<!-- itokencc -->
<g id="node7" class="node">
<title>itokencc</title>
<ellipse fill="lightgrey" stroke="black" cx="224.07" cy="-122.97" rx="51.62" ry="28.99"/>
<text xml:space="preserve" text-anchor="middle" x="224.07" y="-126.17" font-family="Times,serif" font-size="14.00">interface</text>
<text xml:space="preserve" text-anchor="middle" x="224.07" y="-109.67" font-family="Times,serif" font-size="14.00">ITokenCC</text>
</g>
<!-- ierc165&#45;&gt;itokencc -->
<g id="edge7" class="edge">
<title>ierc165&#45;&gt;itokencc</title>
<path fill="none" stroke="black" d="M333.59,-205.64C313.23,-190.46 285.92,-170.09 263.66,-153.5"/>
<polygon fill="black" stroke="black" points="265.79,-150.72 255.68,-147.55 261.61,-156.33 265.79,-150.72"/>
</g>
<!-- ierc20 -->
<g id="node3" class="node">
<title>ierc20</title>
<ellipse fill="none" stroke="black" cx="165.07" cy="-334.27" rx="44.72" ry="28.99"/>
<text xml:space="preserve" text-anchor="middle" x="165.07" y="-337.47" font-family="Times,serif" font-size="14.00">interface</text>
<text xml:space="preserve" text-anchor="middle" x="165.07" y="-320.97" font-family="Times,serif" font-size="14.00">IERC20</text>
</g>
<!-- ierc20metadata -->
<g id="node4" class="node">
<title>ierc20metadata</title>
<ellipse fill="none" stroke="black" cx="219.07" cy="-228.62" rx="78.67" ry="28.99"/>
<text xml:space="preserve" text-anchor="middle" x="219.07" y="-231.82" font-family="Times,serif" font-size="14.00">interface</text>
<text xml:space="preserve" text-anchor="middle" x="219.07" y="-215.32" font-family="Times,serif" font-size="14.00">IERC20Metadata</text>
</g>
<!-- ierc20&#45;&gt;ierc20metadata -->
<g id="edge4" class="edge">
<title>ierc20&#45;&gt;ierc20metadata</title>
<path fill="none" stroke="black" d="M179.12,-306.31C185.28,-294.48 192.63,-280.38 199.33,-267.52"/>
<polygon fill="black" stroke="black" points="202.32,-269.36 203.83,-258.88 196.11,-266.13 202.32,-269.36"/>
</g>
<!-- ierc20&#45;&gt;erc20 -->
<g id="edge2" class="edge">
<title>ierc20&#45;&gt;erc20</title>
<path fill="none" stroke="black" d="M148.44,-307.13C142.03,-295.89 135.25,-282.35 131.07,-269.28 119.97,-234.52 115.34,-193.08 113.42,-163.37"/>
<polygon fill="black" stroke="black" points="116.93,-163.5 112.88,-153.72 109.95,-163.9 116.93,-163.5"/>
</g>
<!-- ierc20metadata&#45;&gt;erc20 -->
<g id="edge5" class="edge">
<title>ierc20metadata&#45;&gt;erc20</title>
<path fill="none" stroke="black" d="M191.8,-201.2C177.27,-187.13 159.32,-169.75 144.14,-155.03"/>
<polygon fill="black" stroke="black" points="146.73,-152.67 137.11,-148.23 141.86,-157.7 146.73,-152.67"/>
</g>
<!-- ierc20metadata&#45;&gt;itokencc -->
<g id="edge3" class="edge">
<title>ierc20metadata&#45;&gt;itokencc</title>
<path fill="none" stroke="black" d="M220.44,-199.3C220.97,-188.33 221.58,-175.58 222.16,-163.72"/>
<polygon fill="black" stroke="black" points="225.65,-163.93 222.64,-153.77 218.66,-163.59 225.65,-163.93"/>
</g>
<!-- tokencc -->
<g id="node6" class="node">
<title>tokencc</title>
<ellipse fill="lightgrey" stroke="black" cx="168.07" cy="-28.99" rx="48.44" ry="28.99"/>
<text xml:space="preserve" text-anchor="middle" x="168.07" y="-32.19" font-family="Times,serif" font-size="14.00">contract</text>
<text xml:space="preserve" text-anchor="middle" x="168.07" y="-15.69" font-family="Times,serif" font-size="14.00">TokenCC</text>
</g>
<!-- erc20&#45;&gt;tokencc -->
<g id="edge8" class="edge">
<title>erc20&#45;&gt;tokencc</title>
<path fill="none" stroke="black" d="M127.97,-95.86C133.6,-86.62 140.03,-76.05 146.07,-66.13"/>
<polygon fill="black" stroke="black" points="148.94,-68.14 151.15,-57.78 142.96,-64.5 148.94,-68.14"/>
</g>
<!-- itokencc&#45;&gt;tokencc -->
<g id="edge6" class="edge">
<title>itokencc&#45;&gt;tokencc</title>
<path fill="none" stroke="black" d="M207.88,-95.37C202.36,-86.31 196.1,-76.03 190.2,-66.34"/>
<polygon fill="black" stroke="black" points="193.21,-64.55 185.02,-57.83 187.23,-68.19 193.21,-64.55"/>
</g>
</g>
</svg>
