<?xml version="1.0" encoding="UTF-8" standalone="no"?>
<!DOCTYPE svg PUBLIC "-//W3C//DTD SVG 1.1//EN"
 "http://www.w3.org/Graphics/SVG/1.1/DTD/svg11.dtd">
<!-- Generated by graphviz version 2.43.0 (0)
 -->
<!-- Title: A Pages: 1 -->
<svg width="501pt" height="331pt"
 viewBox="0.00 0.00 501.31 330.96" xmlns="http://www.w3.org/2000/svg" xmlns:xlink="http://www.w3.org/1999/xlink">
<g id="graph0" class="graph" transform="scale(1 1) rotate(0) translate(4 326.96)">
<title>A</title>
<polygon fill="white" stroke="transparent" points="-4,4 -4,-326.96 497.31,-326.96 497.31,4 -4,4"/>
<!-- context -->
<g id="node1" class="node">
<title>context</title>
<ellipse fill="none" stroke="black" cx="53.74" cy="-206.35" rx="53.98" ry="26.74"/>
<text text-anchor="middle" x="53.74" y="-210.15" font-family="Times,serif" font-size="14.00">contract</text>
<text text-anchor="middle" x="53.74" y="-195.15" font-family="Times,serif" font-size="14.00">Context</text>
</g>
<!-- erc20 -->
<g id="node5" class="node">
<title>erc20</title>
<ellipse fill="none" stroke="black" cx="135.74" cy="-116.61" rx="53.98" ry="26.74"/>
<text text-anchor="middle" x="135.74" y="-120.41" font-family="Times,serif" font-size="14.00">contract</text>
<text text-anchor="middle" x="135.74" y="-105.41" font-family="Times,serif" font-size="14.00">ERC20</text>
</g>
<!-- context&#45;&gt;erc20 -->
<g id="edge1" class="edge">
<title>context&#45;&gt;erc20</title>
<path fill="none" stroke="black" d="M76.15,-181.37C85.53,-171.33 96.57,-159.52 106.58,-148.81"/>
<polygon fill="black" stroke="black" points="109.37,-150.95 113.64,-141.25 104.26,-146.17 109.37,-150.95"/>
</g>
<!-- ierc165 -->
<g id="node2" class="node">
<title>ierc165</title>
<ellipse fill="none" stroke="black" cx="436.74" cy="-206.35" rx="56.64" ry="26.74"/>
<text text-anchor="middle" x="436.74" y="-210.15" font-family="Times,serif" font-size="14.00">interface</text>
<text text-anchor="middle" x="436.74" y="-195.15" font-family="Times,serif" font-size="14.00">IERC165</text>
</g>
<!-- itokencc -->
<g id="node7" class="node">
<title>itokencc</title>
<ellipse fill="lightgrey" stroke="black" cx="267.74" cy="-116.61" rx="60.21" ry="26.74"/>
<text text-anchor="middle" x="267.74" y="-120.41" font-family="Times,serif" font-size="14.00">interface</text>
<text text-anchor="middle" x="267.74" y="-105.41" font-family="Times,serif" font-size="14.00">ITokenCC</text>
</g>
<!-- ierc165&#45;&gt;itokencc -->
<g id="edge7" class="edge">
<title>ierc165&#45;&gt;itokencc</title>
<path fill="none" stroke="black" d="M399.23,-185.88C374.44,-173.01 341.74,-156.03 315.15,-142.22"/>
<polygon fill="black" stroke="black" points="316.51,-138.99 306.02,-137.48 313.28,-145.2 316.51,-138.99"/>
</g>
<!-- ierc20 -->
<g id="node3" class="node">
<title>ierc20</title>
<ellipse fill="none" stroke="black" cx="198.74" cy="-296.09" rx="56.64" ry="26.74"/>
<text text-anchor="middle" x="198.74" y="-299.89" font-family="Times,serif" font-size="14.00">interface</text>
<text text-anchor="middle" x="198.74" y="-284.89" font-family="Times,serif" font-size="14.00">IERC20</text>
</g>
<!-- ierc20metadata -->
<g id="node4" class="node">
<title>ierc20metadata</title>
<ellipse fill="none" stroke="black" cx="262.74" cy="-206.35" rx="98.99" ry="26.74"/>
<text text-anchor="middle" x="262.74" y="-210.15" font-family="Times,serif" font-size="14.00">interface</text>
<text text-anchor="middle" x="262.74" y="-195.15" font-family="Times,serif" font-size="14.00">IERC20Metadata</text>
</g>
<!-- ierc20&#45;&gt;ierc20metadata -->
<g id="edge4" class="edge">
<title>ierc20&#45;&gt;ierc20metadata</title>
<path fill="none" stroke="black" d="M216.91,-270.18C223.48,-261.17 231.02,-250.83 238.06,-241.18"/>
<polygon fill="black" stroke="black" points="241.02,-243.07 244.08,-232.93 235.36,-238.95 241.02,-243.07"/>
</g>
<!-- ierc20&#45;&gt;erc20 -->
<g id="edge2" class="edge">
<title>ierc20&#45;&gt;erc20</title>
<path fill="none" stroke="black" d="M177.74,-271.05C169.32,-260.18 160.31,-246.75 154.74,-233.22 144.33,-207.94 139.62,-177.33 137.48,-153.97"/>
<polygon fill="black" stroke="black" points="140.96,-153.47 136.67,-143.78 133.98,-154.03 140.96,-153.47"/>
</g>
<!-- ierc20metadata&#45;&gt;erc20 -->
<g id="edge5" class="edge">
<title>ierc20metadata&#45;&gt;erc20</title>
<path fill="none" stroke="black" d="M227.7,-181.14C211.32,-169.83 191.75,-156.31 174.89,-144.66"/>
<polygon fill="black" stroke="black" points="176.56,-141.56 166.35,-138.75 172.58,-147.32 176.56,-141.56"/>
</g>
<!-- ierc20metadata&#45;&gt;itokencc -->
<g id="edge3" class="edge">
<title>ierc20metadata&#45;&gt;itokencc</title>
<path fill="none" stroke="black" d="M264.24,-179.03C264.69,-171.06 265.2,-162.17 265.68,-153.68"/>
<polygon fill="black" stroke="black" points="269.18,-153.8 266.26,-143.61 262.19,-153.4 269.18,-153.8"/>
</g>
<!-- tokencc -->
<g id="node6" class="node">
<title>tokencc</title>
<ellipse fill="lightgrey" stroke="black" cx="201.74" cy="-26.87" rx="56.64" ry="26.74"/>
<text text-anchor="middle" x="201.74" y="-30.67" font-family="Times,serif" font-size="14.00">contract</text>
<text text-anchor="middle" x="201.74" y="-15.67" font-family="Times,serif" font-size="14.00">TokenCC</text>
</g>
<!-- erc20&#45;&gt;tokencc -->
<g id="edge8" class="edge">
<title>erc20&#45;&gt;tokencc</title>
<path fill="none" stroke="black" d="M154.12,-91.17C161.22,-81.74 169.44,-70.81 177.03,-60.72"/>
<polygon fill="black" stroke="black" points="180.01,-62.58 183.23,-52.48 174.42,-58.37 180.01,-62.58"/>
</g>
<!-- itokencc&#45;&gt;tokencc -->
<g id="edge6" class="edge">
<title>itokencc&#45;&gt;tokencc</title>
<path fill="none" stroke="black" d="M249,-90.7C241.98,-81.36 233.88,-70.6 226.4,-60.65"/>
<polygon fill="black" stroke="black" points="229.1,-58.42 220.29,-52.54 223.51,-62.63 229.1,-58.42"/>
</g>
</g>
</svg>
