<?xml version="1.0" encoding="UTF-8" standalone="no"?>
<!DOCTYPE svg PUBLIC "-//W3C//DTD SVG 1.1//EN"
 "http://www.w3.org/Graphics/SVG/1.1/DTD/svg11.dtd">
<!-- Generated by graphviz version 2.43.0 (0)
 -->
<!-- Title: B Pages: 1 -->
<svg width="649pt" height="313pt"
 viewBox="0.00 0.00 648.68 313.22" xmlns="http://www.w3.org/2000/svg" xmlns:xlink="http://www.w3.org/1999/xlink">
<g id="page0,1_graph0" class="graph" transform="scale(1 1) rotate(0) translate(4 309.22)">
<title>B</title>
<polygon fill="white" stroke="transparent" points="-4,4 -4,-309.22 644.68,-309.22 644.68,4 -4,4"/>
<!-- address -->
<g id="node1" class="node">
<title>address</title>
<ellipse fill="none" stroke="black" cx="52.33" cy="-278.35" rx="52.15" ry="26.74"/>
<text text-anchor="middle" x="52.33" y="-282.15" font-family="Times,serif" font-size="14.00">library</text>
<text text-anchor="middle" x="52.33" y="-267.15" font-family="Times,serif" font-size="14.00">Address</text>
</g>
<!-- strings -->
<g id="node2" class="node">
<title>strings</title>
<ellipse fill="none" stroke="black" cx="171.33" cy="-278.35" rx="48.58" ry="26.74"/>
<text text-anchor="middle" x="171.33" y="-282.15" font-family="Times,serif" font-size="14.00">library</text>
<text text-anchor="middle" x="171.33" y="-267.15" font-family="Times,serif" font-size="14.00">Strings</text>
</g>
<!-- ierc721 -->
<g id="node3" class="node">
<title>ierc721</title>
<ellipse fill="none" stroke="black" cx="230.33" cy="-188.61" rx="56.64" ry="26.74"/>
<text text-anchor="middle" x="230.33" y="-192.41" font-family="Times,serif" font-size="14.00">interface</text>
<text text-anchor="middle" x="230.33" y="-177.41" font-family="Times,serif" font-size="14.00">IERC721</text>
</g>
<!-- erc721 -->
<g id="node5" class="node">
<title>erc721</title>
<ellipse fill="none" stroke="black" cx="358.33" cy="-98.87" rx="53.98" ry="26.74"/>
<text text-anchor="middle" x="358.33" y="-102.67" font-family="Times,serif" font-size="14.00">contract</text>
<text text-anchor="middle" x="358.33" y="-87.67" font-family="Times,serif" font-size="14.00">ERC721</text>
</g>
<!-- ierc721&#45;&gt;erc721 -->
<g id="edge5" class="edge">
<title>ierc721&#45;&gt;erc721</title>
<path fill="none" stroke="black" d="M261.64,-166.15C278.81,-154.37 300.28,-139.66 318.62,-127.09"/>
<polygon fill="black" stroke="black" points="321.07,-129.65 327.34,-121.11 317.11,-123.88 321.07,-129.65"/>
</g>
<!-- ierc165 -->
<g id="node4" class="node">
<title>ierc165</title>
<ellipse fill="none" stroke="black" cx="294.33" cy="-278.35" rx="56.64" ry="26.74"/>
<text text-anchor="middle" x="294.33" y="-282.15" font-family="Times,serif" font-size="14.00">interface</text>
<text text-anchor="middle" x="294.33" y="-267.15" font-family="Times,serif" font-size="14.00">IERC165</text>
</g>
<!-- ierc165&#45;&gt;ierc721 -->
<g id="edge1" class="edge">
<title>ierc165&#45;&gt;ierc721</title>
<path fill="none" stroke="black" d="M276.16,-252.44C269.34,-243.1 261.49,-232.34 254.24,-222.39"/>
<polygon fill="black" stroke="black" points="257.04,-220.29 248.32,-214.28 251.38,-224.42 257.04,-220.29"/>
</g>
<!-- erc165 -->
<g id="node11" class="node">
<title>erc165</title>
<ellipse fill="none" stroke="black" cx="358.33" cy="-188.61" rx="53.98" ry="26.74"/>
<text text-anchor="middle" x="358.33" y="-192.41" font-family="Times,serif" font-size="14.00">contract</text>
<text text-anchor="middle" x="358.33" y="-177.41" font-family="Times,serif" font-size="14.00">ERC165</text>
</g>
<!-- ierc165&#45;&gt;erc165 -->
<g id="edge2" class="edge">
<title>ierc165&#45;&gt;erc165</title>
<path fill="none" stroke="black" d="M312.49,-252.44C319.37,-243.02 327.29,-232.16 334.6,-222.14"/>
<polygon fill="black" stroke="black" points="337.49,-224.12 340.55,-213.97 331.83,-219.99 337.49,-224.12"/>
</g>
<!-- nftmanager -->
<g id="node10" class="node">
<title>nftmanager</title>
<ellipse fill="none" stroke="black" cx="430.33" cy="-18" rx="71.49" ry="18"/>
<text text-anchor="middle" x="430.33" y="-14.3" font-family="Times,serif" font-size="14.00">NFTmanager</text>
</g>
<!-- erc721&#45;&gt;nftmanager -->
<g id="edge8" class="edge">
<title>erc721&#45;&gt;nftmanager</title>
<path fill="none" stroke="black" d="M379.93,-74.21C388.82,-64.47 399.11,-53.19 408.07,-43.38"/>
<polygon fill="black" stroke="black" points="410.76,-45.63 414.91,-35.88 405.59,-40.91 410.76,-45.63"/>
</g>
<!-- context -->
<g id="node6" class="node">
<title>context</title>
<ellipse fill="none" stroke="black" cx="102.33" cy="-188.61" rx="53.98" ry="26.74"/>
<text text-anchor="middle" x="102.33" y="-192.41" font-family="Times,serif" font-size="14.00">contract</text>
<text text-anchor="middle" x="102.33" y="-177.41" font-family="Times,serif" font-size="14.00">Context</text>
</g>
<!-- context&#45;&gt;erc721 -->
<g id="edge3" class="edge">
<title>context&#45;&gt;erc721</title>
<path fill="none" stroke="black" d="M142.15,-170.4C149.48,-167.4 157.1,-164.39 164.33,-161.74 210.52,-144.77 263.84,-127.96 302.87,-116.16"/>
<polygon fill="black" stroke="black" points="303.91,-119.5 312.48,-113.27 301.89,-112.8 303.91,-119.5"/>
</g>
<!-- ierc721metadata -->
<g id="node7" class="node">
<title>ierc721metadata</title>
<ellipse fill="none" stroke="black" cx="535.33" cy="-188.61" rx="105.22" ry="26.74"/>
<text text-anchor="middle" x="535.33" y="-192.41" font-family="Times,serif" font-size="14.00">interface</text>
<text text-anchor="middle" x="535.33" y="-177.41" font-family="Times,serif" font-size="14.00">IERC721Metadata</text>
</g>
<!-- ierc721metadata&#45;&gt;erc721 -->
<g id="edge6" class="edge">
<title>ierc721metadata&#45;&gt;erc721</title>
<path fill="none" stroke="black" d="M488.36,-164.33C462.54,-151.53 430.63,-135.71 404.88,-122.95"/>
<polygon fill="black" stroke="black" points="406.21,-119.7 395.7,-118.4 403.11,-125.97 406.21,-119.7"/>
</g>
<!-- ierc721full -->
<g id="node8" class="node">
<title>ierc721full</title>
<ellipse fill="none" stroke="black" cx="519.33" cy="-98.87" rx="73.58" ry="26.74"/>
<text text-anchor="middle" x="519.33" y="-102.67" font-family="Times,serif" font-size="14.00">interface</text>
<text text-anchor="middle" x="519.33" y="-87.67" font-family="Times,serif" font-size="14.00">IERC721full</text>
</g>
<!-- ierc721metadata&#45;&gt;ierc721full -->
<g id="edge7" class="edge">
<title>ierc721metadata&#45;&gt;ierc721full</title>
<path fill="none" stroke="black" d="M530.61,-161.76C529.13,-153.62 527.46,-144.48 525.87,-135.77"/>
<polygon fill="black" stroke="black" points="529.3,-135.05 524.06,-125.84 522.41,-136.3 529.3,-135.05"/>
</g>
<!-- ierc721full&#45;&gt;nftmanager -->
<g id="edge9" class="edge">
<title>ierc721full&#45;&gt;nftmanager</title>
<path fill="none" stroke="black" d="M492.14,-73.78C480.87,-63.79 467.84,-52.25 456.66,-42.34"/>
<polygon fill="black" stroke="black" points="458.7,-39.47 448.9,-35.46 454.06,-44.71 458.7,-39.47"/>
</g>
<!-- ierc721receiver -->
<g id="node9" class="node">
<title>ierc721receiver</title>
<ellipse fill="none" stroke="black" cx="470.33" cy="-278.35" rx="101.23" ry="26.74"/>
<text text-anchor="middle" x="470.33" y="-282.15" font-family="Times,serif" font-size="14.00">interface</text>
<text text-anchor="middle" x="470.33" y="-267.15" font-family="Times,serif" font-size="14.00">IERC721Receiver</text>
</g>
<!-- erc165&#45;&gt;erc721 -->
<g id="edge4" class="edge">
<title>erc165&#45;&gt;erc721</title>
<path fill="none" stroke="black" d="M358.33,-161.29C358.33,-153.32 358.33,-144.43 358.33,-135.94"/>
<polygon fill="black" stroke="black" points="361.83,-135.87 358.33,-125.87 354.83,-135.87 361.83,-135.87"/>
</g>
</g>
</svg>
