<?xml version="1.0" encoding="UTF-8" standalone="no"?>
<!DOCTYPE svg PUBLIC "-//W3C//DTD SVG 1.1//EN"
 "http://www.w3.org/Graphics/SVG/1.1/DTD/svg11.dtd">
<!-- Generated by graphviz version 2.43.0 (0)
 -->
<!-- Title: A Pages: 1 -->
<svg width="310pt" height="352pt"
 viewBox="0.00 0.00 310.31 352.17" xmlns="http://www.w3.org/2000/svg" xmlns:xlink="http://www.w3.org/1999/xlink">
<g id="graph0" class="graph" transform="scale(1 1) rotate(0) translate(4 348.17)">
<title>A</title>
<polygon fill="white" stroke="transparent" points="-4,4 -4,-348.17 306.31,-348.17 306.31,4 -4,4"/>
<!-- context -->
<g id="node1" class="node">
<title>context</title>
<ellipse fill="none" stroke="black" cx="53.74" cy="-317.3" rx="53.98" ry="26.74"/>
<text text-anchor="middle" x="53.74" y="-321.1" font-family="Times,serif" font-size="14.00">contract</text>
<text text-anchor="middle" x="53.74" y="-306.1" font-family="Times,serif" font-size="14.00">Context</text>
</g>
<!-- erc20 -->
<g id="node4" class="node">
<title>erc20</title>
<ellipse fill="none" stroke="black" cx="117.74" cy="-227.56" rx="53.98" ry="26.74"/>
<text text-anchor="middle" x="117.74" y="-231.36" font-family="Times,serif" font-size="14.00">contract</text>
<text text-anchor="middle" x="117.74" y="-216.36" font-family="Times,serif" font-size="14.00">ERC20</text>
</g>
<!-- context&#45;&gt;erc20 -->
<g id="edge2" class="edge">
<title>context&#45;&gt;erc20</title>
<path fill="none" stroke="black" d="M71.57,-291.86C78.44,-282.43 86.42,-271.51 93.78,-261.41"/>
<polygon fill="black" stroke="black" points="96.72,-263.32 99.79,-253.18 91.07,-259.19 96.72,-263.32"/>
</g>
<!-- ierc165 -->
<g id="node2" class="node">
<title>ierc165</title>
<ellipse fill="none" stroke="black" cx="245.74" cy="-227.56" rx="56.64" ry="26.74"/>
<text text-anchor="middle" x="245.74" y="-231.36" font-family="Times,serif" font-size="14.00">interface</text>
<text text-anchor="middle" x="245.74" y="-216.36" font-family="Times,serif" font-size="14.00">IERC165</text>
</g>
<!-- itokencc -->
<g id="node6" class="node">
<title>itokencc</title>
<ellipse fill="lightgrey" stroke="black" cx="181.74" cy="-127.22" rx="60.62" ry="37.45"/>
<text text-anchor="middle" x="181.74" y="-138.52" font-family="Times,serif" font-size="14.00">abstract</text>
<text text-anchor="middle" x="181.74" y="-123.52" font-family="Times,serif" font-size="14.00">contract</text>
<text text-anchor="middle" x="181.74" y="-108.52" font-family="Times,serif" font-size="14.00">ITokenCC</text>
</g>
<!-- ierc165&#45;&gt;itokencc -->
<g id="edge5" class="edge">
<title>ierc165&#45;&gt;itokencc</title>
<path fill="none" stroke="black" d="M229.59,-201.75C223.51,-192.41 216.42,-181.51 209.58,-171"/>
<polygon fill="black" stroke="black" points="212.32,-168.78 203.93,-162.31 206.45,-172.6 212.32,-168.78"/>
</g>
<!-- ierc20 -->
<g id="node3" class="node">
<title>ierc20</title>
<ellipse fill="none" stroke="black" cx="181.74" cy="-317.3" rx="56.64" ry="26.74"/>
<text text-anchor="middle" x="181.74" y="-321.1" font-family="Times,serif" font-size="14.00">interface</text>
<text text-anchor="middle" x="181.74" y="-306.1" font-family="Times,serif" font-size="14.00">IERC20</text>
</g>
<!-- ierc20&#45;&gt;erc20 -->
<g id="edge3" class="edge">
<title>ierc20&#45;&gt;erc20</title>
<path fill="none" stroke="black" d="M163.57,-291.4C156.7,-281.98 148.78,-271.11 141.47,-261.09"/>
<polygon fill="black" stroke="black" points="144.23,-258.94 135.51,-252.93 138.58,-263.07 144.23,-258.94"/>
</g>
<!-- erc20&#45;&gt;itokencc -->
<g id="edge1" class="edge">
<title>erc20&#45;&gt;itokencc</title>
<path fill="none" stroke="black" d="M133.89,-201.75C139.97,-192.41 147.06,-181.51 153.9,-171"/>
<polygon fill="black" stroke="black" points="157.03,-172.6 159.55,-162.31 151.16,-168.78 157.03,-172.6"/>
</g>
<!-- tokencc -->
<g id="node5" class="node">
<title>tokencc</title>
<ellipse fill="lightgrey" stroke="black" cx="181.74" cy="-26.87" rx="56.64" ry="26.74"/>
<text text-anchor="middle" x="181.74" y="-30.67" font-family="Times,serif" font-size="14.00">contract</text>
<text text-anchor="middle" x="181.74" y="-15.67" font-family="Times,serif" font-size="14.00">TokenCC</text>
</g>
<!-- itokencc&#45;&gt;tokencc -->
<g id="edge4" class="edge">
<title>itokencc&#45;&gt;tokencc</title>
<path fill="none" stroke="black" d="M181.74,-89.6C181.74,-81.23 181.74,-72.33 181.74,-63.98"/>
<polygon fill="black" stroke="black" points="185.24,-63.78 181.74,-53.78 178.24,-63.78 185.24,-63.78"/>
</g>
</g>
</svg>
