<?xml version="1.0" encoding="UTF-8" standalone="no"?>
<!DOCTYPE svg PUBLIC "-//W3C//DTD SVG 1.1//EN"
 "http://www.w3.org/Graphics/SVG/1.1/DTD/svg11.dtd">
<!-- Generated by graphviz version 2.43.0 (0)
 -->
<!-- Title: G Pages: 1 -->
<svg width="48pt" height="444pt"
 viewBox="0.00 0.00 48.00 444.00" xmlns="http://www.w3.org/2000/svg" xmlns:xlink="http://www.w3.org/1999/xlink">
<g id="graph0" class="graph" transform="scale(1 1) rotate(0) translate(4 440)">
<title>G</title>
<polygon fill="white" stroke="transparent" points="-4,4 -4,-440 44,-440 44,4 -4,4"/>
<!-- r0c -->
<g id="node1" class="node">
<title>r0c</title>
<ellipse fill="red" stroke="red" cx="2" cy="-434" rx="1.8" ry="1.8"/>
</g>
<!-- r3t0 -->
<g id="node5" class="node">
<title>r3t0</title>
<ellipse fill="black" stroke="black" cx="20" cy="-218" rx="1.8" ry="1.8"/>
</g>
<!-- r0c&#45;&gt;r3t0 -->
<g id="edge1" class="edge">
<title>r0c&#45;&gt;r3t0</title>
<path fill="none" stroke="grey" d="M2.16,-432.13C3.64,-414.27 15.38,-273.39 18.97,-230.41"/>
<polygon fill="grey" stroke="grey" points="22.48,-230.43 19.82,-220.17 15.5,-229.85 22.48,-230.43"/>
</g>
<!-- r1c -->
<g id="node2" class="node">
<title>r1c</title>
<ellipse fill="red" stroke="red" cx="2" cy="-362" rx="1.8" ry="1.8"/>
</g>
<!-- r2c -->
<g id="node3" class="node">
<title>r2c</title>
<ellipse fill="red" stroke="red" cx="2" cy="-290" rx="1.8" ry="1.8"/>
</g>
<!-- r4t0 -->
<g id="node7" class="node">
<title>r4t0</title>
<ellipse fill="black" stroke="black" cx="20" cy="-146" rx="1.8" ry="1.8"/>
</g>
<!-- r2c&#45;&gt;r4t0 -->
<g id="edge2" class="edge">
<title>r2c&#45;&gt;r4t0</title>
<path fill="none" stroke="grey" d="M2.25,-287.96C4.02,-273.85 14.48,-190.13 18.46,-158.29"/>
<polygon fill="grey" stroke="grey" points="21.96,-158.53 19.73,-148.17 15.02,-157.66 21.96,-158.53"/>
</g>
<!-- r4t1 -->
<g id="node8" class="node">
<title>r4t1</title>
<ellipse fill="black" stroke="black" cx="38" cy="-146" rx="1.8" ry="1.8"/>
</g>
<!-- r2c&#45;&gt;r4t1 -->
<g id="edge3" class="edge">
<title>r2c&#45;&gt;r4t1</title>
<path fill="none" stroke="grey" d="M2.51,-287.96C6.07,-273.73 27.32,-188.71 35.13,-157.49"/>
<polygon fill="grey" stroke="grey" points="38.53,-158.32 37.56,-147.77 31.74,-156.62 38.53,-158.32"/>
</g>
<!-- r3c -->
<g id="node4" class="node">
<title>r3c</title>
<ellipse fill="red" stroke="red" cx="2" cy="-218" rx="1.8" ry="1.8"/>
</g>
<!-- r6t0 -->
<g id="node12" class="node">
<title>r6t0</title>
<ellipse fill="black" stroke="black" cx="20" cy="-2" rx="1.8" ry="1.8"/>
</g>
<!-- r3t0&#45;&gt;r6t0 -->
<g id="edge5" class="edge">
<title>r3t0&#45;&gt;r6t0</title>
<path fill="none" stroke="grey" d="M20,-216.13C20,-198.27 20,-57.39 20,-14.41"/>
<polygon fill="grey" stroke="grey" points="23.5,-14.17 20,-4.17 16.5,-14.17 23.5,-14.17"/>
</g>
<!-- r4c -->
<g id="node6" class="node">
<title>r4c</title>
<ellipse fill="red" stroke="red" cx="2" cy="-146" rx="1.8" ry="1.8"/>
</g>
<!-- r5t0 -->
<g id="node10" class="node">
<title>r5t0</title>
<ellipse fill="black" stroke="black" cx="20" cy="-74" rx="1.8" ry="1.8"/>
</g>
<!-- r4t0&#45;&gt;r5t0 -->
<g id="edge4" class="edge">
<title>r4t0&#45;&gt;r5t0</title>
<path fill="none" stroke="grey" d="M20,-143.92C20,-135.54 20,-103.84 20,-86.14"/>
<polygon fill="grey" stroke="grey" points="23.5,-85.95 20,-75.95 16.5,-85.95 23.5,-85.95"/>
</g>
<!-- r5c -->
<g id="node9" class="node">
<title>r5c</title>
<ellipse fill="red" stroke="red" cx="2" cy="-74" rx="1.8" ry="1.8"/>
</g>
<!-- r6c -->
<g id="node11" class="node">
<title>r6c</title>
<ellipse fill="red" stroke="red" cx="2" cy="-2" rx="1.8" ry="1.8"/>
</g>
</g>
</svg>
