<?xml version="1.0" encoding="UTF-8" standalone="no"?>
<!DOCTYPE svg PUBLIC "-//W3C//DTD SVG 1.1//EN"
 "http://www.w3.org/Graphics/SVG/1.1/DTD/svg11.dtd">
<!-- Generated by graphviz version 2.43.0 (0)
 -->
<!-- Title: G Pages: 1 -->
<svg width="264pt" height="876pt"
 viewBox="0.00 0.00 264.00 876.00" xmlns="http://www.w3.org/2000/svg" xmlns:xlink="http://www.w3.org/1999/xlink">
<g id="graph0" class="graph" transform="scale(1 1) rotate(0) translate(4 872)">
<title>G</title>
<polygon fill="white" stroke="transparent" points="-4,4 -4,-872 260,-872 260,4 -4,4"/>
<!-- r0c -->
<g id="node1" class="node">
<title>r0c</title>
<ellipse fill="red" stroke="red" cx="2" cy="-866" rx="1.8" ry="1.8"/>
</g>
<!-- r3t0 -->
<g id="node5" class="node">
<title>r3t0</title>
<ellipse fill="black" stroke="black" cx="20" cy="-650" rx="1.8" ry="1.8"/>
</g>
<!-- r0c&#45;&gt;r3t0 -->
<g id="edge1" class="edge">
<title>r0c&#45;&gt;r3t0</title>
<path fill="none" stroke="grey" d="M2.16,-864.13C3.64,-846.27 15.38,-705.39 18.97,-662.41"/>
<polygon fill="grey" stroke="grey" points="22.48,-662.43 19.82,-652.17 15.5,-661.85 22.48,-662.43"/>
</g>
<!-- r1c -->
<g id="node2" class="node">
<title>r1c</title>
<ellipse fill="red" stroke="red" cx="2" cy="-794" rx="1.8" ry="1.8"/>
</g>
<!-- r10t0 -->
<g id="node25" class="node">
<title>r10t0</title>
<ellipse fill="black" stroke="black" cx="20" cy="-146" rx="1.8" ry="1.8"/>
</g>
<!-- r1c&#45;&gt;r10t0 -->
<g id="edge14" class="edge">
<title>r1c&#45;&gt;r10t0</title>
<path fill="none" stroke="grey" d="M2.05,-792.14C3.02,-757.33 17.27,-244.35 19.66,-158.23"/>
<polygon fill="grey" stroke="grey" points="23.17,-158.06 19.95,-147.97 16.17,-157.87 23.17,-158.06"/>
</g>
<!-- r10t1 -->
<g id="node26" class="node">
<title>r10t1</title>
<ellipse fill="black" stroke="black" cx="38" cy="-146" rx="1.8" ry="1.8"/>
</g>
<!-- r1c&#45;&gt;r10t1 -->
<g id="edge15" class="edge">
<title>r1c&#45;&gt;r10t1</title>
<path fill="none" stroke="grey" d="M2.1,-792.14C4.04,-757.3 32.59,-243.29 37.34,-157.96"/>
<polygon fill="grey" stroke="grey" points="40.83,-158.15 37.89,-147.97 33.84,-157.76 40.83,-158.15"/>
</g>
<!-- r10t2 -->
<g id="node27" class="node">
<title>r10t2</title>
<ellipse fill="black" stroke="black" cx="56" cy="-146" rx="1.8" ry="1.8"/>
</g>
<!-- r1c&#45;&gt;r10t2 -->
<g id="edge16" class="edge">
<title>r1c&#45;&gt;r10t2</title>
<path fill="none" stroke="grey" d="M2.15,-792.14C5.06,-757.3 47.89,-243.29 55,-157.96"/>
<polygon fill="grey" stroke="grey" points="58.49,-158.22 55.84,-147.97 51.52,-157.64 58.49,-158.22"/>
</g>
<!-- r2c -->
<g id="node3" class="node">
<title>r2c</title>
<ellipse fill="red" stroke="red" cx="2" cy="-722" rx="1.8" ry="1.8"/>
</g>
<!-- r4t0 -->
<g id="node7" class="node">
<title>r4t0</title>
<ellipse fill="black" stroke="black" cx="20" cy="-578" rx="1.8" ry="1.8"/>
</g>
<!-- r2c&#45;&gt;r4t0 -->
<g id="edge2" class="edge">
<title>r2c&#45;&gt;r4t0</title>
<path fill="none" stroke="grey" d="M2.25,-719.96C4.02,-705.85 14.48,-622.13 18.46,-590.29"/>
<polygon fill="grey" stroke="grey" points="21.96,-590.53 19.73,-580.17 15.02,-589.66 21.96,-590.53"/>
</g>
<!-- r4t1 -->
<g id="node8" class="node">
<title>r4t1</title>
<ellipse fill="black" stroke="black" cx="38" cy="-578" rx="1.8" ry="1.8"/>
</g>
<!-- r2c&#45;&gt;r4t1 -->
<g id="edge3" class="edge">
<title>r2c&#45;&gt;r4t1</title>
<path fill="none" stroke="grey" d="M2.51,-719.96C6.07,-705.73 27.32,-620.71 35.13,-589.49"/>
<polygon fill="grey" stroke="grey" points="38.53,-590.32 37.56,-579.77 31.74,-588.62 38.53,-590.32"/>
</g>
<!-- r3c -->
<g id="node4" class="node">
<title>r3c</title>
<ellipse fill="red" stroke="red" cx="2" cy="-650" rx="1.8" ry="1.8"/>
</g>
<!-- r12t0 -->
<g id="node46" class="node">
<title>r12t0</title>
<ellipse fill="black" stroke="black" cx="20" cy="-2" rx="1.8" ry="1.8"/>
</g>
<!-- r3c&#45;&gt;r12t0 -->
<g id="edge33" class="edge">
<title>r3c&#45;&gt;r12t0</title>
<path fill="none" stroke="grey" d="M2.05,-648.14C3.02,-613.33 17.27,-100.35 19.66,-14.23"/>
<polygon fill="grey" stroke="grey" points="23.17,-14.06 19.95,-3.97 16.17,-13.87 23.17,-14.06"/>
</g>
<!-- r12t1 -->
<g id="node47" class="node">
<title>r12t1</title>
<ellipse fill="black" stroke="black" cx="38" cy="-2" rx="1.8" ry="1.8"/>
</g>
<!-- r3c&#45;&gt;r12t1 -->
<g id="edge34" class="edge">
<title>r3c&#45;&gt;r12t1</title>
<path fill="none" stroke="grey" d="M2.1,-648.14C4.04,-613.3 32.59,-99.29 37.34,-13.96"/>
<polygon fill="grey" stroke="grey" points="40.83,-14.15 37.89,-3.97 33.84,-13.76 40.83,-14.15"/>
</g>
<!-- r12t2 -->
<g id="node48" class="node">
<title>r12t2</title>
<ellipse fill="black" stroke="black" cx="56" cy="-2" rx="1.8" ry="1.8"/>
</g>
<!-- r3c&#45;&gt;r12t2 -->
<g id="edge35" class="edge">
<title>r3c&#45;&gt;r12t2</title>
<path fill="none" stroke="grey" d="M2.15,-648.14C5.06,-613.3 47.89,-99.29 55,-13.96"/>
<polygon fill="grey" stroke="grey" points="58.49,-14.22 55.84,-3.97 51.52,-13.64 58.49,-14.22"/>
</g>
<!-- r6t0 -->
<g id="node12" class="node">
<title>r6t0</title>
<ellipse fill="black" stroke="black" cx="20" cy="-434" rx="1.8" ry="1.8"/>
</g>
<!-- r3t0&#45;&gt;r6t0 -->
<g id="edge5" class="edge">
<title>r3t0&#45;&gt;r6t0</title>
<path fill="none" stroke="grey" d="M20,-648.13C20,-630.27 20,-489.39 20,-446.41"/>
<polygon fill="grey" stroke="grey" points="23.5,-446.17 20,-436.17 16.5,-446.17 23.5,-446.17"/>
</g>
<!-- r4c -->
<g id="node6" class="node">
<title>r4c</title>
<ellipse fill="red" stroke="red" cx="2" cy="-578" rx="1.8" ry="1.8"/>
</g>
<!-- r11t0 -->
<g id="node33" class="node">
<title>r11t0</title>
<ellipse fill="black" stroke="black" cx="20" cy="-74" rx="1.8" ry="1.8"/>
</g>
<!-- r4c&#45;&gt;r11t0 -->
<g id="edge21" class="edge">
<title>r4c&#45;&gt;r11t0</title>
<path fill="none" stroke="grey" d="M2.07,-576.18C3.13,-546.39 16.89,-161.13 19.55,-86.48"/>
<polygon fill="grey" stroke="grey" points="23.07,-86.21 19.93,-76.09 16.07,-85.96 23.07,-86.21"/>
</g>
<!-- r11t1 -->
<g id="node34" class="node">
<title>r11t1</title>
<ellipse fill="black" stroke="black" cx="38" cy="-74" rx="1.8" ry="1.8"/>
</g>
<!-- r4c&#45;&gt;r11t1 -->
<g id="edge22" class="edge">
<title>r4c&#45;&gt;r11t1</title>
<path fill="none" stroke="grey" d="M2.13,-576.18C4.26,-546.39 31.78,-161.13 37.11,-86.48"/>
<polygon fill="grey" stroke="grey" points="40.63,-86.32 37.85,-76.09 33.65,-85.82 40.63,-86.32"/>
</g>
<!-- r5t0 -->
<g id="node10" class="node">
<title>r5t0</title>
<ellipse fill="black" stroke="black" cx="20" cy="-506" rx="1.8" ry="1.8"/>
</g>
<!-- r4t0&#45;&gt;r5t0 -->
<g id="edge4" class="edge">
<title>r4t0&#45;&gt;r5t0</title>
<path fill="none" stroke="grey" d="M20,-575.92C20,-567.54 20,-535.84 20,-518.14"/>
<polygon fill="grey" stroke="grey" points="23.5,-517.95 20,-507.95 16.5,-517.95 23.5,-517.95"/>
</g>
<!-- r5c -->
<g id="node9" class="node">
<title>r5c</title>
<ellipse fill="red" stroke="red" cx="2" cy="-506" rx="1.8" ry="1.8"/>
</g>
<!-- r7t0 -->
<g id="node14" class="node">
<title>r7t0</title>
<ellipse fill="black" stroke="black" cx="20" cy="-362" rx="1.8" ry="1.8"/>
</g>
<!-- r5c&#45;&gt;r7t0 -->
<g id="edge6" class="edge">
<title>r5c&#45;&gt;r7t0</title>
<path fill="none" stroke="grey" d="M2.25,-503.96C4.02,-489.85 14.48,-406.13 18.46,-374.29"/>
<polygon fill="grey" stroke="grey" points="21.96,-374.53 19.73,-364.17 15.02,-373.66 21.96,-374.53"/>
</g>
<!-- r8t0 -->
<g id="node16" class="node">
<title>r8t0</title>
<ellipse fill="black" stroke="black" cx="20" cy="-290" rx="1.8" ry="1.8"/>
</g>
<!-- r5t0&#45;&gt;r8t0 -->
<g id="edge7" class="edge">
<title>r5t0&#45;&gt;r8t0</title>
<path fill="none" stroke="grey" d="M20,-504.13C20,-486.27 20,-345.39 20,-302.41"/>
<polygon fill="grey" stroke="grey" points="23.5,-302.17 20,-292.17 16.5,-302.17 23.5,-302.17"/>
</g>
<!-- r8t1 -->
<g id="node17" class="node">
<title>r8t1</title>
<ellipse fill="black" stroke="black" cx="38" cy="-290" rx="1.8" ry="1.8"/>
</g>
<!-- r5t0&#45;&gt;r8t1 -->
<g id="edge8" class="edge">
<title>r5t0&#45;&gt;r8t1</title>
<path fill="none" stroke="grey" d="M20.16,-504.13C21.64,-486.27 33.38,-345.39 36.97,-302.41"/>
<polygon fill="grey" stroke="grey" points="40.48,-302.43 37.82,-292.17 33.5,-301.85 40.48,-302.43"/>
</g>
<!-- r6c -->
<g id="node11" class="node">
<title>r6c</title>
<ellipse fill="red" stroke="red" cx="2" cy="-434" rx="1.8" ry="1.8"/>
</g>
<!-- r12t3 -->
<g id="node49" class="node">
<title>r12t3</title>
<ellipse fill="black" stroke="black" cx="74" cy="-2" rx="1.8" ry="1.8"/>
</g>
<!-- r6c&#45;&gt;r12t3 -->
<g id="edge36" class="edge">
<title>r6c&#45;&gt;r12t3</title>
<path fill="none" stroke="grey" d="M2.32,-432.07C6.98,-404.12 60.97,-80.18 72.03,-13.83"/>
<polygon fill="grey" stroke="grey" points="75.51,-14.22 73.7,-3.78 68.61,-13.07 75.51,-14.22"/>
</g>
<!-- r12t4 -->
<g id="node50" class="node">
<title>r12t4</title>
<ellipse fill="black" stroke="black" cx="92" cy="-2" rx="1.8" ry="1.8"/>
</g>
<!-- r6c&#45;&gt;r12t4 -->
<g id="edge37" class="edge">
<title>r6c&#45;&gt;r12t4</title>
<path fill="none" stroke="grey" d="M2.4,-432.07C8.23,-404.12 75.71,-80.18 89.54,-13.83"/>
<polygon fill="grey" stroke="grey" points="93.02,-14.28 91.63,-3.78 86.16,-12.86 93.02,-14.28"/>
</g>
<!-- r7c -->
<g id="node13" class="node">
<title>r7c</title>
<ellipse fill="red" stroke="red" cx="2" cy="-362" rx="1.8" ry="1.8"/>
</g>
<!-- r8t2 -->
<g id="node18" class="node">
<title>r8t2</title>
<ellipse fill="black" stroke="black" cx="56" cy="-290" rx="1.8" ry="1.8"/>
</g>
<!-- r7c&#45;&gt;r8t2 -->
<g id="edge9" class="edge">
<title>r7c&#45;&gt;r8t2</title>
<path fill="none" stroke="grey" d="M3.13,-360.5C8.95,-352.74 35.81,-316.92 48.85,-299.53"/>
<polygon fill="grey" stroke="grey" points="51.68,-301.6 54.88,-291.5 46.08,-297.4 51.68,-301.6"/>
</g>
<!-- r11t2 -->
<g id="node35" class="node">
<title>r11t2</title>
<ellipse fill="black" stroke="black" cx="56" cy="-74" rx="1.8" ry="1.8"/>
</g>
<!-- r7t0&#45;&gt;r11t2 -->
<g id="edge23" class="edge">
<title>r7t0&#45;&gt;r11t2</title>
<path fill="none" stroke="grey" d="M20.23,-360.16C22.9,-338.79 48.08,-137.39 54.51,-85.93"/>
<polygon fill="grey" stroke="grey" points="57.99,-86.32 55.76,-75.96 51.04,-85.45 57.99,-86.32"/>
</g>
<!-- r11t3 -->
<g id="node36" class="node">
<title>r11t3</title>
<ellipse fill="black" stroke="black" cx="74" cy="-74" rx="1.8" ry="1.8"/>
</g>
<!-- r7t0&#45;&gt;r11t3 -->
<g id="edge24" class="edge">
<title>r7t0&#45;&gt;r11t3</title>
<path fill="none" stroke="grey" d="M20.34,-360.16C24.35,-338.79 62.11,-137.39 71.76,-85.93"/>
<polygon fill="grey" stroke="grey" points="75.23,-86.43 73.63,-75.96 68.35,-85.14 75.23,-86.43"/>
</g>
<!-- r8c -->
<g id="node15" class="node">
<title>r8c</title>
<ellipse fill="red" stroke="red" cx="2" cy="-290" rx="1.8" ry="1.8"/>
</g>
<!-- r9t0 -->
<g id="node20" class="node">
<title>r9t0</title>
<ellipse fill="black" stroke="black" cx="20" cy="-218" rx="1.8" ry="1.8"/>
</g>
<!-- r8t0&#45;&gt;r9t0 -->
<g id="edge10" class="edge">
<title>r8t0&#45;&gt;r9t0</title>
<path fill="none" stroke="grey" d="M20,-287.92C20,-279.54 20,-247.84 20,-230.14"/>
<polygon fill="grey" stroke="grey" points="23.5,-229.95 20,-219.95 16.5,-229.95 23.5,-229.95"/>
</g>
<!-- r9t1 -->
<g id="node21" class="node">
<title>r9t1</title>
<ellipse fill="black" stroke="black" cx="38" cy="-218" rx="1.8" ry="1.8"/>
</g>
<!-- r8t0&#45;&gt;r9t1 -->
<g id="edge11" class="edge">
<title>r8t0&#45;&gt;r9t1</title>
<path fill="none" stroke="grey" d="M20.44,-288.22C22.43,-280.27 30.59,-247.65 35.05,-229.8"/>
<polygon fill="grey" stroke="grey" points="38.47,-230.53 37.5,-219.98 31.68,-228.83 38.47,-230.53"/>
</g>
<!-- r9t2 -->
<g id="node22" class="node">
<title>r9t2</title>
<ellipse fill="black" stroke="black" cx="56" cy="-218" rx="1.8" ry="1.8"/>
</g>
<!-- r8t0&#45;&gt;r9t2 -->
<g id="edge12" class="edge">
<title>r8t0&#45;&gt;r9t2</title>
<path fill="none" stroke="grey" d="M20.89,-288.22C24.94,-280.13 41.78,-246.43 50.59,-228.82"/>
<polygon fill="grey" stroke="grey" points="53.8,-230.23 55.14,-219.72 47.54,-227.1 53.8,-230.23"/>
</g>
<!-- r9t3 -->
<g id="node23" class="node">
<title>r9t3</title>
<ellipse fill="black" stroke="black" cx="74" cy="-218" rx="1.8" ry="1.8"/>
</g>
<!-- r8t0&#45;&gt;r9t3 -->
<g id="edge13" class="edge">
<title>r8t0&#45;&gt;r9t3</title>
<path fill="none" stroke="grey" d="M21.13,-288.5C26.95,-280.74 53.81,-244.92 66.85,-227.53"/>
<polygon fill="grey" stroke="grey" points="69.68,-229.6 72.88,-219.5 64.08,-225.4 69.68,-229.6"/>
</g>
<!-- r12t5 -->
<g id="node51" class="node">
<title>r12t5</title>
<ellipse fill="black" stroke="black" cx="110" cy="-2" rx="1.8" ry="1.8"/>
</g>
<!-- r8t1&#45;&gt;r12t5 -->
<g id="edge38" class="edge">
<title>r8t1&#45;&gt;r12t5</title>
<path fill="none" stroke="grey" d="M38.46,-288.16C43.8,-266.79 94.15,-65.39 107.02,-13.93"/>
<polygon fill="grey" stroke="grey" points="110.48,-14.51 109.51,-3.96 103.69,-12.81 110.48,-14.51"/>
</g>
<!-- r12t6 -->
<g id="node52" class="node">
<title>r12t6</title>
<ellipse fill="black" stroke="black" cx="128" cy="-2" rx="1.8" ry="1.8"/>
</g>
<!-- r8t1&#45;&gt;r12t6 -->
<g id="edge39" class="edge">
<title>r8t1&#45;&gt;r12t6</title>
<path fill="none" stroke="grey" d="M38.57,-288.16C45.27,-266.74 108.46,-64.53 124.37,-13.6"/>
<polygon fill="grey" stroke="grey" points="127.75,-14.55 127.39,-3.96 121.06,-12.46 127.75,-14.55"/>
</g>
<!-- r10t3 -->
<g id="node28" class="node">
<title>r10t3</title>
<ellipse fill="black" stroke="black" cx="74" cy="-146" rx="1.8" ry="1.8"/>
</g>
<!-- r8t2&#45;&gt;r10t3 -->
<g id="edge17" class="edge">
<title>r8t2&#45;&gt;r10t3</title>
<path fill="none" stroke="grey" d="M56.25,-287.96C58.02,-273.85 68.48,-190.13 72.46,-158.29"/>
<polygon fill="grey" stroke="grey" points="75.96,-158.53 73.73,-148.17 69.02,-157.66 75.96,-158.53"/>
</g>
<!-- r9c -->
<g id="node19" class="node">
<title>r9c</title>
<ellipse fill="red" stroke="red" cx="2" cy="-218" rx="1.8" ry="1.8"/>
</g>
<!-- r10t4 -->
<g id="node29" class="node">
<title>r10t4</title>
<ellipse fill="black" stroke="black" cx="92" cy="-146" rx="1.8" ry="1.8"/>
</g>
<!-- r9t0&#45;&gt;r10t4 -->
<g id="edge18" class="edge">
<title>r9t0&#45;&gt;r10t4</title>
<path fill="none" stroke="grey" d="M21.5,-216.5C29.34,-208.66 65.76,-172.24 82.96,-155.04"/>
<polygon fill="grey" stroke="grey" points="85.91,-157.04 90.5,-147.5 80.96,-152.09 85.91,-157.04"/>
</g>
<!-- r10t5 -->
<g id="node30" class="node">
<title>r10t5</title>
<ellipse fill="black" stroke="black" cx="110" cy="-146" rx="1.8" ry="1.8"/>
</g>
<!-- r9t0&#45;&gt;r10t5 -->
<g id="edge19" class="edge">
<title>r9t0&#45;&gt;r10t5</title>
<path fill="none" stroke="grey" d="M21.56,-216.75C30.91,-209.27 79.71,-170.23 100.55,-153.56"/>
<polygon fill="grey" stroke="grey" points="102.77,-156.26 108.39,-147.28 98.4,-150.8 102.77,-156.26"/>
</g>
<!-- r11t4 -->
<g id="node37" class="node">
<title>r11t4</title>
<ellipse fill="black" stroke="black" cx="92" cy="-74" rx="1.8" ry="1.8"/>
</g>
<!-- r9t2&#45;&gt;r11t4 -->
<g id="edge25" class="edge">
<title>r9t2&#45;&gt;r11t4</title>
<path fill="none" stroke="grey" d="M56.51,-215.96C60.07,-201.73 81.32,-116.71 89.13,-85.49"/>
<polygon fill="grey" stroke="grey" points="92.53,-86.32 91.56,-75.77 85.74,-84.62 92.53,-86.32"/>
</g>
<!-- r11t5 -->
<g id="node38" class="node">
<title>r11t5</title>
<ellipse fill="black" stroke="black" cx="110" cy="-74" rx="1.8" ry="1.8"/>
</g>
<!-- r9t2&#45;&gt;r11t5 -->
<g id="edge26" class="edge">
<title>r9t2&#45;&gt;r11t5</title>
<path fill="none" stroke="grey" d="M56.76,-215.96C62.1,-201.73 93.98,-116.71 105.69,-85.49"/>
<polygon fill="grey" stroke="grey" points="109.1,-86.36 109.34,-75.77 102.55,-83.9 109.1,-86.36"/>
</g>
<!-- r11t6 -->
<g id="node39" class="node">
<title>r11t6</title>
<ellipse fill="black" stroke="black" cx="128" cy="-74" rx="1.8" ry="1.8"/>
</g>
<!-- r9t2&#45;&gt;r11t6 -->
<g id="edge27" class="edge">
<title>r9t2&#45;&gt;r11t6</title>
<path fill="none" stroke="grey" d="M56.81,-216.38C63.3,-203.4 107.09,-115.82 122.58,-84.83"/>
<polygon fill="grey" stroke="grey" points="125.76,-86.3 127.1,-75.79 119.5,-83.17 125.76,-86.3"/>
</g>
<!-- r11t7 -->
<g id="node40" class="node">
<title>r11t7</title>
<ellipse fill="black" stroke="black" cx="146" cy="-74" rx="1.8" ry="1.8"/>
</g>
<!-- r9t2&#45;&gt;r11t7 -->
<g id="edge28" class="edge">
<title>r9t2&#45;&gt;r11t7</title>
<path fill="none" stroke="grey" d="M57.01,-216.38C65.16,-203.34 120.35,-115.04 139.48,-84.43"/>
<polygon fill="grey" stroke="grey" points="142.55,-86.13 144.88,-75.79 136.61,-82.42 142.55,-86.13"/>
</g>
<!-- r10t6 -->
<g id="node31" class="node">
<title>r10t6</title>
<ellipse fill="black" stroke="black" cx="128" cy="-146" rx="1.8" ry="1.8"/>
</g>
<!-- r9t3&#45;&gt;r10t6 -->
<g id="edge20" class="edge">
<title>r9t3&#45;&gt;r10t6</title>
<path fill="none" stroke="grey" d="M75.13,-216.5C80.95,-208.74 107.81,-172.92 120.85,-155.53"/>
<polygon fill="grey" stroke="grey" points="123.68,-157.6 126.88,-147.5 118.08,-153.4 123.68,-157.6"/>
</g>
<!-- r10c -->
<g id="node24" class="node">
<title>r10c</title>
<ellipse fill="red" stroke="red" cx="2" cy="-146" rx="1.8" ry="1.8"/>
</g>
<!-- r11t8 -->
<g id="node41" class="node">
<title>r11t8</title>
<ellipse fill="black" stroke="black" cx="164" cy="-74" rx="1.8" ry="1.8"/>
</g>
<!-- r10t0&#45;&gt;r11t8 -->
<g id="edge29" class="edge">
<title>r10t0&#45;&gt;r11t8</title>
<path fill="none" stroke="grey" d="M21.62,-145.19C34.6,-138.7 122.18,-94.91 153.17,-79.42"/>
<polygon fill="grey" stroke="grey" points="154.83,-82.5 162.21,-74.9 151.7,-76.24 154.83,-82.5"/>
</g>
<!-- r11t9 -->
<g id="node42" class="node">
<title>r11t9</title>
<ellipse fill="black" stroke="black" cx="182" cy="-74" rx="1.8" ry="1.8"/>
</g>
<!-- r10t0&#45;&gt;r11t9 -->
<g id="edge30" class="edge">
<title>r10t0&#45;&gt;r11t9</title>
<path fill="none" stroke="grey" d="M21.82,-145.19C36.56,-138.64 136.71,-94.13 170.72,-79.01"/>
<polygon fill="grey" stroke="grey" points="172.26,-82.16 179.98,-74.9 169.42,-75.76 172.26,-82.16"/>
</g>
<!-- r11t10 -->
<g id="node43" class="node">
<title>r11t10</title>
<ellipse fill="black" stroke="black" cx="200" cy="-74" rx="1.8" ry="1.8"/>
</g>
<!-- r10t2&#45;&gt;r11t10 -->
<g id="edge31" class="edge">
<title>r10t2&#45;&gt;r11t10</title>
<path fill="none" stroke="grey" d="M57.62,-145.19C70.6,-138.7 158.18,-94.91 189.17,-79.42"/>
<polygon fill="grey" stroke="grey" points="190.83,-82.5 198.21,-74.9 187.7,-76.24 190.83,-82.5"/>
</g>
<!-- r11t11 -->
<g id="node44" class="node">
<title>r11t11</title>
<ellipse fill="black" stroke="black" cx="218" cy="-74" rx="1.8" ry="1.8"/>
</g>
<!-- r10t2&#45;&gt;r11t11 -->
<g id="edge32" class="edge">
<title>r10t2&#45;&gt;r11t11</title>
<path fill="none" stroke="grey" d="M57.82,-145.19C72.56,-138.64 172.71,-94.13 206.72,-79.01"/>
<polygon fill="grey" stroke="grey" points="208.26,-82.16 215.98,-74.9 205.42,-75.76 208.26,-82.16"/>
</g>
<!-- r12t7 -->
<g id="node53" class="node">
<title>r12t7</title>
<ellipse fill="black" stroke="black" cx="146" cy="-2" rx="1.8" ry="1.8"/>
</g>
<!-- r10t4&#45;&gt;r12t7 -->
<g id="edge40" class="edge">
<title>r10t4&#45;&gt;r12t7</title>
<path fill="none" stroke="grey" d="M92.76,-143.96C98.1,-129.73 129.98,-44.71 141.69,-13.49"/>
<polygon fill="grey" stroke="grey" points="145.1,-14.36 145.34,-3.77 138.55,-11.9 145.1,-14.36"/>
</g>
<!-- r12t8 -->
<g id="node54" class="node">
<title>r12t8</title>
<ellipse fill="black" stroke="black" cx="164" cy="-2" rx="1.8" ry="1.8"/>
</g>
<!-- r10t4&#45;&gt;r12t8 -->
<g id="edge41" class="edge">
<title>r10t4&#45;&gt;r12t8</title>
<path fill="none" stroke="grey" d="M92.81,-144.38C99.3,-131.4 143.09,-43.82 158.58,-12.83"/>
<polygon fill="grey" stroke="grey" points="161.76,-14.3 163.1,-3.79 155.5,-11.17 161.76,-14.3"/>
</g>
<!-- r11c -->
<g id="node32" class="node">
<title>r11c</title>
<ellipse fill="red" stroke="red" cx="2" cy="-74" rx="1.8" ry="1.8"/>
</g>
<!-- r12t9 -->
<g id="node55" class="node">
<title>r12t9</title>
<ellipse fill="black" stroke="black" cx="182" cy="-2" rx="1.8" ry="1.8"/>
</g>
<!-- r11c&#45;&gt;r12t9 -->
<g id="edge42" class="edge">
<title>r11c&#45;&gt;r12t9</title>
<path fill="none" stroke="grey" d="M4.02,-73.19C20.61,-66.56 134.54,-20.98 170.89,-6.45"/>
<polygon fill="grey" stroke="grey" points="172.23,-9.68 180.22,-2.71 169.63,-3.18 172.23,-9.68"/>
</g>
<!-- r12t10 -->
<g id="node56" class="node">
<title>r12t10</title>
<ellipse fill="black" stroke="black" cx="200" cy="-2" rx="1.8" ry="1.8"/>
</g>
<!-- r11c&#45;&gt;r12t10 -->
<g id="edge43" class="edge">
<title>r11c&#45;&gt;r12t10</title>
<path fill="none" stroke="grey" d="M3.71,-73.38C20.05,-67.44 148.67,-20.67 188.37,-6.23"/>
<polygon fill="grey" stroke="grey" points="189.81,-9.43 198.01,-2.72 187.41,-2.85 189.81,-9.43"/>
</g>
<!-- r12t11 -->
<g id="node57" class="node">
<title>r12t11</title>
<ellipse fill="black" stroke="black" cx="218" cy="-2" rx="1.8" ry="1.8"/>
</g>
<!-- r11t5&#45;&gt;r12t11 -->
<g id="edge44" class="edge">
<title>r11t5&#45;&gt;r12t11</title>
<path fill="none" stroke="grey" d="M111.53,-72.98C121.97,-66.02 183.23,-25.18 207.8,-8.8"/>
<polygon fill="grey" stroke="grey" points="209.99,-11.54 216.37,-3.08 206.11,-5.72 209.99,-11.54"/>
</g>
<!-- r12t12 -->
<g id="node58" class="node">
<title>r12t12</title>
<ellipse fill="black" stroke="black" cx="236" cy="-2" rx="1.8" ry="1.8"/>
</g>
<!-- r11t7&#45;&gt;r12t12 -->
<g id="edge45" class="edge">
<title>r11t7&#45;&gt;r12t12</title>
<path fill="none" stroke="grey" d="M147.56,-72.75C156.91,-65.27 205.71,-26.23 226.55,-9.56"/>
<polygon fill="grey" stroke="grey" points="228.77,-12.26 234.39,-3.28 224.4,-6.8 228.77,-12.26"/>
</g>
<!-- r12t13 -->
<g id="node59" class="node">
<title>r12t13</title>
<ellipse fill="black" stroke="black" cx="254" cy="-2" rx="1.8" ry="1.8"/>
</g>
<!-- r11t9&#45;&gt;r12t13 -->
<g id="edge46" class="edge">
<title>r11t9&#45;&gt;r12t13</title>
<path fill="none" stroke="grey" d="M183.5,-72.5C191.34,-64.66 227.76,-28.24 244.96,-11.04"/>
<polygon fill="grey" stroke="grey" points="247.91,-13.04 252.5,-3.5 242.96,-8.09 247.91,-13.04"/>
</g>
<!-- r12c -->
<g id="node45" class="node">
<title>r12c</title>
<ellipse fill="red" stroke="red" cx="2" cy="-2" rx="1.8" ry="1.8"/>
</g>
</g>
</svg>
