<?xml version="1.0" encoding="UTF-8" standalone="no"?>
<!DOCTYPE svg PUBLIC "-//W3C//DTD SVG 1.1//EN"
 "http://www.w3.org/Graphics/SVG/1.1/DTD/svg11.dtd">
<!-- Generated by graphviz version 2.43.0 (0)
 -->
<!-- Title: G Pages: 1 -->
<svg width="228pt" height="804pt"
 viewBox="0.00 0.00 228.00 804.00" xmlns="http://www.w3.org/2000/svg" xmlns:xlink="http://www.w3.org/1999/xlink">
<g id="graph0" class="graph" transform="scale(1 1) rotate(0) translate(4 800)">
<title>G</title>
<polygon fill="white" stroke="transparent" points="-4,4 -4,-800 224,-800 224,4 -4,4"/>
<!-- r0c -->
<g id="node1" class="node">
<title>r0c</title>
<ellipse fill="red" stroke="red" cx="2" cy="-794" rx="1.8" ry="1.8"/>
</g>
<!-- r3t0 -->
<g id="node5" class="node">
<title>r3t0</title>
<ellipse fill="black" stroke="black" cx="20" cy="-578" rx="1.8" ry="1.8"/>
</g>
<!-- r0c&#45;&gt;r3t0 -->
<g id="edge1" class="edge">
<title>r0c&#45;&gt;r3t0</title>
<path fill="none" stroke="grey" d="M2.16,-792.13C3.64,-774.27 15.38,-633.39 18.97,-590.41"/>
<polygon fill="grey" stroke="grey" points="22.48,-590.43 19.82,-580.17 15.5,-589.85 22.48,-590.43"/>
</g>
<!-- r1c -->
<g id="node2" class="node">
<title>r1c</title>
<ellipse fill="red" stroke="red" cx="2" cy="-722" rx="1.8" ry="1.8"/>
</g>
<!-- r10t0 -->
<g id="node25" class="node">
<title>r10t0</title>
<ellipse fill="black" stroke="black" cx="20" cy="-74" rx="1.8" ry="1.8"/>
</g>
<!-- r1c&#45;&gt;r10t0 -->
<g id="edge14" class="edge">
<title>r1c&#45;&gt;r10t0</title>
<path fill="none" stroke="grey" d="M2.05,-720.14C3.02,-685.33 17.27,-172.35 19.66,-86.23"/>
<polygon fill="grey" stroke="grey" points="23.17,-86.06 19.95,-75.97 16.17,-85.87 23.17,-86.06"/>
</g>
<!-- r10t1 -->
<g id="node26" class="node">
<title>r10t1</title>
<ellipse fill="black" stroke="black" cx="38" cy="-74" rx="1.8" ry="1.8"/>
</g>
<!-- r1c&#45;&gt;r10t1 -->
<g id="edge15" class="edge">
<title>r1c&#45;&gt;r10t1</title>
<path fill="none" stroke="grey" d="M2.1,-720.14C4.04,-685.3 32.59,-171.29 37.34,-85.96"/>
<polygon fill="grey" stroke="grey" points="40.83,-86.15 37.89,-75.97 33.84,-85.76 40.83,-86.15"/>
</g>
<!-- r10t2 -->
<g id="node27" class="node">
<title>r10t2</title>
<ellipse fill="black" stroke="black" cx="56" cy="-74" rx="1.8" ry="1.8"/>
</g>
<!-- r1c&#45;&gt;r10t2 -->
<g id="edge16" class="edge">
<title>r1c&#45;&gt;r10t2</title>
<path fill="none" stroke="grey" d="M2.15,-720.14C5.06,-685.3 47.89,-171.29 55,-85.96"/>
<polygon fill="grey" stroke="grey" points="58.49,-86.22 55.84,-75.97 51.52,-85.64 58.49,-86.22"/>
</g>
<!-- r2c -->
<g id="node3" class="node">
<title>r2c</title>
<ellipse fill="red" stroke="red" cx="2" cy="-650" rx="1.8" ry="1.8"/>
</g>
<!-- r4t0 -->
<g id="node7" class="node">
<title>r4t0</title>
<ellipse fill="black" stroke="black" cx="20" cy="-506" rx="1.8" ry="1.8"/>
</g>
<!-- r2c&#45;&gt;r4t0 -->
<g id="edge2" class="edge">
<title>r2c&#45;&gt;r4t0</title>
<path fill="none" stroke="grey" d="M2.25,-647.96C4.02,-633.85 14.48,-550.13 18.46,-518.29"/>
<polygon fill="grey" stroke="grey" points="21.96,-518.53 19.73,-508.17 15.02,-517.66 21.96,-518.53"/>
</g>
<!-- r4t1 -->
<g id="node8" class="node">
<title>r4t1</title>
<ellipse fill="black" stroke="black" cx="38" cy="-506" rx="1.8" ry="1.8"/>
</g>
<!-- r2c&#45;&gt;r4t1 -->
<g id="edge3" class="edge">
<title>r2c&#45;&gt;r4t1</title>
<path fill="none" stroke="grey" d="M2.51,-647.96C6.07,-633.73 27.32,-548.71 35.13,-517.49"/>
<polygon fill="grey" stroke="grey" points="38.53,-518.32 37.56,-507.77 31.74,-516.62 38.53,-518.32"/>
</g>
<!-- r3c -->
<g id="node4" class="node">
<title>r3c</title>
<ellipse fill="red" stroke="red" cx="2" cy="-578" rx="1.8" ry="1.8"/>
</g>
<!-- r6t0 -->
<g id="node12" class="node">
<title>r6t0</title>
<ellipse fill="black" stroke="black" cx="20" cy="-362" rx="1.8" ry="1.8"/>
</g>
<!-- r3t0&#45;&gt;r6t0 -->
<g id="edge5" class="edge">
<title>r3t0&#45;&gt;r6t0</title>
<path fill="none" stroke="grey" d="M20,-576.13C20,-558.27 20,-417.39 20,-374.41"/>
<polygon fill="grey" stroke="grey" points="23.5,-374.17 20,-364.17 16.5,-374.17 23.5,-374.17"/>
</g>
<!-- r4c -->
<g id="node6" class="node">
<title>r4c</title>
<ellipse fill="red" stroke="red" cx="2" cy="-506" rx="1.8" ry="1.8"/>
</g>
<!-- r11t0 -->
<g id="node33" class="node">
<title>r11t0</title>
<ellipse fill="black" stroke="black" cx="20" cy="-2" rx="1.8" ry="1.8"/>
</g>
<!-- r4c&#45;&gt;r11t0 -->
<g id="edge21" class="edge">
<title>r4c&#45;&gt;r11t0</title>
<path fill="none" stroke="grey" d="M2.07,-504.18C3.13,-474.39 16.89,-89.13 19.55,-14.48"/>
<polygon fill="grey" stroke="grey" points="23.07,-14.21 19.93,-4.09 16.07,-13.96 23.07,-14.21"/>
</g>
<!-- r11t1 -->
<g id="node34" class="node">
<title>r11t1</title>
<ellipse fill="black" stroke="black" cx="38" cy="-2" rx="1.8" ry="1.8"/>
</g>
<!-- r4c&#45;&gt;r11t1 -->
<g id="edge22" class="edge">
<title>r4c&#45;&gt;r11t1</title>
<path fill="none" stroke="grey" d="M2.13,-504.18C4.26,-474.39 31.78,-89.13 37.11,-14.48"/>
<polygon fill="grey" stroke="grey" points="40.63,-14.32 37.85,-4.09 33.65,-13.82 40.63,-14.32"/>
</g>
<!-- r5t0 -->
<g id="node10" class="node">
<title>r5t0</title>
<ellipse fill="black" stroke="black" cx="20" cy="-434" rx="1.8" ry="1.8"/>
</g>
<!-- r4t0&#45;&gt;r5t0 -->
<g id="edge4" class="edge">
<title>r4t0&#45;&gt;r5t0</title>
<path fill="none" stroke="grey" d="M20,-503.92C20,-495.54 20,-463.84 20,-446.14"/>
<polygon fill="grey" stroke="grey" points="23.5,-445.95 20,-435.95 16.5,-445.95 23.5,-445.95"/>
</g>
<!-- r5c -->
<g id="node9" class="node">
<title>r5c</title>
<ellipse fill="red" stroke="red" cx="2" cy="-434" rx="1.8" ry="1.8"/>
</g>
<!-- r7t0 -->
<g id="node14" class="node">
<title>r7t0</title>
<ellipse fill="black" stroke="black" cx="20" cy="-290" rx="1.8" ry="1.8"/>
</g>
<!-- r5c&#45;&gt;r7t0 -->
<g id="edge6" class="edge">
<title>r5c&#45;&gt;r7t0</title>
<path fill="none" stroke="grey" d="M2.25,-431.96C4.02,-417.85 14.48,-334.13 18.46,-302.29"/>
<polygon fill="grey" stroke="grey" points="21.96,-302.53 19.73,-292.17 15.02,-301.66 21.96,-302.53"/>
</g>
<!-- r8t0 -->
<g id="node16" class="node">
<title>r8t0</title>
<ellipse fill="black" stroke="black" cx="20" cy="-218" rx="1.8" ry="1.8"/>
</g>
<!-- r5t0&#45;&gt;r8t0 -->
<g id="edge7" class="edge">
<title>r5t0&#45;&gt;r8t0</title>
<path fill="none" stroke="grey" d="M20,-432.13C20,-414.27 20,-273.39 20,-230.41"/>
<polygon fill="grey" stroke="grey" points="23.5,-230.17 20,-220.17 16.5,-230.17 23.5,-230.17"/>
</g>
<!-- r8t1 -->
<g id="node17" class="node">
<title>r8t1</title>
<ellipse fill="black" stroke="black" cx="38" cy="-218" rx="1.8" ry="1.8"/>
</g>
<!-- r5t0&#45;&gt;r8t1 -->
<g id="edge8" class="edge">
<title>r5t0&#45;&gt;r8t1</title>
<path fill="none" stroke="grey" d="M20.16,-432.13C21.64,-414.27 33.38,-273.39 36.97,-230.41"/>
<polygon fill="grey" stroke="grey" points="40.48,-230.43 37.82,-220.17 33.5,-229.85 40.48,-230.43"/>
</g>
<!-- r6c -->
<g id="node11" class="node">
<title>r6c</title>
<ellipse fill="red" stroke="red" cx="2" cy="-362" rx="1.8" ry="1.8"/>
</g>
<!-- r7c -->
<g id="node13" class="node">
<title>r7c</title>
<ellipse fill="red" stroke="red" cx="2" cy="-290" rx="1.8" ry="1.8"/>
</g>
<!-- r8t2 -->
<g id="node18" class="node">
<title>r8t2</title>
<ellipse fill="black" stroke="black" cx="56" cy="-218" rx="1.8" ry="1.8"/>
</g>
<!-- r7c&#45;&gt;r8t2 -->
<g id="edge9" class="edge">
<title>r7c&#45;&gt;r8t2</title>
<path fill="none" stroke="grey" d="M3.13,-288.5C8.95,-280.74 35.81,-244.92 48.85,-227.53"/>
<polygon fill="grey" stroke="grey" points="51.68,-229.6 54.88,-219.5 46.08,-225.4 51.68,-229.6"/>
</g>
<!-- r11t2 -->
<g id="node35" class="node">
<title>r11t2</title>
<ellipse fill="black" stroke="black" cx="56" cy="-2" rx="1.8" ry="1.8"/>
</g>
<!-- r7t0&#45;&gt;r11t2 -->
<g id="edge23" class="edge">
<title>r7t0&#45;&gt;r11t2</title>
<path fill="none" stroke="grey" d="M20.23,-288.16C22.9,-266.79 48.08,-65.39 54.51,-13.93"/>
<polygon fill="grey" stroke="grey" points="57.99,-14.32 55.76,-3.96 51.04,-13.45 57.99,-14.32"/>
</g>
<!-- r11t3 -->
<g id="node36" class="node">
<title>r11t3</title>
<ellipse fill="black" stroke="black" cx="74" cy="-2" rx="1.8" ry="1.8"/>
</g>
<!-- r7t0&#45;&gt;r11t3 -->
<g id="edge24" class="edge">
<title>r7t0&#45;&gt;r11t3</title>
<path fill="none" stroke="grey" d="M20.34,-288.16C24.35,-266.79 62.11,-65.39 71.76,-13.93"/>
<polygon fill="grey" stroke="grey" points="75.23,-14.43 73.63,-3.96 68.35,-13.14 75.23,-14.43"/>
</g>
<!-- r8c -->
<g id="node15" class="node">
<title>r8c</title>
<ellipse fill="red" stroke="red" cx="2" cy="-218" rx="1.8" ry="1.8"/>
</g>
<!-- r9t0 -->
<g id="node20" class="node">
<title>r9t0</title>
<ellipse fill="black" stroke="black" cx="20" cy="-146" rx="1.8" ry="1.8"/>
</g>
<!-- r8t0&#45;&gt;r9t0 -->
<g id="edge10" class="edge">
<title>r8t0&#45;&gt;r9t0</title>
<path fill="none" stroke="grey" d="M20,-215.92C20,-207.54 20,-175.84 20,-158.14"/>
<polygon fill="grey" stroke="grey" points="23.5,-157.95 20,-147.95 16.5,-157.95 23.5,-157.95"/>
</g>
<!-- r9t1 -->
<g id="node21" class="node">
<title>r9t1</title>
<ellipse fill="black" stroke="black" cx="38" cy="-146" rx="1.8" ry="1.8"/>
</g>
<!-- r8t0&#45;&gt;r9t1 -->
<g id="edge11" class="edge">
<title>r8t0&#45;&gt;r9t1</title>
<path fill="none" stroke="grey" d="M20.44,-216.22C22.43,-208.27 30.59,-175.65 35.05,-157.8"/>
<polygon fill="grey" stroke="grey" points="38.47,-158.53 37.5,-147.98 31.68,-156.83 38.47,-158.53"/>
</g>
<!-- r9t2 -->
<g id="node22" class="node">
<title>r9t2</title>
<ellipse fill="black" stroke="black" cx="56" cy="-146" rx="1.8" ry="1.8"/>
</g>
<!-- r8t0&#45;&gt;r9t2 -->
<g id="edge12" class="edge">
<title>r8t0&#45;&gt;r9t2</title>
<path fill="none" stroke="grey" d="M20.89,-216.22C24.94,-208.13 41.78,-174.43 50.59,-156.82"/>
<polygon fill="grey" stroke="grey" points="53.8,-158.23 55.14,-147.72 47.54,-155.1 53.8,-158.23"/>
</g>
<!-- r9t3 -->
<g id="node23" class="node">
<title>r9t3</title>
<ellipse fill="black" stroke="black" cx="74" cy="-146" rx="1.8" ry="1.8"/>
</g>
<!-- r8t0&#45;&gt;r9t3 -->
<g id="edge13" class="edge">
<title>r8t0&#45;&gt;r9t3</title>
<path fill="none" stroke="grey" d="M21.13,-216.5C26.95,-208.74 53.81,-172.92 66.85,-155.53"/>
<polygon fill="grey" stroke="grey" points="69.68,-157.6 72.88,-147.5 64.08,-153.4 69.68,-157.6"/>
</g>
<!-- r10t3 -->
<g id="node28" class="node">
<title>r10t3</title>
<ellipse fill="black" stroke="black" cx="74" cy="-74" rx="1.8" ry="1.8"/>
</g>
<!-- r8t2&#45;&gt;r10t3 -->
<g id="edge17" class="edge">
<title>r8t2&#45;&gt;r10t3</title>
<path fill="none" stroke="grey" d="M56.25,-215.96C58.02,-201.85 68.48,-118.13 72.46,-86.29"/>
<polygon fill="grey" stroke="grey" points="75.96,-86.53 73.73,-76.17 69.02,-85.66 75.96,-86.53"/>
</g>
<!-- r9c -->
<g id="node19" class="node">
<title>r9c</title>
<ellipse fill="red" stroke="red" cx="2" cy="-146" rx="1.8" ry="1.8"/>
</g>
<!-- r10t4 -->
<g id="node29" class="node">
<title>r10t4</title>
<ellipse fill="black" stroke="black" cx="92" cy="-74" rx="1.8" ry="1.8"/>
</g>
<!-- r9t0&#45;&gt;r10t4 -->
<g id="edge18" class="edge">
<title>r9t0&#45;&gt;r10t4</title>
<path fill="none" stroke="grey" d="M21.5,-144.5C29.34,-136.66 65.76,-100.24 82.96,-83.04"/>
<polygon fill="grey" stroke="grey" points="85.91,-85.04 90.5,-75.5 80.96,-80.09 85.91,-85.04"/>
</g>
<!-- r10t5 -->
<g id="node30" class="node">
<title>r10t5</title>
<ellipse fill="black" stroke="black" cx="110" cy="-74" rx="1.8" ry="1.8"/>
</g>
<!-- r9t0&#45;&gt;r10t5 -->
<g id="edge19" class="edge">
<title>r9t0&#45;&gt;r10t5</title>
<path fill="none" stroke="grey" d="M21.56,-144.75C30.91,-137.27 79.71,-98.23 100.55,-81.56"/>
<polygon fill="grey" stroke="grey" points="102.77,-84.26 108.39,-75.28 98.4,-78.8 102.77,-84.26"/>
</g>
<!-- r11t4 -->
<g id="node37" class="node">
<title>r11t4</title>
<ellipse fill="black" stroke="black" cx="92" cy="-2" rx="1.8" ry="1.8"/>
</g>
<!-- r9t2&#45;&gt;r11t4 -->
<g id="edge25" class="edge">
<title>r9t2&#45;&gt;r11t4</title>
<path fill="none" stroke="grey" d="M56.51,-143.96C60.07,-129.73 81.32,-44.71 89.13,-13.49"/>
<polygon fill="grey" stroke="grey" points="92.53,-14.32 91.56,-3.77 85.74,-12.62 92.53,-14.32"/>
</g>
<!-- r11t5 -->
<g id="node38" class="node">
<title>r11t5</title>
<ellipse fill="black" stroke="black" cx="110" cy="-2" rx="1.8" ry="1.8"/>
</g>
<!-- r9t2&#45;&gt;r11t5 -->
<g id="edge26" class="edge">
<title>r9t2&#45;&gt;r11t5</title>
<path fill="none" stroke="grey" d="M56.76,-143.96C62.1,-129.73 93.98,-44.71 105.69,-13.49"/>
<polygon fill="grey" stroke="grey" points="109.1,-14.36 109.34,-3.77 102.55,-11.9 109.1,-14.36"/>
</g>
<!-- r11t6 -->
<g id="node39" class="node">
<title>r11t6</title>
<ellipse fill="black" stroke="black" cx="128" cy="-2" rx="1.8" ry="1.8"/>
</g>
<!-- r9t2&#45;&gt;r11t6 -->
<g id="edge27" class="edge">
<title>r9t2&#45;&gt;r11t6</title>
<path fill="none" stroke="grey" d="M56.81,-144.38C63.3,-131.4 107.09,-43.82 122.58,-12.83"/>
<polygon fill="grey" stroke="grey" points="125.76,-14.3 127.1,-3.79 119.5,-11.17 125.76,-14.3"/>
</g>
<!-- r11t7 -->
<g id="node40" class="node">
<title>r11t7</title>
<ellipse fill="black" stroke="black" cx="146" cy="-2" rx="1.8" ry="1.8"/>
</g>
<!-- r9t2&#45;&gt;r11t7 -->
<g id="edge28" class="edge">
<title>r9t2&#45;&gt;r11t7</title>
<path fill="none" stroke="grey" d="M57.01,-144.38C65.16,-131.34 120.35,-43.04 139.48,-12.43"/>
<polygon fill="grey" stroke="grey" points="142.55,-14.13 144.88,-3.79 136.61,-10.42 142.55,-14.13"/>
</g>
<!-- r10t6 -->
<g id="node31" class="node">
<title>r10t6</title>
<ellipse fill="black" stroke="black" cx="128" cy="-74" rx="1.8" ry="1.8"/>
</g>
<!-- r9t3&#45;&gt;r10t6 -->
<g id="edge20" class="edge">
<title>r9t3&#45;&gt;r10t6</title>
<path fill="none" stroke="grey" d="M75.13,-144.5C80.95,-136.74 107.81,-100.92 120.85,-83.53"/>
<polygon fill="grey" stroke="grey" points="123.68,-85.6 126.88,-75.5 118.08,-81.4 123.68,-85.6"/>
</g>
<!-- r10c -->
<g id="node24" class="node">
<title>r10c</title>
<ellipse fill="red" stroke="red" cx="2" cy="-74" rx="1.8" ry="1.8"/>
</g>
<!-- r11t8 -->
<g id="node41" class="node">
<title>r11t8</title>
<ellipse fill="black" stroke="black" cx="164" cy="-2" rx="1.8" ry="1.8"/>
</g>
<!-- r10t0&#45;&gt;r11t8 -->
<g id="edge29" class="edge">
<title>r10t0&#45;&gt;r11t8</title>
<path fill="none" stroke="grey" d="M21.62,-73.19C34.6,-66.7 122.18,-22.91 153.17,-7.42"/>
<polygon fill="grey" stroke="grey" points="154.83,-10.5 162.21,-2.9 151.7,-4.24 154.83,-10.5"/>
</g>
<!-- r11t9 -->
<g id="node42" class="node">
<title>r11t9</title>
<ellipse fill="black" stroke="black" cx="182" cy="-2" rx="1.8" ry="1.8"/>
</g>
<!-- r10t0&#45;&gt;r11t9 -->
<g id="edge30" class="edge">
<title>r10t0&#45;&gt;r11t9</title>
<path fill="none" stroke="grey" d="M21.82,-73.19C36.56,-66.64 136.71,-22.13 170.72,-7.01"/>
<polygon fill="grey" stroke="grey" points="172.26,-10.16 179.98,-2.9 169.42,-3.76 172.26,-10.16"/>
</g>
<!-- r11t10 -->
<g id="node43" class="node">
<title>r11t10</title>
<ellipse fill="black" stroke="black" cx="200" cy="-2" rx="1.8" ry="1.8"/>
</g>
<!-- r10t2&#45;&gt;r11t10 -->
<g id="edge31" class="edge">
<title>r10t2&#45;&gt;r11t10</title>
<path fill="none" stroke="grey" d="M57.62,-73.19C70.6,-66.7 158.18,-22.91 189.17,-7.42"/>
<polygon fill="grey" stroke="grey" points="190.83,-10.5 198.21,-2.9 187.7,-4.24 190.83,-10.5"/>
</g>
<!-- r11t11 -->
<g id="node44" class="node">
<title>r11t11</title>
<ellipse fill="black" stroke="black" cx="218" cy="-2" rx="1.8" ry="1.8"/>
</g>
<!-- r10t2&#45;&gt;r11t11 -->
<g id="edge32" class="edge">
<title>r10t2&#45;&gt;r11t11</title>
<path fill="none" stroke="grey" d="M57.82,-73.19C72.56,-66.64 172.71,-22.13 206.72,-7.01"/>
<polygon fill="grey" stroke="grey" points="208.26,-10.16 215.98,-2.9 205.42,-3.76 208.26,-10.16"/>
</g>
<!-- r11c -->
<g id="node32" class="node">
<title>r11c</title>
<ellipse fill="red" stroke="red" cx="2" cy="-2" rx="1.8" ry="1.8"/>
</g>
</g>
</svg>
