<?xml version="1.0" encoding="UTF-8" standalone="no"?>
<!DOCTYPE svg PUBLIC "-//W3C//DTD SVG 1.1//EN"
 "http://www.w3.org/Graphics/SVG/1.1/DTD/svg11.dtd">
<!-- Generated by graphviz version 2.43.0 (0)
 -->
<!-- Title: G Pages: 1 -->
<svg width="444pt" height="1020pt"
 viewBox="0.00 0.00 444.00 1020.00" xmlns="http://www.w3.org/2000/svg" xmlns:xlink="http://www.w3.org/1999/xlink">
<g id="graph0" class="graph" transform="scale(1 1) rotate(0) translate(4 1016)">
<title>G</title>
<polygon fill="white" stroke="transparent" points="-4,4 -4,-1016 440,-1016 440,4 -4,4"/>
<!-- r0c -->
<g id="node1" class="node">
<title>r0c</title>
<ellipse fill="red" stroke="red" cx="2" cy="-1010" rx="1.8" ry="1.8"/>
</g>
<!-- r3t0 -->
<g id="node5" class="node">
<title>r3t0</title>
<ellipse fill="black" stroke="black" cx="20" cy="-794" rx="1.8" ry="1.8"/>
</g>
<!-- r0c&#45;&gt;r3t0 -->
<g id="edge1" class="edge">
<title>r0c&#45;&gt;r3t0</title>
<path fill="none" stroke="grey" d="M2.16,-1008.13C3.64,-990.27 15.38,-849.39 18.97,-806.41"/>
<polygon fill="grey" stroke="grey" points="22.48,-806.43 19.82,-796.17 15.5,-805.85 22.48,-806.43"/>
</g>
<!-- r1c -->
<g id="node2" class="node">
<title>r1c</title>
<ellipse fill="red" stroke="red" cx="2" cy="-938" rx="1.8" ry="1.8"/>
</g>
<!-- r10t0 -->
<g id="node25" class="node">
<title>r10t0</title>
<ellipse fill="black" stroke="black" cx="20" cy="-290" rx="1.8" ry="1.8"/>
</g>
<!-- r1c&#45;&gt;r10t0 -->
<g id="edge14" class="edge">
<title>r1c&#45;&gt;r10t0</title>
<path fill="none" stroke="grey" d="M2.05,-936.14C3.02,-901.33 17.27,-388.35 19.66,-302.23"/>
<polygon fill="grey" stroke="grey" points="23.17,-302.06 19.95,-291.97 16.17,-301.87 23.17,-302.06"/>
</g>
<!-- r10t1 -->
<g id="node26" class="node">
<title>r10t1</title>
<ellipse fill="black" stroke="black" cx="38" cy="-290" rx="1.8" ry="1.8"/>
</g>
<!-- r1c&#45;&gt;r10t1 -->
<g id="edge15" class="edge">
<title>r1c&#45;&gt;r10t1</title>
<path fill="none" stroke="grey" d="M2.1,-936.14C4.04,-901.3 32.59,-387.29 37.34,-301.96"/>
<polygon fill="grey" stroke="grey" points="40.83,-302.15 37.89,-291.97 33.84,-301.76 40.83,-302.15"/>
</g>
<!-- r10t2 -->
<g id="node27" class="node">
<title>r10t2</title>
<ellipse fill="black" stroke="black" cx="56" cy="-290" rx="1.8" ry="1.8"/>
</g>
<!-- r1c&#45;&gt;r10t2 -->
<g id="edge16" class="edge">
<title>r1c&#45;&gt;r10t2</title>
<path fill="none" stroke="grey" d="M2.15,-936.14C5.06,-901.3 47.89,-387.29 55,-301.96"/>
<polygon fill="grey" stroke="grey" points="58.49,-302.22 55.84,-291.97 51.52,-301.64 58.49,-302.22"/>
</g>
<!-- r2c -->
<g id="node3" class="node">
<title>r2c</title>
<ellipse fill="red" stroke="red" cx="2" cy="-866" rx="1.8" ry="1.8"/>
</g>
<!-- r4t0 -->
<g id="node7" class="node">
<title>r4t0</title>
<ellipse fill="black" stroke="black" cx="20" cy="-722" rx="1.8" ry="1.8"/>
</g>
<!-- r2c&#45;&gt;r4t0 -->
<g id="edge2" class="edge">
<title>r2c&#45;&gt;r4t0</title>
<path fill="none" stroke="grey" d="M2.25,-863.96C4.02,-849.85 14.48,-766.13 18.46,-734.29"/>
<polygon fill="grey" stroke="grey" points="21.96,-734.53 19.73,-724.17 15.02,-733.66 21.96,-734.53"/>
</g>
<!-- r4t1 -->
<g id="node8" class="node">
<title>r4t1</title>
<ellipse fill="black" stroke="black" cx="38" cy="-722" rx="1.8" ry="1.8"/>
</g>
<!-- r2c&#45;&gt;r4t1 -->
<g id="edge3" class="edge">
<title>r2c&#45;&gt;r4t1</title>
<path fill="none" stroke="grey" d="M2.51,-863.96C6.07,-849.73 27.32,-764.71 35.13,-733.49"/>
<polygon fill="grey" stroke="grey" points="38.53,-734.32 37.56,-723.77 31.74,-732.62 38.53,-734.32"/>
</g>
<!-- r3c -->
<g id="node4" class="node">
<title>r3c</title>
<ellipse fill="red" stroke="red" cx="2" cy="-794" rx="1.8" ry="1.8"/>
</g>
<!-- r12t0 -->
<g id="node46" class="node">
<title>r12t0</title>
<ellipse fill="black" stroke="black" cx="20" cy="-146" rx="1.8" ry="1.8"/>
</g>
<!-- r3c&#45;&gt;r12t0 -->
<g id="edge33" class="edge">
<title>r3c&#45;&gt;r12t0</title>
<path fill="none" stroke="grey" d="M2.05,-792.14C3.02,-757.33 17.27,-244.35 19.66,-158.23"/>
<polygon fill="grey" stroke="grey" points="23.17,-158.06 19.95,-147.97 16.17,-157.87 23.17,-158.06"/>
</g>
<!-- r12t1 -->
<g id="node47" class="node">
<title>r12t1</title>
<ellipse fill="black" stroke="black" cx="38" cy="-146" rx="1.8" ry="1.8"/>
</g>
<!-- r3c&#45;&gt;r12t1 -->
<g id="edge34" class="edge">
<title>r3c&#45;&gt;r12t1</title>
<path fill="none" stroke="grey" d="M2.1,-792.14C4.04,-757.3 32.59,-243.29 37.34,-157.96"/>
<polygon fill="grey" stroke="grey" points="40.83,-158.15 37.89,-147.97 33.84,-157.76 40.83,-158.15"/>
</g>
<!-- r12t2 -->
<g id="node48" class="node">
<title>r12t2</title>
<ellipse fill="black" stroke="black" cx="56" cy="-146" rx="1.8" ry="1.8"/>
</g>
<!-- r3c&#45;&gt;r12t2 -->
<g id="edge35" class="edge">
<title>r3c&#45;&gt;r12t2</title>
<path fill="none" stroke="grey" d="M2.15,-792.14C5.06,-757.3 47.89,-243.29 55,-157.96"/>
<polygon fill="grey" stroke="grey" points="58.49,-158.22 55.84,-147.97 51.52,-157.64 58.49,-158.22"/>
</g>
<!-- r6t0 -->
<g id="node12" class="node">
<title>r6t0</title>
<ellipse fill="black" stroke="black" cx="20" cy="-578" rx="1.8" ry="1.8"/>
</g>
<!-- r3t0&#45;&gt;r6t0 -->
<g id="edge5" class="edge">
<title>r3t0&#45;&gt;r6t0</title>
<path fill="none" stroke="grey" d="M20,-792.13C20,-774.27 20,-633.39 20,-590.41"/>
<polygon fill="grey" stroke="grey" points="23.5,-590.17 20,-580.17 16.5,-590.17 23.5,-590.17"/>
</g>
<!-- r4c -->
<g id="node6" class="node">
<title>r4c</title>
<ellipse fill="red" stroke="red" cx="2" cy="-722" rx="1.8" ry="1.8"/>
</g>
<!-- r11t0 -->
<g id="node33" class="node">
<title>r11t0</title>
<ellipse fill="black" stroke="black" cx="20" cy="-218" rx="1.8" ry="1.8"/>
</g>
<!-- r4c&#45;&gt;r11t0 -->
<g id="edge21" class="edge">
<title>r4c&#45;&gt;r11t0</title>
<path fill="none" stroke="grey" d="M2.07,-720.18C3.13,-690.39 16.89,-305.13 19.55,-230.48"/>
<polygon fill="grey" stroke="grey" points="23.07,-230.21 19.93,-220.09 16.07,-229.96 23.07,-230.21"/>
</g>
<!-- r11t1 -->
<g id="node34" class="node">
<title>r11t1</title>
<ellipse fill="black" stroke="black" cx="38" cy="-218" rx="1.8" ry="1.8"/>
</g>
<!-- r4c&#45;&gt;r11t1 -->
<g id="edge22" class="edge">
<title>r4c&#45;&gt;r11t1</title>
<path fill="none" stroke="grey" d="M2.13,-720.18C4.26,-690.39 31.78,-305.13 37.11,-230.48"/>
<polygon fill="grey" stroke="grey" points="40.63,-230.32 37.85,-220.09 33.65,-229.82 40.63,-230.32"/>
</g>
<!-- r5t0 -->
<g id="node10" class="node">
<title>r5t0</title>
<ellipse fill="black" stroke="black" cx="20" cy="-650" rx="1.8" ry="1.8"/>
</g>
<!-- r4t0&#45;&gt;r5t0 -->
<g id="edge4" class="edge">
<title>r4t0&#45;&gt;r5t0</title>
<path fill="none" stroke="grey" d="M20,-719.92C20,-711.54 20,-679.84 20,-662.14"/>
<polygon fill="grey" stroke="grey" points="23.5,-661.95 20,-651.95 16.5,-661.95 23.5,-661.95"/>
</g>
<!-- r5c -->
<g id="node9" class="node">
<title>r5c</title>
<ellipse fill="red" stroke="red" cx="2" cy="-650" rx="1.8" ry="1.8"/>
</g>
<!-- r7t0 -->
<g id="node14" class="node">
<title>r7t0</title>
<ellipse fill="black" stroke="black" cx="20" cy="-506" rx="1.8" ry="1.8"/>
</g>
<!-- r5c&#45;&gt;r7t0 -->
<g id="edge6" class="edge">
<title>r5c&#45;&gt;r7t0</title>
<path fill="none" stroke="grey" d="M2.25,-647.96C4.02,-633.85 14.48,-550.13 18.46,-518.29"/>
<polygon fill="grey" stroke="grey" points="21.96,-518.53 19.73,-508.17 15.02,-517.66 21.96,-518.53"/>
</g>
<!-- r8t0 -->
<g id="node16" class="node">
<title>r8t0</title>
<ellipse fill="black" stroke="black" cx="20" cy="-434" rx="1.8" ry="1.8"/>
</g>
<!-- r5t0&#45;&gt;r8t0 -->
<g id="edge7" class="edge">
<title>r5t0&#45;&gt;r8t0</title>
<path fill="none" stroke="grey" d="M20,-648.13C20,-630.27 20,-489.39 20,-446.41"/>
<polygon fill="grey" stroke="grey" points="23.5,-446.17 20,-436.17 16.5,-446.17 23.5,-446.17"/>
</g>
<!-- r8t1 -->
<g id="node17" class="node">
<title>r8t1</title>
<ellipse fill="black" stroke="black" cx="38" cy="-434" rx="1.8" ry="1.8"/>
</g>
<!-- r5t0&#45;&gt;r8t1 -->
<g id="edge8" class="edge">
<title>r5t0&#45;&gt;r8t1</title>
<path fill="none" stroke="grey" d="M20.16,-648.13C21.64,-630.27 33.38,-489.39 36.97,-446.41"/>
<polygon fill="grey" stroke="grey" points="40.48,-446.43 37.82,-436.17 33.5,-445.85 40.48,-446.43"/>
</g>
<!-- r6c -->
<g id="node11" class="node">
<title>r6c</title>
<ellipse fill="red" stroke="red" cx="2" cy="-578" rx="1.8" ry="1.8"/>
</g>
<!-- r12t3 -->
<g id="node49" class="node">
<title>r12t3</title>
<ellipse fill="black" stroke="black" cx="74" cy="-146" rx="1.8" ry="1.8"/>
</g>
<!-- r6c&#45;&gt;r12t3 -->
<g id="edge36" class="edge">
<title>r6c&#45;&gt;r12t3</title>
<path fill="none" stroke="grey" d="M2.32,-576.07C6.98,-548.12 60.97,-224.18 72.03,-157.83"/>
<polygon fill="grey" stroke="grey" points="75.51,-158.22 73.7,-147.78 68.61,-157.07 75.51,-158.22"/>
</g>
<!-- r12t4 -->
<g id="node50" class="node">
<title>r12t4</title>
<ellipse fill="black" stroke="black" cx="92" cy="-146" rx="1.8" ry="1.8"/>
</g>
<!-- r6c&#45;&gt;r12t4 -->
<g id="edge37" class="edge">
<title>r6c&#45;&gt;r12t4</title>
<path fill="none" stroke="grey" d="M2.4,-576.07C8.23,-548.12 75.71,-224.18 89.54,-157.83"/>
<polygon fill="grey" stroke="grey" points="93.02,-158.28 91.63,-147.78 86.16,-156.86 93.02,-158.28"/>
</g>
<!-- r14t0 -->
<g id="node77" class="node">
<title>r14t0</title>
<ellipse fill="black" stroke="black" cx="20" cy="-2" rx="1.8" ry="1.8"/>
</g>
<!-- r6t0&#45;&gt;r14t0 -->
<g id="edge62" class="edge">
<title>r6t0&#45;&gt;r14t0</title>
<path fill="none" stroke="grey" d="M20,-575.91C20,-541.56 20,-93.36 20,-13.98"/>
<polygon fill="grey" stroke="grey" points="23.5,-13.94 20,-3.94 16.5,-13.94 23.5,-13.94"/>
</g>
<!-- r14t1 -->
<g id="node78" class="node">
<title>r14t1</title>
<ellipse fill="black" stroke="black" cx="38" cy="-2" rx="1.8" ry="1.8"/>
</g>
<!-- r6t0&#45;&gt;r14t1 -->
<g id="edge63" class="edge">
<title>r6t0&#45;&gt;r14t1</title>
<path fill="none" stroke="grey" d="M20.07,-575.91C21.14,-541.56 35.14,-93.36 37.63,-13.98"/>
<polygon fill="grey" stroke="grey" points="41.13,-14.05 37.94,-3.94 34.13,-13.83 41.13,-14.05"/>
</g>
<!-- r7c -->
<g id="node13" class="node">
<title>r7c</title>
<ellipse fill="red" stroke="red" cx="2" cy="-506" rx="1.8" ry="1.8"/>
</g>
<!-- r8t2 -->
<g id="node18" class="node">
<title>r8t2</title>
<ellipse fill="black" stroke="black" cx="56" cy="-434" rx="1.8" ry="1.8"/>
</g>
<!-- r7c&#45;&gt;r8t2 -->
<g id="edge9" class="edge">
<title>r7c&#45;&gt;r8t2</title>
<path fill="none" stroke="grey" d="M3.13,-504.5C8.95,-496.74 35.81,-460.92 48.85,-443.53"/>
<polygon fill="grey" stroke="grey" points="51.68,-445.6 54.88,-435.5 46.08,-441.4 51.68,-445.6"/>
</g>
<!-- r11t2 -->
<g id="node35" class="node">
<title>r11t2</title>
<ellipse fill="black" stroke="black" cx="56" cy="-218" rx="1.8" ry="1.8"/>
</g>
<!-- r7t0&#45;&gt;r11t2 -->
<g id="edge23" class="edge">
<title>r7t0&#45;&gt;r11t2</title>
<path fill="none" stroke="grey" d="M20.23,-504.16C22.9,-482.79 48.08,-281.39 54.51,-229.93"/>
<polygon fill="grey" stroke="grey" points="57.99,-230.32 55.76,-219.96 51.04,-229.45 57.99,-230.32"/>
</g>
<!-- r11t3 -->
<g id="node36" class="node">
<title>r11t3</title>
<ellipse fill="black" stroke="black" cx="74" cy="-218" rx="1.8" ry="1.8"/>
</g>
<!-- r7t0&#45;&gt;r11t3 -->
<g id="edge24" class="edge">
<title>r7t0&#45;&gt;r11t3</title>
<path fill="none" stroke="grey" d="M20.34,-504.16C24.35,-482.79 62.11,-281.39 71.76,-229.93"/>
<polygon fill="grey" stroke="grey" points="75.23,-230.43 73.63,-219.96 68.35,-229.14 75.23,-230.43"/>
</g>
<!-- r8c -->
<g id="node15" class="node">
<title>r8c</title>
<ellipse fill="red" stroke="red" cx="2" cy="-434" rx="1.8" ry="1.8"/>
</g>
<!-- r9t0 -->
<g id="node20" class="node">
<title>r9t0</title>
<ellipse fill="black" stroke="black" cx="20" cy="-362" rx="1.8" ry="1.8"/>
</g>
<!-- r8t0&#45;&gt;r9t0 -->
<g id="edge10" class="edge">
<title>r8t0&#45;&gt;r9t0</title>
<path fill="none" stroke="grey" d="M20,-431.92C20,-423.54 20,-391.84 20,-374.14"/>
<polygon fill="grey" stroke="grey" points="23.5,-373.95 20,-363.95 16.5,-373.95 23.5,-373.95"/>
</g>
<!-- r9t1 -->
<g id="node21" class="node">
<title>r9t1</title>
<ellipse fill="black" stroke="black" cx="38" cy="-362" rx="1.8" ry="1.8"/>
</g>
<!-- r8t0&#45;&gt;r9t1 -->
<g id="edge11" class="edge">
<title>r8t0&#45;&gt;r9t1</title>
<path fill="none" stroke="grey" d="M20.44,-432.22C22.43,-424.27 30.59,-391.65 35.05,-373.8"/>
<polygon fill="grey" stroke="grey" points="38.47,-374.53 37.5,-363.98 31.68,-372.83 38.47,-374.53"/>
</g>
<!-- r9t2 -->
<g id="node22" class="node">
<title>r9t2</title>
<ellipse fill="black" stroke="black" cx="56" cy="-362" rx="1.8" ry="1.8"/>
</g>
<!-- r8t0&#45;&gt;r9t2 -->
<g id="edge12" class="edge">
<title>r8t0&#45;&gt;r9t2</title>
<path fill="none" stroke="grey" d="M20.89,-432.22C24.94,-424.13 41.78,-390.43 50.59,-372.82"/>
<polygon fill="grey" stroke="grey" points="53.8,-374.23 55.14,-363.72 47.54,-371.1 53.8,-374.23"/>
</g>
<!-- r9t3 -->
<g id="node23" class="node">
<title>r9t3</title>
<ellipse fill="black" stroke="black" cx="74" cy="-362" rx="1.8" ry="1.8"/>
</g>
<!-- r8t0&#45;&gt;r9t3 -->
<g id="edge13" class="edge">
<title>r8t0&#45;&gt;r9t3</title>
<path fill="none" stroke="grey" d="M21.13,-432.5C26.95,-424.74 53.81,-388.92 66.85,-371.53"/>
<polygon fill="grey" stroke="grey" points="69.68,-373.6 72.88,-363.5 64.08,-369.4 69.68,-373.6"/>
</g>
<!-- r12t5 -->
<g id="node51" class="node">
<title>r12t5</title>
<ellipse fill="black" stroke="black" cx="110" cy="-146" rx="1.8" ry="1.8"/>
</g>
<!-- r8t1&#45;&gt;r12t5 -->
<g id="edge38" class="edge">
<title>r8t1&#45;&gt;r12t5</title>
<path fill="none" stroke="grey" d="M38.46,-432.16C43.8,-410.79 94.15,-209.39 107.02,-157.93"/>
<polygon fill="grey" stroke="grey" points="110.48,-158.51 109.51,-147.96 103.69,-156.81 110.48,-158.51"/>
</g>
<!-- r12t6 -->
<g id="node52" class="node">
<title>r12t6</title>
<ellipse fill="black" stroke="black" cx="128" cy="-146" rx="1.8" ry="1.8"/>
</g>
<!-- r8t1&#45;&gt;r12t6 -->
<g id="edge39" class="edge">
<title>r8t1&#45;&gt;r12t6</title>
<path fill="none" stroke="grey" d="M38.57,-432.16C45.27,-410.74 108.46,-208.53 124.37,-157.6"/>
<polygon fill="grey" stroke="grey" points="127.75,-158.55 127.39,-147.96 121.06,-156.46 127.75,-158.55"/>
</g>
<!-- r10t3 -->
<g id="node28" class="node">
<title>r10t3</title>
<ellipse fill="black" stroke="black" cx="74" cy="-290" rx="1.8" ry="1.8"/>
</g>
<!-- r8t2&#45;&gt;r10t3 -->
<g id="edge17" class="edge">
<title>r8t2&#45;&gt;r10t3</title>
<path fill="none" stroke="grey" d="M56.25,-431.96C58.02,-417.85 68.48,-334.13 72.46,-302.29"/>
<polygon fill="grey" stroke="grey" points="75.96,-302.53 73.73,-292.17 69.02,-301.66 75.96,-302.53"/>
</g>
<!-- r9c -->
<g id="node19" class="node">
<title>r9c</title>
<ellipse fill="red" stroke="red" cx="2" cy="-362" rx="1.8" ry="1.8"/>
</g>
<!-- r13t0 -->
<g id="node61" class="node">
<title>r13t0</title>
<ellipse fill="black" stroke="black" cx="20" cy="-74" rx="1.8" ry="1.8"/>
</g>
<!-- r9c&#45;&gt;r13t0 -->
<g id="edge47" class="edge">
<title>r9c&#45;&gt;r13t0</title>
<path fill="none" stroke="grey" d="M2.11,-360.16C3.45,-338.83 15.98,-138.25 19.23,-86.26"/>
<polygon fill="grey" stroke="grey" points="22.75,-86.16 19.88,-75.96 15.76,-85.72 22.75,-86.16"/>
</g>
<!-- r10t4 -->
<g id="node29" class="node">
<title>r10t4</title>
<ellipse fill="black" stroke="black" cx="92" cy="-290" rx="1.8" ry="1.8"/>
</g>
<!-- r9t0&#45;&gt;r10t4 -->
<g id="edge18" class="edge">
<title>r9t0&#45;&gt;r10t4</title>
<path fill="none" stroke="grey" d="M21.5,-360.5C29.34,-352.66 65.76,-316.24 82.96,-299.04"/>
<polygon fill="grey" stroke="grey" points="85.91,-301.04 90.5,-291.5 80.96,-296.09 85.91,-301.04"/>
</g>
<!-- r10t5 -->
<g id="node30" class="node">
<title>r10t5</title>
<ellipse fill="black" stroke="black" cx="110" cy="-290" rx="1.8" ry="1.8"/>
</g>
<!-- r9t0&#45;&gt;r10t5 -->
<g id="edge19" class="edge">
<title>r9t0&#45;&gt;r10t5</title>
<path fill="none" stroke="grey" d="M21.56,-360.75C30.91,-353.27 79.71,-314.23 100.55,-297.56"/>
<polygon fill="grey" stroke="grey" points="102.77,-300.26 108.39,-291.28 98.4,-294.8 102.77,-300.26"/>
</g>
<!-- r11t4 -->
<g id="node37" class="node">
<title>r11t4</title>
<ellipse fill="black" stroke="black" cx="92" cy="-218" rx="1.8" ry="1.8"/>
</g>
<!-- r9t2&#45;&gt;r11t4 -->
<g id="edge25" class="edge">
<title>r9t2&#45;&gt;r11t4</title>
<path fill="none" stroke="grey" d="M56.51,-359.96C60.07,-345.73 81.32,-260.71 89.13,-229.49"/>
<polygon fill="grey" stroke="grey" points="92.53,-230.32 91.56,-219.77 85.74,-228.62 92.53,-230.32"/>
</g>
<!-- r11t5 -->
<g id="node38" class="node">
<title>r11t5</title>
<ellipse fill="black" stroke="black" cx="110" cy="-218" rx="1.8" ry="1.8"/>
</g>
<!-- r9t2&#45;&gt;r11t5 -->
<g id="edge26" class="edge">
<title>r9t2&#45;&gt;r11t5</title>
<path fill="none" stroke="grey" d="M56.76,-359.96C62.1,-345.73 93.98,-260.71 105.69,-229.49"/>
<polygon fill="grey" stroke="grey" points="109.1,-230.36 109.34,-219.77 102.55,-227.9 109.1,-230.36"/>
</g>
<!-- r11t6 -->
<g id="node39" class="node">
<title>r11t6</title>
<ellipse fill="black" stroke="black" cx="128" cy="-218" rx="1.8" ry="1.8"/>
</g>
<!-- r9t2&#45;&gt;r11t6 -->
<g id="edge27" class="edge">
<title>r9t2&#45;&gt;r11t6</title>
<path fill="none" stroke="grey" d="M56.81,-360.38C63.3,-347.4 107.09,-259.82 122.58,-228.83"/>
<polygon fill="grey" stroke="grey" points="125.76,-230.3 127.1,-219.79 119.5,-227.17 125.76,-230.3"/>
</g>
<!-- r11t7 -->
<g id="node40" class="node">
<title>r11t7</title>
<ellipse fill="black" stroke="black" cx="146" cy="-218" rx="1.8" ry="1.8"/>
</g>
<!-- r9t2&#45;&gt;r11t7 -->
<g id="edge28" class="edge">
<title>r9t2&#45;&gt;r11t7</title>
<path fill="none" stroke="grey" d="M57.01,-360.38C65.16,-347.34 120.35,-259.04 139.48,-228.43"/>
<polygon fill="grey" stroke="grey" points="142.55,-230.13 144.88,-219.79 136.61,-226.42 142.55,-230.13"/>
</g>
<!-- r10t6 -->
<g id="node31" class="node">
<title>r10t6</title>
<ellipse fill="black" stroke="black" cx="128" cy="-290" rx="1.8" ry="1.8"/>
</g>
<!-- r9t3&#45;&gt;r10t6 -->
<g id="edge20" class="edge">
<title>r9t3&#45;&gt;r10t6</title>
<path fill="none" stroke="grey" d="M75.13,-360.5C80.95,-352.74 107.81,-316.92 120.85,-299.53"/>
<polygon fill="grey" stroke="grey" points="123.68,-301.6 126.88,-291.5 118.08,-297.4 123.68,-301.6"/>
</g>
<!-- r10c -->
<g id="node24" class="node">
<title>r10c</title>
<ellipse fill="red" stroke="red" cx="2" cy="-290" rx="1.8" ry="1.8"/>
</g>
<!-- r13t1 -->
<g id="node62" class="node">
<title>r13t1</title>
<ellipse fill="black" stroke="black" cx="38" cy="-74" rx="1.8" ry="1.8"/>
</g>
<!-- r10c&#45;&gt;r13t1 -->
<g id="edge48" class="edge">
<title>r10c&#45;&gt;r13t1</title>
<path fill="none" stroke="grey" d="M2.31,-288.13C5.29,-270.23 28.87,-128.78 35.98,-86.13"/>
<polygon fill="grey" stroke="grey" points="39.45,-86.61 37.64,-76.17 32.54,-85.46 39.45,-86.61"/>
</g>
<!-- r13t2 -->
<g id="node63" class="node">
<title>r13t2</title>
<ellipse fill="black" stroke="black" cx="56" cy="-74" rx="1.8" ry="1.8"/>
</g>
<!-- r10c&#45;&gt;r13t2 -->
<g id="edge49" class="edge">
<title>r10c&#45;&gt;r13t2</title>
<path fill="none" stroke="grey" d="M2.47,-288.13C6.94,-270.23 42.3,-128.78 52.97,-86.13"/>
<polygon fill="grey" stroke="grey" points="56.43,-86.72 55.46,-76.17 49.64,-85.03 56.43,-86.72"/>
</g>
<!-- r13t3 -->
<g id="node64" class="node">
<title>r13t3</title>
<ellipse fill="black" stroke="black" cx="74" cy="-74" rx="1.8" ry="1.8"/>
</g>
<!-- r10c&#45;&gt;r13t3 -->
<g id="edge50" class="edge">
<title>r10c&#45;&gt;r13t3</title>
<path fill="none" stroke="grey" d="M2.62,-288.13C8.6,-270.2 55.94,-128.17 70.05,-85.86"/>
<polygon fill="grey" stroke="grey" points="73.43,-86.77 73.28,-76.17 66.79,-84.55 73.43,-86.77"/>
</g>
<!-- r13t4 -->
<g id="node65" class="node">
<title>r13t4</title>
<ellipse fill="black" stroke="black" cx="92" cy="-74" rx="1.8" ry="1.8"/>
</g>
<!-- r10c&#45;&gt;r13t4 -->
<g id="edge51" class="edge">
<title>r10c&#45;&gt;r13t4</title>
<path fill="none" stroke="grey" d="M2.78,-288.13C10.3,-270.09 70.16,-126.41 87.38,-85.09"/>
<polygon fill="grey" stroke="grey" points="90.69,-86.25 91.3,-75.67 84.23,-83.56 90.69,-86.25"/>
</g>
<!-- r11t8 -->
<g id="node41" class="node">
<title>r11t8</title>
<ellipse fill="black" stroke="black" cx="164" cy="-218" rx="1.8" ry="1.8"/>
</g>
<!-- r10t0&#45;&gt;r11t8 -->
<g id="edge29" class="edge">
<title>r10t0&#45;&gt;r11t8</title>
<path fill="none" stroke="grey" d="M21.62,-289.19C34.6,-282.7 122.18,-238.91 153.17,-223.42"/>
<polygon fill="grey" stroke="grey" points="154.83,-226.5 162.21,-218.9 151.7,-220.24 154.83,-226.5"/>
</g>
<!-- r11t9 -->
<g id="node42" class="node">
<title>r11t9</title>
<ellipse fill="black" stroke="black" cx="182" cy="-218" rx="1.8" ry="1.8"/>
</g>
<!-- r10t0&#45;&gt;r11t9 -->
<g id="edge30" class="edge">
<title>r10t0&#45;&gt;r11t9</title>
<path fill="none" stroke="grey" d="M21.82,-289.19C36.56,-282.64 136.71,-238.13 170.72,-223.01"/>
<polygon fill="grey" stroke="grey" points="172.26,-226.16 179.98,-218.9 169.42,-219.76 172.26,-226.16"/>
</g>
<!-- r11t10 -->
<g id="node43" class="node">
<title>r11t10</title>
<ellipse fill="black" stroke="black" cx="200" cy="-218" rx="1.8" ry="1.8"/>
</g>
<!-- r10t2&#45;&gt;r11t10 -->
<g id="edge31" class="edge">
<title>r10t2&#45;&gt;r11t10</title>
<path fill="none" stroke="grey" d="M57.62,-289.19C70.6,-282.7 158.18,-238.91 189.17,-223.42"/>
<polygon fill="grey" stroke="grey" points="190.83,-226.5 198.21,-218.9 187.7,-220.24 190.83,-226.5"/>
</g>
<!-- r11t11 -->
<g id="node44" class="node">
<title>r11t11</title>
<ellipse fill="black" stroke="black" cx="218" cy="-218" rx="1.8" ry="1.8"/>
</g>
<!-- r10t2&#45;&gt;r11t11 -->
<g id="edge32" class="edge">
<title>r10t2&#45;&gt;r11t11</title>
<path fill="none" stroke="grey" d="M57.82,-289.19C72.56,-282.64 172.71,-238.13 206.72,-223.01"/>
<polygon fill="grey" stroke="grey" points="208.26,-226.16 215.98,-218.9 205.42,-219.76 208.26,-226.16"/>
</g>
<!-- r14t2 -->
<g id="node79" class="node">
<title>r14t2</title>
<ellipse fill="black" stroke="black" cx="56" cy="-2" rx="1.8" ry="1.8"/>
</g>
<!-- r10t3&#45;&gt;r14t2 -->
<g id="edge64" class="edge">
<title>r10t3&#45;&gt;r14t2</title>
<path fill="none" stroke="grey" d="M73.89,-288.16C72.55,-266.83 60.02,-66.25 56.77,-14.26"/>
<polygon fill="grey" stroke="grey" points="60.24,-13.72 56.12,-3.96 53.25,-14.16 60.24,-13.72"/>
</g>
<!-- r12t7 -->
<g id="node53" class="node">
<title>r12t7</title>
<ellipse fill="black" stroke="black" cx="146" cy="-146" rx="1.8" ry="1.8"/>
</g>
<!-- r10t4&#45;&gt;r12t7 -->
<g id="edge40" class="edge">
<title>r10t4&#45;&gt;r12t7</title>
<path fill="none" stroke="grey" d="M92.76,-287.96C98.1,-273.73 129.98,-188.71 141.69,-157.49"/>
<polygon fill="grey" stroke="grey" points="145.1,-158.36 145.34,-147.77 138.55,-155.9 145.1,-158.36"/>
</g>
<!-- r12t8 -->
<g id="node54" class="node">
<title>r12t8</title>
<ellipse fill="black" stroke="black" cx="164" cy="-146" rx="1.8" ry="1.8"/>
</g>
<!-- r10t4&#45;&gt;r12t8 -->
<g id="edge41" class="edge">
<title>r10t4&#45;&gt;r12t8</title>
<path fill="none" stroke="grey" d="M92.81,-288.38C99.3,-275.4 143.09,-187.82 158.58,-156.83"/>
<polygon fill="grey" stroke="grey" points="161.76,-158.3 163.1,-147.79 155.5,-155.17 161.76,-158.3"/>
</g>
<!-- r13t5 -->
<g id="node66" class="node">
<title>r13t5</title>
<ellipse fill="black" stroke="black" cx="110" cy="-74" rx="1.8" ry="1.8"/>
</g>
<!-- r10t5&#45;&gt;r13t5 -->
<g id="edge52" class="edge">
<title>r10t5&#45;&gt;r13t5</title>
<path fill="none" stroke="grey" d="M110,-288.13C110,-270.27 110,-129.39 110,-86.41"/>
<polygon fill="grey" stroke="grey" points="113.5,-86.17 110,-76.17 106.5,-86.17 113.5,-86.17"/>
</g>
<!-- r13t6 -->
<g id="node67" class="node">
<title>r13t6</title>
<ellipse fill="black" stroke="black" cx="128" cy="-74" rx="1.8" ry="1.8"/>
</g>
<!-- r10t5&#45;&gt;r13t6 -->
<g id="edge53" class="edge">
<title>r10t5&#45;&gt;r13t6</title>
<path fill="none" stroke="grey" d="M110.16,-288.13C111.64,-270.27 123.38,-129.39 126.97,-86.41"/>
<polygon fill="grey" stroke="grey" points="130.48,-86.43 127.82,-76.17 123.5,-85.85 130.48,-86.43"/>
</g>
<!-- r11c -->
<g id="node32" class="node">
<title>r11c</title>
<ellipse fill="red" stroke="red" cx="2" cy="-218" rx="1.8" ry="1.8"/>
</g>
<!-- r12t9 -->
<g id="node55" class="node">
<title>r12t9</title>
<ellipse fill="black" stroke="black" cx="182" cy="-146" rx="1.8" ry="1.8"/>
</g>
<!-- r11c&#45;&gt;r12t9 -->
<g id="edge42" class="edge">
<title>r11c&#45;&gt;r12t9</title>
<path fill="none" stroke="grey" d="M4.02,-217.19C20.61,-210.56 134.54,-164.98 170.89,-150.45"/>
<polygon fill="grey" stroke="grey" points="172.23,-153.68 180.22,-146.71 169.63,-147.18 172.23,-153.68"/>
</g>
<!-- r12t10 -->
<g id="node56" class="node">
<title>r12t10</title>
<ellipse fill="black" stroke="black" cx="200" cy="-146" rx="1.8" ry="1.8"/>
</g>
<!-- r11c&#45;&gt;r12t10 -->
<g id="edge43" class="edge">
<title>r11c&#45;&gt;r12t10</title>
<path fill="none" stroke="grey" d="M3.71,-217.38C20.05,-211.44 148.67,-164.67 188.37,-150.23"/>
<polygon fill="grey" stroke="grey" points="189.81,-153.43 198.01,-146.72 187.41,-146.85 189.81,-153.43"/>
</g>
<!-- r14t3 -->
<g id="node80" class="node">
<title>r14t3</title>
<ellipse fill="black" stroke="black" cx="74" cy="-2" rx="1.8" ry="1.8"/>
</g>
<!-- r11t3&#45;&gt;r14t3 -->
<g id="edge65" class="edge">
<title>r11t3&#45;&gt;r14t3</title>
<path fill="none" stroke="grey" d="M74,-216.13C74,-198.27 74,-57.39 74,-14.41"/>
<polygon fill="grey" stroke="grey" points="77.5,-14.17 74,-4.17 70.5,-14.17 77.5,-14.17"/>
</g>
<!-- r14t4 -->
<g id="node81" class="node">
<title>r14t4</title>
<ellipse fill="black" stroke="black" cx="92" cy="-2" rx="1.8" ry="1.8"/>
</g>
<!-- r11t3&#45;&gt;r14t4 -->
<g id="edge66" class="edge">
<title>r11t3&#45;&gt;r14t4</title>
<path fill="none" stroke="grey" d="M74.16,-216.13C75.64,-198.27 87.38,-57.39 90.97,-14.41"/>
<polygon fill="grey" stroke="grey" points="94.48,-14.43 91.82,-4.17 87.5,-13.85 94.48,-14.43"/>
</g>
<!-- r14t5 -->
<g id="node82" class="node">
<title>r14t5</title>
<ellipse fill="black" stroke="black" cx="110" cy="-2" rx="1.8" ry="1.8"/>
</g>
<!-- r11t3&#45;&gt;r14t5 -->
<g id="edge67" class="edge">
<title>r11t3&#45;&gt;r14t5</title>
<path fill="none" stroke="grey" d="M74.31,-216.13C77.29,-198.23 100.87,-56.78 107.98,-14.13"/>
<polygon fill="grey" stroke="grey" points="111.45,-14.61 109.64,-4.17 104.54,-13.46 111.45,-14.61"/>
</g>
<!-- r14t6 -->
<g id="node83" class="node">
<title>r14t6</title>
<ellipse fill="black" stroke="black" cx="128" cy="-2" rx="1.8" ry="1.8"/>
</g>
<!-- r11t3&#45;&gt;r14t6 -->
<g id="edge68" class="edge">
<title>r11t3&#45;&gt;r14t6</title>
<path fill="none" stroke="grey" d="M74.47,-216.13C78.94,-198.23 114.3,-56.78 124.97,-14.13"/>
<polygon fill="grey" stroke="grey" points="128.43,-14.72 127.46,-4.17 121.64,-13.03 128.43,-14.72"/>
</g>
<!-- r12t11 -->
<g id="node57" class="node">
<title>r12t11</title>
<ellipse fill="black" stroke="black" cx="218" cy="-146" rx="1.8" ry="1.8"/>
</g>
<!-- r11t5&#45;&gt;r12t11 -->
<g id="edge44" class="edge">
<title>r11t5&#45;&gt;r12t11</title>
<path fill="none" stroke="grey" d="M111.53,-216.98C121.97,-210.02 183.23,-169.18 207.8,-152.8"/>
<polygon fill="grey" stroke="grey" points="209.99,-155.54 216.37,-147.08 206.11,-149.72 209.99,-155.54"/>
</g>
<!-- r12t12 -->
<g id="node58" class="node">
<title>r12t12</title>
<ellipse fill="black" stroke="black" cx="236" cy="-146" rx="1.8" ry="1.8"/>
</g>
<!-- r11t7&#45;&gt;r12t12 -->
<g id="edge45" class="edge">
<title>r11t7&#45;&gt;r12t12</title>
<path fill="none" stroke="grey" d="M147.56,-216.75C156.91,-209.27 205.71,-170.23 226.55,-153.56"/>
<polygon fill="grey" stroke="grey" points="228.77,-156.26 234.39,-147.28 224.4,-150.8 228.77,-156.26"/>
</g>
<!-- r14t7 -->
<g id="node84" class="node">
<title>r14t7</title>
<ellipse fill="black" stroke="black" cx="146" cy="-2" rx="1.8" ry="1.8"/>
</g>
<!-- r11t8&#45;&gt;r14t7 -->
<g id="edge69" class="edge">
<title>r11t8&#45;&gt;r14t7</title>
<path fill="none" stroke="grey" d="M163.84,-216.13C162.36,-198.27 150.62,-57.39 147.03,-14.41"/>
<polygon fill="grey" stroke="grey" points="150.5,-13.85 146.18,-4.17 143.52,-14.43 150.5,-13.85"/>
</g>
<!-- r14t8 -->
<g id="node85" class="node">
<title>r14t8</title>
<ellipse fill="black" stroke="black" cx="164" cy="-2" rx="1.8" ry="1.8"/>
</g>
<!-- r11t8&#45;&gt;r14t8 -->
<g id="edge70" class="edge">
<title>r11t8&#45;&gt;r14t8</title>
<path fill="none" stroke="grey" d="M164,-216.13C164,-198.27 164,-57.39 164,-14.41"/>
<polygon fill="grey" stroke="grey" points="167.5,-14.17 164,-4.17 160.5,-14.17 167.5,-14.17"/>
</g>
<!-- r14t9 -->
<g id="node86" class="node">
<title>r14t9</title>
<ellipse fill="black" stroke="black" cx="182" cy="-2" rx="1.8" ry="1.8"/>
</g>
<!-- r11t8&#45;&gt;r14t9 -->
<g id="edge71" class="edge">
<title>r11t8&#45;&gt;r14t9</title>
<path fill="none" stroke="grey" d="M164.16,-216.13C165.64,-198.27 177.38,-57.39 180.97,-14.41"/>
<polygon fill="grey" stroke="grey" points="184.48,-14.43 181.82,-4.17 177.5,-13.85 184.48,-14.43"/>
</g>
<!-- r12t13 -->
<g id="node59" class="node">
<title>r12t13</title>
<ellipse fill="black" stroke="black" cx="254" cy="-146" rx="1.8" ry="1.8"/>
</g>
<!-- r11t9&#45;&gt;r12t13 -->
<g id="edge46" class="edge">
<title>r11t9&#45;&gt;r12t13</title>
<path fill="none" stroke="grey" d="M183.5,-216.5C191.34,-208.66 227.76,-172.24 244.96,-155.04"/>
<polygon fill="grey" stroke="grey" points="247.91,-157.04 252.5,-147.5 242.96,-152.09 247.91,-157.04"/>
</g>
<!-- r12c -->
<g id="node45" class="node">
<title>r12c</title>
<ellipse fill="red" stroke="red" cx="2" cy="-146" rx="1.8" ry="1.8"/>
</g>
<!-- r13t7 -->
<g id="node68" class="node">
<title>r13t7</title>
<ellipse fill="black" stroke="black" cx="146" cy="-74" rx="1.8" ry="1.8"/>
</g>
<!-- r12t0&#45;&gt;r13t7 -->
<g id="edge54" class="edge">
<title>r12t0&#45;&gt;r13t7</title>
<path fill="none" stroke="grey" d="M21.78,-144.98C34.13,-137.92 107.38,-96.07 135.25,-80.14"/>
<polygon fill="grey" stroke="grey" points="137.16,-83.08 144.1,-75.08 133.68,-77.01 137.16,-83.08"/>
</g>
<!-- r14t10 -->
<g id="node87" class="node">
<title>r14t10</title>
<ellipse fill="black" stroke="black" cx="200" cy="-2" rx="1.8" ry="1.8"/>
</g>
<!-- r12t3&#45;&gt;r14t10 -->
<g id="edge72" class="edge">
<title>r12t3&#45;&gt;r14t10</title>
<path fill="none" stroke="grey" d="M75.42,-144.38C86.97,-131.17 166.09,-40.76 191.88,-11.28"/>
<polygon fill="grey" stroke="grey" points="194.8,-13.26 198.75,-3.43 189.53,-8.65 194.8,-13.26"/>
</g>
<!-- r14t11 -->
<g id="node88" class="node">
<title>r14t11</title>
<ellipse fill="black" stroke="black" cx="218" cy="-2" rx="1.8" ry="1.8"/>
</g>
<!-- r12t6&#45;&gt;r14t11 -->
<g id="edge73" class="edge">
<title>r12t6&#45;&gt;r14t11</title>
<path fill="none" stroke="grey" d="M129.01,-144.38C137.16,-131.34 192.35,-43.04 211.48,-12.43"/>
<polygon fill="grey" stroke="grey" points="214.55,-14.13 216.88,-3.79 208.61,-10.42 214.55,-14.13"/>
</g>
<!-- r13t8 -->
<g id="node69" class="node">
<title>r13t8</title>
<ellipse fill="black" stroke="black" cx="164" cy="-74" rx="1.8" ry="1.8"/>
</g>
<!-- r12t7&#45;&gt;r13t8 -->
<g id="edge55" class="edge">
<title>r12t7&#45;&gt;r13t8</title>
<path fill="none" stroke="grey" d="M146.44,-144.22C148.43,-136.27 156.59,-103.65 161.05,-85.8"/>
<polygon fill="grey" stroke="grey" points="164.47,-86.53 163.5,-75.98 157.68,-84.83 164.47,-86.53"/>
</g>
<!-- r13t9 -->
<g id="node70" class="node">
<title>r13t9</title>
<ellipse fill="black" stroke="black" cx="182" cy="-74" rx="1.8" ry="1.8"/>
</g>
<!-- r12t7&#45;&gt;r13t9 -->
<g id="edge56" class="edge">
<title>r12t7&#45;&gt;r13t9</title>
<path fill="none" stroke="grey" d="M146.89,-144.22C150.94,-136.13 167.78,-102.43 176.59,-84.82"/>
<polygon fill="grey" stroke="grey" points="179.8,-86.23 181.14,-75.72 173.54,-83.1 179.8,-86.23"/>
</g>
<!-- r13t10 -->
<g id="node71" class="node">
<title>r13t10</title>
<ellipse fill="black" stroke="black" cx="200" cy="-74" rx="1.8" ry="1.8"/>
</g>
<!-- r12t7&#45;&gt;r13t10 -->
<g id="edge57" class="edge">
<title>r12t7&#45;&gt;r13t10</title>
<path fill="none" stroke="grey" d="M147.13,-144.5C152.95,-136.74 179.81,-100.92 192.85,-83.53"/>
<polygon fill="grey" stroke="grey" points="195.68,-85.6 198.88,-75.5 190.08,-81.4 195.68,-85.6"/>
</g>
<!-- r13t11 -->
<g id="node72" class="node">
<title>r13t11</title>
<ellipse fill="black" stroke="black" cx="218" cy="-74" rx="1.8" ry="1.8"/>
</g>
<!-- r12t7&#45;&gt;r13t11 -->
<g id="edge58" class="edge">
<title>r12t7&#45;&gt;r13t11</title>
<path fill="none" stroke="grey" d="M147.5,-144.5C155.34,-136.66 191.76,-100.24 208.96,-83.04"/>
<polygon fill="grey" stroke="grey" points="211.91,-85.04 216.5,-75.5 206.96,-80.09 211.91,-85.04"/>
</g>
<!-- r13t12 -->
<g id="node73" class="node">
<title>r13t12</title>
<ellipse fill="black" stroke="black" cx="236" cy="-74" rx="1.8" ry="1.8"/>
</g>
<!-- r12t10&#45;&gt;r13t12 -->
<g id="edge59" class="edge">
<title>r12t10&#45;&gt;r13t12</title>
<path fill="none" stroke="grey" d="M200.89,-144.22C204.94,-136.13 221.78,-102.43 230.59,-84.82"/>
<polygon fill="grey" stroke="grey" points="233.8,-86.23 235.14,-75.72 227.54,-83.1 233.8,-86.23"/>
</g>
<!-- r14t12 -->
<g id="node89" class="node">
<title>r14t12</title>
<ellipse fill="black" stroke="black" cx="236" cy="-2" rx="1.8" ry="1.8"/>
</g>
<!-- r12t11&#45;&gt;r14t12 -->
<g id="edge74" class="edge">
<title>r12t11&#45;&gt;r14t12</title>
<path fill="none" stroke="grey" d="M218.25,-143.96C220.02,-129.85 230.48,-46.13 234.46,-14.29"/>
<polygon fill="grey" stroke="grey" points="237.96,-14.53 235.73,-4.17 231.02,-13.66 237.96,-14.53"/>
</g>
<!-- r14t13 -->
<g id="node90" class="node">
<title>r14t13</title>
<ellipse fill="black" stroke="black" cx="254" cy="-2" rx="1.8" ry="1.8"/>
</g>
<!-- r12t11&#45;&gt;r14t13 -->
<g id="edge75" class="edge">
<title>r12t11&#45;&gt;r14t13</title>
<path fill="none" stroke="grey" d="M218.51,-143.96C222.07,-129.73 243.32,-44.71 251.13,-13.49"/>
<polygon fill="grey" stroke="grey" points="254.53,-14.32 253.56,-3.77 247.74,-12.62 254.53,-14.32"/>
</g>
<!-- r13t13 -->
<g id="node74" class="node">
<title>r13t13</title>
<ellipse fill="black" stroke="black" cx="254" cy="-74" rx="1.8" ry="1.8"/>
</g>
<!-- r12t12&#45;&gt;r13t13 -->
<g id="edge60" class="edge">
<title>r12t12&#45;&gt;r13t13</title>
<path fill="none" stroke="grey" d="M236.44,-144.22C238.43,-136.27 246.59,-103.65 251.05,-85.8"/>
<polygon fill="grey" stroke="grey" points="254.47,-86.53 253.5,-75.98 247.68,-84.83 254.47,-86.53"/>
</g>
<!-- r13t14 -->
<g id="node75" class="node">
<title>r13t14</title>
<ellipse fill="black" stroke="black" cx="272" cy="-74" rx="1.8" ry="1.8"/>
</g>
<!-- r12t12&#45;&gt;r13t14 -->
<g id="edge61" class="edge">
<title>r12t12&#45;&gt;r13t14</title>
<path fill="none" stroke="grey" d="M236.89,-144.22C240.94,-136.13 257.78,-102.43 266.59,-84.82"/>
<polygon fill="grey" stroke="grey" points="269.8,-86.23 271.14,-75.72 263.54,-83.1 269.8,-86.23"/>
</g>
<!-- r13c -->
<g id="node60" class="node">
<title>r13c</title>
<ellipse fill="red" stroke="red" cx="2" cy="-74" rx="1.8" ry="1.8"/>
</g>
<!-- r14t14 -->
<g id="node91" class="node">
<title>r14t14</title>
<ellipse fill="black" stroke="black" cx="272" cy="-2" rx="1.8" ry="1.8"/>
</g>
<!-- r13t1&#45;&gt;r14t14 -->
<g id="edge76" class="edge">
<title>r13t1&#45;&gt;r14t14</title>
<path fill="none" stroke="grey" d="M39.75,-73.46C58.13,-67.81 216.14,-19.19 260.48,-5.55"/>
<polygon fill="grey" stroke="grey" points="261.65,-8.85 270.17,-2.56 259.59,-2.16 261.65,-8.85"/>
</g>
<!-- r14t15 -->
<g id="node92" class="node">
<title>r14t15</title>
<ellipse fill="black" stroke="black" cx="290" cy="-2" rx="1.8" ry="1.8"/>
</g>
<!-- r13t1&#45;&gt;r14t15 -->
<g id="edge77" class="edge">
<title>r13t1&#45;&gt;r14t15</title>
<path fill="none" stroke="grey" d="M39.88,-73.46C59.77,-67.78 231.31,-18.77 278.2,-5.37"/>
<polygon fill="grey" stroke="grey" points="279.38,-8.67 288.03,-2.56 277.46,-1.94 279.38,-8.67"/>
</g>
<!-- r14t16 -->
<g id="node93" class="node">
<title>r14t16</title>
<ellipse fill="black" stroke="black" cx="308" cy="-2" rx="1.8" ry="1.8"/>
</g>
<!-- r13t1&#45;&gt;r14t16 -->
<g id="edge78" class="edge">
<title>r13t1&#45;&gt;r14t16</title>
<path fill="none" stroke="grey" d="M40.02,-73.46C61.46,-67.75 247.43,-18.15 296.29,-5.12"/>
<polygon fill="grey" stroke="grey" points="297.42,-8.44 306.18,-2.49 295.61,-1.68 297.42,-8.44"/>
</g>
<!-- r14t17 -->
<g id="node94" class="node">
<title>r14t17</title>
<ellipse fill="black" stroke="black" cx="326" cy="-2" rx="1.8" ry="1.8"/>
</g>
<!-- r13t9&#45;&gt;r14t17 -->
<g id="edge79" class="edge">
<title>r13t9&#45;&gt;r14t17</title>
<path fill="none" stroke="grey" d="M183.62,-73.19C196.6,-66.7 284.18,-22.91 315.17,-7.42"/>
<polygon fill="grey" stroke="grey" points="316.83,-10.5 324.21,-2.9 313.7,-4.24 316.83,-10.5"/>
</g>
<!-- r14t18 -->
<g id="node95" class="node">
<title>r14t18</title>
<ellipse fill="black" stroke="black" cx="344" cy="-2" rx="1.8" ry="1.8"/>
</g>
<!-- r13t9&#45;&gt;r14t18 -->
<g id="edge80" class="edge">
<title>r13t9&#45;&gt;r14t18</title>
<path fill="none" stroke="grey" d="M183.82,-73.19C198.56,-66.64 298.71,-22.13 332.72,-7.01"/>
<polygon fill="grey" stroke="grey" points="334.26,-10.16 341.98,-2.9 331.42,-3.76 334.26,-10.16"/>
</g>
<!-- r14t19 -->
<g id="node96" class="node">
<title>r14t19</title>
<ellipse fill="black" stroke="black" cx="362" cy="-2" rx="1.8" ry="1.8"/>
</g>
<!-- r13t9&#45;&gt;r14t19 -->
<g id="edge81" class="edge">
<title>r13t9&#45;&gt;r14t19</title>
<path fill="none" stroke="grey" d="M184.02,-73.19C200.61,-66.56 314.54,-20.98 350.89,-6.45"/>
<polygon fill="grey" stroke="grey" points="352.23,-9.68 360.22,-2.71 349.63,-3.18 352.23,-9.68"/>
</g>
<!-- r14t20 -->
<g id="node97" class="node">
<title>r14t20</title>
<ellipse fill="black" stroke="black" cx="380" cy="-2" rx="1.8" ry="1.8"/>
</g>
<!-- r13t9&#45;&gt;r14t20 -->
<g id="edge82" class="edge">
<title>r13t9&#45;&gt;r14t20</title>
<path fill="none" stroke="grey" d="M183.71,-73.38C200.05,-67.44 328.67,-20.67 368.37,-6.23"/>
<polygon fill="grey" stroke="grey" points="369.81,-9.43 378.01,-2.72 367.41,-2.85 369.81,-9.43"/>
</g>
<!-- r14t21 -->
<g id="node98" class="node">
<title>r14t21</title>
<ellipse fill="black" stroke="black" cx="398" cy="-2" rx="1.8" ry="1.8"/>
</g>
<!-- r13t11&#45;&gt;r14t21 -->
<g id="edge83" class="edge">
<title>r13t11&#45;&gt;r14t21</title>
<path fill="none" stroke="grey" d="M220.02,-73.19C236.61,-66.56 350.54,-20.98 386.89,-6.45"/>
<polygon fill="grey" stroke="grey" points="388.23,-9.68 396.22,-2.71 385.63,-3.18 388.23,-9.68"/>
</g>
<!-- r14t22 -->
<g id="node99" class="node">
<title>r14t22</title>
<ellipse fill="black" stroke="black" cx="416" cy="-2" rx="1.8" ry="1.8"/>
</g>
<!-- r13t11&#45;&gt;r14t22 -->
<g id="edge84" class="edge">
<title>r13t11&#45;&gt;r14t22</title>
<path fill="none" stroke="grey" d="M219.71,-73.38C236.05,-67.44 364.67,-20.67 404.37,-6.23"/>
<polygon fill="grey" stroke="grey" points="405.81,-9.43 414.01,-2.72 403.41,-2.85 405.81,-9.43"/>
</g>
<!-- r14t23 -->
<g id="node100" class="node">
<title>r14t23</title>
<ellipse fill="black" stroke="black" cx="434" cy="-2" rx="1.8" ry="1.8"/>
</g>
<!-- r13t11&#45;&gt;r14t23 -->
<g id="edge85" class="edge">
<title>r13t11&#45;&gt;r14t23</title>
<path fill="none" stroke="grey" d="M219.87,-73.38C237.8,-67.4 379.83,-20.06 422.14,-5.95"/>
<polygon fill="grey" stroke="grey" points="423.45,-9.21 431.83,-2.72 421.23,-2.57 423.45,-9.21"/>
</g>
<!-- r14c -->
<g id="node76" class="node">
<title>r14c</title>
<ellipse fill="red" stroke="red" cx="2" cy="-2" rx="1.8" ry="1.8"/>
</g>
</g>
</svg>
