<?xml version="1.0" encoding="UTF-8" standalone="no"?>
<!DOCTYPE svg PUBLIC "-//W3C//DTD SVG 1.1//EN"
 "http://www.w3.org/Graphics/SVG/1.1/DTD/svg11.dtd">
<!-- Generated by graphviz version 2.43.0 (0)
 -->
<!-- Title: G Pages: 1 -->
<svg width="138pt" height="732pt"
 viewBox="0.00 0.00 138.00 732.00" xmlns="http://www.w3.org/2000/svg" xmlns:xlink="http://www.w3.org/1999/xlink">
<g id="graph0" class="graph" transform="scale(1 1) rotate(0) translate(4 728)">
<title>G</title>
<polygon fill="white" stroke="transparent" points="-4,4 -4,-728 134,-728 134,4 -4,4"/>
<!-- r0c -->
<g id="node1" class="node">
<title>r0c</title>
<ellipse fill="red" stroke="red" cx="2" cy="-722" rx="1.8" ry="1.8"/>
</g>
<!-- r3t0 -->
<g id="node5" class="node">
<title>r3t0</title>
<ellipse fill="black" stroke="black" cx="20" cy="-506" rx="1.8" ry="1.8"/>
</g>
<!-- r0c&#45;&gt;r3t0 -->
<g id="edge1" class="edge">
<title>r0c&#45;&gt;r3t0</title>
<path fill="none" stroke="grey" d="M2.16,-720.13C3.64,-702.27 15.38,-561.39 18.97,-518.41"/>
<polygon fill="grey" stroke="grey" points="22.48,-518.43 19.82,-508.17 15.5,-517.85 22.48,-518.43"/>
</g>
<!-- r1c -->
<g id="node2" class="node">
<title>r1c</title>
<ellipse fill="red" stroke="red" cx="2" cy="-650" rx="1.8" ry="1.8"/>
</g>
<!-- r10t0 -->
<g id="node25" class="node">
<title>r10t0</title>
<ellipse fill="black" stroke="black" cx="20" cy="-2" rx="1.8" ry="1.8"/>
</g>
<!-- r1c&#45;&gt;r10t0 -->
<g id="edge14" class="edge">
<title>r1c&#45;&gt;r10t0</title>
<path fill="none" stroke="grey" d="M2.05,-648.14C3.02,-613.33 17.27,-100.35 19.66,-14.23"/>
<polygon fill="grey" stroke="grey" points="23.17,-14.06 19.95,-3.97 16.17,-13.87 23.17,-14.06"/>
</g>
<!-- r10t1 -->
<g id="node26" class="node">
<title>r10t1</title>
<ellipse fill="black" stroke="black" cx="38" cy="-2" rx="1.8" ry="1.8"/>
</g>
<!-- r1c&#45;&gt;r10t1 -->
<g id="edge15" class="edge">
<title>r1c&#45;&gt;r10t1</title>
<path fill="none" stroke="grey" d="M2.1,-648.14C4.04,-613.3 32.59,-99.29 37.34,-13.96"/>
<polygon fill="grey" stroke="grey" points="40.83,-14.15 37.89,-3.97 33.84,-13.76 40.83,-14.15"/>
</g>
<!-- r10t2 -->
<g id="node27" class="node">
<title>r10t2</title>
<ellipse fill="black" stroke="black" cx="56" cy="-2" rx="1.8" ry="1.8"/>
</g>
<!-- r1c&#45;&gt;r10t2 -->
<g id="edge16" class="edge">
<title>r1c&#45;&gt;r10t2</title>
<path fill="none" stroke="grey" d="M2.15,-648.14C5.06,-613.3 47.89,-99.29 55,-13.96"/>
<polygon fill="grey" stroke="grey" points="58.49,-14.22 55.84,-3.97 51.52,-13.64 58.49,-14.22"/>
</g>
<!-- r2c -->
<g id="node3" class="node">
<title>r2c</title>
<ellipse fill="red" stroke="red" cx="2" cy="-578" rx="1.8" ry="1.8"/>
</g>
<!-- r4t0 -->
<g id="node7" class="node">
<title>r4t0</title>
<ellipse fill="black" stroke="black" cx="20" cy="-434" rx="1.8" ry="1.8"/>
</g>
<!-- r2c&#45;&gt;r4t0 -->
<g id="edge2" class="edge">
<title>r2c&#45;&gt;r4t0</title>
<path fill="none" stroke="grey" d="M2.25,-575.96C4.02,-561.85 14.48,-478.13 18.46,-446.29"/>
<polygon fill="grey" stroke="grey" points="21.96,-446.53 19.73,-436.17 15.02,-445.66 21.96,-446.53"/>
</g>
<!-- r4t1 -->
<g id="node8" class="node">
<title>r4t1</title>
<ellipse fill="black" stroke="black" cx="38" cy="-434" rx="1.8" ry="1.8"/>
</g>
<!-- r2c&#45;&gt;r4t1 -->
<g id="edge3" class="edge">
<title>r2c&#45;&gt;r4t1</title>
<path fill="none" stroke="grey" d="M2.51,-575.96C6.07,-561.73 27.32,-476.71 35.13,-445.49"/>
<polygon fill="grey" stroke="grey" points="38.53,-446.32 37.56,-435.77 31.74,-444.62 38.53,-446.32"/>
</g>
<!-- r3c -->
<g id="node4" class="node">
<title>r3c</title>
<ellipse fill="red" stroke="red" cx="2" cy="-506" rx="1.8" ry="1.8"/>
</g>
<!-- r6t0 -->
<g id="node12" class="node">
<title>r6t0</title>
<ellipse fill="black" stroke="black" cx="20" cy="-290" rx="1.8" ry="1.8"/>
</g>
<!-- r3t0&#45;&gt;r6t0 -->
<g id="edge5" class="edge">
<title>r3t0&#45;&gt;r6t0</title>
<path fill="none" stroke="grey" d="M20,-504.13C20,-486.27 20,-345.39 20,-302.41"/>
<polygon fill="grey" stroke="grey" points="23.5,-302.17 20,-292.17 16.5,-302.17 23.5,-302.17"/>
</g>
<!-- r4c -->
<g id="node6" class="node">
<title>r4c</title>
<ellipse fill="red" stroke="red" cx="2" cy="-434" rx="1.8" ry="1.8"/>
</g>
<!-- r5t0 -->
<g id="node10" class="node">
<title>r5t0</title>
<ellipse fill="black" stroke="black" cx="20" cy="-362" rx="1.8" ry="1.8"/>
</g>
<!-- r4t0&#45;&gt;r5t0 -->
<g id="edge4" class="edge">
<title>r4t0&#45;&gt;r5t0</title>
<path fill="none" stroke="grey" d="M20,-431.92C20,-423.54 20,-391.84 20,-374.14"/>
<polygon fill="grey" stroke="grey" points="23.5,-373.95 20,-363.95 16.5,-373.95 23.5,-373.95"/>
</g>
<!-- r5c -->
<g id="node9" class="node">
<title>r5c</title>
<ellipse fill="red" stroke="red" cx="2" cy="-362" rx="1.8" ry="1.8"/>
</g>
<!-- r7t0 -->
<g id="node14" class="node">
<title>r7t0</title>
<ellipse fill="black" stroke="black" cx="20" cy="-218" rx="1.8" ry="1.8"/>
</g>
<!-- r5c&#45;&gt;r7t0 -->
<g id="edge6" class="edge">
<title>r5c&#45;&gt;r7t0</title>
<path fill="none" stroke="grey" d="M2.25,-359.96C4.02,-345.85 14.48,-262.13 18.46,-230.29"/>
<polygon fill="grey" stroke="grey" points="21.96,-230.53 19.73,-220.17 15.02,-229.66 21.96,-230.53"/>
</g>
<!-- r8t0 -->
<g id="node16" class="node">
<title>r8t0</title>
<ellipse fill="black" stroke="black" cx="20" cy="-146" rx="1.8" ry="1.8"/>
</g>
<!-- r5t0&#45;&gt;r8t0 -->
<g id="edge7" class="edge">
<title>r5t0&#45;&gt;r8t0</title>
<path fill="none" stroke="grey" d="M20,-360.13C20,-342.27 20,-201.39 20,-158.41"/>
<polygon fill="grey" stroke="grey" points="23.5,-158.17 20,-148.17 16.5,-158.17 23.5,-158.17"/>
</g>
<!-- r8t1 -->
<g id="node17" class="node">
<title>r8t1</title>
<ellipse fill="black" stroke="black" cx="38" cy="-146" rx="1.8" ry="1.8"/>
</g>
<!-- r5t0&#45;&gt;r8t1 -->
<g id="edge8" class="edge">
<title>r5t0&#45;&gt;r8t1</title>
<path fill="none" stroke="grey" d="M20.16,-360.13C21.64,-342.27 33.38,-201.39 36.97,-158.41"/>
<polygon fill="grey" stroke="grey" points="40.48,-158.43 37.82,-148.17 33.5,-157.85 40.48,-158.43"/>
</g>
<!-- r6c -->
<g id="node11" class="node">
<title>r6c</title>
<ellipse fill="red" stroke="red" cx="2" cy="-290" rx="1.8" ry="1.8"/>
</g>
<!-- r7c -->
<g id="node13" class="node">
<title>r7c</title>
<ellipse fill="red" stroke="red" cx="2" cy="-218" rx="1.8" ry="1.8"/>
</g>
<!-- r8t2 -->
<g id="node18" class="node">
<title>r8t2</title>
<ellipse fill="black" stroke="black" cx="56" cy="-146" rx="1.8" ry="1.8"/>
</g>
<!-- r7c&#45;&gt;r8t2 -->
<g id="edge9" class="edge">
<title>r7c&#45;&gt;r8t2</title>
<path fill="none" stroke="grey" d="M3.13,-216.5C8.95,-208.74 35.81,-172.92 48.85,-155.53"/>
<polygon fill="grey" stroke="grey" points="51.68,-157.6 54.88,-147.5 46.08,-153.4 51.68,-157.6"/>
</g>
<!-- r8c -->
<g id="node15" class="node">
<title>r8c</title>
<ellipse fill="red" stroke="red" cx="2" cy="-146" rx="1.8" ry="1.8"/>
</g>
<!-- r9t0 -->
<g id="node20" class="node">
<title>r9t0</title>
<ellipse fill="black" stroke="black" cx="20" cy="-74" rx="1.8" ry="1.8"/>
</g>
<!-- r8t0&#45;&gt;r9t0 -->
<g id="edge10" class="edge">
<title>r8t0&#45;&gt;r9t0</title>
<path fill="none" stroke="grey" d="M20,-143.92C20,-135.54 20,-103.84 20,-86.14"/>
<polygon fill="grey" stroke="grey" points="23.5,-85.95 20,-75.95 16.5,-85.95 23.5,-85.95"/>
</g>
<!-- r9t1 -->
<g id="node21" class="node">
<title>r9t1</title>
<ellipse fill="black" stroke="black" cx="38" cy="-74" rx="1.8" ry="1.8"/>
</g>
<!-- r8t0&#45;&gt;r9t1 -->
<g id="edge11" class="edge">
<title>r8t0&#45;&gt;r9t1</title>
<path fill="none" stroke="grey" d="M20.44,-144.22C22.43,-136.27 30.59,-103.65 35.05,-85.8"/>
<polygon fill="grey" stroke="grey" points="38.47,-86.53 37.5,-75.98 31.68,-84.83 38.47,-86.53"/>
</g>
<!-- r9t2 -->
<g id="node22" class="node">
<title>r9t2</title>
<ellipse fill="black" stroke="black" cx="56" cy="-74" rx="1.8" ry="1.8"/>
</g>
<!-- r8t0&#45;&gt;r9t2 -->
<g id="edge12" class="edge">
<title>r8t0&#45;&gt;r9t2</title>
<path fill="none" stroke="grey" d="M20.89,-144.22C24.94,-136.13 41.78,-102.43 50.59,-84.82"/>
<polygon fill="grey" stroke="grey" points="53.8,-86.23 55.14,-75.72 47.54,-83.1 53.8,-86.23"/>
</g>
<!-- r9t3 -->
<g id="node23" class="node">
<title>r9t3</title>
<ellipse fill="black" stroke="black" cx="74" cy="-74" rx="1.8" ry="1.8"/>
</g>
<!-- r8t0&#45;&gt;r9t3 -->
<g id="edge13" class="edge">
<title>r8t0&#45;&gt;r9t3</title>
<path fill="none" stroke="grey" d="M21.13,-144.5C26.95,-136.74 53.81,-100.92 66.85,-83.53"/>
<polygon fill="grey" stroke="grey" points="69.68,-85.6 72.88,-75.5 64.08,-81.4 69.68,-85.6"/>
</g>
<!-- r10t3 -->
<g id="node28" class="node">
<title>r10t3</title>
<ellipse fill="black" stroke="black" cx="74" cy="-2" rx="1.8" ry="1.8"/>
</g>
<!-- r8t2&#45;&gt;r10t3 -->
<g id="edge17" class="edge">
<title>r8t2&#45;&gt;r10t3</title>
<path fill="none" stroke="grey" d="M56.25,-143.96C58.02,-129.85 68.48,-46.13 72.46,-14.29"/>
<polygon fill="grey" stroke="grey" points="75.96,-14.53 73.73,-4.17 69.02,-13.66 75.96,-14.53"/>
</g>
<!-- r9c -->
<g id="node19" class="node">
<title>r9c</title>
<ellipse fill="red" stroke="red" cx="2" cy="-74" rx="1.8" ry="1.8"/>
</g>
<!-- r10t4 -->
<g id="node29" class="node">
<title>r10t4</title>
<ellipse fill="black" stroke="black" cx="92" cy="-2" rx="1.8" ry="1.8"/>
</g>
<!-- r9t0&#45;&gt;r10t4 -->
<g id="edge18" class="edge">
<title>r9t0&#45;&gt;r10t4</title>
<path fill="none" stroke="grey" d="M21.5,-72.5C29.34,-64.66 65.76,-28.24 82.96,-11.04"/>
<polygon fill="grey" stroke="grey" points="85.91,-13.04 90.5,-3.5 80.96,-8.09 85.91,-13.04"/>
</g>
<!-- r10t5 -->
<g id="node30" class="node">
<title>r10t5</title>
<ellipse fill="black" stroke="black" cx="110" cy="-2" rx="1.8" ry="1.8"/>
</g>
<!-- r9t0&#45;&gt;r10t5 -->
<g id="edge19" class="edge">
<title>r9t0&#45;&gt;r10t5</title>
<path fill="none" stroke="grey" d="M21.56,-72.75C30.91,-65.27 79.71,-26.23 100.55,-9.56"/>
<polygon fill="grey" stroke="grey" points="102.77,-12.26 108.39,-3.28 98.4,-6.8 102.77,-12.26"/>
</g>
<!-- r10t6 -->
<g id="node31" class="node">
<title>r10t6</title>
<ellipse fill="black" stroke="black" cx="128" cy="-2" rx="1.8" ry="1.8"/>
</g>
<!-- r9t3&#45;&gt;r10t6 -->
<g id="edge20" class="edge">
<title>r9t3&#45;&gt;r10t6</title>
<path fill="none" stroke="grey" d="M75.13,-72.5C80.95,-64.74 107.81,-28.92 120.85,-11.53"/>
<polygon fill="grey" stroke="grey" points="123.68,-13.6 126.88,-3.5 118.08,-9.4 123.68,-13.6"/>
</g>
<!-- r10c -->
<g id="node24" class="node">
<title>r10c</title>
<ellipse fill="red" stroke="red" cx="2" cy="-2" rx="1.8" ry="1.8"/>
</g>
</g>
</svg>
