<?xml version="1.0" encoding="UTF-8" standalone="no"?>
<!DOCTYPE svg PUBLIC "-//W3C//DTD SVG 1.1//EN"
 "http://www.w3.org/Graphics/SVG/1.1/DTD/svg11.dtd">
<!-- Generated by graphviz version 2.43.0 (0)
 -->
<!-- Title: G Pages: 1 -->
<svg width="84pt" height="660pt"
 viewBox="0.00 0.00 84.00 660.00" xmlns="http://www.w3.org/2000/svg" xmlns:xlink="http://www.w3.org/1999/xlink">
<g id="graph0" class="graph" transform="scale(1 1) rotate(0) translate(4 656)">
<title>G</title>
<polygon fill="white" stroke="transparent" points="-4,4 -4,-656 80,-656 80,4 -4,4"/>
<!-- r0c -->
<g id="node1" class="node">
<title>r0c</title>
<ellipse fill="red" stroke="red" cx="2" cy="-650" rx="1.8" ry="1.8"/>
</g>
<!-- r3t0 -->
<g id="node5" class="node">
<title>r3t0</title>
<ellipse fill="black" stroke="black" cx="20" cy="-434" rx="1.8" ry="1.8"/>
</g>
<!-- r0c&#45;&gt;r3t0 -->
<g id="edge1" class="edge">
<title>r0c&#45;&gt;r3t0</title>
<path fill="none" stroke="grey" d="M2.16,-648.13C3.64,-630.27 15.38,-489.39 18.97,-446.41"/>
<polygon fill="grey" stroke="grey" points="22.48,-446.43 19.82,-436.17 15.5,-445.85 22.48,-446.43"/>
</g>
<!-- r1c -->
<g id="node2" class="node">
<title>r1c</title>
<ellipse fill="red" stroke="red" cx="2" cy="-578" rx="1.8" ry="1.8"/>
</g>
<!-- r2c -->
<g id="node3" class="node">
<title>r2c</title>
<ellipse fill="red" stroke="red" cx="2" cy="-506" rx="1.8" ry="1.8"/>
</g>
<!-- r4t0 -->
<g id="node7" class="node">
<title>r4t0</title>
<ellipse fill="black" stroke="black" cx="20" cy="-362" rx="1.8" ry="1.8"/>
</g>
<!-- r2c&#45;&gt;r4t0 -->
<g id="edge2" class="edge">
<title>r2c&#45;&gt;r4t0</title>
<path fill="none" stroke="grey" d="M2.25,-503.96C4.02,-489.85 14.48,-406.13 18.46,-374.29"/>
<polygon fill="grey" stroke="grey" points="21.96,-374.53 19.73,-364.17 15.02,-373.66 21.96,-374.53"/>
</g>
<!-- r4t1 -->
<g id="node8" class="node">
<title>r4t1</title>
<ellipse fill="black" stroke="black" cx="38" cy="-362" rx="1.8" ry="1.8"/>
</g>
<!-- r2c&#45;&gt;r4t1 -->
<g id="edge3" class="edge">
<title>r2c&#45;&gt;r4t1</title>
<path fill="none" stroke="grey" d="M2.51,-503.96C6.07,-489.73 27.32,-404.71 35.13,-373.49"/>
<polygon fill="grey" stroke="grey" points="38.53,-374.32 37.56,-363.77 31.74,-372.62 38.53,-374.32"/>
</g>
<!-- r3c -->
<g id="node4" class="node">
<title>r3c</title>
<ellipse fill="red" stroke="red" cx="2" cy="-434" rx="1.8" ry="1.8"/>
</g>
<!-- r6t0 -->
<g id="node12" class="node">
<title>r6t0</title>
<ellipse fill="black" stroke="black" cx="20" cy="-218" rx="1.8" ry="1.8"/>
</g>
<!-- r3t0&#45;&gt;r6t0 -->
<g id="edge5" class="edge">
<title>r3t0&#45;&gt;r6t0</title>
<path fill="none" stroke="grey" d="M20,-432.13C20,-414.27 20,-273.39 20,-230.41"/>
<polygon fill="grey" stroke="grey" points="23.5,-230.17 20,-220.17 16.5,-230.17 23.5,-230.17"/>
</g>
<!-- r4c -->
<g id="node6" class="node">
<title>r4c</title>
<ellipse fill="red" stroke="red" cx="2" cy="-362" rx="1.8" ry="1.8"/>
</g>
<!-- r5t0 -->
<g id="node10" class="node">
<title>r5t0</title>
<ellipse fill="black" stroke="black" cx="20" cy="-290" rx="1.8" ry="1.8"/>
</g>
<!-- r4t0&#45;&gt;r5t0 -->
<g id="edge4" class="edge">
<title>r4t0&#45;&gt;r5t0</title>
<path fill="none" stroke="grey" d="M20,-359.92C20,-351.54 20,-319.84 20,-302.14"/>
<polygon fill="grey" stroke="grey" points="23.5,-301.95 20,-291.95 16.5,-301.95 23.5,-301.95"/>
</g>
<!-- r5c -->
<g id="node9" class="node">
<title>r5c</title>
<ellipse fill="red" stroke="red" cx="2" cy="-290" rx="1.8" ry="1.8"/>
</g>
<!-- r7t0 -->
<g id="node14" class="node">
<title>r7t0</title>
<ellipse fill="black" stroke="black" cx="20" cy="-146" rx="1.8" ry="1.8"/>
</g>
<!-- r5c&#45;&gt;r7t0 -->
<g id="edge6" class="edge">
<title>r5c&#45;&gt;r7t0</title>
<path fill="none" stroke="grey" d="M2.25,-287.96C4.02,-273.85 14.48,-190.13 18.46,-158.29"/>
<polygon fill="grey" stroke="grey" points="21.96,-158.53 19.73,-148.17 15.02,-157.66 21.96,-158.53"/>
</g>
<!-- r8t0 -->
<g id="node16" class="node">
<title>r8t0</title>
<ellipse fill="black" stroke="black" cx="20" cy="-74" rx="1.8" ry="1.8"/>
</g>
<!-- r5t0&#45;&gt;r8t0 -->
<g id="edge7" class="edge">
<title>r5t0&#45;&gt;r8t0</title>
<path fill="none" stroke="grey" d="M20,-288.13C20,-270.27 20,-129.39 20,-86.41"/>
<polygon fill="grey" stroke="grey" points="23.5,-86.17 20,-76.17 16.5,-86.17 23.5,-86.17"/>
</g>
<!-- r8t1 -->
<g id="node17" class="node">
<title>r8t1</title>
<ellipse fill="black" stroke="black" cx="38" cy="-74" rx="1.8" ry="1.8"/>
</g>
<!-- r5t0&#45;&gt;r8t1 -->
<g id="edge8" class="edge">
<title>r5t0&#45;&gt;r8t1</title>
<path fill="none" stroke="grey" d="M20.16,-288.13C21.64,-270.27 33.38,-129.39 36.97,-86.41"/>
<polygon fill="grey" stroke="grey" points="40.48,-86.43 37.82,-76.17 33.5,-85.85 40.48,-86.43"/>
</g>
<!-- r6c -->
<g id="node11" class="node">
<title>r6c</title>
<ellipse fill="red" stroke="red" cx="2" cy="-218" rx="1.8" ry="1.8"/>
</g>
<!-- r7c -->
<g id="node13" class="node">
<title>r7c</title>
<ellipse fill="red" stroke="red" cx="2" cy="-146" rx="1.8" ry="1.8"/>
</g>
<!-- r8t2 -->
<g id="node18" class="node">
<title>r8t2</title>
<ellipse fill="black" stroke="black" cx="56" cy="-74" rx="1.8" ry="1.8"/>
</g>
<!-- r7c&#45;&gt;r8t2 -->
<g id="edge9" class="edge">
<title>r7c&#45;&gt;r8t2</title>
<path fill="none" stroke="grey" d="M3.13,-144.5C8.95,-136.74 35.81,-100.92 48.85,-83.53"/>
<polygon fill="grey" stroke="grey" points="51.68,-85.6 54.88,-75.5 46.08,-81.4 51.68,-85.6"/>
</g>
<!-- r8c -->
<g id="node15" class="node">
<title>r8c</title>
<ellipse fill="red" stroke="red" cx="2" cy="-74" rx="1.8" ry="1.8"/>
</g>
<!-- r9t0 -->
<g id="node20" class="node">
<title>r9t0</title>
<ellipse fill="black" stroke="black" cx="20" cy="-2" rx="1.8" ry="1.8"/>
</g>
<!-- r8t0&#45;&gt;r9t0 -->
<g id="edge10" class="edge">
<title>r8t0&#45;&gt;r9t0</title>
<path fill="none" stroke="grey" d="M20,-71.92C20,-63.54 20,-31.84 20,-14.14"/>
<polygon fill="grey" stroke="grey" points="23.5,-13.95 20,-3.95 16.5,-13.95 23.5,-13.95"/>
</g>
<!-- r9t1 -->
<g id="node21" class="node">
<title>r9t1</title>
<ellipse fill="black" stroke="black" cx="38" cy="-2" rx="1.8" ry="1.8"/>
</g>
<!-- r8t0&#45;&gt;r9t1 -->
<g id="edge11" class="edge">
<title>r8t0&#45;&gt;r9t1</title>
<path fill="none" stroke="grey" d="M20.44,-72.22C22.43,-64.27 30.59,-31.65 35.05,-13.8"/>
<polygon fill="grey" stroke="grey" points="38.47,-14.53 37.5,-3.98 31.68,-12.83 38.47,-14.53"/>
</g>
<!-- r9t2 -->
<g id="node22" class="node">
<title>r9t2</title>
<ellipse fill="black" stroke="black" cx="56" cy="-2" rx="1.8" ry="1.8"/>
</g>
<!-- r8t0&#45;&gt;r9t2 -->
<g id="edge12" class="edge">
<title>r8t0&#45;&gt;r9t2</title>
<path fill="none" stroke="grey" d="M20.89,-72.22C24.94,-64.13 41.78,-30.43 50.59,-12.82"/>
<polygon fill="grey" stroke="grey" points="53.8,-14.23 55.14,-3.72 47.54,-11.1 53.8,-14.23"/>
</g>
<!-- r9t3 -->
<g id="node23" class="node">
<title>r9t3</title>
<ellipse fill="black" stroke="black" cx="74" cy="-2" rx="1.8" ry="1.8"/>
</g>
<!-- r8t0&#45;&gt;r9t3 -->
<g id="edge13" class="edge">
<title>r8t0&#45;&gt;r9t3</title>
<path fill="none" stroke="grey" d="M21.13,-72.5C26.95,-64.74 53.81,-28.92 66.85,-11.53"/>
<polygon fill="grey" stroke="grey" points="69.68,-13.6 72.88,-3.5 64.08,-9.4 69.68,-13.6"/>
</g>
<!-- r9c -->
<g id="node19" class="node">
<title>r9c</title>
<ellipse fill="red" stroke="red" cx="2" cy="-2" rx="1.8" ry="1.8"/>
</g>
</g>
</svg>
