<?xml version="1.0" encoding="UTF-8" standalone="no"?>
<!DOCTYPE svg PUBLIC "-//W3C//DTD SVG 1.1//EN"
 "http://www.w3.org/Graphics/SVG/1.1/DTD/svg11.dtd">
<!-- Generated by graphviz version 2.43.0 (0)
 -->
<!-- Title: G Pages: 1 -->
<svg width="66pt" height="588pt"
 viewBox="0.00 0.00 66.00 588.00" xmlns="http://www.w3.org/2000/svg" xmlns:xlink="http://www.w3.org/1999/xlink">
<g id="graph0" class="graph" transform="scale(1 1) rotate(0) translate(4 584)">
<title>G</title>
<polygon fill="white" stroke="transparent" points="-4,4 -4,-584 62,-584 62,4 -4,4"/>
<!-- r0c -->
<g id="node1" class="node">
<title>r0c</title>
<ellipse fill="red" stroke="red" cx="2" cy="-578" rx="1.8" ry="1.8"/>
</g>
<!-- r3t0 -->
<g id="node5" class="node">
<title>r3t0</title>
<ellipse fill="black" stroke="black" cx="20" cy="-362" rx="1.8" ry="1.8"/>
</g>
<!-- r0c&#45;&gt;r3t0 -->
<g id="edge1" class="edge">
<title>r0c&#45;&gt;r3t0</title>
<path fill="none" stroke="grey" d="M2.16,-576.13C3.64,-558.27 15.38,-417.39 18.97,-374.41"/>
<polygon fill="grey" stroke="grey" points="22.48,-374.43 19.82,-364.17 15.5,-373.85 22.48,-374.43"/>
</g>
<!-- r1c -->
<g id="node2" class="node">
<title>r1c</title>
<ellipse fill="red" stroke="red" cx="2" cy="-506" rx="1.8" ry="1.8"/>
</g>
<!-- r2c -->
<g id="node3" class="node">
<title>r2c</title>
<ellipse fill="red" stroke="red" cx="2" cy="-434" rx="1.8" ry="1.8"/>
</g>
<!-- r4t0 -->
<g id="node7" class="node">
<title>r4t0</title>
<ellipse fill="black" stroke="black" cx="20" cy="-290" rx="1.8" ry="1.8"/>
</g>
<!-- r2c&#45;&gt;r4t0 -->
<g id="edge2" class="edge">
<title>r2c&#45;&gt;r4t0</title>
<path fill="none" stroke="grey" d="M2.25,-431.96C4.02,-417.85 14.48,-334.13 18.46,-302.29"/>
<polygon fill="grey" stroke="grey" points="21.96,-302.53 19.73,-292.17 15.02,-301.66 21.96,-302.53"/>
</g>
<!-- r4t1 -->
<g id="node8" class="node">
<title>r4t1</title>
<ellipse fill="black" stroke="black" cx="38" cy="-290" rx="1.8" ry="1.8"/>
</g>
<!-- r2c&#45;&gt;r4t1 -->
<g id="edge3" class="edge">
<title>r2c&#45;&gt;r4t1</title>
<path fill="none" stroke="grey" d="M2.51,-431.96C6.07,-417.73 27.32,-332.71 35.13,-301.49"/>
<polygon fill="grey" stroke="grey" points="38.53,-302.32 37.56,-291.77 31.74,-300.62 38.53,-302.32"/>
</g>
<!-- r3c -->
<g id="node4" class="node">
<title>r3c</title>
<ellipse fill="red" stroke="red" cx="2" cy="-362" rx="1.8" ry="1.8"/>
</g>
<!-- r6t0 -->
<g id="node12" class="node">
<title>r6t0</title>
<ellipse fill="black" stroke="black" cx="20" cy="-146" rx="1.8" ry="1.8"/>
</g>
<!-- r3t0&#45;&gt;r6t0 -->
<g id="edge5" class="edge">
<title>r3t0&#45;&gt;r6t0</title>
<path fill="none" stroke="grey" d="M20,-360.13C20,-342.27 20,-201.39 20,-158.41"/>
<polygon fill="grey" stroke="grey" points="23.5,-158.17 20,-148.17 16.5,-158.17 23.5,-158.17"/>
</g>
<!-- r4c -->
<g id="node6" class="node">
<title>r4c</title>
<ellipse fill="red" stroke="red" cx="2" cy="-290" rx="1.8" ry="1.8"/>
</g>
<!-- r5t0 -->
<g id="node10" class="node">
<title>r5t0</title>
<ellipse fill="black" stroke="black" cx="20" cy="-218" rx="1.8" ry="1.8"/>
</g>
<!-- r4t0&#45;&gt;r5t0 -->
<g id="edge4" class="edge">
<title>r4t0&#45;&gt;r5t0</title>
<path fill="none" stroke="grey" d="M20,-287.92C20,-279.54 20,-247.84 20,-230.14"/>
<polygon fill="grey" stroke="grey" points="23.5,-229.95 20,-219.95 16.5,-229.95 23.5,-229.95"/>
</g>
<!-- r5c -->
<g id="node9" class="node">
<title>r5c</title>
<ellipse fill="red" stroke="red" cx="2" cy="-218" rx="1.8" ry="1.8"/>
</g>
<!-- r7t0 -->
<g id="node14" class="node">
<title>r7t0</title>
<ellipse fill="black" stroke="black" cx="20" cy="-74" rx="1.8" ry="1.8"/>
</g>
<!-- r5c&#45;&gt;r7t0 -->
<g id="edge6" class="edge">
<title>r5c&#45;&gt;r7t0</title>
<path fill="none" stroke="grey" d="M2.25,-215.96C4.02,-201.85 14.48,-118.13 18.46,-86.29"/>
<polygon fill="grey" stroke="grey" points="21.96,-86.53 19.73,-76.17 15.02,-85.66 21.96,-86.53"/>
</g>
<!-- r8t0 -->
<g id="node16" class="node">
<title>r8t0</title>
<ellipse fill="black" stroke="black" cx="20" cy="-2" rx="1.8" ry="1.8"/>
</g>
<!-- r5t0&#45;&gt;r8t0 -->
<g id="edge7" class="edge">
<title>r5t0&#45;&gt;r8t0</title>
<path fill="none" stroke="grey" d="M20,-216.13C20,-198.27 20,-57.39 20,-14.41"/>
<polygon fill="grey" stroke="grey" points="23.5,-14.17 20,-4.17 16.5,-14.17 23.5,-14.17"/>
</g>
<!-- r8t1 -->
<g id="node17" class="node">
<title>r8t1</title>
<ellipse fill="black" stroke="black" cx="38" cy="-2" rx="1.8" ry="1.8"/>
</g>
<!-- r5t0&#45;&gt;r8t1 -->
<g id="edge8" class="edge">
<title>r5t0&#45;&gt;r8t1</title>
<path fill="none" stroke="grey" d="M20.16,-216.13C21.64,-198.27 33.38,-57.39 36.97,-14.41"/>
<polygon fill="grey" stroke="grey" points="40.48,-14.43 37.82,-4.17 33.5,-13.85 40.48,-14.43"/>
</g>
<!-- r6c -->
<g id="node11" class="node">
<title>r6c</title>
<ellipse fill="red" stroke="red" cx="2" cy="-146" rx="1.8" ry="1.8"/>
</g>
<!-- r7c -->
<g id="node13" class="node">
<title>r7c</title>
<ellipse fill="red" stroke="red" cx="2" cy="-74" rx="1.8" ry="1.8"/>
</g>
<!-- r8t2 -->
<g id="node18" class="node">
<title>r8t2</title>
<ellipse fill="black" stroke="black" cx="56" cy="-2" rx="1.8" ry="1.8"/>
</g>
<!-- r7c&#45;&gt;r8t2 -->
<g id="edge9" class="edge">
<title>r7c&#45;&gt;r8t2</title>
<path fill="none" stroke="grey" d="M3.13,-72.5C8.95,-64.74 35.81,-28.92 48.85,-11.53"/>
<polygon fill="grey" stroke="grey" points="51.68,-13.6 54.88,-3.5 46.08,-9.4 51.68,-13.6"/>
</g>
<!-- r8c -->
<g id="node15" class="node">
<title>r8c</title>
<ellipse fill="red" stroke="red" cx="2" cy="-2" rx="1.8" ry="1.8"/>
</g>
</g>
</svg>
