<?xml version="1.0" encoding="UTF-8" standalone="no"?>
<!DOCTYPE svg PUBLIC "-//W3C//DTD SVG 1.1//EN"
 "http://www.w3.org/Graphics/SVG/1.1/DTD/svg11.dtd">
<!-- Generated by graphviz version 2.43.0 (0)
 -->
<!-- Title: G Pages: 1 -->
<svg width="282pt" height="948pt"
 viewBox="0.00 0.00 282.00 948.00" xmlns="http://www.w3.org/2000/svg" xmlns:xlink="http://www.w3.org/1999/xlink">
<g id="graph0" class="graph" transform="scale(1 1) rotate(0) translate(4 944)">
<title>G</title>
<polygon fill="white" stroke="transparent" points="-4,4 -4,-944 278,-944 278,4 -4,4"/>
<!-- r0c -->
<g id="node1" class="node">
<title>r0c</title>
<ellipse fill="red" stroke="red" cx="2" cy="-938" rx="1.8" ry="1.8"/>
</g>
<!-- r3t0 -->
<g id="node5" class="node">
<title>r3t0</title>
<ellipse fill="black" stroke="black" cx="20" cy="-722" rx="1.8" ry="1.8"/>
</g>
<!-- r0c&#45;&gt;r3t0 -->
<g id="edge1" class="edge">
<title>r0c&#45;&gt;r3t0</title>
<path fill="none" stroke="grey" d="M2.16,-936.13C3.64,-918.27 15.38,-777.39 18.97,-734.41"/>
<polygon fill="grey" stroke="grey" points="22.48,-734.43 19.82,-724.17 15.5,-733.85 22.48,-734.43"/>
</g>
<!-- r1c -->
<g id="node2" class="node">
<title>r1c</title>
<ellipse fill="red" stroke="red" cx="2" cy="-866" rx="1.8" ry="1.8"/>
</g>
<!-- r10t0 -->
<g id="node25" class="node">
<title>r10t0</title>
<ellipse fill="black" stroke="black" cx="20" cy="-218" rx="1.8" ry="1.8"/>
</g>
<!-- r1c&#45;&gt;r10t0 -->
<g id="edge14" class="edge">
<title>r1c&#45;&gt;r10t0</title>
<path fill="none" stroke="grey" d="M2.05,-864.14C3.02,-829.33 17.27,-316.35 19.66,-230.23"/>
<polygon fill="grey" stroke="grey" points="23.17,-230.06 19.95,-219.97 16.17,-229.87 23.17,-230.06"/>
</g>
<!-- r10t1 -->
<g id="node26" class="node">
<title>r10t1</title>
<ellipse fill="black" stroke="black" cx="38" cy="-218" rx="1.8" ry="1.8"/>
</g>
<!-- r1c&#45;&gt;r10t1 -->
<g id="edge15" class="edge">
<title>r1c&#45;&gt;r10t1</title>
<path fill="none" stroke="grey" d="M2.1,-864.14C4.04,-829.3 32.59,-315.29 37.34,-229.96"/>
<polygon fill="grey" stroke="grey" points="40.83,-230.15 37.89,-219.97 33.84,-229.76 40.83,-230.15"/>
</g>
<!-- r10t2 -->
<g id="node27" class="node">
<title>r10t2</title>
<ellipse fill="black" stroke="black" cx="56" cy="-218" rx="1.8" ry="1.8"/>
</g>
<!-- r1c&#45;&gt;r10t2 -->
<g id="edge16" class="edge">
<title>r1c&#45;&gt;r10t2</title>
<path fill="none" stroke="grey" d="M2.15,-864.14C5.06,-829.3 47.89,-315.29 55,-229.96"/>
<polygon fill="grey" stroke="grey" points="58.49,-230.22 55.84,-219.97 51.52,-229.64 58.49,-230.22"/>
</g>
<!-- r2c -->
<g id="node3" class="node">
<title>r2c</title>
<ellipse fill="red" stroke="red" cx="2" cy="-794" rx="1.8" ry="1.8"/>
</g>
<!-- r4t0 -->
<g id="node7" class="node">
<title>r4t0</title>
<ellipse fill="black" stroke="black" cx="20" cy="-650" rx="1.8" ry="1.8"/>
</g>
<!-- r2c&#45;&gt;r4t0 -->
<g id="edge2" class="edge">
<title>r2c&#45;&gt;r4t0</title>
<path fill="none" stroke="grey" d="M2.25,-791.96C4.02,-777.85 14.48,-694.13 18.46,-662.29"/>
<polygon fill="grey" stroke="grey" points="21.96,-662.53 19.73,-652.17 15.02,-661.66 21.96,-662.53"/>
</g>
<!-- r4t1 -->
<g id="node8" class="node">
<title>r4t1</title>
<ellipse fill="black" stroke="black" cx="38" cy="-650" rx="1.8" ry="1.8"/>
</g>
<!-- r2c&#45;&gt;r4t1 -->
<g id="edge3" class="edge">
<title>r2c&#45;&gt;r4t1</title>
<path fill="none" stroke="grey" d="M2.51,-791.96C6.07,-777.73 27.32,-692.71 35.13,-661.49"/>
<polygon fill="grey" stroke="grey" points="38.53,-662.32 37.56,-651.77 31.74,-660.62 38.53,-662.32"/>
</g>
<!-- r3c -->
<g id="node4" class="node">
<title>r3c</title>
<ellipse fill="red" stroke="red" cx="2" cy="-722" rx="1.8" ry="1.8"/>
</g>
<!-- r12t0 -->
<g id="node46" class="node">
<title>r12t0</title>
<ellipse fill="black" stroke="black" cx="20" cy="-74" rx="1.8" ry="1.8"/>
</g>
<!-- r3c&#45;&gt;r12t0 -->
<g id="edge33" class="edge">
<title>r3c&#45;&gt;r12t0</title>
<path fill="none" stroke="grey" d="M2.05,-720.14C3.02,-685.33 17.27,-172.35 19.66,-86.23"/>
<polygon fill="grey" stroke="grey" points="23.17,-86.06 19.95,-75.97 16.17,-85.87 23.17,-86.06"/>
</g>
<!-- r12t1 -->
<g id="node47" class="node">
<title>r12t1</title>
<ellipse fill="black" stroke="black" cx="38" cy="-74" rx="1.8" ry="1.8"/>
</g>
<!-- r3c&#45;&gt;r12t1 -->
<g id="edge34" class="edge">
<title>r3c&#45;&gt;r12t1</title>
<path fill="none" stroke="grey" d="M2.1,-720.14C4.04,-685.3 32.59,-171.29 37.34,-85.96"/>
<polygon fill="grey" stroke="grey" points="40.83,-86.15 37.89,-75.97 33.84,-85.76 40.83,-86.15"/>
</g>
<!-- r12t2 -->
<g id="node48" class="node">
<title>r12t2</title>
<ellipse fill="black" stroke="black" cx="56" cy="-74" rx="1.8" ry="1.8"/>
</g>
<!-- r3c&#45;&gt;r12t2 -->
<g id="edge35" class="edge">
<title>r3c&#45;&gt;r12t2</title>
<path fill="none" stroke="grey" d="M2.15,-720.14C5.06,-685.3 47.89,-171.29 55,-85.96"/>
<polygon fill="grey" stroke="grey" points="58.49,-86.22 55.84,-75.97 51.52,-85.64 58.49,-86.22"/>
</g>
<!-- r6t0 -->
<g id="node12" class="node">
<title>r6t0</title>
<ellipse fill="black" stroke="black" cx="20" cy="-506" rx="1.8" ry="1.8"/>
</g>
<!-- r3t0&#45;&gt;r6t0 -->
<g id="edge5" class="edge">
<title>r3t0&#45;&gt;r6t0</title>
<path fill="none" stroke="grey" d="M20,-720.13C20,-702.27 20,-561.39 20,-518.41"/>
<polygon fill="grey" stroke="grey" points="23.5,-518.17 20,-508.17 16.5,-518.17 23.5,-518.17"/>
</g>
<!-- r4c -->
<g id="node6" class="node">
<title>r4c</title>
<ellipse fill="red" stroke="red" cx="2" cy="-650" rx="1.8" ry="1.8"/>
</g>
<!-- r11t0 -->
<g id="node33" class="node">
<title>r11t0</title>
<ellipse fill="black" stroke="black" cx="20" cy="-146" rx="1.8" ry="1.8"/>
</g>
<!-- r4c&#45;&gt;r11t0 -->
<g id="edge21" class="edge">
<title>r4c&#45;&gt;r11t0</title>
<path fill="none" stroke="grey" d="M2.07,-648.18C3.13,-618.39 16.89,-233.13 19.55,-158.48"/>
<polygon fill="grey" stroke="grey" points="23.07,-158.21 19.93,-148.09 16.07,-157.96 23.07,-158.21"/>
</g>
<!-- r11t1 -->
<g id="node34" class="node">
<title>r11t1</title>
<ellipse fill="black" stroke="black" cx="38" cy="-146" rx="1.8" ry="1.8"/>
</g>
<!-- r4c&#45;&gt;r11t1 -->
<g id="edge22" class="edge">
<title>r4c&#45;&gt;r11t1</title>
<path fill="none" stroke="grey" d="M2.13,-648.18C4.26,-618.39 31.78,-233.13 37.11,-158.48"/>
<polygon fill="grey" stroke="grey" points="40.63,-158.32 37.85,-148.09 33.65,-157.82 40.63,-158.32"/>
</g>
<!-- r5t0 -->
<g id="node10" class="node">
<title>r5t0</title>
<ellipse fill="black" stroke="black" cx="20" cy="-578" rx="1.8" ry="1.8"/>
</g>
<!-- r4t0&#45;&gt;r5t0 -->
<g id="edge4" class="edge">
<title>r4t0&#45;&gt;r5t0</title>
<path fill="none" stroke="grey" d="M20,-647.92C20,-639.54 20,-607.84 20,-590.14"/>
<polygon fill="grey" stroke="grey" points="23.5,-589.95 20,-579.95 16.5,-589.95 23.5,-589.95"/>
</g>
<!-- r5c -->
<g id="node9" class="node">
<title>r5c</title>
<ellipse fill="red" stroke="red" cx="2" cy="-578" rx="1.8" ry="1.8"/>
</g>
<!-- r7t0 -->
<g id="node14" class="node">
<title>r7t0</title>
<ellipse fill="black" stroke="black" cx="20" cy="-434" rx="1.8" ry="1.8"/>
</g>
<!-- r5c&#45;&gt;r7t0 -->
<g id="edge6" class="edge">
<title>r5c&#45;&gt;r7t0</title>
<path fill="none" stroke="grey" d="M2.25,-575.96C4.02,-561.85 14.48,-478.13 18.46,-446.29"/>
<polygon fill="grey" stroke="grey" points="21.96,-446.53 19.73,-436.17 15.02,-445.66 21.96,-446.53"/>
</g>
<!-- r8t0 -->
<g id="node16" class="node">
<title>r8t0</title>
<ellipse fill="black" stroke="black" cx="20" cy="-362" rx="1.8" ry="1.8"/>
</g>
<!-- r5t0&#45;&gt;r8t0 -->
<g id="edge7" class="edge">
<title>r5t0&#45;&gt;r8t0</title>
<path fill="none" stroke="grey" d="M20,-576.13C20,-558.27 20,-417.39 20,-374.41"/>
<polygon fill="grey" stroke="grey" points="23.5,-374.17 20,-364.17 16.5,-374.17 23.5,-374.17"/>
</g>
<!-- r8t1 -->
<g id="node17" class="node">
<title>r8t1</title>
<ellipse fill="black" stroke="black" cx="38" cy="-362" rx="1.8" ry="1.8"/>
</g>
<!-- r5t0&#45;&gt;r8t1 -->
<g id="edge8" class="edge">
<title>r5t0&#45;&gt;r8t1</title>
<path fill="none" stroke="grey" d="M20.16,-576.13C21.64,-558.27 33.38,-417.39 36.97,-374.41"/>
<polygon fill="grey" stroke="grey" points="40.48,-374.43 37.82,-364.17 33.5,-373.85 40.48,-374.43"/>
</g>
<!-- r6c -->
<g id="node11" class="node">
<title>r6c</title>
<ellipse fill="red" stroke="red" cx="2" cy="-506" rx="1.8" ry="1.8"/>
</g>
<!-- r12t3 -->
<g id="node49" class="node">
<title>r12t3</title>
<ellipse fill="black" stroke="black" cx="74" cy="-74" rx="1.8" ry="1.8"/>
</g>
<!-- r6c&#45;&gt;r12t3 -->
<g id="edge36" class="edge">
<title>r6c&#45;&gt;r12t3</title>
<path fill="none" stroke="grey" d="M2.32,-504.07C6.98,-476.12 60.97,-152.18 72.03,-85.83"/>
<polygon fill="grey" stroke="grey" points="75.51,-86.22 73.7,-75.78 68.61,-85.07 75.51,-86.22"/>
</g>
<!-- r12t4 -->
<g id="node50" class="node">
<title>r12t4</title>
<ellipse fill="black" stroke="black" cx="92" cy="-74" rx="1.8" ry="1.8"/>
</g>
<!-- r6c&#45;&gt;r12t4 -->
<g id="edge37" class="edge">
<title>r6c&#45;&gt;r12t4</title>
<path fill="none" stroke="grey" d="M2.4,-504.07C8.23,-476.12 75.71,-152.18 89.54,-85.83"/>
<polygon fill="grey" stroke="grey" points="93.02,-86.28 91.63,-75.78 86.16,-84.86 93.02,-86.28"/>
</g>
<!-- r7c -->
<g id="node13" class="node">
<title>r7c</title>
<ellipse fill="red" stroke="red" cx="2" cy="-434" rx="1.8" ry="1.8"/>
</g>
<!-- r8t2 -->
<g id="node18" class="node">
<title>r8t2</title>
<ellipse fill="black" stroke="black" cx="56" cy="-362" rx="1.8" ry="1.8"/>
</g>
<!-- r7c&#45;&gt;r8t2 -->
<g id="edge9" class="edge">
<title>r7c&#45;&gt;r8t2</title>
<path fill="none" stroke="grey" d="M3.13,-432.5C8.95,-424.74 35.81,-388.92 48.85,-371.53"/>
<polygon fill="grey" stroke="grey" points="51.68,-373.6 54.88,-363.5 46.08,-369.4 51.68,-373.6"/>
</g>
<!-- r11t2 -->
<g id="node35" class="node">
<title>r11t2</title>
<ellipse fill="black" stroke="black" cx="56" cy="-146" rx="1.8" ry="1.8"/>
</g>
<!-- r7t0&#45;&gt;r11t2 -->
<g id="edge23" class="edge">
<title>r7t0&#45;&gt;r11t2</title>
<path fill="none" stroke="grey" d="M20.23,-432.16C22.9,-410.79 48.08,-209.39 54.51,-157.93"/>
<polygon fill="grey" stroke="grey" points="57.99,-158.32 55.76,-147.96 51.04,-157.45 57.99,-158.32"/>
</g>
<!-- r11t3 -->
<g id="node36" class="node">
<title>r11t3</title>
<ellipse fill="black" stroke="black" cx="74" cy="-146" rx="1.8" ry="1.8"/>
</g>
<!-- r7t0&#45;&gt;r11t3 -->
<g id="edge24" class="edge">
<title>r7t0&#45;&gt;r11t3</title>
<path fill="none" stroke="grey" d="M20.34,-432.16C24.35,-410.79 62.11,-209.39 71.76,-157.93"/>
<polygon fill="grey" stroke="grey" points="75.23,-158.43 73.63,-147.96 68.35,-157.14 75.23,-158.43"/>
</g>
<!-- r8c -->
<g id="node15" class="node">
<title>r8c</title>
<ellipse fill="red" stroke="red" cx="2" cy="-362" rx="1.8" ry="1.8"/>
</g>
<!-- r9t0 -->
<g id="node20" class="node">
<title>r9t0</title>
<ellipse fill="black" stroke="black" cx="20" cy="-290" rx="1.8" ry="1.8"/>
</g>
<!-- r8t0&#45;&gt;r9t0 -->
<g id="edge10" class="edge">
<title>r8t0&#45;&gt;r9t0</title>
<path fill="none" stroke="grey" d="M20,-359.92C20,-351.54 20,-319.84 20,-302.14"/>
<polygon fill="grey" stroke="grey" points="23.5,-301.95 20,-291.95 16.5,-301.95 23.5,-301.95"/>
</g>
<!-- r9t1 -->
<g id="node21" class="node">
<title>r9t1</title>
<ellipse fill="black" stroke="black" cx="38" cy="-290" rx="1.8" ry="1.8"/>
</g>
<!-- r8t0&#45;&gt;r9t1 -->
<g id="edge11" class="edge">
<title>r8t0&#45;&gt;r9t1</title>
<path fill="none" stroke="grey" d="M20.44,-360.22C22.43,-352.27 30.59,-319.65 35.05,-301.8"/>
<polygon fill="grey" stroke="grey" points="38.47,-302.53 37.5,-291.98 31.68,-300.83 38.47,-302.53"/>
</g>
<!-- r9t2 -->
<g id="node22" class="node">
<title>r9t2</title>
<ellipse fill="black" stroke="black" cx="56" cy="-290" rx="1.8" ry="1.8"/>
</g>
<!-- r8t0&#45;&gt;r9t2 -->
<g id="edge12" class="edge">
<title>r8t0&#45;&gt;r9t2</title>
<path fill="none" stroke="grey" d="M20.89,-360.22C24.94,-352.13 41.78,-318.43 50.59,-300.82"/>
<polygon fill="grey" stroke="grey" points="53.8,-302.23 55.14,-291.72 47.54,-299.1 53.8,-302.23"/>
</g>
<!-- r9t3 -->
<g id="node23" class="node">
<title>r9t3</title>
<ellipse fill="black" stroke="black" cx="74" cy="-290" rx="1.8" ry="1.8"/>
</g>
<!-- r8t0&#45;&gt;r9t3 -->
<g id="edge13" class="edge">
<title>r8t0&#45;&gt;r9t3</title>
<path fill="none" stroke="grey" d="M21.13,-360.5C26.95,-352.74 53.81,-316.92 66.85,-299.53"/>
<polygon fill="grey" stroke="grey" points="69.68,-301.6 72.88,-291.5 64.08,-297.4 69.68,-301.6"/>
</g>
<!-- r12t5 -->
<g id="node51" class="node">
<title>r12t5</title>
<ellipse fill="black" stroke="black" cx="110" cy="-74" rx="1.8" ry="1.8"/>
</g>
<!-- r8t1&#45;&gt;r12t5 -->
<g id="edge38" class="edge">
<title>r8t1&#45;&gt;r12t5</title>
<path fill="none" stroke="grey" d="M38.46,-360.16C43.8,-338.79 94.15,-137.39 107.02,-85.93"/>
<polygon fill="grey" stroke="grey" points="110.48,-86.51 109.51,-75.96 103.69,-84.81 110.48,-86.51"/>
</g>
<!-- r12t6 -->
<g id="node52" class="node">
<title>r12t6</title>
<ellipse fill="black" stroke="black" cx="128" cy="-74" rx="1.8" ry="1.8"/>
</g>
<!-- r8t1&#45;&gt;r12t6 -->
<g id="edge39" class="edge">
<title>r8t1&#45;&gt;r12t6</title>
<path fill="none" stroke="grey" d="M38.57,-360.16C45.27,-338.74 108.46,-136.53 124.37,-85.6"/>
<polygon fill="grey" stroke="grey" points="127.75,-86.55 127.39,-75.96 121.06,-84.46 127.75,-86.55"/>
</g>
<!-- r10t3 -->
<g id="node28" class="node">
<title>r10t3</title>
<ellipse fill="black" stroke="black" cx="74" cy="-218" rx="1.8" ry="1.8"/>
</g>
<!-- r8t2&#45;&gt;r10t3 -->
<g id="edge17" class="edge">
<title>r8t2&#45;&gt;r10t3</title>
<path fill="none" stroke="grey" d="M56.25,-359.96C58.02,-345.85 68.48,-262.13 72.46,-230.29"/>
<polygon fill="grey" stroke="grey" points="75.96,-230.53 73.73,-220.17 69.02,-229.66 75.96,-230.53"/>
</g>
<!-- r9c -->
<g id="node19" class="node">
<title>r9c</title>
<ellipse fill="red" stroke="red" cx="2" cy="-290" rx="1.8" ry="1.8"/>
</g>
<!-- r13t0 -->
<g id="node61" class="node">
<title>r13t0</title>
<ellipse fill="black" stroke="black" cx="20" cy="-2" rx="1.8" ry="1.8"/>
</g>
<!-- r9c&#45;&gt;r13t0 -->
<g id="edge47" class="edge">
<title>r9c&#45;&gt;r13t0</title>
<path fill="none" stroke="grey" d="M2.11,-288.16C3.45,-266.83 15.98,-66.25 19.23,-14.26"/>
<polygon fill="grey" stroke="grey" points="22.75,-14.16 19.88,-3.96 15.76,-13.72 22.75,-14.16"/>
</g>
<!-- r10t4 -->
<g id="node29" class="node">
<title>r10t4</title>
<ellipse fill="black" stroke="black" cx="92" cy="-218" rx="1.8" ry="1.8"/>
</g>
<!-- r9t0&#45;&gt;r10t4 -->
<g id="edge18" class="edge">
<title>r9t0&#45;&gt;r10t4</title>
<path fill="none" stroke="grey" d="M21.5,-288.5C29.34,-280.66 65.76,-244.24 82.96,-227.04"/>
<polygon fill="grey" stroke="grey" points="85.91,-229.04 90.5,-219.5 80.96,-224.09 85.91,-229.04"/>
</g>
<!-- r10t5 -->
<g id="node30" class="node">
<title>r10t5</title>
<ellipse fill="black" stroke="black" cx="110" cy="-218" rx="1.8" ry="1.8"/>
</g>
<!-- r9t0&#45;&gt;r10t5 -->
<g id="edge19" class="edge">
<title>r9t0&#45;&gt;r10t5</title>
<path fill="none" stroke="grey" d="M21.56,-288.75C30.91,-281.27 79.71,-242.23 100.55,-225.56"/>
<polygon fill="grey" stroke="grey" points="102.77,-228.26 108.39,-219.28 98.4,-222.8 102.77,-228.26"/>
</g>
<!-- r11t4 -->
<g id="node37" class="node">
<title>r11t4</title>
<ellipse fill="black" stroke="black" cx="92" cy="-146" rx="1.8" ry="1.8"/>
</g>
<!-- r9t2&#45;&gt;r11t4 -->
<g id="edge25" class="edge">
<title>r9t2&#45;&gt;r11t4</title>
<path fill="none" stroke="grey" d="M56.51,-287.96C60.07,-273.73 81.32,-188.71 89.13,-157.49"/>
<polygon fill="grey" stroke="grey" points="92.53,-158.32 91.56,-147.77 85.74,-156.62 92.53,-158.32"/>
</g>
<!-- r11t5 -->
<g id="node38" class="node">
<title>r11t5</title>
<ellipse fill="black" stroke="black" cx="110" cy="-146" rx="1.8" ry="1.8"/>
</g>
<!-- r9t2&#45;&gt;r11t5 -->
<g id="edge26" class="edge">
<title>r9t2&#45;&gt;r11t5</title>
<path fill="none" stroke="grey" d="M56.76,-287.96C62.1,-273.73 93.98,-188.71 105.69,-157.49"/>
<polygon fill="grey" stroke="grey" points="109.1,-158.36 109.34,-147.77 102.55,-155.9 109.1,-158.36"/>
</g>
<!-- r11t6 -->
<g id="node39" class="node">
<title>r11t6</title>
<ellipse fill="black" stroke="black" cx="128" cy="-146" rx="1.8" ry="1.8"/>
</g>
<!-- r9t2&#45;&gt;r11t6 -->
<g id="edge27" class="edge">
<title>r9t2&#45;&gt;r11t6</title>
<path fill="none" stroke="grey" d="M56.81,-288.38C63.3,-275.4 107.09,-187.82 122.58,-156.83"/>
<polygon fill="grey" stroke="grey" points="125.76,-158.3 127.1,-147.79 119.5,-155.17 125.76,-158.3"/>
</g>
<!-- r11t7 -->
<g id="node40" class="node">
<title>r11t7</title>
<ellipse fill="black" stroke="black" cx="146" cy="-146" rx="1.8" ry="1.8"/>
</g>
<!-- r9t2&#45;&gt;r11t7 -->
<g id="edge28" class="edge">
<title>r9t2&#45;&gt;r11t7</title>
<path fill="none" stroke="grey" d="M57.01,-288.38C65.16,-275.34 120.35,-187.04 139.48,-156.43"/>
<polygon fill="grey" stroke="grey" points="142.55,-158.13 144.88,-147.79 136.61,-154.42 142.55,-158.13"/>
</g>
<!-- r10t6 -->
<g id="node31" class="node">
<title>r10t6</title>
<ellipse fill="black" stroke="black" cx="128" cy="-218" rx="1.8" ry="1.8"/>
</g>
<!-- r9t3&#45;&gt;r10t6 -->
<g id="edge20" class="edge">
<title>r9t3&#45;&gt;r10t6</title>
<path fill="none" stroke="grey" d="M75.13,-288.5C80.95,-280.74 107.81,-244.92 120.85,-227.53"/>
<polygon fill="grey" stroke="grey" points="123.68,-229.6 126.88,-219.5 118.08,-225.4 123.68,-229.6"/>
</g>
<!-- r10c -->
<g id="node24" class="node">
<title>r10c</title>
<ellipse fill="red" stroke="red" cx="2" cy="-218" rx="1.8" ry="1.8"/>
</g>
<!-- r13t1 -->
<g id="node62" class="node">
<title>r13t1</title>
<ellipse fill="black" stroke="black" cx="38" cy="-2" rx="1.8" ry="1.8"/>
</g>
<!-- r10c&#45;&gt;r13t1 -->
<g id="edge48" class="edge">
<title>r10c&#45;&gt;r13t1</title>
<path fill="none" stroke="grey" d="M2.31,-216.13C5.29,-198.23 28.87,-56.78 35.98,-14.13"/>
<polygon fill="grey" stroke="grey" points="39.45,-14.61 37.64,-4.17 32.54,-13.46 39.45,-14.61"/>
</g>
<!-- r13t2 -->
<g id="node63" class="node">
<title>r13t2</title>
<ellipse fill="black" stroke="black" cx="56" cy="-2" rx="1.8" ry="1.8"/>
</g>
<!-- r10c&#45;&gt;r13t2 -->
<g id="edge49" class="edge">
<title>r10c&#45;&gt;r13t2</title>
<path fill="none" stroke="grey" d="M2.47,-216.13C6.94,-198.23 42.3,-56.78 52.97,-14.13"/>
<polygon fill="grey" stroke="grey" points="56.43,-14.72 55.46,-4.17 49.64,-13.03 56.43,-14.72"/>
</g>
<!-- r13t3 -->
<g id="node64" class="node">
<title>r13t3</title>
<ellipse fill="black" stroke="black" cx="74" cy="-2" rx="1.8" ry="1.8"/>
</g>
<!-- r10c&#45;&gt;r13t3 -->
<g id="edge50" class="edge">
<title>r10c&#45;&gt;r13t3</title>
<path fill="none" stroke="grey" d="M2.62,-216.13C8.6,-198.2 55.94,-56.17 70.05,-13.86"/>
<polygon fill="grey" stroke="grey" points="73.43,-14.77 73.28,-4.17 66.79,-12.55 73.43,-14.77"/>
</g>
<!-- r13t4 -->
<g id="node65" class="node">
<title>r13t4</title>
<ellipse fill="black" stroke="black" cx="92" cy="-2" rx="1.8" ry="1.8"/>
</g>
<!-- r10c&#45;&gt;r13t4 -->
<g id="edge51" class="edge">
<title>r10c&#45;&gt;r13t4</title>
<path fill="none" stroke="grey" d="M2.78,-216.13C10.3,-198.09 70.16,-54.41 87.38,-13.09"/>
<polygon fill="grey" stroke="grey" points="90.69,-14.25 91.3,-3.67 84.23,-11.56 90.69,-14.25"/>
</g>
<!-- r11t8 -->
<g id="node41" class="node">
<title>r11t8</title>
<ellipse fill="black" stroke="black" cx="164" cy="-146" rx="1.8" ry="1.8"/>
</g>
<!-- r10t0&#45;&gt;r11t8 -->
<g id="edge29" class="edge">
<title>r10t0&#45;&gt;r11t8</title>
<path fill="none" stroke="grey" d="M21.62,-217.19C34.6,-210.7 122.18,-166.91 153.17,-151.42"/>
<polygon fill="grey" stroke="grey" points="154.83,-154.5 162.21,-146.9 151.7,-148.24 154.83,-154.5"/>
</g>
<!-- r11t9 -->
<g id="node42" class="node">
<title>r11t9</title>
<ellipse fill="black" stroke="black" cx="182" cy="-146" rx="1.8" ry="1.8"/>
</g>
<!-- r10t0&#45;&gt;r11t9 -->
<g id="edge30" class="edge">
<title>r10t0&#45;&gt;r11t9</title>
<path fill="none" stroke="grey" d="M21.82,-217.19C36.56,-210.64 136.71,-166.13 170.72,-151.01"/>
<polygon fill="grey" stroke="grey" points="172.26,-154.16 179.98,-146.9 169.42,-147.76 172.26,-154.16"/>
</g>
<!-- r11t10 -->
<g id="node43" class="node">
<title>r11t10</title>
<ellipse fill="black" stroke="black" cx="200" cy="-146" rx="1.8" ry="1.8"/>
</g>
<!-- r10t2&#45;&gt;r11t10 -->
<g id="edge31" class="edge">
<title>r10t2&#45;&gt;r11t10</title>
<path fill="none" stroke="grey" d="M57.62,-217.19C70.6,-210.7 158.18,-166.91 189.17,-151.42"/>
<polygon fill="grey" stroke="grey" points="190.83,-154.5 198.21,-146.9 187.7,-148.24 190.83,-154.5"/>
</g>
<!-- r11t11 -->
<g id="node44" class="node">
<title>r11t11</title>
<ellipse fill="black" stroke="black" cx="218" cy="-146" rx="1.8" ry="1.8"/>
</g>
<!-- r10t2&#45;&gt;r11t11 -->
<g id="edge32" class="edge">
<title>r10t2&#45;&gt;r11t11</title>
<path fill="none" stroke="grey" d="M57.82,-217.19C72.56,-210.64 172.71,-166.13 206.72,-151.01"/>
<polygon fill="grey" stroke="grey" points="208.26,-154.16 215.98,-146.9 205.42,-147.76 208.26,-154.16"/>
</g>
<!-- r12t7 -->
<g id="node53" class="node">
<title>r12t7</title>
<ellipse fill="black" stroke="black" cx="146" cy="-74" rx="1.8" ry="1.8"/>
</g>
<!-- r10t4&#45;&gt;r12t7 -->
<g id="edge40" class="edge">
<title>r10t4&#45;&gt;r12t7</title>
<path fill="none" stroke="grey" d="M92.76,-215.96C98.1,-201.73 129.98,-116.71 141.69,-85.49"/>
<polygon fill="grey" stroke="grey" points="145.1,-86.36 145.34,-75.77 138.55,-83.9 145.1,-86.36"/>
</g>
<!-- r12t8 -->
<g id="node54" class="node">
<title>r12t8</title>
<ellipse fill="black" stroke="black" cx="164" cy="-74" rx="1.8" ry="1.8"/>
</g>
<!-- r10t4&#45;&gt;r12t8 -->
<g id="edge41" class="edge">
<title>r10t4&#45;&gt;r12t8</title>
<path fill="none" stroke="grey" d="M92.81,-216.38C99.3,-203.4 143.09,-115.82 158.58,-84.83"/>
<polygon fill="grey" stroke="grey" points="161.76,-86.3 163.1,-75.79 155.5,-83.17 161.76,-86.3"/>
</g>
<!-- r13t5 -->
<g id="node66" class="node">
<title>r13t5</title>
<ellipse fill="black" stroke="black" cx="110" cy="-2" rx="1.8" ry="1.8"/>
</g>
<!-- r10t5&#45;&gt;r13t5 -->
<g id="edge52" class="edge">
<title>r10t5&#45;&gt;r13t5</title>
<path fill="none" stroke="grey" d="M110,-216.13C110,-198.27 110,-57.39 110,-14.41"/>
<polygon fill="grey" stroke="grey" points="113.5,-14.17 110,-4.17 106.5,-14.17 113.5,-14.17"/>
</g>
<!-- r13t6 -->
<g id="node67" class="node">
<title>r13t6</title>
<ellipse fill="black" stroke="black" cx="128" cy="-2" rx="1.8" ry="1.8"/>
</g>
<!-- r10t5&#45;&gt;r13t6 -->
<g id="edge53" class="edge">
<title>r10t5&#45;&gt;r13t6</title>
<path fill="none" stroke="grey" d="M110.16,-216.13C111.64,-198.27 123.38,-57.39 126.97,-14.41"/>
<polygon fill="grey" stroke="grey" points="130.48,-14.43 127.82,-4.17 123.5,-13.85 130.48,-14.43"/>
</g>
<!-- r11c -->
<g id="node32" class="node">
<title>r11c</title>
<ellipse fill="red" stroke="red" cx="2" cy="-146" rx="1.8" ry="1.8"/>
</g>
<!-- r12t9 -->
<g id="node55" class="node">
<title>r12t9</title>
<ellipse fill="black" stroke="black" cx="182" cy="-74" rx="1.8" ry="1.8"/>
</g>
<!-- r11c&#45;&gt;r12t9 -->
<g id="edge42" class="edge">
<title>r11c&#45;&gt;r12t9</title>
<path fill="none" stroke="grey" d="M4.02,-145.19C20.61,-138.56 134.54,-92.98 170.89,-78.45"/>
<polygon fill="grey" stroke="grey" points="172.23,-81.68 180.22,-74.71 169.63,-75.18 172.23,-81.68"/>
</g>
<!-- r12t10 -->
<g id="node56" class="node">
<title>r12t10</title>
<ellipse fill="black" stroke="black" cx="200" cy="-74" rx="1.8" ry="1.8"/>
</g>
<!-- r11c&#45;&gt;r12t10 -->
<g id="edge43" class="edge">
<title>r11c&#45;&gt;r12t10</title>
<path fill="none" stroke="grey" d="M3.71,-145.38C20.05,-139.44 148.67,-92.67 188.37,-78.23"/>
<polygon fill="grey" stroke="grey" points="189.81,-81.43 198.01,-74.72 187.41,-74.85 189.81,-81.43"/>
</g>
<!-- r12t11 -->
<g id="node57" class="node">
<title>r12t11</title>
<ellipse fill="black" stroke="black" cx="218" cy="-74" rx="1.8" ry="1.8"/>
</g>
<!-- r11t5&#45;&gt;r12t11 -->
<g id="edge44" class="edge">
<title>r11t5&#45;&gt;r12t11</title>
<path fill="none" stroke="grey" d="M111.53,-144.98C121.97,-138.02 183.23,-97.18 207.8,-80.8"/>
<polygon fill="grey" stroke="grey" points="209.99,-83.54 216.37,-75.08 206.11,-77.72 209.99,-83.54"/>
</g>
<!-- r12t12 -->
<g id="node58" class="node">
<title>r12t12</title>
<ellipse fill="black" stroke="black" cx="236" cy="-74" rx="1.8" ry="1.8"/>
</g>
<!-- r11t7&#45;&gt;r12t12 -->
<g id="edge45" class="edge">
<title>r11t7&#45;&gt;r12t12</title>
<path fill="none" stroke="grey" d="M147.56,-144.75C156.91,-137.27 205.71,-98.23 226.55,-81.56"/>
<polygon fill="grey" stroke="grey" points="228.77,-84.26 234.39,-75.28 224.4,-78.8 228.77,-84.26"/>
</g>
<!-- r12t13 -->
<g id="node59" class="node">
<title>r12t13</title>
<ellipse fill="black" stroke="black" cx="254" cy="-74" rx="1.8" ry="1.8"/>
</g>
<!-- r11t9&#45;&gt;r12t13 -->
<g id="edge46" class="edge">
<title>r11t9&#45;&gt;r12t13</title>
<path fill="none" stroke="grey" d="M183.5,-144.5C191.34,-136.66 227.76,-100.24 244.96,-83.04"/>
<polygon fill="grey" stroke="grey" points="247.91,-85.04 252.5,-75.5 242.96,-80.09 247.91,-85.04"/>
</g>
<!-- r12c -->
<g id="node45" class="node">
<title>r12c</title>
<ellipse fill="red" stroke="red" cx="2" cy="-74" rx="1.8" ry="1.8"/>
</g>
<!-- r13t7 -->
<g id="node68" class="node">
<title>r13t7</title>
<ellipse fill="black" stroke="black" cx="146" cy="-2" rx="1.8" ry="1.8"/>
</g>
<!-- r12t0&#45;&gt;r13t7 -->
<g id="edge54" class="edge">
<title>r12t0&#45;&gt;r13t7</title>
<path fill="none" stroke="grey" d="M21.78,-72.98C34.13,-65.92 107.38,-24.07 135.25,-8.14"/>
<polygon fill="grey" stroke="grey" points="137.16,-11.08 144.1,-3.08 133.68,-5.01 137.16,-11.08"/>
</g>
<!-- r13t8 -->
<g id="node69" class="node">
<title>r13t8</title>
<ellipse fill="black" stroke="black" cx="164" cy="-2" rx="1.8" ry="1.8"/>
</g>
<!-- r12t7&#45;&gt;r13t8 -->
<g id="edge55" class="edge">
<title>r12t7&#45;&gt;r13t8</title>
<path fill="none" stroke="grey" d="M146.44,-72.22C148.43,-64.27 156.59,-31.65 161.05,-13.8"/>
<polygon fill="grey" stroke="grey" points="164.47,-14.53 163.5,-3.98 157.68,-12.83 164.47,-14.53"/>
</g>
<!-- r13t9 -->
<g id="node70" class="node">
<title>r13t9</title>
<ellipse fill="black" stroke="black" cx="182" cy="-2" rx="1.8" ry="1.8"/>
</g>
<!-- r12t7&#45;&gt;r13t9 -->
<g id="edge56" class="edge">
<title>r12t7&#45;&gt;r13t9</title>
<path fill="none" stroke="grey" d="M146.89,-72.22C150.94,-64.13 167.78,-30.43 176.59,-12.82"/>
<polygon fill="grey" stroke="grey" points="179.8,-14.23 181.14,-3.72 173.54,-11.1 179.8,-14.23"/>
</g>
<!-- r13t10 -->
<g id="node71" class="node">
<title>r13t10</title>
<ellipse fill="black" stroke="black" cx="200" cy="-2" rx="1.8" ry="1.8"/>
</g>
<!-- r12t7&#45;&gt;r13t10 -->
<g id="edge57" class="edge">
<title>r12t7&#45;&gt;r13t10</title>
<path fill="none" stroke="grey" d="M147.13,-72.5C152.95,-64.74 179.81,-28.92 192.85,-11.53"/>
<polygon fill="grey" stroke="grey" points="195.68,-13.6 198.88,-3.5 190.08,-9.4 195.68,-13.6"/>
</g>
<!-- r13t11 -->
<g id="node72" class="node">
<title>r13t11</title>
<ellipse fill="black" stroke="black" cx="218" cy="-2" rx="1.8" ry="1.8"/>
</g>
<!-- r12t7&#45;&gt;r13t11 -->
<g id="edge58" class="edge">
<title>r12t7&#45;&gt;r13t11</title>
<path fill="none" stroke="grey" d="M147.5,-72.5C155.34,-64.66 191.76,-28.24 208.96,-11.04"/>
<polygon fill="grey" stroke="grey" points="211.91,-13.04 216.5,-3.5 206.96,-8.09 211.91,-13.04"/>
</g>
<!-- r13t12 -->
<g id="node73" class="node">
<title>r13t12</title>
<ellipse fill="black" stroke="black" cx="236" cy="-2" rx="1.8" ry="1.8"/>
</g>
<!-- r12t10&#45;&gt;r13t12 -->
<g id="edge59" class="edge">
<title>r12t10&#45;&gt;r13t12</title>
<path fill="none" stroke="grey" d="M200.89,-72.22C204.94,-64.13 221.78,-30.43 230.59,-12.82"/>
<polygon fill="grey" stroke="grey" points="233.8,-14.23 235.14,-3.72 227.54,-11.1 233.8,-14.23"/>
</g>
<!-- r13t13 -->
<g id="node74" class="node">
<title>r13t13</title>
<ellipse fill="black" stroke="black" cx="254" cy="-2" rx="1.8" ry="1.8"/>
</g>
<!-- r12t12&#45;&gt;r13t13 -->
<g id="edge60" class="edge">
<title>r12t12&#45;&gt;r13t13</title>
<path fill="none" stroke="grey" d="M236.44,-72.22C238.43,-64.27 246.59,-31.65 251.05,-13.8"/>
<polygon fill="grey" stroke="grey" points="254.47,-14.53 253.5,-3.98 247.68,-12.83 254.47,-14.53"/>
</g>
<!-- r13t14 -->
<g id="node75" class="node">
<title>r13t14</title>
<ellipse fill="black" stroke="black" cx="272" cy="-2" rx="1.8" ry="1.8"/>
</g>
<!-- r12t12&#45;&gt;r13t14 -->
<g id="edge61" class="edge">
<title>r12t12&#45;&gt;r13t14</title>
<path fill="none" stroke="grey" d="M236.89,-72.22C240.94,-64.13 257.78,-30.43 266.59,-12.82"/>
<polygon fill="grey" stroke="grey" points="269.8,-14.23 271.14,-3.72 263.54,-11.1 269.8,-14.23"/>
</g>
<!-- r13c -->
<g id="node60" class="node">
<title>r13c</title>
<ellipse fill="red" stroke="red" cx="2" cy="-2" rx="1.8" ry="1.8"/>
</g>
</g>
</svg>
