<?xml version="1.0" encoding="UTF-8" standalone="no"?>
<!DOCTYPE svg PUBLIC "-//W3C//DTD SVG 1.1//EN"
 "http://www.w3.org/Graphics/SVG/1.1/DTD/svg11.dtd">
<!-- Generated by graphviz version 2.43.0 (0)
 -->
<!-- Title: G Pages: 1 -->
<svg width="48pt" height="372pt"
 viewBox="0.00 0.00 48.00 372.00" xmlns="http://www.w3.org/2000/svg" xmlns:xlink="http://www.w3.org/1999/xlink">
<g id="graph0" class="graph" transform="scale(1 1) rotate(0) translate(4 368)">
<title>G</title>
<polygon fill="white" stroke="transparent" points="-4,4 -4,-368 44,-368 44,4 -4,4"/>
<!-- r0c -->
<g id="node1" class="node">
<title>r0c</title>
<ellipse fill="red" stroke="red" cx="2" cy="-362" rx="1.8" ry="1.8"/>
</g>
<!-- r3t0 -->
<g id="node5" class="node">
<title>r3t0</title>
<ellipse fill="black" stroke="black" cx="20" cy="-146" rx="1.8" ry="1.8"/>
</g>
<!-- r0c&#45;&gt;r3t0 -->
<g id="edge1" class="edge">
<title>r0c&#45;&gt;r3t0</title>
<path fill="none" stroke="grey" d="M2.16,-360.13C3.64,-342.27 15.38,-201.39 18.97,-158.41"/>
<polygon fill="grey" stroke="grey" points="22.48,-158.43 19.82,-148.17 15.5,-157.85 22.48,-158.43"/>
</g>
<!-- r1c -->
<g id="node2" class="node">
<title>r1c</title>
<ellipse fill="red" stroke="red" cx="2" cy="-290" rx="1.8" ry="1.8"/>
</g>
<!-- r2c -->
<g id="node3" class="node">
<title>r2c</title>
<ellipse fill="red" stroke="red" cx="2" cy="-218" rx="1.8" ry="1.8"/>
</g>
<!-- r4t0 -->
<g id="node7" class="node">
<title>r4t0</title>
<ellipse fill="black" stroke="black" cx="20" cy="-74" rx="1.8" ry="1.8"/>
</g>
<!-- r2c&#45;&gt;r4t0 -->
<g id="edge2" class="edge">
<title>r2c&#45;&gt;r4t0</title>
<path fill="none" stroke="grey" d="M2.25,-215.96C4.02,-201.85 14.48,-118.13 18.46,-86.29"/>
<polygon fill="grey" stroke="grey" points="21.96,-86.53 19.73,-76.17 15.02,-85.66 21.96,-86.53"/>
</g>
<!-- r4t1 -->
<g id="node8" class="node">
<title>r4t1</title>
<ellipse fill="black" stroke="black" cx="38" cy="-74" rx="1.8" ry="1.8"/>
</g>
<!-- r2c&#45;&gt;r4t1 -->
<g id="edge3" class="edge">
<title>r2c&#45;&gt;r4t1</title>
<path fill="none" stroke="grey" d="M2.51,-215.96C6.07,-201.73 27.32,-116.71 35.13,-85.49"/>
<polygon fill="grey" stroke="grey" points="38.53,-86.32 37.56,-75.77 31.74,-84.62 38.53,-86.32"/>
</g>
<!-- r3c -->
<g id="node4" class="node">
<title>r3c</title>
<ellipse fill="red" stroke="red" cx="2" cy="-146" rx="1.8" ry="1.8"/>
</g>
<!-- r4c -->
<g id="node6" class="node">
<title>r4c</title>
<ellipse fill="red" stroke="red" cx="2" cy="-74" rx="1.8" ry="1.8"/>
</g>
<!-- r5t0 -->
<g id="node10" class="node">
<title>r5t0</title>
<ellipse fill="black" stroke="black" cx="20" cy="-2" rx="1.8" ry="1.8"/>
</g>
<!-- r4t0&#45;&gt;r5t0 -->
<g id="edge4" class="edge">
<title>r4t0&#45;&gt;r5t0</title>
<path fill="none" stroke="grey" d="M20,-71.92C20,-63.54 20,-31.84 20,-14.14"/>
<polygon fill="grey" stroke="grey" points="23.5,-13.95 20,-3.95 16.5,-13.95 23.5,-13.95"/>
</g>
<!-- r5c -->
<g id="node9" class="node">
<title>r5c</title>
<ellipse fill="red" stroke="red" cx="2" cy="-2" rx="1.8" ry="1.8"/>
</g>
</g>
</svg>
