<?xml version="1.0" encoding="UTF-8" standalone="no"?>
<!DOCTYPE svg PUBLIC "-//W3C//DTD SVG 1.1//EN"
 "http://www.w3.org/Graphics/SVG/1.1/DTD/svg11.dtd">
<!-- Generated by graphviz version 2.43.0 (0)
 -->
<!-- Title: D Pages: 1 -->
<svg width="80pt" height="193pt"
 viewBox="0.00 0.00 80.00 193.00" xmlns="http://www.w3.org/2000/svg" xmlns:xlink="http://www.w3.org/1999/xlink">
<g id="page0,1_graph0" class="graph" transform="scale(1 1) rotate(0) translate(4 189)">
<title>D</title>
<polygon fill="white" stroke="transparent" points="-4,4 -4,-189 76,-189 76,4 -4,4"/>
<!-- stack -->
<g id="node1" class="node">
<title>stack</title>
<polygon fill="none" stroke="black" points="0,-0.5 0,-184.5 72,-184.5 72,-0.5 0,-0.5"/>
<text text-anchor="middle" x="36" y="-169.3" font-family="Helvetica,sans-Serif" font-size="14.00">n &#45;&gt;</text>
<polyline fill="none" stroke="black" points="0,-161.5 72,-161.5 "/>
<text text-anchor="middle" x="36" y="-146.3" font-family="Helvetica,sans-Serif" font-size="14.00"> </text>
<polyline fill="none" stroke="black" points="0,-138.5 72,-138.5 "/>
<text text-anchor="middle" x="36" y="-123.3" font-family="Helvetica,sans-Serif" font-size="14.00">ikey &#45;&gt;</text>
<polyline fill="none" stroke="black" points="0,-115.5 72,-115.5 "/>
<text text-anchor="middle" x="36" y="-100.3" font-family="Helvetica,sans-Serif" font-size="14.00"> </text>
<polyline fill="none" stroke="black" points="0,-92.5 72,-92.5 "/>
<text text-anchor="middle" x="36" y="-77.3" font-family="Helvetica,sans-Serif" font-size="14.00">m &#45;&gt;</text>
<polyline fill="none" stroke="black" points="0,-69.5 72,-69.5 "/>
<text text-anchor="middle" x="36" y="-54.3" font-family="Helvetica,sans-Serif" font-size="14.00"> </text>
<polyline fill="none" stroke="black" points="0,-46.5 72,-46.5 "/>
<text text-anchor="middle" x="36" y="-31.3" font-family="Helvetica,sans-Serif" font-size="14.00">isig &#45;&gt;</text>
<polyline fill="none" stroke="black" points="0,-23.5 72,-23.5 "/>
<text text-anchor="middle" x="36" y="-8.3" font-family="Helvetica,sans-Serif" font-size="14.00"> </text>
</g>
</g>
</svg>
