<?xml version="1.0" encoding="UTF-8" standalone="no"?>
<!DOCTYPE svg PUBLIC "-//W3C//DTD SVG 1.1//EN"
 "http://www.w3.org/Graphics/SVG/1.1/DTD/svg11.dtd">
<!-- Generated by graphviz version 2.43.0 (0)
 -->
<!-- Title: A Pages: 1 -->
<svg width="512pt" height="357pt"
 viewBox="0.00 0.00 512.00 357.20" xmlns="http://www.w3.org/2000/svg" xmlns:xlink="http://www.w3.org/1999/xlink">
<g id="graph0" class="graph" transform="scale(1 1) rotate(0) translate(4 353.2)">
<title>A</title>
<polygon fill="white" stroke="transparent" points="-4,4 -4,-353.2 508,-353.2 508,4 -4,4"/>
<!-- alice_0 -->
<g id="node1" class="node">
<title>alice_0</title>
<ellipse fill="black" stroke="black" cx="36" cy="-313.2" rx="36" ry="36"/>
<text text-anchor="middle" x="36" y="-309.5" font-family="Helvetica,sans-Serif" font-size="14.00" fill="white">Alice</text>
</g>
<!-- alice_end -->
<!-- alice_0&#45;&gt;alice_end -->
<g id="edge1" class="edge">
<title>alice_0&#45;&gt;alice_end</title>
<path fill="none" stroke="black" d="M36,-277.2C36,-205.79 36,-50.04 36,-14.51"/>
</g>
<!-- erc20_0 -->
<g id="node2" class="node">
<title>erc20_0</title>
<ellipse fill="black" stroke="black" cx="252" cy="-313.2" rx="36" ry="36"/>
<text text-anchor="middle" x="252" y="-309.5" font-family="Helvetica,sans-Serif" font-size="14.00" fill="white">ERC20</text>
</g>
<!-- erc20_end -->
<!-- erc20_0&#45;&gt;erc20_end -->
<g id="edge2" class="edge">
<title>erc20_0&#45;&gt;erc20_end</title>
<path fill="none" stroke="black" d="M252,-277.2C252,-205.79 252,-50.04 252,-14.51"/>
</g>
<!-- dex_0 -->
<g id="node3" class="node">
<title>dex_0</title>
<ellipse fill="black" stroke="black" cx="468" cy="-313.2" rx="36" ry="36"/>
<text text-anchor="middle" x="468" y="-309.5" font-family="Helvetica,sans-Serif" font-size="14.00" fill="white">DEX</text>
</g>
<!-- dex_end -->
<!-- dex_0&#45;&gt;dex_end -->
<g id="edge3" class="edge">
<title>dex_0&#45;&gt;dex_end</title>
<path fill="none" stroke="black" d="M468,-277.2C468,-205.79 468,-50.04 468,-14.51"/>
</g>
<!-- alice_a -->
<g id="node7" class="node">
<title>alice_a</title>
<ellipse fill="black" stroke="black" cx="36" cy="-223.2" rx="0" ry="0"/>
</g>
<!-- erc20_a -->
<g id="node13" class="node">
<title>erc20_a</title>
<ellipse fill="black" stroke="black" cx="252" cy="-223.2" rx="0" ry="0"/>
</g>
<!-- alice_a&#45;&gt;erc20_a -->
<g id="edge4" class="edge">
<title>alice_a&#45;&gt;erc20_a</title>
<path fill="none" stroke="black" d="M36.16,-223.2C41.82,-223.2 199.25,-223.2 241.6,-223.2"/>
<polygon fill="black" stroke="black" points="241.85,-226.7 251.85,-223.2 241.85,-219.7 241.85,-226.7"/>
<text text-anchor="middle" x="105.38" y="-227" font-family="Helvetica,sans-Serif" font-size="14.00">approve()</text>
</g>
<!-- alice_b -->
<g id="node8" class="node">
<title>alice_b</title>
<ellipse fill="black" stroke="black" cx="36" cy="-187.2" rx="0" ry="0"/>
</g>
<!-- alice_c -->
<g id="node9" class="node">
<title>alice_c</title>
<ellipse fill="black" stroke="black" cx="36" cy="-151.2" rx="0" ry="0"/>
</g>
<!-- dex_c -->
<g id="node21" class="node">
<title>dex_c</title>
<ellipse fill="black" stroke="black" cx="468" cy="-151.2" rx="0" ry="0"/>
</g>
<!-- alice_c&#45;&gt;dex_c -->
<g id="edge6" class="edge">
<title>alice_c&#45;&gt;dex_c</title>
<path fill="none" stroke="black" d="M36.08,-151.2C42.11,-151.2 392.46,-151.2 457.63,-151.2"/>
<polygon fill="black" stroke="black" points="457.92,-154.7 467.92,-151.2 457.92,-147.7 457.92,-154.7"/>
<text text-anchor="middle" x="181.85" y="-155" font-family="Helvetica,sans-Serif" font-size="14.00">createPool() w/ETH</text>
</g>
<!-- alice_d -->
<g id="node10" class="node">
<title>alice_d</title>
<ellipse fill="black" stroke="black" cx="36" cy="-115.2" rx="0" ry="0"/>
</g>
<!-- alice_e -->
<g id="node11" class="node">
<title>alice_e</title>
<ellipse fill="black" stroke="black" cx="36" cy="-79.2" rx="0" ry="0"/>
</g>
<!-- alice_f -->
<g id="node12" class="node">
<title>alice_f</title>
<ellipse fill="black" stroke="black" cx="36" cy="-43.2" rx="0" ry="0"/>
</g>
<!-- erc20_b -->
<g id="node14" class="node">
<title>erc20_b</title>
<ellipse fill="black" stroke="black" cx="252" cy="-187.2" rx="0" ry="0"/>
</g>
<!-- erc20_b&#45;&gt;alice_b -->
<g id="edge5" class="edge">
<title>erc20_b&#45;&gt;alice_b</title>
<path fill="none" stroke="black" d="M251.84,-187.2C246.18,-187.2 88.75,-187.2 46.4,-187.2"/>
<polygon fill="black" stroke="black" points="46.15,-183.7 36.15,-187.2 46.15,-190.7 46.15,-183.7"/>
<text text-anchor="middle" x="99.62" y="-191" font-family="Helvetica,sans-Serif" font-size="14.00">(confirmation)</text>
</g>
<!-- erc20_c -->
<g id="node15" class="node">
<title>erc20_c</title>
<ellipse fill="black" stroke="black" cx="252" cy="-151.2" rx="0" ry="0"/>
</g>
<!-- erc20_d -->
<g id="node16" class="node">
<title>erc20_d</title>
<ellipse fill="black" stroke="black" cx="252" cy="-115.2" rx="0" ry="0"/>
</g>
<!-- erc20_e -->
<g id="node17" class="node">
<title>erc20_e</title>
<ellipse fill="black" stroke="black" cx="252" cy="-79.2" rx="0" ry="0"/>
</g>
<!-- dex_e -->
<g id="node23" class="node">
<title>dex_e</title>
<ellipse fill="black" stroke="black" cx="468" cy="-79.2" rx="0" ry="0"/>
</g>
<!-- erc20_e&#45;&gt;dex_e -->
<g id="edge8" class="edge">
<title>erc20_e&#45;&gt;dex_e</title>
<path fill="none" stroke="black" stroke-dasharray="5,2" d="M252.16,-79.2C257.82,-79.2 415.25,-79.2 457.6,-79.2"/>
<polygon fill="black" stroke="black" points="457.85,-82.7 467.85,-79.2 457.85,-75.7 457.85,-82.7"/>
<text text-anchor="middle" x="305.38" y="-83" font-family="Helvetica,sans-Serif" font-size="14.00">(confirmation)</text>
</g>
<!-- erc20_f -->
<g id="node18" class="node">
<title>erc20_f</title>
<ellipse fill="black" stroke="black" cx="252" cy="-43.2" rx="0" ry="0"/>
</g>
<!-- dex_a -->
<g id="node19" class="node">
<title>dex_a</title>
<ellipse fill="black" stroke="black" cx="468" cy="-223.2" rx="0" ry="0"/>
</g>
<!-- dex_b -->
<g id="node20" class="node">
<title>dex_b</title>
<ellipse fill="black" stroke="black" cx="468" cy="-187.2" rx="0" ry="0"/>
</g>
<!-- dex_d -->
<g id="node22" class="node">
<title>dex_d</title>
<ellipse fill="black" stroke="black" cx="468" cy="-115.2" rx="0" ry="0"/>
</g>
<!-- dex_d&#45;&gt;erc20_d -->
<g id="edge7" class="edge">
<title>dex_d&#45;&gt;erc20_d</title>
<path fill="none" stroke="black" stroke-dasharray="5,2" d="M467.84,-115.2C462.18,-115.2 304.75,-115.2 262.4,-115.2"/>
<polygon fill="black" stroke="black" points="262.15,-111.7 252.15,-115.2 262.15,-118.7 262.15,-111.7"/>
<text text-anchor="middle" x="314.62" y="-119" font-family="Helvetica,sans-Serif" font-size="14.00">transferFrom()</text>
</g>
<!-- dex_f -->
<g id="node24" class="node">
<title>dex_f</title>
<ellipse fill="black" stroke="black" cx="468" cy="-43.2" rx="0" ry="0"/>
</g>
<!-- dex_f&#45;&gt;alice_f -->
<g id="edge9" class="edge">
<title>dex_f&#45;&gt;alice_f</title>
<path fill="none" stroke="black" d="M467.92,-43.2C461.89,-43.2 111.54,-43.2 46.37,-43.2"/>
<polygon fill="black" stroke="black" points="46.08,-39.7 36.08,-43.2 46.08,-46.7 46.08,-39.7"/>
<text text-anchor="middle" x="207.65" y="-47" font-family="Helvetica,sans-Serif" font-size="14.00">(confirmation)</text>
</g>
</g>
</svg>
