<?xml version="1.0" encoding="UTF-8" standalone="no"?>
<!DOCTYPE svg PUBLIC "-//W3C//DTD SVG 1.1//EN"
 "http://www.w3.org/Graphics/SVG/1.1/DTD/svg11.dtd">
<!-- Generated by graphviz version 2.43.0 (0)
 -->
<!-- Title: B Pages: 1 -->
<svg width="512pt" height="431pt"
 viewBox="0.00 0.00 512.41 430.66" xmlns="http://www.w3.org/2000/svg" xmlns:xlink="http://www.w3.org/1999/xlink">
<g id="page0,1_graph0" class="graph" transform="scale(1 1) rotate(0) translate(4 426.66)">
<title>B</title>
<polygon fill="white" stroke="transparent" points="-4,4 -4,-426.66 508.41,-426.66 508.41,4 -4,4"/>
<!-- alice_0 -->
<g id="node1" class="node">
<title>alice_0</title>
<ellipse fill="black" stroke="black" cx="36" cy="-385.2" rx="36" ry="36"/>
<text text-anchor="middle" x="36" y="-381.5" font-family="Helvetica,sans-Serif" font-size="14.00" fill="white">Alice</text>
</g>
<!-- alice_end -->
<!-- alice_0&#45;&gt;alice_end -->
<g id="edge1" class="edge">
<title>alice_0&#45;&gt;alice_end</title>
<path fill="none" stroke="black" d="M36,-348.96C36,-263.95 36,-55.83 36,-14.43"/>
</g>
<!-- erc721_0 -->
<g id="node2" class="node">
<title>erc721_0</title>
<ellipse fill="black" stroke="black" cx="252" cy="-385.2" rx="37.43" ry="37.43"/>
<text text-anchor="middle" x="252" y="-381.5" font-family="Helvetica,sans-Serif" font-size="14.00" fill="white">ERC721</text>
</g>
<!-- erc721_end -->
<!-- erc721_0&#45;&gt;erc721_end -->
<g id="edge2" class="edge">
<title>erc721_0&#45;&gt;erc721_end</title>
<path fill="none" stroke="black" d="M252,-347.57C252,-261.86 252,-56.28 252,-14.63"/>
</g>
<!-- auction_0 -->
<g id="node3" class="node">
<title>auction_0</title>
<ellipse fill="black" stroke="black" cx="468" cy="-385.2" rx="36.32" ry="36.32"/>
<text text-anchor="middle" x="468" y="-381.5" font-family="Helvetica,sans-Serif" font-size="14.00" fill="white">Auction</text>
</g>
<!-- auction_end -->
<!-- auction_0&#45;&gt;auction_end -->
<g id="edge3" class="edge">
<title>auction_0&#45;&gt;auction_end</title>
<path fill="none" stroke="black" d="M468,-348.61C468,-263.38 468,-55.72 468,-14.41"/>
</g>
<!-- alice_a -->
<g id="node7" class="node">
<title>alice_a</title>
<ellipse fill="black" stroke="black" cx="36" cy="-295.2" rx="0" ry="0"/>
</g>
<!-- erc721_a -->
<g id="node15" class="node">
<title>erc721_a</title>
<ellipse fill="black" stroke="black" cx="252" cy="-295.2" rx="0" ry="0"/>
</g>
<!-- alice_a&#45;&gt;erc721_a -->
<g id="edge4" class="edge">
<title>alice_a&#45;&gt;erc721_a</title>
<path fill="none" stroke="black" d="M36.16,-295.2C41.82,-295.2 199.25,-295.2 241.6,-295.2"/>
<polygon fill="black" stroke="black" points="241.85,-298.7 251.85,-295.2 241.85,-291.7 241.85,-298.7"/>
<text text-anchor="middle" x="89.38" y="-299" font-family="Helvetica,sans-Serif" font-size="14.00">mintWithURI()</text>
</g>
<!-- alice_b -->
<g id="node8" class="node">
<title>alice_b</title>
<ellipse fill="black" stroke="black" cx="36" cy="-259.2" rx="0" ry="0"/>
</g>
<!-- alice_c -->
<g id="node9" class="node">
<title>alice_c</title>
<ellipse fill="black" stroke="black" cx="36" cy="-223.2" rx="0" ry="0"/>
</g>
<!-- erc721_c -->
<g id="node17" class="node">
<title>erc721_c</title>
<ellipse fill="black" stroke="black" cx="252" cy="-223.2" rx="0" ry="0"/>
</g>
<!-- alice_c&#45;&gt;erc721_c -->
<g id="edge6" class="edge">
<title>alice_c&#45;&gt;erc721_c</title>
<path fill="none" stroke="black" d="M36.16,-223.2C41.82,-223.2 199.25,-223.2 241.6,-223.2"/>
<polygon fill="black" stroke="black" points="241.85,-226.7 251.85,-223.2 241.85,-219.7 241.85,-226.7"/>
<text text-anchor="middle" x="105.38" y="-227" font-family="Helvetica,sans-Serif" font-size="14.00">approve()</text>
</g>
<!-- alice_d -->
<g id="node10" class="node">
<title>alice_d</title>
<ellipse fill="black" stroke="black" cx="36" cy="-187.2" rx="0" ry="0"/>
</g>
<!-- alice_e -->
<g id="node11" class="node">
<title>alice_e</title>
<ellipse fill="black" stroke="black" cx="36" cy="-151.2" rx="0" ry="0"/>
</g>
<!-- auction_e -->
<g id="node27" class="node">
<title>auction_e</title>
<ellipse fill="black" stroke="black" cx="468" cy="-151.2" rx="0" ry="0"/>
</g>
<!-- alice_e&#45;&gt;auction_e -->
<g id="edge8" class="edge">
<title>alice_e&#45;&gt;auction_e</title>
<path fill="none" stroke="black" d="M36.08,-151.2C42.11,-151.2 392.46,-151.2 457.63,-151.2"/>
<polygon fill="black" stroke="black" points="457.92,-154.7 467.92,-151.2 457.92,-147.7 457.92,-154.7"/>
<text text-anchor="middle" x="198.85" y="-155" font-family="Helvetica,sans-Serif" font-size="14.00">startAuction()</text>
</g>
<!-- alice_f -->
<g id="node12" class="node">
<title>alice_f</title>
<ellipse fill="black" stroke="black" cx="36" cy="-115.2" rx="0" ry="0"/>
</g>
<!-- alice_g -->
<g id="node13" class="node">
<title>alice_g</title>
<ellipse fill="black" stroke="black" cx="36" cy="-79.2" rx="0" ry="0"/>
</g>
<!-- alice_h -->
<g id="node14" class="node">
<title>alice_h</title>
<ellipse fill="black" stroke="black" cx="36" cy="-43.2" rx="0" ry="0"/>
</g>
<!-- erc721_b -->
<g id="node16" class="node">
<title>erc721_b</title>
<ellipse fill="black" stroke="black" cx="252" cy="-259.2" rx="0" ry="0"/>
</g>
<!-- erc721_b&#45;&gt;alice_b -->
<g id="edge5" class="edge">
<title>erc721_b&#45;&gt;alice_b</title>
<path fill="none" stroke="black" d="M251.84,-259.2C246.18,-259.2 88.75,-259.2 46.4,-259.2"/>
<polygon fill="black" stroke="black" points="46.15,-255.7 36.15,-259.2 46.15,-262.7 46.15,-255.7"/>
<text text-anchor="middle" x="94.62" y="-263" font-family="Helvetica,sans-Serif" font-size="14.00">(returns NFT id)</text>
</g>
<!-- erc721_d -->
<g id="node18" class="node">
<title>erc721_d</title>
<ellipse fill="black" stroke="black" cx="252" cy="-187.2" rx="0" ry="0"/>
</g>
<!-- erc721_d&#45;&gt;alice_d -->
<g id="edge7" class="edge">
<title>erc721_d&#45;&gt;alice_d</title>
<path fill="none" stroke="black" d="M251.84,-187.2C246.18,-187.2 88.75,-187.2 46.4,-187.2"/>
<polygon fill="black" stroke="black" points="46.15,-183.7 36.15,-187.2 46.15,-190.7 46.15,-183.7"/>
<text text-anchor="middle" x="93.12" y="-191" font-family="Helvetica,sans-Serif" font-size="14.00">(void, no revert)</text>
</g>
<!-- erc721_e -->
<g id="node19" class="node">
<title>erc721_e</title>
<ellipse fill="black" stroke="black" cx="252" cy="-151.2" rx="0" ry="0"/>
</g>
<!-- erc721_f -->
<g id="node20" class="node">
<title>erc721_f</title>
<ellipse fill="black" stroke="black" cx="252" cy="-115.2" rx="0" ry="0"/>
</g>
<!-- erc721_g -->
<g id="node21" class="node">
<title>erc721_g</title>
<ellipse fill="black" stroke="black" cx="252" cy="-79.2" rx="0" ry="0"/>
</g>
<!-- auction_g -->
<g id="node29" class="node">
<title>auction_g</title>
<ellipse fill="black" stroke="black" cx="468" cy="-79.2" rx="0" ry="0"/>
</g>
<!-- erc721_g&#45;&gt;auction_g -->
<g id="edge10" class="edge">
<title>erc721_g&#45;&gt;auction_g</title>
<path fill="none" stroke="black" stroke-dasharray="5,2" d="M252.16,-79.2C257.82,-79.2 415.25,-79.2 457.6,-79.2"/>
<polygon fill="black" stroke="black" points="457.85,-82.7 467.85,-79.2 457.85,-75.7 457.85,-82.7"/>
<text text-anchor="middle" x="298.88" y="-83" font-family="Helvetica,sans-Serif" font-size="14.00">(void, no revert)</text>
</g>
<!-- erc721_h -->
<g id="node22" class="node">
<title>erc721_h</title>
<ellipse fill="black" stroke="black" cx="252" cy="-43.2" rx="0" ry="0"/>
</g>
<!-- auction_a -->
<g id="node23" class="node">
<title>auction_a</title>
<ellipse fill="black" stroke="black" cx="468" cy="-295.2" rx="0" ry="0"/>
</g>
<!-- auction_b -->
<g id="node24" class="node">
<title>auction_b</title>
<ellipse fill="black" stroke="black" cx="468" cy="-259.2" rx="0" ry="0"/>
</g>
<!-- auction_c -->
<g id="node25" class="node">
<title>auction_c</title>
<ellipse fill="black" stroke="black" cx="468" cy="-223.2" rx="0" ry="0"/>
</g>
<!-- auction_d -->
<g id="node26" class="node">
<title>auction_d</title>
<ellipse fill="black" stroke="black" cx="468" cy="-187.2" rx="0" ry="0"/>
</g>
<!-- auction_f -->
<g id="node28" class="node">
<title>auction_f</title>
<ellipse fill="black" stroke="black" cx="468" cy="-115.2" rx="0" ry="0"/>
</g>
<!-- auction_f&#45;&gt;erc721_f -->
<g id="edge9" class="edge">
<title>auction_f&#45;&gt;erc721_f</title>
<path fill="none" stroke="black" stroke-dasharray="5,2" d="M467.84,-115.2C462.18,-115.2 304.75,-115.2 262.4,-115.2"/>
<polygon fill="black" stroke="black" points="262.15,-111.7 252.15,-115.2 262.15,-118.7 262.15,-111.7"/>
<text text-anchor="middle" x="315.12" y="-119" font-family="Helvetica,sans-Serif" font-size="14.00">transferFrom()</text>
</g>
<!-- auction_h -->
<g id="node30" class="node">
<title>auction_h</title>
<ellipse fill="black" stroke="black" cx="468" cy="-43.2" rx="0" ry="0"/>
</g>
<!-- auction_h&#45;&gt;alice_h -->
<g id="edge11" class="edge">
<title>auction_h&#45;&gt;alice_h</title>
<path fill="none" stroke="black" d="M467.92,-43.2C461.89,-43.2 111.54,-43.2 46.37,-43.2"/>
<polygon fill="black" stroke="black" points="46.08,-39.7 36.08,-43.2 46.08,-46.7 46.08,-39.7"/>
<text text-anchor="middle" x="190.65" y="-47" font-family="Helvetica,sans-Serif" font-size="14.00">(returns auction id)</text>
</g>
</g>
</svg>
