<?xml version="1.0" encoding="UTF-8" standalone="no"?>
<!DOCTYPE svg PUBLIC "-//W3C//DTD SVG 1.1//EN"
 "http://www.w3.org/Graphics/SVG/1.1/DTD/svg11.dtd">
<!-- Generated by graphviz version 2.43.0 (0)
 -->
<!-- Title: C Pages: 1 -->
<svg width="288pt" height="324pt"
 viewBox="0.00 0.00 288.04 323.66" xmlns="http://www.w3.org/2000/svg" xmlns:xlink="http://www.w3.org/1999/xlink">
<g id="page0,1_graph0" class="graph" transform="scale(1 1) rotate(0) translate(4 319.66)">
<title>C</title>
<polygon fill="white" stroke="transparent" points="-4,4 -4,-319.66 284.04,-319.66 284.04,4 -4,4"/>
<!-- null -->
<!-- 1000 -->
<g id="node2" class="node">
<title>1000</title>
<ellipse fill="none" stroke="black" cx="136.21" cy="-224.86" rx="51.4" ry="51.4"/>
<text text-anchor="middle" x="136.21" y="-221.16" font-family="Helvetica,sans-Serif" font-size="14.00">block 1000</text>
</g>
<!-- null&#45;&gt;1000 -->
<g id="edge1" class="edge">
<title>null&#45;&gt;1000</title>
<path fill="none" stroke="black" d="M136.21,-311.88C136.21,-308.79 136.21,-298.68 136.21,-286.44"/>
<polygon fill="black" stroke="black" points="139.71,-286.24 136.21,-276.24 132.71,-286.24 139.71,-286.24"/>
</g>
<!-- 1001 -->
<g id="node3" class="node">
<title>1001</title>
<ellipse fill="none" stroke="black" cx="62.21" cy="-68.83" rx="62.43" ry="62.43"/>
<text text-anchor="middle" x="62.21" y="-72.63" font-family="Helvetica,sans-Serif" font-size="14.00">block 1001</text>
<text text-anchor="middle" x="62.21" y="-57.63" font-family="Helvetica,sans-Serif" font-size="14.00">w/TX x</text>
</g>
<!-- 1000&#45;&gt;1001 -->
<g id="edge2" class="edge">
<title>1000&#45;&gt;1001</title>
<path fill="none" stroke="black" d="M114.41,-178.48C107.77,-164.66 100.35,-149.2 93.22,-134.38"/>
<polygon fill="black" stroke="black" points="96.32,-132.75 88.84,-125.25 90.01,-135.78 96.32,-132.75"/>
</g>
<!-- othera -->
<g id="node4" class="node">
<title>othera</title>
<ellipse fill="none" stroke="black" cx="211.21" cy="-68.83" rx="68.66" ry="68.66"/>
<text text-anchor="middle" x="211.21" y="-72.63" font-family="Helvetica,sans-Serif" font-size="14.00">block 1001</text>
<text text-anchor="middle" x="211.21" y="-57.63" font-family="Helvetica,sans-Serif" font-size="14.00">without TX x</text>
</g>
<!-- 1000&#45;&gt;othera -->
<g id="edge3" class="edge">
<title>1000&#45;&gt;othera</title>
<path fill="none" stroke="black" d="M158.31,-178.48C164.12,-166.55 170.52,-153.4 176.8,-140.49"/>
<polygon fill="black" stroke="black" points="180.12,-141.68 181.35,-131.16 173.83,-138.61 180.12,-141.68"/>
</g>
</g>
</svg>
