<?xml version="1.0" encoding="UTF-8" standalone="no"?>
<!DOCTYPE svg PUBLIC "-//W3C//DTD SVG 1.1//EN"
 "http://www.w3.org/Graphics/SVG/1.1/DTD/svg11.dtd">
<!-- Generated by graphviz version 2.43.0 (0)
 -->
<!-- Title: E Pages: 1 -->
<svg width="288pt" height="600pt"
 viewBox="0.00 0.00 288.04 600.45" xmlns="http://www.w3.org/2000/svg" xmlns:xlink="http://www.w3.org/1999/xlink">
<g id="page0,1_graph0" class="graph" transform="scale(1 1) rotate(0) translate(4 596.45)">
<title>E</title>
<polygon fill="white" stroke="transparent" points="-4,4 -4,-596.45 284.04,-596.45 284.04,4 -4,4"/>
<!-- null -->
<!-- 1000 -->
<g id="node2" class="node">
<title>1000</title>
<ellipse fill="none" stroke="black" cx="136.21" cy="-501.65" rx="51.4" ry="51.4"/>
<text text-anchor="middle" x="136.21" y="-497.95" font-family="Helvetica,sans-Serif" font-size="14.00">block 1000</text>
</g>
<!-- null&#45;&gt;1000 -->
<g id="edge1" class="edge">
<title>null&#45;&gt;1000</title>
<path fill="none" stroke="black" d="M136.21,-588.67C136.21,-585.58 136.21,-575.47 136.21,-563.23"/>
<polygon fill="black" stroke="black" points="139.71,-563.04 136.21,-553.04 132.71,-563.04 139.71,-563.04"/>
</g>
<!-- 1001 -->
<g id="node3" class="node">
<title>1001</title>
<ellipse fill="none" stroke="black" cx="62.21" cy="-345.62" rx="62.43" ry="62.43"/>
<text text-anchor="middle" x="62.21" y="-349.42" font-family="Helvetica,sans-Serif" font-size="14.00">block 1001</text>
<text text-anchor="middle" x="62.21" y="-334.42" font-family="Helvetica,sans-Serif" font-size="14.00">w/TX x</text>
</g>
<!-- 1000&#45;&gt;1001 -->
<g id="edge2" class="edge">
<title>1000&#45;&gt;1001</title>
<path fill="none" stroke="black" d="M114.41,-455.27C107.77,-441.45 100.35,-425.99 93.22,-411.17"/>
<polygon fill="black" stroke="black" points="96.32,-409.54 88.84,-402.04 90.01,-412.57 96.32,-409.54"/>
</g>
<!-- othera -->
<g id="node5" class="node">
<title>othera</title>
<ellipse fill="none" stroke="black" cx="211.21" cy="-345.62" rx="68.66" ry="68.66"/>
<text text-anchor="middle" x="211.21" y="-349.42" font-family="Helvetica,sans-Serif" font-size="14.00">block 1001</text>
<text text-anchor="middle" x="211.21" y="-334.42" font-family="Helvetica,sans-Serif" font-size="14.00">without TX x</text>
</g>
<!-- 1000&#45;&gt;othera -->
<g id="edge3" class="edge">
<title>1000&#45;&gt;othera</title>
<path fill="none" stroke="black" d="M158.31,-455.27C164.12,-443.34 170.52,-430.19 176.8,-417.28"/>
<polygon fill="black" stroke="black" points="180.12,-418.47 181.35,-407.95 173.83,-415.4 180.12,-418.47"/>
</g>
<!-- 1002 -->
<g id="node4" class="node">
<title>1002</title>
<ellipse fill="none" stroke="black" cx="211.21" cy="-189.59" rx="51.4" ry="51.4"/>
<text text-anchor="middle" x="211.21" y="-185.89" font-family="Helvetica,sans-Serif" font-size="14.00">block 1002</text>
</g>
<!-- 1003 -->
<g id="node6" class="node">
<title>1003</title>
<ellipse fill="none" stroke="black" cx="211.21" cy="-51.2" rx="51.4" ry="51.4"/>
<text text-anchor="middle" x="211.21" y="-47.5" font-family="Helvetica,sans-Serif" font-size="14.00">block 1003</text>
</g>
<!-- 1002&#45;&gt;1003 -->
<g id="edge5" class="edge">
<title>1002&#45;&gt;1003</title>
<path fill="none" stroke="black" d="M211.21,-138.19C211.21,-129.99 211.21,-121.42 211.21,-113"/>
<polygon fill="black" stroke="black" points="214.71,-112.85 211.21,-102.85 207.71,-112.85 214.71,-112.85"/>
</g>
<!-- othera&#45;&gt;1002 -->
<g id="edge4" class="edge">
<title>othera&#45;&gt;1002</title>
<path fill="none" stroke="black" d="M211.21,-276.61C211.21,-268.13 211.21,-259.51 211.21,-251.15"/>
<polygon fill="black" stroke="black" points="214.71,-251.12 211.21,-241.12 207.71,-251.12 214.71,-251.12"/>
</g>
</g>
</svg>
