<?xml version="1.0" encoding="UTF-8" standalone="no"?>
<!DOCTYPE svg PUBLIC "-//W3C//DTD SVG 1.1//EN"
 "http://www.w3.org/Graphics/SVG/1.1/DTD/svg11.dtd">
<!-- Generated by graphviz version 2.43.0 (0)
 -->
<!-- Title: B Pages: 1 -->
<svg width="132pt" height="310pt"
 viewBox="0.00 0.00 132.42 310.42" xmlns="http://www.w3.org/2000/svg" xmlns:xlink="http://www.w3.org/1999/xlink">
<g id="page0,1_graph0" class="graph" transform="scale(1 1) rotate(0) translate(4 306.42)">
<title>B</title>
<polygon fill="white" stroke="transparent" points="-4,4 -4,-306.42 128.42,-306.42 128.42,4 -4,4"/>
<!-- null -->
<!-- 1000 -->
<g id="node2" class="node">
<title>1000</title>
<ellipse fill="none" stroke="black" cx="62.21" cy="-211.62" rx="51.4" ry="51.4"/>
<text text-anchor="middle" x="62.21" y="-207.92" font-family="Helvetica,sans-Serif" font-size="14.00">block 1000</text>
</g>
<!-- null&#45;&gt;1000 -->
<g id="edge1" class="edge">
<title>null&#45;&gt;1000</title>
<path fill="none" stroke="black" d="M62.21,-298.64C62.21,-295.55 62.21,-285.45 62.21,-273.2"/>
<polygon fill="black" stroke="black" points="65.71,-273.01 62.21,-263.01 58.71,-273.01 65.71,-273.01"/>
</g>
<!-- 1001 -->
<g id="node3" class="node">
<title>1001</title>
<ellipse fill="none" stroke="black" cx="62.21" cy="-62.21" rx="62.43" ry="62.43"/>
<text text-anchor="middle" x="62.21" y="-66.01" font-family="Helvetica,sans-Serif" font-size="14.00">block 1001</text>
<text text-anchor="middle" x="62.21" y="-51.01" font-family="Helvetica,sans-Serif" font-size="14.00">w/TX x</text>
</g>
<!-- 1000&#45;&gt;1001 -->
<g id="edge2" class="edge">
<title>1000&#45;&gt;1001</title>
<path fill="none" stroke="black" d="M62.21,-160.3C62.21,-152.03 62.21,-143.32 62.21,-134.65"/>
<polygon fill="black" stroke="black" points="65.71,-134.52 62.21,-124.52 58.71,-134.52 65.71,-134.52"/>
</g>
</g>
</svg>
