<?xml version="1.0" encoding="UTF-8" standalone="no"?>
<!DOCTYPE svg PUBLIC "-//W3C//DTD SVG 1.1//EN"
 "http://www.w3.org/Graphics/SVG/1.1/DTD/svg11.dtd">
<!-- Generated by graphviz version 2.43.0 (0)
 -->
<!-- Title: D Pages: 1 -->
<svg width="288pt" height="462pt"
 viewBox="0.00 0.00 288.04 462.05" xmlns="http://www.w3.org/2000/svg" xmlns:xlink="http://www.w3.org/1999/xlink">
<g id="page0,1_graph0" class="graph" transform="scale(1 1) rotate(0) translate(4 458.05)">
<title>D</title>
<polygon fill="white" stroke="transparent" points="-4,4 -4,-458.05 284.04,-458.05 284.04,4 -4,4"/>
<!-- null -->
<!-- 1000 -->
<g id="node2" class="node">
<title>1000</title>
<ellipse fill="none" stroke="black" cx="136.21" cy="-363.25" rx="51.4" ry="51.4"/>
<text text-anchor="middle" x="136.21" y="-359.55" font-family="Helvetica,sans-Serif" font-size="14.00">block 1000</text>
</g>
<!-- null&#45;&gt;1000 -->
<g id="edge1" class="edge">
<title>null&#45;&gt;1000</title>
<path fill="none" stroke="black" d="M136.21,-450.27C136.21,-447.18 136.21,-437.08 136.21,-424.83"/>
<polygon fill="black" stroke="black" points="139.71,-424.64 136.21,-414.64 132.71,-424.64 139.71,-424.64"/>
</g>
<!-- 1001 -->
<g id="node3" class="node">
<title>1001</title>
<ellipse fill="none" stroke="black" cx="62.21" cy="-207.23" rx="62.43" ry="62.43"/>
<text text-anchor="middle" x="62.21" y="-211.03" font-family="Helvetica,sans-Serif" font-size="14.00">block 1001</text>
<text text-anchor="middle" x="62.21" y="-196.03" font-family="Helvetica,sans-Serif" font-size="14.00">w/TX x</text>
</g>
<!-- 1000&#45;&gt;1001 -->
<g id="edge2" class="edge">
<title>1000&#45;&gt;1001</title>
<path fill="none" stroke="black" d="M114.41,-316.87C107.77,-303.06 100.35,-287.6 93.22,-272.77"/>
<polygon fill="black" stroke="black" points="96.32,-271.14 88.84,-263.64 90.01,-274.17 96.32,-271.14"/>
</g>
<!-- othera -->
<g id="node5" class="node">
<title>othera</title>
<ellipse fill="none" stroke="black" cx="211.21" cy="-207.23" rx="68.66" ry="68.66"/>
<text text-anchor="middle" x="211.21" y="-211.03" font-family="Helvetica,sans-Serif" font-size="14.00">block 1001</text>
<text text-anchor="middle" x="211.21" y="-196.03" font-family="Helvetica,sans-Serif" font-size="14.00">without TX x</text>
</g>
<!-- 1000&#45;&gt;othera -->
<g id="edge3" class="edge">
<title>1000&#45;&gt;othera</title>
<path fill="none" stroke="black" d="M158.31,-316.87C164.12,-304.95 170.52,-291.8 176.8,-278.89"/>
<polygon fill="black" stroke="black" points="180.12,-280.07 181.35,-269.55 173.83,-277.01 180.12,-280.07"/>
</g>
<!-- 1002 -->
<g id="node4" class="node">
<title>1002</title>
<ellipse fill="none" stroke="black" cx="211.21" cy="-51.2" rx="51.4" ry="51.4"/>
<text text-anchor="middle" x="211.21" y="-47.5" font-family="Helvetica,sans-Serif" font-size="14.00">block 1002</text>
</g>
<!-- othera&#45;&gt;1002 -->
<g id="edge4" class="edge">
<title>othera&#45;&gt;1002</title>
<path fill="none" stroke="black" d="M211.21,-138.22C211.21,-129.74 211.21,-121.11 211.21,-112.76"/>
<polygon fill="black" stroke="black" points="214.71,-112.73 211.21,-102.73 207.71,-112.73 214.71,-112.73"/>
</g>
</g>
</svg>
