<?xml version="1.0" encoding="UTF-8" standalone="no"?>
<!DOCTYPE svg PUBLIC "-//W3C//DTD SVG 1.1//EN"
 "http://www.w3.org/Graphics/SVG/1.1/DTD/svg11.dtd">
<!-- Generated by graphviz version 2.43.0 (0)
 -->
<!-- Title: B Pages: 1 -->
<svg width="380pt" height="696pt"
 viewBox="0.00 0.00 379.50 695.60" xmlns="http://www.w3.org/2000/svg" xmlns:xlink="http://www.w3.org/1999/xlink">
<g id="page0,1_graph0" class="graph" transform="scale(1 1) rotate(0) translate(4 691.6)">
<title>B</title>
<polygon fill="white" stroke="transparent" points="-4,4 -4,-691.6 375.5,-691.6 375.5,4 -4,4"/>
<g id="clust1" class="cluster">
<title>clustermain</title>
<polygon fill="none" stroke="black" points="136.5,-187.2 136.5,-514.8 234.5,-514.8 234.5,-187.2 136.5,-187.2"/>
</g>
<g id="clust2" class="cluster">
<title>clustera</title>
<polygon fill="none" stroke="black" points="0,-374.4 0,-687.6 83,-687.6 83,-374.4 0,-374.4"/>
</g>
<g id="clust3" class="cluster">
<title>clusterb</title>
<polygon fill="none" stroke="black" points="0,0 0,-320.4 83,-320.4 83,0 0,0"/>
</g>
<g id="clust4" class="cluster">
<title>clusterc</title>
<polygon fill="none" stroke="black" points="288,-374.4 288,-687.6 371,-687.6 371,-374.4 288,-374.4"/>
</g>
<g id="clust5" class="cluster">
<title>clusterd</title>
<polygon fill="none" stroke="black" points="287.5,0 287.5,-320.4 371.5,-320.4 371.5,0 287.5,0"/>
</g>
<!-- titlemain -->
<g id="node1" class="node">
<title>titlemain</title>
<text text-anchor="middle" x="185.5" y="-493.1" font-family="Times,serif" font-size="14.00">Main Chain</text>
</g>
<!-- blockmain1 -->
<g id="node2" class="node">
<title>blockmain1</title>
<polygon fill="none" stroke="black" points="150.5,-455.8 150.5,-476.8 221.5,-476.8 221.5,-455.8 150.5,-455.8"/>
<text text-anchor="start" x="159.5" y="-463.6" font-family="Times,serif" font-style="italic" font-size="14.00">Block 1</text>
<polygon fill="none" stroke="black" points="150.5,-434.8 150.5,-455.8 221.5,-455.8 221.5,-434.8 150.5,-434.8"/>
<text text-anchor="start" x="154" y="-441.6" font-family="Times,serif" font-size="14.00">hash(A1)</text>
<polygon fill="none" stroke="black" points="150.5,-413.8 150.5,-434.8 221.5,-434.8 221.5,-413.8 150.5,-413.8"/>
<text text-anchor="start" x="154" y="-420.6" font-family="Times,serif" font-size="14.00">hash(B1)</text>
<polygon fill="none" stroke="black" points="150.5,-392.8 150.5,-413.8 221.5,-413.8 221.5,-392.8 150.5,-392.8"/>
<text text-anchor="start" x="154" y="-399.6" font-family="Times,serif" font-size="14.00">hash(C1)</text>
<polygon fill="none" stroke="black" points="150.5,-371.8 150.5,-392.8 221.5,-392.8 221.5,-371.8 150.5,-371.8"/>
<text text-anchor="start" x="153.5" y="-378.6" font-family="Times,serif" font-size="14.00">hash(D1)</text>
</g>
<!-- blockmain2 -->
<g id="node3" class="node">
<title>blockmain2</title>
<polygon fill="none" stroke="black" points="150.5,-340.6 150.5,-361.6 221.5,-361.6 221.5,-340.6 150.5,-340.6"/>
<text text-anchor="start" x="159.5" y="-348.4" font-family="Times,serif" font-style="italic" font-size="14.00">Block 2</text>
<polygon fill="none" stroke="black" points="150.5,-319.6 150.5,-340.6 221.5,-340.6 221.5,-319.6 150.5,-319.6"/>
<text text-anchor="start" x="154" y="-326.4" font-family="Times,serif" font-size="14.00">hash(A2)</text>
<polygon fill="none" stroke="black" points="150.5,-298.6 150.5,-319.6 221.5,-319.6 221.5,-298.6 150.5,-298.6"/>
<text text-anchor="start" x="154" y="-305.4" font-family="Times,serif" font-size="14.00">hash(B2)</text>
<polygon fill="none" stroke="black" points="150.5,-277.6 150.5,-298.6 221.5,-298.6 221.5,-277.6 150.5,-277.6"/>
<text text-anchor="start" x="154" y="-284.4" font-family="Times,serif" font-size="14.00">hash(C2)</text>
<polygon fill="none" stroke="black" points="150.5,-256.6 150.5,-277.6 221.5,-277.6 221.5,-256.6 150.5,-256.6"/>
<text text-anchor="start" x="153.5" y="-263.4" font-family="Times,serif" font-size="14.00">hash(D2)</text>
</g>
<!-- blockmain4 -->
<g id="node4" class="node">
<title>blockmain4</title>
<text text-anchor="middle" x="185.5" y="-219.5" font-family="Times,serif" font-size="14.00">...</text>
</g>
<!-- blockmain5 -->
<g id="node5" class="node">
<title>blockmain5</title>
<text text-anchor="middle" x="185.5" y="-201.5" font-family="Times,serif" font-size="14.00"> </text>
</g>
<!-- titlea -->
<g id="node6" class="node">
<title>titlea</title>
<text text-anchor="middle" x="41.5" y="-665.9" font-family="Times,serif" font-size="14.00"> Shard A </text>
</g>
<!-- blocka1 -->
<g id="node7" class="node">
<title>blocka1</title>
<polygon fill="none" stroke="black" points="12.5,-628.6 12.5,-649.6 71.5,-649.6 71.5,-628.6 12.5,-628.6"/>
<text text-anchor="start" x="15.5" y="-636.4" font-family="Times,serif" font-style="italic" font-size="14.00">Block 1</text>
<polygon fill="none" stroke="black" points="12.5,-607.6 12.5,-628.6 71.5,-628.6 71.5,-607.6 12.5,-607.6"/>
<text text-anchor="start" x="17" y="-614.4" font-family="Times,serif" font-size="14.00">header</text>
<polygon fill="none" stroke="black" points="12.5,-586.6 12.5,-607.6 71.5,-607.6 71.5,-586.6 12.5,-586.6"/>
<text text-anchor="start" x="19.5" y="-593.4" font-family="Times,serif" font-size="14.00">TXN 1</text>
<polygon fill="none" stroke="black" points="12.5,-565.6 12.5,-586.6 71.5,-586.6 71.5,-565.6 12.5,-565.6"/>
<text text-anchor="start" x="19.5" y="-572.4" font-family="Times,serif" font-size="14.00">TXN 2</text>
<polygon fill="none" stroke="black" points="12.5,-544.6 12.5,-565.6 71.5,-565.6 71.5,-544.6 12.5,-544.6"/>
<text text-anchor="start" x="19.5" y="-551.4" font-family="Times,serif" font-size="14.00">TXN 3</text>
</g>
<!-- blocka1&#45;&gt;blockmain1 -->
<g id="edge1" class="edge">
<title>blocka1:headera1&#45;&gt;blockmain1:hasha1</title>
<path fill="none" stroke="black" d="M71.5,-618.6C71.5,-618.6 129.84,-490.98 146.25,-455.09"/>
<polygon fill="black" stroke="black" points="149.53,-456.35 150.5,-445.8 143.16,-453.44 149.53,-456.35"/>
</g>
<!-- blocka2 -->
<g id="node8" class="node">
<title>blocka2</title>
<polygon fill="none" stroke="black" points="12.5,-513.4 12.5,-534.4 71.5,-534.4 71.5,-513.4 12.5,-513.4"/>
<text text-anchor="start" x="15.5" y="-521.2" font-family="Times,serif" font-style="italic" font-size="14.00">Block 2</text>
<polygon fill="none" stroke="black" points="12.5,-492.4 12.5,-513.4 71.5,-513.4 71.5,-492.4 12.5,-492.4"/>
<text text-anchor="start" x="17" y="-499.2" font-family="Times,serif" font-size="14.00">header</text>
<polygon fill="none" stroke="black" points="12.5,-471.4 12.5,-492.4 71.5,-492.4 71.5,-471.4 12.5,-471.4"/>
<text text-anchor="start" x="19.5" y="-478.2" font-family="Times,serif" font-size="14.00">TXN 1</text>
<polygon fill="none" stroke="black" points="12.5,-450.4 12.5,-471.4 71.5,-471.4 71.5,-450.4 12.5,-450.4"/>
<text text-anchor="start" x="19.5" y="-457.2" font-family="Times,serif" font-size="14.00">TXN 2</text>
<polygon fill="none" stroke="black" points="12.5,-429.4 12.5,-450.4 71.5,-450.4 71.5,-429.4 12.5,-429.4"/>
<text text-anchor="start" x="19.5" y="-436.2" font-family="Times,serif" font-size="14.00">TXN 3</text>
</g>
<!-- blocka2&#45;&gt;blockmain2 -->
<g id="edge2" class="edge">
<title>blocka2:headera2&#45;&gt;blockmain2:hasha2</title>
<path fill="none" stroke="black" d="M71.5,-503.4C71.5,-503.4 129.84,-375.78 146.25,-339.89"/>
<polygon fill="black" stroke="black" points="149.53,-341.15 150.5,-330.6 143.16,-338.24 149.53,-341.15"/>
</g>
<!-- blocka4 -->
<g id="node9" class="node">
<title>blocka4</title>
<text text-anchor="middle" x="41.5" y="-406.7" font-family="Times,serif" font-size="14.00">...</text>
</g>
<!-- blocka5 -->
<g id="node10" class="node">
<title>blocka5</title>
<text text-anchor="middle" x="41.5" y="-388.7" font-family="Times,serif" font-size="14.00"> </text>
</g>
<!-- titleb -->
<g id="node11" class="node">
<title>titleb</title>
<text text-anchor="middle" x="41.5" y="-298.7" font-family="Times,serif" font-size="14.00"> Shard B </text>
</g>
<!-- blockb1 -->
<g id="node12" class="node">
<title>blockb1</title>
<polygon fill="none" stroke="black" points="12.5,-254.2 12.5,-275.2 71.5,-275.2 71.5,-254.2 12.5,-254.2"/>
<text text-anchor="start" x="15.5" y="-262" font-family="Times,serif" font-style="italic" font-size="14.00">Block 1</text>
<polygon fill="none" stroke="black" points="12.5,-233.2 12.5,-254.2 71.5,-254.2 71.5,-233.2 12.5,-233.2"/>
<text text-anchor="start" x="17" y="-240" font-family="Times,serif" font-size="14.00">header</text>
<polygon fill="none" stroke="black" points="12.5,-212.2 12.5,-233.2 71.5,-233.2 71.5,-212.2 12.5,-212.2"/>
<text text-anchor="start" x="19.5" y="-219" font-family="Times,serif" font-size="14.00">TXN 1</text>
<polygon fill="none" stroke="black" points="12.5,-191.2 12.5,-212.2 71.5,-212.2 71.5,-191.2 12.5,-191.2"/>
<text text-anchor="start" x="19.5" y="-198" font-family="Times,serif" font-size="14.00">TXN 2</text>
<polygon fill="none" stroke="black" points="12.5,-170.2 12.5,-191.2 71.5,-191.2 71.5,-170.2 12.5,-170.2"/>
<text text-anchor="start" x="19.5" y="-177" font-family="Times,serif" font-size="14.00">TXN 3</text>
</g>
<!-- blockb1&#45;&gt;blockmain1 -->
<g id="edge3" class="edge">
<title>blockb1:headerb1&#45;&gt;blockmain1:hashb1</title>
<path fill="none" stroke="black" d="M71.5,-244.2C71.5,-244.2 129.84,-376.84 146.25,-414.14"/>
<polygon fill="black" stroke="black" points="143.27,-416.06 150.5,-423.8 149.68,-413.24 143.27,-416.06"/>
</g>
<!-- blockb2 -->
<g id="node13" class="node">
<title>blockb2</title>
<polygon fill="none" stroke="black" points="12.5,-139 12.5,-160 71.5,-160 71.5,-139 12.5,-139"/>
<text text-anchor="start" x="15.5" y="-146.8" font-family="Times,serif" font-style="italic" font-size="14.00">Block 2</text>
<polygon fill="none" stroke="black" points="12.5,-118 12.5,-139 71.5,-139 71.5,-118 12.5,-118"/>
<text text-anchor="start" x="17" y="-124.8" font-family="Times,serif" font-size="14.00">header</text>
<polygon fill="none" stroke="black" points="12.5,-97 12.5,-118 71.5,-118 71.5,-97 12.5,-97"/>
<text text-anchor="start" x="19.5" y="-103.8" font-family="Times,serif" font-size="14.00">TXN 1</text>
<polygon fill="none" stroke="black" points="12.5,-76 12.5,-97 71.5,-97 71.5,-76 12.5,-76"/>
<text text-anchor="start" x="19.5" y="-82.8" font-family="Times,serif" font-size="14.00">TXN 2</text>
<polygon fill="none" stroke="black" points="12.5,-55 12.5,-76 71.5,-76 71.5,-55 12.5,-55"/>
<text text-anchor="start" x="19.5" y="-61.8" font-family="Times,serif" font-size="14.00">TXN 3</text>
</g>
<!-- blockb2&#45;&gt;blockmain2 -->
<g id="edge4" class="edge">
<title>blockb2:headerb2&#45;&gt;blockmain2:hashb2</title>
<path fill="none" stroke="black" d="M71.5,-129C71.5,-129 129.84,-261.64 146.25,-298.94"/>
<polygon fill="black" stroke="black" points="143.27,-300.86 150.5,-308.6 149.68,-298.04 143.27,-300.86"/>
</g>
<!-- blockb4 -->
<g id="node14" class="node">
<title>blockb4</title>
<text text-anchor="middle" x="41.5" y="-32.3" font-family="Times,serif" font-size="14.00">...</text>
</g>
<!-- blockb5 -->
<g id="node15" class="node">
<title>blockb5</title>
<text text-anchor="middle" x="41.5" y="-14.3" font-family="Times,serif" font-size="14.00"> </text>
</g>
<!-- titlec -->
<g id="node16" class="node">
<title>titlec</title>
<text text-anchor="middle" x="329.5" y="-665.9" font-family="Times,serif" font-size="14.00"> Shard C </text>
</g>
<!-- blockc1 -->
<g id="node17" class="node">
<title>blockc1</title>
<polygon fill="none" stroke="black" points="300.5,-628.6 300.5,-649.6 359.5,-649.6 359.5,-628.6 300.5,-628.6"/>
<text text-anchor="start" x="303.5" y="-636.4" font-family="Times,serif" font-style="italic" font-size="14.00">Block 1</text>
<polygon fill="none" stroke="black" points="300.5,-607.6 300.5,-628.6 359.5,-628.6 359.5,-607.6 300.5,-607.6"/>
<text text-anchor="start" x="305" y="-614.4" font-family="Times,serif" font-size="14.00">header</text>
<polygon fill="none" stroke="black" points="300.5,-586.6 300.5,-607.6 359.5,-607.6 359.5,-586.6 300.5,-586.6"/>
<text text-anchor="start" x="307.5" y="-593.4" font-family="Times,serif" font-size="14.00">TXN 1</text>
<polygon fill="none" stroke="black" points="300.5,-565.6 300.5,-586.6 359.5,-586.6 359.5,-565.6 300.5,-565.6"/>
<text text-anchor="start" x="307.5" y="-572.4" font-family="Times,serif" font-size="14.00">TXN 2</text>
<polygon fill="none" stroke="black" points="300.5,-544.6 300.5,-565.6 359.5,-565.6 359.5,-544.6 300.5,-544.6"/>
<text text-anchor="start" x="307.5" y="-551.4" font-family="Times,serif" font-size="14.00">TXN 3</text>
</g>
<!-- blockc1&#45;&gt;blockmain1 -->
<g id="edge5" class="edge">
<title>blockc1:headerc1&#45;&gt;blockmain1:hashc1</title>
<path fill="none" stroke="black" d="M300.5,-618.6C300.5,-618.6 240.29,-454.11 225,-412.35"/>
<polygon fill="black" stroke="black" points="228.22,-410.99 221.5,-402.8 221.65,-413.39 228.22,-410.99"/>
</g>
<!-- blockc2 -->
<g id="node18" class="node">
<title>blockc2</title>
<polygon fill="none" stroke="black" points="300.5,-513.4 300.5,-534.4 359.5,-534.4 359.5,-513.4 300.5,-513.4"/>
<text text-anchor="start" x="303.5" y="-521.2" font-family="Times,serif" font-style="italic" font-size="14.00">Block 2</text>
<polygon fill="none" stroke="black" points="300.5,-492.4 300.5,-513.4 359.5,-513.4 359.5,-492.4 300.5,-492.4"/>
<text text-anchor="start" x="305" y="-499.2" font-family="Times,serif" font-size="14.00">header</text>
<polygon fill="none" stroke="black" points="300.5,-471.4 300.5,-492.4 359.5,-492.4 359.5,-471.4 300.5,-471.4"/>
<text text-anchor="start" x="307.5" y="-478.2" font-family="Times,serif" font-size="14.00">TXN 1</text>
<polygon fill="none" stroke="black" points="300.5,-450.4 300.5,-471.4 359.5,-471.4 359.5,-450.4 300.5,-450.4"/>
<text text-anchor="start" x="307.5" y="-457.2" font-family="Times,serif" font-size="14.00">TXN 2</text>
<polygon fill="none" stroke="black" points="300.5,-429.4 300.5,-450.4 359.5,-450.4 359.5,-429.4 300.5,-429.4"/>
<text text-anchor="start" x="307.5" y="-436.2" font-family="Times,serif" font-size="14.00">TXN 3</text>
</g>
<!-- blockc2&#45;&gt;blockmain2 -->
<g id="edge6" class="edge">
<title>blockc2:headerc2&#45;&gt;blockmain2:hashc2</title>
<path fill="none" stroke="black" d="M300.5,-503.4C300.5,-503.4 240.29,-338.91 225,-297.15"/>
<polygon fill="black" stroke="black" points="228.22,-295.79 221.5,-287.6 221.65,-298.19 228.22,-295.79"/>
</g>
<!-- blockc4 -->
<g id="node19" class="node">
<title>blockc4</title>
<text text-anchor="middle" x="329.5" y="-406.7" font-family="Times,serif" font-size="14.00">...</text>
</g>
<!-- blockc5 -->
<g id="node20" class="node">
<title>blockc5</title>
<text text-anchor="middle" x="329.5" y="-388.7" font-family="Times,serif" font-size="14.00"> </text>
</g>
<!-- titled -->
<g id="node21" class="node">
<title>titled</title>
<text text-anchor="middle" x="329.5" y="-298.7" font-family="Times,serif" font-size="14.00"> Shard D </text>
</g>
<!-- blockd1 -->
<g id="node22" class="node">
<title>blockd1</title>
<polygon fill="none" stroke="black" points="300.5,-254.2 300.5,-275.2 359.5,-275.2 359.5,-254.2 300.5,-254.2"/>
<text text-anchor="start" x="303.5" y="-262" font-family="Times,serif" font-style="italic" font-size="14.00">Block 1</text>
<polygon fill="none" stroke="black" points="300.5,-233.2 300.5,-254.2 359.5,-254.2 359.5,-233.2 300.5,-233.2"/>
<text text-anchor="start" x="305" y="-240" font-family="Times,serif" font-size="14.00">header</text>
<polygon fill="none" stroke="black" points="300.5,-212.2 300.5,-233.2 359.5,-233.2 359.5,-212.2 300.5,-212.2"/>
<text text-anchor="start" x="307.5" y="-219" font-family="Times,serif" font-size="14.00">TXN 1</text>
<polygon fill="none" stroke="black" points="300.5,-191.2 300.5,-212.2 359.5,-212.2 359.5,-191.2 300.5,-191.2"/>
<text text-anchor="start" x="307.5" y="-198" font-family="Times,serif" font-size="14.00">TXN 2</text>
<polygon fill="none" stroke="black" points="300.5,-170.2 300.5,-191.2 359.5,-191.2 359.5,-170.2 300.5,-170.2"/>
<text text-anchor="start" x="307.5" y="-177" font-family="Times,serif" font-size="14.00">TXN 3</text>
</g>
<!-- blockd1&#45;&gt;blockmain1 -->
<g id="edge7" class="edge">
<title>blockd1:headerd1&#45;&gt;blockmain1:hashd1</title>
<path fill="none" stroke="black" d="M300.5,-244.2C300.5,-244.2 244.26,-342.16 226.68,-372.77"/>
<polygon fill="black" stroke="black" points="223.44,-371.38 221.5,-381.8 229.51,-374.87 223.44,-371.38"/>
</g>
<!-- blockd2 -->
<g id="node23" class="node">
<title>blockd2</title>
<polygon fill="none" stroke="black" points="300.5,-139 300.5,-160 359.5,-160 359.5,-139 300.5,-139"/>
<text text-anchor="start" x="303.5" y="-146.8" font-family="Times,serif" font-style="italic" font-size="14.00">Block 2</text>
<polygon fill="none" stroke="black" points="300.5,-118 300.5,-139 359.5,-139 359.5,-118 300.5,-118"/>
<text text-anchor="start" x="305" y="-124.8" font-family="Times,serif" font-size="14.00">header</text>
<polygon fill="none" stroke="black" points="300.5,-97 300.5,-118 359.5,-118 359.5,-97 300.5,-97"/>
<text text-anchor="start" x="307.5" y="-103.8" font-family="Times,serif" font-size="14.00">TXN 1</text>
<polygon fill="none" stroke="black" points="300.5,-76 300.5,-97 359.5,-97 359.5,-76 300.5,-76"/>
<text text-anchor="start" x="307.5" y="-82.8" font-family="Times,serif" font-size="14.00">TXN 2</text>
<polygon fill="none" stroke="black" points="300.5,-55 300.5,-76 359.5,-76 359.5,-55 300.5,-55"/>
<text text-anchor="start" x="307.5" y="-61.8" font-family="Times,serif" font-size="14.00">TXN 3</text>
</g>
<!-- blockd2&#45;&gt;blockmain2 -->
<g id="edge8" class="edge">
<title>blockd2:headerd2&#45;&gt;blockmain2:hashd2</title>
<path fill="none" stroke="black" d="M300.5,-129C300.5,-129 244.26,-226.96 226.68,-257.57"/>
<polygon fill="black" stroke="black" points="223.44,-256.18 221.5,-266.6 229.51,-259.67 223.44,-256.18"/>
</g>
<!-- blockd4 -->
<g id="node24" class="node">
<title>blockd4</title>
<text text-anchor="middle" x="329.5" y="-32.3" font-family="Times,serif" font-size="14.00">...</text>
</g>
<!-- blockd5 -->
<g id="node25" class="node">
<title>blockd5</title>
<text text-anchor="middle" x="329.5" y="-14.3" font-family="Times,serif" font-size="14.00"> </text>
</g>
</g>
</svg>
