<?xml version="1.0" encoding="UTF-8" standalone="no"?>
<!DOCTYPE svg PUBLIC "-//W3C//DTD SVG 1.1//EN"
 "http://www.w3.org/Graphics/SVG/1.1/DTD/svg11.dtd">
<!-- Generated by graphviz version 2.43.0 (0)
 -->
<!-- Title: A Pages: 1 -->
<svg width="380pt" height="926pt"
 viewBox="0.00 0.00 379.50 926.00" xmlns="http://www.w3.org/2000/svg" xmlns:xlink="http://www.w3.org/1999/xlink">
<g id="graph0" class="graph" transform="scale(1 1) rotate(0) translate(4 922)">
<title>A</title>
<polygon fill="white" stroke="transparent" points="-4,4 -4,-922 375.5,-922 375.5,4 -4,4"/>
<g id="clust1" class="cluster">
<title>clustermain</title>
<polygon fill="none" stroke="black" points="136.5,-273.6 136.5,-702 234.5,-702 234.5,-273.6 136.5,-273.6"/>
</g>
<g id="clust2" class="cluster">
<title>clustera</title>
<polygon fill="none" stroke="black" points="0,-489.6 0,-918 83,-918 83,-489.6 0,-489.6"/>
</g>
<g id="clust3" class="cluster">
<title>clusterb</title>
<polygon fill="none" stroke="black" points="0,0 0,-435.6 83,-435.6 83,0 0,0"/>
</g>
<g id="clust4" class="cluster">
<title>clusterc</title>
<polygon fill="none" stroke="black" points="288,-489.6 288,-918 371,-918 371,-489.6 288,-489.6"/>
</g>
<g id="clust5" class="cluster">
<title>clusterd</title>
<polygon fill="none" stroke="black" points="287.5,0 287.5,-435.6 371.5,-435.6 371.5,0 287.5,0"/>
</g>
<!-- titlemain -->
<g id="node1" class="node">
<title>titlemain</title>
<text text-anchor="middle" x="185.5" y="-680.3" font-family="Times,serif" font-size="14.00">Main Chain</text>
</g>
<!-- blockmain1 -->
<g id="node2" class="node">
<title>blockmain1</title>
<polygon fill="none" stroke="black" points="150.5,-643 150.5,-664 221.5,-664 221.5,-643 150.5,-643"/>
<text text-anchor="start" x="159.5" y="-650.8" font-family="Times,serif" font-style="italic" font-size="14.00">Block 1</text>
<polygon fill="none" stroke="black" points="150.5,-622 150.5,-643 221.5,-643 221.5,-622 150.5,-622"/>
<text text-anchor="start" x="154" y="-628.8" font-family="Times,serif" font-size="14.00">hash(A1)</text>
<polygon fill="none" stroke="black" points="150.5,-601 150.5,-622 221.5,-622 221.5,-601 150.5,-601"/>
<text text-anchor="start" x="154" y="-607.8" font-family="Times,serif" font-size="14.00">hash(B1)</text>
<polygon fill="none" stroke="black" points="150.5,-580 150.5,-601 221.5,-601 221.5,-580 150.5,-580"/>
<text text-anchor="start" x="154" y="-586.8" font-family="Times,serif" font-size="14.00">hash(C1)</text>
<polygon fill="none" stroke="black" points="150.5,-559 150.5,-580 221.5,-580 221.5,-559 150.5,-559"/>
<text text-anchor="start" x="153.5" y="-565.8" font-family="Times,serif" font-size="14.00">hash(D1)</text>
</g>
<!-- blockmain2 -->
<g id="node3" class="node">
<title>blockmain2</title>
<polygon fill="none" stroke="black" points="150.5,-527.8 150.5,-548.8 221.5,-548.8 221.5,-527.8 150.5,-527.8"/>
<text text-anchor="start" x="159.5" y="-535.6" font-family="Times,serif" font-style="italic" font-size="14.00">Block 2</text>
<polygon fill="none" stroke="black" points="150.5,-506.8 150.5,-527.8 221.5,-527.8 221.5,-506.8 150.5,-506.8"/>
<text text-anchor="start" x="154" y="-513.6" font-family="Times,serif" font-size="14.00">hash(A2)</text>
<polygon fill="none" stroke="black" points="150.5,-485.8 150.5,-506.8 221.5,-506.8 221.5,-485.8 150.5,-485.8"/>
<text text-anchor="start" x="154" y="-492.6" font-family="Times,serif" font-size="14.00">hash(B2)</text>
<polygon fill="none" stroke="black" points="150.5,-464.8 150.5,-485.8 221.5,-485.8 221.5,-464.8 150.5,-464.8"/>
<text text-anchor="start" x="154" y="-471.6" font-family="Times,serif" font-size="14.00">hash(C2)</text>
<polygon fill="none" stroke="black" points="150.5,-443.8 150.5,-464.8 221.5,-464.8 221.5,-443.8 150.5,-443.8"/>
<text text-anchor="start" x="153.5" y="-450.6" font-family="Times,serif" font-size="14.00">hash(D2)</text>
</g>
<!-- blockmain3 -->
<g id="node4" class="node">
<title>blockmain3</title>
<polygon fill="none" stroke="black" points="150.5,-412.6 150.5,-433.6 221.5,-433.6 221.5,-412.6 150.5,-412.6"/>
<text text-anchor="start" x="159.5" y="-420.4" font-family="Times,serif" font-style="italic" font-size="14.00">Block 3</text>
<polygon fill="none" stroke="black" points="150.5,-391.6 150.5,-412.6 221.5,-412.6 221.5,-391.6 150.5,-391.6"/>
<text text-anchor="start" x="154" y="-398.4" font-family="Times,serif" font-size="14.00">hash(A3)</text>
<polygon fill="none" stroke="black" points="150.5,-370.6 150.5,-391.6 221.5,-391.6 221.5,-370.6 150.5,-370.6"/>
<text text-anchor="start" x="154" y="-377.4" font-family="Times,serif" font-size="14.00">hash(B3)</text>
<polygon fill="none" stroke="black" points="150.5,-349.6 150.5,-370.6 221.5,-370.6 221.5,-349.6 150.5,-349.6"/>
<text text-anchor="start" x="154" y="-356.4" font-family="Times,serif" font-size="14.00">hash(C3)</text>
<polygon fill="none" stroke="black" points="150.5,-328.6 150.5,-349.6 221.5,-349.6 221.5,-328.6 150.5,-328.6"/>
<text text-anchor="start" x="153.5" y="-335.4" font-family="Times,serif" font-size="14.00">hash(D3)</text>
</g>
<!-- blockmain4 -->
<g id="node5" class="node">
<title>blockmain4</title>
<text text-anchor="middle" x="185.5" y="-305.9" font-family="Times,serif" font-size="14.00">...</text>
</g>
<!-- blockmain5 -->
<g id="node6" class="node">
<title>blockmain5</title>
<text text-anchor="middle" x="185.5" y="-287.9" font-family="Times,serif" font-size="14.00"> </text>
</g>
<!-- titlea -->
<g id="node7" class="node">
<title>titlea</title>
<text text-anchor="middle" x="41.5" y="-896.3" font-family="Times,serif" font-size="14.00"> Shard A </text>
</g>
<!-- blocka1 -->
<g id="node8" class="node">
<title>blocka1</title>
<polygon fill="none" stroke="black" points="12.5,-859 12.5,-880 71.5,-880 71.5,-859 12.5,-859"/>
<text text-anchor="start" x="15.5" y="-866.8" font-family="Times,serif" font-style="italic" font-size="14.00">Block 1</text>
<polygon fill="none" stroke="black" points="12.5,-838 12.5,-859 71.5,-859 71.5,-838 12.5,-838"/>
<text text-anchor="start" x="17" y="-844.8" font-family="Times,serif" font-size="14.00">header</text>
<polygon fill="none" stroke="black" points="12.5,-817 12.5,-838 71.5,-838 71.5,-817 12.5,-817"/>
<text text-anchor="start" x="19.5" y="-823.8" font-family="Times,serif" font-size="14.00">TXN 1</text>
<polygon fill="none" stroke="black" points="12.5,-796 12.5,-817 71.5,-817 71.5,-796 12.5,-796"/>
<text text-anchor="start" x="19.5" y="-802.8" font-family="Times,serif" font-size="14.00">TXN 2</text>
<polygon fill="none" stroke="black" points="12.5,-775 12.5,-796 71.5,-796 71.5,-775 12.5,-775"/>
<text text-anchor="start" x="19.5" y="-781.8" font-family="Times,serif" font-size="14.00">TXN 3</text>
</g>
<!-- blocka1&#45;&gt;blockmain1 -->
<g id="edge1" class="edge">
<title>blocka1:headera1&#45;&gt;blockmain1:hasha1</title>
<path fill="none" stroke="black" d="M71.5,-849C71.5,-849 131.71,-684.36 147,-642.56"/>
<polygon fill="black" stroke="black" points="150.35,-643.59 150.5,-633 143.78,-641.19 150.35,-643.59"/>
</g>
<!-- blocka2 -->
<g id="node9" class="node">
<title>blocka2</title>
<polygon fill="none" stroke="black" points="12.5,-743.8 12.5,-764.8 71.5,-764.8 71.5,-743.8 12.5,-743.8"/>
<text text-anchor="start" x="15.5" y="-751.6" font-family="Times,serif" font-style="italic" font-size="14.00">Block 2</text>
<polygon fill="none" stroke="black" points="12.5,-722.8 12.5,-743.8 71.5,-743.8 71.5,-722.8 12.5,-722.8"/>
<text text-anchor="start" x="17" y="-729.6" font-family="Times,serif" font-size="14.00">header</text>
<polygon fill="none" stroke="black" points="12.5,-701.8 12.5,-722.8 71.5,-722.8 71.5,-701.8 12.5,-701.8"/>
<text text-anchor="start" x="19.5" y="-708.6" font-family="Times,serif" font-size="14.00">TXN 1</text>
<polygon fill="none" stroke="black" points="12.5,-680.8 12.5,-701.8 71.5,-701.8 71.5,-680.8 12.5,-680.8"/>
<text text-anchor="start" x="19.5" y="-687.6" font-family="Times,serif" font-size="14.00">TXN 2</text>
<polygon fill="none" stroke="black" points="12.5,-659.8 12.5,-680.8 71.5,-680.8 71.5,-659.8 12.5,-659.8"/>
<text text-anchor="start" x="19.5" y="-666.6" font-family="Times,serif" font-size="14.00">TXN 3</text>
</g>
<!-- blocka2&#45;&gt;blockmain2 -->
<g id="edge2" class="edge">
<title>blocka2:headera2&#45;&gt;blockmain2:hasha2</title>
<path fill="none" stroke="black" d="M71.5,-733.8C71.5,-733.8 131.71,-569.16 147,-527.36"/>
<polygon fill="black" stroke="black" points="150.35,-528.39 150.5,-517.8 143.78,-525.99 150.35,-528.39"/>
</g>
<!-- blocka3 -->
<g id="node10" class="node">
<title>blocka3</title>
<polygon fill="none" stroke="black" points="12.5,-628.6 12.5,-649.6 71.5,-649.6 71.5,-628.6 12.5,-628.6"/>
<text text-anchor="start" x="15.5" y="-636.4" font-family="Times,serif" font-style="italic" font-size="14.00">Block 3</text>
<polygon fill="none" stroke="black" points="12.5,-607.6 12.5,-628.6 71.5,-628.6 71.5,-607.6 12.5,-607.6"/>
<text text-anchor="start" x="17" y="-614.4" font-family="Times,serif" font-size="14.00">header</text>
<polygon fill="none" stroke="black" points="12.5,-586.6 12.5,-607.6 71.5,-607.6 71.5,-586.6 12.5,-586.6"/>
<text text-anchor="start" x="19.5" y="-593.4" font-family="Times,serif" font-size="14.00">TXN 1</text>
<polygon fill="none" stroke="black" points="12.5,-565.6 12.5,-586.6 71.5,-586.6 71.5,-565.6 12.5,-565.6"/>
<text text-anchor="start" x="19.5" y="-572.4" font-family="Times,serif" font-size="14.00">TXN 2</text>
<polygon fill="none" stroke="black" points="12.5,-544.6 12.5,-565.6 71.5,-565.6 71.5,-544.6 12.5,-544.6"/>
<text text-anchor="start" x="19.5" y="-551.4" font-family="Times,serif" font-size="14.00">TXN 3</text>
</g>
<!-- blocka3&#45;&gt;blockmain3 -->
<g id="edge3" class="edge">
<title>blocka3:headera3&#45;&gt;blockmain3:hasha3</title>
<path fill="none" stroke="black" d="M71.5,-618.6C71.5,-618.6 131.71,-453.96 147,-412.16"/>
<polygon fill="black" stroke="black" points="150.35,-413.19 150.5,-402.6 143.78,-410.79 150.35,-413.19"/>
</g>
<!-- blocka4 -->
<g id="node11" class="node">
<title>blocka4</title>
<text text-anchor="middle" x="41.5" y="-521.9" font-family="Times,serif" font-size="14.00">...</text>
</g>
<!-- blocka5 -->
<g id="node12" class="node">
<title>blocka5</title>
<text text-anchor="middle" x="41.5" y="-503.9" font-family="Times,serif" font-size="14.00"> </text>
</g>
<!-- titleb -->
<g id="node13" class="node">
<title>titleb</title>
<text text-anchor="middle" x="41.5" y="-413.9" font-family="Times,serif" font-size="14.00"> Shard B </text>
</g>
<!-- blockb1 -->
<g id="node14" class="node">
<title>blockb1</title>
<polygon fill="none" stroke="black" points="12.5,-369.4 12.5,-390.4 71.5,-390.4 71.5,-369.4 12.5,-369.4"/>
<text text-anchor="start" x="15.5" y="-377.2" font-family="Times,serif" font-style="italic" font-size="14.00">Block 1</text>
<polygon fill="none" stroke="black" points="12.5,-348.4 12.5,-369.4 71.5,-369.4 71.5,-348.4 12.5,-348.4"/>
<text text-anchor="start" x="17" y="-355.2" font-family="Times,serif" font-size="14.00">header</text>
<polygon fill="none" stroke="black" points="12.5,-327.4 12.5,-348.4 71.5,-348.4 71.5,-327.4 12.5,-327.4"/>
<text text-anchor="start" x="19.5" y="-334.2" font-family="Times,serif" font-size="14.00">TXN 1</text>
<polygon fill="none" stroke="black" points="12.5,-306.4 12.5,-327.4 71.5,-327.4 71.5,-306.4 12.5,-306.4"/>
<text text-anchor="start" x="19.5" y="-313.2" font-family="Times,serif" font-size="14.00">TXN 2</text>
<polygon fill="none" stroke="black" points="12.5,-285.4 12.5,-306.4 71.5,-306.4 71.5,-285.4 12.5,-285.4"/>
<text text-anchor="start" x="19.5" y="-292.2" font-family="Times,serif" font-size="14.00">TXN 3</text>
</g>
<!-- blockb1&#45;&gt;blockmain1 -->
<g id="edge4" class="edge">
<title>blockb1:headerb1&#45;&gt;blockmain1:hashb1</title>
<path fill="none" stroke="black" d="M71.5,-359.4C71.5,-359.4 133.07,-555.49 147.5,-601.44"/>
<polygon fill="black" stroke="black" points="144.16,-602.51 150.5,-611 150.84,-600.41 144.16,-602.51"/>
</g>
<!-- blockb2 -->
<g id="node15" class="node">
<title>blockb2</title>
<polygon fill="none" stroke="black" points="12.5,-254.2 12.5,-275.2 71.5,-275.2 71.5,-254.2 12.5,-254.2"/>
<text text-anchor="start" x="15.5" y="-262" font-family="Times,serif" font-style="italic" font-size="14.00">Block 2</text>
<polygon fill="none" stroke="black" points="12.5,-233.2 12.5,-254.2 71.5,-254.2 71.5,-233.2 12.5,-233.2"/>
<text text-anchor="start" x="17" y="-240" font-family="Times,serif" font-size="14.00">header</text>
<polygon fill="none" stroke="black" points="12.5,-212.2 12.5,-233.2 71.5,-233.2 71.5,-212.2 12.5,-212.2"/>
<text text-anchor="start" x="19.5" y="-219" font-family="Times,serif" font-size="14.00">TXN 1</text>
<polygon fill="none" stroke="black" points="12.5,-191.2 12.5,-212.2 71.5,-212.2 71.5,-191.2 12.5,-191.2"/>
<text text-anchor="start" x="19.5" y="-198" font-family="Times,serif" font-size="14.00">TXN 2</text>
<polygon fill="none" stroke="black" points="12.5,-170.2 12.5,-191.2 71.5,-191.2 71.5,-170.2 12.5,-170.2"/>
<text text-anchor="start" x="19.5" y="-177" font-family="Times,serif" font-size="14.00">TXN 3</text>
</g>
<!-- blockb2&#45;&gt;blockmain2 -->
<g id="edge5" class="edge">
<title>blockb2:headerb2&#45;&gt;blockmain2:hashb2</title>
<path fill="none" stroke="black" d="M71.5,-244.2C71.5,-244.2 133.07,-440.29 147.5,-486.24"/>
<polygon fill="black" stroke="black" points="144.16,-487.31 150.5,-495.8 150.84,-485.21 144.16,-487.31"/>
</g>
<!-- blockb3 -->
<g id="node16" class="node">
<title>blockb3</title>
<polygon fill="none" stroke="black" points="12.5,-139 12.5,-160 71.5,-160 71.5,-139 12.5,-139"/>
<text text-anchor="start" x="15.5" y="-146.8" font-family="Times,serif" font-style="italic" font-size="14.00">Block 3</text>
<polygon fill="none" stroke="black" points="12.5,-118 12.5,-139 71.5,-139 71.5,-118 12.5,-118"/>
<text text-anchor="start" x="17" y="-124.8" font-family="Times,serif" font-size="14.00">header</text>
<polygon fill="none" stroke="black" points="12.5,-97 12.5,-118 71.5,-118 71.5,-97 12.5,-97"/>
<text text-anchor="start" x="19.5" y="-103.8" font-family="Times,serif" font-size="14.00">TXN 1</text>
<polygon fill="none" stroke="black" points="12.5,-76 12.5,-97 71.5,-97 71.5,-76 12.5,-76"/>
<text text-anchor="start" x="19.5" y="-82.8" font-family="Times,serif" font-size="14.00">TXN 2</text>
<polygon fill="none" stroke="black" points="12.5,-55 12.5,-76 71.5,-76 71.5,-55 12.5,-55"/>
<text text-anchor="start" x="19.5" y="-61.8" font-family="Times,serif" font-size="14.00">TXN 3</text>
</g>
<!-- blockb3&#45;&gt;blockmain3 -->
<g id="edge6" class="edge">
<title>blockb3:headerb3&#45;&gt;blockmain3:hashb3</title>
<path fill="none" stroke="black" d="M71.5,-129C71.5,-129 133.07,-325.09 147.5,-371.04"/>
<polygon fill="black" stroke="black" points="144.16,-372.11 150.5,-380.6 150.84,-370.01 144.16,-372.11"/>
</g>
<!-- blockb4 -->
<g id="node17" class="node">
<title>blockb4</title>
<text text-anchor="middle" x="41.5" y="-32.3" font-family="Times,serif" font-size="14.00">...</text>
</g>
<!-- blockb5 -->
<g id="node18" class="node">
<title>blockb5</title>
<text text-anchor="middle" x="41.5" y="-14.3" font-family="Times,serif" font-size="14.00"> </text>
</g>
<!-- titlec -->
<g id="node19" class="node">
<title>titlec</title>
<text text-anchor="middle" x="329.5" y="-896.3" font-family="Times,serif" font-size="14.00"> Shard C </text>
</g>
<!-- blockc1 -->
<g id="node20" class="node">
<title>blockc1</title>
<polygon fill="none" stroke="black" points="300.5,-859 300.5,-880 359.5,-880 359.5,-859 300.5,-859"/>
<text text-anchor="start" x="303.5" y="-866.8" font-family="Times,serif" font-style="italic" font-size="14.00">Block 1</text>
<polygon fill="none" stroke="black" points="300.5,-838 300.5,-859 359.5,-859 359.5,-838 300.5,-838"/>
<text text-anchor="start" x="305" y="-844.8" font-family="Times,serif" font-size="14.00">header</text>
<polygon fill="none" stroke="black" points="300.5,-817 300.5,-838 359.5,-838 359.5,-817 300.5,-817"/>
<text text-anchor="start" x="307.5" y="-823.8" font-family="Times,serif" font-size="14.00">TXN 1</text>
<polygon fill="none" stroke="black" points="300.5,-796 300.5,-817 359.5,-817 359.5,-796 300.5,-796"/>
<text text-anchor="start" x="307.5" y="-802.8" font-family="Times,serif" font-size="14.00">TXN 2</text>
<polygon fill="none" stroke="black" points="300.5,-775 300.5,-796 359.5,-796 359.5,-775 300.5,-775"/>
<text text-anchor="start" x="307.5" y="-781.8" font-family="Times,serif" font-size="14.00">TXN 3</text>
</g>
<!-- blockc1&#45;&gt;blockmain1 -->
<g id="edge7" class="edge">
<title>blockc1:headerc1&#45;&gt;blockmain1:hashc1</title>
<path fill="none" stroke="black" d="M300.5,-849C300.5,-849 238.93,-647.15 224.5,-599.84"/>
<polygon fill="black" stroke="black" points="227.77,-598.54 221.5,-590 221.07,-600.59 227.77,-598.54"/>
</g>
<!-- blockc2 -->
<g id="node21" class="node">
<title>blockc2</title>
<polygon fill="none" stroke="black" points="300.5,-743.8 300.5,-764.8 359.5,-764.8 359.5,-743.8 300.5,-743.8"/>
<text text-anchor="start" x="303.5" y="-751.6" font-family="Times,serif" font-style="italic" font-size="14.00">Block 2</text>
<polygon fill="none" stroke="black" points="300.5,-722.8 300.5,-743.8 359.5,-743.8 359.5,-722.8 300.5,-722.8"/>
<text text-anchor="start" x="305" y="-729.6" font-family="Times,serif" font-size="14.00">header</text>
<polygon fill="none" stroke="black" points="300.5,-701.8 300.5,-722.8 359.5,-722.8 359.5,-701.8 300.5,-701.8"/>
<text text-anchor="start" x="307.5" y="-708.6" font-family="Times,serif" font-size="14.00">TXN 1</text>
<polygon fill="none" stroke="black" points="300.5,-680.8 300.5,-701.8 359.5,-701.8 359.5,-680.8 300.5,-680.8"/>
<text text-anchor="start" x="307.5" y="-687.6" font-family="Times,serif" font-size="14.00">TXN 2</text>
<polygon fill="none" stroke="black" points="300.5,-659.8 300.5,-680.8 359.5,-680.8 359.5,-659.8 300.5,-659.8"/>
<text text-anchor="start" x="307.5" y="-666.6" font-family="Times,serif" font-size="14.00">TXN 3</text>
</g>
<!-- blockc2&#45;&gt;blockmain2 -->
<g id="edge8" class="edge">
<title>blockc2:headerc2&#45;&gt;blockmain2:hashc2</title>
<path fill="none" stroke="black" d="M300.5,-733.8C300.5,-733.8 238.93,-531.95 224.5,-484.64"/>
<polygon fill="black" stroke="black" points="227.77,-483.34 221.5,-474.8 221.07,-485.39 227.77,-483.34"/>
</g>
<!-- blockc3 -->
<g id="node22" class="node">
<title>blockc3</title>
<polygon fill="none" stroke="black" points="300.5,-628.6 300.5,-649.6 359.5,-649.6 359.5,-628.6 300.5,-628.6"/>
<text text-anchor="start" x="303.5" y="-636.4" font-family="Times,serif" font-style="italic" font-size="14.00">Block 3</text>
<polygon fill="none" stroke="black" points="300.5,-607.6 300.5,-628.6 359.5,-628.6 359.5,-607.6 300.5,-607.6"/>
<text text-anchor="start" x="305" y="-614.4" font-family="Times,serif" font-size="14.00">header</text>
<polygon fill="none" stroke="black" points="300.5,-586.6 300.5,-607.6 359.5,-607.6 359.5,-586.6 300.5,-586.6"/>
<text text-anchor="start" x="307.5" y="-593.4" font-family="Times,serif" font-size="14.00">TXN 1</text>
<polygon fill="none" stroke="black" points="300.5,-565.6 300.5,-586.6 359.5,-586.6 359.5,-565.6 300.5,-565.6"/>
<text text-anchor="start" x="307.5" y="-572.4" font-family="Times,serif" font-size="14.00">TXN 2</text>
<polygon fill="none" stroke="black" points="300.5,-544.6 300.5,-565.6 359.5,-565.6 359.5,-544.6 300.5,-544.6"/>
<text text-anchor="start" x="307.5" y="-551.4" font-family="Times,serif" font-size="14.00">TXN 3</text>
</g>
<!-- blockc3&#45;&gt;blockmain3 -->
<g id="edge9" class="edge">
<title>blockc3:headerc3&#45;&gt;blockmain3:hashc3</title>
<path fill="none" stroke="black" d="M300.5,-618.6C300.5,-618.6 238.93,-416.75 224.5,-369.44"/>
<polygon fill="black" stroke="black" points="227.77,-368.14 221.5,-359.6 221.07,-370.19 227.77,-368.14"/>
</g>
<!-- blockc4 -->
<g id="node23" class="node">
<title>blockc4</title>
<text text-anchor="middle" x="329.5" y="-521.9" font-family="Times,serif" font-size="14.00">...</text>
</g>
<!-- blockc5 -->
<g id="node24" class="node">
<title>blockc5</title>
<text text-anchor="middle" x="329.5" y="-503.9" font-family="Times,serif" font-size="14.00"> </text>
</g>
<!-- titled -->
<g id="node25" class="node">
<title>titled</title>
<text text-anchor="middle" x="329.5" y="-413.9" font-family="Times,serif" font-size="14.00"> Shard D </text>
</g>
<!-- blockd1 -->
<g id="node26" class="node">
<title>blockd1</title>
<polygon fill="none" stroke="black" points="300.5,-369.4 300.5,-390.4 359.5,-390.4 359.5,-369.4 300.5,-369.4"/>
<text text-anchor="start" x="303.5" y="-377.2" font-family="Times,serif" font-style="italic" font-size="14.00">Block 1</text>
<polygon fill="none" stroke="black" points="300.5,-348.4 300.5,-369.4 359.5,-369.4 359.5,-348.4 300.5,-348.4"/>
<text text-anchor="start" x="305" y="-355.2" font-family="Times,serif" font-size="14.00">header</text>
<polygon fill="none" stroke="black" points="300.5,-327.4 300.5,-348.4 359.5,-348.4 359.5,-327.4 300.5,-327.4"/>
<text text-anchor="start" x="307.5" y="-334.2" font-family="Times,serif" font-size="14.00">TXN 1</text>
<polygon fill="none" stroke="black" points="300.5,-306.4 300.5,-327.4 359.5,-327.4 359.5,-306.4 300.5,-306.4"/>
<text text-anchor="start" x="307.5" y="-313.2" font-family="Times,serif" font-size="14.00">TXN 2</text>
<polygon fill="none" stroke="black" points="300.5,-285.4 300.5,-306.4 359.5,-306.4 359.5,-285.4 300.5,-285.4"/>
<text text-anchor="start" x="307.5" y="-292.2" font-family="Times,serif" font-size="14.00">TXN 3</text>
</g>
<!-- blockd1&#45;&gt;blockmain1 -->
<g id="edge10" class="edge">
<title>blockd1:headerd1&#45;&gt;blockmain1:hashd1</title>
<path fill="none" stroke="black" d="M300.5,-359.4C300.5,-359.4 240.55,-518.45 225.1,-559.45"/>
<polygon fill="black" stroke="black" points="221.75,-558.41 221.5,-569 228.3,-560.88 221.75,-558.41"/>
</g>
<!-- blockd2 -->
<g id="node27" class="node">
<title>blockd2</title>
<polygon fill="none" stroke="black" points="300.5,-254.2 300.5,-275.2 359.5,-275.2 359.5,-254.2 300.5,-254.2"/>
<text text-anchor="start" x="303.5" y="-262" font-family="Times,serif" font-style="italic" font-size="14.00">Block 2</text>
<polygon fill="none" stroke="black" points="300.5,-233.2 300.5,-254.2 359.5,-254.2 359.5,-233.2 300.5,-233.2"/>
<text text-anchor="start" x="305" y="-240" font-family="Times,serif" font-size="14.00">header</text>
<polygon fill="none" stroke="black" points="300.5,-212.2 300.5,-233.2 359.5,-233.2 359.5,-212.2 300.5,-212.2"/>
<text text-anchor="start" x="307.5" y="-219" font-family="Times,serif" font-size="14.00">TXN 1</text>
<polygon fill="none" stroke="black" points="300.5,-191.2 300.5,-212.2 359.5,-212.2 359.5,-191.2 300.5,-191.2"/>
<text text-anchor="start" x="307.5" y="-198" font-family="Times,serif" font-size="14.00">TXN 2</text>
<polygon fill="none" stroke="black" points="300.5,-170.2 300.5,-191.2 359.5,-191.2 359.5,-170.2 300.5,-170.2"/>
<text text-anchor="start" x="307.5" y="-177" font-family="Times,serif" font-size="14.00">TXN 3</text>
</g>
<!-- blockd2&#45;&gt;blockmain2 -->
<g id="edge11" class="edge">
<title>blockd2:headerd2&#45;&gt;blockmain2:hashd2</title>
<path fill="none" stroke="black" d="M300.5,-244.2C300.5,-244.2 240.55,-403.25 225.1,-444.25"/>
<polygon fill="black" stroke="black" points="221.75,-443.21 221.5,-453.8 228.3,-445.68 221.75,-443.21"/>
</g>
<!-- blockd3 -->
<g id="node28" class="node">
<title>blockd3</title>
<polygon fill="none" stroke="black" points="300.5,-139 300.5,-160 359.5,-160 359.5,-139 300.5,-139"/>
<text text-anchor="start" x="303.5" y="-146.8" font-family="Times,serif" font-style="italic" font-size="14.00">Block 3</text>
<polygon fill="none" stroke="black" points="300.5,-118 300.5,-139 359.5,-139 359.5,-118 300.5,-118"/>
<text text-anchor="start" x="305" y="-124.8" font-family="Times,serif" font-size="14.00">header</text>
<polygon fill="none" stroke="black" points="300.5,-97 300.5,-118 359.5,-118 359.5,-97 300.5,-97"/>
<text text-anchor="start" x="307.5" y="-103.8" font-family="Times,serif" font-size="14.00">TXN 1</text>
<polygon fill="none" stroke="black" points="300.5,-76 300.5,-97 359.5,-97 359.5,-76 300.5,-76"/>
<text text-anchor="start" x="307.5" y="-82.8" font-family="Times,serif" font-size="14.00">TXN 2</text>
<polygon fill="none" stroke="black" points="300.5,-55 300.5,-76 359.5,-76 359.5,-55 300.5,-55"/>
<text text-anchor="start" x="307.5" y="-61.8" font-family="Times,serif" font-size="14.00">TXN 3</text>
</g>
<!-- blockd3&#45;&gt;blockmain3 -->
<g id="edge12" class="edge">
<title>blockd3:headerd3&#45;&gt;blockmain3:hashd3</title>
<path fill="none" stroke="black" d="M300.5,-129C300.5,-129 240.55,-288.05 225.1,-329.05"/>
<polygon fill="black" stroke="black" points="221.75,-328.01 221.5,-338.6 228.3,-330.48 221.75,-328.01"/>
</g>
<!-- blockd4 -->
<g id="node29" class="node">
<title>blockd4</title>
<text text-anchor="middle" x="329.5" y="-32.3" font-family="Times,serif" font-size="14.00">...</text>
</g>
<!-- blockd5 -->
<g id="node30" class="node">
<title>blockd5</title>
<text text-anchor="middle" x="329.5" y="-14.3" font-family="Times,serif" font-size="14.00"> </text>
</g>
</g>
</svg>
