<?xml version="1.0" encoding="UTF-8" standalone="no"?>
<!DOCTYPE svg PUBLIC "-//W3C//DTD SVG 1.1//EN"
 "http://www.w3.org/Graphics/SVG/1.1/DTD/svg11.dtd">
<!-- Generated by graphviz version 2.43.0 (0)
 -->
<!-- Title: TXN Pages: 1 -->
<svg width="224pt" height="430pt"
 viewBox="0.00 0.00 224.00 429.50" xmlns="http://www.w3.org/2000/svg" xmlns:xlink="http://www.w3.org/1999/xlink">
<g id="graph0" class="graph" transform="scale(1 1) rotate(0) translate(4 425.5)">
<title>TXN</title>
<polygon fill="white" stroke="transparent" points="-4,4 -4,-425.5 220,-425.5 220,4 -4,4"/>
<!-- init_or_data -->
<g id="node1" class="node">
<title>init_or_data</title>
<path fill="none" stroke="black" d="M12,-0.5C12,-0.5 204,-0.5 204,-0.5 210,-0.5 216,-6.5 216,-12.5 216,-12.5 216,-24.5 216,-24.5 216,-30.5 210,-36.5 204,-36.5 204,-36.5 12,-36.5 12,-36.5 6,-36.5 0,-30.5 0,-24.5 0,-24.5 0,-12.5 0,-12.5 0,-6.5 6,-0.5 12,-0.5"/>
<text text-anchor="middle" x="108" y="-14.8" font-family="Helvetica,sans-Serif" font-size="14.00">init or data</text>
</g>
<!-- vrs -->
<g id="node2" class="node">
<title>vrs</title>
<path fill="none" stroke="black" d="M12,-55.5C12,-55.5 204,-55.5 204,-55.5 210,-55.5 216,-61.5 216,-67.5 216,-67.5 216,-79.5 216,-79.5 216,-85.5 210,-91.5 204,-91.5 204,-91.5 12,-91.5 12,-91.5 6,-91.5 0,-85.5 0,-79.5 0,-79.5 0,-67.5 0,-67.5 0,-61.5 6,-55.5 12,-55.5"/>
<text text-anchor="middle" x="108" y="-69.8" font-family="Helvetica,sans-Serif" font-size="14.00">v, r, s</text>
</g>
<!-- value -->
<g id="node3" class="node">
<title>value</title>
<path fill="none" stroke="black" d="M12,-110.5C12,-110.5 204,-110.5 204,-110.5 210,-110.5 216,-116.5 216,-122.5 216,-122.5 216,-134.5 216,-134.5 216,-140.5 210,-146.5 204,-146.5 204,-146.5 12,-146.5 12,-146.5 6,-146.5 0,-140.5 0,-134.5 0,-134.5 0,-122.5 0,-122.5 0,-116.5 6,-110.5 12,-110.5"/>
<text text-anchor="middle" x="108" y="-124.8" font-family="Helvetica,sans-Serif" font-size="14.00">value</text>
</g>
<!-- to -->
<g id="node4" class="node">
<title>to</title>
<path fill="none" stroke="black" d="M12,-165.5C12,-165.5 204,-165.5 204,-165.5 210,-165.5 216,-171.5 216,-177.5 216,-177.5 216,-189.5 216,-189.5 216,-195.5 210,-201.5 204,-201.5 204,-201.5 12,-201.5 12,-201.5 6,-201.5 0,-195.5 0,-189.5 0,-189.5 0,-177.5 0,-177.5 0,-171.5 6,-165.5 12,-165.5"/>
<text text-anchor="middle" x="108" y="-179.8" font-family="Helvetica,sans-Serif" font-size="14.00">to</text>
</g>
<!-- gaslimit -->
<g id="node5" class="node">
<title>gaslimit</title>
<path fill="none" stroke="black" d="M12,-220.5C12,-220.5 204,-220.5 204,-220.5 210,-220.5 216,-226.5 216,-232.5 216,-232.5 216,-244.5 216,-244.5 216,-250.5 210,-256.5 204,-256.5 204,-256.5 12,-256.5 12,-256.5 6,-256.5 0,-250.5 0,-244.5 0,-244.5 0,-232.5 0,-232.5 0,-226.5 6,-220.5 12,-220.5"/>
<text text-anchor="middle" x="108" y="-234.8" font-family="Helvetica,sans-Serif" font-size="14.00">gasLimit</text>
</g>
<!-- gasprice -->
<g id="node6" class="node">
<title>gasprice</title>
<path fill="none" stroke="black" d="M12,-275.5C12,-275.5 204,-275.5 204,-275.5 210,-275.5 216,-281.5 216,-287.5 216,-287.5 216,-299.5 216,-299.5 216,-305.5 210,-311.5 204,-311.5 204,-311.5 12,-311.5 12,-311.5 6,-311.5 0,-305.5 0,-299.5 0,-299.5 0,-287.5 0,-287.5 0,-281.5 6,-275.5 12,-275.5"/>
<text text-anchor="middle" x="108" y="-289.8" font-family="Helvetica,sans-Serif" font-size="14.00">gasPrice</text>
</g>
<!-- nonce -->
<g id="node7" class="node">
<title>nonce</title>
<path fill="none" stroke="black" d="M12,-330.5C12,-330.5 204,-330.5 204,-330.5 210,-330.5 216,-336.5 216,-342.5 216,-342.5 216,-354.5 216,-354.5 216,-360.5 210,-366.5 204,-366.5 204,-366.5 12,-366.5 12,-366.5 6,-366.5 0,-360.5 0,-354.5 0,-354.5 0,-342.5 0,-342.5 0,-336.5 6,-330.5 12,-330.5"/>
<text text-anchor="middle" x="108" y="-344.8" font-family="Helvetica,sans-Serif" font-size="14.00">nonce</text>
</g>
<!-- title -->
<g id="node8" class="node">
<title>title</title>
<text text-anchor="middle" x="108" y="-399.8" font-family="Helvetica,sans-Serif" font-size="14.00">Ethereum Transaction</text>
</g>
</g>
</svg>
