<?xml version="1.0" encoding="UTF-8" standalone="no"?>
<!-- Created with Inkscape (http://www.inkscape.org/) -->

<svg
   xmlns:dc="http://purl.org/dc/elements/1.1/"
   xmlns:cc="http://creativecommons.org/ns#"
   xmlns:rdf="http://www.w3.org/1999/02/22-rdf-syntax-ns#"
   xmlns:svg="http://www.w3.org/2000/svg"
   xmlns="http://www.w3.org/2000/svg"
   xmlns:xlink="http://www.w3.org/1999/xlink"
   xmlns:sodipodi="http://sodipodi.sourceforge.net/DTD/sodipodi-0.dtd"
   xmlns:inkscape="http://www.inkscape.org/namespaces/inkscape"
   version="1.0"
   width="1095.7834"
   height="817.45746"
   id="svg2"
   sodipodi:docname="2gen-map.svg"
   inkscape:version="0.92.5 (2060ec1f9f, 2020-04-08)">
  <metadata
     id="metadata28">
    <rdf:RDF>
      <cc:Work
         rdf:about="">
        <dc:format>image/svg+xml</dc:format>
        <dc:type
           rdf:resource="http://purl.org/dc/dcmitype/StillImage" />
        <dc:title />
      </cc:Work>
    </rdf:RDF>
  </metadata>
  <sodipodi:namedview
     pagecolor="#ffffff"
     bordercolor="#666666"
     borderopacity="1"
     objecttolerance="10"
     gridtolerance="10"
     guidetolerance="10"
     inkscape:pageopacity="0"
     inkscape:pageshadow="2"
     inkscape:window-width="1920"
     inkscape:window-height="1055"
     id="namedview26"
     showgrid="false"
     fit-margin-top="0"
     fit-margin-left="0"
     fit-margin-right="0"
     fit-margin-bottom="0"
     inkscape:zoom="1.0422561"
     inkscape:cx="375.66917"
     inkscape:cy="408.72873"
     inkscape:window-x="1920"
     inkscape:window-y="0"
     inkscape:window-maximized="1"
     inkscape:current-layer="svg2" />
  <defs
     id="defs4" />
  <g
     id="g863"
     transform="rotate(90,647.41554,578.71184)">
    <path
       d="m 713.80804,921.77232 c -0.0191,0.005 -0.107,-0.005 -0.125,0 -0.30359,0.0802 -0.46025,0.13899 -0.5,0.21875 -0.0398,0.0798 0.042,0.16105 0.15625,0.21875 0.22854,0.1154 0.65802,0.16517 0.84375,0.0625 0.11055,-0.0611 -0.22213,-0.31271 -0.375,-0.5 z"
       id="path3036"
       style="fill:#ffe6d5;stroke:#000000;stroke-width:3;stroke-linecap:butt;stroke-linejoin:miter;stroke-opacity:1"
       inkscape:connector-curvature="0" />
    <a
       transform="translate(0,447.63782)"
       xlink:href="http://en.wikipedia.org/wiki/Ashanti_Region"
       id="a3987">
      <path
         d="m 458.43304,375.822 c -1.43973,-0.0112 -2.75446,0.0982 -3.15625,0.1875 -0.40179,0.0893 -1.84375,0.64732 -3.25,1.25 -1.40625,0.60268 -2.78125,1.26786 -3.09375,1.625 -0.625,0.71429 -2.95535,5.42857 -3.3125,5.875 -0.35715,0.44643 -2.48214,6.625 -2.75,7.25 -0.26786,0.625 -2.25446,2.95535 -2.96875,3.3125 -0.71429,0.35715 -5.49402,1.99792 -8.375,3.5625 -2.88098,1.56458 -8.30357,5.42857 -8.75,5.875 -0.22321,0.22321 -1.2567,1.33036 -2.25,2.46875 -0.9933,1.13839 -1.94196,2.31696 -2.03125,2.71875 -0.0893,0.40179 0.35714,1.67187 0.9375,3 0.58036,1.32813 1.26786,2.71875 1.625,3.34375 0.35714,0.625 0.87054,1.45536 1.25,2.28125 0.37946,0.82589 0.64733,1.65625 0.46875,2.28125 -0.17858,0.625 -0.7433,1.67411 -1.46875,2.65625 -0.36272,0.49107 -0.76758,0.96429 -1.1875,1.34375 -0.41992,0.37946 -0.85714,0.67857 -1.28125,0.8125 -1.69643,0.53572 -7.04018,0.97768 -9.71875,1.15625 -0.66964,0.0446 -1.26446,0.19222 -1.8125,0.40625 -0.54804,0.21403 -1.05264,0.48503 -1.53125,0.8125 -0.95722,0.65495 -1.85121,1.50817 -2.84375,2.28125 -0.99254,0.77307 -1.72064,1.88018 -2.53125,2.96875 -0.40531,0.54429 -0.82667,1.07581 -1.3125,1.5625 -0.48583,0.48669 -1.03714,0.9119 -1.6875,1.25 -1.30072,0.6762 -3.11312,1.16235 -4.875,1.40625 -1.76188,0.2439 -3.47767,0.25446 -4.59375,0.0312 -1.11607,-0.22321 -3.4375,-0.75223 -5.78125,-1.1875 -2.34375,-0.43527 -4.69643,-0.77233 -5.8125,-0.59375 -1.11607,0.17858 -2.47321,0.49777 -3.8125,0.6875 -0.66964,0.0949 -1.34375,0.1716 -1.96875,0.15625 -0.625,-0.0154 -1.20536,-0.11161 -1.71875,-0.3125 -1.02679,-0.40179 -1.76563,-0.61384 -2.46875,-0.9375 -0.70312,-0.32366 -1.35714,-0.75893 -2.25,-1.5625 -1.78572,-1.60714 -2.34375,-1.77679 -4.21875,-3.5625 -0.9375,-0.89286 -1.78125,-1.52009 -2.5625,-2.3125 -0.78125,-0.79241 -1.48661,-1.75446 -2.15625,-3.40625 -0.66964,-1.65179 -0.99554,-2.98884 -1.21875,-4.25 -0.22321,-1.26116 -0.33929,-2.44196 -0.5625,-3.78125 -0.22321,-1.33929 -0.65848,-2.71875 -1.09375,-3.8125 -0.43527,-1.09375 -0.88839,-1.91964 -1.15625,-2.1875 -0.26786,-0.26786 -1.85045,-0.15625 -3.46875,0 -1.6183,0.15625 -3.25,0.37054 -3.5625,0.28125 -0.625,-0.17858 -10.01785,-0.2857 -11,-0.375 -0.98215,-0.0893 -9.64285,-0.44196 -10.625,-0.53125 -0.49108,-0.0447 -1.17097,0.15795 -2.1875,0.40625 -1.01653,0.2483 -2.37416,0.56463 -4.15625,0.6875 -1.78209,0.12287 -5.19552,0.0575 -8.34375,-0.0625 -3.14823,-0.12 -6.03125,-0.31696 -6.65625,-0.40625 -0.625,-0.0893 -2.30134,-0.20759 -4.03125,-0.21875 -1.72991,-0.0112 -3.49554,0.0982 -4.34375,0.5 -0.84821,0.40179 -1.57366,0.61384 -2.1875,0.9375 -0.61384,0.32366 -1.11607,0.75892 -1.5625,1.5625 -0.89286,1.60715 -2.33036,4.11161 -3.3125,6.34375 -0.49107,1.11607 -0.91741,2.40178 -1.21875,3.71875 -0.30134,1.31697 -0.46875,2.66964 -0.46875,3.875 0,1.20536 -0.34821,2.03572 -0.4375,2.90625 -0.0446,0.43527 -0.0257,0.88114 0.125,1.375 0.15067,0.49386 0.44643,1.04018 0.9375,1.6875 0.98214,1.29464 1.32143,2.01116 1.65625,2.46875 0.33482,0.45759 0.66964,0.66964 1.5625,0.9375 0.89286,0.26786 2.85938,0.36161 4.65625,0.40625 1.79687,0.0446 3.40179,0.0312 3.625,0.0312 0.44643,0 1.71875,1.60268 3.59375,3.03125 0.9375,0.71429 1.4933,1.38616 2.0625,2 0.5692,0.61384 1.14286,1.16517 2.125,1.65625 0.98214,0.49108 1.61161,0.77009 2.4375,0.9375 0.82589,0.16741 1.83482,0.21875 3.53125,0.21875 3.39286,0 7.58482,-0.17857 8.65625,0 0.53571,0.0893 1.43303,0.92857 2.28125,1.84375 0.84822,0.91518 1.67411,1.92858 2.03125,2.375 0.71429,0.89286 4.27232,4.10268 5.34375,4.90625 1.07143,0.80357 3.04018,2.5 3.84375,3.75 0.40179,0.625 0.77009,1.54018 1.25,2.34375 0.23996,0.40179 0.49023,0.78348 0.8125,1.0625 0.32227,0.27902 0.70982,0.45536 1.15625,0.5 1.78572,0.17857 2.75,-0.25446 5.875,-0.34375 1.5625,-0.0447 2.77232,-0.0893 3.6875,0 0.91518,0.0893 1.53571,0.32143 1.9375,0.8125 0.40179,0.49107 0.69643,1.05804 0.875,1.75 0.17857,0.69196 0.26339,1.5 0.21875,2.4375 -0.0447,0.9375 -0.0759,1.67411 -0.1875,2.5 -0.11161,0.82589 -0.31697,1.73661 -0.71875,3.03125 -0.80357,2.58929 -1.25446,4.01785 -1.96875,5.625 -0.35714,0.80358 -0.73214,1.57143 -1.15625,2.21875 -0.42411,0.64732 -0.90179,1.17411 -1.4375,1.53125 -0.53571,0.35714 -0.75,0.60491 -1.375,0.75 -0.625,0.14509 -1.63839,0.2009 -3.78125,0.15625 -2.14286,-0.0447 -3.54911,-0.3192 -4.6875,-0.375 -0.5692,-0.0279 -1.09989,-0.008 -1.59375,0.125 -0.49386,0.13253 -0.96429,0.37946 -1.5,0.78125 -1.07143,0.80358 -2.02009,1.53572 -2.8125,2.25 -0.79241,0.71428 -1.41518,1.41071 -1.90625,2.125 -0.98214,1.42858 -5.78342,7.16632 -7.59375,9.1875 -0.90517,1.01059 -1.22183,1.60309 -1.53125,2.03125 -0.30942,0.42816 -0.60714,0.69196 -1.5,1.09375 -0.89286,0.40179 -1.36384,0.82812 -1.6875,1.21875 -0.32366,0.39063 -0.5,0.76339 -0.8125,1.03125 -0.3125,0.26786 -1.64286,1.69866 -3.09375,3.09375 -0.72545,0.69754 -1.47266,1.39146 -2.15625,1.90625 -0.68359,0.51479 -1.29464,0.85268 -1.71875,0.875 -1.69643,0.0893 -10.26339,-0.78571 -14.90625,-0.875 -4.64286,-0.0893 -11.07589,0.26786 -13.84375,0 -1.38393,-0.13393 -2.52232,-0.46429 -3.4375,-0.84375 -0.91518,-0.37946 -1.60268,-0.81696 -2.09375,-1.21875 -0.49107,-0.40179 -1.38393,-1.84821 -2.34375,-3.1875 -0.47991,-0.66964 -0.99721,-1.3125 -1.46875,-1.78125 -0.47154,-0.46875 -0.90179,-0.77233 -1.28125,-0.75 -0.75893,0.0447 -1.35938,-0.13393 -2.21875,0 -0.42969,0.067 -0.9216,0.20982 -1.53125,0.5 -0.60965,0.29018 -1.35714,0.72768 -2.25,1.375 -1.78571,1.29464 -2.61161,1.77232 -3.4375,2.375 -0.82589,0.60268 -1.65179,1.32589 -3.4375,3.15625 -1.78571,1.83036 -3.00223,2.83036 -3.90625,3.65625 -0.90402,0.82589 -1.47767,1.47767 -1.96875,2.59375 -0.24554,0.55804 -0.54376,0.98876 -0.875,1.34375 -0.33124,0.35499 -0.70376,0.64458 -1.0625,0.96875 -0.35874,0.32417 -0.70321,0.65942 -1.03125,1.125 -0.32804,0.46558 -0.63585,1.06455 -0.875,1.84375 -0.23915,0.7792 -0.28552,1.87538 -0.21875,3.125 0.0668,1.24962 0.23486,2.62895 0.40625,3.96875 0.17139,1.3398 0.36277,2.63775 0.4375,3.6875 0.0747,1.04975 0.0357,1.87054 -0.1875,2.25 -0.89286,1.51786 -2.9375,3.38839 -3.5625,4.28125 -0.625,0.89286 -1.72627,2.21947 -2.78125,3.3125 -1.05498,1.09303 -2.49107,2.14732 -3.5625,3.21875 -0.53571,0.53571 -1.23884,1.08928 -1.875,1.78125 -0.63616,0.692 -1.21875,1.5178 -1.53125,2.5 -0.3125,0.9822 -0.8192,1.5179 -1.03125,2.0313 -0.10603,0.2566 -0.13867,0.5307 -0.0312,0.8124 0.10742,0.2819 0.36607,0.5983 0.8125,1 0.44643,0.4018 0.9428,0.6211 1.46875,0.7188 0.52595,0.098 1.07478,0.06 1.59375,-0.062 1.03794,-0.2455 1.97768,-0.8437 2.46875,-1.4687 0.49107,-0.625 1.31473,-1.7679 2.375,-2.75 0.53013,-0.4911 1.11523,-0.9521 1.75,-1.2813 0.63477,-0.3292 1.31696,-0.5313 2.03125,-0.5313 2.85715,0 12.94642,0.5491 14.375,0.9063 0.35715,0.089 0.71456,0.2779 1.03125,0.5625 0.31669,0.2846 0.60379,0.6607 0.84375,1.0625 0.47991,0.8036 0.7634,1.7589 0.71875,2.5625 -0.0447,0.8035 -0.26786,1.8928 -0.625,3.0312 -0.35714,1.1386 -0.85715,2.3303 -1.4375,3.3126 -1.16071,1.9642 -3.20536,5.3615 -4.1875,6.9687 -0.24554,0.4018 -0.33034,1.1257 -0.34375,2.0313 -0.0134,0.9054 0.0375,1.9986 0.0937,3.125 0.0562,1.1261 0.0991,2.2799 0.0625,3.3437 -0.0366,1.0638 -0.14558,2.0317 -0.4375,2.75 -0.29192,0.7183 -0.65341,1.281 -1.0625,1.7813 -0.40909,0.5 -0.86093,0.9229 -1.3125,1.3124 -0.90315,0.7794 -1.8125,1.4553 -2.4375,2.4376 -0.625,0.982 -0.77902,1.694 -1.125,2.375 -0.17299,0.3403 -0.39983,0.6782 -0.75,1.0312 -0.35017,0.353 -0.83929,0.7322 -1.53125,1.1562 -1.38393,0.8484 -1.92857,1.5203 -2.53125,2 -0.30134,0.2401 -0.61328,0.4355 -1.0625,0.5626 -0.44922,0.1268 -1.01786,0.1874 -1.84375,0.1874 -3.30357,0 -11.78571,-0.5177 -12.5,-0.25 -0.35715,0.1341 -1.17634,-0.04 -1.96875,-0.062 -0.39621,-0.011 -0.79157,0.016 -1.125,0.125 -0.33343,0.1087 -0.59375,0.29 -0.75,0.625 -0.3125,0.6695 -0.43304,0.9039 -0.5,1.25 -0.067,0.3458 -0.0804,0.8079 -0.125,1.9687 -0.0446,1.1608 -0.22545,1.5871 -0.28125,2 -0.0558,0.4129 0.0223,0.8258 0.46875,2.0313 0.89286,2.4105 1.58482,3.3972 2.03125,4.4687 0.22321,0.5358 1.52232,2.0356 2.75,3.5313 1.22768,1.4954 2.39285,2.9642 2.4375,3.5 0.0446,0.5356 0.39733,1.5446 0.6875,2.5937 0.29017,1.0491 0.50893,2.1607 0.375,2.875 -0.13393,0.7143 -0.19866,1.5156 -0.34375,2.375 -0.14509,0.8594 -0.36607,1.7814 -0.8125,2.7187 -0.44643,0.9377 -0.65625,2.2189 -0.96875,3.625 -0.3125,1.4064 -0.72768,2.9285 -1.53125,4.3126 -0.80357,1.3838 -2.36831,3.3503 -3.875,5.125 -1.50669,1.7744 -2.95089,3.3391 -3.53125,3.875 -1.16072,1.0714 -3.75445,4.0312 -3.84375,4.6562 -0.0446,0.3125 -0.29899,2.1034 -0.46875,4.1875 -0.16976,2.0841 -0.23299,4.4675 0.125,5.9687 0.35799,1.5015 0.86313,2.8283 1.53125,4.0313 0.66812,1.203 1.48985,2.271 2.5,3.2813 1.01015,1.01 1.05743,1.8999 1.5625,2.5312 0.25254,0.3157 0.63412,0.5764 1.28125,0.75 0.64713,0.1736 1.57979,0.25 2.96875,0.25 2.77792,0 4.92132,0.1875 6.53125,0.1875 0.80497,0 1.48277,-0.045 2.03125,-0.1875 0.54848,-0.142 0.96558,-0.3712 1.28125,-0.75 0.63135,-0.7576 0.93591,-1.524 1.09375,-2.25 0.15784,-0.726 0.15625,-1.3999 0.15625,-2.0312 0,-0.3158 0.33899,-0.749 0.8125,-1.25 0.47351,-0.5013 1.0874,-1.0719 1.71875,-1.6876 0.63135,-0.6154 1.27649,-1.2786 1.75,-1.9374 0.47351,-0.6591 0.78125,-1.3374 0.78125,-1.9688 0,-1.2627 -0.31123,-3.3848 -0.4375,-5.5312 -0.0631,-1.0734 -0.0947,-2.1623 0,-3.125 0.0947,-0.9629 0.30869,-1.8061 0.6875,-2.4376 0.75761,-1.2625 0.55869,-2.0887 0.9375,-2.5937 0.1894,-0.2525 0.52459,-0.4207 1.1875,-0.5313 0.66291,-0.1103 1.67227,-0.1562 3.1875,-0.1562 3.03046,0 5.60533,0.3737 7.5625,0.5 0.97859,0.063 1.79826,0.048 2.4375,-0.094 0.63924,-0.1419 1.09121,-0.4011 1.34375,-0.9062 0.25254,-0.5051 0.32434,-1.0342 0.3125,-1.5312 -0.0118,-0.4973 -0.10953,-0.9647 -0.0937,-1.375 0.0158,-0.4105 0.13335,-0.7555 0.46875,-1 0.3354,-0.2448 0.89673,-0.4063 1.84375,-0.4063 1.89404,0 3.3033,-0.2507 4.21875,-0.1875 0.45773,0.032 0.77508,0.1459 1,0.4062 0.22492,0.2606 0.34375,0.6811 0.34375,1.3126 0,1.2625 0.0631,2.3304 0,3.6562 -0.0631,1.3258 -0.24492,2.9147 -0.75,5.1875 -0.50508,2.2728 -0.96368,3.3964 -1.46875,4.375 -0.50507,0.9786 -1.05489,1.796 -1.8125,3.4375 -0.37881,0.8207 -0.69712,1.7253 -0.90625,2.625 -0.20913,0.8997 -0.32797,1.8042 -0.34375,2.625 -0.0158,0.8208 0.08,1.5724 0.28125,2.1562 0.20124,0.5841 0.52681,0.9981 0.96875,1.1876 0.88388,0.3786 1.1802,0.249 1.90625,0.3437 0.72605,0.095 1.88087,0.4248 4.40625,1.6875 2.52538,1.2627 5.22684,2.3361 7.53125,3.0938 2.30441,0.7574 4.20987,1.1874 5.09375,1.1874 0.44194,0 1.10555,0.3269 1.875,0.8438 0.76945,0.5169 1.63254,1.2264 2.4375,2.0312 0.80496,0.8051 1.54527,1.6983 2.09375,2.5626 0.54848,0.8641 0.90625,1.6804 0.90625,2.375 0,0.3471 -0.15734,0.7022 -0.4375,1.0312 -0.28016,0.329 -0.66759,0.6317 -1.09375,0.9375 -0.85232,0.6116 -1.86866,1.1982 -2.5,1.6875 -0.31567,0.2446 -0.53456,0.4497 -0.59375,0.6562 -0.0592,0.2068 0.0435,0.3987 0.375,0.5626 0.66291,0.3274 2.21954,0.5613 5.25,0.6874 3.03046,0.1264 5.71583,0.057 8.0625,-0.094 2.34667,-0.1503 4.37393,-0.3857 6.125,-0.5313 1.75107,-0.1453 3.2251,-0.2032 4.46875,-0.062 0.62183,0.07 1.17599,0.1802 1.6875,0.375 0.51151,0.1945 0.96279,0.4585 1.375,0.8124 0.82442,0.7083 1.31717,1.1389 1.5625,1.4376 0.24533,0.2984 0.25187,0.486 0.15625,0.6562 -0.0956,0.1702 -0.30156,0.3331 -0.5,0.6562 -0.19844,0.3234 -0.37437,0.8048 -0.4375,1.5626 -0.12627,1.5151 0.18687,2.4583 0.25,3.5 0.0316,0.5208 -0.006,1.0676 -0.1875,1.7187 -0.18151,0.6511 -0.52554,1.3968 -1.09375,2.3437 -2.27284,3.7882 -2.26855,4.5395 -3.53125,6.8126 -0.31568,0.5681 -0.37051,1.4156 -0.28125,2.4062 0.0893,0.9906 0.34493,2.1286 0.65625,3.3125 0.62264,2.3678 1.49263,4.8894 1.90625,6.6563 0.41362,1.7666 0.61619,3.5692 0.9375,5.125 0.16065,0.7777 0.37539,1.4926 0.625,2.125 0.24961,0.6322 0.55548,1.1689 0.96875,1.5937 0.41327,0.4248 0.8641,0.612 1.3125,0.6563 0.4484,0.044 0.87917,-0.035 1.3125,-0.094 0.43333,-0.059 0.85071,-0.1158 1.21875,0 0.36804,0.1158 0.68496,0.4004 0.9375,0.9688 0.50508,1.1363 1.2749,2.2687 1.90625,3.5 0.31567,0.6154 0.60731,1.2628 0.8125,1.9374 0.20519,0.6749 0.3125,1.3676 0.3125,2.125 0,1.5154 0.33741,3.0481 0.96875,4.5 0.63134,1.4522 1.58106,2.8311 2.84375,4.0938 1.2627,1.2627 2.02015,2.6449 3.125,3.7812 0.55243,0.5684 1.16741,1.0742 2,1.4688 0.83259,0.3946 1.86167,0.6862 3.1875,0.8125 2.65165,0.2526 5.31741,0.3125 7.9375,0.3125 2.62009,0 5.19337,-0.062 7.71875,-0.062 2.52538,0 4.671,-0.3737 6.3125,-0.5 0.82075,-0.063 1.51007,-0.08 2.0625,0.062 0.55243,0.142 0.96621,0.4324 1.21875,0.9375 0.25254,0.5051 0.31645,1.1915 0.3125,1.9687 -0.004,0.7775 -0.0786,1.6628 -0.0312,2.5626 0.0474,0.8995 0.21857,1.8155 0.625,2.6874 0.20321,0.4362 0.46181,0.8491 0.8125,1.25 0.35069,0.4012 0.77586,0.7779 1.3125,1.125 2.14657,1.3891 3.30013,2.0874 4.53125,2.7188 1.23112,0.6314 2.53711,1.2072 5.0625,2.3438 2.52538,1.1363 5.01031,2.456 7.09375,3.7187 2.08344,1.2627 3.7711,2.46 4.78125,3.3437 1.01015,0.8841 1.211,1.1122 1.875,1.1876 0.664,0.075 1.78768,0.013 4.6875,0.3437 2.89982,0.3302 9.71766,0.3326 15.9375,0.25 6.21984,-0.083 11.83867,-0.25 12.34375,-0.25 0.50508,0 1.76602,-0.2496 3.28125,-0.2813 0.75761,-0.016 1.5855,0 2.40625,0.1563 0.82075,0.1539 1.64864,0.4331 2.40625,0.875 0.75761,0.4419 1.27808,0.9206 1.59375,1.4375 0.31567,0.5169 0.4375,1.0726 0.4375,1.625 0,1.1048 -0.52617,2.2398 -1.03125,3.25 -0.50508,1.0102 -1.30838,2.0216 -1.71875,2.9688 -0.20519,0.4734 -0.30951,0.9408 -0.21875,1.375 0.0908,0.4339 0.36929,0.8399 0.9375,1.2187 1.13642,0.7577 1.77332,1.3102 2.5625,1.5313 0.39459,0.1103 0.81863,0.1454 1.375,0.062 0.55637,-0.083 1.24112,-0.278 2.125,-0.5937 1.76777,-0.6314 2.08899,-0.8699 2.5625,-1.375 0.47351,-0.5051 1.10089,-1.2646 3.5,-2.9063 4.79823,-3.2828 6.57344,-4.5447 8.59375,-6.3124 1.01015,-0.8841 1.4889,-1.7135 2.59375,-2.25 0.55243,-0.2685 1.25958,-0.4638 2.25,-0.5626 0.99042,-0.098 2.26412,-0.095 3.96875,0.031 3.40927,0.2525 5.94844,-6e-4 7.96875,0.062 1.01015,0.032 1.88253,0.1455 2.6875,0.4375 0.80497,0.292 1.55552,0.7424 2.25,1.5 0.69448,0.7576 1.07511,1.4739 1.375,2.125 0.29989,0.6511 0.49683,1.2603 0.8125,1.7813 0.31567,0.5208 0.75817,0.9456 1.5,1.3124 0.74183,0.3671 1.79664,0.6544 3.375,0.8438 1.57836,0.1894 2.68619,0.1155 3.59375,-0.094 0.90756,-0.209 1.6177,-0.5442 2.34375,-0.8124 0.72605,-0.2685 1.46617,-0.4806 2.5,-0.4688 0.29327,0 0.84273,0.2071 1.1875,0.25 0.89331,-1.4603 1.83187,-2.9599 2.59375,-4.3438 0.90958,-1.652 1.60083,-3.1425 1.90625,-4.125 0.61084,-1.9647 0.86956,-3.1022 0.90625,-4 0.0367,-0.8977 -0.12246,-1.5523 -0.375,-2.5624 -0.50508,-2.0203 -1.53125,-7.5735 -1.53125,-9.5938 0,-0.5051 0.39773,-1.389 1.03125,-2.5 0.63352,-1.111 1.49538,-2.4559 2.40625,-3.875 0.91087,-1.4191 1.88668,-2.9143 2.71875,-4.3438 0.83207,-1.4294 1.54039,-2.7954 1.9375,-3.9374 0.79422,-2.2841 1.28723,-3.9226 1.59375,-5.6876 0.30652,-1.7649 0.40625,-3.6595 0.40625,-6.4374 0,-2.778 -6.3e-4,-6.6833 0.0625,-10.2188 0.0631,-3.5355 0.21621,-6.6748 0.46875,-7.9375 0.12627,-0.6314 0.57162,-1.267 1.21875,-1.9063 0.64713,-0.6392 1.49175,-1.3058 2.3125,-1.9687 0.82075,-0.6629 1.63412,-1.3289 2.28125,-2.0313 0.64713,-0.7023 1.12373,-1.4298 1.25,-2.1874 0.25254,-1.5153 1.11675,-4.5321 1.9375,-7.5626 0.82075,-3.0304 1.59375,-6.0785 1.59375,-7.5937 0,-0.7576 0.47724,-1.8008 1.1875,-2.9687 0.71026,-1.168 1.64673,-2.4561 2.59375,-3.7188 0.94702,-1.2627 1.91474,-2.4895 2.625,-3.5312 0.71026,-1.0418 1.15625,-1.9012 1.15625,-2.4063 0,-0.5051 0.74243,-2.0681 1.9375,-4.25 1.19507,-2.1819 2.85356,-4.9738 4.71875,-7.9063 1.86519,-2.9324 3.92713,-6.0245 5.9375,-8.7812 2.01037,-2.7567 3.96314,-5.1891 5.59375,-6.8438 1.63061,-1.6546 3.38301,-3.0148 5.125,-4.1874 1.74199,-1.1727 3.48051,-2.155 5.15625,-3.0626 1.67574,-0.9075 3.2869,-1.7342 4.71875,-2.5937 1.43185,-0.8595 2.67717,-1.7527 3.6875,-2.7813 1.01033,-1.0285 1.7673,-1.9718 2.375,-2.875 0.6077,-0.9031 1.08967,-1.7775 1.5,-2.5937 0.82066,-1.6323 1.42481,-3.1098 2.6875,-4.625 0.63135,-0.7576 1.48322,-1.4154 2.375,-2.0625 0.89178,-0.6471 1.83582,-1.3055 2.625,-2 0.78918,-0.6945 1.42644,-1.4441 1.75,-2.3438 0.16178,-0.4498 0.24144,-0.938 0.21875,-1.4687 -0.0227,-0.5307 -0.15371,-1.0874 -0.40625,-1.7187 -1.01015,-2.5254 -2.39166,-5.5678 -3.84375,-8.1563 -0.72605,-1.2942 -1.46934,-2.4826 -2.1875,-3.4375 -0.71816,-0.9549 -1.3999,-1.6837 -2.03125,-2.0625 -1.2627,-0.7576 -3.17037,-0.9911 -4.875,-1.875 -0.85231,-0.4419 -1.65748,-1.0378 -2.3125,-1.9375 -0.32751,-0.4498 -0.60404,-0.9762 -0.84375,-1.5938 -0.23971,-0.6175 -0.43623,-1.3354 -0.5625,-2.1562 -0.25254,-1.6415 -0.43655,-3.1429 -0.53125,-4.4688 -0.0947,-1.3258 -0.095,-2.4898 0.0312,-3.5 0.12627,-1.0101 0.37088,-1.868 0.78125,-2.5624 0.41037,-0.6945 0.99239,-1.215 1.75,-1.5938 0.75761,-0.3788 1.91076,-0.7103 3.28125,-1 1.37049,-0.2897 2.94178,-0.5495 4.59375,-0.7812 3.30395,-0.4635 6.83967,-0.8311 9.28125,-1.25 2.44158,-0.419 3.96255,-0.2904 5.625,-0.375 0.83122,-0.042 1.71097,-0.1327 2.75,-0.375 1.03903,-0.2424 2.23477,-0.65 3.75,-1.2813 1.51523,-0.6313 2.755,-1.1818 3.8125,-1.75 1.0575,-0.5682 1.92925,-1.1499 2.75,-1.7813 1.6415,-1.2626 3.04219,-2.7583 5.0625,-5.0312 1.01015,-1.1364 2.55644,-3.5422 4.4375,-6.625 1.88106,-3.0828 4.08728,-6.8443 6.375,-10.75 2.28772,-3.90568 4.67613,-7.95734 6.90625,-11.5625 2.23012,-3.60516 4.32297,-6.78755 6.03125,-8.96875 3.41656,-4.36241 4.98437,-7.33245 6.8125,-9.6875 0.91407,-1.17753 1.88614,-2.19424 3.1875,-3.15625 1.30136,-0.96201 2.91341,-1.87512 5.125,-2.8125 1.10579,-0.46869 2.34149,-0.75363 3.65625,-0.9375 1.31476,-0.18387 2.71541,-0.24232 4.1875,-0.21875 2.94417,0.0471 6.14253,0.43108 9.40625,0.84375 3.26372,0.41267 6.61101,0.84081 9.78125,1 1.58512,0.0796 3.10944,0.0998 4.59375,0 1.48431,-0.0998 2.91814,-0.33086 4.25,-0.6875 2.66373,-0.71329 5.53168,-1.86178 8.375,-3.21875 2.84332,-1.35697 5.66514,-2.91087 8.1875,-4.46875 2.52236,-1.55788 4.76789,-3.1215 6.46875,-4.4375 1.70086,-1.316 2.83994,-2.3999 3.21875,-3.03125 0.75761,-1.2627 3.8133,-4.28268 6.84375,-7.25 3.03045,-2.96732 6.05489,-5.86485 6.8125,-6.875 0.37881,-0.50508 2.06238,-1.51888 4.40625,-2.75 0.39775,-0.20892 0.97504,-0.46724 1.40625,-0.6875 -0.0192,-0.042 -0.0435,-0.0511 -0.0625,-0.0937 -0.56818,-1.27257 -1.04952,-2.83127 -1.53125,-4.4375 -0.48173,-1.60623 -0.96125,-3.28642 -1.4375,-4.78125 -0.47625,-1.49483 -0.94826,-2.81162 -1.5,-3.75 -1.10349,-1.87676 -1.47677,-3.29955 -2.09375,-4.4375 -0.30849,-0.56898 -0.68581,-1.05664 -1.25,-1.5 -0.56419,-0.44336 -1.30357,-0.83036 -2.375,-1.1875 -4.28572,-1.42857 -11.4241,-4.28571 -14.28125,-5 -2.85715,-0.71429 -17.14732,-5.00446 -20.71875,-5.71875 -3.57143,-0.71429 -18.5625,-3.56696 -23.5625,-4.28125 -1.25,-0.17857 -2.7433,-0.63616 -4.25,-1.25 -1.5067,-0.61384 -3.05357,-1.40179 -4.4375,-2.25 -1.38398,-0.84736 -2.5871,-1.7737 -3.4688,-2.6554 -0.44085,-0.44085 -0.81836,-0.8697 -1.0625,-1.28125 -0.24414,-0.41155 -0.375,-0.79911 -0.375,-1.15625 0,-0.71429 -0.23116,-1.77137 -0.625,-3.0625 -0.39384,-1.29113 -0.926,-2.80638 -1.5625,-4.375 -1.273,-3.13724 -2.88217,-6.51771 -4.21875,-8.96875 -1.33658,-2.45104 -2.66656,-5.05418 -4.15625,-7.34375 -0.74485,-1.14478 -1.52671,-2.21688 -2.375,-3.15625 -0.84829,-0.93937 -1.78607,-1.75108 -2.78125,-2.375 -0.99518,-0.62392 -1.94064,-1.05712 -2.875,-1.375 -0.93436,-0.31788 -1.85594,-0.51312 -2.8125,-0.625 -1.91312,-0.22375 -3.9375,-0.125 -6.4375,-0.125 -1.25,0 -2.51874,0.26547 -3.75,0.71875 -1.23126,0.45328 -2.43017,1.07042 -3.59375,1.71875 -1.16358,0.64833 -2.26554,1.35232 -3.3125,1.9375 -1.04696,0.58518 -2.02486,1.0487 -2.90625,1.3125 -1.76277,0.5276 -3.13611,0.95056 -4.28125,1.1875 -1.14514,0.23694 -2.07993,0.2923 -2.96875,0.15625 -0.88882,-0.13605 -1.39854,-0.28625 -1.8125,-0.53125 -0.41396,-0.245 -0.72768,-0.57142 -1.21875,-1.0625 -0.98214,-0.98215 -4.2991,-2.875 -4.65625,-2.875 -0.17857,0 -1.67411,-0.0513 -3.28125,-0.0625 -1.60714,-0.0112 -3.30804,0.0268 -3.84375,0.25 -1.07143,0.44643 -2.41071,1.16518 -3.75,1.96875 -0.66964,0.40179 -0.93973,0.99553 -1.375,1.375 -0.21763,0.18973 -0.47126,0.3019 -0.84375,0.34375 -0.37249,0.0418 -0.86161,0.0134 -1.53125,-0.1875 -1.33929,-0.40179 -2.48437,-1.05357 -3.5,-1.65625 -1.01563,-0.60268 -1.90179,-1.15625 -2.75,-1.46875 -0.84821,-0.3125 -1.83259,-0.48214 -2.78125,-0.59375 -0.94866,-0.11161 -1.87946,-0.17857 -2.59375,-0.3125 -0.71429,-0.13393 -1.55357,-0.30357 -2.46875,-0.59375 -0.91518,-0.29018 -1.89286,-0.70089 -2.875,-1.28125 -0.98214,-0.58036 -1.95313,-1.47098 -2.96875,-2.0625 -0.50781,-0.29576 -1.03376,-0.52539 -1.5625,-0.59375 -0.52874,-0.0684 -1.06696,0.0312 -1.625,0.34375 -2.23215,1.25 -5.84176,3.96841 -7.6875,5.34375 -1.84574,1.37534 -1.32213,0.94246 -3.46875,2.78125 -1.07331,0.9194 -2.58353,2.69026 -4.21875,4.40625 -0.81761,0.858 -1.68845,1.68919 -2.53125,2.40625 -0.8428,0.71706 -1.67763,1.30686 -2.46875,1.65625 -0.79112,0.34939 -1.57879,0.5966 -2.34375,0.75 -0.76496,0.1534 -1.48126,0.23132 -2.1875,0.25 -1.41247,0.0374 -2.67411,-0.14732 -3.65625,-0.28125 -1.96428,-0.26786 -13.3125,-1.52232 -14.5625,-1.34375 -1.25,0.17857 -11.41964,0.625 -12.3125,0.625 -0.89286,0 -4.125,-0.0937 -4.75,-0.0937 -0.3125,0 -0.32812,-0.83259 -0.40625,-1.78125 -0.0391,-0.47433 -0.10854,-0.97517 -0.21875,-1.40625 -0.11021,-0.43108 -0.26339,-0.79911 -0.53125,-1 -0.53571,-0.40179 -1.38839,-0.79241 -2.125,-1.25 -0.3683,-0.22879 -0.70926,-0.48633 -0.96875,-0.75 -0.25949,-0.26367 -0.42411,-0.53125 -0.46875,-0.84375 -0.17857,-1.25 -0.46875,-4.01785 -0.46875,-5.625 0,-1.60714 -0.35268,-7.58928 -0.53125,-8.75 -0.17857,-1.16072 -1.32589,-5.55357 -1.59375,-6 -0.26786,-0.44643 -1.97893,-2.63588 -2.875,-3.75 -0.44804,-0.55706 -0.61647,-1.09686 -0.90625,-1.59375 -0.28978,-0.49689 -0.70089,-0.94196 -1.59375,-1.34375 -0.89286,-0.40179 -2.43527,-0.55134 -3.875,-0.5625 z"
         id="path3034"
         style="fill:#ffe6d5;stroke:#000000;stroke-width:3;stroke-linecap:butt;stroke-linejoin:miter;stroke-opacity:1"
         inkscape:connector-curvature="0" />
    </a>
    <a
       transform="translate(0,447.63782)"
       xlink:href="http://en.wikipedia.org/wiki/Brong-Ahafo_Region"
       id="a3952">
      <path
         d="m 187.18304,109.60325 c 0.37657,2.79347 0.88786,5.88916 1.46875,8.375 2.49574,10.68017 9.11484,26.26174 10.125,31.3125 1.01015,5.05076 3.01602,24.25079 4.53125,27.28125 1.51523,3.03046 0.1232,16.20943 1,24.25 1.14922,10.53878 5.05743,21.21097 5.5625,31.3125 0.50508,10.10152 -3.53125,9.10469 -3.53125,11.125 0,2.0203 -5.04219,8.55742 -7.0625,9.0625 -2.0203,0.50508 -8.09455,0.5211 -11.125,1.53125 -3.03046,1.01015 -4.90267,3.06297 -5.03125,5.5625 -0.20412,3.96816 4.53712,6.56329 7.0625,9.59375 2.52538,3.03045 0.61721,8.41831 -2.03125,11.09375 -3.13594,3.16789 -7.56916,1.52109 -13.125,2.53125 -5.55584,1.01015 -7.65149,3.24741 -10.59375,6.0625 -2.73369,2.61553 -3.20432,7.11486 -6.0625,9.59375 -4.04208,3.50567 -11.62579,4.5422 -14.65625,6.5625 -3.03045,2.02031 -1,5.05822 -1,8.59375 0,3.53553 -5.55743,11.62579 -6.0625,14.65625 -0.50508,3.03046 -11.34843,14.4478 -15.15625,22.71875 -5.70598,12.39393 -10.11485,28.79965 -11.125,39.40625 -1.01015,10.6066 -3.13687,16.9791 -5.5625,25.25 -2.32353,7.92276 -8.14034,14.9731 -8.5625,23.21875 -0.3111,6.07629 3.40873,11.7077 4.53125,17.6875 0.78211,4.16639 1.02617,8.07931 1.53125,12.625 0.50507,4.54569 -5.56837,4.56329 -8.09375,7.59375 -2.52538,3.03045 -4.53125,4.53204 -4.53125,7.5625 0,3.03046 -1.53125,9.6047 -1.53125,11.625 0,2.02031 -8.07345,2.01602 -10.09375,3.53125 -1.83948,1.37961 -5.39948,3.17404 -7.8125,5.4375 0.14448,2.27242 0.26693,4.83541 0.5,6.1875 0.38137,2.21242 0.93275,4.28058 1.46875,5.96875 0.536,1.68817 1.02871,2.99365 1.28125,3.625 0.25254,0.63135 0.65054,1.49207 1.21875,2.28125 0.28411,0.39459 0.6133,0.78991 1,1.09375 0.3867,0.30384 0.83867,0.52998 1.34375,0.65625 1.01015,0.25254 2.82313,0.49905 4.875,0.59375 2.05187,0.0947 4.32471,0.0351 6.21875,-0.34375 1.89404,-0.37881 3.11168,-1.18274 4.4375,-1.65625 0.66291,-0.23675 1.35886,-0.41051 2.1875,-0.375 0.82864,0.0355 1.76919,0.27617 2.96875,0.78125 2.39911,1.01015 4.94686,2.0836 7.125,3.09375 2.17814,1.01015 3.98985,1.96114 5,2.71875 0.50508,0.37881 1.19535,1.23858 1.96875,2.375 0.7734,1.13642 1.648,2.54854 2.46875,3.9375 1.6415,2.77792 3.15117,5.55489 3.65625,6.3125 0.50508,0.75761 2.30574,2.86325 4.15625,5.43745 0.92526,1.2872 1.86653,2.6916 2.65625,4.0938 0.78972,1.4022 1.41042,2.8025 1.75,4.0938 0.33958,1.2912 0.4761,2.7876 0.46875,4.3437 -0.007,1.5561 -0.1329,3.1636 -0.3125,4.6875 -0.35919,3.0478 -0.90625,5.7386 -0.90625,6.875 0,2.2729 1.03125,15.3962 1.03125,16.4062 0,0.2526 0.35408,0.667 0.96875,1.1876 0.61467,0.5205 1.4912,1.1621 2.4375,1.8437 1.89261,1.3631 4.13531,2.9466 5.65625,4.3125 1.52094,1.3659 2.78331,3.1902 4.15625,4.9062 0.68647,0.8581 1.40921,1.6867 2.21875,2.4063 0.80954,0.7196 1.67942,1.3508 2.71875,1.7813 1.03933,0.4304 2.1897,0.638 3.375,0.7187 1.1853,0.081 2.41664,0.014 3.65625,-0.094 2.47922,-0.2153 4.97843,-0.625 7.125,-0.625 1.07329,0 2.03707,0.1399 2.96875,0.4062 0.93168,0.2663 1.84051,0.6342 2.75,1.125 1.81899,0.9817 3.70949,2.3709 6.15625,4 2.44676,1.6291 5.77148,4.1845 8.875,6.9062 1.55176,1.3609 3.04145,2.7593 4.34375,4.125 1.3023,1.3658 2.41044,2.6832 3.1875,3.875 0.77706,1.1919 1.2893,2.2625 1.65625,3.25 0.36695,0.9876 0.57786,1.8998 0.75,2.7813 0.17214,0.8815 0.30737,1.72 0.5,2.5937 0.19263,0.8738 0.4466,1.7858 0.875,2.75 0.85681,1.9285 1.95056,4.4549 3.09375,6.6876 0.57159,1.1163 1.16178,2.1412 1.75,3 0.58822,0.8587 1.15054,1.5587 1.71875,1.9374 1.13643,0.7576 2.35787,1.6181 4.0625,2.3126 0.85232,0.3472 1.80865,0.6619 2.96875,0.875 1.1601,0.213 2.51539,0.3437 4.09375,0.3437 0.78918,0 1.72819,-0.4101 2.78125,-1.0937 0.70587,-0.4583 1.52694,-1.183 2.3125,-1.875 -0.006,-0.024 -0.0255,-0.038 -0.0312,-0.063 -0.35799,-1.5012 -0.29476,-3.8846 -0.125,-5.9687 0.16976,-2.0841 0.4241,-3.875 0.46875,-4.1875 0.0893,-0.625 2.68303,-3.5848 3.84375,-4.6562 0.58036,-0.5359 2.02456,-2.1006 3.53125,-3.875 1.50669,-1.7747 3.07143,-3.7412 3.875,-5.125 0.80357,-1.3841 1.21875,-2.9062 1.53125,-4.3126 0.3125,-1.4061 0.52232,-2.6873 0.96875,-3.625 0.44643,-0.9373 0.66741,-1.8593 0.8125,-2.7187 0.14509,-0.8594 0.20982,-1.6607 0.34375,-2.375 0.13393,-0.7143 -0.0848,-1.8259 -0.375,-2.875 -0.29017,-1.0491 -0.64285,-2.0581 -0.6875,-2.5937 -0.0446,-0.5358 -1.20982,-2.0046 -2.4375,-3.5 -1.22768,-1.4957 -2.52679,-2.9955 -2.75,-3.5313 -0.44643,-1.0715 -1.13839,-2.0582 -2.03125,-4.4687 -0.44643,-1.2055 -0.52455,-1.6184 -0.46875,-2.0313 0.0558,-0.4129 0.2366,-0.8392 0.28125,-2 0.0446,-1.1608 0.058,-1.6229 0.125,-1.9687 0.067,-0.3461 0.1875,-0.5805 0.5,-1.25 0.15625,-0.335 0.41657,-0.5163 0.75,-0.625 0.33343,-0.109 0.72879,-0.1363 1.125,-0.125 0.79241,0.022 1.6116,0.1965 1.96875,0.062 0.71429,-0.2677 9.19643,0.25 12.5,0.25 0.82589,0 1.39453,-0.061 1.84375,-0.1874 0.44922,-0.1271 0.76116,-0.3225 1.0625,-0.5626 0.60268,-0.4797 1.14732,-1.1516 2.53125,-2 0.69196,-0.424 1.18108,-0.8032 1.53125,-1.1562 0.35017,-0.353 0.57701,-0.6909 0.75,-1.0312 0.34598,-0.681 0.5,-1.393 1.125,-2.375 0.625,-0.9823 1.53435,-1.6582 2.4375,-2.4376 0.45157,-0.3895 0.90341,-0.8124 1.3125,-1.3124 0.40909,-0.5003 0.77058,-1.063 1.0625,-1.7813 0.29192,-0.7183 0.4009,-1.6862 0.4375,-2.75 0.0366,-1.0638 -0.006,-2.2176 -0.0625,-3.3437 -0.0562,-1.1264 -0.10716,-2.2196 -0.0937,-3.125 0.0134,-0.9056 0.0982,-1.6295 0.34375,-2.0313 0.98214,-1.6072 3.02679,-5.0045 4.1875,-6.9687 0.58035,-0.9823 1.08036,-2.174 1.4375,-3.3126 0.35714,-1.1384 0.58035,-2.2277 0.625,-3.0312 0.0447,-0.8036 -0.23884,-1.7589 -0.71875,-2.5625 -0.23996,-0.4018 -0.52706,-0.7779 -0.84375,-1.0625 -0.31669,-0.2846 -0.6741,-0.4732 -1.03125,-0.5625 -1.42858,-0.3572 -11.51785,-0.9063 -14.375,-0.9063 -0.71429,0 -1.39648,0.2021 -2.03125,0.5313 -0.63477,0.3292 -1.21987,0.7902 -1.75,1.2813 -1.06027,0.9821 -1.88393,2.125 -2.375,2.75 -0.49107,0.625 -1.43081,1.2232 -2.46875,1.4687 -0.51897,0.1228 -1.0678,0.1602 -1.59375,0.062 -0.52595,-0.098 -1.02232,-0.317 -1.46875,-0.7188 -0.44643,-0.4017 -0.70508,-0.7181 -0.8125,-1 -0.10742,-0.2817 -0.0748,-0.5558 0.0312,-0.8124 0.21205,-0.5134 0.71875,-1.0491 1.03125,-2.0313 0.3125,-0.9822 0.89509,-1.808 1.53125,-2.5 0.63616,-0.69197 1.33929,-1.24554 1.875,-1.78125 1.07143,-1.07143 2.50752,-2.12572 3.5625,-3.21875 1.05498,-1.09303 2.15625,-2.41964 2.78125,-3.3125 0.625,-0.89286 2.66964,-2.76339 3.5625,-4.28125 0.22321,-0.37946 0.26223,-1.20025 0.1875,-2.25 -0.0747,-1.04975 -0.26611,-2.3477 -0.4375,-3.6875 -0.17139,-1.3398 -0.33948,-2.71913 -0.40625,-3.96875 -0.0668,-1.24962 -0.0204,-2.3458 0.21875,-3.125 0.23915,-0.7792 0.54696,-1.37817 0.875,-1.84375 0.32804,-0.46558 0.67251,-0.80083 1.03125,-1.125 0.35874,-0.32417 0.73126,-0.61376 1.0625,-0.96875 0.33124,-0.35499 0.62946,-0.78571 0.875,-1.34375 0.49108,-1.11608 1.06473,-1.76786 1.96875,-2.59375 0.90402,-0.82589 2.12054,-1.82589 3.90625,-3.65625 1.78571,-1.83036 2.61161,-2.55357 3.4375,-3.15625 0.82589,-0.60268 1.65179,-1.08036 3.4375,-2.375 0.89286,-0.64732 1.64035,-1.08482 2.25,-1.375 0.60965,-0.29018 1.10156,-0.43304 1.53125,-0.5 0.85937,-0.13393 1.45982,0.0447 2.21875,0 0.37946,-0.0223 0.80971,0.28125 1.28125,0.75 0.47154,0.46875 0.98884,1.11161 1.46875,1.78125 0.95982,1.33929 1.85268,2.78571 2.34375,3.1875 0.49107,0.40179 1.17857,0.83929 2.09375,1.21875 0.91518,0.37946 2.05357,0.70982 3.4375,0.84375 2.76786,0.26786 9.20089,-0.0893 13.84375,0 4.64286,0.0893 13.20982,0.9643 14.90625,0.875 0.42411,-0.0223 1.03516,-0.36021 1.71875,-0.875 0.68359,-0.51479 1.4308,-1.20871 2.15625,-1.90625 1.45089,-1.39509 2.78125,-2.82589 3.09375,-3.09375 0.3125,-0.26786 0.48884,-0.64062 0.8125,-1.03125 0.32366,-0.39063 0.79464,-0.81696 1.6875,-1.21875 0.89286,-0.40179 1.19058,-0.66559 1.5,-1.09375 0.30942,-0.42816 0.62608,-1.02066 1.53125,-2.03125 1.81033,-2.02118 6.61161,-7.75892 7.59375,-9.1875 0.49107,-0.71429 1.11384,-1.41072 1.90625,-2.125 0.79241,-0.71428 1.74107,-1.44642 2.8125,-2.25 0.53571,-0.40179 1.00614,-0.64872 1.5,-0.78125 0.49386,-0.13253 1.02455,-0.1529 1.59375,-0.125 1.13839,0.0558 2.54464,0.33035 4.6875,0.375 2.14286,0.0447 3.15625,-0.0112 3.78125,-0.15625 0.625,-0.14509 0.83929,-0.39286 1.375,-0.75 0.53571,-0.35714 1.01339,-0.88393 1.4375,-1.53125 0.42411,-0.64732 0.79911,-1.41517 1.15625,-2.21875 0.71429,-1.60715 1.16518,-3.03571 1.96875,-5.625 0.40178,-1.29464 0.60714,-2.20536 0.71875,-3.03125 0.11161,-0.82589 0.14285,-1.5625 0.1875,-2.5 0.0446,-0.9375 -0.0402,-1.74554 -0.21875,-2.4375 -0.17857,-0.69196 -0.47321,-1.25893 -0.875,-1.75 -0.40179,-0.49107 -1.02232,-0.72321 -1.9375,-0.8125 -0.91518,-0.0893 -2.125,-0.0447 -3.6875,0 -3.125,0.0893 -4.08928,0.52232 -5.875,0.34375 -0.44643,-0.0446 -0.83398,-0.22098 -1.15625,-0.5 -0.32227,-0.27902 -0.57254,-0.66071 -0.8125,-1.0625 -0.47991,-0.80357 -0.84821,-1.71875 -1.25,-2.34375 -0.80357,-1.25 -2.77232,-2.94643 -3.84375,-3.75 -1.07143,-0.80357 -4.62946,-4.01339 -5.34375,-4.90625 -0.35714,-0.44642 -1.18303,-1.45982 -2.03125,-2.375 -0.84822,-0.91518 -1.74554,-1.75446 -2.28125,-1.84375 -1.07143,-0.17857 -5.26339,0 -8.65625,0 -1.69643,0 -2.70536,-0.0513 -3.53125,-0.21875 -0.82589,-0.16741 -1.45536,-0.44642 -2.4375,-0.9375 -0.98214,-0.49108 -1.5558,-1.04241 -2.125,-1.65625 -0.5692,-0.61384 -1.125,-1.28571 -2.0625,-2 -1.875,-1.42857 -3.14732,-3.03125 -3.59375,-3.03125 -0.22321,0 -1.82813,0.0134 -3.625,-0.0312 -1.79687,-0.0446 -3.76339,-0.13839 -4.65625,-0.40625 -0.89286,-0.26786 -1.22768,-0.47991 -1.5625,-0.9375 -0.33482,-0.45759 -0.67411,-1.17411 -1.65625,-2.46875 -0.49107,-0.64732 -0.78683,-1.19364 -0.9375,-1.6875 -0.15067,-0.49386 -0.16964,-0.93973 -0.125,-1.375 0.0893,-0.87053 0.4375,-1.70089 0.4375,-2.90625 0,-1.20536 0.16741,-2.55803 0.46875,-3.875 0.30134,-1.31697 0.72768,-2.60268 1.21875,-3.71875 0.98214,-2.23214 2.41964,-4.7366 3.3125,-6.34375 0.44643,-0.80358 0.94866,-1.23884 1.5625,-1.5625 0.61384,-0.32366 1.33929,-0.53571 2.1875,-0.9375 0.84821,-0.40179 2.61384,-0.51116 4.34375,-0.5 1.72991,0.0112 3.40625,0.12946 4.03125,0.21875 0.625,0.0893 3.50802,0.28625 6.65625,0.40625 3.14823,0.12 6.56166,0.18537 8.34375,0.0625 1.78209,-0.12287 3.13972,-0.4392 4.15625,-0.6875 1.01653,-0.2483 1.69642,-0.4509 2.1875,-0.40625 0.98215,0.0893 9.64285,0.44195 10.625,0.53125 0.98215,0.0893 10.375,0.19642 11,0.375 0.3125,0.0893 1.9442,-0.125 3.5625,-0.28125 1.6183,-0.15625 3.20089,-0.26786 3.46875,0 0.26786,0.26786 0.72098,1.09375 1.15625,2.1875 0.43527,1.09375 0.87054,2.47321 1.09375,3.8125 0.22321,1.33929 0.33929,2.52009 0.5625,3.78125 0.22321,1.26116 0.54911,2.59821 1.21875,4.25 0.66964,1.65179 1.375,2.61384 2.15625,3.40625 0.78125,0.79241 1.625,1.41964 2.5625,2.3125 1.875,1.78571 2.43303,1.95536 4.21875,3.5625 0.89286,0.80357 1.54688,1.23884 2.25,1.5625 0.70312,0.32366 1.44196,0.53571 2.46875,0.9375 0.51339,0.20089 1.09375,0.29715 1.71875,0.3125 0.625,0.0154 1.29911,-0.0614 1.96875,-0.15625 1.33929,-0.18973 2.69643,-0.50892 3.8125,-0.6875 1.11607,-0.17858 3.46875,0.15848 5.8125,0.59375 2.34375,0.43527 4.66518,0.96429 5.78125,1.1875 1.11608,0.22321 2.83187,0.21265 4.59375,-0.0312 1.76188,-0.2439 3.57428,-0.73005 4.875,-1.40625 0.65036,-0.3381 1.20167,-0.76331 1.6875,-1.25 0.48583,-0.48669 0.90719,-1.01821 1.3125,-1.5625 0.81061,-1.08857 1.53871,-2.19568 2.53125,-2.96875 0.99254,-0.77308 1.88653,-1.6263 2.84375,-2.28125 0.47861,-0.32747 0.98321,-0.59847 1.53125,-0.8125 0.54804,-0.21403 1.14286,-0.36161 1.8125,-0.40625 2.67857,-0.17857 8.02232,-0.62053 9.71875,-1.15625 0.42411,-0.13393 0.86133,-0.43304 1.28125,-0.8125 0.41992,-0.37946 0.82478,-0.85268 1.1875,-1.34375 0.72545,-0.98214 1.29017,-2.03125 1.46875,-2.65625 0.17858,-0.625 -0.0893,-1.45536 -0.46875,-2.28125 -0.37946,-0.82589 -0.89286,-1.65625 -1.25,-2.28125 -0.35714,-0.625 -1.04464,-2.01562 -1.625,-3.34375 -0.58036,-1.32813 -1.02679,-2.59821 -0.9375,-3 0.0893,-0.40179 1.03795,-1.58036 2.03125,-2.71875 0.9933,-1.13839 2.02679,-2.24554 2.25,-2.46875 0.44643,-0.44643 5.86902,-4.31042 8.75,-5.875 2.88098,-1.56458 7.66071,-3.20535 8.375,-3.5625 0.71429,-0.35715 2.70089,-2.6875 2.96875,-3.3125 0.26786,-0.625 2.39285,-6.80357 2.75,-7.25 0.35715,-0.44643 2.6875,-5.16071 3.3125,-5.875 0.3125,-0.35714 1.6875,-1.02232 3.09375,-1.625 1.40625,-0.60268 2.84821,-1.16071 3.25,-1.25 0.40179,-0.0893 1.71652,-0.19866 3.15625,-0.1875 1.43973,0.0112 2.98214,0.16071 3.875,0.5625 0.89286,0.40179 1.30397,0.84686 1.59375,1.34375 0.28978,0.49689 0.45821,1.03669 0.90625,1.59375 0.89607,1.11412 2.60714,3.30357 2.875,3.75 0.26786,0.44643 1.41518,4.83928 1.59375,6 0.17857,1.16072 0.53125,7.14286 0.53125,8.75 0,1.60715 0.29018,4.375 0.46875,5.625 0.0446,0.3125 0.20926,0.58008 0.46875,0.84375 0.25949,0.26367 0.60045,0.52121 0.96875,0.75 0.73661,0.45759 1.58929,0.84821 2.125,1.25 0.26786,0.20089 0.42104,0.56892 0.53125,1 0.11021,0.43108 0.17969,0.93192 0.21875,1.40625 0.0781,0.94866 0.0937,1.78125 0.40625,1.78125 0.625,0 3.85714,0.0937 4.75,0.0937 0.89286,0 11.0625,-0.44643 12.3125,-0.625 1.25,-0.17857 12.59822,1.07589 14.5625,1.34375 0.98214,0.13393 2.24378,0.31861 3.65625,0.28125 0.70624,-0.0187 1.42254,-0.0966 2.1875,-0.25 0.76496,-0.1534 1.55263,-0.40061 2.34375,-0.75 0.79112,-0.34939 1.62595,-0.93919 2.46875,-1.65625 0.8428,-0.71706 1.71364,-1.54825 2.53125,-2.40625 1.63522,-1.71599 3.14544,-3.48685 4.21875,-4.40625 2.14662,-1.83879 1.62301,-1.40591 3.46875,-2.78125 1.84574,-1.37534 5.45535,-4.09375 7.6875,-5.34375 0.55804,-0.3125 1.09626,-0.41211 1.625,-0.34375 0.52874,0.0684 1.05469,0.29799 1.5625,0.59375 1.01562,0.59152 1.98661,1.48214 2.96875,2.0625 0.98214,0.58036 1.95982,0.99107 2.875,1.28125 0.91518,0.29018 1.75446,0.45982 2.46875,0.59375 0.71429,0.13393 1.64509,0.20089 2.59375,0.3125 0.94866,0.11161 1.93304,0.28125 2.78125,0.59375 0.84821,0.3125 1.73437,0.86607 2.75,1.46875 1.01563,0.60268 2.16071,1.25446 3.5,1.65625 0.66964,0.20089 1.15876,0.22935 1.53125,0.1875 0.37249,-0.0418 0.62612,-0.15402 0.84375,-0.34375 0.43527,-0.37947 0.70536,-0.97321 1.375,-1.375 1.33929,-0.80357 2.67857,-1.52232 3.75,-1.96875 0.53571,-0.22321 2.23661,-0.26116 3.84375,-0.25 1.60714,0.0112 3.10268,0.0625 3.28125,0.0625 0.35715,0 3.67411,1.89285 4.65625,2.875 0.49107,0.49108 0.80479,0.8175 1.21875,1.0625 0.41396,0.245 0.92368,0.3952 1.8125,0.53125 0.88882,0.13605 1.82361,0.0807 2.96875,-0.15625 1.14514,-0.23694 2.51848,-0.6599 4.28125,-1.1875 0.88139,-0.2638 1.85929,-0.72732 2.90625,-1.3125 1.04696,-0.58518 2.14892,-1.28917 3.3125,-1.9375 1.16358,-0.64833 2.36249,-1.26547 3.59375,-1.71875 1.23126,-0.45328 2.5,-0.71875 3.75,-0.71875 2.5,0 4.52438,-0.0987 6.4375,0.125 0.95656,0.11188 1.87814,0.30712 2.8125,0.625 0.93436,0.31788 1.87982,0.75108 2.875,1.375 0.99518,0.62392 1.93296,1.43563 2.78125,2.375 0.84829,0.93937 1.63015,2.01147 2.375,3.15625 1.48969,2.28957 2.81967,4.89271 4.15625,7.34375 1.33658,2.45104 2.94575,5.83151 4.21875,8.96875 0.6365,1.56862 1.16866,3.08387 1.5625,4.375 0.39384,1.29113 0.625,2.34821 0.625,3.0625 0,0.35714 0.13086,0.7447 0.375,1.15625 0.24414,0.41155 0.62165,0.8404 1.0625,1.28125 0.8817,0.8817 2.08482,1.80804 3.46875,2.65625 1.38393,0.84821 2.9308,1.63616 4.4375,2.25 1.5067,0.61384 3,1.07143 4.25,1.25 5,0.71429 19.99107,3.56696 23.5625,4.28125 3.57143,0.71429 17.8616,5.00446 20.71875,5.71875 2.85715,0.71429 9.99553,3.57143 14.28125,5 1.07143,0.35714 1.81081,0.74414 2.375,1.1875 0.56419,0.44336 0.94151,0.93102 1.25,1.5 0.61698,1.13795 0.99026,2.56074 2.09375,4.4375 0.55174,0.93838 1.02375,2.25517 1.5,3.75 0.47625,1.49483 0.95577,3.17502 1.4375,4.78125 0.48173,1.60623 0.96307,3.16493 1.53125,4.4375 0.56818,1.27257 1.2019,2.25615 1.9375,2.75 0.29776,0.1999 0.14604,0.21638 0.25,0.34375 0.62623,-0.15435 1.80992,-0.31246 4.0625,-0.34375 l 51.4062,-0.71875 c 1.5112,-0.021 2.8802,0.0896 4.1251,0.3125 1.2449,0.2229 2.3862,0.5709 3.4063,0.96875 1.0199,0.39785 1.9137,0.87113 2.75,1.375 0.836,0.50387 1.5875,1.02154 2.2812,1.5625 1.3873,1.08192 2.5605,2.18331 3.625,3 0.5323,0.40834 1.018,0.73011 1.5312,0.96875 0.5135,0.23864 1.0266,0.375 1.5626,0.375 1.0713,0 2.0623,-0.22545 3,-0.59375 0.9374,-0.3683 1.8258,-0.85714 2.7186,-1.4375 1.7857,-1.16071 3.576,-2.58482 5.7187,-3.65625 1.0716,-0.53571 2.9465,-0.89063 5.1563,-1.125 2.1906,-0.23233 4.7019,-0.36084 7.0937,-0.40625 0.097,-0.68989 0.2225,-1.38543 0.25,-2.0625 0.059,-1.42862 -0.077,-2.89399 -0.125,-4.34375 -0.047,-1.44976 0.012,-2.87497 0.5,-4.21875 0.3338,-0.91752 1.0285,-1.60891 1.75,-2.3125 0.722,-0.70359 1.4613,-1.43277 1.8126,-2.34375 0.5365,-1.39303 0.707,-2.86432 0.75,-4.375 0.042,-1.51068 -0.038,-3.03841 -0.031,-4.53125 0.014,-3.3418 -0.1927,-6.69987 -0.7186,-10 -0.1162,-0.72708 -0.155,-1.50595 -0.2814,-2.25 -0.1263,-0.74405 -0.3307,-1.4488 -0.7813,-2.03125 -0.456,-0.59002 -1.0155,-1.08248 -1.625,-1.5 -0.609,-0.41752 -1.2709,-0.78145 -1.9687,-1.09375 -1.3956,-0.62459 -2.9186,-1.11144 -4.2813,-1.71875 -1.9601,-0.87378 -4.1947,-1.19584 -6.3437,-1.6875 -1.0745,-0.24583 -2.1442,-0.53675 -3.125,-0.9375 -0.9808,-0.40075 -1.8628,-0.93361 -2.6563,-1.65625 -0.6298,-0.57394 -1.1844,-1.38009 -1.5624,-2.21875 -0.3785,-0.83866 -0.5938,-1.69196 -0.5938,-2.40625 0,-0.71429 0.1005,-2.63807 0.1562,-4.84375 0.056,-2.20568 0.068,-4.70218 -0.1562,-6.59375 -0.1798,-1.51975 -0.3248,-3.07326 -0.625,-4.59375 -0.3002,-1.52049 -0.7689,-3.01689 -1.5312,-4.34375 -0.4722,-0.82129 -1.0485,-1.5253 -1.7188,-2.1875 -0.6703,-0.6622 -1.4294,-1.2809 -2.1875,-1.875 -1.5163,-1.1882 -3.0759,-2.31949 -4.2813,-3.78125 -1.2602,-1.52877 -2.2875,-3.24632 -3.2812,-4.96875 -0.9937,-1.72243 -1.9629,-3.44974 -3.1562,-5.03125 -1.1944,-1.58222 -2.7732,-2.90286 -4.25,-4.28125 -0.7387,-0.68919 -1.473,-1.39459 -2.0938,-2.15625 -0.6208,-0.76166 -1.1537,-1.5836 -1.5312,-2.5 -0.568,-1.37838 -0.8421,-2.80761 -0.9688,-4.28125 -0.1267,-1.47364 -0.1034,-2.97958 -0.031,-4.5 0.072,-1.52042 0.1898,-3.07504 0.2187,-4.59375 0.029,-1.51871 -0.025,-3.00023 -0.2813,-4.46875 -0.1815,-1.03902 -0.3585,-2.1249 -0.625,-3.15625 -0.2663,-1.03135 -0.6178,-2.0305 -1.1562,-2.9375 -0.3438,-0.57908 -0.7446,-1.15426 -1.2188,-1.65625 -0.4741,-0.50199 -1.0081,-0.9174 -1.625,-1.1875 -0.682,-0.29866 -1.4074,-0.40295 -2.1562,-0.40625 -0.7488,-0.003 -1.5399,0.0885 -2.3125,0.1875 -0.7726,0.099 -1.5276,0.21061 -2.2813,0.21875 -0.7535,0.008 -1.4959,-0.068 -2.1874,-0.34375 -1.1758,-0.4687 -2.1512,-1.27873 -3.0626,-2.1875 -0.9112,-0.90877 -1.7627,-1.91628 -2.6562,-2.8125 -1.2809,-1.28485 -2.62766,-2.57152 -3.87495,-3.90625 -1.24729,-1.33473 -2.40843,-2.72199 -3.28125,-4.3125 -0.80641,-1.46948 -1.3248,-3.05397 -1.75,-4.6875 -0.4252,-1.63353 -0.74383,-3.32948 -1.09375,-4.96875 -0.37608,-1.76183 -0.4809,-3.57125 -0.625,-5.375 -0.1441,-1.80375 -0.33643,-3.60627 -0.8125,-5.34375 -0.80345,-2.9323 -1.90934,-5.74873 -3.15625,-8.53125 -1.24691,-2.78252 -2.61698,-5.52665 -3.96875,-8.25 -1.06682,-2.14928 -2.04656,-4.38209 -3.15625,-6.53125 -0.55484,-1.07458 -1.15605,-2.1245 -1.8125,-3.125 -0.65645,-1.0005 -1.36886,-1.96671 -2.1875,-2.84375 -0.95188,-1.01979 -2.0461,-1.8681 -3.21875,-2.625 -1.17265,-0.7569 -2.4337,-1.43186 -3.6875,-2.09375 -1.2538,-0.66189 -2.49218,-1.29649 -3.6875,-2.03125 -1.19532,-0.73476 -2.34654,-1.55574 -3.34375,-2.53125 -1.20697,-1.18071 -2.23528,-2.58677 -3.1875,-4.15625 l -30,-12.625 c -1.25,0.53571 -2.44934,0.65359 -3.625,0.625 -1.17566,-0.0286 -2.34101,-0.21703 -3.53125,-0.28125 -2.64813,-0.14288 -5.3668,-0.1883 -8.03125,-0.5 -1.33222,-0.15585 -2.65227,-0.40261 -3.9375,-0.71875 -1.28523,-0.31614 -2.54582,-0.72609 -3.75,-1.28125 -1.20782,-0.55683 -2.29798,-1.25343 -3.34375,-2.0625 -1.04577,-0.80907 -2.03936,-1.71387 -3,-2.65625 -1.92127,-1.88476 -3.7391,-3.92054 -5.78125,-5.625 -3.54005,-2.95467 -7.29862,-5.69173 -10.96875,-8.5 -1.83507,-1.40414 -3.64971,-2.82302 -5.40625,-4.3125 -1.75654,-1.48948 -3.45851,-3.03139 -5.0625,-4.6875 -0.88624,-0.91504 -1.63609,-2.01558 -2.3125,-3.15625 -0.67641,-1.14067 -1.28658,-2.31508 -1.9375,-3.46875 -0.65092,-1.15367 -1.34649,-2.26474 -2.15625,-3.21875 -0.80976,-0.95401 -1.72206,-1.77078 -2.875,-2.3125 -1.02439,-0.48132 -2.13705,-0.84169 -3.3125,-1.09375 -1.17545,-0.25206 -2.41842,-0.40082 -3.6875,-0.46875 -2.53816,-0.13585 -5.21309,0.0763 -7.78125,0.40625 -5.13632,0.65989 -9.875,1.89286 -12.375,2.25 -1.25,0.17857 -2.1111,0.40981 -2.75,0.6875 -0.6389,0.27769 -1.04692,0.59035 -1.34375,0.9375 -0.59366,0.69431 -0.78536,1.48705 -1.625,2.28125 -1.20229,1.13723 -2.11526,2.54106 -3.03125,3.9375 -0.91599,1.39644 -1.82605,2.80334 -3.03125,3.9375 -1.31051,1.23326 -2.9138,2.10838 -4.5,3 -1.5862,0.89162 -3.16424,1.79082 -4.4375,3.0625 -1.12142,1.12003 -2.00325,2.42757 -2.84375,3.78125 -0.8405,1.35368 -1.6263,2.74012 -2.5,4.0625 -0.97393,1.47408 -1.72434,3.15975 -2.5625,4.75 -0.41908,0.79513 -0.86136,1.57201 -1.375,2.28125 -0.51364,0.70924 -1.08739,1.35951 -1.78125,1.90625 -0.64318,0.5068 -1.37132,0.84892 -2.15625,1.09375 -0.78493,0.24483 -1.63379,0.40864 -2.46875,0.5625 -0.83496,0.15386 -1.67549,0.29737 -2.46875,0.53125 -0.79326,0.23388 -1.52766,0.54633 -2.1875,1.03125 -1.37181,1.00815 -2.71857,2.2413 -3.8125,3.625 -0.54697,0.69185 -1.05229,1.41825 -1.4375,2.1875 -0.38521,0.76925 -0.65056,1.57058 -0.8125,2.40625 -0.15793,0.81498 -0.18691,1.63179 -0.0937,2.4375 0.0932,0.80571 0.2998,1.60553 0.5625,2.40625 0.5254,1.60144 1.31696,3.17411 2.03125,4.78125 0.35714,0.80357 0.58259,1.64286 0.75,2.46875 0.16741,0.82589 0.26786,1.66518 0.3125,2.46875 0.0893,1.60714 0,3.125 0,4.375 0,1.25 -0.018,2.53782 -0.15625,3.8125 -0.13822,1.27468 -0.3877,2.5362 -0.90625,3.6875 -0.64165,1.42459 -1.46584,2.85939 -2.46875,4.125 -0.50145,0.63281 -1.05436,1.24147 -1.65625,1.75 -0.60189,0.50853 -1.25968,0.9221 -1.96875,1.25 -0.59429,0.27482 -1.22562,0.41722 -1.90625,0.46875 -0.68063,0.0515 -1.39411,0.006 -2.09375,-0.0625 -1.39928,-0.13741 -2.77233,-0.40625 -3.84375,-0.40625 -1.07143,0 -2.35935,-0.13988 -3.53125,-0.53125 -0.58595,-0.19569 -1.12696,-0.45926 -1.625,-0.78125 -0.49804,-0.32199 -0.94649,-0.72024 -1.28125,-1.1875 -0.39904,-0.55697 -0.57872,-1.18112 -0.65625,-1.84375 -0.0775,-0.66263 -0.0485,-1.34447 0.0312,-2.0625 0.15947,-1.43605 0.47819,-2.95639 0.28125,-4.3125 -0.28217,-1.943 -0.79401,-3.86381 -1.4375,-5.71875 -0.85572,-2.46671 -2.23893,-4.70491 -3.21875,-7.125 -1.70998,-4.22356 -3.13061,-8.57044 -4.625,-12.875 -1.48158,-4.26768 -2.75866,-8.60185 -4.3125,-12.84375 -1.98457,-5.41777 -4.42168,-10.64472 -6.40625,-16.0625 -0.71218,-1.94421 -1.242,-3.9703 -1.8125,-5.96875 -0.5705,-1.99845 -1.1906,-3.96479 -2.125,-5.8125 -0.55897,-1.10531 -1.10912,-2.30233 -1.78125,-3.375 -0.67213,-1.07267 -1.46176,-2.04332 -2.5,-2.71875 -0.38162,-0.24826 -0.83804,-0.36112 -1.3125,-0.40625 -0.47446,-0.0451 -0.97397,-0.01 -1.46875,0 -0.49478,0.01 -0.96368,-0.01 -1.40625,-0.0937 -0.44257,-0.084 -0.86966,-0.23654 -1.1875,-0.5625 -0.48507,-0.49745 -0.80637,-1.11655 -1.03125,-1.8125 -0.22488,-0.69595 -0.34895,-1.4815 -0.40625,-2.25 -0.11461,-1.53699 0.0312,-3.08482 0.0312,-4.15625 0,-0.53571 0.0973,-0.96964 0.28125,-1.34375 0.18391,-0.37411 0.46001,-0.68732 0.75,-0.96875 0.57997,-0.56287 1.27525,-1.01933 1.8125,-1.625 0.75464,-0.85073 1.7751,-1.46701 2.71875,-2.15625 0.47182,-0.34462 0.91753,-0.72561 1.3125,-1.125 0.39497,-0.39939 0.73336,-0.82616 0.96875,-1.34375 0.39446,-0.86736 0.52552,-1.7958 0.53125,-2.75 0.006,-0.9542 -0.11466,-1.94965 -0.25,-2.9375 -0.13534,-0.98785 -0.28374,-1.96921 -0.3125,-2.9375 -0.0288,-0.96829 0.0808,-1.91697 0.40625,-2.8125 0.36201,-0.99604 0.93138,-1.89379 1.625,-2.71875 0.69362,-0.82496 1.48919,-1.57713 2.28125,-2.28125 0.93845,-0.83425 2.08253,-1.40181 3.21875,-1.96875 1.13622,-0.56694 2.27351,-1.1422 3.21875,-1.96875 0.92376,-0.80777 1.84867,-1.64851 2.65625,-2.59375 0.80758,-0.94524 1.51121,-1.96818 2,-3.09375 0.69409,-1.59833 1.03488,-3.33968 1.21875,-5.09375 0.18387,-1.75407 0.1885,-3.53872 0.1875,-5.28125 -10e-4,-2.16342 -0.17706,-4.32195 -0.5,-6.46875 -0.32294,-2.1468 -0.7883,-4.26849 -1.28125,-6.375 -0.25734,-1.09967 -0.43236,-2.28733 -0.71875,-3.40625 -0.28639,-1.11892 -0.66628,-2.17805 -1.40625,-3.03125 -0.69765,-0.8044 -1.62738,-1.37037 -2.625,-1.8125 -0.99762,-0.44213 -2.06759,-0.74702 -3.09375,-1.03125 -1.49587,-0.41433 -3.28915,-0.53215 -4.96875,-0.5625 -1.6796,-0.0303 -3.24107,0.0223 -4.3125,-0.15625 -2.14286,-0.35714 -2.72929,-0.47518 -3.9375,-1.09375 -1.15847,-0.5931 -2.26543,-1.28543 -3.3125,-2.0625 -1.04707,-0.77707 -2.02982,-1.62911 -3,-2.53125 -1.94035,-1.80427 -3.78521,-3.79892 -5.625,-5.75 -1.83979,-1.95108 -3.67224,-3.84212 -5.6875,-5.46875 -1.00763,-0.81331 -2.053,-1.57491 -3.15625,-2.21875 -1.10325,-0.64384 -2.26662,-1.1783 -3.5,-1.59375 -1.86237,-0.62732 -3.82702,-1.12987 -5.84375,-1.46875 -2.01673,-0.33888 -4.10924,-0.51553 -6.15625,-0.5 -2.04701,0.0155 -4.07805,0.22031 -6.03125,0.65625 -1.9532,0.43594 -3.82719,1.10892 -5.5625,2.03125 -0.80959,0.4303 -1.46871,1.00698 -2.0625,1.6875 -0.59379,0.68052 -1.12112,1.46253 -1.59375,2.28125 -0.94526,1.63745 -1.72163,3.41933 -2.75,4.9375 -1.30575,1.92767 -2.15528,4.33544 -3.1875,6.53125 -0.51611,1.09791 -1.08852,2.15803 -1.78125,3.0625 -0.69273,0.90447 -1.49857,1.68135 -2.53125,2.21875 -0.59461,0.30943 -1.27164,0.52874 -2,0.6875 -0.72836,0.15876 -1.50347,0.24276 -2.3125,0.28125 -1.61807,0.077 -3.34641,-0.0596 -4.96875,-0.28125 -3.24468,-0.44336 -6.09821,-1.22768 -6.8125,-1.40625 -0.71429,-0.17857 -3.11607,-1.25 -5.75,-2.1875 -1.31696,-0.46875 -2.69308,-0.91406 -3.9375,-1.1875 -1.24442,-0.27344 -2.35268,-0.39732 -3.15625,-0.21875 -0.40179,0.0893 -0.81138,0.33245 -1.21875,0.6875 -0.40737,0.35505 -0.81696,0.82533 -1.21875,1.375 -0.80357,1.09933 -1.56696,2.51786 -2.28125,3.96875 -1.42857,2.90179 -2.58929,5.95089 -3.125,6.84375 -0.26786,0.44643 -0.73549,0.83594 -1.34375,1.1875 -0.60826,0.35156 -1.36161,0.66071 -2.1875,0.90625 -1.65179,0.49107 -3.62054,0.75 -5.40625,0.75 -0.89286,0 -1.65737,-0.14955 -2.34375,-0.40625 -0.68638,-0.2567 -1.30357,-0.59821 -1.90625,-1 -1.20536,-0.80357 -2.36161,-1.78571 -3.96875,-2.5 -1.60714,-0.71429 -2.86392,-1.8116 -4.125,-2.75 -0.63054,-0.4692 -1.27201,-0.87869 -1.9375,-1.21875 -0.66549,-0.34006 -1.37483,-0.60001 -2.15625,-0.6875 -0.61759,-0.0692 -1.29826,-0.007 -2,0.125 -0.70174,0.13212 -1.42225,0.322 -2.09375,0.5625 -1.34299,0.481 -2.49554,1.11161 -3.03125,1.46875 -0.53571,0.35714 -1.99107,1.86161 -3.375,3.46875 -1.38393,1.60714 -2.70536,3.31696 -3.0625,4.03125 -0.35714,0.71429 -0.70177,2.34771 -1,4.25 -0.29823,1.90229 -0.5456,4.07345 -0.78125,5.75 -0.56637,4.0294 -1.20409,9.19485 -1.6875,13.8125 -0.48341,4.61765 -0.8125,8.68304 -0.8125,10.46875 0,0.89286 -0.11384,1.42076 -0.28125,1.75 -0.16741,0.32924 -0.40625,0.46429 -0.71875,0.53125 -0.3125,0.067 -0.68973,0.0502 -1.125,0.15625 -0.43527,0.10603 -0.93304,0.33482 -1.46875,0.78125 -0.53571,0.44643 -0.88505,0.9308 -1.125,1.5 -0.23995,0.5692 -0.37054,1.20536 -0.4375,1.875 -0.13393,1.33929 -0.0402,2.86161 -0.21875,4.46875 -0.0893,0.80357 -0.0636,1.59933 0.0312,2.375 0.0949,0.77567 0.26786,1.52679 0.46875,2.21875 0.40179,1.38393 0.92411,2.53571 1.28125,3.25 0.35714,0.71429 1.89732,2.78571 3.59375,4.75 0.84821,0.98214 1.74777,1.92857 2.5625,2.6875 0.81473,0.75893 1.52679,1.32143 2.0625,1.5 0.53571,0.17857 1.5543,0.15414 2.84375,0.0312 1.28945,-0.12289 2.85684,-0.33026 4.53125,-0.5 1.67441,-0.16974 3.46563,-0.31927 5.15625,-0.28125 1.69062,0.038 3.28694,0.2496 4.625,0.75 0.84965,0.31775 1.71681,0.85114 2.5625,1.46875 0.84569,0.61761 1.65884,1.33837 2.40625,2.0625 1.49481,1.44827 2.71429,2.91071 3.25,3.625 0.26786,0.35714 0.38728,1.00335 0.4375,1.8125 0.0502,0.80915 0.0357,1.77679 -0.0312,2.78125 -0.13393,2.00893 -0.40625,4.15625 -0.40625,5.40625 0,0.625 -0.22536,1.01558 -0.5625,1.28125 -0.33714,0.26567 -0.79279,0.39907 -1.3125,0.46875 -1.03942,0.13936 -2.28268,0.0396 -3.125,0.375 -1.11976,0.44587 -2.226,1.16591 -3.34375,1.71875 -0.55887,0.27642 -1.11427,0.50628 -1.6875,0.65625 -0.57323,0.14997 -1.15252,0.20362 -1.75,0.125 -0.61401,-0.0808 -1.18278,-0.31142 -1.6875,-0.65625 -0.50472,-0.34483 -0.9445,-0.79217 -1.40625,-1.25 -0.46175,-0.45783 -0.92117,-0.92395 -1.40625,-1.34375 -0.48508,-0.4198 -1.01903,-0.80052 -1.59375,-1.03125 -1.11712,-0.4485 -2.31892,-0.84293 -3.53125,-1.0625 -1.21233,-0.21957 -2.41735,-0.25535 -3.59375,0 -1.38756,0.30118 -2.68493,0.94905 -3.875,1.78125 -1.19007,0.8322 -2.28622,1.83087 -3.28125,2.84375 -0.78706,0.80118 -1.54439,1.82411 -2.25,2.90625 -0.70561,1.08214 -1.36194,2.22708 -1.96875,3.34375 -1.21362,2.23334 -2.19196,4.29464 -2.90625,5.1875 -0.71429,0.89286 -1.7447,2.35939 -2.96875,3.8125 -0.61203,0.72655 -1.26705,1.45563 -1.96875,2.09375 -0.7017,0.63812 -1.45257,1.19639 -2.21875,1.59375 -0.72113,0.37399 -1.60363,0.6397 -2.53125,0.84375 -0.92762,0.20405 -1.90796,0.35243 -2.84375,0.4375 -1.87158,0.17015 -3.56696,0.15625 -4.28125,0.15625 -1.42857,0 -17.47768,1.78125 -18.90625,1.78125 -0.71429,0 -2.29844,-0.33387 -4.03125,-0.90625 -1.73281,-0.57238 -3.6232,-1.38773 -4.90625,-2.3125 -1.01434,-0.73109 -2.09218,-1.74462 -3.125,-2.875 -1.03282,-1.13038 -2.02144,-2.36135 -2.90625,-3.5625 -1.76962,-2.40231 -3.07143,-4.62946 -3.25,-5.34375 -0.0893,-0.35714 -1.44196,-1.61384 -3.40625,-3.34375 -1.96429,-1.72991 -4.53571,-3.9375 -7.125,-6.125 -2.58929,-2.1875 -5.19196,-4.36384 -7.15625,-6.09375 -1.96429,-1.72991 -3.28571,-3.01786 -3.375,-3.375 -0.17857,-0.71429 -1.36424,-2.26739 -2.625,-4.125 -0.63038,-0.9288 -1.28975,-1.93767 -1.84375,-2.9375 -0.554,-0.99983 -1.00365,-2.00986 -1.25,-2.9375 -0.29792,-1.12183 -0.47874,-2.47046 -0.5625,-3.875 -0.0838,-1.40454 -0.0834,-2.84742 -0.0312,-4.21875 0.10432,-2.74266 0.41518,-5.09821 0.59375,-5.8125 0.0893,-0.35714 -0.20536,-0.98772 -0.71875,-1.71875 -0.51339,-0.73103 -1.25893,-1.56696 -2.0625,-2.4375 -1.60714,-1.74107 -3.48215,-3.54465 -4.375,-4.4375 -0.89286,-0.89286 -3.13393,-3.75 -5.1875,-6.5625 -2.05357,-2.8125 -3.91518,-5.56696 -4.09375,-6.28125 -0.17857,-0.71429 0.004,-2.08902 0.1875,-3.625 0.18319,-1.53598 0.35331,-3.23766 0.15625,-4.59375 -0.26257,-1.80696 -0.66478,-3.62452 -1.25,-5.375 -0.58522,-1.75048 -1.34456,-3.42048 -2.3125,-4.96875 -0.62474,-0.99929 -1.34996,-1.92833 -2.15625,-2.78125 -0.80629,-0.85292 -1.69861,-1.65488 -2.59375,-2.4375 -1.79027,-1.56523 -3.66057,-3.04077 -5.25,-4.78125 -3.13497,-3.4329 -6.16659,-6.9858 -8.9375,-10.71875 -1.74167,-2.34636 -3.14844,-4.95967 -4.625,-7.5 -0.73828,-1.27017 -1.49359,-2.51243 -2.3125,-3.71875 -0.81891,-1.20632 -1.69002,-2.36991 -2.6875,-3.4375 -1.81246,-1.93986 -4.31418,-4.10949 -7.03125,-6.28125 -2.71707,-2.17176 -5.65847,-4.3555 -8.375,-6.28125 -0.7325,-0.51927 -0.65307,-0.42692 -1.34375,-0.90625 z"
         id="path3024"
         style="fill:#ffe6d5;stroke:#000000;stroke-width:3;stroke-linecap:butt;stroke-linejoin:miter;stroke-opacity:1"
         inkscape:connector-curvature="0" />
    </a>
    <a
       transform="translate(0,447.63782)"
       xlink:href="http://en.wikipedia.org/wiki/Northern_Region_%28Ghana%29"
       id="a3924">
      <path
         d="m 743.74554,-315.803 c -0.51319,0.0828 -3.03458,0.38268 -3.28125,0.4375 -2.27284,0.50508 -5.31583,1.58328 -8.09375,2.625 -2.77792,1.04172 -5.29981,2.02745 -6.5625,2.40625 -1.26269,0.37881 -3.45232,1.29749 -5.90625,2.21875 -2.45393,0.92126 -5.16265,1.86193 -7.46875,2.34375 -2.43952,0.5097 -5.91746,0.6252 -8.90625,0.71875 -2.98879,0.0935 -5.49492,0.15244 -6,0.53125 -0.50508,0.3788 -4.55155,1.45765 -8.75,2.5625 -4.19845,1.10485 -8.55108,2.24492 -9.6875,2.75 -2.27284,1.01015 -5.79981,3.52617 -7.0625,4.03125 -0.31568,0.12627 -0.79037,0.003 -1.4375,-0.25 -0.64713,-0.25254 -1.4586,-0.62119 -2.46875,-1 -1.01015,-0.37881 -2.22026,-0.74746 -3.625,-1 -1.40474,-0.25254 -3.01285,-0.37627 -4.84375,-0.25 -0.91545,0.0631 -1.65614,0.22724 -2.25,0.5 -0.59386,0.27276 -1.05112,0.63437 -1.40625,1.0625 -0.71026,0.85626 -1.02871,1.97279 -1.28125,3.125 -0.25254,1.15221 -0.41727,2.3609 -0.875,3.375 -0.22886,0.50705 -0.53304,0.95261 -0.9375,1.34375 -0.40446,0.39114 -0.93084,0.71653 -1.59375,0.9375 -2.65165,0.88389 -5.09645,1.95828 -7.9375,3 -1.42053,0.52086 -2.94404,1.02255 -4.625,1.5 -1.68096,0.47745 -3.54156,0.93369 -5.625,1.3125 -4.16688,0.75761 -6.29791,0.81123 -7.75,0.9375 -0.72605,0.0631 -1.26797,0.15435 -1.8125,0.34375 -0.54453,0.1894 -1.08677,0.46367 -1.78125,0.96875 -1.38896,1.01015 -3.29473,1.77459 -5.0625,2.4375 -1.76777,0.66291 -3.39737,1.24365 -4.28125,1.875 -0.22097,0.15784 -0.46308,0.20476 -0.6875,0.1875 -0.22442,-0.0173 -0.43725,-0.11749 -0.65625,-0.28125 -0.438,-0.32751 -0.85573,-0.91442 -1.21875,-1.65625 -0.36302,-0.74183 -0.65797,-1.63521 -0.875,-2.5625 -0.21703,-0.92729 -0.34375,-1.86612 -0.34375,-2.75 0,-0.88388 0.14219,-1.67295 0.375,-2.34375 0.23281,-0.6708 0.54323,-1.24524 0.90625,-1.71875 0.72605,-0.94702 1.61865,-1.49747 2.25,-1.75 0.31567,-0.12627 0.41398,-0.45278 0.40625,-0.875 -0.008,-0.42222 -0.11691,-0.95356 -0.3125,-1.53125 -0.39118,-1.15537 -1.0457,-2.47191 -1.375,-3.40625 -0.4067,-1.15393 -1.21843,-2.5545 -1.9375,-3.78125 -0.71907,-1.22675 -1.34375,-2.27617 -1.34375,-2.78125 0,-0.50508 -0.55457,-1.52237 -1.34375,-2.40625 -0.39459,-0.44194 -0.85083,-0.85636 -1.3125,-1.15625 -0.46167,-0.29989 -0.93306,-0.5 -1.375,-0.5 -1.76777,0 -8.82852,-0.50254 -10.34375,-0.25 -0.37881,0.0631 -0.82352,0.44 -1.28125,0.96875 -0.45773,0.52875 -0.93306,1.21145 -1.375,1.9375 -0.88388,1.45209 -1.65371,3.0249 -1.90625,3.65625 -0.25254,0.63135 -1.76539,1.76919 -3.34375,2.96875 -1.57836,1.19956 -3.21368,2.49112 -3.71875,3.375 -0.50508,0.88388 -0.94278,2.4696 -1.46875,4.1875 -0.52597,1.7179 -1.13593,3.53911 -2.0625,4.875 -0.90043,1.2982 -2.07697,2.40079 -3.3125,3.40625 -1.23553,1.00546 -2.55273,1.91285 -3.78125,2.90625 -1.05395,0.85222 -1.99207,2.07281 -3.03125,3.0625 -0.51959,0.49484 -1.07831,0.93452 -1.65625,1.25 -0.57794,0.31548 -1.19734,0.50637 -1.875,0.5 -0.66079,-0.006 -1.36644,-0.25292 -2.0625,-0.625 -0.69606,-0.37208 -1.36055,-0.87116 -1.96875,-1.40625 -1.2164,-1.07018 -2.15499,-2.27617 -2.28125,-2.78125 -0.0631,-0.25254 -0.41098,-0.43351 -0.9375,-0.59375 -0.52652,-0.16024 -1.22523,-0.29068 -2,-0.40625 -1.54954,-0.23113 -3.37326,-0.41182 -4.625,-0.75 -3.31601,-0.89587 -8.32852,-2.77872 -9.84375,-3.03125 -0.37881,-0.0631 -0.83754,0.0567 -1.3125,0.3125 -0.47496,0.2558 -0.96851,0.64321 -1.5,1.0625 -1.06298,0.83859 -2.19861,1.84627 -3.25,2.40625 -3.82473,2.03711 -7.91442,3.55405 -11.875,5.3125 -1.42956,0.63471 -2.97727,1.05894 -4.46875,1.59375 -0.74574,0.2674 -1.49426,0.55522 -2.1875,0.90625 -0.69324,0.35103 -1.34209,0.77419 -1.9375,1.28125 -0.70661,0.60176 -1.28184,1.31375 -1.78125,2.09375 -0.49941,0.78 -0.92382,1.61826 -1.34375,2.46875 -0.41993,0.85049 -0.81308,1.71802 -1.28125,2.53125 -0.46817,0.81323 -1.01213,1.58178 -1.65625,2.25 -0.83875,0.87014 -1.8681,1.67063 -3,2.4375 -1.1319,0.76687 -2.36776,1.50537 -3.53125,2.1875 -1.16349,0.68213 -2.254,1.32159 -3.1875,1.9375 -0.9335,0.61591 -1.71431,1.21304 -2.15625,1.78125 -0.88388,1.13642 -1.43401,2.39515 -1.78125,3.5 -0.34724,1.10485 -0.46875,2.05742 -0.46875,2.5625 0,0.50508 0.98826,1.45796 2.15625,2.53125 1.16799,1.07329 2.49365,2.2711 3.125,3.28125 0.31567,0.50508 0.47238,1.07194 0.5,1.6875 0.0276,0.61556 -0.0767,1.2749 -0.21875,1.90625 -0.2841,1.26269 -0.77871,2.46114 -1.03125,3.21875 -0.12627,0.37881 -0.43306,0.80017 -0.875,1.25 -0.44194,0.44983 -1.02427,0.93338 -1.71875,1.34375 -0.69448,0.41037 -1.49112,0.77082 -2.375,1.03125 -0.88388,0.26043 -1.8336,0.40625 -2.84375,0.40625 -1.01015,0 -2.12179,-0.2383 -3.21875,-0.625 -1.09696,-0.3867 -2.17703,-0.93211 -3.21875,-1.46875 -2.08344,-1.07329 -3.92735,-2.18497 -4.9375,-2.4375 -1.01015,-0.25254 -2.81464,-1.04453 -4.71875,-2.0625 -1.90411,-1.01797 -3.90005,-2.26857 -5.375,-3.5 -1.33215,-1.11221 -2.34731,-2.52794 -3.34375,-3.96875 -0.99644,-1.44081 -1.97065,-2.91924 -3.21875,-4.125 -1.40458,-1.35693 -2.8634,-2.71643 -4.40625,-3.9375 -1.54285,-1.22107 -3.16959,-2.29516 -4.9375,-3.125 -1.83914,-0.86327 -4.49405,-1.55259 -6.84375,-2.03125 -2.3497,-0.47866 -4.3999,-0.75 -5.03125,-0.75 -0.63135,0 -3.28616,0.61739 -5.90625,1.375 -2.62009,0.75761 -5.21368,1.65117 -5.71875,2.15625 -0.50508,0.50508 -0.8324,1.6241 -1.15625,2.875 -0.32385,1.2509 -0.65262,2.63019 -1.125,3.6875 -0.35353,0.79129 -0.69566,1.62877 -1.09375,2.40625 -0.39809,0.77748 -0.85802,1.51178 -1.4375,2.15625 -0.9291,1.03332 -2.05431,1.80012 -3.25,2.53125 -1.19569,0.73113 -2.45582,1.40963 -3.5625,2.25 -1.90566,1.44709 -3.53176,3.2481 -5.53125,4.5625 -1.14832,0.75487 -2.57556,1.1674 -3.90625,1.65625 -0.66535,0.24443 -1.31916,0.50552 -1.90625,0.84375 -0.58709,0.33823 -1.10499,0.74235 -1.53125,1.28125 -1.07659,1.36109 -1.91216,2.86124 -2.5625,4.46875 -0.65034,1.60751 -1.09532,3.31078 -1.4375,5.0625 -0.34218,1.75172 -0.56666,3.55001 -0.71875,5.34375 -0.15209,1.79374 -0.23241,3.57895 -0.3125,5.3125 -0.10219,2.21205 0.1269,4.49384 0.53125,6.71875 0.40435,2.2249 0.96367,4.41719 1.46875,6.4375 0.12627,0.50508 0.36484,0.96078 0.65625,1.375 0.29141,0.41422 0.64332,0.77913 1.0625,1.125 0.83836,0.69174 1.90599,1.25911 3.03125,1.8125 1.12526,0.55339 2.29302,1.09239 3.40625,1.6875 1.11323,0.59511 2.16649,1.24561 2.96875,2.0625 1.43998,1.46623 3.66746,3.07813 5.3125,4.78125 0.82252,0.85156 1.49481,1.73619 1.84375,2.625 0.17447,0.4444 0.29078,0.89278 0.28125,1.34375 -0.01,0.45097 -0.13774,0.9193 -0.375,1.375 -0.21381,0.41066 -0.49993,0.71292 -0.84375,0.9375 -0.34382,0.22458 -0.74493,0.3605 -1.1875,0.4375 -0.88514,0.154 -1.9386,0.0491 -3.03125,-0.15625 -2.1853,-0.41066 -4.54727,-1.21875 -6.0625,-1.21875 -0.75761,0 -1.70848,0.14251 -2.78125,0.40625 -1.07277,0.26374 -2.25698,0.63022 -3.46875,1.09375 -2.42353,0.92706 -4.95238,2.18872 -6.875,3.53125 -1.46735,1.02462 -2.89627,2.2113 -4.125,3.5625 -1.22873,1.3512 -2.2487,2.87943 -2.9375,4.53125 -0.45473,1.0905 -0.7249,2.21272 -0.875,3.375 -0.1501,1.16228 -0.16756,2.36177 -0.15625,3.5625 0.0226,2.40146 0.22245,4.83222 0.0312,7.1875 -0.15043,1.85349 0.19754,3.91674 0.28125,5.875 0.0419,0.97913 -0.004,1.95803 -0.1875,2.84375 -0.18319,0.88572 -0.52772,1.69367 -1.125,2.40625 -0.30828,0.36778 -0.65344,0.63383 -1.0625,0.84375 -0.40906,0.20992 -0.86257,0.3717 -1.34375,0.46875 -0.96236,0.1941 -2.04615,0.20618 -3.125,0.21875 -1.07885,0.0126 -2.15898,0.0278 -3.125,0.21875 -0.48301,0.0955 -0.93194,0.2299 -1.34375,0.4375 -0.41181,0.2076 -0.78181,0.47906 -1.09375,0.84375 -0.49549,0.57927 -0.67739,1.29169 -0.6875,2.09375 -0.0101,0.80206 0.14165,1.69799 0.28125,2.5625 0.1396,0.86451 0.26511,1.70214 0.21875,2.46875 -0.0464,0.76661 -0.27576,1.46037 -0.84375,1.96875 -0.43907,0.39299 -0.89913,0.69133 -1.40625,0.90625 -0.50712,0.21492 -1.0639,0.33256 -1.625,0.40625 -1.12219,0.14737 -2.3089,0.0715 -3.5625,-0.125 -1.2536,-0.19649 -2.57137,-0.50438 -3.84375,-0.75 -1.27238,-0.24562 -2.50899,-0.4375 -3.6875,-0.4375 h -33.34375 c -1.01015,0 -1.8819,0.18464 -2.75,0.46875 -0.8681,0.28411 -1.74048,0.65244 -2.6875,1.03125 -0.94702,0.37881 -1.97184,0.77839 -3.21875,1.0625 -1.24691,0.28411 -2.70098,0.46875 -4.46875,0.46875 h -25.25 c -2.02031,0 -7.91671,-0.2363 -14.78125,-0.34375 -3.43227,-0.0537 -7.1064,-0.0716 -10.65625,-0.0312 -3.54985,0.0403 -6.99907,0.1601 -9.9375,0.375 -2.88518,0.21101 -6.08768,0.61193 -9.375,1.125 -3.28732,0.51307 -6.6507,1.14016 -9.84375,1.71875 -3.19305,0.57859 -6.21015,1.12368 -8.8125,1.53125 -2.60235,0.40757 -4.79727,0.65625 -6.3125,0.65625 -1.51523,0 -2.81076,0.29826 -4,0.75 -1.18924,0.45174 -2.2481,1.0663 -3.25,1.78125 -2.00381,1.4299 -3.7887,3.21102 -5.875,4.5625 -2.31752,1.50126 -4.50459,3.20202 -6.65625,4.9375 -2.15166,1.73548 -4.26092,3.49788 -6.46875,5.15625 -2.50396,1.8808 -4.80073,4.15461 -7.21875,6.21875 -1.20901,1.03207 -2.4417,2.03581 -3.75,2.875 -1.3083,0.83919 -2.69939,1.51283 -4.1875,2 -1.04002,0.34047 -2.10249,0.53692 -3.1875,0.625 -1.08501,0.0881 -2.2039,0.0971 -3.3125,0.0312 -2.2172,-0.13145 -4.44185,-0.5011 -6.625,-0.65625 -2.90854,-0.2067 -7.04648,-0.80477 -10.84375,-1.375 1.09236,2.22254 1.75,4.89888 1.75,8.46875 0,7.07107 -1.52697,3.03284 -5.0625,9.09375 -3.53553,6.06092 1.53712,6.55314 4.0625,10.59375 2.52538,4.04061 4.85577,6.22411 7.5625,9.09375 2.53356,2.68605 6.52891,4.21809 8.09375,7.5625 3.71639,7.94277 2.00508,22.74572 1.5,26.28125 -0.50507,3.53553 -2.9522,2.10346 -4.03125,3.53125 -2.1341,2.82382 -6.07773,5.55314 -4.5625,9.59375 1.51523,4.04061 3.54806,3.02189 8.09375,7.0625 4.54568,4.04061 2.03125,4.04299 2.03125,9.09375 0,5.05077 -1.01174,0.50666 -6.0625,6.0625 -5.05076,5.55584 -4.54886,4.04807 -12.125,8.59375 -7.57615,4.54569 -3.54727,7.0801 -5.0625,14.65625 -1.51522,7.57614 -4.54648,7.07423 -3.03125,12.125 1.51523,5.05076 3.02696,3.53125 6.5625,3.53125 h 10.625 c 6.06092,0 10.08868,4.5422 10.59375,6.5625 0.50508,2.02031 -1.52538,10.09454 1,13.125 2.52539,3.03045 7.07852,9.58519 8.59375,16.65625 1.51523,7.07107 2.03125,11.63595 2.03125,13.65625 0,0.89797 0.22996,3.01496 0.53125,5.25 0.69068,0.47933 0.61125,0.38698 1.34375,0.90625 2.71653,1.92575 5.65793,4.10949 8.375,6.28125 2.71707,2.17176 5.21879,4.34139 7.03125,6.28125 0.99748,1.06759 1.86859,2.23118 2.6875,3.4375 0.81891,1.20632 1.57422,2.44858 2.3125,3.71875 1.47656,2.54033 2.88333,5.15364 4.625,7.5 2.77091,3.73295 5.80253,7.28585 8.9375,10.71875 1.58943,1.74048 3.45973,3.21602 5.25,4.78125 0.89514,0.78262 1.78746,1.58458 2.59375,2.4375 0.80629,0.85292 1.53151,1.78196 2.15625,2.78125 0.96794,1.54827 1.72728,3.21827 2.3125,4.96875 0.58522,1.75048 0.98743,3.56804 1.25,5.375 0.19706,1.35609 0.0269,3.05777 -0.15625,4.59375 -0.18319,1.53598 -0.36607,2.91071 -0.1875,3.625 0.17857,0.71429 2.04018,3.46875 4.09375,6.28125 2.05357,2.8125 4.29464,5.66964 5.1875,6.5625 0.89285,0.89285 2.76786,2.69643 4.375,4.4375 0.80357,0.87054 1.54911,1.70647 2.0625,2.4375 0.51339,0.73103 0.80804,1.36161 0.71875,1.71875 -0.17857,0.71429 -0.48943,3.06984 -0.59375,5.8125 -0.0522,1.37133 -0.0525,2.81421 0.0312,4.21875 0.0838,1.40454 0.26458,2.75317 0.5625,3.875 0.24635,0.92764 0.696,1.93767 1.25,2.9375 0.554,0.99983 1.21337,2.0087 1.84375,2.9375 1.26076,1.85761 2.44643,3.41071 2.625,4.125 0.0893,0.35714 1.41071,1.64509 3.375,3.375 1.96429,1.72991 4.56696,3.90625 7.15625,6.09375 2.58929,2.1875 5.16071,4.39509 7.125,6.125 1.96429,1.72991 3.31696,2.98661 3.40625,3.34375 0.17857,0.71429 1.48038,2.94144 3.25,5.34375 0.88481,1.20115 1.87343,2.43212 2.90625,3.5625 1.03282,1.13038 2.11066,2.14391 3.125,2.875 1.28305,0.92477 3.17344,1.74012 4.90625,2.3125 1.73281,0.57238 3.31696,0.90625 4.03125,0.90625 1.42857,0 17.47768,-1.78125 18.90625,-1.78125 0.71429,0 2.40967,0.0139 4.28125,-0.15625 0.93579,-0.0851 1.91613,-0.23345 2.84375,-0.4375 0.92762,-0.20405 1.81012,-0.46976 2.53125,-0.84375 0.76618,-0.39736 1.51705,-0.95563 2.21875,-1.59375 0.7017,-0.63812 1.35672,-1.3672 1.96875,-2.09375 1.22405,-1.45311 2.25446,-2.91964 2.96875,-3.8125 0.71429,-0.89286 1.69263,-2.95416 2.90625,-5.1875 0.60681,-1.11667 1.26314,-2.26161 1.96875,-3.34375 0.70561,-1.08214 1.46294,-2.10507 2.25,-2.90625 0.99503,-1.01288 2.09118,-2.01155 3.28125,-2.84375 1.19007,-0.8322 2.48744,-1.48007 3.875,-1.78125 1.1764,-0.25535 2.38142,-0.21957 3.59375,0 1.21233,0.21957 2.41413,0.614 3.53125,1.0625 0.57472,0.23073 1.10867,0.61145 1.59375,1.03125 0.48508,0.4198 0.9445,0.88592 1.40625,1.34375 0.46175,0.45783 0.90153,0.90517 1.40625,1.25 0.50472,0.34483 1.07349,0.57545 1.6875,0.65625 0.59748,0.0786 1.17677,0.025 1.75,-0.125 0.57323,-0.14997 1.12863,-0.37983 1.6875,-0.65625 1.11775,-0.55284 2.22399,-1.27288 3.34375,-1.71875 0.84232,-0.3354 2.08558,-0.23564 3.125,-0.375 0.51971,-0.0697 0.97536,-0.20308 1.3125,-0.46875 0.33714,-0.26567 0.5625,-0.65625 0.5625,-1.28125 0,-1.25 0.27232,-3.39732 0.40625,-5.40625 0.067,-1.00446 0.0815,-1.9721 0.0312,-2.78125 -0.0502,-0.80915 -0.16964,-1.45536 -0.4375,-1.8125 -0.53571,-0.71429 -1.75519,-2.17673 -3.25,-3.625 -0.74741,-0.72413 -1.56056,-1.44489 -2.40625,-2.0625 -0.84569,-0.61761 -1.71285,-1.151 -2.5625,-1.46875 -1.33806,-0.5004 -2.93438,-0.71198 -4.625,-0.75 -1.69062,-0.038 -3.48184,0.11151 -5.15625,0.28125 -1.67441,0.16974 -3.2418,0.37711 -4.53125,0.5 -1.28945,0.12289 -2.30804,0.14727 -2.84375,-0.0312 -0.53571,-0.17857 -1.24777,-0.74107 -2.0625,-1.5 -0.81473,-0.75893 -1.71429,-1.70536 -2.5625,-2.6875 -1.69643,-1.96429 -3.23661,-4.03571 -3.59375,-4.75 -0.35714,-0.71429 -0.87946,-1.86607 -1.28125,-3.25 -0.20089,-0.69196 -0.37388,-1.44308 -0.46875,-2.21875 -0.0949,-0.77567 -0.12059,-1.57143 -0.0312,-2.375 0.17857,-1.60714 0.0848,-3.12946 0.21875,-4.46875 0.067,-0.66964 0.19755,-1.3058 0.4375,-1.875 0.23995,-0.5692 0.58929,-1.05357 1.125,-1.5 0.53571,-0.44643 1.03348,-0.67522 1.46875,-0.78125 0.43527,-0.10603 0.8125,-0.0893 1.125,-0.15625 0.3125,-0.067 0.55134,-0.20201 0.71875,-0.53125 0.16741,-0.32924 0.28125,-0.85714 0.28125,-1.75 0,-1.78571 0.32909,-5.8511 0.8125,-10.46875 0.48341,-4.61765 1.12113,-9.7831 1.6875,-13.8125 0.23565,-1.67655 0.48302,-3.84771 0.78125,-5.75 0.29823,-1.90229 0.64286,-3.53571 1,-4.25 0.35714,-0.71429 1.67857,-2.42411 3.0625,-4.03125 1.38393,-1.60714 2.83929,-3.11161 3.375,-3.46875 0.53571,-0.35714 1.68826,-0.98775 3.03125,-1.46875 0.6715,-0.2405 1.39201,-0.43038 2.09375,-0.5625 0.70174,-0.13212 1.38241,-0.19415 2,-0.125 0.78142,0.0875 1.49076,0.34744 2.15625,0.6875 0.66549,0.34006 1.30696,0.74955 1.9375,1.21875 1.26108,0.9384 2.51786,2.03571 4.125,2.75 1.60714,0.71429 2.76339,1.69643 3.96875,2.5 0.60268,0.40179 1.21987,0.7433 1.90625,1 0.68638,0.2567 1.45089,0.40625 2.34375,0.40625 1.78571,0 3.75446,-0.25893 5.40625,-0.75 0.82589,-0.24554 1.57924,-0.55469 2.1875,-0.90625 0.60826,-0.35156 1.07589,-0.74107 1.34375,-1.1875 0.53571,-0.89286 1.69643,-3.94196 3.125,-6.84375 0.71429,-1.45089 1.47768,-2.86942 2.28125,-3.96875 0.40179,-0.54967 0.81138,-1.01995 1.21875,-1.375 0.40737,-0.35505 0.81696,-0.59821 1.21875,-0.6875 0.80357,-0.17857 1.91183,-0.0547 3.15625,0.21875 1.24442,0.27344 2.62054,0.71875 3.9375,1.1875 2.63393,0.9375 5.03571,2.00893 5.75,2.1875 0.71429,0.17857 3.56782,0.96289 6.8125,1.40625 1.62234,0.22168 3.35068,0.35822 4.96875,0.28125 0.80903,-0.0385 1.58414,-0.12249 2.3125,-0.28125 0.72836,-0.15876 1.40539,-0.37807 2,-0.6875 1.03268,-0.5374 1.83852,-1.31428 2.53125,-2.21875 0.69273,-0.90447 1.26514,-1.96459 1.78125,-3.0625 1.03222,-2.19581 1.88175,-4.60358 3.1875,-6.53125 1.02837,-1.51817 1.80474,-3.30005 2.75,-4.9375 0.47263,-0.81872 0.99996,-1.60073 1.59375,-2.28125 0.59379,-0.68052 1.25291,-1.2572 2.0625,-1.6875 1.73531,-0.92233 3.6093,-1.59531 5.5625,-2.03125 1.9532,-0.43594 3.98424,-0.64072 6.03125,-0.65625 2.04701,-0.0155 4.13952,0.16112 6.15625,0.5 2.01673,0.33888 3.98138,0.84143 5.84375,1.46875 1.23338,0.41545 2.39675,0.94991 3.5,1.59375 1.10325,0.64384 2.14862,1.40544 3.15625,2.21875 2.01526,1.62663 3.84771,3.51767 5.6875,5.46875 1.83979,1.95108 3.68465,3.94573 5.625,5.75 0.97018,0.90214 1.95293,1.75418 3,2.53125 1.04707,0.77707 2.15403,1.4694 3.3125,2.0625 1.20821,0.61857 1.79464,0.73661 3.9375,1.09375 1.07143,0.17857 2.6329,0.1259 4.3125,0.15625 1.6796,0.0303 3.47288,0.14817 4.96875,0.5625 1.02616,0.28423 2.09613,0.58912 3.09375,1.03125 0.99762,0.44213 1.92735,1.0081 2.625,1.8125 0.73997,0.8532 1.11986,1.91233 1.40625,3.03125 0.28639,1.11892 0.46141,2.30658 0.71875,3.40625 0.49295,2.10651 0.95831,4.2282 1.28125,6.375 0.32294,2.1468 0.49898,4.30533 0.5,6.46875 0.001,1.74253 -0.004,3.52718 -0.1875,5.28125 -0.18387,1.75407 -0.52466,3.49542 -1.21875,5.09375 -0.48879,1.12557 -1.19242,2.14851 -2,3.09375 -0.80758,0.94524 -1.73249,1.78598 -2.65625,2.59375 -0.94524,0.82655 -2.08253,1.40181 -3.21875,1.96875 -1.13622,0.56694 -2.2803,1.1345 -3.21875,1.96875 -0.79206,0.70412 -1.58763,1.45629 -2.28125,2.28125 -0.69362,0.82496 -1.26299,1.72271 -1.625,2.71875 -0.32548,0.89553 -0.43501,1.84421 -0.40625,2.8125 0.0288,0.96829 0.17716,1.94965 0.3125,2.9375 0.13534,0.98785 0.25573,1.9833 0.25,2.9375 -0.006,0.9542 -0.13679,1.88264 -0.53125,2.75 -0.23539,0.51759 -0.57378,0.94436 -0.96875,1.34375 -0.39497,0.39939 -0.84068,0.78038 -1.3125,1.125 -0.94365,0.68924 -1.96411,1.30552 -2.71875,2.15625 -0.53725,0.60567 -1.23253,1.06213 -1.8125,1.625 -0.28999,0.28143 -0.56609,0.59464 -0.75,0.96875 -0.18391,0.37411 -0.28125,0.80804 -0.28125,1.34375 0,1.07143 -0.14591,2.61926 -0.0312,4.15625 0.0573,0.7685 0.18137,1.55405 0.40625,2.25 0.22488,0.69595 0.54618,1.31505 1.03125,1.8125 0.31784,0.32596 0.74493,0.47852 1.1875,0.5625 0.44257,0.084 0.91147,0.10342 1.40625,0.0937 0.49478,-0.01 0.99429,-0.0451 1.46875,0 0.47446,0.0451 0.93088,0.15799 1.3125,0.40625 1.03824,0.67543 1.82787,1.64608 2.5,2.71875 0.67213,1.07267 1.22228,2.26969 1.78125,3.375 0.9344,1.84771 1.5545,3.81405 2.125,5.8125 0.5705,1.99845 1.10032,4.02454 1.8125,5.96875 1.98457,5.41778 4.42168,10.64473 6.40625,16.0625 1.55384,4.2419 2.83092,8.57607 4.3125,12.84375 1.49439,4.30456 2.91502,8.65144 4.625,12.875 0.97982,2.42009 2.36303,4.65829 3.21875,7.125 0.64349,1.85494 1.15533,3.77575 1.4375,5.71875 0.19694,1.35611 -0.12178,2.87645 -0.28125,4.3125 -0.0797,0.71803 -0.10883,1.39987 -0.0312,2.0625 0.0775,0.66263 0.25721,1.28678 0.65625,1.84375 0.33476,0.46726 0.78321,0.86551 1.28125,1.1875 0.49804,0.32199 1.03905,0.58556 1.625,0.78125 1.1719,0.39137 2.45982,0.53125 3.53125,0.53125 1.07142,0 2.44447,0.26884 3.84375,0.40625 0.69964,0.0687 1.41312,0.11403 2.09375,0.0625 0.68063,-0.0515 1.31196,-0.19393 1.90625,-0.46875 0.70907,-0.3279 1.36686,-0.74147 1.96875,-1.25 0.60189,-0.50853 1.1548,-1.11719 1.65625,-1.75 1.00291,-1.26561 1.8271,-2.70041 2.46875,-4.125 0.51855,-1.1513 0.76803,-2.41282 0.90625,-3.6875 0.13822,-1.27468 0.15625,-2.5625 0.15625,-3.8125 0,-1.25 0.0893,-2.76786 0,-4.375 -0.0446,-0.80357 -0.14509,-1.64286 -0.3125,-2.46875 -0.16741,-0.82589 -0.39286,-1.66518 -0.75,-2.46875 -0.71429,-1.60714 -1.50585,-3.17981 -2.03125,-4.78125 -0.2627,-0.80072 -0.46934,-1.60054 -0.5625,-2.40625 -0.0932,-0.80571 -0.0642,-1.62252 0.0937,-2.4375 0.16194,-0.83567 0.42729,-1.637 0.8125,-2.40625 0.38521,-0.76925 0.89053,-1.49565 1.4375,-2.1875 1.09393,-1.3837 2.44069,-2.61685 3.8125,-3.625 0.65984,-0.48492 1.39424,-0.79737 2.1875,-1.03125 0.79326,-0.23388 1.63379,-0.37739 2.46875,-0.53125 0.83496,-0.15386 1.68382,-0.31767 2.46875,-0.5625 0.78493,-0.24483 1.51307,-0.58695 2.15625,-1.09375 0.69386,-0.54674 1.26761,-1.19701 1.78125,-1.90625 0.51364,-0.70924 0.95592,-1.48612 1.375,-2.28125 0.83816,-1.59025 1.58857,-3.27592 2.5625,-4.75 0.8737,-1.32238 1.6595,-2.70882 2.5,-4.0625 0.8405,-1.35368 1.72233,-2.66122 2.84375,-3.78125 1.27326,-1.27168 2.8513,-2.17088 4.4375,-3.0625 1.5862,-0.89162 3.18949,-1.76674 4.5,-3 1.2052,-1.13416 2.11526,-2.54106 3.03125,-3.9375 0.91599,-1.39644 1.82896,-2.80027 3.03125,-3.9375 0.83964,-0.7942 1.03134,-1.58694 1.625,-2.28125 0.29683,-0.34715 0.70485,-0.65981 1.34375,-0.9375 0.6389,-0.27769 1.5,-0.50893 2.75,-0.6875 2.5,-0.35714 7.23868,-1.59011 12.375,-2.25 2.56816,-0.32995 5.24309,-0.5421 7.78125,-0.40625 1.26908,0.0679 2.51205,0.21669 3.6875,0.46875 1.17545,0.25206 2.28811,0.61243 3.3125,1.09375 1.15294,0.54172 2.06524,1.35849 2.875,2.3125 0.80976,0.95401 1.50533,2.06508 2.15625,3.21875 0.65092,1.15367 1.26109,2.32808 1.9375,3.46875 0.67641,1.14067 1.42626,2.24121 2.3125,3.15625 1.60399,1.65611 3.30596,3.19802 5.0625,4.6875 1.75654,1.48948 3.57118,2.90836 5.40625,4.3125 3.67013,2.80827 7.4287,5.54533 10.96875,8.5 2.04215,1.70446 3.85998,3.74024 5.78125,5.625 0.96064,0.94238 1.95423,1.84718 3,2.65625 1.04577,0.80907 2.13593,1.50567 3.34375,2.0625 1.20418,0.55516 2.46477,0.96511 3.75,1.28125 1.28523,0.31614 2.60528,0.5629 3.9375,0.71875 2.66445,0.3117 5.38312,0.35712 8.03125,0.5 1.19024,0.0642 2.35559,0.25266 3.53125,0.28125 1.17566,0.0286 2.37152,-1.15251 3.625,-0.625 0.66691,0.28066 1.33309,0.56309 2,0.84375 1.4937,-2.40924 3.14685,-4.92774 4.0625,-6.90625 0.68507,-1.48026 1.05263,-2.83738 1.375,-4.03125 0.32237,-1.19387 0.59956,-2.23789 1.125,-3.125 0.52544,-0.88711 0.55494,-1.48354 0.84375,-2 0.14441,-0.25823 0.35574,-0.49581 0.71875,-0.75 0.36301,-0.25419 0.88946,-0.50327 1.65625,-0.8125 0.76679,-0.30923 1.81222,-0.41706 3.03125,-0.375 1.21903,0.0421 2.61274,0.22659 4.03125,0.4375 2.83702,0.42183 5.81917,0.99741 7.9375,1 4.23666,0.005 7.36781,-0.47446 10.34375,-0.71875 1.48797,-0.12215 2.66664,0.14357 3.8125,0.21875 0.57293,0.0376 1.11419,0.0378 1.71875,-0.0937 0.60456,-0.13158 1.25446,-0.39732 1.96875,-0.84375 1.42858,-0.89286 2.59822,-1.24107 3.625,-1.6875 0.51339,-0.22321 0.97433,-0.46652 1.4375,-0.8125 0.46317,-0.34598 0.92857,-0.78125 1.375,-1.40625 0.44643,-0.625 0.87723,-1.58817 1.3125,-2.6875 0.43527,-1.09933 0.87947,-2.35268 1.28125,-3.625 0.80357,-2.54464 1.49554,-5.13392 2.03125,-6.5625 0.26786,-0.71429 0.67634,-1.43304 1.15625,-2.125 0.47991,-0.69196 1.04464,-1.34375 1.625,-1.96875 1.16071,-1.25 2.41964,-2.31696 3.3125,-3.03125 0.89286,-0.71429 2.30166,-1.68688 3.90625,-2.5625 1.60459,-0.87562 3.3827,-1.66765 5,-2.09375 1.6173,-0.4261 3.1245,-0.72939 4.7188,-0.8125 1.5942,-0.0831 3.2753,0.0674 5.2812,0.46875 2.0059,0.4014 4.3008,1.19312 6.5938,2.25 2.2929,1.05688 4.5883,2.37001 6.625,3.8125 1.0184,0.72124 1.9915,1.59278 2.9375,2.5625 0.9459,0.96972 1.8648,2.02165 2.75,3.0625 1.7702,2.08171 3.4348,4.13538 5.0311,5.4375 1.5964,1.30212 2.3902,2.54428 3.375,3.46875 0.4925,0.46223 1.0452,0.85971 1.75,1.125 0.7049,0.26529 1.5893,0.40625 2.75,0.40625 2.3215,0 5.0001,0.35268 7.5,0.53125 1.25,0.0893 2.4376,0.12946 3.5314,0.0625 1.0936,-0.067 2.0714,-0.23661 2.875,-0.59375 1.6071,-0.71429 2.7768,-1.16964 3.625,-1.75 0.424,-0.29018 0.7779,-0.59263 1.0625,-1 0.2845,-0.40737 0.5089,-0.90625 0.6875,-1.53125 0.1785,-0.625 0.064,-1.30246 -0.1875,-2 -0.2511,-0.69754 -0.6519,-1.41964 -1.0312,-2.15625 -0.3795,-0.73661 -0.7311,-1.47656 -0.9376,-2.21875 -0.2064,-0.74219 -0.2678,-1.47321 0,-2.1875 0.5357,-1.42857 1.25,-2.95536 2.1876,-4.25 0.4687,-0.64732 1.0078,-1.25335 1.5937,-1.75 0.5859,-0.49665 1.2231,-0.88839 1.9375,-1.15625 1.4285,-0.53571 3.3206,-1.17828 4.9375,-2.03125 0.8083,-0.42648 1.5482,-0.88683 2.125,-1.4375 0.5767,-0.55067 0.997,-1.17023 1.1563,-1.875 0.1592,-0.70477 0.1431,-1.41473 0,-2.09375 -0.1432,-0.67902 -0.4067,-1.32352 -0.7813,-1.90625 -0.3747,-0.58273 -0.8711,-1.11533 -1.4064,-1.53125 -0.5352,-0.41592 -1.125,-0.72768 -1.75,-0.90625 -1.25,-0.35714 -3.933,-0.70089 -6.6561,-0.96875 -2.7232,-0.26786 -5.4776,-0.46875 -6.9062,-0.46875 -1.4286,0 -3.7635,0.54018 -5.9063,1.03125 -2.1429,0.49107 -4.0982,0.92857 -4.8125,0.75 -0.7144,-0.17857 -2.0491,-0.42411 -3.3439,-1.09375 -0.6473,-0.33482 -1.3024,-0.76897 -1.8436,-1.34375 -0.5414,-0.57478 -0.9821,-1.29464 -1.25,-2.1875 -0.5359,-1.78571 -0.7902,-3.47768 -0.6564,-4.90625 0.067,-0.71429 0.2154,-1.37946 0.5,-1.9375 0.2847,-0.55804 0.7143,-1.01786 1.25,-1.375 1.0715,-0.71429 2.0447,-1.33036 2.9376,-2 0.8928,-0.66964 1.6919,-1.38839 2.4062,-2.28125 0.7143,-0.89286 1.7768,-1.42411 2.3125,-2.09375 0.2679,-0.33482 0.4241,-0.72433 0.3125,-1.1875 -0.1116,-0.46317 -0.4732,-1.00446 -1.1875,-1.71875 -0.7143,-0.71429 -1.4821,-1.19085 -2.2187,-1.53125 -0.7367,-0.3404 -1.4376,-0.54911 -2.0626,-0.75 -0.625,-0.20089 -1.183,-0.39174 -1.5624,-0.6875 -0.3795,-0.29576 -0.5938,-0.6875 -0.5938,-1.3125 0,-1.25 -0.3527,-3.31696 -0.5312,-5.28125 -0.089,-0.98214 -0.1295,-1.92411 -0.063,-2.75 0.067,-0.82589 0.2366,-1.52232 0.5938,-1.96875 0.7143,-0.89286 2.5045,-2.15179 4.4688,-3.3125 1.9642,-1.16071 4.1026,-2.24554 5.5312,-2.78125 1.4286,-0.53571 3.4665,-0.86009 5.25,-1.4375 0.8917,-0.28871 1.7268,-0.64064 2.375,-1.09375 0.6482,-0.45311 1.1294,-1.02982 1.3125,-1.75 0.1831,-0.72018 0.061,-1.3231 -0.2187,-1.875 -0.2793,-0.5519 -0.7211,-1.05638 -1.25,-1.53125 -1.0577,-0.94975 -2.4091,-1.81077 -3.1876,-3 -0.7783,-1.18923 -1.9966,-2.39852 -3,-3.6875 -0.5016,-0.64449 -0.9502,-1.30746 -1.25,-2 -0.2996,-0.69254 -0.4492,-1.4315 -0.375,-2.1875 0.074,-0.756 0.4415,-1.4587 0.9689,-2.125 0.5273,-0.6663 1.2106,-1.30507 1.9061,-1.875 1.3914,-1.13986 2.8305,-2.06696 3.1876,-2.78125 0.3571,-0.71429 1.1607,-2.05804 1.875,-3.53125 0.3571,-0.73661 0.692,-1.50781 0.9374,-2.25 0.2456,-0.74219 0.4064,-1.4375 0.4064,-2.0625 0,-1.25 0.5357,-4.12946 1.25,-6.71875 0.3571,-1.29464 0.7545,-2.51116 1.1563,-3.4375 0.4017,-0.92634 0.799,-1.56696 1.1562,-1.65625 0.7143,-0.17857 3.0447,-0.16964 5.5,-0.125 2.4553,0.0446 5.0311,0.125 6.2811,0.125 0.625,0 1.2135,0.19098 1.7814,0.46875 0.5679,0.27777 1.1305,0.66171 1.6563,1.0625 1.0514,0.80158 2.0272,1.69738 3,2.0625 0.9727,0.36512 1.7788,0.9886 2.5624,1.34375 0.3919,0.17757 0.7871,0.27357 1.1876,0.25 0.4004,-0.0236 0.8035,-0.17411 1.25,-0.53125 0.4464,-0.35714 0.6763,-0.72545 0.8437,-1.09375 0.1674,-0.3683 0.2723,-0.75 0.4063,-1.0625 0.1339,-0.3125 0.3102,-0.56027 0.6562,-0.75 0.346,-0.18973 0.8527,-0.3125 1.6561,-0.3125 0.9596,0 6.9954,-0.17853 12.1564,-0.3125 0.038,-0.32555 0.093,-0.37088 0.125,-0.78125 0.505,-6.56599 0.5117,-1.51681 5.5625,-6.0625 5.0508,-4.54568 6.053,-2.03125 10.0938,-2.03125 4.0404,0 4.548,-0.50666 9.0937,-6.0625 4.5456,-5.55584 2.5313,-6.04885 2.5313,-13.625 0,-7.57614 -0.5161,-2.02777 -2.0313,-8.59375 -1.5153,-6.566 -0.9848,-2.51094 -2.5,-4.53125 -1.5152,-2.0203 -2.5422,-4.05822 -4.5625,-7.59375 -2.0203,-3.53554 -4.5312,-5.53712 -4.5312,-8.0625 0,-2.52538 2.0109,-10.1223 4.0312,-19.71875 2.0203,-9.59645 2.0162,-4.52694 3.5311,-8.0625 1.5154,-3.53551 6.0787,-9.10469 7.5939,-11.125 1.5152,-2.0203 -1.0312,-5.5633 -1.0312,-8.59375 0,-3.03046 -1.2203,-5.13609 -0.5,-7.5625 0.9575,-3.22804 4.5504,-5.08527 6.0624,-8.09375 2.1296,-4.23598 4.1989,-8.88694 4.0313,-13.625 -0.1017,-2.87512 -1.5547,-5.62442 -3.0313,-8.09375 -1.8362,-3.07224 -4.5317,-5.53152 -7.0624,-8.0625 -3.7969,-3.7965 -9.5999,-10.11992 -12.125,-10.625 -2.5254,-0.50508 -8.5802,-1.51523 -16.1563,0 -7.5761,1.51523 -4.0473,5.05823 -5.5625,8.59375 -1.5153,3.53555 -3.0326,3.52696 -9.0939,7.0625 -6.0606,3.53553 -8.0587,1.52538 -14.625,-1 -6.5658,-2.52538 -5.0727,-4.55313 -4.0624,-8.59375 1.0099,-4.0406 3.048,-2.52618 7.5937,-3.03125 4.5457,-0.50508 7.5676,-6.03712 7.0625,-8.5625 -0.5051,-2.52538 -9.1007,2.51015 -14.6562,1.5 -5.5562,-1.01015 -1.5211,0.009 -2.5313,-4.03125 -1.0102,-4.04062 0,-2.03283 6.0625,-8.09375 6.0609,-6.06092 5.0489,-0.48985 12.625,-1.5 7.5761,-1.01015 4.553,0 8.5938,0 4.0405,0 6.0532,-1.51602 10.0937,-3.03125 4.0406,-1.51523 -4.5372,-5.05743 -7.0625,-5.5625 -2.5254,-0.50508 -6.5574,3.53712 -7.0625,6.0625 -0.5051,2.52538 -9.0946,0.50426 -12.125,-3.03125 -3.0305,-3.53556 -3.0313,-3.54806 -3.0313,-8.09375 0,-4.54568 0,-2.52697 0.5,-6.0625 0.5055,-3.53554 1.011,-2.52696 3.0313,-6.0625 2.0203,-3.53553 2.532,-1.5 5.5625,-1.5 3.0304,0 1.527,-0.004 5.0625,3.53125 3.5356,3.53556 2.5005,2.53049 5.5313,-0.5 3.0301,-3.03044 0.5312,-3.53711 0.5312,-6.0625 0,-2.52538 -2.0265,-2.51096 -2.5312,-4.53125 -0.5055,-2.02032 -1.0262,-3.03791 -1.5313,-8.59375 -0.505,-5.55584 0,-2.01681 0,-6.5625 0,-4.54569 1.5159,-4.05314 3.0313,-8.09375 1.5151,-4.04061 1.0312,-3.54219 1.0312,-5.5625 0,-2.0203 -3.5943,-2.55872 -4.0625,-4.53125 -0.6035,-2.54299 1.0209,-4.05823 2.0313,-7.59375 1.0099,-3.53554 2.3387,-3.41523 4.0312,-4.53125 0.8889,-0.58615 2.3528,-0.17934 3.0312,-1 1.6235,-1.96363 1.7071,-5.14601 1,-7.59375 -0.3646,-1.26332 -1.6132,-2.06028 -2.5,-3.03125 -1.1237,-1.2307 -2.9302,-1.97672 -3.5312,-3.53125 -1.2764,-3.30141 -1.8821,-7.97571 0.5,-10.59375 1.6024,-1.76109 5.3328,0.60498 7.0625,-1.03125 1.2473,-1.1799 1.2648,-3.33486 1,-5.03125 -0.5347,-3.42524 -4.0135,-5.7797 -5.0313,-9.09375 -2.2319,-7.27106 -1.8841,-15.14541 -2.0312,-22.75 -0.065,-3.37075 -0.8057,-6.98548 0.5,-10.09375 1.1536,-2.74611 6.333,-3.59624 6.0625,-6.5625 -0.1529,-1.67663 -2.7176,-1.97778 -4.0313,-3.03125 -2.4212,-1.9425 -5.0782,-3.67515 -7.0624,-6.0625 -2.3631,-2.84249 -5.5626,-7.57344 -5.5626,-9.59375 0,-2.0203 -2,-6.11147 -4.5624,-7.5625 -3.077,-1.74195 -6.5532,0 -10.5938,0 -4.0406,0 -7.9977,1.98462 -11.125,0 -2.6708,-1.69489 -2.5665,-5.79032 -4.0312,-8.59375 -2.3406,-4.47885 -4.3225,-9.24653 -7.5626,-13.125 -3.6757,-4.40074 -8.2019,-8.238 -13.1562,-11.125 -2.9454,-1.71638 -6.9061,-1.4339 -9.5938,-3.53125 -3.5339,-2.75803 -4.0036,-8.39934 -7.5624,-11.125 -3.255,-2.49275 -9.6047,-3.52617 -11.625,-4.03125 -2.0204,-0.50508 -2.8873,0.2305 -4.0313,-0.5 -1.33866,-0.85479 -2.09334,-2.50451 -2.5312,-4.03125 -0.64979,-2.26568 0,-4.73673 0,-7.09375 v -4.96875 z"
         id="path3009"
         style="fill:#ffe6d5;stroke:#000000;stroke-width:3;stroke-linecap:butt;stroke-linejoin:miter;stroke-opacity:1"
         inkscape:connector-curvature="0" />
    </a>
  </g>
  <path
     id="path957"
     d="m 217.75671,273.87526 h 2.47167 c 1.97,0.36333 3.72333,1.43833 5.24,2.7 2.76666,3.19 2.195,7.63 2.44833,11.51167 0.14,1.10833 0.63333,3.04666 2.175,2.535 1.51333,-0.725 2.13167,1.50333 1.03833,2.23166 -1.79333,1.17167 -4.805,0.41334 -5.19,3.11334 0.69167,1.78666 2.82334,1.45666 4.34834,1.71666 2.68333,1.645 6.11166,1.25667 9.07833,2.31334 2.63333,1.255 5.32333,2.305 7.61833,4.09166 3.75167,0.65667 7.58834,1.30834 11.39667,0.62 1.895,-0.305 3.13334,2.01 5.09166,1.35834 0.80334,-0.11 2.09668,-1.355 2.695,-0.33834 v 0.30334 c -1.57832,0.705 -3.36666,1.45833 -3.91666,3.265 -0.335,1.57 -2.225,2.49 -1.84334,4.24833 -0.005,2.33667 -1.36,4.35 -3.115,5.78833 -3.78166,4.41667 -8.13666,8.34 -13.09333,11.435 -0.36333,2.13834 -2.505,3.42667 -4.00333,4.565 1.67,1.20834 0.74667,4.16834 2.97167,4.355 1.32833,0.22667 1.23,2.05667 0.27,2.64501 -1.50667,0.71333 -3.195,0.36666 -4.79667,0.48 3.89,5.45166 4.145,12.49 5.30833,18.86333 -0.49666,2.10667 -2.32166,4.98667 -4.805,4.40833 0.15334,0.83167 1.05334,1.56 0.55834,2.45834 -1.10667,1.49833 -0.18,3.40833 -0.98834,4.97333 1.17334,0.665 1.09167,2.06833 0.0533,2.81667 -0.67334,2.23333 -0.71834,4.65666 -0.68,6.99166 2.985,0.91334 2.39666,4.98834 1.08,7.06167 -2.05,2.99 1.92333,6.42667 -0.2,9.29 -0.73167,1.19499 -2.18834,0.83333 -3.135,0.17667 2.475,8.485 -3.19834,16.745 -1.54,25.18 3.04,3.82334 6.57333,7.01666 10.07,10.435 0.295,-0.0583 0.87166,-0.46 1.01333,-0.0983 -0.28833,1.68667 3.38667,0.99 2.60833,2.67168 h -1.06333 c -4.33,-1.19334 -8.85167,-1.77334 -12.99167,-3.58834 -2.58833,-1.15166 -5.72666,-0.365 -8.125,-2.03333 0.06,-4.92334 2.78,-9.31167 2.30834,-14.32167 -0.38334,-3.42833 -1.96834,-6.635 -2.085,-10.115 -0.335,-3.63834 1.04333,-7.25 0.41833,-10.86834 0.52667,-2.06833 -1.21833,-4.18833 -0.005,-6.25833 -0.605,-2.00833 -0.49833,-4.16333 -1.07,-6.17833 -1.57833,-3.66667 0.36,-7.83667 -1.67,-11.38333 -0.12333,-1.97001 -0.96833,-4.40334 -0.10833,-6.22501 -1.365,-1.31166 -1.08834,-3.66666 -1.33834,-5.13333 -2.54333,3.00167 -2.34666,7.22167 -3.90333,10.65667 -0.65333,3.075 -0.95333,6.46833 -2.96333,9.165 -1.28834,1.69499 -0.44667,4.06833 -1.82667,5.665 0.45333,2.05333 -0.15667,4.39333 1.19,6.19 1.56,1.38 0.0367,3.655 0.74,5.30333 0.82167,4.43499 2.455,8.98833 1.23167,13.51667 -1.45834,5.385 -1.92167,11.36834 0.43833,16.56 -0.25333,1.705 1.43333,3.57 0.24667,5.15667 -8.14334,1.34833 -16.42167,2.23167 -24.70834,2.205 0.23834,-1.77501 3.85,-0.22 4.23834,-2.23501 0.38666,-0.28 0.635,0.25 0.97166,0.35834 -8.575,-27.08833 -17.28333,-54.18333 -25.92166,-81.23667 -1.73667,0.51 -2.41167,2.97167 -4.26834,3.1 0.63167,-2.35167 3.855,-3.67667 4.07167,-6.24833 -0.53833,-3.15 -1.79667,-5.81334 -2.43833,-8.81667 -2.58,0.35167 -4.02667,-1.815 -5.685,-3.18334 v -1.53 c 0.33166,-0.47833 0.36333,-1.045 0,-1.51666 v -0.72834 c 0.99333,-1.2 2.19166,-2.23666 3.46666,-3.12166 2.25167,-0.27834 5.015,0.435 6.715,-1.49667 2.89834,-2.77333 6.50667,-4.89833 8.91667,-8.12667 1.73667,1.34 2.68667,-0.975 4.55667,-1.38 0.78,-2.27 2.64166,-4.05 4.95833,-4.70166 3.585,-1.20334 4.97333,-4.94834 7.665,-7.18167 0.425,-2.81167 3.12667,-4.22167 5.67,-4.805 1.79667,-1.25833 3.85667,-2.16667 5.73833,-3.27333 0.45334,-1.31167 3.86334,-1.56834 2.37667,-3.24167 -2.31,-1.2 -2.84667,-3.65333 -3.98667,-5.56 0.57667,-2.34667 -2.52166,-4.12167 -1.71833,-6.73167 1.43667,-2.76666 0.91333,-6.36666 3.29,-8.675 1.78167,-1.53 4.235,-1.69666 6.44,-2.14833 m 22.08167,40.375 c -0.12167,0.70667 -0.19,1.45167 -0.52,2.10333 -2.62167,1.80667 -1.66,5.70334 -2.95334,8.385 -0.42833,3.59167 -2.60666,6.495 -4.52166,9.46167 0.40333,0.26 1.51666,1.56167 1.48,0.185 -0.09,-1.26 1.73166,-1.38333 1.45166,-2.68667 0.80667,-0.88666 2.41167,-0.54333 3.06834,-1.64833 2.61333,-3.515 3.86166,-7.78667 5.88833,-11.62667 1.64667,0.78167 2.615,-1.535 3.76667,-2.22333 -1.45167,-3.03167 -5.17,-0.68333 -7.66,-1.95 m -36.07667,6.54 c -0.93,0.55 -1.935,1.815 -1.47167,2.86167 -1.49166,1.53833 -3.24666,2.89833 -5.50666,2.78166 -2.06167,-0.095 -3.00834,2.04167 -3.48,3.71667 -1.29334,2.12667 -4.26,2.94333 -6.51167,1.93667 -1.06833,-0.77 -2.40333,0.17166 -3.485,0.405 -2.27167,2.92666 -6.885,1.65666 -9.415,4.51333 0.0783,1.24667 -1.36667,1.78333 -2.205,2.22167 1.475,3.32333 1.83333,7.045 3.54,10.43 2.57833,0.73666 5.325,1.31833 7.96667,1.54 0.63833,0.465 0.14333,1.195 -0.55167,1.11667 -2.01667,-0.36834 -4.08833,-0.29834 -6.11833,-0.60167 7.26833,27.4 14.615,54.77833 22.04833,82.13333 4.17667,-0.80666 6.89,-4.86666 10.08167,-7.49166 1.92833,-3.055 1.47333,-6.91834 0.64,-10.27334 -1.04667,-4.65166 -2.28167,-9.3 -2.52,-14.08666 -0.99834,-2.075 -3.485,-3.80334 -2.63834,-6.74834 -1.11666,-1.43166 -1.56,-3.37 -1.03833,-5.14666 -1.25,-1.84 -1.18167,-4.595 0.67333,-5.99834 -0.83166,-5.94666 -0.455,-11.93 -0.42166,-17.89666 0.24333,-1.43 -1.96834,-1.105 -2.16834,-2.41167 -1.18333,-7.20167 1.265,-14.49333 4.42834,-20.89333 -1.61167,-0.45834 1.04,-0.595 0.62833,-1.61167 0.008,-1.00167 0.92333,-1.36334 1.75833,-1.32167 1.52,-1.59333 2.03667,-3.415 4.375,-4.09 -3.56333,-3.29833 -6.945,-7.075 -7.85666,-12.01167 -0.82167,-0.76333 -0.0317,-2.615 -0.75167,-3.07333 z"
     inkscape:connector-curvature="0"
     style="opacity:1;fill:#008000;stroke-width:0.16666667" />
  <path
     id="path957-3"
     d="m 776.16078,273.87574 h 2.47167 c 1.97,0.36333 3.72333,1.43833 5.24,2.7 2.76666,3.19 2.195,7.63 2.44833,11.51167 0.14,1.10833 0.63333,3.04666 2.175,2.535 1.51333,-0.725 2.13167,1.50333 1.03833,2.23166 -1.79333,1.17167 -4.805,0.41334 -5.19,3.11334 0.69167,1.78666 2.82334,1.45666 4.34834,1.71666 2.68333,1.645 6.11166,1.25667 9.07833,2.31334 2.63333,1.255 5.32333,2.305 7.61833,4.09166 3.75167,0.65667 7.58834,1.30834 11.39667,0.62 1.895,-0.305 3.13334,2.01 5.09166,1.35834 0.80334,-0.11 2.09668,-1.355 2.695,-0.33834 v 0.30334 c -1.57832,0.705 -3.36666,1.45833 -3.91666,3.265 -0.335,1.57 -2.225,2.49 -1.84334,4.24833 -0.005,2.33667 -1.36,4.35 -3.115,5.78833 -3.78166,4.41667 -8.13666,8.34 -13.09333,11.435 -0.36333,2.13834 -2.505,3.42667 -4.00333,4.565 1.67,1.20834 0.74667,4.16834 2.97167,4.355 1.32833,0.22667 1.23,2.05667 0.27,2.64501 -1.50667,0.71333 -3.195,0.36666 -4.79667,0.48 3.89,5.45166 4.145,12.49 5.30833,18.86333 -0.49666,2.10667 -2.32166,4.98667 -4.805,4.40833 0.15334,0.83167 1.05334,1.56 0.55834,2.45834 -1.10667,1.49833 -0.18,3.40833 -0.98834,4.97333 1.17334,0.665 1.09167,2.06833 0.0533,2.81667 -0.67334,2.23333 -0.71834,4.65666 -0.68,6.99166 2.985,0.91334 2.39666,4.98834 1.08,7.06167 -2.05,2.99 1.92333,6.42667 -0.2,9.29 -0.73167,1.19499 -2.18834,0.83333 -3.135,0.17667 2.475,8.485 -3.19834,16.745 -1.54,25.18 3.04,3.82334 6.57333,7.01666 10.07,10.435 0.295,-0.0583 0.87166,-0.46 1.01333,-0.0983 -0.28833,1.68667 3.38667,0.99 2.60833,2.67168 h -1.06333 c -4.33,-1.19334 -8.85167,-1.77334 -12.99167,-3.58834 -2.58833,-1.15166 -5.72666,-0.365 -8.125,-2.03333 0.06,-4.92334 2.78,-9.31167 2.30834,-14.32167 -0.38334,-3.42833 -1.96834,-6.635 -2.085,-10.115 -0.335,-3.63834 1.04333,-7.25 0.41833,-10.86834 0.52667,-2.06833 -1.21833,-4.18833 -0.005,-6.25833 -0.605,-2.00833 -0.49833,-4.16333 -1.07,-6.17833 -1.57833,-3.66667 0.36,-7.83667 -1.67,-11.38333 -0.12333,-1.97001 -0.96833,-4.40334 -0.10833,-6.22501 -1.365,-1.31166 -1.08834,-3.66666 -1.33834,-5.13333 -2.54333,3.00167 -2.34666,7.22167 -3.90333,10.65667 -0.65333,3.075 -0.95333,6.46833 -2.96333,9.165 -1.28834,1.69499 -0.44667,4.06833 -1.82667,5.665 0.45333,2.05333 -0.15667,4.39333 1.19,6.19 1.56,1.38 0.0367,3.655 0.74,5.30333 0.82167,4.43499 2.455,8.98833 1.23167,13.51667 -1.45834,5.385 -1.92167,11.36834 0.43833,16.56 -0.25333,1.705 1.43333,3.57 0.24667,5.15667 -8.14334,1.34833 -16.42167,2.23167 -24.70834,2.205 0.23834,-1.77501 3.85,-0.22 4.23834,-2.23501 0.38666,-0.28 0.635,0.25 0.97166,0.35834 -8.575,-27.08833 -17.28333,-54.18333 -25.92166,-81.23667 -1.73667,0.51 -2.41167,2.97167 -4.26834,3.1 0.63167,-2.35167 3.855,-3.67667 4.07167,-6.24833 -0.53833,-3.15 -1.79667,-5.81334 -2.43833,-8.81667 -2.58,0.35167 -4.02667,-1.815 -5.685,-3.18334 v -1.53 c 0.33166,-0.47833 0.36333,-1.045 0,-1.51666 v -0.72834 c 0.99333,-1.2 2.19166,-2.23666 3.46666,-3.12166 2.25167,-0.27834 5.015,0.435 6.715,-1.49667 2.89834,-2.77333 6.50667,-4.89833 8.91667,-8.12667 1.73667,1.34 2.68667,-0.975 4.55667,-1.38 0.78,-2.27 2.64166,-4.05 4.95833,-4.70166 3.585,-1.20334 4.97333,-4.94834 7.665,-7.18167 0.425,-2.81167 3.12667,-4.22167 5.67,-4.805 1.79667,-1.25833 3.85667,-2.16667 5.73833,-3.27333 0.45334,-1.31167 3.86334,-1.56834 2.37667,-3.24167 -2.31,-1.2 -2.84667,-3.65333 -3.98667,-5.56 0.57667,-2.34667 -2.52166,-4.12167 -1.71833,-6.73167 1.43667,-2.76666 0.91333,-6.36666 3.29,-8.675 1.78167,-1.53 4.235,-1.69666 6.44,-2.14833 m 22.08167,40.375 c -0.12167,0.70667 -0.19,1.45167 -0.52,2.10333 -2.62167,1.80667 -1.66,5.70334 -2.95334,8.385 -0.42833,3.59167 -2.60666,6.495 -4.52166,9.46167 0.40333,0.26 1.51666,1.56167 1.48,0.185 -0.09,-1.26 1.73166,-1.38333 1.45166,-2.68667 0.80667,-0.88666 2.41167,-0.54333 3.06834,-1.64833 2.61333,-3.515 3.86166,-7.78667 5.88833,-11.62667 1.64667,0.78167 2.615,-1.535 3.76667,-2.22333 -1.45167,-3.03167 -5.17,-0.68333 -7.66,-1.95 m -36.07667,6.54 c -0.93,0.55 -1.935,1.815 -1.47167,2.86167 -1.49166,1.53833 -3.24666,2.89833 -5.50666,2.78166 -2.06167,-0.095 -3.00834,2.04167 -3.48,3.71667 -1.29334,2.12667 -4.26,2.94333 -6.51167,1.93667 -1.06833,-0.77 -2.40333,0.17166 -3.485,0.405 -2.27167,2.92666 -6.885,1.65666 -9.415,4.51333 0.0783,1.24667 -1.36667,1.78333 -2.205,2.22167 1.475,3.32333 1.83333,7.045 3.54,10.43 2.57833,0.73666 5.325,1.31833 7.96667,1.54 0.63833,0.465 0.14333,1.195 -0.55167,1.11667 -2.01667,-0.36834 -4.08833,-0.29834 -6.11833,-0.60167 7.26833,27.4 14.615,54.77833 22.04833,82.13333 4.17667,-0.80666 6.89,-4.86666 10.08167,-7.49166 1.92833,-3.055 1.47333,-6.91834 0.64,-10.27334 -1.04667,-4.65166 -2.28167,-9.3 -2.52,-14.08666 -0.99834,-2.075 -3.485,-3.80334 -2.63834,-6.74834 -1.11666,-1.43166 -1.56,-3.37 -1.03833,-5.14666 -1.25,-1.84 -1.18167,-4.595 0.67333,-5.99834 -0.83166,-5.94666 -0.455,-11.93 -0.42166,-17.89666 0.24333,-1.43 -1.96834,-1.105 -2.16834,-2.41167 -1.18333,-7.20167 1.265,-14.49333 4.42834,-20.89333 -1.61167,-0.45834 1.04,-0.595 0.62833,-1.61167 0.008,-1.00167 0.92333,-1.36334 1.75833,-1.32167 1.52,-1.59333 2.03667,-3.415 4.375,-4.09 -3.56333,-3.29833 -6.945,-7.075 -7.85666,-12.01167 -0.82167,-0.76333 -0.0317,-2.615 -0.75167,-3.07333 z"
     inkscape:connector-curvature="0"
     style="opacity:1;fill:#800080;stroke-width:0.16666667" />
  <path
     inkscape:connector-curvature="0"
     id="path4"
     d="m 522.60689,303.79641 v 16 h -16 v -16 h -16 v 16 h -16 v -16 h -16 v 16 h -16 v -16 h -16 v 24 c 0,8.84 7.16,16 16,16 v 72 h 32 v -16 c 0,-4.416 3.584,-8 8,-8 4.416,0 8,3.584 8,8 v 16 h 32 v -72 c 8.84,0 16,-7.16 16,-16 v -24 z m -40,56 c -4.416,0 -8,-3.584 -8,-8 0,-4.416 3.584,-8 8,-8 4.416,0 8,3.584 8,8 0,4.416 -3.584,8 -8,8 z"
     style="stroke-width:8" />
  <g
     class="node"
     id="node15"
     transform="matrix(1.33204,0,0,1.33204,-88.493832,473.92326)"
     style="fill:#ff0000">
    <title
       id="title150">arrow</title>
    <polygon
       style="fill:#ff0000;stroke:#000000"
       id="polygon152"
       points="353,-78 353,-72 371,-90 353,-108 353,-102 299,-102 299,-78 " />
  </g>
  <g
     class="node"
     id="node15-7"
     transform="matrix(-1.33204,0,0,-1.33204,1086.3292,234.15622)"
     style="fill:#ff0000">
    <title
       id="title150-5">arrow</title>
    <polygon
       style="fill:#ff0000;stroke:#000000"
       id="polygon152-3"
       points="371,-90 353,-108 353,-102 299,-102 299,-78 353,-78 353,-72 " />
  </g>
  <text
     xml:space="preserve"
     style="font-style:normal;font-variant:normal;font-weight:normal;font-stretch:normal;font-size:4px;line-height:1;font-family:arial;-inkscape-font-specification:arial;letter-spacing:0px;word-spacing:0px;fill:#000000;fill-opacity:1;stroke:none"
     x="67.161995"
     y="348.28293"
     id="text1093"><tspan
       sodipodi:role="line"
       id="tspan1091"
       x="67.161995"
       y="348.28293"
       style="font-size:85.33333333px;fill:#0000ff">A</tspan></text>
  <text
     xml:space="preserve"
     style="font-style:normal;font-variant:normal;font-weight:normal;font-stretch:normal;font-size:4px;line-height:1;font-family:arial;-inkscape-font-specification:arial;letter-spacing:0px;word-spacing:0px;fill:#000000;fill-opacity:1;stroke:none"
     x="410.24323"
     y="206.85373"
     id="text1093-5"><tspan
       sodipodi:role="line"
       id="tspan1091-6"
       x="410.24323"
       y="206.85373"
       style="font-size:85.33333588px;fill:#0000ff">C</tspan></text>
  <text
     xml:space="preserve"
     style="font-style:normal;font-variant:normal;font-weight:normal;font-stretch:normal;font-size:4px;line-height:1;font-family:arial;-inkscape-font-specification:arial;letter-spacing:0px;word-spacing:0px;fill:#000000;fill-opacity:1;stroke:none"
     x="740.06677"
     y="222.20505"
     id="text1093-2"><tspan
       sodipodi:role="line"
       id="tspan1091-9"
       x="740.06677"
       y="222.20505"
       style="font-size:85.33333588px;fill:#0000ff">B</tspan></text>
</svg>
