<?xml version="1.0" encoding="UTF-8" standalone="no"?>
<!-- Created with Inkscape (http://www.inkscape.org/) -->

<svg
   xmlns:dc="http://purl.org/dc/elements/1.1/"
   xmlns:cc="http://creativecommons.org/ns#"
   xmlns:rdf="http://www.w3.org/1999/02/22-rdf-syntax-ns#"
   xmlns:svg="http://www.w3.org/2000/svg"
   xmlns="http://www.w3.org/2000/svg"
   xmlns:sodipodi="http://sodipodi.sourceforge.net/DTD/sodipodi-0.dtd"
   xmlns:inkscape="http://www.inkscape.org/namespaces/inkscape"
   width="111.63611mm"
   height="112.44705mm"
   viewBox="0 0 111.63611 112.44705"
   version="1.1"
   id="svg1127"
   inkscape:version="0.92.5 (2060ec1f9f, 2020-04-08)"
   sodipodi:docname="2gen-communication-3.svg">
  <defs
     id="defs1121">
    <marker
       inkscape:stockid="Arrow2Mend"
       orient="auto"
       refY="0"
       refX="0"
       id="marker3945"
       style="overflow:visible"
       inkscape:isstock="true">
      <path
         id="path3943"
         style="fill:#000000;fill-opacity:1;fill-rule:evenodd;stroke:#000000;stroke-width:0.625;stroke-linejoin:round;stroke-opacity:1"
         d="M 8.7185878,4.0337352 -2.2072895,0.01601326 8.7185884,-4.0017078 c -1.7454984,2.3720609 -1.7354408,5.6174519 -6e-7,8.035443 z"
         transform="scale(-0.6)"
         inkscape:connector-curvature="0" />
    </marker>
    <marker
       inkscape:stockid="Arrow1Lstart"
       orient="auto"
       refY="0"
       refX="0"
       id="Arrow1Lstart"
       style="overflow:visible"
       inkscape:isstock="true">
      <path
         id="path1700"
         d="M 0,0 5,-5 -12.5,0 5,5 Z"
         style="fill:#000000;fill-opacity:1;fill-rule:evenodd;stroke:#000000;stroke-width:1.00000003pt;stroke-opacity:1"
         transform="matrix(0.8,0,0,0.8,10,0)"
         inkscape:connector-curvature="0" />
    </marker>
    <marker
       inkscape:stockid="Arrow2Mend"
       orient="auto"
       refY="0"
       refX="0"
       id="Arrow2Mend"
       style="overflow:visible"
       inkscape:isstock="true">
      <path
         id="path1727"
         style="fill:#000000;fill-opacity:1;fill-rule:evenodd;stroke:#000000;stroke-width:0.625;stroke-linejoin:round;stroke-opacity:1"
         d="M 8.7185878,4.0337352 -2.2072895,0.01601326 8.7185884,-4.0017078 c -1.7454984,2.3720609 -1.7354408,5.6174519 -6e-7,8.035443 z"
         transform="scale(-0.6)"
         inkscape:connector-curvature="0" />
    </marker>
    <marker
       inkscape:stockid="Arrow2Lend"
       orient="auto"
       refY="0"
       refX="0"
       id="Arrow2Lend"
       style="overflow:visible"
       inkscape:isstock="true">
      <path
         id="path1721"
         style="fill:#000000;fill-opacity:1;fill-rule:evenodd;stroke:#000000;stroke-width:0.625;stroke-linejoin:round;stroke-opacity:1"
         d="M 8.7185878,4.0337352 -2.2072895,0.01601326 8.7185884,-4.0017078 c -1.7454984,2.3720609 -1.7354408,5.6174519 -6e-7,8.035443 z"
         transform="matrix(-1.1,0,0,-1.1,-1.1,0)"
         inkscape:connector-curvature="0" />
    </marker>
    <marker
       inkscape:stockid="Arrow1Lend"
       orient="auto"
       refY="0"
       refX="0"
       id="Arrow1Lend"
       style="overflow:visible"
       inkscape:isstock="true">
      <path
         id="path1703"
         d="M 0,0 5,-5 -12.5,0 5,5 Z"
         style="fill:#000000;fill-opacity:1;fill-rule:evenodd;stroke:#000000;stroke-width:1.00000003pt;stroke-opacity:1"
         transform="matrix(-0.8,0,0,-0.8,-10,0)"
         inkscape:connector-curvature="0" />
    </marker>
    <marker
       inkscape:stockid="Arrow2Mend"
       orient="auto"
       refY="0"
       refX="0"
       id="Arrow2Mend-7"
       style="overflow:visible"
       inkscape:isstock="true">
      <path
         inkscape:connector-curvature="0"
         id="path1727-0"
         style="fill:#000000;fill-opacity:1;fill-rule:evenodd;stroke:#000000;stroke-width:0.625;stroke-linejoin:round;stroke-opacity:1"
         d="M 8.7185878,4.0337352 -2.2072895,0.01601326 8.7185884,-4.0017078 c -1.7454984,2.3720609 -1.7354408,5.6174519 -6e-7,8.035443 z"
         transform="scale(-0.6)" />
    </marker>
    <marker
       inkscape:stockid="Arrow2Mend"
       orient="auto"
       refY="0"
       refX="0"
       id="Arrow2Mend-7-3"
       style="overflow:visible"
       inkscape:isstock="true">
      <path
         inkscape:connector-curvature="0"
         id="path1727-0-6"
         style="fill:#000000;fill-opacity:1;fill-rule:evenodd;stroke:#000000;stroke-width:0.625;stroke-linejoin:round;stroke-opacity:1"
         d="M 8.7185878,4.0337352 -2.2072895,0.01601326 8.7185884,-4.0017078 c -1.7454984,2.3720609 -1.7354408,5.6174519 -6e-7,8.035443 z"
         transform="scale(-0.6)" />
    </marker>
    <marker
       inkscape:stockid="Arrow2Mend"
       orient="auto"
       refY="0"
       refX="0"
       id="Arrow2Mend-0"
       style="overflow:visible"
       inkscape:isstock="true">
      <path
         inkscape:connector-curvature="0"
         id="path1727-6"
         style="fill:#000000;fill-opacity:1;fill-rule:evenodd;stroke:#000000;stroke-width:0.625;stroke-linejoin:round;stroke-opacity:1"
         d="M 8.7185878,4.0337352 -2.2072895,0.01601326 8.7185884,-4.0017078 c -1.7454984,2.3720609 -1.7354408,5.6174519 -6e-7,8.035443 z"
         transform="scale(-0.6)" />
    </marker>
    <marker
       inkscape:stockid="Arrow2Mend"
       orient="auto"
       refY="0"
       refX="0"
       id="Arrow2Mend-2"
       style="overflow:visible"
       inkscape:isstock="true">
      <path
         inkscape:connector-curvature="0"
         id="path1727-02"
         style="fill:#000000;fill-opacity:1;fill-rule:evenodd;stroke:#000000;stroke-width:0.625;stroke-linejoin:round;stroke-opacity:1"
         d="M 8.7185878,4.0337352 -2.2072895,0.01601326 8.7185884,-4.0017078 c -1.7454984,2.3720609 -1.7354408,5.6174519 -6e-7,8.035443 z"
         transform="scale(-0.6)" />
    </marker>
    <marker
       inkscape:stockid="Arrow2Mend"
       orient="auto"
       refY="0"
       refX="0"
       id="Arrow2Mend-7-3-5"
       style="overflow:visible"
       inkscape:isstock="true">
      <path
         inkscape:connector-curvature="0"
         id="path1727-0-6-9"
         style="fill:#000000;fill-opacity:1;fill-rule:evenodd;stroke:#000000;stroke-width:0.625;stroke-linejoin:round;stroke-opacity:1"
         d="M 8.7185878,4.0337352 -2.2072895,0.01601326 8.7185884,-4.0017078 c -1.7454984,2.3720609 -1.7354408,5.6174519 -6e-7,8.035443 z"
         transform="scale(-0.6)" />
    </marker>
    <marker
       inkscape:stockid="Arrow2Mend"
       orient="auto"
       refY="0"
       refX="0"
       id="Arrow2Mend-7-3-2"
       style="overflow:visible"
       inkscape:isstock="true">
      <path
         inkscape:connector-curvature="0"
         id="path1727-0-6-8"
         style="fill:#000000;fill-opacity:1;fill-rule:evenodd;stroke:#000000;stroke-width:0.625;stroke-linejoin:round;stroke-opacity:1"
         d="M 8.7185878,4.0337352 -2.2072895,0.01601326 8.7185884,-4.0017078 c -1.7454984,2.3720609 -1.7354408,5.6174519 -6e-7,8.035443 z"
         transform="scale(-0.6)" />
    </marker>
    <marker
       inkscape:stockid="Arrow2Mend"
       orient="auto"
       refY="0"
       refX="0"
       id="marker3945-9"
       style="overflow:visible"
       inkscape:isstock="true">
      <path
         inkscape:connector-curvature="0"
         id="path3943-7"
         style="fill:#000000;fill-opacity:1;fill-rule:evenodd;stroke:#000000;stroke-width:0.625;stroke-linejoin:round;stroke-opacity:1"
         d="M 8.7185878,4.0337352 -2.2072895,0.01601326 8.7185884,-4.0017078 c -1.7454984,2.3720609 -1.7354408,5.6174519 -6e-7,8.035443 z"
         transform="scale(-0.6)" />
    </marker>
  </defs>
  <sodipodi:namedview
     id="base"
     pagecolor="#ffffff"
     bordercolor="#666666"
     borderopacity="1.0"
     inkscape:pageopacity="0.0"
     inkscape:pageshadow="2"
     inkscape:zoom="1.32"
     inkscape:cx="55.714266"
     inkscape:cy="127.68259"
     inkscape:document-units="mm"
     inkscape:current-layer="layer1"
     showgrid="true"
     fit-margin-top="0"
     fit-margin-left="0"
     fit-margin-right="0"
     fit-margin-bottom="0"
     inkscape:window-width="1920"
     inkscape:window-height="1055"
     inkscape:window-x="1920"
     inkscape:window-y="0"
     inkscape:window-maximized="1">
    <inkscape:grid
       type="xygrid"
       id="grid1696"
       originx="-39.679118"
       originy="-177.27083" />
  </sodipodi:namedview>
  <metadata
     id="metadata1124">
    <rdf:RDF>
      <cc:Work
         rdf:about="">
        <dc:format>image/svg+xml</dc:format>
        <dc:type
           rdf:resource="http://purl.org/dc/dcmitype/StillImage" />
        <dc:title />
      </cc:Work>
    </rdf:RDF>
  </metadata>
  <g
     inkscape:label="Layer 1"
     inkscape:groupmode="layer"
     id="layer1"
     transform="translate(-39.67912,-7.2821088)">
    <path
       id="path957"
       d="m 46.83456,7.2821088 h 0.326982 c 0.260614,0.04807 0.492565,0.19028 0.693208,0.357188 0.366006,0.42201 0.29038,1.009385 0.323894,1.522898 0.01852,0.146623 0.08378,0.403048 0.287734,0.335359 0.200201,-0.09591 0.282002,0.198878 0.137362,0.29523 -0.237242,0.155003 -0.635661,0.05468 -0.686593,0.4118692 0.0915,0.236361 0.373504,0.192704 0.575249,0.2271 0.354982,0.21762 0.808522,0.166247 1.200987,0.306036 0.348368,0.166026 0.704232,0.304932 1.007842,0.541292 0.496315,0.08687 1.003874,0.173083 1.507684,0.08202 0.250693,-0.04035 0.414515,0.265906 0.673585,0.179697 0.106275,-0.01455 0.277373,-0.179255 0.356526,-0.04476 v 0.04013 c -0.208799,0.09327 -0.445382,0.192925 -0.518142,0.431932 -0.04432,0.207698 -0.294349,0.329407 -0.243858,0.562019 -6.5e-4,0.309122 -0.179917,0.575469 -0.412089,0.765748 -0.500282,0.584288 -1.076412,1.103312 -1.732138,1.512755 -0.04807,0.282885 -0.331391,0.45332 -0.529608,0.603911 0.220927,0.159854 0.09878,0.551437 0.393128,0.576131 0.175727,0.02998 0.162718,0.27208 0.03572,0.349912 -0.19932,0.09437 -0.422672,0.0485 -0.63456,0.0635 0.514615,0.72121 0.548349,1.652323 0.702248,2.495462 -0.0657,0.278695 -0.307136,0.659695 -0.635661,0.583185 0.02029,0.110023 0.139348,0.206375 0.07386,0.325218 -0.146403,0.198217 -0.02381,0.450894 -0.130749,0.65793 0.155223,0.08797 0.144419,0.273623 0.007,0.372622 -0.08908,0.295451 -0.09503,0.616037 -0.08996,0.924938 0.394891,0.120828 0.317058,0.659916 0.142875,0.934201 -0.271198,0.395552 0.254441,0.850194 -0.02646,1.228989 -0.09679,0.158087 -0.289499,0.110243 -0.414734,0.02337 0.327422,1.122495 -0.423114,2.215224 -0.203729,3.331104 0.402166,0.505796 0.869596,0.928246 1.332177,1.380464 0.03902,-0.0077 0.115313,-0.06085 0.134055,-0.013 -0.03815,0.223132 0.448028,0.130968 0.34506,0.353441 h -0.140669 c -0.572823,-0.157869 -1.171003,-0.234599 -1.71869,-0.474708 -0.342415,-0.152355 -0.75759,-0.04828 -1.07487,-0.268993 0.0079,-0.651316 0.367771,-1.231856 0.305374,-1.894637 -0.05071,-0.45354 -0.260395,-0.877755 -0.275828,-1.33813 -0.04432,-0.481322 0.138024,-0.959115 0.05534,-1.437791 0.06967,-0.273623 -0.161175,-0.554081 -6.5e-4,-0.827925 -0.08004,-0.265685 -0.06593,-0.550774 -0.141552,-0.817342 -0.2088,-0.485069 0.04762,-1.036726 -0.220927,-1.505919 -0.01631,-0.260616 -0.128102,-0.582526 -0.01433,-0.823517 -0.18059,-0.173519 -0.14399,-0.485066 -0.177063,-0.679094 -0.336462,0.397096 -0.310444,0.955367 -0.516378,1.409789 -0.08643,0.406796 -0.126118,0.855706 -0.392024,1.212453 -0.170437,0.224233 -0.05909,0.538206 -0.241653,0.749432 0.05997,0.271638 -0.02072,0.581201 0.157427,0.818885 0.206375,0.182563 0.0049,0.483526 0.0979,0.701587 0.108701,0.586712 0.324776,1.189081 0.16294,1.788143 -0.192926,0.71239 -0.254221,1.503936 0.05799,2.19075 -0.03352,0.225557 0.189617,0.472281 0.03263,0.682184 -1.077296,0.178373 -2.17245,0.295231 -3.268707,0.291703 0.03153,-0.234819 0.509323,-0.02911 0.560697,-0.295673 0.05115,-0.03704 0.08401,0.03307 0.128542,0.0474 -1.134399,-3.58356 -2.286438,-7.168003 -3.429217,-10.746934 -0.229747,0.06747 -0.319044,0.393127 -0.564666,0.410104 0.08356,-0.311106 0.509984,-0.486393 0.538648,-0.826602 -0.07122,-0.416719 -0.237685,-0.769056 -0.322571,-1.166372 -0.341262,0.04653 -0.532645,-0.240108 -0.752028,-0.421128 v -0.202406 c 0.04387,-0.06328 0.04807,-0.138245 0,-0.200642 v -0.09635 c 0.131409,-0.15875 0.289938,-0.295892 0.45861,-0.41297 0.297877,-0.03682 0.663443,0.05755 0.888339,-0.197997 0.383426,-0.366888 0.860778,-0.648008 1.179601,-1.075091 0.229747,0.177271 0.355424,-0.128984 0.602809,-0.182562 0.103188,-0.300302 0.34947,-0.535781 0.655946,-0.621991 0.474266,-0.159191 0.65793,-0.654624 1.014016,-0.950075 0.05622,-0.37196 0.413632,-0.558491 0.750093,-0.635661 0.237685,-0.166467 0.510206,-0.286633 0.759133,-0.433034 0.05997,-0.173523 0.511088,-0.207479 0.314414,-0.428846 -0.305594,-0.15875 -0.376591,-0.4833052 -0.527403,-0.7355422 0.07629,-0.310445 -0.333595,-0.545263 -0.227321,-0.890544 0.19006,-0.366006 0.120826,-0.842256 0.43524,-1.14763 0.2357,-0.202406 0.560255,-0.224454 0.851958,-0.284206 m 2.921221,5.3412762 c -0.01609,0.09349 -0.02514,0.192044 -0.06879,0.278253 -0.346825,0.239007 -0.219604,0.754504 -0.390702,1.109266 -0.05666,0.475148 -0.344839,0.859234 -0.598178,1.2517 0.05336,0.03439 0.200642,0.206596 0.195792,0.02447 -0.01191,-0.166688 0.229084,-0.183003 0.192042,-0.355424 0.106716,-0.117298 0.319044,-0.07188 0.405916,-0.218061 0.345722,-0.465005 0.510866,-1.030111 0.778977,-1.538111 0.217841,0.103408 0.345943,-0.203068 0.498299,-0.294128 -0.192044,-0.401065 -0.683948,-0.0904 -1.013354,-0.257969 m -4.772643,0.865187 c -0.123031,0.07276 -0.255984,0.24011 -0.194689,0.378575 -0.197334,0.203509 -0.429506,0.383425 -0.728486,0.367991 -0.272741,-0.01257 -0.397978,0.270096 -0.460375,0.491684 -0.171098,0.281341 -0.563562,0.389378 -0.861439,0.256206 -0.141331,-0.101865 -0.317941,0.02271 -0.461037,0.05358 -0.300523,0.387173 -0.910828,0.219162 -1.245526,0.597076 0.01036,0.164924 -0.180799,0.235919 -0.291703,0.293908 0.19513,0.439649 0.242534,0.931995 0.468313,1.379802 0.341091,0.09745 0.704453,0.174404 1.053924,0.203729 0.08444,0.06152 0.01896,0.158089 -0.07298,0.147727 -0.266788,-0.04873 -0.540852,-0.03947 -0.809404,-0.0796 0.96154,3.624791 1.933443,7.246716 2.916811,10.865555 0.552538,-0.106715 0.911489,-0.643819 1.33372,-0.991084 0.255102,-0.404151 0.19491,-0.915239 0.08467,-1.359078 -0.138466,-0.615376 -0.301846,-1.230312 -0.333375,-1.863547 -0.132072,-0.274506 -0.461036,-0.503151 -0.34903,-0.89275 -0.147725,-0.189396 -0.206375,-0.445822 -0.137363,-0.68086 -0.165364,-0.243416 -0.156325,-0.60788 0.08908,-0.79353 -0.110022,-0.786694 -0.06019,-1.57824 -0.05578,-2.367579 0.03219,-0.189177 -0.260395,-0.146182 -0.286853,-0.319044 -0.156545,-0.952721 0.167349,-1.917347 0.585832,-2.764013 -0.21321,-0.06064 0.137584,-0.07871 0.08312,-0.213211 0.001,-0.132513 0.122149,-0.180358 0.232612,-0.174846 0.201084,-0.210784 0.269435,-0.451776 0.578777,-0.541073 -0.471399,-0.436341 -0.918766,-0.935963 -1.039371,-1.589044 -0.1087,-0.100982 -0.0042,-0.345942 -0.09944,-0.406576 z"
       inkscape:connector-curvature="0"
       style="opacity:1;fill:#008000;stroke-width:0.02204861" />
    <path
       id="path957-3"
       d="m 144.91077,7.282109 h 0.32698 c 0.26062,0.04806 0.49257,0.190279 0.69321,0.357188 0.36601,0.42201 0.29038,1.009385 0.3239,1.522898 0.0185,0.146623 0.0838,0.403047 0.28773,0.335359 0.2002,-0.09591 0.282,0.198878 0.13736,0.29523 -0.23724,0.155002 -0.63566,0.05468 -0.68659,0.411869 0.0915,0.23636 0.3735,0.192704 0.57525,0.2271 0.35498,0.21762 0.80852,0.166247 1.20099,0.306035 0.34836,0.166026 0.70423,0.304933 1.00784,0.541293 0.49631,0.08687 1.00387,0.173082 1.50768,0.08202 0.25069,-0.04035 0.41452,0.265906 0.67359,0.179697 0.10627,-0.01455 0.27737,-0.179255 0.35652,-0.04476 v 0.04013 c -0.2088,0.09327 -0.44538,0.192925 -0.51814,0.431932 -0.0443,0.207698 -0.29435,0.329407 -0.24386,0.562019 -5e-4,0.309122 -0.17991,0.575469 -0.41209,0.765748 -0.50028,0.584289 -1.07641,1.103312 -1.73213,1.512755 -0.0481,0.282885 -0.3314,0.45332 -0.52961,0.603911 0.22093,0.159853 0.0988,0.551437 0.39313,0.576131 0.17572,0.02998 0.16271,0.27208 0.0357,0.349913 -0.19932,0.09437 -0.42267,0.0485 -0.63456,0.0635 0.51461,0.721209 0.54835,1.652323 0.70225,2.495461 -0.0657,0.278695 -0.30714,0.659695 -0.63566,0.583185 0.0203,0.110023 0.13934,0.206375 0.0739,0.325218 -0.1464,0.198216 -0.0238,0.450893 -0.13075,0.65793 0.15522,0.08797 0.14442,0.273623 0.007,0.372622 -0.0891,0.295451 -0.095,0.616038 -0.09,0.924938 0.39489,0.120827 0.31706,0.659916 0.14288,0.934201 -0.2712,0.395552 0.25444,0.850194 -0.0265,1.228989 -0.0968,0.158088 -0.2895,0.110242 -0.41474,0.02337 0.32742,1.122495 -0.42311,2.215224 -0.20373,3.331104 0.40217,0.505796 0.8696,0.928246 1.33218,1.380464 0.0391,-0.0077 0.11531,-0.06085 0.13405,-0.013 -0.0382,0.223132 0.44803,0.130969 0.34506,0.353441 h -0.14067 c -0.57282,-0.157869 -1.171,-0.234598 -1.71869,-0.474707 -0.34241,-0.152355 -0.75758,-0.04828 -1.07487,-0.268993 0.008,-0.651317 0.36778,-1.231856 0.30538,-1.894638 -0.0507,-0.453539 -0.2604,-0.877755 -0.27583,-1.33813 -0.0443,-0.481322 0.13802,-0.959114 0.0553,-1.43779 0.0697,-0.273623 -0.16117,-0.554082 -5e-4,-0.827925 -0.08,-0.265686 -0.0659,-0.550774 -0.14155,-0.817342 -0.2088,-0.48507 0.0476,-1.036726 -0.22093,-1.50592 -0.0163,-0.260616 -0.1281,-0.582525 -0.0144,-0.823517 -0.18058,-0.173521 -0.14398,-0.485068 -0.17705,-0.679096 -0.33646,0.397096 -0.31044,0.955366 -0.51638,1.409788 -0.0864,0.406797 -0.12612,0.855706 -0.39202,1.212453 -0.17044,0.224233 -0.0591,0.538207 -0.24166,0.749433 0.06,0.271638 -0.0207,0.581201 0.15743,0.818885 0.20638,0.182563 0.005,0.483526 0.0979,0.701586 0.1087,0.586713 0.32477,1.189082 0.16294,1.788143 -0.19293,0.712391 -0.25422,1.503937 0.058,2.19075 -0.0335,0.225558 0.18962,0.472282 0.0326,0.682185 -1.07729,0.178373 -2.17245,0.295231 -3.26871,0.291702 0.0316,-0.234819 0.50933,-0.02911 0.5607,-0.295673 0.0512,-0.03704 0.084,0.03308 0.12854,0.04741 -1.1344,-3.58356 -2.28644,-7.168002 -3.42922,-10.746934 -0.22974,0.06747 -0.31904,0.393127 -0.56466,0.410104 0.0836,-0.311106 0.50998,-0.486393 0.53865,-0.826602 -0.0712,-0.416718 -0.23769,-0.769056 -0.32257,-1.166372 -0.34132,0.04653 -0.5327,-0.240109 -0.75208,-0.421129 v -0.202415 c 0.0439,-0.06328 0.0481,-0.138245 0,-0.200642 v -0.09635 c 0.13141,-0.15875 0.28994,-0.295892 0.45861,-0.41297 0.29788,-0.03682 0.66344,0.05755 0.88834,-0.197997 0.38342,-0.366888 0.86077,-0.648008 1.1796,-1.07509 0.22974,0.17727 0.35542,-0.128985 0.60281,-0.182563 0.10318,-0.300302 0.34947,-0.535781 0.65594,-0.62199 0.47427,-0.159192 0.65793,-0.654625 1.01402,-0.950076 0.0562,-0.37196 0.41363,-0.558492 0.75009,-0.635661 0.23769,-0.166467 0.51021,-0.286633 0.75914,-0.433034 0.06,-0.173523 0.51108,-0.207479 0.31441,-0.428846 -0.30559,-0.15875 -0.37659,-0.483306 -0.5274,-0.735542 0.0763,-0.310445 -0.3336,-0.545263 -0.22732,-0.890544 0.19005,-0.366006 0.12082,-0.842256 0.43523,-1.14763 0.2357,-0.202406 0.56026,-0.224454 0.85196,-0.284206 m 2.92108,5.341279 c -0.0161,0.09349 -0.0251,0.192043 -0.0688,0.278253 -0.34683,0.239007 -0.21961,0.754504 -0.39071,1.109265 -0.0567,0.475148 -0.34483,0.859235 -0.59817,1.2517 0.0533,0.03439 0.20064,0.206596 0.19579,0.02447 -0.0119,-0.166687 0.22908,-0.183003 0.19204,-0.355424 0.10672,-0.117297 0.31905,-0.07188 0.40592,-0.21806 0.34572,-0.465005 0.51086,-1.030112 0.77897,-1.538112 0.21784,0.103409 0.34595,-0.203067 0.4983,-0.294128 -0.19204,-0.401064 -0.68394,-0.0904 -1.01335,-0.257968 m -4.77264,0.865187 c -0.12304,0.07276 -0.25599,0.240109 -0.19469,0.378575 -0.19734,0.203508 -0.42951,0.383425 -0.72849,0.367991 -0.27274,-0.01257 -0.39798,0.270096 -0.46037,0.491684 -0.1711,0.281341 -0.56357,0.389378 -0.86144,0.256205 -0.14133,-0.101864 -0.31794,0.02271 -0.46104,0.05358 -0.30052,0.387172 -0.91083,0.219162 -1.24553,0.597075 0.0103,0.164925 -0.1808,0.23592 -0.2917,0.293909 0.19513,0.439649 0.24254,0.931995 0.46831,1.379802 0.34109,0.09745 0.70446,0.174404 1.05393,0.203729 0.0844,0.06152 0.0189,0.158089 -0.073,0.147726 -0.26679,-0.04873 -0.54086,-0.03947 -0.80941,-0.0796 0.96154,3.624792 1.93344,7.246717 2.91681,10.865555 0.55254,-0.106714 0.91149,-0.643818 1.33372,-0.991084 0.25511,-0.404151 0.19491,-0.915238 0.0847,-1.359077 -0.13847,-0.615376 -0.30185,-1.230312 -0.33338,-1.863548 -0.13207,-0.274505 -0.46103,-0.50315 -0.34903,-0.892749 -0.14772,-0.189397 -0.20637,-0.445823 -0.13736,-0.68086 -0.16536,-0.243417 -0.15632,-0.60788 0.0891,-0.79353 -0.11002,-0.786694 -0.0602,-1.57824 -0.0558,-2.367579 0.0322,-0.189178 -0.2604,-0.146183 -0.28686,-0.319044 -0.15654,-0.952721 0.16735,-1.917347 0.58584,-2.764014 -0.21322,-0.06063 0.13758,-0.07871 0.0831,-0.21321 0.001,-0.132513 0.12215,-0.180359 0.23261,-0.174846 0.20108,-0.210784 0.26943,-0.451776 0.57878,-0.541073 -0.4714,-0.436342 -0.91877,-0.935964 -1.03937,-1.589044 -0.1087,-0.100982 -0.004,-0.345943 -0.0994,-0.406576 z"
       inkscape:connector-curvature="0"
       style="opacity:1;fill:#800080;stroke-width:0.02204861" />
    <path
       style="fill:none;fill-opacity:1;fill-rule:evenodd;stroke:#000000;stroke-width:0.5;stroke-linecap:butt;stroke-linejoin:miter;stroke-miterlimit:4;stroke-dasharray:none;stroke-opacity:1;marker-end:url(#Arrow2Mend)"
       d="M 47.296277,40.354171 H 145.19213"
       id="path1698"
       inkscape:connector-type="polyline"
       inkscape:connector-curvature="0" />
    <text
       xml:space="preserve"
       style="font-style:normal;font-variant:normal;font-weight:normal;font-stretch:normal;font-size:5.64444447px;line-height:1;font-family:arial;-inkscape-font-specification:arial;letter-spacing:0px;word-spacing:0px;fill:#000000;fill-opacity:1;stroke:none;stroke-width:0.26458332"
       x="65.771202"
       y="38.079567"
       id="text2048"><tspan
         sodipodi:role="line"
         id="tspan2046"
         x="65.771202"
         y="38.079567"
         style="stroke-width:0.26458332">If you respond, I'll attack</tspan></text>
    <text
       xml:space="preserve"
       style="font-style:normal;font-variant:normal;font-weight:normal;font-stretch:normal;font-size:5.64444447px;line-height:1;font-family:arial;-inkscape-font-specification:arial;letter-spacing:0px;word-spacing:0px;fill:#000000;fill-opacity:1;stroke:none;stroke-width:0.26458332"
       x="66.000664"
       y="56.640835"
       id="text2048-1"><tspan
         sodipodi:role="line"
         id="tspan2046-2"
         x="66.000664"
         y="56.640835"
         style="stroke-width:0.26458332">If you respond, I'll attack</tspan></text>
    <path
       style="fill:none;fill-opacity:1;fill-rule:evenodd;stroke:#000000;stroke-width:0.5;stroke-linecap:butt;stroke-linejoin:miter;stroke-miterlimit:4;stroke-dasharray:none;stroke-opacity:1;marker-end:url(#Arrow2Mend-7)"
       d="M 145.84954,58.875003 H 47.953725"
       id="path1698-9"
       inkscape:connector-type="polyline"
       inkscape:connector-curvature="0" />
    <path
       style="fill:none;fill-opacity:1;fill-rule:evenodd;stroke:#000000;stroke-width:0.5;stroke-linecap:butt;stroke-linejoin:miter;stroke-miterlimit:4;stroke-dasharray:none;stroke-opacity:1;marker-end:url(#marker3945)"
       d="M 47.296279,77.395837 H 145.19213"
       id="path1698-2"
       inkscape:connector-type="polyline"
       inkscape:connector-curvature="0" />
    <text
       xml:space="preserve"
       style="font-style:normal;font-variant:normal;font-weight:normal;font-stretch:normal;font-size:5.64444447px;line-height:1;font-family:arial;-inkscape-font-specification:arial;letter-spacing:0px;word-spacing:0px;fill:#000000;fill-opacity:1;stroke:none;stroke-width:0.26458332"
       x="55.461151"
       y="75.306847"
       id="text2048-6"><tspan
         sodipodi:role="line"
         id="tspan2046-1"
         x="55.461151"
         y="75.306847"
         style="stroke-width:0.26458332">I'll attack if I know you got this</tspan></text>
    <path
       style="fill:none;fill-opacity:1;fill-rule:evenodd;stroke:#000000;stroke-width:0.5133357;stroke-linecap:butt;stroke-linejoin:miter;stroke-miterlimit:4;stroke-dasharray:none;stroke-opacity:1"
       d="M 146.26327,119.72916 V 29.770833"
       id="path1698-3"
       inkscape:connector-type="polyline"
       inkscape:connector-curvature="0" />
    <path
       style="fill:none;fill-opacity:1;fill-rule:evenodd;stroke:#000000;stroke-width:0.51333565;stroke-linecap:butt;stroke-linejoin:miter;stroke-miterlimit:4;stroke-dasharray:none;stroke-opacity:1"
       d="M 46.882548,119.72916 V 29.770839"
       id="path1698-3-7"
       inkscape:connector-type="polyline"
       inkscape:connector-curvature="0" />
  </g>
</svg>
