<?xml version="1.0" encoding="UTF-8" standalone="no"?>
<svg
   xmlns:dc="http://purl.org/dc/elements/1.1/"
   xmlns:cc="http://creativecommons.org/ns#"
   xmlns:rdf="http://www.w3.org/1999/02/22-rdf-syntax-ns#"
   xmlns:svg="http://www.w3.org/2000/svg"
   xmlns="http://www.w3.org/2000/svg"
   id="svg1127"
   version="1.1"
   viewBox="0 0 13.5599 21.717891"
   height="21.717892mm"
   width="13.5599mm">
  <defs
     id="defs1121">
    <marker
       style="overflow:visible"
       id="marker3945"
       refX="0"
       refY="0"
       orient="auto">
      <path
         transform="scale(-0.6)"
         d="M 8.7185878,4.0337352 -2.2072895,0.01601326 8.7185884,-4.0017078 c -1.7454984,2.3720609 -1.7354408,5.6174519 -6e-7,8.035443 z"
         style="fill:#000000;fill-opacity:1;fill-rule:evenodd;stroke:#000000;stroke-width:0.625;stroke-linejoin:round;stroke-opacity:1"
         id="path3943" />
    </marker>
    <marker
       style="overflow:visible"
       id="Arrow1Lstart"
       refX="0"
       refY="0"
       orient="auto">
      <path
         transform="matrix(0.8,0,0,0.8,10,0)"
         style="fill:#000000;fill-opacity:1;fill-rule:evenodd;stroke:#000000;stroke-width:1.00000003pt;stroke-opacity:1"
         d="M 0,0 5,-5 -12.5,0 5,5 Z"
         id="path1700" />
    </marker>
    <marker
       style="overflow:visible"
       id="Arrow2Mend"
       refX="0"
       refY="0"
       orient="auto">
      <path
         transform="scale(-0.6)"
         d="M 8.7185878,4.0337352 -2.2072895,0.01601326 8.7185884,-4.0017078 c -1.7454984,2.3720609 -1.7354408,5.6174519 -6e-7,8.035443 z"
         style="fill:#000000;fill-opacity:1;fill-rule:evenodd;stroke:#000000;stroke-width:0.625;stroke-linejoin:round;stroke-opacity:1"
         id="path1727" />
    </marker>
    <marker
       style="overflow:visible"
       id="Arrow2Lend"
       refX="0"
       refY="0"
       orient="auto">
      <path
         transform="matrix(-1.1,0,0,-1.1,-1.1,0)"
         d="M 8.7185878,4.0337352 -2.2072895,0.01601326 8.7185884,-4.0017078 c -1.7454984,2.3720609 -1.7354408,5.6174519 -6e-7,8.035443 z"
         style="fill:#000000;fill-opacity:1;fill-rule:evenodd;stroke:#000000;stroke-width:0.625;stroke-linejoin:round;stroke-opacity:1"
         id="path1721" />
    </marker>
    <marker
       style="overflow:visible"
       id="Arrow1Lend"
       refX="0"
       refY="0"
       orient="auto">
      <path
         transform="matrix(-0.8,0,0,-0.8,-10,0)"
         style="fill:#000000;fill-opacity:1;fill-rule:evenodd;stroke:#000000;stroke-width:1.00000003pt;stroke-opacity:1"
         d="M 0,0 5,-5 -12.5,0 5,5 Z"
         id="path1703" />
    </marker>
    <marker
       style="overflow:visible"
       id="Arrow2Mend-7"
       refX="0"
       refY="0"
       orient="auto">
      <path
         transform="scale(-0.6)"
         d="M 8.7185878,4.0337352 -2.2072895,0.01601326 8.7185884,-4.0017078 c -1.7454984,2.3720609 -1.7354408,5.6174519 -6e-7,8.035443 z"
         style="fill:#000000;fill-opacity:1;fill-rule:evenodd;stroke:#000000;stroke-width:0.625;stroke-linejoin:round;stroke-opacity:1"
         id="path1727-0" />
    </marker>
    <marker
       style="overflow:visible"
       id="Arrow2Mend-7-3"
       refX="0"
       refY="0"
       orient="auto">
      <path
         transform="scale(-0.6)"
         d="M 8.7185878,4.0337352 -2.2072895,0.01601326 8.7185884,-4.0017078 c -1.7454984,2.3720609 -1.7354408,5.6174519 -6e-7,8.035443 z"
         style="fill:#000000;fill-opacity:1;fill-rule:evenodd;stroke:#000000;stroke-width:0.625;stroke-linejoin:round;stroke-opacity:1"
         id="path1727-0-6" />
    </marker>
    <marker
       style="overflow:visible"
       id="Arrow2Mend-0"
       refX="0"
       refY="0"
       orient="auto">
      <path
         transform="scale(-0.6)"
         d="M 8.7185878,4.0337352 -2.2072895,0.01601326 8.7185884,-4.0017078 c -1.7454984,2.3720609 -1.7354408,5.6174519 -6e-7,8.035443 z"
         style="fill:#000000;fill-opacity:1;fill-rule:evenodd;stroke:#000000;stroke-width:0.625;stroke-linejoin:round;stroke-opacity:1"
         id="path1727-6" />
    </marker>
    <marker
       style="overflow:visible"
       id="Arrow2Mend-2"
       refX="0"
       refY="0"
       orient="auto">
      <path
         transform="scale(-0.6)"
         d="M 8.7185878,4.0337352 -2.2072895,0.01601326 8.7185884,-4.0017078 c -1.7454984,2.3720609 -1.7354408,5.6174519 -6e-7,8.035443 z"
         style="fill:#000000;fill-opacity:1;fill-rule:evenodd;stroke:#000000;stroke-width:0.625;stroke-linejoin:round;stroke-opacity:1"
         id="path1727-02" />
    </marker>
    <marker
       style="overflow:visible"
       id="Arrow2Mend-7-3-5"
       refX="0"
       refY="0"
       orient="auto">
      <path
         transform="scale(-0.6)"
         d="M 8.7185878,4.0337352 -2.2072895,0.01601326 8.7185884,-4.0017078 c -1.7454984,2.3720609 -1.7354408,5.6174519 -6e-7,8.035443 z"
         style="fill:#000000;fill-opacity:1;fill-rule:evenodd;stroke:#000000;stroke-width:0.625;stroke-linejoin:round;stroke-opacity:1"
         id="path1727-0-6-9" />
    </marker>
    <marker
       style="overflow:visible"
       id="Arrow2Mend-7-3-2"
       refX="0"
       refY="0"
       orient="auto">
      <path
         transform="scale(-0.6)"
         d="M 8.7185878,4.0337352 -2.2072895,0.01601326 8.7185884,-4.0017078 c -1.7454984,2.3720609 -1.7354408,5.6174519 -6e-7,8.035443 z"
         style="fill:#000000;fill-opacity:1;fill-rule:evenodd;stroke:#000000;stroke-width:0.625;stroke-linejoin:round;stroke-opacity:1"
         id="path1727-0-6-8" />
    </marker>
    <marker
       style="overflow:visible"
       id="marker3945-9"
       refX="0"
       refY="0"
       orient="auto">
      <path
         transform="scale(-0.6)"
         d="M 8.7185878,4.0337352 -2.2072895,0.01601326 8.7185884,-4.0017078 c -1.7454984,2.3720609 -1.7354408,5.6174519 -6e-7,8.035443 z"
         style="fill:#000000;fill-opacity:1;fill-rule:evenodd;stroke:#000000;stroke-width:0.625;stroke-linejoin:round;stroke-opacity:1"
         id="path3943-7" />
    </marker>
  </defs>
  <metadata
     id="metadata1124">
    <rdf:RDF>
      <cc:Work
         rdf:about="">
        <dc:format>image/svg+xml</dc:format>
        <dc:type
           rdf:resource="http://purl.org/dc/dcmitype/StillImage" />
        <dc:title></dc:title>
      </cc:Work>
    </rdf:RDF>
  </metadata>
  <g
     transform="translate(-39.67912,-7.2821088)"
     id="layer1">
    <path
       style="opacity:1;fill:#008000;stroke-width:0.02204861"
       d="m 46.83456,7.2821088 h 0.326982 c 0.260614,0.04807 0.492565,0.19028 0.693208,0.357188 0.366006,0.42201 0.29038,1.009385 0.323894,1.522898 0.01852,0.146623 0.08378,0.403048 0.287734,0.335359 0.200201,-0.09591 0.282002,0.198878 0.137362,0.29523 -0.237242,0.155003 -0.635661,0.05468 -0.686593,0.4118692 0.0915,0.236361 0.373504,0.192704 0.575249,0.2271 0.354982,0.21762 0.808522,0.166247 1.200987,0.306036 0.348368,0.166026 0.704232,0.304932 1.007842,0.541292 0.496315,0.08687 1.003874,0.173083 1.507684,0.08202 0.250693,-0.04035 0.414515,0.265906 0.673585,0.179697 0.106275,-0.01455 0.277373,-0.179255 0.356526,-0.04476 v 0.04013 c -0.208799,0.09327 -0.445382,0.192925 -0.518142,0.431932 -0.04432,0.207698 -0.294349,0.329407 -0.243858,0.562019 -6.5e-4,0.309122 -0.179917,0.575469 -0.412089,0.765748 -0.500282,0.584288 -1.076412,1.103312 -1.732138,1.512755 -0.04807,0.282885 -0.331391,0.45332 -0.529608,0.603911 0.220927,0.159854 0.09878,0.551437 0.393128,0.576131 0.175727,0.02998 0.162718,0.27208 0.03572,0.349912 -0.19932,0.09437 -0.422672,0.0485 -0.63456,0.0635 0.514615,0.72121 0.548349,1.652323 0.702248,2.495462 -0.0657,0.278695 -0.307136,0.659695 -0.635661,0.583185 0.02029,0.110023 0.139348,0.206375 0.07386,0.325218 -0.146403,0.198217 -0.02381,0.450894 -0.130749,0.65793 0.155223,0.08797 0.144419,0.273623 0.007,0.372622 -0.08908,0.295451 -0.09503,0.616037 -0.08996,0.924938 0.394891,0.120828 0.317058,0.659916 0.142875,0.934201 -0.271198,0.395552 0.254441,0.850194 -0.02646,1.228989 -0.09679,0.158087 -0.289499,0.110243 -0.414734,0.02337 0.327422,1.122495 -0.423114,2.215224 -0.203729,3.331104 0.402166,0.505796 0.869596,0.928246 1.332177,1.380464 0.03902,-0.0077 0.115313,-0.06085 0.134055,-0.013 -0.03815,0.223132 0.448028,0.130968 0.34506,0.353441 h -0.140669 c -0.572823,-0.157869 -1.171003,-0.234599 -1.71869,-0.474708 -0.342415,-0.152355 -0.75759,-0.04828 -1.07487,-0.268993 0.0079,-0.651316 0.367771,-1.231856 0.305374,-1.894637 -0.05071,-0.45354 -0.260395,-0.877755 -0.275828,-1.33813 -0.04432,-0.481322 0.138024,-0.959115 0.05534,-1.437791 0.06967,-0.273623 -0.161175,-0.554081 -6.5e-4,-0.827925 -0.08004,-0.265685 -0.06593,-0.550774 -0.141552,-0.817342 -0.2088,-0.485069 0.04762,-1.036726 -0.220927,-1.505919 -0.01631,-0.260616 -0.128102,-0.582526 -0.01433,-0.823517 -0.18059,-0.173519 -0.14399,-0.485066 -0.177063,-0.679094 -0.336462,0.397096 -0.310444,0.955367 -0.516378,1.409789 -0.08643,0.406796 -0.126118,0.855706 -0.392024,1.212453 -0.170437,0.224233 -0.05909,0.538206 -0.241653,0.749432 0.05997,0.271638 -0.02072,0.581201 0.157427,0.818885 0.206375,0.182563 0.0049,0.483526 0.0979,0.701587 0.108701,0.586712 0.324776,1.189081 0.16294,1.788143 -0.192926,0.71239 -0.254221,1.503936 0.05799,2.19075 -0.03352,0.225557 0.189617,0.472281 0.03263,0.682184 -1.077296,0.178373 -2.17245,0.295231 -3.268707,0.291703 0.03153,-0.234819 0.509323,-0.02911 0.560697,-0.295673 0.05115,-0.03704 0.08401,0.03307 0.128542,0.0474 -1.134399,-3.58356 -2.286438,-7.168003 -3.429217,-10.746934 -0.229747,0.06747 -0.319044,0.393127 -0.564666,0.410104 0.08356,-0.311106 0.509984,-0.486393 0.538648,-0.826602 -0.07122,-0.416719 -0.237685,-0.769056 -0.322571,-1.166372 -0.341262,0.04653 -0.532645,-0.240108 -0.752028,-0.421128 v -0.202406 c 0.04387,-0.06328 0.04807,-0.138245 0,-0.200642 v -0.09635 c 0.131409,-0.15875 0.289938,-0.295892 0.45861,-0.41297 0.297877,-0.03682 0.663443,0.05755 0.888339,-0.197997 0.383426,-0.366888 0.860778,-0.648008 1.179601,-1.075091 0.229747,0.177271 0.355424,-0.128984 0.602809,-0.182562 0.103188,-0.300302 0.34947,-0.535781 0.655946,-0.621991 0.474266,-0.159191 0.65793,-0.654624 1.014016,-0.950075 0.05622,-0.37196 0.413632,-0.558491 0.750093,-0.635661 0.237685,-0.166467 0.510206,-0.286633 0.759133,-0.433034 0.05997,-0.173523 0.511088,-0.207479 0.314414,-0.428846 -0.305594,-0.15875 -0.376591,-0.4833052 -0.527403,-0.7355422 0.07629,-0.310445 -0.333595,-0.545263 -0.227321,-0.890544 0.19006,-0.366006 0.120826,-0.842256 0.43524,-1.14763 0.2357,-0.202406 0.560255,-0.224454 0.851958,-0.284206 m 2.921221,5.3412762 c -0.01609,0.09349 -0.02514,0.192044 -0.06879,0.278253 -0.346825,0.239007 -0.219604,0.754504 -0.390702,1.109266 -0.05666,0.475148 -0.344839,0.859234 -0.598178,1.2517 0.05336,0.03439 0.200642,0.206596 0.195792,0.02447 -0.01191,-0.166688 0.229084,-0.183003 0.192042,-0.355424 0.106716,-0.117298 0.319044,-0.07188 0.405916,-0.218061 0.345722,-0.465005 0.510866,-1.030111 0.778977,-1.538111 0.217841,0.103408 0.345943,-0.203068 0.498299,-0.294128 -0.192044,-0.401065 -0.683948,-0.0904 -1.013354,-0.257969 m -4.772643,0.865187 c -0.123031,0.07276 -0.255984,0.24011 -0.194689,0.378575 -0.197334,0.203509 -0.429506,0.383425 -0.728486,0.367991 -0.272741,-0.01257 -0.397978,0.270096 -0.460375,0.491684 -0.171098,0.281341 -0.563562,0.389378 -0.861439,0.256206 -0.141331,-0.101865 -0.317941,0.02271 -0.461037,0.05358 -0.300523,0.387173 -0.910828,0.219162 -1.245526,0.597076 0.01036,0.164924 -0.180799,0.235919 -0.291703,0.293908 0.19513,0.439649 0.242534,0.931995 0.468313,1.379802 0.341091,0.09745 0.704453,0.174404 1.053924,0.203729 0.08444,0.06152 0.01896,0.158089 -0.07298,0.147727 -0.266788,-0.04873 -0.540852,-0.03947 -0.809404,-0.0796 0.96154,3.624791 1.933443,7.246716 2.916811,10.865555 0.552538,-0.106715 0.911489,-0.643819 1.33372,-0.991084 0.255102,-0.404151 0.19491,-0.915239 0.08467,-1.359078 -0.138466,-0.615376 -0.301846,-1.230312 -0.333375,-1.863547 -0.132072,-0.274506 -0.461036,-0.503151 -0.34903,-0.89275 -0.147725,-0.189396 -0.206375,-0.445822 -0.137363,-0.68086 -0.165364,-0.243416 -0.156325,-0.60788 0.08908,-0.79353 -0.110022,-0.786694 -0.06019,-1.57824 -0.05578,-2.367579 0.03219,-0.189177 -0.260395,-0.146182 -0.286853,-0.319044 -0.156545,-0.952721 0.167349,-1.917347 0.585832,-2.764013 -0.21321,-0.06064 0.137584,-0.07871 0.08312,-0.213211 0.001,-0.132513 0.122149,-0.180358 0.232612,-0.174846 0.201084,-0.210784 0.269435,-0.451776 0.578777,-0.541073 -0.471399,-0.436341 -0.918766,-0.935963 -1.039371,-1.589044 -0.1087,-0.100982 -0.0042,-0.345942 -0.09944,-0.406576 z"
       id="path957" />
  </g>
</svg>
