<?xml version="1.0" encoding="UTF-8" standalone="no"?>
<svg
   xmlns:dc="http://purl.org/dc/elements/1.1/"
   xmlns:cc="http://creativecommons.org/ns#"
   xmlns:rdf="http://www.w3.org/1999/02/22-rdf-syntax-ns#"
   xmlns:svg="http://www.w3.org/2000/svg"
   xmlns="http://www.w3.org/2000/svg"
   id="svg1127"
   version="1.1"
   viewBox="0 0 13.55997 21.717891"
   height="21.717892mm"
   width="13.55997mm">
  <defs
     id="defs1121">
    <marker
       style="overflow:visible"
       id="marker3945"
       refX="0"
       refY="0"
       orient="auto">
      <path
         transform="scale(-0.6)"
         d="M 8.7185878,4.0337352 -2.2072895,0.01601326 8.7185884,-4.0017078 c -1.7454984,2.3720609 -1.7354408,5.6174519 -6e-7,8.035443 z"
         style="fill:#000000;fill-opacity:1;fill-rule:evenodd;stroke:#000000;stroke-width:0.625;stroke-linejoin:round;stroke-opacity:1"
         id="path3943" />
    </marker>
    <marker
       style="overflow:visible"
       id="Arrow1Lstart"
       refX="0"
       refY="0"
       orient="auto">
      <path
         transform="matrix(0.8,0,0,0.8,10,0)"
         style="fill:#000000;fill-opacity:1;fill-rule:evenodd;stroke:#000000;stroke-width:1.00000003pt;stroke-opacity:1"
         d="M 0,0 5,-5 -12.5,0 5,5 Z"
         id="path1700" />
    </marker>
    <marker
       style="overflow:visible"
       id="Arrow2Mend"
       refX="0"
       refY="0"
       orient="auto">
      <path
         transform="scale(-0.6)"
         d="M 8.7185878,4.0337352 -2.2072895,0.01601326 8.7185884,-4.0017078 c -1.7454984,2.3720609 -1.7354408,5.6174519 -6e-7,8.035443 z"
         style="fill:#000000;fill-opacity:1;fill-rule:evenodd;stroke:#000000;stroke-width:0.625;stroke-linejoin:round;stroke-opacity:1"
         id="path1727" />
    </marker>
    <marker
       style="overflow:visible"
       id="Arrow2Lend"
       refX="0"
       refY="0"
       orient="auto">
      <path
         transform="matrix(-1.1,0,0,-1.1,-1.1,0)"
         d="M 8.7185878,4.0337352 -2.2072895,0.01601326 8.7185884,-4.0017078 c -1.7454984,2.3720609 -1.7354408,5.6174519 -6e-7,8.035443 z"
         style="fill:#000000;fill-opacity:1;fill-rule:evenodd;stroke:#000000;stroke-width:0.625;stroke-linejoin:round;stroke-opacity:1"
         id="path1721" />
    </marker>
    <marker
       style="overflow:visible"
       id="Arrow1Lend"
       refX="0"
       refY="0"
       orient="auto">
      <path
         transform="matrix(-0.8,0,0,-0.8,-10,0)"
         style="fill:#000000;fill-opacity:1;fill-rule:evenodd;stroke:#000000;stroke-width:1.00000003pt;stroke-opacity:1"
         d="M 0,0 5,-5 -12.5,0 5,5 Z"
         id="path1703" />
    </marker>
    <marker
       style="overflow:visible"
       id="Arrow2Mend-7"
       refX="0"
       refY="0"
       orient="auto">
      <path
         transform="scale(-0.6)"
         d="M 8.7185878,4.0337352 -2.2072895,0.01601326 8.7185884,-4.0017078 c -1.7454984,2.3720609 -1.7354408,5.6174519 -6e-7,8.035443 z"
         style="fill:#000000;fill-opacity:1;fill-rule:evenodd;stroke:#000000;stroke-width:0.625;stroke-linejoin:round;stroke-opacity:1"
         id="path1727-0" />
    </marker>
    <marker
       style="overflow:visible"
       id="Arrow2Mend-7-3"
       refX="0"
       refY="0"
       orient="auto">
      <path
         transform="scale(-0.6)"
         d="M 8.7185878,4.0337352 -2.2072895,0.01601326 8.7185884,-4.0017078 c -1.7454984,2.3720609 -1.7354408,5.6174519 -6e-7,8.035443 z"
         style="fill:#000000;fill-opacity:1;fill-rule:evenodd;stroke:#000000;stroke-width:0.625;stroke-linejoin:round;stroke-opacity:1"
         id="path1727-0-6" />
    </marker>
    <marker
       style="overflow:visible"
       id="Arrow2Mend-0"
       refX="0"
       refY="0"
       orient="auto">
      <path
         transform="scale(-0.6)"
         d="M 8.7185878,4.0337352 -2.2072895,0.01601326 8.7185884,-4.0017078 c -1.7454984,2.3720609 -1.7354408,5.6174519 -6e-7,8.035443 z"
         style="fill:#000000;fill-opacity:1;fill-rule:evenodd;stroke:#000000;stroke-width:0.625;stroke-linejoin:round;stroke-opacity:1"
         id="path1727-6" />
    </marker>
    <marker
       style="overflow:visible"
       id="Arrow2Mend-2"
       refX="0"
       refY="0"
       orient="auto">
      <path
         transform="scale(-0.6)"
         d="M 8.7185878,4.0337352 -2.2072895,0.01601326 8.7185884,-4.0017078 c -1.7454984,2.3720609 -1.7354408,5.6174519 -6e-7,8.035443 z"
         style="fill:#000000;fill-opacity:1;fill-rule:evenodd;stroke:#000000;stroke-width:0.625;stroke-linejoin:round;stroke-opacity:1"
         id="path1727-02" />
    </marker>
    <marker
       style="overflow:visible"
       id="Arrow2Mend-7-3-5"
       refX="0"
       refY="0"
       orient="auto">
      <path
         transform="scale(-0.6)"
         d="M 8.7185878,4.0337352 -2.2072895,0.01601326 8.7185884,-4.0017078 c -1.7454984,2.3720609 -1.7354408,5.6174519 -6e-7,8.035443 z"
         style="fill:#000000;fill-opacity:1;fill-rule:evenodd;stroke:#000000;stroke-width:0.625;stroke-linejoin:round;stroke-opacity:1"
         id="path1727-0-6-9" />
    </marker>
    <marker
       style="overflow:visible"
       id="Arrow2Mend-7-3-2"
       refX="0"
       refY="0"
       orient="auto">
      <path
         transform="scale(-0.6)"
         d="M 8.7185878,4.0337352 -2.2072895,0.01601326 8.7185884,-4.0017078 c -1.7454984,2.3720609 -1.7354408,5.6174519 -6e-7,8.035443 z"
         style="fill:#000000;fill-opacity:1;fill-rule:evenodd;stroke:#000000;stroke-width:0.625;stroke-linejoin:round;stroke-opacity:1"
         id="path1727-0-6-8" />
    </marker>
    <marker
       style="overflow:visible"
       id="marker3945-9"
       refX="0"
       refY="0"
       orient="auto">
      <path
         transform="scale(-0.6)"
         d="M 8.7185878,4.0337352 -2.2072895,0.01601326 8.7185884,-4.0017078 c -1.7454984,2.3720609 -1.7354408,5.6174519 -6e-7,8.035443 z"
         style="fill:#000000;fill-opacity:1;fill-rule:evenodd;stroke:#000000;stroke-width:0.625;stroke-linejoin:round;stroke-opacity:1"
         id="path3943-7" />
    </marker>
  </defs>
  <metadata
     id="metadata1124">
    <rdf:RDF>
      <cc:Work
         rdf:about="">
        <dc:format>image/svg+xml</dc:format>
        <dc:type
           rdf:resource="http://purl.org/dc/dcmitype/StillImage" />
        <dc:title></dc:title>
      </cc:Work>
    </rdf:RDF>
  </metadata>
  <g
     transform="translate(-137.75526,-7.282109)"
     id="layer1">
    <path
       style="opacity:1;fill:#800080;stroke-width:0.02204861"
       d="m 144.91077,7.282109 h 0.32698 c 0.26062,0.04806 0.49257,0.190279 0.69321,0.357188 0.36601,0.42201 0.29038,1.009385 0.3239,1.522898 0.0185,0.146623 0.0838,0.403047 0.28773,0.335359 0.2002,-0.09591 0.282,0.198878 0.13736,0.29523 -0.23724,0.155002 -0.63566,0.05468 -0.68659,0.411869 0.0915,0.23636 0.3735,0.192704 0.57525,0.2271 0.35498,0.21762 0.80852,0.166247 1.20099,0.306035 0.34836,0.166026 0.70423,0.304933 1.00784,0.541293 0.49631,0.08687 1.00387,0.173082 1.50768,0.08202 0.25069,-0.04035 0.41452,0.265906 0.67359,0.179697 0.10627,-0.01455 0.27737,-0.179255 0.35652,-0.04476 v 0.04013 c -0.2088,0.09327 -0.44538,0.192925 -0.51814,0.431932 -0.0443,0.207698 -0.29435,0.329407 -0.24386,0.562019 -5e-4,0.309122 -0.17991,0.575469 -0.41209,0.765748 -0.50028,0.584289 -1.07641,1.103312 -1.73213,1.512755 -0.0481,0.282885 -0.3314,0.45332 -0.52961,0.603911 0.22093,0.159853 0.0988,0.551437 0.39313,0.576131 0.17572,0.02998 0.16271,0.27208 0.0357,0.349913 -0.19932,0.09437 -0.42267,0.0485 -0.63456,0.0635 0.51461,0.721209 0.54835,1.652323 0.70225,2.495461 -0.0657,0.278695 -0.30714,0.659695 -0.63566,0.583185 0.0203,0.110023 0.13934,0.206375 0.0739,0.325218 -0.1464,0.198216 -0.0238,0.450893 -0.13075,0.65793 0.15522,0.08797 0.14442,0.273623 0.007,0.372622 -0.0891,0.295451 -0.095,0.616038 -0.09,0.924938 0.39489,0.120827 0.31706,0.659916 0.14288,0.934201 -0.2712,0.395552 0.25444,0.850194 -0.0265,1.228989 -0.0968,0.158088 -0.2895,0.110242 -0.41474,0.02337 0.32742,1.122495 -0.42311,2.215224 -0.20373,3.331104 0.40217,0.505796 0.8696,0.928246 1.33218,1.380464 0.0391,-0.0077 0.11531,-0.06085 0.13405,-0.013 -0.0382,0.223132 0.44803,0.130969 0.34506,0.353441 h -0.14067 c -0.57282,-0.157869 -1.171,-0.234598 -1.71869,-0.474707 -0.34241,-0.152355 -0.75758,-0.04828 -1.07487,-0.268993 0.008,-0.651317 0.36778,-1.231856 0.30538,-1.894638 -0.0507,-0.453539 -0.2604,-0.877755 -0.27583,-1.33813 -0.0443,-0.481322 0.13802,-0.959114 0.0553,-1.43779 0.0697,-0.273623 -0.16117,-0.554082 -5e-4,-0.827925 -0.08,-0.265686 -0.0659,-0.550774 -0.14155,-0.817342 -0.2088,-0.48507 0.0476,-1.036726 -0.22093,-1.50592 -0.0163,-0.260616 -0.1281,-0.582525 -0.0144,-0.823517 -0.18058,-0.173521 -0.14398,-0.485068 -0.17705,-0.679096 -0.33646,0.397096 -0.31044,0.955366 -0.51638,1.409788 -0.0864,0.406797 -0.12612,0.855706 -0.39202,1.212453 -0.17044,0.224233 -0.0591,0.538207 -0.24166,0.749433 0.06,0.271638 -0.0207,0.581201 0.15743,0.818885 0.20638,0.182563 0.005,0.483526 0.0979,0.701586 0.1087,0.586713 0.32477,1.189082 0.16294,1.788143 -0.19293,0.712391 -0.25422,1.503937 0.058,2.19075 -0.0335,0.225558 0.18962,0.472282 0.0326,0.682185 -1.07729,0.178373 -2.17245,0.295231 -3.26871,0.291702 0.0316,-0.234819 0.50933,-0.02911 0.5607,-0.295673 0.0512,-0.03704 0.084,0.03308 0.12854,0.04741 -1.1344,-3.58356 -2.28644,-7.168002 -3.42922,-10.746934 -0.22974,0.06747 -0.31904,0.393127 -0.56466,0.410104 0.0836,-0.311106 0.50998,-0.486393 0.53865,-0.826602 -0.0712,-0.416718 -0.23769,-0.769056 -0.32257,-1.166372 -0.34132,0.04653 -0.5327,-0.240109 -0.75208,-0.421129 v -0.202415 c 0.0439,-0.06328 0.0481,-0.138245 0,-0.200642 v -0.09635 c 0.13141,-0.15875 0.28994,-0.295892 0.45861,-0.41297 0.29788,-0.03682 0.66344,0.05755 0.88834,-0.197997 0.38342,-0.366888 0.86077,-0.648008 1.1796,-1.07509 0.22974,0.17727 0.35542,-0.128985 0.60281,-0.182563 0.10318,-0.300302 0.34947,-0.535781 0.65594,-0.62199 0.47427,-0.159192 0.65793,-0.654625 1.01402,-0.950076 0.0562,-0.37196 0.41363,-0.558492 0.75009,-0.635661 0.23769,-0.166467 0.51021,-0.286633 0.75914,-0.433034 0.06,-0.173523 0.51108,-0.207479 0.31441,-0.428846 -0.30559,-0.15875 -0.37659,-0.483306 -0.5274,-0.735542 0.0763,-0.310445 -0.3336,-0.545263 -0.22732,-0.890544 0.19005,-0.366006 0.12082,-0.842256 0.43523,-1.14763 0.2357,-0.202406 0.56026,-0.224454 0.85196,-0.284206 m 2.92108,5.341279 c -0.0161,0.09349 -0.0251,0.192043 -0.0688,0.278253 -0.34683,0.239007 -0.21961,0.754504 -0.39071,1.109265 -0.0567,0.475148 -0.34483,0.859235 -0.59817,1.2517 0.0533,0.03439 0.20064,0.206596 0.19579,0.02447 -0.0119,-0.166687 0.22908,-0.183003 0.19204,-0.355424 0.10672,-0.117297 0.31905,-0.07188 0.40592,-0.21806 0.34572,-0.465005 0.51086,-1.030112 0.77897,-1.538112 0.21784,0.103409 0.34595,-0.203067 0.4983,-0.294128 -0.19204,-0.401064 -0.68394,-0.0904 -1.01335,-0.257968 m -4.77264,0.865187 c -0.12304,0.07276 -0.25599,0.240109 -0.19469,0.378575 -0.19734,0.203508 -0.42951,0.383425 -0.72849,0.367991 -0.27274,-0.01257 -0.39798,0.270096 -0.46037,0.491684 -0.1711,0.281341 -0.56357,0.389378 -0.86144,0.256205 -0.14133,-0.101864 -0.31794,0.02271 -0.46104,0.05358 -0.30052,0.387172 -0.91083,0.219162 -1.24553,0.597075 0.0103,0.164925 -0.1808,0.23592 -0.2917,0.293909 0.19513,0.439649 0.24254,0.931995 0.46831,1.379802 0.34109,0.09745 0.70446,0.174404 1.05393,0.203729 0.0844,0.06152 0.0189,0.158089 -0.073,0.147726 -0.26679,-0.04873 -0.54086,-0.03947 -0.80941,-0.0796 0.96154,3.624792 1.93344,7.246717 2.91681,10.865555 0.55254,-0.106714 0.91149,-0.643818 1.33372,-0.991084 0.25511,-0.404151 0.19491,-0.915238 0.0847,-1.359077 -0.13847,-0.615376 -0.30185,-1.230312 -0.33338,-1.863548 -0.13207,-0.274505 -0.46103,-0.50315 -0.34903,-0.892749 -0.14772,-0.189397 -0.20637,-0.445823 -0.13736,-0.68086 -0.16536,-0.243417 -0.15632,-0.60788 0.0891,-0.79353 -0.11002,-0.786694 -0.0602,-1.57824 -0.0558,-2.367579 0.0322,-0.189178 -0.2604,-0.146183 -0.28686,-0.319044 -0.15654,-0.952721 0.16735,-1.917347 0.58584,-2.764014 -0.21322,-0.06063 0.13758,-0.07871 0.0831,-0.21321 0.001,-0.132513 0.12215,-0.180359 0.23261,-0.174846 0.20108,-0.210784 0.26943,-0.451776 0.57878,-0.541073 -0.4714,-0.436342 -0.91877,-0.935964 -1.03937,-1.589044 -0.1087,-0.100982 -0.004,-0.345943 -0.0994,-0.406576 z"
       id="path957-3" />
  </g>
</svg>
