<?xml version="1.0" encoding="UTF-8" standalone="no"?>
<!DOCTYPE svg PUBLIC "-//W3C//DTD SVG 1.1//EN"
 "http://www.w3.org/Graphics/SVG/1.1/DTD/svg11.dtd">
<!-- Generated by graphviz version 2.43.0 (0)
 -->
<!-- Title: G Pages: 1 -->
<svg width="752pt" height="404pt"
 viewBox="0.00 0.00 751.64 404.13" xmlns="http://www.w3.org/2000/svg" xmlns:xlink="http://www.w3.org/1999/xlink">
<g id="graph0" class="graph" transform="scale(1 1) rotate(0) translate(4 400.13)">
<title>G</title>
<polygon fill="white" stroke="transparent" points="-4,4 -4,-400.13 747.64,-400.13 747.64,4 -4,4"/>
<!-- A -->
<g id="node1" class="node">
<title>A</title>
<ellipse fill="none" stroke="black" cx="376.82" cy="-346.21" rx="34.83" ry="34.83"/>
<text text-anchor="middle" x="376.82" y="-342.51" font-family="Helvetica,sans-Serif" font-size="14.00">h(1&#45;8)</text>
<text text-anchor="middle" x="336.91" y="-384.93" font-family="Helvetica,sans-Serif" font-size="14.00">1</text>
</g>
<!-- B -->
<g id="node2" class="node">
<title>B</title>
<ellipse fill="none" stroke="black" cx="282.82" cy="-240.38" rx="34.83" ry="34.83"/>
<text text-anchor="middle" x="282.82" y="-236.68" font-family="Helvetica,sans-Serif" font-size="14.00">h(1&#45;4)</text>
<text text-anchor="middle" x="242.91" y="-279.1" font-family="Helvetica,sans-Serif" font-size="14.00">2</text>
</g>
<!-- A&#45;&gt;B -->
<g id="edge1" class="edge">
<title>A&#45;&gt;B</title>
<path fill="none" stroke="black" d="M353.82,-319.81C341.42,-306.11 325.97,-289.04 312.65,-274.33"/>
<polygon fill="black" stroke="black" points="315.21,-271.94 305.9,-266.88 310.02,-276.64 315.21,-271.94"/>
</g>
<!-- C -->
<g id="node3" class="node">
<title>C</title>
<ellipse fill="none" stroke="black" cx="470.82" cy="-240.38" rx="34.83" ry="34.83"/>
<text text-anchor="middle" x="470.82" y="-236.68" font-family="Helvetica,sans-Serif" font-size="14.00">h(5&#45;8)</text>
<text text-anchor="middle" x="430.91" y="-279.1" font-family="Helvetica,sans-Serif" font-size="14.00">3</text>
</g>
<!-- A&#45;&gt;C -->
<g id="edge3" class="edge">
<title>A&#45;&gt;C</title>
<path fill="none" stroke="black" d="M399.81,-319.81C412.22,-306.11 427.67,-289.04 440.99,-274.33"/>
<polygon fill="black" stroke="black" points="443.62,-276.64 447.74,-266.88 438.43,-271.94 443.62,-276.64"/>
</g>
<!-- mA -->
<!-- A&#45;&gt;mA -->
<!-- D -->
<g id="node4" class="node">
<title>D</title>
<ellipse fill="none" stroke="black" cx="147.82" cy="-134.55" rx="34.83" ry="34.83"/>
<text text-anchor="middle" x="147.82" y="-130.85" font-family="Helvetica,sans-Serif" font-size="14.00">h(1&#45;2)</text>
<text text-anchor="middle" x="107.91" y="-173.27" font-family="Helvetica,sans-Serif" font-size="14.00">4</text>
</g>
<!-- B&#45;&gt;D -->
<g id="edge6" class="edge">
<title>B&#45;&gt;D</title>
<path fill="none" stroke="black" d="M255.5,-218.37C234.64,-202.33 205.73,-180.09 183.12,-162.7"/>
<polygon fill="black" stroke="black" points="185.16,-159.86 175.1,-156.53 180.89,-165.4 185.16,-159.86"/>
</g>
<!-- E -->
<g id="node5" class="node">
<title>E</title>
<ellipse fill="none" stroke="black" cx="282.82" cy="-134.55" rx="34.83" ry="34.83"/>
<text text-anchor="middle" x="282.82" y="-130.85" font-family="Helvetica,sans-Serif" font-size="14.00">h(3&#45;4)</text>
<text text-anchor="middle" x="242.91" y="-173.27" font-family="Helvetica,sans-Serif" font-size="14.00">5</text>
</g>
<!-- B&#45;&gt;E -->
<g id="edge8" class="edge">
<title>B&#45;&gt;E</title>
<path fill="none" stroke="black" d="M282.82,-205.39C282.82,-197.23 282.82,-188.4 282.82,-179.85"/>
<polygon fill="black" stroke="black" points="286.32,-179.63 282.82,-169.63 279.32,-179.63 286.32,-179.63"/>
</g>
<!-- B&#45;&gt;mA -->
<!-- mB -->
<!-- B&#45;&gt;mB -->
<!-- F -->
<g id="node6" class="node">
<title>F</title>
<ellipse fill="none" stroke="black" cx="470.82" cy="-134.55" rx="34.83" ry="34.83"/>
<text text-anchor="middle" x="470.82" y="-130.85" font-family="Helvetica,sans-Serif" font-size="14.00">h(5&#45;6)</text>
<text text-anchor="middle" x="430.91" y="-173.27" font-family="Helvetica,sans-Serif" font-size="14.00">6</text>
</g>
<!-- C&#45;&gt;F -->
<g id="edge26" class="edge">
<title>C&#45;&gt;F</title>
<path fill="none" stroke="black" d="M470.82,-205.39C470.82,-197.23 470.82,-188.4 470.82,-179.85"/>
<polygon fill="black" stroke="black" points="474.32,-179.63 470.82,-169.63 467.32,-179.63 474.32,-179.63"/>
</g>
<!-- G -->
<g id="node7" class="node">
<title>G</title>
<ellipse fill="none" stroke="black" cx="605.82" cy="-134.55" rx="34.83" ry="34.83"/>
<text text-anchor="middle" x="605.82" y="-130.85" font-family="Helvetica,sans-Serif" font-size="14.00">h(7&#45;8)</text>
<text text-anchor="middle" x="565.91" y="-173.27" font-family="Helvetica,sans-Serif" font-size="14.00">7</text>
</g>
<!-- C&#45;&gt;G -->
<g id="edge28" class="edge">
<title>C&#45;&gt;G</title>
<path fill="none" stroke="black" d="M498.14,-218.37C519,-202.33 547.91,-180.09 570.52,-162.7"/>
<polygon fill="black" stroke="black" points="572.75,-165.4 578.54,-156.53 568.48,-159.86 572.75,-165.4"/>
</g>
<!-- mC -->
<!-- C&#45;&gt;mC -->
<!-- H -->
<g id="node8" class="node">
<title>H</title>
<ellipse fill="none" stroke="black" cx="41.82" cy="-31.82" rx="31.64" ry="31.64"/>
<text text-anchor="middle" x="41.82" y="-35.62" font-family="Helvetica,sans-Serif" font-size="14.00">L1</text>
<text text-anchor="middle" x="41.82" y="-20.62" font-family="Helvetica,sans-Serif" font-size="14.00">h(1)</text>
<text text-anchor="middle" x="5" y="-67.44" font-family="Helvetica,sans-Serif" font-size="14.00">8</text>
</g>
<!-- D&#45;&gt;H -->
<g id="edge11" class="edge">
<title>D&#45;&gt;H</title>
<path fill="none" stroke="black" d="M122.97,-109.94C107.82,-95.54 88.36,-77.05 72.29,-61.77"/>
<polygon fill="black" stroke="black" points="74.37,-58.92 64.71,-54.57 69.54,-63.99 74.37,-58.92"/>
</g>
<!-- I -->
<g id="node9" class="node">
<title>I</title>
<ellipse fill="none" stroke="black" cx="147.82" cy="-31.82" rx="31.64" ry="31.64"/>
<text text-anchor="middle" x="147.82" y="-35.62" font-family="Helvetica,sans-Serif" font-size="14.00">L2</text>
<text text-anchor="middle" x="147.82" y="-20.62" font-family="Helvetica,sans-Serif" font-size="14.00">h(2)</text>
<text text-anchor="middle" x="111" y="-67.44" font-family="Helvetica,sans-Serif" font-size="14.00">9</text>
</g>
<!-- D&#45;&gt;I -->
<g id="edge13" class="edge">
<title>D&#45;&gt;I</title>
<path fill="none" stroke="black" d="M147.82,-99.45C147.82,-91.25 147.82,-82.41 147.82,-73.93"/>
<polygon fill="black" stroke="black" points="151.32,-73.84 147.82,-63.84 144.32,-73.84 151.32,-73.84"/>
</g>
<!-- D&#45;&gt;mB -->
<!-- mD -->
<!-- D&#45;&gt;mD -->
<!-- J -->
<g id="node10" class="node">
<title>J</title>
<ellipse fill="none" stroke="black" cx="229.82" cy="-31.82" rx="31.64" ry="31.64"/>
<text text-anchor="middle" x="229.82" y="-35.62" font-family="Helvetica,sans-Serif" font-size="14.00">L3</text>
<text text-anchor="middle" x="229.82" y="-20.62" font-family="Helvetica,sans-Serif" font-size="14.00">h(3)</text>
<text text-anchor="middle" x="188.5" y="-67.44" font-family="Helvetica,sans-Serif" font-size="14.00">10</text>
</g>
<!-- E&#45;&gt;J -->
<g id="edge16" class="edge">
<title>E&#45;&gt;J</title>
<path fill="none" stroke="black" d="M266.92,-103.33C261.3,-92.65 254.91,-80.51 249.04,-69.36"/>
<polygon fill="black" stroke="black" points="252.02,-67.5 244.27,-60.28 245.82,-70.75 252.02,-67.5"/>
</g>
<!-- K -->
<g id="node11" class="node">
<title>K</title>
<ellipse fill="none" stroke="black" cx="335.82" cy="-31.82" rx="31.64" ry="31.64"/>
<text text-anchor="middle" x="335.82" y="-35.62" font-family="Helvetica,sans-Serif" font-size="14.00">L4</text>
<text text-anchor="middle" x="335.82" y="-20.62" font-family="Helvetica,sans-Serif" font-size="14.00">h(4)</text>
<text text-anchor="middle" x="294.5" y="-67.44" font-family="Helvetica,sans-Serif" font-size="14.00">11</text>
</g>
<!-- E&#45;&gt;K -->
<g id="edge18" class="edge">
<title>E&#45;&gt;K</title>
<path fill="none" stroke="black" d="M298.72,-103.33C304.34,-92.65 310.73,-80.51 316.59,-69.36"/>
<polygon fill="black" stroke="black" points="319.82,-70.75 321.37,-60.28 313.62,-67.5 319.82,-70.75"/>
</g>
<!-- mE -->
<!-- E&#45;&gt;mE -->
<!-- L -->
<g id="node12" class="node">
<title>L</title>
<ellipse fill="none" stroke="black" cx="417.82" cy="-31.82" rx="31.64" ry="31.64"/>
<text text-anchor="middle" x="417.82" y="-35.62" font-family="Helvetica,sans-Serif" font-size="14.00">L5</text>
<text text-anchor="middle" x="417.82" y="-20.62" font-family="Helvetica,sans-Serif" font-size="14.00">h(5)</text>
<text text-anchor="middle" x="376.5" y="-67.44" font-family="Helvetica,sans-Serif" font-size="14.00">12</text>
</g>
<!-- F&#45;&gt;L -->
<g id="edge21" class="edge">
<title>F&#45;&gt;L</title>
<path fill="none" stroke="black" d="M454.92,-103.33C449.3,-92.65 442.91,-80.51 437.04,-69.36"/>
<polygon fill="black" stroke="black" points="440.02,-67.5 432.27,-60.28 433.82,-70.75 440.02,-67.5"/>
</g>
<!-- M -->
<g id="node13" class="node">
<title>M</title>
<ellipse fill="none" stroke="black" cx="523.82" cy="-31.82" rx="31.64" ry="31.64"/>
<text text-anchor="middle" x="523.82" y="-35.62" font-family="Helvetica,sans-Serif" font-size="14.00">L6</text>
<text text-anchor="middle" x="523.82" y="-20.62" font-family="Helvetica,sans-Serif" font-size="14.00">h(6)</text>
<text text-anchor="middle" x="482.5" y="-67.44" font-family="Helvetica,sans-Serif" font-size="14.00">13</text>
</g>
<!-- F&#45;&gt;M -->
<g id="edge23" class="edge">
<title>F&#45;&gt;M</title>
<path fill="none" stroke="black" d="M486.72,-103.33C492.34,-92.65 498.73,-80.51 504.59,-69.36"/>
<polygon fill="black" stroke="black" points="507.82,-70.75 509.37,-60.28 501.62,-67.5 507.82,-70.75"/>
</g>
<!-- mF -->
<!-- F&#45;&gt;mF -->
<!-- F&#45;&gt;mC -->
<!-- N -->
<g id="node14" class="node">
<title>N</title>
<ellipse fill="none" stroke="black" cx="605.82" cy="-31.82" rx="31.64" ry="31.64"/>
<text text-anchor="middle" x="605.82" y="-35.62" font-family="Helvetica,sans-Serif" font-size="14.00">L7</text>
<text text-anchor="middle" x="605.82" y="-20.62" font-family="Helvetica,sans-Serif" font-size="14.00">h(7)</text>
<text text-anchor="middle" x="564.5" y="-67.44" font-family="Helvetica,sans-Serif" font-size="14.00">14</text>
</g>
<!-- G&#45;&gt;N -->
<g id="edge31" class="edge">
<title>G&#45;&gt;N</title>
<path fill="none" stroke="black" d="M605.82,-99.45C605.82,-91.25 605.82,-82.41 605.82,-73.93"/>
<polygon fill="black" stroke="black" points="609.32,-73.84 605.82,-63.84 602.32,-73.84 609.32,-73.84"/>
</g>
<!-- O -->
<g id="node15" class="node">
<title>O</title>
<ellipse fill="none" stroke="black" cx="711.82" cy="-31.82" rx="31.64" ry="31.64"/>
<text text-anchor="middle" x="711.82" y="-35.62" font-family="Helvetica,sans-Serif" font-size="14.00">L8</text>
<text text-anchor="middle" x="711.82" y="-20.62" font-family="Helvetica,sans-Serif" font-size="14.00">h(8)</text>
<text text-anchor="middle" x="670.5" y="-67.44" font-family="Helvetica,sans-Serif" font-size="14.00">15</text>
</g>
<!-- G&#45;&gt;O -->
<g id="edge33" class="edge">
<title>G&#45;&gt;O</title>
<path fill="none" stroke="black" d="M630.67,-109.94C645.82,-95.54 665.28,-77.05 681.35,-61.77"/>
<polygon fill="black" stroke="black" points="684.1,-63.99 688.93,-54.57 679.27,-58.92 684.1,-63.99"/>
</g>
<!-- mG -->
<!-- G&#45;&gt;mG -->
<!-- H&#45;&gt;mD -->
<!-- J&#45;&gt;mE -->
<!-- L&#45;&gt;mF -->
<!-- N&#45;&gt;mG -->
<!-- mA&#45;&gt;C -->
<!-- mB&#45;&gt;E -->
<!-- mD&#45;&gt;I -->
<!-- mE&#45;&gt;K -->
<!-- mF&#45;&gt;M -->
<!-- mC&#45;&gt;G -->
<!-- mG&#45;&gt;O -->
</g>
</svg>
