<?xml version="1.0" encoding="UTF-8" standalone="no"?>
<!DOCTYPE svg PUBLIC "-//W3C//DTD SVG 1.1//EN"
 "http://www.w3.org/Graphics/SVG/1.1/DTD/svg11.dtd">
<!-- Generated by graphviz version 2.43.0 (0)
 -->
<!-- Title: A Pages: 1 -->
<svg width="375pt" height="618pt"
 viewBox="0.00 0.00 375.00 618.00" xmlns="http://www.w3.org/2000/svg" xmlns:xlink="http://www.w3.org/1999/xlink">
<g id="graph0" class="graph" transform="scale(1 1) rotate(0) translate(4 614)">
<title>A</title>
<polygon fill="white" stroke="transparent" points="-4,4 -4,-614 371,-614 371,4 -4,4"/>
<!-- null -->
<!-- hws4 -->
<g id="node2" class="node">
<title>hws4</title>
<ellipse fill="none" stroke="black" cx="166" cy="-531" rx="43" ry="43"/>
<text text-anchor="middle" x="166" y="-534.8" font-family="Helvetica,sans-Serif" font-size="14.00">HW S4</text>
<text text-anchor="middle" x="166" y="-519.8" font-family="Helvetica,sans-Serif" font-size="14.00">ethrpivate</text>
</g>
<!-- null&#45;&gt;hws4 -->
<g id="edge1" class="edge">
<title>null&#45;&gt;hws4</title>
<path fill="none" stroke="black" d="M166,-608.94C166,-608.09 166,-597.48 166,-584.4"/>
<polygon fill="black" stroke="black" points="169.5,-584.03 166,-574.03 162.5,-584.03 169.5,-584.03"/>
</g>
<!-- hws5 -->
<g id="node3" class="node">
<title>hws5</title>
<ellipse fill="none" stroke="black" cx="166" cy="-409" rx="43" ry="43"/>
<text text-anchor="middle" x="166" y="-412.8" font-family="Helvetica,sans-Serif" font-size="14.00">HW S5</text>
<text text-anchor="middle" x="166" y="-397.8" font-family="Helvetica,sans-Serif" font-size="14.00">dappintro</text>
</g>
<!-- hws4&#45;&gt;hws5 -->
<g id="edge2" class="edge">
<title>hws4&#45;&gt;hws5</title>
<path fill="none" stroke="black" d="M166,-487.69C166,-479.54 166,-470.9 166,-462.47"/>
<polygon fill="black" stroke="black" points="169.5,-462.33 166,-452.33 162.5,-462.33 169.5,-462.33"/>
</g>
<!-- hwp5 -->
<g id="node4" class="node">
<title>hwp5</title>
<ellipse fill="none" stroke="black" cx="114" cy="-287" rx="43" ry="43"/>
<text text-anchor="middle" x="114" y="-290.8" font-family="Helvetica,sans-Serif" font-size="14.00">HW P5</text>
<text text-anchor="middle" x="114" y="-275.8" font-family="Helvetica,sans-Serif" font-size="14.00">gradebook</text>
</g>
<!-- hws5&#45;&gt;hwp5 -->
<g id="edge3" class="edge">
<title>hws5&#45;&gt;hwp5</title>
<path fill="none" stroke="black" d="M149.26,-369.37C144.71,-358.88 139.73,-347.38 134.98,-336.42"/>
<polygon fill="black" stroke="black" points="138.07,-334.75 130.89,-326.97 131.65,-337.54 138.07,-334.75"/>
</g>
<!-- hwp6 -->
<g id="node5" class="node">
<title>hwp6</title>
<ellipse fill="none" stroke="black" cx="218" cy="-287" rx="43" ry="43"/>
<text text-anchor="middle" x="218" y="-290.8" font-family="Helvetica,sans-Serif" font-size="14.00">HW P6</text>
<text text-anchor="middle" x="218" y="-275.8" font-family="Helvetica,sans-Serif" font-size="14.00">tokens</text>
</g>
<!-- hws5&#45;&gt;hwp6 -->
<g id="edge4" class="edge">
<title>hws5&#45;&gt;hwp6</title>
<path fill="none" stroke="black" d="M182.74,-369.37C187.29,-358.88 192.27,-347.38 197.02,-336.42"/>
<polygon fill="black" stroke="black" points="200.35,-337.54 201.11,-326.97 193.93,-334.75 200.35,-337.54"/>
</g>
<!-- hwp7 -->
<g id="node6" class="node">
<title>hwp7</title>
<ellipse fill="none" stroke="black" cx="43" cy="-165" rx="43" ry="43"/>
<text text-anchor="middle" x="43" y="-168.8" font-family="Helvetica,sans-Serif" font-size="14.00">HW P7</text>
<text text-anchor="middle" x="43" y="-153.8" font-family="Helvetica,sans-Serif" font-size="14.00">auction</text>
</g>
<!-- hwp6&#45;&gt;hwp7 -->
<g id="edge5" class="edge">
<title>hwp6&#45;&gt;hwp7</title>
<path fill="none" stroke="black" d="M185.78,-258.25C179.4,-253.26 172.63,-248.29 166,-244 136.3,-224.78 124.7,-227.22 95,-208 91.17,-205.52 87.29,-202.81 83.47,-200.01"/>
<polygon fill="black" stroke="black" points="85.3,-197.01 75.22,-193.75 81.07,-202.58 85.3,-197.01"/>
</g>
<!-- hwp8 -->
<g id="node7" class="node">
<title>hwp8</title>
<ellipse fill="none" stroke="black" cx="289" cy="-165" rx="43" ry="43"/>
<text text-anchor="middle" x="289" y="-168.8" font-family="Helvetica,sans-Serif" font-size="14.00">HW P8</text>
<text text-anchor="middle" x="289" y="-153.8" font-family="Helvetica,sans-Serif" font-size="14.00">dex</text>
</g>
<!-- hwp6&#45;&gt;hwp8 -->
<g id="edge6" class="edge">
<title>hwp6&#45;&gt;hwp8</title>
<path fill="none" stroke="black" d="M239.5,-249.67C246.66,-237.56 254.73,-223.93 262.24,-211.23"/>
<polygon fill="black" stroke="black" points="265.25,-213.01 267.33,-202.62 259.23,-209.44 265.25,-213.01"/>
</g>
<!-- hwp9 -->
<g id="node8" class="node">
<title>hwp9</title>
<ellipse fill="none" stroke="black" cx="147" cy="-165" rx="43" ry="43"/>
<text text-anchor="middle" x="147" y="-168.8" font-family="Helvetica,sans-Serif" font-size="14.00">HW P9</text>
<text text-anchor="middle" x="147" y="-153.8" font-family="Helvetica,sans-Serif" font-size="14.00">dao&amp;web3</text>
</g>
<!-- hwp6&#45;&gt;hwp9 -->
<g id="edge7" class="edge">
<title>hwp6&#45;&gt;hwp9</title>
<path fill="none" stroke="black" d="M196.5,-249.67C189.34,-237.56 181.27,-223.93 173.76,-211.23"/>
<polygon fill="black" stroke="black" points="176.77,-209.44 168.67,-202.62 170.75,-213.01 176.77,-209.44"/>
</g>
<!-- hwp10 -->
<g id="node9" class="node">
<title>hwp10</title>
<ellipse fill="none" stroke="black" cx="324" cy="-43" rx="43" ry="43"/>
<text text-anchor="middle" x="324" y="-46.8" font-family="Helvetica,sans-Serif" font-size="14.00">HW P10</text>
<text text-anchor="middle" x="324" y="-31.8" font-family="Helvetica,sans-Serif" font-size="14.00">arbitrage</text>
</g>
<!-- hwp6&#45;&gt;hwp10 -->
<g id="edge11" class="edge">
<title>hwp6&#45;&gt;hwp10</title>
<path fill="none" stroke="black" stroke-dasharray="5,2" d="M258.55,-272.34C287.24,-260.31 323.57,-239.68 341,-208 360.33,-172.84 353.4,-127.02 343.17,-92.75"/>
<polygon fill="black" stroke="black" points="346.42,-91.44 340.06,-82.96 339.75,-93.55 346.42,-91.44"/>
</g>
<!-- hwp11 -->
<g id="node10" class="node">
<title>hwp11</title>
<ellipse fill="none" stroke="black" cx="147" cy="-43" rx="43" ry="43"/>
<text text-anchor="middle" x="147" y="-46.8" font-family="Helvetica,sans-Serif" font-size="14.00">HW P11</text>
<text text-anchor="middle" x="147" y="-31.8" font-family="Helvetica,sans-Serif" font-size="14.00">metamask</text>
</g>
<!-- hwp6&#45;&gt;hwp11 -->
<g id="edge12" class="edge">
<title>hwp6&#45;&gt;hwp11</title>
<path fill="none" stroke="black" stroke-dasharray="5,2" d="M218.5,-243.98C217.65,-210.09 213.56,-161.69 199,-122 194.31,-109.22 187.13,-96.46 179.59,-85.07"/>
<polygon fill="black" stroke="black" points="182.35,-82.9 173.79,-76.65 176.58,-86.87 182.35,-82.9"/>
</g>
<!-- hwp7&#45;&gt;hwp11 -->
<g id="edge9" class="edge">
<title>hwp7&#45;&gt;hwp11</title>
<path fill="none" stroke="black" d="M70.87,-131.84C83.58,-117.18 98.75,-99.67 112.2,-84.15"/>
<polygon fill="black" stroke="black" points="115.15,-86.1 119.05,-76.25 109.86,-81.51 115.15,-86.1"/>
</g>
<!-- hwp8&#45;&gt;hwp10 -->
<g id="edge8" class="edge">
<title>hwp8&#45;&gt;hwp10</title>
<path fill="none" stroke="black" d="M300.85,-123.37C303.56,-114.09 306.47,-104.11 309.28,-94.47"/>
<polygon fill="black" stroke="black" points="312.72,-95.16 312.16,-84.58 306,-93.2 312.72,-95.16"/>
</g>
<!-- hwp9&#45;&gt;hwp11 -->
<g id="edge10" class="edge">
<title>hwp9&#45;&gt;hwp11</title>
<path fill="none" stroke="black" d="M147,-121.69C147,-113.54 147,-104.9 147,-96.47"/>
<polygon fill="black" stroke="black" points="150.5,-96.33 147,-86.33 143.5,-96.33 150.5,-96.33"/>
</g>
</g>
</svg>
