<?xml version="1.0" encoding="UTF-8" standalone="no"?>
<!DOCTYPE svg PUBLIC "-//W3C//DTD SVG 1.1//EN"
 "http://www.w3.org/Graphics/SVG/1.1/DTD/svg11.dtd">
<!-- Generated by graphviz version 12.1.2 (20240928.0832)
 -->
<!-- Title: A Pages: 1 -->
<svg width="365pt" height="706pt"
 viewBox="0.00 0.00 365.06 706.40" xmlns="http://www.w3.org/2000/svg" xmlns:xlink="http://www.w3.org/1999/xlink">
<g id="graph0" class="graph" transform="scale(1 1) rotate(0) translate(4 702.4)">
<title>A</title>
<polygon fill="white" stroke="none" points="-4,4 -4,-702.4 361.06,-702.4 361.06,4 -4,4"/>
<!-- hws4 -->
<g id="node1" class="node">
<title>hws4</title>
<ellipse fill="none" stroke="black" cx="166.2" cy="-655.2" rx="43.2" ry="43.2"/>
<text text-anchor="middle" x="166.2" y="-656.9" font-family="Helvetica,sans-Serif" font-size="14.00">HW S4</text>
<text text-anchor="middle" x="166.2" y="-641.9" font-family="Helvetica,sans-Serif" font-size="14.00">ethrpivate</text>
</g>
<!-- hws5 -->
<g id="node2" class="node">
<title>hws5</title>
<ellipse fill="none" stroke="black" cx="166.2" cy="-532.8" rx="43.2" ry="43.2"/>
<text text-anchor="middle" x="166.2" y="-534.5" font-family="Helvetica,sans-Serif" font-size="14.00">HW S5</text>
<text text-anchor="middle" x="166.2" y="-519.5" font-family="Helvetica,sans-Serif" font-size="14.00">dappintro</text>
</g>
<!-- hws4&#45;&gt;hws5 -->
<g id="edge1" class="edge">
<title>hws4&#45;&gt;hws5</title>
<path fill="none" stroke="black" stroke-dasharray="5,2" d="M166.2,-611.75C166.2,-603.93 166.2,-595.67 166.2,-587.56"/>
<polygon fill="black" stroke="black" points="169.7,-587.78 166.2,-577.78 162.7,-587.78 169.7,-587.78"/>
</g>
<!-- hwp5 -->
<g id="node3" class="node">
<title>hwp5</title>
<ellipse fill="none" stroke="black" cx="114.2" cy="-410.4" rx="43.2" ry="43.2"/>
<text text-anchor="middle" x="114.2" y="-412.1" font-family="Helvetica,sans-Serif" font-size="14.00">HW P5</text>
<text text-anchor="middle" x="114.2" y="-397.1" font-family="Helvetica,sans-Serif" font-size="14.00">gradebook</text>
</g>
<!-- hws5&#45;&gt;hwp5 -->
<g id="edge2" class="edge">
<title>hws5&#45;&gt;hwp5</title>
<path fill="none" stroke="black" stroke-dasharray="5,2" d="M149.32,-492.71C144.91,-482.51 140.11,-471.39 135.51,-460.74"/>
<polygon fill="black" stroke="black" points="138.78,-459.48 131.6,-451.68 132.35,-462.25 138.78,-459.48"/>
</g>
<!-- hwp6 -->
<g id="node4" class="node">
<title>hwp6</title>
<ellipse fill="none" stroke="black" cx="218.2" cy="-410.4" rx="43.2" ry="43.2"/>
<text text-anchor="middle" x="218.2" y="-412.1" font-family="Helvetica,sans-Serif" font-size="14.00">HW P6</text>
<text text-anchor="middle" x="218.2" y="-397.1" font-family="Helvetica,sans-Serif" font-size="14.00">tokens</text>
</g>
<!-- hws5&#45;&gt;hwp6 -->
<g id="edge3" class="edge">
<title>hws5&#45;&gt;hwp6</title>
<path fill="none" stroke="black" stroke-dasharray="5,2" d="M183.08,-492.71C187.49,-482.51 192.29,-471.39 196.89,-460.74"/>
<polygon fill="black" stroke="black" points="200.05,-462.25 200.8,-451.68 193.62,-459.48 200.05,-462.25"/>
</g>
<!-- hwp7 -->
<g id="node5" class="node">
<title>hwp7</title>
<ellipse fill="none" stroke="black" cx="43.2" cy="-288" rx="43.2" ry="43.2"/>
<text text-anchor="middle" x="43.2" y="-289.7" font-family="Helvetica,sans-Serif" font-size="14.00">HW P7</text>
<text text-anchor="middle" x="43.2" y="-274.7" font-family="Helvetica,sans-Serif" font-size="14.00">auction</text>
</g>
<!-- hwp6&#45;&gt;hwp7 -->
<g id="edge4" class="edge">
<title>hwp6&#45;&gt;hwp7</title>
<path fill="none" stroke="black" d="M185.71,-381.29C179.41,-376.35 172.74,-371.44 166.2,-367.2 136.52,-347.94 124.88,-350.46 95.2,-331.2 91.73,-328.95 88.22,-326.51 84.74,-323.97"/>
<polygon fill="black" stroke="black" points="86.98,-321.28 76.9,-318.02 82.75,-326.85 86.98,-321.28"/>
</g>
<!-- hwp8 -->
<g id="node6" class="node">
<title>hwp8</title>
<ellipse fill="none" stroke="black" cx="147.2" cy="-288" rx="43.2" ry="43.2"/>
<text text-anchor="middle" x="147.2" y="-289.7" font-family="Helvetica,sans-Serif" font-size="14.00">HW P8</text>
<text text-anchor="middle" x="147.2" y="-274.7" font-family="Helvetica,sans-Serif" font-size="14.00">dex</text>
</g>
<!-- hwp6&#45;&gt;hwp8 -->
<g id="edge5" class="edge">
<title>hwp6&#45;&gt;hwp8</title>
<path fill="none" stroke="black" d="M196.51,-372.62C189.56,-360.84 181.77,-347.63 174.48,-335.26"/>
<polygon fill="black" stroke="black" points="177.62,-333.69 169.52,-326.86 171.59,-337.25 177.62,-333.69"/>
</g>
<!-- hwp9 -->
<g id="node7" class="node">
<title>hwp9</title>
<ellipse fill="none" stroke="black" cx="289.2" cy="-288" rx="43.2" ry="43.2"/>
<text text-anchor="middle" x="289.2" y="-289.7" font-family="Helvetica,sans-Serif" font-size="14.00">HW P9</text>
<text text-anchor="middle" x="289.2" y="-274.7" font-family="Helvetica,sans-Serif" font-size="14.00">dao&amp;web3</text>
</g>
<!-- hwp6&#45;&gt;hwp9 -->
<g id="edge6" class="edge">
<title>hwp6&#45;&gt;hwp9</title>
<path fill="none" stroke="black" d="M239.89,-372.62C246.84,-360.84 254.63,-347.63 261.92,-335.26"/>
<polygon fill="black" stroke="black" points="264.81,-337.25 266.88,-326.86 258.78,-333.69 264.81,-337.25"/>
</g>
<!-- hwp10 -->
<g id="node8" class="node">
<title>hwp10</title>
<ellipse fill="none" stroke="black" cx="218.2" cy="-165.6" rx="43.2" ry="43.2"/>
<text text-anchor="middle" x="218.2" y="-167.3" font-family="Helvetica,sans-Serif" font-size="14.00">HW P10</text>
<text text-anchor="middle" x="218.2" y="-152.3" font-family="Helvetica,sans-Serif" font-size="14.00">arbitrage</text>
</g>
<!-- hwp6&#45;&gt;hwp10 -->
<g id="edge10" class="edge">
<title>hwp6&#45;&gt;hwp10</title>
<path fill="none" stroke="black" d="M218.2,-366.83C218.2,-326.13 218.2,-264.6 218.2,-220.5"/>
<polygon fill="black" stroke="black" points="221.7,-220.64 218.2,-210.64 214.7,-220.64 221.7,-220.64"/>
</g>
<!-- hwp11 -->
<g id="node9" class="node">
<title>hwp11</title>
<ellipse fill="none" stroke="black" cx="253.2" cy="-43.2" rx="43.2" ry="43.2"/>
<text text-anchor="middle" x="253.2" y="-44.9" font-family="Helvetica,sans-Serif" font-size="14.00">HW P11</text>
<text text-anchor="middle" x="253.2" y="-29.9" font-family="Helvetica,sans-Serif" font-size="14.00">metamask</text>
</g>
<!-- hwp6&#45;&gt;hwp11 -->
<g id="edge11" class="edge">
<title>hwp6&#45;&gt;hwp11</title>
<path fill="none" stroke="black" d="M259.06,-395.55C287.7,-383.46 323.84,-362.81 341.2,-331.2 385.4,-250.72 327.08,-145.07 286.41,-87.02"/>
<polygon fill="black" stroke="black" points="289.35,-85.11 280.69,-79.01 283.66,-89.18 289.35,-85.11"/>
</g>
<!-- hwp7&#45;&gt;hwp11 -->
<g id="edge8" class="edge">
<title>hwp7&#45;&gt;hwp11</title>
<path fill="none" stroke="black" d="M66.76,-251.4C90.24,-216.96 128.19,-164.02 166.2,-122.4 180.05,-107.23 196.54,-91.84 211.42,-78.77"/>
<polygon fill="black" stroke="black" points="213.56,-81.55 218.82,-72.36 208.97,-76.27 213.56,-81.55"/>
</g>
<!-- hwp8&#45;&gt;hwp10 -->
<g id="edge7" class="edge">
<title>hwp8&#45;&gt;hwp10</title>
<path fill="none" stroke="black" d="M168.89,-250.22C175.84,-238.44 183.63,-225.23 190.92,-212.86"/>
<polygon fill="black" stroke="black" points="193.81,-214.85 195.88,-204.46 187.78,-211.29 193.81,-214.85"/>
</g>
<!-- hwp9&#45;&gt;hwp11 -->
<g id="edge9" class="edge">
<title>hwp9&#45;&gt;hwp11</title>
<path fill="none" stroke="black" stroke-dasharray="5,2" d="M285.47,-244.55C282.25,-211.22 277.05,-163.69 270.2,-122.4 268.81,-114.01 267.11,-105.17 265.33,-96.56"/>
<polygon fill="black" stroke="black" points="268.79,-95.98 263.28,-86.93 261.94,-97.44 268.79,-95.98"/>
</g>
<!-- hwp10&#45;&gt;hwp11 -->
<g id="edge12" class="edge">
<title>hwp10&#45;&gt;hwp11</title>
<path fill="none" stroke="black" stroke-dasharray="5,2" d="M230.05,-123.84C232.67,-114.82 235.48,-105.14 238.21,-95.75"/>
<polygon fill="black" stroke="black" points="241.51,-96.95 240.94,-86.37 234.79,-95 241.51,-96.95"/>
</g>
</g>
</svg>
