<?xml version="1.0" encoding="UTF-8" standalone="no"?>
<!DOCTYPE svg PUBLIC "-//W3C//DTD SVG 1.1//EN"
 "http://www.w3.org/Graphics/SVG/1.1/DTD/svg11.dtd">
<!-- Generated by graphviz version 2.43.0 (0)
 -->
<!-- Title: A Pages: 1 -->
<svg width="365pt" height="704pt"
 viewBox="0.00 0.00 364.78 704.00" xmlns="http://www.w3.org/2000/svg" xmlns:xlink="http://www.w3.org/1999/xlink">
<g id="graph0" class="graph" transform="scale(1 1) rotate(0) translate(4 700)">
<title>A</title>
<polygon fill="white" stroke="transparent" points="-4,4 -4,-700 360.78,-700 360.78,4 -4,4"/>
<!-- hws4 -->
<g id="node1" class="node">
<title>hws4</title>
<ellipse fill="none" stroke="black" cx="166" cy="-653" rx="43" ry="43"/>
<text text-anchor="middle" x="166" y="-656.8" font-family="Helvetica,sans-Serif" font-size="14.00">HW S4</text>
<text text-anchor="middle" x="166" y="-641.8" font-family="Helvetica,sans-Serif" font-size="14.00">ethrpivate</text>
</g>
<!-- hws5 -->
<g id="node2" class="node">
<title>hws5</title>
<ellipse fill="none" stroke="black" cx="166" cy="-531" rx="43" ry="43"/>
<text text-anchor="middle" x="166" y="-534.8" font-family="Helvetica,sans-Serif" font-size="14.00">HW S5</text>
<text text-anchor="middle" x="166" y="-519.8" font-family="Helvetica,sans-Serif" font-size="14.00">dappintro</text>
</g>
<!-- hws4&#45;&gt;hws5 -->
<g id="edge1" class="edge">
<title>hws4&#45;&gt;hws5</title>
<path fill="none" stroke="black" stroke-dasharray="5,2" d="M166,-609.69C166,-601.54 166,-592.9 166,-584.47"/>
<polygon fill="black" stroke="black" points="169.5,-584.33 166,-574.33 162.5,-584.33 169.5,-584.33"/>
</g>
<!-- hwp5 -->
<g id="node3" class="node">
<title>hwp5</title>
<ellipse fill="none" stroke="black" cx="114" cy="-409" rx="43" ry="43"/>
<text text-anchor="middle" x="114" y="-412.8" font-family="Helvetica,sans-Serif" font-size="14.00">HW P5</text>
<text text-anchor="middle" x="114" y="-397.8" font-family="Helvetica,sans-Serif" font-size="14.00">gradebook</text>
</g>
<!-- hws5&#45;&gt;hwp5 -->
<g id="edge2" class="edge">
<title>hws5&#45;&gt;hwp5</title>
<path fill="none" stroke="black" stroke-dasharray="5,2" d="M149.26,-491.37C144.71,-480.88 139.73,-469.38 134.98,-458.42"/>
<polygon fill="black" stroke="black" points="138.07,-456.75 130.89,-448.97 131.65,-459.54 138.07,-456.75"/>
</g>
<!-- hwp6 -->
<g id="node4" class="node">
<title>hwp6</title>
<ellipse fill="none" stroke="black" cx="218" cy="-409" rx="43" ry="43"/>
<text text-anchor="middle" x="218" y="-412.8" font-family="Helvetica,sans-Serif" font-size="14.00">HW P6</text>
<text text-anchor="middle" x="218" y="-397.8" font-family="Helvetica,sans-Serif" font-size="14.00">tokens</text>
</g>
<!-- hws5&#45;&gt;hwp6 -->
<g id="edge3" class="edge">
<title>hws5&#45;&gt;hwp6</title>
<path fill="none" stroke="black" stroke-dasharray="5,2" d="M182.74,-491.37C187.29,-480.88 192.27,-469.38 197.02,-458.42"/>
<polygon fill="black" stroke="black" points="200.35,-459.54 201.11,-448.97 193.93,-456.75 200.35,-459.54"/>
</g>
<!-- hwp7 -->
<g id="node5" class="node">
<title>hwp7</title>
<ellipse fill="none" stroke="black" cx="43" cy="-287" rx="43" ry="43"/>
<text text-anchor="middle" x="43" y="-290.8" font-family="Helvetica,sans-Serif" font-size="14.00">HW P7</text>
<text text-anchor="middle" x="43" y="-275.8" font-family="Helvetica,sans-Serif" font-size="14.00">auction</text>
</g>
<!-- hwp6&#45;&gt;hwp7 -->
<g id="edge4" class="edge">
<title>hwp6&#45;&gt;hwp7</title>
<path fill="none" stroke="black" d="M185.78,-380.25C179.4,-375.26 172.63,-370.29 166,-366 136.3,-346.78 124.7,-349.22 95,-330 91.17,-327.52 87.29,-324.81 83.47,-322.01"/>
<polygon fill="black" stroke="black" points="85.3,-319.01 75.22,-315.75 81.07,-324.58 85.3,-319.01"/>
</g>
<!-- hwp8 -->
<g id="node6" class="node">
<title>hwp8</title>
<ellipse fill="none" stroke="black" cx="147" cy="-287" rx="43" ry="43"/>
<text text-anchor="middle" x="147" y="-290.8" font-family="Helvetica,sans-Serif" font-size="14.00">HW P8</text>
<text text-anchor="middle" x="147" y="-275.8" font-family="Helvetica,sans-Serif" font-size="14.00">dex</text>
</g>
<!-- hwp6&#45;&gt;hwp8 -->
<g id="edge5" class="edge">
<title>hwp6&#45;&gt;hwp8</title>
<path fill="none" stroke="black" d="M196.5,-371.67C189.34,-359.56 181.27,-345.93 173.76,-333.23"/>
<polygon fill="black" stroke="black" points="176.77,-331.44 168.67,-324.62 170.75,-335.01 176.77,-331.44"/>
</g>
<!-- hwp9 -->
<g id="node7" class="node">
<title>hwp9</title>
<ellipse fill="none" stroke="black" cx="289" cy="-287" rx="43" ry="43"/>
<text text-anchor="middle" x="289" y="-290.8" font-family="Helvetica,sans-Serif" font-size="14.00">HW P9</text>
<text text-anchor="middle" x="289" y="-275.8" font-family="Helvetica,sans-Serif" font-size="14.00">dao&amp;web3</text>
</g>
<!-- hwp6&#45;&gt;hwp9 -->
<g id="edge6" class="edge">
<title>hwp6&#45;&gt;hwp9</title>
<path fill="none" stroke="black" d="M239.5,-371.67C246.66,-359.56 254.73,-345.93 262.24,-333.23"/>
<polygon fill="black" stroke="black" points="265.25,-335.01 267.33,-324.62 259.23,-331.44 265.25,-335.01"/>
</g>
<!-- hwp10 -->
<g id="node8" class="node">
<title>hwp10</title>
<ellipse fill="none" stroke="black" cx="218" cy="-165" rx="43" ry="43"/>
<text text-anchor="middle" x="218" y="-168.8" font-family="Helvetica,sans-Serif" font-size="14.00">HW P10</text>
<text text-anchor="middle" x="218" y="-153.8" font-family="Helvetica,sans-Serif" font-size="14.00">arbitrage</text>
</g>
<!-- hwp6&#45;&gt;hwp10 -->
<g id="edge10" class="edge">
<title>hwp6&#45;&gt;hwp10</title>
<path fill="none" stroke="black" d="M218,-365.85C218,-324.85 218,-262.47 218,-218.32"/>
<polygon fill="black" stroke="black" points="221.5,-218.08 218,-208.08 214.5,-218.08 221.5,-218.08"/>
</g>
<!-- hwp11 -->
<g id="node9" class="node">
<title>hwp11</title>
<ellipse fill="none" stroke="black" cx="253" cy="-43" rx="43" ry="43"/>
<text text-anchor="middle" x="253" y="-46.8" font-family="Helvetica,sans-Serif" font-size="14.00">HW P11</text>
<text text-anchor="middle" x="253" y="-31.8" font-family="Helvetica,sans-Serif" font-size="14.00">metamask</text>
</g>
<!-- hwp6&#45;&gt;hwp11 -->
<g id="edge11" class="edge">
<title>hwp6&#45;&gt;hwp11</title>
<path fill="none" stroke="black" d="M258.55,-394.34C287.24,-382.31 323.57,-361.68 341,-330 385.38,-249.3 326.09,-143.22 285.43,-85.61"/>
<polygon fill="black" stroke="black" points="288.26,-83.54 279.59,-77.47 282.58,-87.63 288.26,-83.54"/>
</g>
<!-- hwp7&#45;&gt;hwp11 -->
<g id="edge8" class="edge">
<title>hwp7&#45;&gt;hwp11</title>
<path fill="none" stroke="black" d="M66.35,-250.85C89.82,-216.55 127.89,-163.59 166,-122 180.12,-106.59 196.97,-90.95 212.06,-77.76"/>
<polygon fill="black" stroke="black" points="214.49,-80.28 219.77,-71.1 209.91,-74.99 214.49,-80.28"/>
</g>
<!-- hwp8&#45;&gt;hwp10 -->
<g id="edge7" class="edge">
<title>hwp8&#45;&gt;hwp10</title>
<path fill="none" stroke="black" d="M168.5,-249.67C175.66,-237.56 183.73,-223.93 191.24,-211.23"/>
<polygon fill="black" stroke="black" points="194.25,-213.01 196.33,-202.62 188.23,-209.44 194.25,-213.01"/>
</g>
<!-- hwp9&#45;&gt;hwp11 -->
<g id="edge9" class="edge">
<title>hwp9&#45;&gt;hwp11</title>
<path fill="none" stroke="black" stroke-dasharray="5,2" d="M285.3,-244.05C282.09,-210.82 276.87,-163.28 270,-122 268.54,-113.26 266.76,-104.02 264.89,-95.07"/>
<polygon fill="black" stroke="black" points="268.28,-94.19 262.77,-85.14 261.44,-95.65 268.28,-94.19"/>
</g>
<!-- hwp10&#45;&gt;hwp11 -->
<g id="edge12" class="edge">
<title>hwp10&#45;&gt;hwp11</title>
<path fill="none" stroke="black" stroke-dasharray="5,2" d="M229.85,-123.37C232.56,-114.09 235.47,-104.11 238.28,-94.47"/>
<polygon fill="black" stroke="black" points="241.72,-95.16 241.16,-84.58 235,-93.2 241.72,-95.16"/>
</g>
</g>
</svg>
