<?xml version="1.0" encoding="UTF-8" standalone="no"?>
<!DOCTYPE svg PUBLIC "-//W3C//DTD SVG 1.1//EN"
 "http://www.w3.org/Graphics/SVG/1.1/DTD/svg11.dtd">
<!-- Generated by graphviz version 2.43.0 (0)
 -->
<!-- Title: block Pages: 1 -->
<svg width="224pt" height="265pt"
 viewBox="0.00 0.00 224.00 264.50" xmlns="http://www.w3.org/2000/svg" xmlns:xlink="http://www.w3.org/1999/xlink">
<g id="graph0" class="graph" transform="scale(1 1) rotate(0) translate(4 260.5)">
<title>block</title>
<polygon fill="white" stroke="transparent" points="-4,4 -4,-260.5 220,-260.5 220,4 -4,4"/>
<!-- txns -->
<g id="node1" class="node">
<title>txns</title>
<path fill="none" stroke="black" d="M12,-0.5C12,-0.5 204,-0.5 204,-0.5 210,-0.5 216,-6.5 216,-12.5 216,-12.5 216,-24.5 216,-24.5 216,-30.5 210,-36.5 204,-36.5 204,-36.5 12,-36.5 12,-36.5 6,-36.5 0,-30.5 0,-24.5 0,-24.5 0,-12.5 0,-12.5 0,-6.5 6,-0.5 12,-0.5"/>
<text text-anchor="middle" x="108" y="-14.8" font-family="Helvetica,sans-Serif" font-size="14.00">1+ transactions</text>
</g>
<!-- txncnt -->
<g id="node2" class="node">
<title>txncnt</title>
<path fill="none" stroke="black" d="M12,-55.5C12,-55.5 204,-55.5 204,-55.5 210,-55.5 216,-61.5 216,-67.5 216,-67.5 216,-79.5 216,-79.5 216,-85.5 210,-91.5 204,-91.5 204,-91.5 12,-91.5 12,-91.5 6,-91.5 0,-85.5 0,-79.5 0,-79.5 0,-67.5 0,-67.5 0,-61.5 6,-55.5 12,-55.5"/>
<text text-anchor="middle" x="108" y="-69.8" font-family="Helvetica,sans-Serif" font-size="14.00">txn count: 1&#45;9 bytes</text>
</g>
<!-- header -->
<g id="node3" class="node">
<title>header</title>
<path fill="none" stroke="black" d="M12,-110.5C12,-110.5 204,-110.5 204,-110.5 210,-110.5 216,-116.5 216,-122.5 216,-122.5 216,-134.5 216,-134.5 216,-140.5 210,-146.5 204,-146.5 204,-146.5 12,-146.5 12,-146.5 6,-146.5 0,-140.5 0,-134.5 0,-134.5 0,-122.5 0,-122.5 0,-116.5 6,-110.5 12,-110.5"/>
<text text-anchor="middle" x="108" y="-124.8" font-family="Helvetica,sans-Serif" font-size="14.00">header: 80 bytes</text>
</g>
<!-- preamble -->
<g id="node4" class="node">
<title>preamble</title>
<path fill="none" stroke="black" d="M12,-165.5C12,-165.5 204,-165.5 204,-165.5 210,-165.5 216,-171.5 216,-177.5 216,-177.5 216,-189.5 216,-189.5 216,-195.5 210,-201.5 204,-201.5 204,-201.5 12,-201.5 12,-201.5 6,-201.5 0,-195.5 0,-189.5 0,-189.5 0,-177.5 0,-177.5 0,-171.5 6,-165.5 12,-165.5"/>
<text text-anchor="middle" x="108" y="-179.8" font-family="Helvetica,sans-Serif" font-size="14.00">preamble*: 8 bytes</text>
</g>
<!-- title -->
<g id="node5" class="node">
<title>title</title>
<text text-anchor="middle" x="108" y="-234.8" font-family="Helvetica,sans-Serif" font-size="14.00">Block</text>
</g>
</g>
</svg>
