<?xml version="1.0" encoding="UTF-8" standalone="no"?>
<svg
   xmlns:dc="http://purl.org/dc/elements/1.1/"
   xmlns:cc="http://creativecommons.org/ns#"
   xmlns:rdf="http://www.w3.org/1999/02/22-rdf-syntax-ns#"
   xmlns:svg="http://www.w3.org/2000/svg"
   xmlns="http://www.w3.org/2000/svg"
   xmlns:sodipodi="http://sodipodi.sourceforge.net/DTD/sodipodi-0.dtd"
   xmlns:inkscape="http://www.inkscape.org/namespaces/inkscape"
   id="Layer_1"
   data-name="Layer 1"
   viewBox="0 0 160 160"
   version="1.1"
   sodipodi:docname="algo-coin-symbol.svg"
   width="160"
   height="160"
   inkscape:version="0.92.5 (2060ec1f9f, 2020-04-08)">
  <metadata
     id="metadata11">
    <rdf:RDF>
      <cc:Work
         rdf:about="">
        <dc:format>image/svg+xml</dc:format>
        <dc:type
           rdf:resource="http://purl.org/dc/dcmitype/StillImage" />
        <dc:title>algorand-algo-logo</dc:title>
      </cc:Work>
    </rdf:RDF>
  </metadata>
  <defs
     id="defs9" />
  <sodipodi:namedview
     pagecolor="#ffffff"
     bordercolor="#666666"
     borderopacity="1"
     objecttolerance="10"
     gridtolerance="10"
     guidetolerance="10"
     inkscape:pageopacity="0"
     inkscape:pageshadow="2"
     inkscape:window-width="1920"
     inkscape:window-height="1023"
     id="namedview7"
     showgrid="false"
     inkscape:zoom="2.0811287"
     inkscape:cx="56.5"
     inkscape:cy="56.700001"
     inkscape:window-x="0"
     inkscape:window-y="0"
     inkscape:window-maximized="1"
     inkscape:current-layer="Layer_1" />
  <title
     id="title2">algorand-algo-logo</title>
  <circle
     style="fill:#000000;fill-opacity:1;stroke:none;stroke-width:2.15873289;stroke-miterlimit:4;stroke-dasharray:none;stroke-opacity:1"
     id="path818"
     cx="80"
     cy="80"
     r="80" />
  <polygon
     points="95.8,49.4 108,28.3 90.2,28.3 89.6,26.2 83.4,3 82.6,0 65.5,0 65.1,0.6 49.1,28.3 32.7,56.7 16.4,85 0,113.4 19.6,113.4 36,85 52.4,56.7 68.7,28.3 71.4,23.8 72.6,28.3 77.6,47 72,56.7 55.6,85 39.3,113.4 58.9,113.4 75.3,85 83.8,70.3 87.8,85 95.4,113.4 113,113.4 105.4,85 97.8,56.7 "
     id="polygon4"
     transform="translate(23.064406,14.405927)"
     style="fill:#ffffff" />
</svg>
