<?xml version="1.0" encoding="UTF-8" standalone="no"?>
<!-- Generator: Adobe Illustrator 26.3.1, SVG Export Plug-In . SVG Version: 6.00 Build 0)  -->

<svg
   xmlns:dc="http://purl.org/dc/elements/1.1/"
   xmlns:cc="http://creativecommons.org/ns#"
   xmlns:rdf="http://www.w3.org/1999/02/22-rdf-syntax-ns#"
   xmlns:svg="http://www.w3.org/2000/svg"
   xmlns="http://www.w3.org/2000/svg"
   xmlns:sodipodi="http://sodipodi.sourceforge.net/DTD/sodipodi-0.dtd"
   xmlns:inkscape="http://www.inkscape.org/namespaces/inkscape"
   version="1.1"
   id="Layer_1"
   x="0px"
   y="0px"
   viewBox="0 0 744 744"
   xml:space="preserve"
   sodipodi:docname="aust-coin-symbol.svg"
   width="744"
   height="744"
   inkscape:version="0.92.5 (2060ec1f9f, 2020-04-08)"><metadata
   id="metadata151"><rdf:RDF><cc:Work
       rdf:about=""><dc:format>image/svg+xml</dc:format><dc:type
         rdf:resource="http://purl.org/dc/dcmitype/StillImage" /><dc:title></dc:title></cc:Work></rdf:RDF></metadata><defs
   id="defs149">
	
	
	
	
	
	
	
	
	
	
	
	
	
	
	
	
	
	
	
	
	
	
	
	
	
	
	
	
	
	
	
	
	
	
	
	
	
	
	
	
	
	
	
	
	
	
	
	
	
	
	
	
	
	
	
	
	
	
	
	
	
	
	
	
	
	
	
	
	
	
</defs><sodipodi:namedview
   pagecolor="#ffffff"
   bordercolor="#666666"
   borderopacity="1"
   objecttolerance="10"
   gridtolerance="10"
   guidetolerance="10"
   inkscape:pageopacity="0"
   inkscape:pageshadow="2"
   inkscape:window-width="1920"
   inkscape:window-height="1027"
   id="namedview147"
   showgrid="false"
   fit-margin-top="0"
   fit-margin-left="0"
   fit-margin-right="0"
   fit-margin-bottom="0"
   inkscape:zoom="1"
   inkscape:cx="311.92043"
   inkscape:cy="372.05576"
   inkscape:window-x="0"
   inkscape:window-y="0"
   inkscape:window-maximized="1"
   inkscape:current-layer="Layer_1"
   showguides="true"
   inkscape:guide-bbox="true"><sodipodi:guide
     position="-64,372"
     orientation="0,1"
     id="guide300"
     inkscape:locked="false" /><sodipodi:guide
     position="372,489"
     orientation="1,0"
     id="guide304"
     inkscape:locked="false" /></sodipodi:namedview>
<style
   type="text/css"
   id="style2">
	.st0{fill:#2844AD;}
	.st1{fill:#5493F7;}
	.st2{fill:#3C3B6E;}
	.st3{fill:#B12234;}
	.st4{fill:#FEFEFE;}
	.st5{fill:#FDFDFD;}
	.st6{fill:#FDFDFE;}
</style>
<circle
   style="fill:#00ff00;fill-opacity:1;fill-rule:nonzero;stroke:none;stroke-width:0.95168763;stroke-linecap:round;stroke-linejoin:bevel;stroke-miterlimit:4;stroke-dasharray:none;stroke-opacity:1;paint-order:stroke fill markers"
   id="path308"
   cx="372"
   cy="372"
   r="372" /><circle
   style="fill:#ffffff;fill-opacity:1;fill-rule:nonzero;stroke:none;stroke-width:0.8610118;stroke-linecap:round;stroke-linejoin:bevel;stroke-miterlimit:4;stroke-dasharray:none;stroke-opacity:1;paint-order:stroke fill markers"
   id="path306"
   cx="372"
   cy="372"
   r="322" /><ellipse
   style="fill:#ffffff;fill-opacity:1;fill-rule:nonzero;stroke:none;stroke-width:0.91652769;stroke-linecap:round;stroke-linejoin:bevel;stroke-miterlimit:4;stroke-dasharray:none;stroke-opacity:1;paint-order:stroke fill markers"
   id="path886-3"
   cx="332.46078"
   cy="329.79474"
   rx="225.4359"
   ry="204.36113" /><ellipse
   style="fill:#ffffff;fill-opacity:1;fill-rule:nonzero;stroke:none;stroke-width:1.13694477;stroke-linecap:round;stroke-linejoin:bevel;stroke-miterlimit:4;stroke-dasharray:none;stroke-opacity:1;paint-order:stroke fill markers"
   id="path886"
   cx="371.97165"
   cy="380.24643"
   rx="271.41714"
   ry="261.19907" /><path
   style="fill:#2844ad"
   inkscape:connector-curvature="0"
   id="path4"
   d="m 390.54664,427.10001 c 0,0 -59.5,31.2 -56.7,80.2 2.8,49 68.6,123.6 108.3,108.8 39.7,-14.8 150.2,-78.7 161.5,-141.6 11.3,-62.9 -98.6,-94.1 -98.6,-94.1 z"
   class="st0" /><path
   style="fill:#2844ad"
   inkscape:connector-curvature="0"
   id="path6"
   d="m 544.14664,159.90001 c -74.2,-60.400001 -176.3,-73.100001 -263,-32.9 l -64.3,91.8 c 6.3,21 22.7,37.4 43.6,43.6 36.8,12.2 196.4,-49.3 196.4,-49.3 z"
   class="st0" /><path
   style="fill:#5493f7"
   inkscape:connector-curvature="0"
   id="path8"
   d="m 124.94664,250.00001 c 0,0 53.9,-98.9 125.8,-121.9 72,-23 61.8,49 0,78.2 -61.8,29.2 -100.6,46 -125.8,43.7 z"
   class="st1" /><path
   style="fill:#5493f7"
   inkscape:connector-curvature="0"
   id="path10"
   d="m 114.74664,280.60001 c 0,0 -82.8,232.1 144,337.9 0,0 17.6,-92.7 -14.5,-151.4 -23.8,-46.9 -52.5,-91.2 -85.6,-132.1 -15.8,-17.2 -30.5,-35.3 -43.9,-54.4 z"
   class="st1" /><path
   style="fill:#5493f7"
   inkscape:connector-curvature="0"
   id="path14"
   d="m 546.14664,161.60001 c 33.1,25.3 59,58.8 75.1,97.2 26.2,62.9 30,133 10.8,198.4 -14.5,38.3 -36.8,28.3 -85,18.1 -48.2,-10.2 -231.6,-61.8 -278.9,-124.7 -47.3,-62.9 -10.8,-113.4 50.5,-146 61.3,-32.6 186.9,-68 227.5,-43 z"
   class="st1" /><g
   id="g289"
   transform="matrix(1.25,0,0,1.25,-7.13666,-49.314391)"><path
     class="st1"
     d="m 511.34664,405.21152 c 0,0 -59.2,113.4 -144.8,113.4 -8.7,-2.7 -13.5,-11.9 -10.8,-20.6 0.2,-0.5 0.3,-1 0.6,-1.5 5.3,-16.5 58.9,-74.9 155,-91.3 z"
     id="path12"
     inkscape:connector-curvature="0"
     style="fill:#5493f7" /><path
     class="st2"
     d="m 191.34664,453.11152 -4.3,-101.5 v 0 l 137.2,-8.2 v 0 c 0,4.5 0,9.1 0,13.6 0,4.5 0,9.6 0,14.5 0,4.9 0,9.9 0,14.7 0,4.8 0,9.6 0,14.5 0,4.9 0,9.9 0,14.7 0,4.8 0,9.9 0,14.7 0,4.8 0,9.1 0,13.3 0,4.2 0,0 0,0 v 0 0 l -133.2,8 c 0,0 1.1,2.2 0.3,1.7 z"
     id="path16"
     inkscape:connector-curvature="0"
     style="fill:#3c3b6e" /><path
     class="st3"
     d="m 539.04664,505.51152 c 0,4.5 0,9.4 0,13.9 0,4.5 0,0 0,0 v 0 l -343,20.7 v 0 c 0,0 0,-9.1 0,-13.6 h 2.3 l 340.1,-20.4 c 0.1,0 -0.2,-1.2 0.6,-0.6 z"
     id="path18"
     inkscape:connector-curvature="0"
     style="fill:#b12234" /><path
     class="st4"
     d="m 539.04664,505.51152 h -1.4 l -342.4,20.7 v 0 -14.7 h 2.3 l 340.1,-20.4 c 0.7,-0.3 1.5,-0.3 2.3,0 z"
     id="path20"
     inkscape:connector-curvature="0"
     style="fill:#fefefe" /><path
     class="st4"
     d="m 537.34664,461.91152 v 14.7 h -1.7 l -340.1,20.7 c -0.7,0.3 -1.5,0.3 -2.3,0 v -14.7 h 2.6 l 340.1,-20.7 c 0,0 0.9,0 1.4,0 z"
     id="path22"
     inkscape:connector-curvature="0"
     style="fill:#fefefe" /><path
     class="st3"
     d="m 537.34664,461.91152 v 0 l -343,20.7 v 0 -14.5 0 0 l 340.2,-20.7 c 0,0 1.7,0 2.6,0 z"
     id="path24"
     inkscape:connector-curvature="0"
     style="fill:#b12234" /><path
     class="st4"
     d="m 537.14664,446.81152 h -1.4 l -342.7,20.7 v 0 -14.7 0 l 135.8,-7.9 h 3.4 l 202.6,-12.2 c 0,0 1.4,0 2.3,0 z"
     id="path26"
     inkscape:connector-curvature="0"
     style="fill:#fefefe" /><path
     class="st3"
     d="m 193.04664,497.01152 v 0 l 342.7,-20.7 v 0 14.5 0 l -342.7,20.7 v 0 z"
     id="path28"
     inkscape:connector-curvature="0"
     style="fill:#b12234" /><path
     class="st3"
     d="m 326.54664,357.01152 v -14.7 l 206.1,-12.5 v 0 c 0,0 0,9.4 0,13.9 h -2.6 l -201.3,13.3 c 0,0 -1.7,0.6 -2.2,0 z"
     id="path30"
     inkscape:connector-curvature="0"
     style="fill:#b12234" /><path
     class="st4"
     d="m 326.54664,357.01152 24.9,-1.7 180.6,-10.8 v 0 14.5 0 0 l -203.3,12.7 c -0.6,0.6 -1.6,0.6 -2.3,0 v -14.7 z"
     id="path32"
     inkscape:connector-curvature="0"
     style="fill:#fefefe" /><path
     class="st4"
     d="m 328.74664,430.11152 v -14.7 h 2.3 l 202.4,-12.5 c 0,0 1.7,0 2.3,0 v 14.7 0 0 l -203,12.2 c 0,0 -4,0.9 -4,0.3 z"
     id="path34"
     inkscape:connector-curvature="0"
     style="fill:#fefefe" /><path
     class="st3"
     d="m 535.44664,402.91152 v 0 l -206.7,12.5 v 0 -14.7 h 2.3 l 202.4,-12.2 c 0,0 1.7,0 2.3,0 z"
     id="path36"
     inkscape:connector-curvature="0"
     style="fill:#b12234" /><path
     class="st4"
     d="m 534.84664,388.21152 -41.4,2.6 -164.7,9.9 v -14.5 0 0 l 203.2,-12.2 h 2 z"
     id="path38"
     inkscape:connector-curvature="0"
     style="fill:#fefefe" /><path
     class="st3"
     d="m 328.74664,430.11152 205.5,-12.4 v 0 14.4 0 l -204.9,12.2 v 0 z"
     id="path40"
     inkscape:connector-curvature="0"
     style="fill:#b12234" /><path
     class="st3"
     d="m 534.54664,373.41152 h -1.4 l -204.4,12.8 v -14.8 l 63.5,-3.6 141.7,-8.8 v 0 z"
     id="path42"
     inkscape:connector-curvature="0"
     style="fill:#b12234" /><path
     class="st5"
     d="m 290.84664,421.11152 v -3.4 c 0,0 0,0 0,-1.4 -0.9,-0.4 -1.7,-1 -2.3,-1.7 h 3.1 v 0 -3.4 c 0,0 0,1.7 0,2.6 0,0.9 0,1.4 2,0 h 2.3 l -2.3,2 v 0 c -0.1,1 -0.1,2.1 0,3.1 l -2.8,-1.7 v 0 z"
     id="path44"
     inkscape:connector-curvature="0"
     style="fill:#fdfdfd" /><path
     class="st5"
     d="m 219.94664,418.81152 h 2.6 c 0,0 0,0 1.4,0 -0.2,-0.9 -0.2,-1.9 0,-2.8 0,0 0,2 0,3.1 0,1.1 0,0 0,0 h 3.4 c 0,0 0,1.4 -2.3,1.7 -2.3,0.3 0,0 0,2.3 0.1,0.8 0.1,1.7 0,2.6 l -2.6,-1.7 v 0 c -0.7,0.8 -1.6,1.5 -2.6,2 0.1,-1 0.1,-2.1 0,-3.1 0,0 0,0 0,-1.4 l -2.6,-1.7 z"
     id="path46"
     inkscape:connector-curvature="0"
     style="fill:#fdfdfd" /><path
     class="st5"
     d="m 261.64664,391.91152 -2.6,-1.7 v 0 l -2.6,2.3 c -0.1,-1.1 -0.1,-2.3 0,-3.4 v 0 l -2.6,-2 h 3.1 v 0 c -0.1,-1.1 -0.1,-2.3 0,-3.4 v 2.6 c 0,0 0,0 1.7,0 h 2.6 l -2.3,2 c -0.2,0.4 -0.2,1 0,1.4 1.1,0.5 1.9,1.3 2.7,2.2 z"
     id="path48"
     inkscape:connector-curvature="0"
     style="fill:#fdfdfd" /><path
     class="st5"
     d="m 219.64664,363.51152 v -3.1 m 0,-1.4 -2.3,-1.7 h 2.6 c 0,0 1.4,0 1.4,-1.4 0.1,-0.8 0.1,-1.7 0,-2.6 0.1,1 0.1,2.1 0,3.1 v 0 h 2.8 c -0.6,0.7 -1.3,1.4 -2,2 m 0.1,1.4 c -0.1,1 -0.1,2.1 0,3.1 l -2.8,-1.7 v 0 z"
     id="path50"
     inkscape:connector-curvature="0"
     style="fill:#fdfdfd" /><path
     class="st5"
     d="m 296.74664,352.71152 -2,1.4 c -0.6,0.5 -0.8,1.4 -0.3,2 0.1,0.1 0.2,0.2 0.3,0.3 v 2.6 l -2.8,-1.7 v 0 l -2.6,2.3 v -3.4 0 l -2.6,-2 h 2.8 c 0,0 0,0 1.4,0 -0.1,-0.9 -0.1,-1.9 0,-2.8 0,0 0,0 0,1.7 0,1.7 0,2 2.6,1.7 h 2 z"
     id="path52"
     inkscape:connector-curvature="0"
     style="fill:#fdfdfd" /><path
     class="st5"
     d="m 207.14664,388.71152 h 3.1 v 0 -3.1 c 0.1,1 0.1,2.1 0,3.1 v 0 h 3.1 c -0.6,0.7 -1.4,1.3 -2.3,1.7 m 0.1,2 v 2.8 l -2.6,-1.7 c 0,0 0,0 -1.4,0 l -2.6,2 c -0.2,-0.9 -0.2,-1.9 0,-2.8 0,0 0,-1.4 0,-2 h -2 z"
     id="path54"
     inkscape:connector-curvature="0"
     style="fill:#fdfdfd" /><path
     class="st5"
     d="m 286.24664,384.21152 -2.6,2 v 0 c 0.2,1 0.2,2.1 0,3.1 l -2.6,-1.7 c 0,0 0,0 -1.4,0 -0.7,0.9 -1.6,1.7 -2.6,2.3 0,-1.4 0,-2.6 0,-3.4 0,-0.8 0,0 0,0 -0.9,-0.5 -1.7,-1.2 -2.3,-2 h 2.8 v 0 c -0.1,-1 -0.1,-2.1 0,-3.1 v 2.3 c 0,1.7 0,1.7 2,1.4 h 2.3 z"
     id="path56"
     inkscape:connector-curvature="0"
     style="fill:#fdfdfd" /><path
     class="st6"
     d="m 316.54664,408.91152 c 0.1,1 0.1,2.1 0,3.1 v 0 h 3.1 l -2.3,1.7 c 0,0 0,0 0,1.7 0.3,0.9 0.3,1.9 0,2.8 l -2.6,-1.7 v 0 c -0.7,0.9 -1.5,1.6 -2.6,2 v -2.8 c 0,0 0,0 0,-1.7 -0.9,-0.4 -1.7,-1 -2.3,-1.7 h 3.1 v 0 z"
     id="path58"
     inkscape:connector-curvature="0"
     style="fill:#fdfdfe" /><path
     class="st6"
     d="m 243.74664,417.41152 h 2.8 v 0 c -0.1,-1 -0.1,-2.1 0,-3.1 v 2.8 m 1.7,0 h 2.6 l -2.3,2 c 0,0 0,0 0,1.4 0.1,1 0.1,2.1 0,3.1 l -2.6,-1.7 v 0 l -2.6,2.3 v -3.4 c 0.2,-0.4 0.2,-1 0,-1.4 h -2.3 z"
     id="path60"
     inkscape:connector-curvature="0"
     style="fill:#fdfdfe" /><path
     class="st5"
     d="m 199.54664,354.41152 c 0,0.9 0,1.9 0,2.8 v 0 h 2.8 l -2,1.7 c 0,0 0,0 0,2 0,0.9 0,1.9 0,2.8 l -2.8,-2 v 0 l -2.6,1.7 v -2.8 0 l -2.8,-1.7 h 3.1 c 0,0 0,0 1.4,0 0.7,-1.6 1.7,-3.1 2.9,-4.5 z"
     id="path62"
     inkscape:connector-curvature="0"
     style="fill:#fdfdfd" /><path
     class="st5"
     d="m 248.84664,361.81152 -2.6,-1.7 v 0 l -2.6,2.3 c -0.1,-1.1 -0.1,-2.3 0,-3.4 v 0 l -2.6,-2 h 2.6 v 0 -2.8 c 0.1,1 0.1,2.1 0,3.1 v 0 h 3.1 l -2.6,2 c 0,0 0,0 0,1.4 1.8,-0.1 3.3,0.3 4.7,1.1 z"
     id="path64"
     inkscape:connector-curvature="0"
     style="fill:#fdfdfd" /><path
     class="st5"
     d="m 268.44664,350.21152 c 0.1,1 0.1,2.1 0,3.1 v 0 h 3.1 l -2.6,2.3 v 0 c 0,0 0,2 0,3.1 l -2.3,-1.7 c 0,0 -1.4,0 -2,0 l -2,1.7 c -0.2,-0.9 -0.2,-1.9 0,-2.8 m 0.1,-1.7 -2.6,-1.7 h 3.4 v 0 z"
     id="path66"
     inkscape:connector-curvature="0"
     style="fill:#fdfdfd" /><path
     class="st5"
     d="m 317.74664,357.61152 -2.6,-1.7 v 0 l -2.8,2.3 c 0.1,-1.1 0.1,-2.3 0,-3.4 v 0 c -0.9,-0.5 -1.7,-1.2 -2.3,-2 h 2.8 v 0 c -0.2,-1 -0.2,-2.1 0,-3.1 -0.2,1 -0.2,2.1 0,3.1 v 0 c 1,-0.3 2.1,-0.3 3.1,0 l -2.3,2 v 0 c 0.1,0.9 0.1,1.9 0,2.8 z"
     id="path68"
     inkscape:connector-curvature="0"
     style="fill:#fdfdfd" /><path
     class="st5"
     d="m 267.84664,421.91152 v -2.8 0 l -2.8,-2 h 3.1 v 0 -3.1 c 0,0 0,2.3 0,3.1 0,0.8 0,0 0,0 h 3.4 l -2.6,2.3 v 0 c -0.1,1 -0.1,2.1 0,3.1 l -2.8,-1.7 v 0 l -2.3,2 z"
     id="path70"
     inkscape:connector-curvature="0"
     style="fill:#fdfdfd" /><path
     class="st5"
     d="m 206.94664,419.61152 -2.6,2 v 0 c 0.2,1.1 0.2,2.3 0,3.4 l -2.3,-1.7 c 0,0 0,0 -2,0 l -2.3,1.7 c 0.1,-1 0.1,-2.1 0,-3.1 0,0 0,0 0,-1.4 l -2.8,-1.7 h 3.4 v 0 c 0.1,-1.1 0.1,-2.3 0,-3.4 v 3.4 0 h 3.1 z"
     id="path72"
     inkscape:connector-curvature="0"
     style="fill:#fdfdfd" /><path
     class="st5"
     d="m 300.44664,389.61152 c -0.2,-1 -0.2,-2.1 0,-3.1 0,0 0,0 0,-1.7 v -1.7 h 3.1 v 0 -3.4 c 0,0 0,2.3 0,3.1 v 0 c 1,-0.3 2.1,-0.3 3.1,0 l -2.3,2 v 0 c -0.1,1 -0.1,2.1 0,3.1 l -2.6,-1.7 c 0,0 0,0 -1.7,0 z"
     id="path74"
     inkscape:connector-curvature="0"
     style="fill:#fdfdfd" /><path
     class="st5"
     d="m 234.94664,383.11152 v 0 c 0,2.6 0,2.6 3.7,2.6 v 0 l -2.3,2 v 0 c 0.2,1 0.2,2.1 0,3.1 l -2.6,-1.7 c 0,0 0,0 -1.4,0 l -2.3,2 c -0.2,-1 -0.2,-2.1 0,-3.1 v 0 l -2.6,-2 h 2.8 v 0 z"
     id="path76"
     inkscape:connector-curvature="0"
     style="fill:#fdfdfd" /><path
     class="st4"
     d="m 248.24664,433.51152 c 0.1,1 0.1,2.1 0,3.1 v 0 h 3.1 l -2,2 c 0,0 0,0 0,2 0.1,0.8 0.1,1.7 0,2.6 l -2.6,-1.7 v 0 c -0.7,0.9 -1.6,1.7 -2.6,2.3 0,-1.4 0,-2.3 0,-3.4 0,-1.1 0,0 0,0 l -2.8,-2 h 2.6 c 1,0 1.8,-0.7 2,-1.7 0.6,-1.2 1.4,-2.3 2.3,-3.2 z"
     id="path78"
     inkscape:connector-curvature="0"
     style="fill:#fefefe" /><path
     class="st6"
     d="m 197.24664,440.61152 h 3.4 v 0 -3.4 c 0,0.9 0,1.9 0,2.8 v 0 h 3.1 l -2.6,2.3 v 0 c -0.1,1 -0.1,2.1 0,3.1 l -2.8,-1.7 v 0 l -2.6,2 v -3.1 0 z"
     id="path80"
     inkscape:connector-curvature="0"
     style="fill:#fdfdfe" /><path
     class="st6"
     d="m 268.64664,442.61152 c 0,0 0,-2 0,-2.8 0,-0.9 0,0 0,0 l -2.8,-2 h 3.4 v 0 l 2.8,-4.3 c 0.1,1 0.1,2.1 0,3.1 v 0 c 0.9,-0.3 1.9,-0.3 2.8,0 l -2.6,2 v 0 c 0.1,1 0.1,2.1 0,3.1 l -0.3,-1.1 c 0,0 0,0 -1.4,0 l -2.3,1.7 z"
     id="path82"
     inkscape:connector-curvature="0"
     style="fill:#fdfdfe" /><path
     class="st6"
     d="m 317.44664,429.31152 c 0,0 0,2.3 0,3.4 0,1.1 0,0 0,0 h 3.4 l -2.6,2.2 c 0,0 0,0 0,1.4 v 3.1 l -2.8,-2 v 0 l -2.6,2.3 v -3.3 0 l -0.6,-2.8 h 3.1 v 0 c 0.6,-1.6 1.3,-3 2.1,-4.3 z"
     id="path84"
     inkscape:connector-curvature="0"
     style="fill:#fdfdfe" /><path
     class="st4"
     d="m 228.74664,376.81152 c -1,0.6 -1.8,1.4 -2.6,2.3 v 0 c 0.1,1 0.1,2.1 0,3.1 l -2.8,-1.7 v 0 l -2.8,2.3 c 0.1,-1.1 0.1,-2.3 0,-3.4 v 0 l -2.8,-2 c 1,-0.1 2.1,-0.1 3.1,0 0,0 0,0 1.4,-1.4 -0.1,-0.8 -0.1,-1.7 0,-2.6 0.2,0.9 0.2,1.9 0,2.8 v 0 z"
     id="path86"
     inkscape:connector-curvature="0"
     style="fill:#fefefe" /><path
     class="st4"
     d="m 295.94664,379.71152 -2.8,-2 v 0 l -2.6,2.3 v -3.4 0 l -2.8,-2 h 2.3 c 1.7,0 1.7,0 2.3,-2 v -2.3 3.4 0 h 3.1 l -2.6,2.3 v 0 z"
     id="path88"
     inkscape:connector-curvature="0"
     style="fill:#fefefe" /><path
     class="st4"
     d="m 215.44664,415.11152 v -1.7 c 0,0 0,0 -1.7,0 l -2.3,2 c 0,-1.4 0,-2.3 0,-3.4 0,-1.1 0,0 0,0 l -2.6,-2 h 3.1 v 0 c -0.3,-1.1 -0.3,-2.3 0,-3.4 0,0 0,2.3 0,3.1 v 0 h 3.4 l -2.8,2.3 v 0 c 1,1 2,2 2.9,3.1 z"
     id="path90"
     inkscape:connector-curvature="0"
     style="fill:#fefefe" /><path
     class="st4"
     d="m 320.54664,371.41152 -2.6,2.3 v 0 c 0.1,1 0.1,2.1 0,3.1 h -1.7 v 0 l -2.6,2.3 v -3.4 0 l -2.8,-1.7 h 3.1 v 0 c 0.1,-1 0.1,-2.1 0,-3.1 0.1,1.1 0.1,2.3 0,3.4 v 0 z"
     id="path92"
     inkscape:connector-curvature="0"
     style="fill:#fefefe" /><path
     class="st4"
     d="m 276.64664,405.21152 h 3.4 v 0 -3.4 c 0.1,1 0.1,2.1 0,3.1 v 0 h 3.1 l -2.6,2.3 v 0 c -0.1,1.1 -0.1,2.3 0,3.4 l -2.6,-2 c 0,0 0,0 -1.4,0 l -2.6,2 v -3.2 c 0,0 0,0 0,-1.4 z"
     id="path94"
     inkscape:connector-curvature="0"
     style="fill:#fefefe" /><path
     class="st4"
     d="m 240.94664,376.81152 h 2.8 c 0,0 1.4,0 1.7,-1.4 v -2.8 c 0,0 0,2.3 0,3.4 0,1.1 0,0 0,0 h 3.4 l -2.6,2.3 v 0 c 0.1,1 0.1,2.1 0,3.1 l -2.6,-1.7 v 0 c -0.7,0.9 -1.6,1.7 -2.6,2.3 0,-1.4 0,-2.3 0,-3.4 0,-1.1 0,0 0,0 z"
     id="path96"
     inkscape:connector-curvature="0"
     style="fill:#fefefe" /><path
     class="st6"
     d="m 220.24664,439.21152 h 2.8 c 0,0 1.4,0 1.7,-1.4 -0.1,-0.9 -0.1,-1.9 0,-2.8 0.1,1 0.1,2.1 0,3.1 v 0 h 3.1 l -2.6,2.3 v 0 c -0.1,1 -0.1,2.1 0,3.1 l -2.8,-1.7 v 0 l -2.6,2.3 v -3.1 c 0,0 0,0 0,-1.7 z"
     id="path98"
     inkscape:connector-curvature="0"
     style="fill:#fdfdfe" /><path
     class="st6"
     d="m 297.84664,441.21152 -2.6,-2 v 0 l -2.8,2.3 c 0,0 0,-2.3 0,-3.1 0,-0.8 0,0 0,-1.4 l -2.8,-2 h 3.4 v 0 c -0.3,-1 -0.3,-2.1 0,-3.1 v 2 c 0,1.7 0,1.7 2.6,1.7 h 4.8 l -2.6,2.3 c 0,0 0,0 0,1.4 0.1,0.6 0.1,1.2 0,1.9 z"
     id="path100"
     inkscape:connector-curvature="0"
     style="fill:#fdfdfe" /><path
     class="st4"
     d="m 230.74664,407.71152 h 2.8 c 0,0 0,0 0,-1.4 v -2.8 c 0,0 0,2.3 0,3.4 0,1.1 0,0 0,0 h 3.4 l -2.6,2.3 v 0 c -0.1,1 -0.1,2.1 0,3.1 l -2.8,-1.7 v 0 c -0.8,0.7 -1.6,1.4 -2.6,2 v -3.2 0 z"
     id="path102"
     inkscape:connector-curvature="0"
     style="fill:#fefefe" /><path
     class="st4"
     d="m 253.64664,405.21152 h 3.4 v 0 c 0,0 0,-2 0,-3.4 v 3.1 0 h 3.1 l -2.6,2.3 v 0 2.8 l -2.6,-1.4 m -1.6,0 -2.3,2 c 0,-1.4 0,-2.3 0,-3.4 0,-1.1 0,0 0,0 z"
     id="path104"
     inkscape:connector-curvature="0"
     style="fill:#fefefe" /><path
     class="st4"
     d="m 308.34664,409.71152 -2.6,-2 c 0,0 0,0 -1.4,0 l -2.6,2 c -0.1,-1 -0.1,-2.1 0,-3.1 v 0 l -1.4,-1.4 h 3.4 v 0 c 0,0 0,-2 0,-3.4 v 2.6 c 0,0 0,1.7 1.7,1.4 h 2.6 l -2.3,2 c 0,0 0,0 0,1.7 z"
     id="path106"
     inkscape:connector-curvature="0"
     style="fill:#fefefe" /><path
     class="st4"
     d="m 274.64664,374.31152 -2.6,2.6 v 0 3.4 l -2.6,-2 m -1.6,0 -2.3,2 c -0.2,-1 -0.2,-2.1 0,-3.1 0,0 0,0 0,-1.4 l -2.6,-1.7 h 2.8 v 0 -3.1 c 0,0 0,2.3 0,3.1 v 0 z"
     id="path108"
     inkscape:connector-curvature="0"
     style="fill:#fefefe" /><path
     class="st4"
     d="m 197.54664,385.31152 c -0.1,-1 -0.1,-2.1 0,-3.1 v 0 l -2.8,-2 h 2.6 c 1.4,0 1.4,0 2,-2 -0.1,-0.8 -0.1,-1.5 0,-2.3 v 3.1 0 h 3.4 l -2.8,2.3 v 0 c 0.2,1 0.2,2.1 0,3.1 l -2.6,-1.7 c 0,0 0,0 -1.4,0 0.6,0.8 1.2,1.7 1.6,2.6 z"
     id="path110"
     inkscape:connector-curvature="0"
     style="fill:#fefefe" /><path
     class="st4"
     d="m 264.74664,426.41152 c 0,0 -2.6,1.4 -2.8,2.6 -0.1,1.2 -0.1,2.5 0,3.7 v 0 l -2.6,-2 c 0,0 0,0 -1.4,0 l -2.6,2 c 0,0 0,-2.3 0,-3.4 0,-1.1 0,0 0,0 l -2.6,-1.7 h 3.1 v 0 -3.1 c 0.1,0.9 0.1,1.9 0,2.8 0,0 0,0 1.4,0 z"
     id="path112"
     inkscape:connector-curvature="0"
     style="fill:#fefefe" /><path
     class="st4"
     d="m 218.84664,398.41152 h 3.1 v 0 -3.4 c 0.1,1.1 0.1,2.3 0,3.4 v 0 h 3.4 l -2.6,2.3 v 0 c -0.1,1.1 -0.1,2.3 0,3.4 l -2.6,-2 c 0,0 0,0 -1.4,0 l 2.3,3.1 v -3.4 0 z"
     id="path114"
     inkscape:connector-curvature="0"
     style="fill:#fefefe" /><path
     class="st4"
     d="m 296.44664,400.11152 -2.6,-1.7 c 0,0 0,0 -1.4,0 l -2.6,2 v -2.8 c 0,0 0,-1.4 0,-1.7 l -2.6,-1.7 h 3.4 v 0 c -0.1,-1 -0.1,-2.1 0,-3.1 v 2.8 c 0,0 0,0 1.4,0 h 3.1 l -2.3,1.7 c 0,0 0,0 0,2 z"
     id="path116"
     inkscape:connector-curvature="0"
     style="fill:#fefefe" /><path
     class="st4"
     d="m 239.44664,366.31152 -2.3,2 c 0,0 0,0 0,1.4 v 3.1 l -2.8,-2 v 0 l -2.3,2 v -3.4 0 l -2.6,-1.7 h 3.1 v 0 c 0,0 0,-2 0,-3.4 0,-1.4 0,2.3 0,3.4 0,1.1 0,0 0,0 h 3.1 z"
     id="path118"
     inkscape:connector-curvature="0"
     style="fill:#fefefe" /><path
     class="st4"
     d="m 308.34664,362.41152 -2,1.7 c 0,0 0,0 0,1.7 0.2,0.9 0.2,1.9 0,2.8 l -2.6,-1.7 c 0,0 0,0 -1.4,0 l -2.6,2.3 c -0.1,-1.1 -0.1,-2.3 0,-3.4 m 0.1,-1.4 -2.3,-1.7 h 2.8 v 0 -3.1 c 0.1,1 0.1,2.1 0,3.1 v 0 h 2.8 z"
     id="path120"
     inkscape:connector-curvature="0"
     style="fill:#fefefe" /><path
     class="st4"
     d="m 198.14664,405.21152 c 0,-1.4 0,-2.3 0,-3.4 0,-1.1 0,0 0,0 l -2.6,-1.7 h 3.1 v 0 c 0,0 0,-2 0,-3.4 0,-1.4 0,2.3 0,3.1 0,0.8 0,0 0,0 h 2.8 c 0,0 0,0 -1.4,1.7 -1.4,1.7 0,0 0,2.8 v 2.3 l -2.8,-2 v 0 z"
     id="path122"
     inkscape:connector-curvature="0"
     style="fill:#fefefe" /><path
     class="st4"
     d="m 266.94664,401.81152 v -3.1 c 0,0 0,0 0,-1.4 -1,-0.4 -1.8,-0.9 -2.6,-1.7 h 2.8 v 0 c 0.1,-1 0.1,-2.1 0,-3.1 v 3.4 0 h 3.4 l -2.8,2.3 v 0 c 0,0 0,2 0,3.4 l 4.3,-2 v 0 z"
     id="path124"
     inkscape:connector-curvature="0"
     style="fill:#fefefe" /><path
     class="st4"
     d="m 300.44664,424.21152 h 2.6 v 0 -2.8 c 0,0 0,2 0,3.1 0,1.1 0,0 0,0 h 2.8 c -0.4,0.8 -1.1,1.4 -2,1.7 0,0 0,0 0,2 0,0.9 0,1.9 0,2.8 l -2.3,-1.4 c 0,0 -1.4,0 -2.3,0 l -2,1.7 c -0.2,-0.9 -0.2,-1.9 0,-2.8 m 0.1,-1.8 3.1,-2.3 z"
     id="path126"
     inkscape:connector-curvature="0"
     style="fill:#fefefe" /><path
     class="st4"
     d="m 287.64664,425.01152 -2.3,2 c 0,0 0,0 0,1.4 -0.1,1 -0.1,2.1 0,3.1 l -2.6,-1.7 c 0,0 0,0 -1.7,0 l -2.3,2 v -3.4 0 c -0.9,-0.4 -1.8,-1 -2.6,-1.7 h 3.1 v 0 c -0.1,-1 -0.1,-2.1 0,-3.1 0.1,0.9 0.1,1.9 0,2.8 z"
     id="path128"
     inkscape:connector-curvature="0"
     style="fill:#fefefe" /><path
     class="st4"
     d="m 242.04664,427.61152 -2.6,2.3 c 0,0 0,0 0,1.4 0.2,1 0.2,2.1 0,3.1 l -1.7,-0.9 c 0,0 0,0 -1.7,0 l -2.6,2 v -3.1 c 0,0 0,0 0,-1.4 l -2.8,-1.7 h 3.1 v 0 c 0.1,-1 0.1,-2.1 0,-3.1 0.1,1 0.1,2.1 0,3.1 0,0 0,0 1.4,0 z"
     id="path130"
     inkscape:connector-curvature="0"
     style="fill:#fefefe" /><path
     class="st4"
     d="m 213.44664,425.31152 c 0.1,1.1 0.1,2.3 0,3.4 v 0 h 3.1 l -2.6,2.3 v 0 c 0.1,1.1 0.1,2.3 0,3.4 l 1.4,-0.9 v 0 c -0.7,0.9 -1.6,1.7 -2.6,2.3 0,-1.4 0,-2.3 0,-3.4 0,-1.1 0,0 0,0 l -2.8,-1.7 h 3.4 v 0 c 0.1,0 -0.2,-4 0.1,-5.4 z"
     id="path132"
     inkscape:connector-curvature="0"
     style="fill:#fefefe" /><path
     class="st4"
     d="m 252.54664,365.51152 h 3.1 v 0 c -0.1,-1 -0.1,-2.1 0,-3.1 0.1,1 0.1,2.1 0,3.1 v 0 h 3.1 l -2.6,2.3 m 0.1,1.4 c -0.1,1 -0.1,2.1 0,3.1 l -2.8,-2 v 0 l -2.6,2.3 v -3.1 c 0,0 0,0 0,-1.4 l -2.3,-1.4 z"
     id="path134"
     inkscape:connector-curvature="0"
     style="fill:#fefefe" /><path
     class="st4"
     d="m 280.34664,359.51152 c 0.1,1.1 0.1,2.3 0,3.4 v 0 h 3.1 l -2.3,2 v 0 c 0,0 0,2 0,3.1 l -2.6,-1.7 v 0 l -2.6,2 c -0.2,-0.9 -0.2,-1.9 0,-2.8 0,0 0,-1.4 0,-2 l -2,-1.4 h 2.8 v 0 c 0.2,0 3.3,-1.1 3.6,-2.6 z"
     id="path136"
     inkscape:connector-curvature="0"
     style="fill:#fefefe" /><path
     class="st4"
     d="m 215.44664,374.31152 -2.3,-1.7 m -1.7,0 -2.6,2 c 0,0 0,-2.3 0,-3.1 0,-0.8 0,0 0,0 l -2.6,-1.7 h 3.1 v 0 c -0.1,-1.1 -0.1,-2.3 0,-3.4 v 3.1 0 h 3.1 l -2.3,2 c 0,0 0,0 0,2 1.7,0 3.5,0.3 5.1,0.9 z"
     id="path138"
     inkscape:connector-curvature="0"
     style="fill:#fefefe" /><path
     class="st4"
     d="m 242.04664,397.01152 h 3.1 v 0 -3.4 c 0,0 0,1.4 0,2.3 0.1,0.9 0.9,1.6 1.9,1.5 0.1,0 0.3,0 0.4,-0.1 0,0 0,0 2,0 l -2.3,2 v 0 c 0.1,1 0.1,2.1 0,3.1 l -2.8,-2 v 0 l -2.6,2.3 v -3.4 0 z"
     id="path140"
     inkscape:connector-curvature="0"
     style="fill:#fefefe" /><path
     class="st4"
     d="m 321.14664,392.41152 -2.3,1.7 c 0,0 0,0 0,1.4 v 3.1 l -2.6,-1.7 v 0 l -2.3,2 c -0.2,-1 -0.2,-2.1 0,-3.1 0.2,-0.4 0.2,-1 0,-1.4 -1,-0.4 -1.8,-0.9 -2.6,-1.7 h 3.1 v 0 c -0.2,-1 -0.2,-2.1 0,-3.1 v 2.8 c 0,0 0,0 1.4,0 h 2.8 z"
     id="path142"
     inkscape:connector-curvature="0"
     style="fill:#fefefe" /></g>
</svg>