<?xml version="1.0" encoding="UTF-8" standalone="no"?>
<svg
   xmlns:dc="http://purl.org/dc/elements/1.1/"
   xmlns:cc="http://creativecommons.org/ns#"
   xmlns:rdf="http://www.w3.org/1999/02/22-rdf-syntax-ns#"
   xmlns:svg="http://www.w3.org/2000/svg"
   xmlns="http://www.w3.org/2000/svg"
   xmlns:sodipodi="http://sodipodi.sourceforge.net/DTD/sodipodi-0.dtd"
   xmlns:inkscape="http://www.inkscape.org/namespaces/inkscape"
   id="Layer_1"
   viewBox="0 0 1999.9 2000"
   version="1.1"
   sodipodi:docname="btg-coin-symbol.svg"
   width="1999.9"
   height="2000"
   inkscape:version="0.92.5 (2060ec1f9f, 2020-04-08)">
  <metadata
     id="metadata15">
    <rdf:RDF>
      <cc:Work
         rdf:about="">
        <dc:format>image/svg+xml</dc:format>
        <dc:type
           rdf:resource="http://purl.org/dc/dcmitype/StillImage" />
        <dc:title></dc:title>
      </cc:Work>
    </rdf:RDF>
  </metadata>
  <defs
     id="defs13" />
  <sodipodi:namedview
     pagecolor="#ffffff"
     bordercolor="#666666"
     borderopacity="1"
     objecttolerance="10"
     gridtolerance="10"
     guidetolerance="10"
     inkscape:pageopacity="0"
     inkscape:pageshadow="2"
     inkscape:window-width="1920"
     inkscape:window-height="1027"
     id="namedview11"
     showgrid="false"
     inkscape:zoom="0.426"
     inkscape:cx="999.95001"
     inkscape:cy="1000"
     inkscape:window-x="0"
     inkscape:window-y="0"
     inkscape:window-maximized="1"
     inkscape:current-layer="Layer_1" />
  <style
     id="style2">.st0{fill:#00206b}.st1{fill:#eba809}</style>
  <circle
     style="fill:#ffffff;fill-opacity:1;fill-rule:nonzero;stroke:none;stroke-width:1.18254185;stroke-linecap:round;stroke-linejoin:bevel;stroke-miterlimit:4;stroke-dasharray:none;stroke-opacity:1;paint-order:stroke fill markers"
     id="path825"
     cx="995"
     cy="997"
     r="975" />
  <path
     class="st0"
     d="m 947,0 h 104.2 c 108.7,7.2 216.8,28.9 317.8,69.7 250,98.3 456.3,302.2 557,551.4 138.6,331.8 79.1,736.5 -152.3,1012.6 -156.6,192.2 -386.9,323.1 -632.7,356.4 C 910.3,2023 668.2,1973.3 470.8,1848.6 318.6,1753.8 192.6,1617.4 111,1457.6 6.3,1256.9 -25.5,1019.7 20.5,798.3 69.7,552.9 216.2,329 420.5,184.7 573.5,74 759,11.7 947,0 M 885,45.3 C 580.8,80.2 301.2,271.8 156.2,541.2 58.1,720.3 18.9,931.5 48.5,1133.8 c 33.5,243.6 166,471.5 360,622.3 147.7,116.5 330.4,188 518,202 212.5,16.9 430.1,-39.8 606.5,-159.5 216.3,-143.2 369.8,-377.4 413.9,-633.1 25.4,-150.7 16.8,-307.7 -29.8,-453.4 -66.5,-211.9 -209,-399.2 -396,-519.2 C 1335.2,70.9 1105.7,18 885,45.3 Z"
     id="path4"
     inkscape:connector-curvature="0"
     style="fill:#00206b" />
  <path
     class="st0"
     d="m 909.1,439.1 c 173.9,-29.1 360.4,27.9 485.5,152.7 111,104.8 175.8,257.1 172.6,409.8 2.2,151.9 -62.9,303 -173.4,406.9 -120.3,119.6 -297.2,176.7 -464.9,154.6 C 770.9,1544.1 623,1454.3 533.2,1322.8 433.8,1182 406.4,994.6 458,830.5 518.4,628.5 700.8,470.6 909.1,439.1 m 34.7,34.6 c 0.1,49.7 0.2,99.4 0.1,149.1 24.8,0 49.6,0 74.4,0.1 0.1,-51 0.2,-102 0,-152.9 -24.8,0.8 -49.7,2 -74.5,3.7 m 178.9,151.5 c 65.3,8.8 135.5,18.8 187.6,62.9 79.5,71.4 69.2,221.3 -28.1,273.1 58.3,13.6 116,52.5 130.4,113.7 18.7,80.3 3.8,176.7 -60.7,233.3 -63.9,52.6 -150.4,59.5 -229.4,67 0.4,46.5 0.2,93 0.1,139.6 166.3,-40.7 309.8,-164.5 370.8,-324.7 57.9,-147.8 44.2,-321.7 -37.5,-457.8 -72.2,-122.8 -195,-213 -332.9,-247.6 -0.4,46.8 -0.4,93.6 -0.3,140.5 m -496.3,-2 c 72,3.5 144.1,2.7 216.2,2.6 0,-43.9 0.1,-87.7 -0.2,-131.6 -80.7,26.2 -152.6,73.2 -216,129 m -8.6,5.8 c -19.1,23.5 -54.5,67.9 -75.5,107.2 -84.7,144.3 -94.3,329.5 -23.6,481.3 61,136.1 182,242 323.7,287.6 0.2,-43.8 0.1,-87.6 0.1,-131.3 -72.3,-0.7 -144.8,1.9 -217,-2 0.8,-40.3 10.3,-79.7 24,-117.7 35.4,-0.7 72.3,5.5 106.5,-6.1 20,-16.8 14.3,-44.6 15.4,-67.6 -1.1,-131.5 0.5,-263 -0.7,-394.4 1.3,-21.2 -12,-44.1 -34,-48.3 -36.3,-7.3 -73.7,-4.4 -110.4,-4.7 -4.3,-29.6 -4.8,-59.5 -5.2,-89.4 0,0 0.5,-9.4 -2.7,-15.5 z m 329.1,113 v 193.8 c 64.7,-1.2 136.5,6 193.1,-31.6 47,-30.8 44,-108.7 -4.5,-136.4 -56.7,-33.5 -125.8,-24 -188.6,-25.8 m 0,298.1 v 215 c 79.9,-6.4 169.5,7 239,-41.2 49.7,-33 43.7,-114.7 -7.5,-143.3 -69.6,-41.6 -154.2,-28.4 -231.5,-30.5 m -2.9,336.6 c 0,49.7 -0.1,99.5 -0.2,149.2 25.9,1.7 51.7,2.7 77.6,3.5 0.2,-50.9 0.1,-101.8 0.1,-152.7 z"
     id="path6"
     inkscape:connector-curvature="0"
     style="fill:#00206b" />
  <path
     class="st1"
     d="m 890.8,97.2 c 175.2,-18.8 356.6,7.9 514,88.7 202.5,99.3 364.4,277.8 444.2,488.7 81.4,211.2 79.6,452.8 -4.7,663 -128.2,331.3 -466.7,569.5 -823.1,570 -209.3,7.6 -419.9,-62.8 -583.8,-193 -174.8,-135.9 -295.7,-339 -333,-557.3 C 66.3,941.1 109,711.4 224.6,524.5 365.9,290.1 619,128.1 890.8,97.2 M 860.3,390.6 C 717.9,422.7 587.7,506.8 500.4,623.9 404,750.7 359.8,915.6 379.5,1073.5 c 18.5,169 110.8,328.4 248.1,428.5 128.5,96.6 295.5,139 454.5,117.2 196.5,-24 377.2,-149.1 468.9,-324.6 68.7,-125.2 87.5,-274 62.3,-413.7 C 1581.2,711.5 1475.4,557.6 1328.2,467.8 1190.4,382 1018.4,354.5 860.3,390.6 Z"
     id="path8"
     inkscape:connector-curvature="0"
     style="fill:#eba809" />
</svg>
