<?xml version="1.0" encoding="UTF-8" standalone="no"?>
<!-- Generator: Adobe Illustrator 24.3.0, SVG Export Plug-In . SVG Version: 6.00 Build 0)  -->

<svg
   xmlns:dc="http://purl.org/dc/elements/1.1/"
   xmlns:cc="http://creativecommons.org/ns#"
   xmlns:rdf="http://www.w3.org/1999/02/22-rdf-syntax-ns#"
   xmlns:svg="http://www.w3.org/2000/svg"
   xmlns="http://www.w3.org/2000/svg"
   xmlns:sodipodi="http://sodipodi.sourceforge.net/DTD/sodipodi-0.dtd"
   xmlns:inkscape="http://www.inkscape.org/namespaces/inkscape"
   version="1.1"
   id="Layer_1"
   x="0px"
   y="0px"
   viewBox="0 0 311.39999 311.39999"
   xml:space="preserve"
   sodipodi:docname="Firo-logo.svg"
   width="311.39999"
   height="311.39999"
   inkscape:version="0.92.5 (2060ec1f9f, 2020-04-08)"><metadata
   id="metadata29"><rdf:RDF><cc:Work
       rdf:about=""><dc:format>image/svg+xml</dc:format><dc:type
         rdf:resource="http://purl.org/dc/dcmitype/StillImage" /><dc:title></dc:title></cc:Work></rdf:RDF></metadata><defs
   id="defs27">
	
	
	
</defs><sodipodi:namedview
   pagecolor="#ffffff"
   bordercolor="#666666"
   borderopacity="1"
   objecttolerance="10"
   gridtolerance="10"
   guidetolerance="10"
   inkscape:pageopacity="0"
   inkscape:pageshadow="2"
   inkscape:window-width="1920"
   inkscape:window-height="1027"
   id="namedview25"
   showgrid="false"
   fit-margin-top="0"
   fit-margin-left="0"
   fit-margin-right="0"
   fit-margin-bottom="0"
   inkscape:zoom="1.3995984"
   inkscape:cx="440.9"
   inkscape:cy="155.7"
   inkscape:window-x="0"
   inkscape:window-y="0"
   inkscape:window-maximized="1"
   inkscape:current-layer="Layer_1" />
<style
   type="text/css"
   id="style2">
	.st0{fill:#0F0E0E;}
	.st1{fill:#FEFEFE;}
	.st2{fill:#9B1C2E;}
</style>
<g
   id="g14"
   transform="translate(-57.1,-56.3)">
		<circle
   style="fill:#fefefe"
   id="circle12"
   r="155.39999"
   cy="212"
   cx="212.7"
   class="st1" />
	</g><g
   id="g20"
   transform="translate(-57.1,-56.3)">
		<path
   style="fill:#9b1c2e"
   inkscape:connector-curvature="0"
   id="path16"
   d="m 148.5,280.2 c 3.6,0 7,-2 8.6,-5.2 L 180,231.5 h -35.4 c -5.4,0 -9.7,-4.4 -9.7,-9.7 v -19.5 c 0,-5.4 4.4,-9.7 9.7,-9.7 h 56 l 43.5,-82.4 c 1.7,-3.2 5,-5.2 8.6,-5.2 H 326 C 297.6,75 257.5,56.3 212.9,56.3 c -86,0 -155.8,69.7 -155.8,155.8 0,24.4 5.6,47.6 15.7,68.2 h 75.7 z"
   class="st2" />
		<path
   style="fill:#9b1c2e"
   inkscape:connector-curvature="0"
   id="path18"
   d="m 277.1,143.8 c -3.6,0 -7,2 -8.6,5.2 l -22.9,43.5 H 281 c 5.4,0 9.7,4.4 9.7,9.7 v 19.5 c 0,5.4 -4.4,9.7 -9.7,9.7 h -56 l -43.5,82.4 c -1.7,3.2 -5,5.2 -8.6,5.2 H 99.6 c 28.4,30 68.5,48.7 113.1,48.7 86,0 155.8,-69.7 155.8,-155.8 0,-24.4 -5.6,-47.6 -15.7,-68.2 h -75.7 z"
   class="st2" />
	</g>
</svg>