<?xml version="1.0" encoding="UTF-8" standalone="no"?>
<svg
   xmlns:osb="http://www.openswatchbook.org/uri/2009/osb"
   xmlns:dc="http://purl.org/dc/elements/1.1/"
   xmlns:cc="http://creativecommons.org/ns#"
   xmlns:rdf="http://www.w3.org/1999/02/22-rdf-syntax-ns#"
   xmlns:svg="http://www.w3.org/2000/svg"
   xmlns="http://www.w3.org/2000/svg"
   xmlns:xlink="http://www.w3.org/1999/xlink"
   width="728.30817"
   height="711.17957"
   viewBox="0 0 192.6982 188.16626"
   version="1.1"
   id="svg8">
  <defs
     id="defs2">
    <linearGradient
       id="linearGradient982"
       osb:paint="gradient">
      <stop
         style="stop-color:#f0827d;stop-opacity:1;"
         offset="0"
         id="stop978" />
      <stop
         style="stop-color:#f0827d;stop-opacity:0;"
         offset="1"
         id="stop980" />
    </linearGradient>
    <linearGradient
       id="linearGradient923">
      <stop
         style="stop-color:#000000;stop-opacity:1;"
         offset="0"
         id="stop919" />
      <stop
         style="stop-color:#000000;stop-opacity:0;"
         offset="1"
         id="stop921" />
    </linearGradient>
    <linearGradient
       id="linearGradient915">
      <stop
         style="stop-color:#ff6255;stop-opacity:1;"
         offset="0"
         id="stop911" />
      <stop
         style="stop-color:#ff6255;stop-opacity:0;"
         offset="1"
         id="stop913" />
    </linearGradient>
    <linearGradient
       id="linearGradient868"
       osb:paint="solid">
      <stop
         style="stop-color:#000000;stop-opacity:1;"
         offset="0"
         id="stop866" />
    </linearGradient>
    <linearGradient
       id="linearGradient1607"
       osb:paint="gradient">
      <stop
         style="stop-color:#ff6255;stop-opacity:1"
         offset="0"
         id="stop1603" />
      <stop
         style="stop-color:#da5b51;stop-opacity:0;"
         offset="1"
         id="stop1605" />
    </linearGradient>
    <linearGradient
       id="linearGradient6891-7">
      <stop
         id="stop6887"
         offset="0"
         style="stop-color:#ff8c8c;stop-opacity:1;" />
      <stop
         id="stop6889"
         offset="1"
         style="stop-color:#ff8c8c;stop-opacity:0;" />
    </linearGradient>
    <linearGradient
       gradientTransform="matrix(1.0176293,0,0,1.043284,-52.786314,-431.941)"
       gradientUnits="userSpaceOnUse"
       y2="131.06845"
       x2="330.48346"
       y1="131.06845"
       x1="116.28441"
       id="linearGradient6893"
       xlink:href="#linearGradient6891-7" />
    <radialGradient
       xlink:href="#linearGradient923"
       id="radialGradient1672"
       cx="25.051212"
       cy="25.777636"
       fx="25.051212"
       fy="25.777636"
       r="11.343032"
       gradientTransform="matrix(1,0,0,1.4006544,0,-10.327923)"
       gradientUnits="userSpaceOnUse" />
    <linearGradient
       xlink:href="#linearGradient915"
       id="linearGradient917"
       x1="-5.883111"
       y1="-366.6369"
       x2="294.47836"
       y2="-360.58929"
       gradientUnits="userSpaceOnUse" />
    <linearGradient
       xlink:href="#linearGradient923"
       id="linearGradient925"
       x1="956.32697"
       y1="137.55695"
       x2="1492.8649"
       y2="137.55695"
       gradientUnits="userSpaceOnUse"
       gradientTransform="translate(-161.77381,-52.916668)" />
    <radialGradient
       xlink:href="#linearGradient923"
       id="radialGradient1672-5"
       cx="25.051212"
       cy="25.777636"
       fx="25.051212"
       fy="25.777636"
       r="11.343032"
       gradientTransform="matrix(1,0,0,1.4006544,0,-10.327923)"
       gradientUnits="userSpaceOnUse" />
    <radialGradient
       xlink:href="#linearGradient923"
       id="radialGradient1672-0"
       cx="25.051212"
       cy="25.777636"
       fx="25.051212"
       fy="25.777636"
       r="11.343032"
       gradientTransform="matrix(1,0,0,1.4006544,0,-10.327923)"
       gradientUnits="userSpaceOnUse" />
    <radialGradient
       xlink:href="#linearGradient923"
       id="radialGradient1672-5-6"
       cx="25.051212"
       cy="25.777636"
       fx="25.051212"
       fy="25.777636"
       r="11.343032"
       gradientTransform="matrix(1,0,0,1.4006544,0,-10.327923)"
       gradientUnits="userSpaceOnUse" />
    <radialGradient
       xlink:href="#linearGradient923"
       id="radialGradient1672-8"
       cx="25.051212"
       cy="25.777636"
       fx="25.051212"
       fy="25.777636"
       r="11.343032"
       gradientTransform="matrix(1,0,0,1.4006544,0,-10.327923)"
       gradientUnits="userSpaceOnUse" />
    <radialGradient
       xlink:href="#linearGradient923"
       id="radialGradient1672-4"
       cx="25.051212"
       cy="25.777636"
       fx="25.051212"
       fy="25.777636"
       r="11.343032"
       gradientTransform="matrix(1,0,0,1.4006544,0,-10.327923)"
       gradientUnits="userSpaceOnUse" />
    <radialGradient
       xlink:href="#linearGradient923"
       id="radialGradient1672-5-62"
       cx="25.051212"
       cy="25.777636"
       fx="25.051212"
       fy="25.777636"
       r="11.343032"
       gradientTransform="matrix(1,0,0,1.4006544,0,-10.327923)"
       gradientUnits="userSpaceOnUse" />
    <radialGradient
       xlink:href="#linearGradient923"
       id="radialGradient1672-3"
       cx="25.051212"
       cy="25.777636"
       fx="25.051212"
       fy="25.777636"
       r="11.343032"
       gradientTransform="matrix(1,0,0,1.4006544,0,-10.327923)"
       gradientUnits="userSpaceOnUse" />
    <radialGradient
       xlink:href="#linearGradient923"
       id="radialGradient1672-5-8"
       cx="25.051212"
       cy="25.777636"
       fx="25.051212"
       fy="25.777636"
       r="11.343032"
       gradientTransform="matrix(1,0,0,1.4006544,0,-10.327923)"
       gradientUnits="userSpaceOnUse" />
    <radialGradient
       xlink:href="#linearGradient923"
       id="radialGradient1672-37"
       cx="25.051212"
       cy="25.777636"
       fx="25.051212"
       fy="25.777636"
       r="11.343032"
       gradientTransform="matrix(1,0,0,1.4006544,0,-10.327923)"
       gradientUnits="userSpaceOnUse" />
    <radialGradient
       xlink:href="#linearGradient923"
       id="radialGradient1672-5-5"
       cx="25.051212"
       cy="25.777636"
       fx="25.051212"
       fy="25.777636"
       r="11.343032"
       gradientTransform="matrix(1,0,0,1.4006544,0,-10.327923)"
       gradientUnits="userSpaceOnUse" />
    <radialGradient
       xlink:href="#linearGradient923"
       id="radialGradient1672-0-4"
       cx="25.051212"
       cy="25.777636"
       fx="25.051212"
       fy="25.777636"
       r="11.343032"
       gradientTransform="matrix(1,0,0,1.4006544,0,-10.327923)"
       gradientUnits="userSpaceOnUse" />
    <radialGradient
       xlink:href="#linearGradient923"
       id="radialGradient1672-5-6-1"
       cx="25.051212"
       cy="25.777636"
       fx="25.051212"
       fy="25.777636"
       r="11.343032"
       gradientTransform="matrix(1,0,0,1.4006544,0,-10.327923)"
       gradientUnits="userSpaceOnUse" />
    <radialGradient
       xlink:href="#linearGradient923"
       id="radialGradient1672-8-7"
       cx="25.051212"
       cy="25.777636"
       fx="25.051212"
       fy="25.777636"
       r="11.343032"
       gradientTransform="matrix(1,0,0,1.4006544,0,-10.327923)"
       gradientUnits="userSpaceOnUse" />
    <radialGradient
       xlink:href="#linearGradient923"
       id="radialGradient1672-4-6"
       cx="25.051212"
       cy="25.777636"
       fx="25.051212"
       fy="25.777636"
       r="11.343032"
       gradientTransform="matrix(1,0,0,1.4006544,0,-10.327923)"
       gradientUnits="userSpaceOnUse" />
    <radialGradient
       xlink:href="#linearGradient923"
       id="radialGradient1672-5-62-8"
       cx="25.051212"
       cy="25.777636"
       fx="25.051212"
       fy="25.777636"
       r="11.343032"
       gradientTransform="matrix(1,0,0,1.4006544,0,-10.327923)"
       gradientUnits="userSpaceOnUse" />
    <radialGradient
       xlink:href="#linearGradient923"
       id="radialGradient1672-3-6"
       cx="25.051212"
       cy="25.777636"
       fx="25.051212"
       fy="25.777636"
       r="11.343032"
       gradientTransform="matrix(1,0,0,1.4006544,0,-10.327923)"
       gradientUnits="userSpaceOnUse" />
    <radialGradient
       xlink:href="#linearGradient923"
       id="radialGradient1672-5-8-6"
       cx="25.051212"
       cy="25.777636"
       fx="25.051212"
       fy="25.777636"
       r="11.343032"
       gradientTransform="matrix(1,0,0,1.4006544,0,-10.327923)"
       gradientUnits="userSpaceOnUse" />
    <radialGradient
       xlink:href="#linearGradient923"
       id="radialGradient1672-2"
       cx="25.051212"
       cy="25.777636"
       fx="25.051212"
       fy="25.777636"
       r="11.343032"
       gradientTransform="matrix(1,0,0,1.4006544,0,-10.327923)"
       gradientUnits="userSpaceOnUse" />
    <radialGradient
       xlink:href="#linearGradient923"
       id="radialGradient1672-5-0"
       cx="25.051212"
       cy="25.777636"
       fx="25.051212"
       fy="25.777636"
       r="11.343032"
       gradientTransform="matrix(1,0,0,1.4006544,0,-10.327923)"
       gradientUnits="userSpaceOnUse" />
    <radialGradient
       xlink:href="#linearGradient923"
       id="radialGradient1672-0-9"
       cx="25.051212"
       cy="25.777636"
       fx="25.051212"
       fy="25.777636"
       r="11.343032"
       gradientTransform="matrix(1,0,0,1.4006544,0,-10.327923)"
       gradientUnits="userSpaceOnUse" />
    <radialGradient
       xlink:href="#linearGradient923"
       id="radialGradient1672-5-6-4"
       cx="25.051212"
       cy="25.777636"
       fx="25.051212"
       fy="25.777636"
       r="11.343032"
       gradientTransform="matrix(1,0,0,1.4006544,0,-10.327923)"
       gradientUnits="userSpaceOnUse" />
    <radialGradient
       xlink:href="#linearGradient923"
       id="radialGradient1672-8-0"
       cx="25.051212"
       cy="25.777636"
       fx="25.051212"
       fy="25.777636"
       r="11.343032"
       gradientTransform="matrix(1,0,0,1.4006544,0,-10.327923)"
       gradientUnits="userSpaceOnUse" />
    <radialGradient
       xlink:href="#linearGradient923"
       id="radialGradient1672-4-9"
       cx="25.051212"
       cy="25.777636"
       fx="25.051212"
       fy="25.777636"
       r="11.343032"
       gradientTransform="matrix(1,0,0,1.4006544,0,-10.327923)"
       gradientUnits="userSpaceOnUse" />
    <radialGradient
       xlink:href="#linearGradient923"
       id="radialGradient1672-5-62-5"
       cx="25.051212"
       cy="25.777636"
       fx="25.051212"
       fy="25.777636"
       r="11.343032"
       gradientTransform="matrix(1,0,0,1.4006544,0,-10.327923)"
       gradientUnits="userSpaceOnUse" />
    <radialGradient
       xlink:href="#linearGradient923"
       id="radialGradient1672-3-1"
       cx="25.051212"
       cy="25.777636"
       fx="25.051212"
       fy="25.777636"
       r="11.343032"
       gradientTransform="matrix(1,0,0,1.4006544,0,-10.327923)"
       gradientUnits="userSpaceOnUse" />
    <radialGradient
       xlink:href="#linearGradient923"
       id="radialGradient1672-5-8-8"
       cx="25.051212"
       cy="25.777636"
       fx="25.051212"
       fy="25.777636"
       r="11.343032"
       gradientTransform="matrix(1,0,0,1.4006544,0,-10.327923)"
       gradientUnits="userSpaceOnUse" />
  </defs>
  <metadata
     id="metadata5">
    <rdf:RDF>
      <cc:Work
         rdf:about="">
        <dc:format>image/svg+xml</dc:format>
        <dc:type
           rdf:resource="http://purl.org/dc/dcmitype/StillImage" />
        <dc:title></dc:title>
      </cc:Work>
    </rdf:RDF>
  </metadata>
  <g
     id="layer1"
     transform="translate(-34.189241,-73.416719)">
    <ellipse
       cy="169.52222"
       cx="130.53835"
       id="circle1199"
       style="opacity:1;fill:#ffffff;fill-opacity:1;fill-rule:nonzero;stroke:none;stroke-width:13.73553276;stroke-miterlimit:4;stroke-dasharray:none;stroke-opacity:1;paint-order:normal"
       rx="92.928627"
       ry="90.662651" />
    <ellipse
       style="opacity:1;fill:#000000;fill-opacity:1;fill-rule:nonzero;stroke:#ffffff;stroke-width:6.84095478;stroke-miterlimit:4;stroke-dasharray:none;stroke-opacity:1;paint-order:normal"
       id="path1185"
       cx="130.53835"
       cy="167.49985"
       rx="92.928627"
       ry="90.662651" />
    <g
       style="clip-rule:evenodd;fill:#ffffff;fill-opacity:1;fill-rule:evenodd;stroke-linejoin:round;stroke-miterlimit:2"
       id="g1265"
       transform="matrix(2.4170273,0,0,2.5557268,70.439041,106.28282)">
      <g
         id="g1229"
         transform="matrix(0.721351,0,0,0.811444,6.54562,5.10326)"
         style="fill:#ffffff;fill-opacity:1">
        <path
           id="path1227"
           d="m 27.411,7.92 c 0,-0.84 -0.766,-1.521 -1.711,-1.521 0,0 -10e-4,0 -0.002,0 -0.944,0 -1.71,0.681 -1.71,1.521 0,6.129 0,28.987 0,35.117 0,0.84 0.766,1.521 1.71,1.521 0.001,0 0.002,0 0.002,0 0.945,0 1.711,-0.681 1.711,-1.521 0,-6.13 0,-28.988 0,-35.117 z"
           style="fill:#ffffff;fill-opacity:1" />
      </g>
      <g
         id="g1233"
         transform="matrix(5.99295e-4,-0.721351,0.258566,2.14816e-4,18.4279,54.7844)"
         style="fill:#ffffff;fill-opacity:1">
        <path
           id="path1231"
           d="m 27.411,11.171 c 0,-2.635 -0.766,-4.772 -1.711,-4.772 0,0 -10e-4,0 -0.002,0 -0.944,0 -1.71,2.137 -1.71,4.772 0,7.331 0,21.283 0,28.614 0,2.636 0.766,4.773 1.71,4.773 0.001,0 0.002,0 0.002,0 0.945,0 1.711,-2.137 1.711,-4.773 0,-7.331 0,-21.283 0,-28.614 z"
           style="fill:#ffffff;fill-opacity:1" />
      </g>
      <g
         id="g1237"
         transform="matrix(5.99295e-4,-0.721351,0.579332,4.81307e-4,10.2753,38.6396)"
         style="fill:#ffffff;fill-opacity:1">
        <path
           id="path1235"
           d="m 27.411,8.529 c 0,-1.177 -0.766,-2.13 -1.711,-2.13 0,0 -10e-4,0 -0.002,0 -0.944,0 -1.71,0.953 -1.71,2.13 0,6.687 0,27.212 0,33.899 0,1.176 0.766,2.13 1.71,2.13 0.001,0 0.002,0 0.002,0 0.945,0 1.711,-0.954 1.711,-2.13 0,-6.687 0,-27.212 0,-33.899 z"
           style="fill:#ffffff;fill-opacity:1" />
      </g>
      <g
         id="g1241"
         transform="matrix(0.509521,-0.510622,0.393855,0.393005,1.94156,23.2426)"
         style="fill:#ffffff;fill-opacity:1">
        <path
           id="path1239"
           d="m 27.411,8.617 c 0,-1.225 -0.766,-2.218 -1.711,-2.218 0,0 -10e-4,0 -0.002,0 -0.944,0 -1.71,0.993 -1.71,2.218 0,6.747 0,26.976 0,33.723 0,1.225 0.766,2.218 1.71,2.218 0.001,0 0.002,0 0.002,0 0.945,0 1.711,-0.993 1.711,-2.218 0,-6.747 0,-26.976 0,-33.723 z"
           style="fill:#ffffff;fill-opacity:1" />
      </g>
      <g
         id="g1245"
         transform="matrix(-0.51096,-0.509182,0.392744,-0.394115,28.1955,43.2602)"
         style="fill:#ffffff;fill-opacity:1">
        <path
           id="path1243"
           d="m 27.411,8.617 c 0,-1.225 -0.766,-2.218 -1.711,-2.218 0,0 -10e-4,0 -0.002,0 -0.944,0 -1.71,0.993 -1.71,2.218 0,6.747 0,26.976 0,33.723 0,1.225 0.766,2.218 1.71,2.218 0.001,0 0.002,0 0.002,0 0.945,0 1.711,-0.993 1.711,-2.218 0,-6.747 0,-26.976 0,-33.723 z"
           style="fill:#ffffff;fill-opacity:1" />
      </g>
    </g>
    <ellipse
       style="opacity:1;fill:none;fill-opacity:1;fill-rule:nonzero;stroke:#f0827d;stroke-width:3.92990994;stroke-miterlimit:4;stroke-dasharray:none;stroke-opacity:1;paint-order:normal"
       id="path1267"
       cx="130.57381"
       cy="168.1187"
       rx="81.878975"
       ry="79.882423" />
  </g>
  <style
     id="style1053"
     type="text/css">
	.st0{fill:#043BEA;}
</style>
</svg>
