<?xml version="1.0" encoding="UTF-8" standalone="no"?>
<svg
   xmlns:dc="http://purl.org/dc/elements/1.1/"
   xmlns:cc="http://creativecommons.org/ns#"
   xmlns:rdf="http://www.w3.org/1999/02/22-rdf-syntax-ns#"
   xmlns:svg="http://www.w3.org/2000/svg"
   xmlns="http://www.w3.org/2000/svg"
   xmlns:sodipodi="http://sodipodi.sourceforge.net/DTD/sodipodi-0.dtd"
   xmlns:inkscape="http://www.inkscape.org/namespaces/inkscape"
   width="500"
   height="500"
   viewBox="0 0 500 500"
   version="1.1"
   id="svg210"
   sodipodi:docname="mim-coin-symbol.svg"
   style="fill:none"
   inkscape:version="0.92.5 (2060ec1f9f, 2020-04-08)">
  <metadata
     id="metadata216">
    <rdf:RDF>
      <cc:Work
         rdf:about="">
        <dc:format>image/svg+xml</dc:format>
        <dc:type
           rdf:resource="http://purl.org/dc/dcmitype/StillImage" />
        <dc:title></dc:title>
      </cc:Work>
    </rdf:RDF>
  </metadata>
  <defs
     id="defs214" />
  <sodipodi:namedview
     pagecolor="#ffffff"
     bordercolor="#666666"
     borderopacity="1"
     objecttolerance="10"
     gridtolerance="10"
     guidetolerance="10"
     inkscape:pageopacity="0"
     inkscape:pageshadow="2"
     inkscape:window-width="1920"
     inkscape:window-height="1023"
     id="namedview212"
     showgrid="false"
     fit-margin-top="0"
     fit-margin-left="0"
     fit-margin-right="0"
     fit-margin-bottom="0"
     inkscape:zoom="1.7166667"
     inkscape:cx="240"
     inkscape:cy="240"
     inkscape:window-x="0"
     inkscape:window-y="0"
     inkscape:window-maximized="1"
     inkscape:current-layer="svg210" />
  <g
     id="g1127"
     transform="scale(8.3333333)">
    <rect
       id="rect2"
       transform="rotate(-180,15,25)"
       height="5"
       width="5"
       y="25"
       x="15"
       style="fill:#fed955" />
    <rect
       id="rect4"
       transform="rotate(-180,15,35)"
       height="5"
       width="5"
       y="35"
       x="15"
       style="fill:#fed955" />
    <rect
       id="rect6"
       transform="rotate(-180,15,30)"
       height="5"
       width="5"
       y="30"
       x="15"
       style="fill:#fed955" />
    <rect
       id="rect8"
       transform="rotate(-180,15,40)"
       height="5"
       width="5"
       y="40"
       x="15"
       style="fill:#fed955" />
    <rect
       id="rect10"
       transform="rotate(-180,35,15)"
       height="5"
       width="5"
       y="15"
       x="35"
       style="fill:#fed955" />
    <rect
       id="rect12"
       transform="matrix(-1,8.74226e-8,8.7423e-8,1,35,45)"
       height="5"
       width="5"
       x="0"
       y="0"
       style="fill:#fed955" />
    <rect
       id="rect14"
       transform="rotate(-180,40,15)"
       height="5"
       width="5"
       y="15"
       x="40"
       style="fill:#fed955" />
    <rect
       id="rect16"
       transform="rotate(-180,45,15)"
       height="5"
       width="5"
       y="15"
       x="45"
       style="fill:#9695f8" />
    <rect
       id="rect18"
       transform="matrix(1,-8.74226e-8,-8.7423e-8,-1,15,15)"
       height="5"
       width="5"
       x="0"
       y="0"
       style="fill:#9695f8" />
    <rect
       id="rect20"
       transform="matrix(1,-8.74226e-8,-8.7423e-8,-1,45,45)"
       height="5"
       width="5"
       x="0"
       y="0"
       style="fill:#9695f8" />
    <rect
       id="rect22"
       transform="rotate(-180,15,45)"
       height="5"
       width="5"
       y="45"
       x="15"
       style="fill:#9695f8" />
    <rect
       id="rect24"
       transform="rotate(-180,40,10)"
       height="5"
       width="5"
       y="10"
       x="40"
       style="fill:#9695f8" />
    <rect
       id="rect26"
       transform="rotate(-180,40,5)"
       height="5"
       width="5"
       y="5"
       x="40"
       style="fill:#5552fd" />
    <rect
       id="rect28"
       transform="rotate(-180,40,60)"
       height="5"
       width="5"
       y="60"
       x="40"
       style="fill:#5552fd" />
    <rect
       id="rect30"
       transform="rotate(-180,40,55)"
       height="5"
       width="5"
       y="55"
       x="40"
       style="fill:#9695f8" />
    <rect
       id="rect32"
       transform="rotate(-180,30,10)"
       height="5"
       width="5"
       y="10"
       x="30"
       style="fill:#9695f8" />
    <rect
       id="rect34"
       transform="rotate(-180,30,5)"
       height="5"
       width="5"
       y="5"
       x="30"
       style="fill:#5552fd" />
    <rect
       id="rect36"
       transform="rotate(-180,30,60)"
       height="5"
       width="5"
       y="60"
       x="30"
       style="fill:#5552fd" />
    <rect
       id="rect38"
       transform="rotate(-180,30,55)"
       height="5"
       width="5"
       y="55"
       x="30"
       style="fill:#9695f8" />
    <rect
       id="rect40"
       transform="rotate(-180,35,10)"
       height="5"
       width="5"
       y="10"
       x="35"
       style="fill:#9695f8" />
    <rect
       id="rect42"
       transform="rotate(-180,35,5)"
       height="5"
       width="5"
       y="5"
       x="35"
       style="fill:#5552fd" />
    <rect
       id="rect44"
       transform="rotate(-180,35,60)"
       height="5"
       width="5"
       y="60"
       x="35"
       style="fill:#5552fd" />
    <rect
       id="rect46"
       transform="rotate(-180,35,55)"
       height="5"
       width="5"
       y="55"
       x="35"
       style="fill:#9695f8" />
    <rect
       id="rect48"
       transform="rotate(-180,25,10)"
       height="5"
       width="5"
       y="10"
       x="25"
       style="fill:#9695f8" />
    <rect
       id="rect50"
       transform="rotate(-180,25,5)"
       height="5"
       width="5"
       y="5"
       x="25"
       style="fill:#5552fd" />
    <rect
       id="rect52"
       transform="rotate(-180,25,60)"
       height="5"
       width="5"
       y="60"
       x="25"
       style="fill:#5552fd" />
    <rect
       id="rect54"
       transform="rotate(-180,25,55)"
       height="5"
       width="5"
       y="55"
       x="25"
       style="fill:#9695f8" />
    <rect
       id="rect56"
       transform="rotate(-180,50,20)"
       height="5"
       width="5"
       y="20"
       x="50"
       style="fill:#9695f8" />
    <rect
       id="rect58"
       transform="matrix(1,-8.74226e-8,-8.7423e-8,-1,10,20)"
       height="5"
       width="5"
       x="0"
       y="0"
       style="fill:#9695f8" />
    <rect
       id="rect60"
       transform="matrix(1,-8.74226e-8,-8.7423e-8,-1,40,50)"
       height="5"
       width="5"
       x="0"
       y="0"
       style="fill:#9695f8" />
    <rect
       id="rect62"
       transform="rotate(-180,20,50)"
       height="5"
       width="5"
       y="50"
       x="20"
       style="fill:#9695f8" />
    <rect
       id="rect64"
       transform="rotate(-180,55,25)"
       height="5"
       width="5"
       y="25"
       x="55"
       style="fill:#9695f8" />
    <rect
       id="rect66"
       transform="rotate(-180,10,25)"
       height="5"
       width="5"
       y="25"
       x="10"
       style="fill:#9695f8" />
    <rect
       id="rect68"
       transform="rotate(-180,5,25)"
       height="5"
       width="5"
       y="25"
       x="5"
       style="fill:#5552fd" />
    <rect
       id="rect70"
       transform="rotate(-180,10,20)"
       height="5"
       width="5"
       y="20"
       x="10"
       style="fill:#5552fd" />
    <rect
       id="rect72"
       transform="matrix(1,-8.74226e-8,-8.7423e-8,-1,50,20)"
       height="5"
       width="5"
       x="0"
       y="0"
       style="fill:#5552fd" />
    <rect
       id="rect74"
       transform="rotate(-180,45,55)"
       height="5"
       width="5"
       y="55"
       x="45"
       style="fill:#5552fd" />
    <rect
       id="rect76"
       transform="rotate(-90,5,45)"
       height="5"
       width="5"
       y="45"
       x="5"
       style="fill:#5552fd" />
    <rect
       id="rect78"
       transform="rotate(-180,15,15)"
       height="5"
       width="5"
       y="15"
       x="15"
       style="fill:#5552fd" />
    <rect
       id="rect80"
       transform="matrix(1,-8.74226e-8,-8.7423e-8,-1,45,15)"
       height="5"
       width="5"
       x="0"
       y="0"
       style="fill:#5552fd" />
    <rect
       id="rect82"
       transform="rotate(-180,50,50)"
       height="5"
       width="5"
       y="50"
       x="50"
       style="fill:#5552fd" />
    <rect
       id="rect84"
       transform="rotate(-90,10,50)"
       height="5"
       width="5"
       y="50"
       x="10"
       style="fill:#5552fd" />
    <rect
       id="rect86"
       transform="rotate(-180,20,10)"
       height="5"
       width="5"
       y="10"
       x="20"
       style="fill:#5552fd" />
    <rect
       id="rect88"
       transform="matrix(1,-8.74226e-8,-8.7423e-8,-1,40,10)"
       height="5"
       width="5"
       x="0"
       y="0"
       style="fill:#5552fd" />
    <rect
       id="rect90"
       transform="rotate(-180,55,45)"
       height="5"
       width="5"
       y="45"
       x="55"
       style="fill:#5552fd" />
    <rect
       id="rect92"
       transform="rotate(-90,15,55)"
       height="5"
       width="5"
       y="55"
       x="15"
       style="fill:#5552fd" />
    <rect
       id="rect94"
       transform="rotate(-180,60,25)"
       height="5"
       width="5"
       y="25"
       x="60"
       style="fill:#5552fd" />
    <rect
       id="rect96"
       transform="rotate(-180,55,30)"
       height="5"
       width="5"
       y="30"
       x="55"
       style="fill:#9695f8" />
    <rect
       id="rect98"
       transform="rotate(-180,10,30)"
       height="5"
       width="5"
       y="30"
       x="10"
       style="fill:#9695f8" />
    <rect
       id="rect100"
       transform="rotate(-180,5,30)"
       height="5"
       width="5"
       y="30"
       x="5"
       style="fill:#5552fd" />
    <rect
       id="rect102"
       transform="rotate(-180,60,30)"
       height="5"
       width="5"
       y="30"
       x="60"
       style="fill:#5552fd" />
    <rect
       id="rect104"
       transform="rotate(-180,55,35)"
       height="5"
       width="5"
       y="35"
       x="55"
       style="fill:#9695f8" />
    <rect
       id="rect106"
       transform="rotate(-180,10,35)"
       height="5"
       width="5"
       y="35"
       x="10"
       style="fill:#9695f8" />
    <rect
       id="rect108"
       transform="rotate(-180,5,35)"
       height="5"
       width="5"
       y="35"
       x="5"
       style="fill:#5552fd" />
    <rect
       id="rect110"
       transform="rotate(-180,60,35)"
       height="5"
       width="5"
       y="35"
       x="60"
       style="fill:#5552fd" />
    <rect
       id="rect112"
       transform="rotate(-180,55,40)"
       height="5"
       width="5"
       y="40"
       x="55"
       style="fill:#9695f8" />
    <rect
       id="rect114"
       transform="rotate(-180,10,40)"
       height="5"
       width="5"
       y="40"
       x="10"
       style="fill:#9695f8" />
    <rect
       id="rect116"
       transform="rotate(-180,5,40)"
       height="5"
       width="5"
       y="40"
       x="5"
       style="fill:#5552fd" />
    <rect
       id="rect118"
       transform="rotate(-180,60,40)"
       height="5"
       width="5"
       y="40"
       x="60"
       style="fill:#5552fd" />
    <rect
       id="rect120"
       transform="matrix(-1,8.74226e-8,8.7423e-8,1,40,45)"
       height="5"
       width="5"
       x="0"
       y="0"
       style="fill:#fed955" />
    <rect
       id="rect122"
       transform="rotate(-180,35,25)"
       height="5"
       width="5"
       y="25"
       x="35"
       style="fill:#fed955" />
    <rect
       id="rect124"
       transform="rotate(-180,35,35)"
       height="5"
       width="5"
       y="35"
       x="35"
       style="fill:#fed955" />
    <rect
       id="rect126"
       transform="rotate(-180,35,40)"
       height="5"
       width="5"
       y="40"
       x="35"
       style="fill:#fed955" />
    <rect
       id="rect128"
       transform="rotate(-180,35,20)"
       height="5"
       width="5"
       y="20"
       x="35"
       style="fill:#fed955" />
    <rect
       id="rect130"
       transform="matrix(-1,8.74226e-8,8.74229e-8,1,35,40)"
       height="5"
       width="5"
       x="0"
       y="0"
       style="fill:#fed955" />
    <rect
       id="rect132"
       transform="rotate(-180,25,35)"
       height="5"
       width="5"
       y="35"
       x="25"
       style="fill:#fed955" />
    <rect
       id="rect134"
       transform="rotate(-180,25,30)"
       height="5"
       width="5"
       y="30"
       x="25"
       style="fill:#fed955" />
    <rect
       id="rect136"
       transform="rotate(-180,25,40)"
       height="5"
       width="5"
       y="40"
       x="25"
       style="fill:#fed955" />
    <rect
       id="rect138"
       transform="rotate(-180,25,20)"
       height="5"
       width="5"
       y="20"
       x="25"
       style="fill:#fed955" />
    <rect
       id="rect140"
       transform="matrix(-1,8.74226e-8,8.74229e-8,1,25,40)"
       height="5"
       width="5"
       x="0"
       y="0"
       style="fill:#fed955" />
    <rect
       id="rect142"
       transform="rotate(-180,40,35)"
       height="5"
       width="5"
       y="35"
       x="40"
       style="fill:#fed955" />
    <rect
       id="rect144"
       transform="rotate(-180,40,30)"
       height="5"
       width="5"
       y="30"
       x="40"
       style="fill:#fed955" />
    <rect
       id="rect146"
       transform="rotate(-180,40,40)"
       height="5"
       width="5"
       y="40"
       x="40"
       style="fill:#fed955" />
    <rect
       id="rect148"
       transform="rotate(-180,40,20)"
       height="5"
       width="5"
       y="20"
       x="40"
       style="fill:#fed955" />
    <rect
       id="rect150"
       transform="matrix(-1,8.74226e-8,8.74229e-8,1,40,40)"
       height="5"
       width="5"
       x="0"
       y="0"
       style="fill:#fed955" />
    <rect
       id="rect152"
       transform="rotate(-180,30,15)"
       height="5"
       width="5"
       y="15"
       x="30"
       style="fill:#fed955" />
    <rect
       id="rect154"
       transform="matrix(-1,8.74226e-8,8.7423e-8,1,30,45)"
       height="5"
       width="5"
       x="0"
       y="0"
       style="fill:#fed955" />
    <rect
       id="rect156"
       transform="rotate(-180,25,15)"
       height="5"
       width="5"
       y="15"
       x="25"
       style="fill:#fed955" />
    <rect
       id="rect158"
       transform="matrix(-1,8.74226e-8,8.7423e-8,1,25,45)"
       height="5"
       width="5"
       x="0"
       y="0"
       style="fill:#fed955" />
    <rect
       id="rect160"
       transform="rotate(-180,30,25)"
       height="5"
       width="5"
       y="25"
       x="30"
       style="fill:#fed955" />
    <rect
       id="rect162"
       transform="rotate(-180,30,35)"
       height="5"
       width="5"
       y="35"
       x="30"
       style="fill:#fed955" />
    <rect
       id="rect164"
       transform="rotate(-180,25,25)"
       height="5"
       width="5"
       y="25"
       x="25"
       style="fill:#5552fd" />
    <rect
       id="rect166"
       transform="rotate(-180,35,30)"
       height="5"
       width="5"
       y="30"
       x="35"
       style="fill:#5552fd" />
    <rect
       id="rect168"
       transform="rotate(-180,45,25)"
       height="5"
       width="5"
       y="25"
       x="45"
       style="fill:#5552fd" />
    <rect
       id="rect170"
       transform="rotate(-180,45,35)"
       height="5"
       width="5"
       y="35"
       x="45"
       style="fill:#5552fd" />
    <rect
       id="rect172"
       transform="rotate(-180,45,30)"
       height="5"
       width="5"
       y="30"
       x="45"
       style="fill:#5552fd" />
    <rect
       id="rect174"
       transform="rotate(-180,45,40)"
       height="5"
       width="5"
       y="40"
       x="45"
       style="fill:#5552fd" />
    <rect
       id="rect176"
       transform="rotate(-180,45,20)"
       height="5"
       width="5"
       y="20"
       x="45"
       style="fill:#5552fd" />
    <rect
       id="rect178"
       transform="matrix(-1,8.74226e-8,8.74229e-8,1,45,40)"
       height="5"
       width="5"
       x="0"
       y="0"
       style="fill:#5552fd" />
    <rect
       id="rect180"
       transform="rotate(-180,20,25)"
       height="5"
       width="5"
       y="25"
       x="20"
       style="fill:#5552fd" />
    <rect
       id="rect182"
       transform="rotate(-180,20,35)"
       height="5"
       width="5"
       y="35"
       x="20"
       style="fill:#5552fd" />
    <rect
       id="rect184"
       transform="rotate(-180,20,30)"
       height="5"
       width="5"
       y="30"
       x="20"
       style="fill:#5552fd" />
    <rect
       id="rect186"
       transform="rotate(-180,20,40)"
       height="5"
       width="5"
       y="40"
       x="20"
       style="fill:#5552fd" />
    <rect
       id="rect188"
       transform="rotate(-180,20,20)"
       height="5"
       width="5"
       y="20"
       x="20"
       style="fill:#5552fd" />
    <rect
       id="rect190"
       transform="matrix(-1,8.74226e-8,8.74229e-8,1,20,40)"
       height="5"
       width="5"
       x="0"
       y="0"
       style="fill:#5552fd" />
    <rect
       id="rect192"
       transform="rotate(-180,40,25)"
       height="5"
       width="5"
       y="25"
       x="40"
       style="fill:#5552fd" />
    <rect
       id="rect194"
       transform="rotate(-180,30,30)"
       height="5"
       width="5"
       y="30"
       x="30"
       style="fill:#5552fd" />
    <rect
       id="rect196"
       transform="rotate(-180,30,40)"
       height="5"
       width="5"
       y="40"
       x="30"
       style="fill:#fed955" />
    <rect
       id="rect198"
       transform="rotate(-180,30,20)"
       height="5"
       width="5"
       y="20"
       x="30"
       style="fill:#fed955" />
    <rect
       id="rect200"
       transform="matrix(-1,8.74226e-8,8.74229e-8,1,30,40)"
       height="5"
       width="5"
       x="0"
       y="0"
       style="fill:#fed955" />
    <rect
       id="rect202"
       transform="rotate(-180,50,25)"
       height="5"
       width="5"
       y="25"
       x="50"
       style="fill:#fed955" />
    <rect
       id="rect204"
       transform="rotate(-180,50,35)"
       height="5"
       width="5"
       y="35"
       x="50"
       style="fill:#fed955" />
    <rect
       id="rect206"
       transform="rotate(-180,50,30)"
       height="5"
       width="5"
       y="30"
       x="50"
       style="fill:#fed955" />
    <rect
       id="rect208"
       transform="rotate(-180,50,40)"
       height="5"
       width="5"
       y="40"
       x="50"
       style="fill:#fed955" />
  </g>
</svg>
