<svg version="1.0" width="1440" height="1440" viewBox="0 0 1080 1080" xmlns="http://www.w3.org/2000/svg" xmlns:xlink="http://www.w3.org/1999/xlink" xmlns:bx="https://boxy-svg.com"><defs><linearGradient id="a" bx:pinned="true"><stop offset="0" style="stop-color:#590149"/><stop offset=".332" style="stop-color:#76024a"/><stop offset=".658" style="stop-color:#971d54"/><stop offset="1" style="stop-color:#7a356c"/></linearGradient><linearGradient id="b" gradientUnits="userSpaceOnUse" x1="5402.25" y1=".942" x2="5402.25" y2="10796.556" spreadMethod="pad" gradientTransform="matrix(.07086 -.07056 -.07924 -.07958 675.254 1436.528)" xlink:href="#a"/></defs><ellipse style="stroke:#000;fill:#fff;stroke-width:0" cx="544.431" cy="539.335" rx="459.855" ry="433.04"/><path d="M516 .6C461.5 4.2 422.6 11.1 378.2 25 186.6 85 43.8 247.2 8.6 445c-5.7 31.8-8 59.5-8 94.5 0 28.9.8 42.3 4 68 11.6 91.8 47 179.6 102.4 254 16.5 22.2 29.5 37.2 51.9 59.5 29.2 29.1 50.3 46.5 83.6 68.5 62.7 41.6 133.3 69.4 208 81.9 24.6 4.2 37.7 5.5 82.4 8.3 9.2.6 18.9 0 56.1-3.3 174-15.2 331.4-116.2 418.5-268.3 12.4-21.8 28.3-54.8 35-73.1 19.7-53.2 29.6-95.7 33.9-145.5 4.6-52.3 4.6-49 0-100.5-5.8-64.6-23.4-127-52.4-186.5-42-86-108.7-161.7-188.5-213.7-75-49-156.4-77.4-247.1-86.3C573.2 1 527.6-.2 516 .6zm267.1 179.7c22 5.7 39.7 17.4 52.9 34.9 13.7 18.1 18.2 34.7 16 58-1.3 13.5-3 19.8-7.7 29.2-11.4 22.8-27.5 37.7-49.1 45.6-24.4 8.9-51.1 9.4-73.4 1.4-3.9-1.4-14.3-6-23.2-10.1-43-20-70.4-30-93-33.8-13.6-2.3-18.9-2.7-36-2.7-21.9 0-30.1.9-47.6 5.2-18.1 4.5-25 7.3-76.6 30.8-32.3 14.8-44.8 17.9-67.2 16.9-36.9-1.7-66-20.1-80.8-51.2-6-12.7-7.8-22.5-7.1-39 .6-14.8 3-25.3 8.1-36 11.1-23.4 35.9-42.5 63.6-49 8.5-1.9 33.2-2 43.2-.1 9.8 1.9 15.6 4.1 40.8 15.9 42.1 19.6 61 26.7 82.6 31.2 29.7 6.2 63.6 5.6 91.5-1.5 23.6-6.1 31-9.1 91.9-37.7 19.7-9.3 29.4-11.5 48.5-10.8 9.5.3 15.6 1 22.6 2.8zM595.5 433.5c27 4.4 49.6 18.6 64.6 40.7 9.3 13.7 13.1 26.2 13.1 43.3-.1 20.9-3.4 33.3-13.2 49.3-17.5 28.3-46 42.8-84 42.6-21.1-.1-28.1-2.1-65-19.1-29.1-13.5-59.3-25.1-72.5-27.9-23-4.9-54.6-6.5-73.9-3.9-27.1 3.8-38.5 7.8-99.6 35.8-28.1 12.8-42.2 16.7-60.5 16.7-42.9 0-78.7-24.9-90.7-63-2-6.6-2.3-9.4-2.3-24 .1-19.6 1.4-25.7 8.5-40.5 9.9-20.6 31.7-38.5 56.5-46.6 5.9-1.9 9.8-2.3 25.3-2.7 25.8-.6 31.3.8 64.1 16.3 24 11.2 41.3 18.7 53.6 23.3 34.8 12.7 72.8 16.1 109.5 9.6 14.9-2.6 41.1-10.9 55.5-17.6 7.2-3.3 23.4-10.9 36-16.8 12.7-5.9 25.3-11.6 28-12.5 13-4.4 31.2-5.6 47-3zm187.8 256.4c28.1 7.7 49.4 24.8 62.1 49.9 8.4 16.7 9.2 46.9 1.6 65.8-13.3 33.2-37.4 51.7-75.5 57.9-11.4 1.9-19.6 1.9-31 0-12.8-2-21.1-5-44.6-15.9-32.3-14.8-63-26.8-76.9-30-18.5-4.2-27.2-5.1-51-5.1-21.6.1-24.5.3-36.3 2.8-23.1 4.9-32.9 8.6-79.2 29.9-29.5 13.6-38.6 16.9-53.4 19.4-34.7 5.7-71.9-8.1-91.8-34.1-7.2-9.3-13.8-23.1-15.7-32.7-2.2-10.6-2-28.1.3-39.3 3.7-17.7 10.6-29.9 24.3-43.1 18.1-17.3 36.7-25.6 60.2-27 14.7-.8 28.2.7 39.4 4.5 5 1.7 18.7 7.5 30.4 12.9 40.5 18.9 55.8 24.9 75 29.6 29.1 7.2 64.9 7.7 92.8 1.6 13.5-3 39.8-11.5 47.5-15.3 25-12.3 64.2-29.9 70.5-31.6 11.2-3 11.3-3 28-2.6 11.9.2 17.3.8 23.3 2.4z" style="fill:url(#b);paint-order:fill;fill-rule:nonzero"/></svg>