<?xml version="1.0" encoding="UTF-8" standalone="no"?>
<!-- Generator: Adobe Illustrator 24.0.0, SVG Export Plug-In . SVG Version: 6.00 Build 0)  -->

<svg
   xmlns:dc="http://purl.org/dc/elements/1.1/"
   xmlns:cc="http://creativecommons.org/ns#"
   xmlns:rdf="http://www.w3.org/1999/02/22-rdf-syntax-ns#"
   xmlns:svg="http://www.w3.org/2000/svg"
   xmlns="http://www.w3.org/2000/svg"
   xmlns:sodipodi="http://sodipodi.sourceforge.net/DTD/sodipodi-0.dtd"
   xmlns:inkscape="http://www.inkscape.org/namespaces/inkscape"
   version="1.1"
   id="Layer_1"
   x="0px"
   y="0px"
   viewBox="0 0 49.999998 50"
   xml:space="preserve"
   sodipodi:docname="polygon-matic-logo.svg"
   width="50"
   height="50"
   inkscape:version="0.92.5 (2060ec1f9f, 2020-04-08)"><metadata
   id="metadata13"><rdf:RDF><cc:Work
       rdf:about=""><dc:format>image/svg+xml</dc:format><dc:type
         rdf:resource="http://purl.org/dc/dcmitype/StillImage" /><dc:title></dc:title></cc:Work></rdf:RDF></metadata><defs
   id="defs11">
	
</defs><sodipodi:namedview
   pagecolor="#ffffff"
   bordercolor="#666666"
   borderopacity="1"
   objecttolerance="10"
   gridtolerance="10"
   guidetolerance="10"
   inkscape:pageopacity="0"
   inkscape:pageshadow="2"
   inkscape:window-width="1920"
   inkscape:window-height="1027"
   id="namedview9"
   showgrid="false"
   inkscape:zoom="17.04"
   inkscape:cx="25"
   inkscape:cy="25"
   inkscape:window-x="0"
   inkscape:window-y="0"
   inkscape:window-maximized="1"
   inkscape:current-layer="Layer_1" />
<style
   type="text/css"
   id="style2">
	.st0{fill:#8247E5;}
</style>

<circle
   style="fill:#8247e5;fill-opacity:1;fill-rule:nonzero;stroke:none;stroke-width:1.00157475;stroke-linecap:round;stroke-linejoin:bevel;stroke-miterlimit:4;stroke-dasharray:none;stroke-opacity:1;paint-order:stroke fill markers"
   id="path821"
   cx="25"
   cy="25"
   r="25" /><path
   style="fill:#ffffff"
   inkscape:connector-curvature="0"
   id="path4"
   d="m 35.748826,17.251643 c -0.7,-0.4 -1.6,-0.4 -2.4,0 l -5.6,3.3 -3.8,2.1 -5.5,3.3 c -0.7,0.4 -1.6,0.4 -2.4,0 l -4.3,-2.6 c -0.7,-0.4 -1.2,-1.2 -1.2,-2.1 v -5 c 0,-0.8 0.4,-1.6 1.2,-2.1 l 4.3,-2.5 c 0.7,-0.4 1.6,-0.4 2.4,0 l 4.3,2.6 c 0.7,0.4 1.2,1.2 1.2,2.1 v 3.3 l 3.8,-2.2 v -3.4 c 0,-0.8 -0.4,-1.6 -1.2,-2.1 l -8,-4.6999998 c -0.7,-0.4 -1.6,-0.4 -2.4,0 L 7.9488263,12.051643 c -0.8,0.4 -1.2,1.2 -1.2,2 v 9.4 c 0,0.8 0.4,1.6 1.2,2.1 l 8.0999997,4.7 c 0.7,0.4 1.6,0.4 2.4,0 l 5.5,-3.2 3.8,-2.2 5.5,-3.2 c 0.7,-0.4 1.6,-0.4 2.4,0 l 4.3,2.5 c 0.7,0.4 1.2,1.2 1.2,2.1 v 5 c 0,0.8 -0.4,1.6 -1.2,2.1 l -4.2,2.5 c -0.7,0.4 -1.6,0.4 -2.4,0 l -4.3,-2.5 c -0.7,-0.4 -1.2,-1.2 -1.2,-2.1 v -3.2 l -3.8,2.2 v 3.3 c 0,0.8 0.4,1.6 1.2,2.1 l 8.1,4.7 c 0.7,0.4 1.6,0.4 2.4,0 l 8.1,-4.7 c 0.7,-0.4 1.2,-1.2 1.2,-2.1 v -9.5 c 0,-0.8 -0.4,-1.6 -1.2,-2.1 z"
   class="st0" /></svg>