<?xml version="1.0" encoding="UTF-8" standalone="no"?>
<svg
   xmlns:dc="http://purl.org/dc/elements/1.1/"
   xmlns:cc="http://creativecommons.org/ns#"
   xmlns:rdf="http://www.w3.org/1999/02/22-rdf-syntax-ns#"
   xmlns:svg="http://www.w3.org/2000/svg"
   xmlns="http://www.w3.org/2000/svg"
   xmlns:sodipodi="http://sodipodi.sourceforge.net/DTD/sodipodi-0.dtd"
   xmlns:inkscape="http://www.inkscape.org/namespaces/inkscape"
   viewBox="0 0 419.99999 420.00001"
   version="1.1"
   id="svg8"
   sodipodi:docname="rvn-coin-symbol.svg"
   width="420"
   height="420"
   inkscape:version="0.92.5 (2060ec1f9f, 2020-04-08)">
  <metadata
     id="metadata14">
    <rdf:RDF>
      <cc:Work
         rdf:about="">
        <dc:format>image/svg+xml</dc:format>
        <dc:type
           rdf:resource="http://purl.org/dc/dcmitype/StillImage" />
        <dc:title></dc:title>
      </cc:Work>
    </rdf:RDF>
  </metadata>
  <defs
     id="defs12" />
  <sodipodi:namedview
     pagecolor="#ffffff"
     bordercolor="#666666"
     borderopacity="1"
     objecttolerance="10"
     gridtolerance="10"
     guidetolerance="10"
     inkscape:pageopacity="0"
     inkscape:pageshadow="2"
     inkscape:window-width="1920"
     inkscape:window-height="1027"
     id="namedview10"
     showgrid="false"
     inkscape:zoom="0.69657618"
     inkscape:cx="104.08559"
     inkscape:cy="169.39999"
     inkscape:window-x="0"
     inkscape:window-y="0"
     inkscape:window-maximized="1"
     inkscape:current-layer="svg8" />
  <circle
     style="fill:#cccccc;fill-opacity:1;fill-rule:nonzero;stroke:#000000;stroke-width:12.90763187;stroke-linecap:round;stroke-linejoin:bevel;stroke-miterlimit:4;stroke-dasharray:none;stroke-opacity:1;paint-order:stroke fill markers"
     id="path821"
     cx="210"
     cy="210"
     r="203.54619" />
  <g
     id="g826"
     transform="translate(100.49152,9.803392)">
    <path
       style="fill:#384182"
       inkscape:connector-curvature="0"
       id="path2"
       d="m 89,306.10001 -89,63.9 56.5,-260 z m 1.8,-0.6 54.2,0.7 -86.4,-195.2 z m 59.3,-4.3 41.5,-153.8 -15.7,-19.2 z M 130.1,60.100012 61.8,106.10001 161.6,73.800012 Z m -8.6,0 -42.4,1.4 -6.2,17.7 z" />
    <path
       style="fill:#f79534"
       inkscape:connector-curvature="0"
       id="path4"
       d="m 172.9,122.30001 -109.3,-15 98.5,-30.999998 z M 147,64.500012 l 6,-16.3 -31.5,-13.7 z m 9.1,-17.9 7.1,25.6 42,-11.1 z" />
    <path
       style="fill:#f0513a"
       inkscape:connector-curvature="0"
       id="path6"
       d="m 147.4,305.20001 -87.6,-196 114.2,16 z m -20.6,-245.099998 -54,21.1 -13,23.999998 z m -33.5,-16 -13.5,14.9 44.8,-1.1 z m 23.6,-11.6 -21.4,9.9 48.8,21.5 z m 24.4,-1.3 h -23 l 35.6,13.8 z m 13.3,18.3 -5.5,16.4 11,5.3 z" />
  </g>
</svg>
