<?xml version="1.0" encoding="UTF-8" standalone="no"?>
<!-- Generator: Adobe Illustrator 24.0.0, SVG Export Plug-In . SVG Version: 6.00 Build 0)  -->

<svg
   xmlns:dc="http://purl.org/dc/elements/1.1/"
   xmlns:cc="http://creativecommons.org/ns#"
   xmlns:rdf="http://www.w3.org/1999/02/22-rdf-syntax-ns#"
   xmlns:svg="http://www.w3.org/2000/svg"
   xmlns="http://www.w3.org/2000/svg"
   xmlns:sodipodi="http://sodipodi.sourceforge.net/DTD/sodipodi-0.dtd"
   xmlns:inkscape="http://www.inkscape.org/namespaces/inkscape"
   version="1.1"
   id="Layer_1"
   x="0px"
   y="0px"
   viewBox="0 0 599.99998 599.99998"
   xml:space="preserve"
   sodipodi:docname="solana-sol-logo.svg"
   width="600"
   height="600"
   inkscape:version="0.92.5 (2060ec1f9f, 2020-04-08)"><metadata
   id="metadata30"><rdf:RDF><cc:Work
       rdf:about=""><dc:format>image/svg+xml</dc:format><dc:type
         rdf:resource="http://purl.org/dc/dcmitype/StillImage" /><dc:title></dc:title></cc:Work></rdf:RDF></metadata><defs
   id="defs28" /><sodipodi:namedview
   pagecolor="#ffffff"
   bordercolor="#666666"
   borderopacity="1"
   objecttolerance="10"
   gridtolerance="10"
   guidetolerance="10"
   inkscape:pageopacity="0"
   inkscape:pageshadow="2"
   inkscape:window-width="1920"
   inkscape:window-height="1055"
   id="namedview26"
   showgrid="false"
   inkscape:zoom="0.63364343"
   inkscape:cx="198.85001"
   inkscape:cy="155.85001"
   inkscape:window-x="1920"
   inkscape:window-y="0"
   inkscape:window-maximized="1"
   inkscape:current-layer="Layer_1" />
<style
   type="text/css"
   id="style2">
	.st0{fill:url(#SVGID_1_);}
	.st1{fill:url(#SVGID_2_);}
	.st2{fill:url(#SVGID_3_);}
</style>
<linearGradient
   id="SVGID_1_"
   gradientUnits="userSpaceOnUse"
   x1="360.87909"
   y1="351.45529"
   x2="141.213"
   y2="-69.293602"
   gradientTransform="matrix(1,0,0,-1,0,502.29999)">
	<stop
   offset="0"
   style="stop-color:#00FFA3"
   id="stop4" />
	<stop
   offset="1"
   style="stop-color:#DC1FFF"
   id="stop6" />
</linearGradient>

<linearGradient
   id="SVGID_2_"
   gradientUnits="userSpaceOnUse"
   x1="264.8291"
   y1="401.60141"
   x2="45.162998"
   y2="-19.147499"
   gradientTransform="matrix(1,0,0,-1,0,502.29999)">
	<stop
   offset="0"
   style="stop-color:#00FFA3"
   id="stop11" />
	<stop
   offset="1"
   style="stop-color:#DC1FFF"
   id="stop13" />
</linearGradient>

<linearGradient
   id="SVGID_3_"
   gradientUnits="userSpaceOnUse"
   x1="312.5484"
   y1="376.68799"
   x2="92.882202"
   y2="-44.061001"
   gradientTransform="matrix(1,0,0,-1,0,502.29999)">
	<stop
   offset="0"
   style="stop-color:#00FFA3"
   id="stop18" />
	<stop
   offset="1"
   style="stop-color:#DC1FFF"
   id="stop20" />
</linearGradient>
<circle
   style="fill:#000000;fill-opacity:1;fill-rule:nonzero;stroke:none;stroke-width:0.99108273;stroke-linecap:round;stroke-linejoin:bevel;stroke-miterlimit:4;stroke-dasharray:none;stroke-opacity:1;paint-order:stroke fill markers"
   id="path845"
   cx="300"
   cy="300"
   r="300" /><g
   id="g843"
   transform="translate(101.00318,-43.613894)"><path
     style="fill:url(#SVGID_1_)"
     inkscape:connector-curvature="0"
     id="path9"
     d="m 64.6,426.19999 c 2.4,-2.4 5.7,-3.8 9.2,-3.8 h 317.4 c 5.8,0 8.7,7 4.6,11.1 l -62.7,62.7 c -2.4,2.4 -5.7,3.8 -9.2,3.8 H 6.5 c -5.8,0 -8.7,-7 -4.6,-11.1 z"
     class="st0" /><path
     style="fill:url(#SVGID_2_)"
     inkscape:connector-curvature="0"
     id="path16"
     d="m 64.6,192.09999 c 2.5,-2.4 5.8,-3.8 9.2,-3.8 h 317.4 c 5.8,0 8.7,7 4.6,11.1 l -62.7,62.7 c -2.4,2.4 -5.7,3.8 -9.2,3.8 H 6.5 c -5.8,0 -8.7,-7 -4.6,-11.1 z"
     class="st1" /><path
     style="fill:url(#SVGID_3_)"
     inkscape:connector-curvature="0"
     id="path23"
     d="m 333.1,308.39999 c -2.4,-2.4 -5.7,-3.8 -9.2,-3.8 H 6.5 c -5.8,0 -8.7,7 -4.6,11.1 l 62.7,62.7 c 2.4,2.4 5.7,3.8 9.2,3.8 h 317.4 c 5.8,0 8.7,-7 4.6,-11.1 z"
     class="st2" /></g>
</svg>