<?xml version="1.0" encoding="UTF-8" standalone="no"?>
<svg
   xmlns:dc="http://purl.org/dc/elements/1.1/"
   xmlns:cc="http://creativecommons.org/ns#"
   xmlns:rdf="http://www.w3.org/1999/02/22-rdf-syntax-ns#"
   xmlns:svg="http://www.w3.org/2000/svg"
   xmlns="http://www.w3.org/2000/svg"
   xmlns:sodipodi="http://sodipodi.sourceforge.net/DTD/sodipodi-0.dtd"
   xmlns:inkscape="http://www.inkscape.org/namespaces/inkscape"
   viewBox="0 0 325 325"
   version="1.1"
   id="svg10"
   sodipodi:docname="stellar-xlm-logo.svg"
   width="325"
   height="325"
   inkscape:version="0.92.5 (2060ec1f9f, 2020-04-08)">
  <metadata
     id="metadata16">
    <rdf:RDF>
      <cc:Work
         rdf:about="">
        <dc:format>image/svg+xml</dc:format>
        <dc:type
           rdf:resource="http://purl.org/dc/dcmitype/StillImage" />
        <dc:title>Asset 1</dc:title>
      </cc:Work>
    </rdf:RDF>
  </metadata>
  <defs
     id="defs14" />
  <sodipodi:namedview
     pagecolor="#ffffff"
     bordercolor="#666666"
     borderopacity="1"
     objecttolerance="10"
     gridtolerance="10"
     guidetolerance="10"
     inkscape:pageopacity="0"
     inkscape:pageshadow="2"
     inkscape:window-width="1920"
     inkscape:window-height="1027"
     id="namedview12"
     showgrid="false"
     showguides="true"
     inkscape:guide-bbox="true"
     inkscape:zoom="2.6215385"
     inkscape:cx="162.5"
     inkscape:cy="162.5"
     inkscape:window-x="0"
     inkscape:window-y="0"
     inkscape:window-maximized="1"
     inkscape:current-layer="svg10">
    <sodipodi:guide
       position="164.78873,219.33685"
       orientation="1,0"
       id="guide828"
       inkscape:locked="false" />
    <sodipodi:guide
       position="214.75939,165.17019"
       orientation="0,1"
       id="guide830"
       inkscape:locked="false" />
  </sodipodi:namedview>
  <title
     id="title2">Asset 1</title>
  <circle
     style="fill:#000000;fill-opacity:1;fill-rule:nonzero;stroke:none;stroke-width:0.96578342;stroke-linecap:round;stroke-linejoin:bevel;stroke-miterlimit:4;stroke-dasharray:none;stroke-opacity:1;paint-order:stroke fill markers"
     id="path18"
     cx="162.5"
     cy="162.5"
     r="162.5" />
  <g
     id="Layer_2"
     data-name="Layer 2"
     style="fill:#ffffff"
     transform="translate(46.814525,59.757301)">
    <g
       id="Layer_1-2"
       data-name="Layer 1"
       style="fill:#ffffff">
      <path
         d="m 203,26.16 -28.46,14.5 -137.43,70 A 82.49,82.49 0 0 1 36.41,99.97 81.87,81.87 0 0 1 158.2,28.6 l 16.29,-8.3 2.43,-1.24 A 100,100 0 0 0 18.18,100 q 0,3.82 0.29,7.61 A 18.19,18.19 0 0 1 8.59,125.19 L 0,129.57 V 150 l 25.29,-12.89 v 0 l 8.19,-4.18 8.07,-4.11 v 0 L 186.43,55 202.71,46.71 236.36,29.56 V 9.14 Z"
         id="path4"
         style="fill:#ffffff"
         inkscape:connector-curvature="0" />
      <path
         d="M 236.36,50 49.78,145 33.5,153.31 0,170.38 v 20.41 L 33.27,173.84 61.73,159.34 199.3,89.24 A 83.45,83.45 0 0 1 200,100 81.87,81.87 0 0 1 78.09,171.36 l -1,0.53 -17.66,9 A 100,100 0 0 0 218.18,100 c 0,-2.57 -0.1,-5.14 -0.29,-7.68 a 18.2,18.2 0 0 1 9.87,-17.58 l 8.6,-4.38 z"
         id="path6"
         style="fill:#ffffff"
         inkscape:connector-curvature="0" />
    </g>
  </g>
</svg>
