<?xml version="1.0" encoding="UTF-8" standalone="no"?>
<svg
   xmlns:dc="http://purl.org/dc/elements/1.1/"
   xmlns:cc="http://creativecommons.org/ns#"
   xmlns:rdf="http://www.w3.org/1999/02/22-rdf-syntax-ns#"
   xmlns:svg="http://www.w3.org/2000/svg"
   xmlns="http://www.w3.org/2000/svg"
   xmlns:sodipodi="http://sodipodi.sourceforge.net/DTD/sodipodi-0.dtd"
   xmlns:inkscape="http://www.inkscape.org/namespaces/inkscape"
   viewBox="0 0 356.4 400"
   width="500"
   height="500"
   version="1.1"
   id="svg10"
   sodipodi:docname="storj-coin-symbol.svg"
   inkscape:version="0.92.5 (2060ec1f9f, 2020-04-08)">
  <metadata
     id="metadata16">
    <rdf:RDF>
      <cc:Work
         rdf:about="">
        <dc:format>image/svg+xml</dc:format>
        <dc:type
           rdf:resource="http://purl.org/dc/dcmitype/StillImage" />
        <dc:title></dc:title>
      </cc:Work>
    </rdf:RDF>
  </metadata>
  <defs
     id="defs14" />
  <sodipodi:namedview
     pagecolor="#ffffff"
     bordercolor="#666666"
     borderopacity="1"
     objecttolerance="10"
     gridtolerance="10"
     guidetolerance="10"
     inkscape:pageopacity="0"
     inkscape:pageshadow="2"
     inkscape:window-width="1920"
     inkscape:window-height="1055"
     id="namedview12"
     showgrid="false"
     inkscape:zoom="1.7119876"
     inkscape:cx="222.92529"
     inkscape:cy="250.00182"
     inkscape:window-x="1920"
     inkscape:window-y="0"
     inkscape:window-maximized="1"
     inkscape:current-layer="svg10"
     fit-margin-top="0"
     fit-margin-left="0"
     fit-margin-right="0"
     fit-margin-bottom="0" />
  <g
     id="g1962"
     transform="matrix(0.2,0,0,0.2,0.043968,-0.00290527)">
    <g
       style="fill:#ffffff"
       id="g970">
      <ellipse
         style="fill:#ffffff;fill-opacity:1;fill-rule:nonzero;stroke:none;stroke-width:0.84237641;stroke-linecap:round;stroke-linejoin:bevel;stroke-miterlimit:4;stroke-dasharray:none;stroke-opacity:1;paint-order:stroke fill markers"
         id="path823"
         cx="893.34747"
         cy="177.23004"
         rx="147.88733"
         ry="142.01877" />
      <ellipse
         style="fill:#ffffff;fill-opacity:1;fill-rule:nonzero;stroke:none;stroke-width:0.84237641;stroke-linecap:round;stroke-linejoin:bevel;stroke-miterlimit:4;stroke-dasharray:none;stroke-opacity:1;paint-order:stroke fill markers"
         id="path823-3"
         cx="163.30049"
         cy="593.89673"
         rx="147.88733"
         ry="142.01877" />
      <ellipse
         style="fill:#ffffff;fill-opacity:1;fill-rule:nonzero;stroke:none;stroke-width:0.84237641;stroke-linecap:round;stroke-linejoin:bevel;stroke-miterlimit:4;stroke-dasharray:none;stroke-opacity:1;paint-order:stroke fill markers"
         id="path823-6"
         cx="175.03757"
         cy="1422.5352"
         rx="147.88733"
         ry="142.01877" />
      <ellipse
         style="fill:#ffffff;fill-opacity:1;fill-rule:nonzero;stroke:none;stroke-width:0.84237641;stroke-linecap:round;stroke-linejoin:bevel;stroke-miterlimit:4;stroke-dasharray:none;stroke-opacity:1;paint-order:stroke fill markers"
         id="path823-7"
         cx="891"
         cy="1835.6808"
         rx="147.88733"
         ry="142.01877" />
      <ellipse
         style="fill:#ffffff;fill-opacity:1;fill-rule:nonzero;stroke:none;stroke-width:0.84237641;stroke-linecap:round;stroke-linejoin:bevel;stroke-miterlimit:4;stroke-dasharray:none;stroke-opacity:1;paint-order:stroke fill markers"
         id="path823-5"
         cx="1602.2676"
         cy="1422.5353"
         rx="147.88733"
         ry="142.01877" />
      <ellipse
         style="fill:#ffffff;fill-opacity:1;fill-rule:nonzero;stroke:none;stroke-width:0.84237641;stroke-linecap:round;stroke-linejoin:bevel;stroke-miterlimit:4;stroke-dasharray:none;stroke-opacity:1;paint-order:stroke fill markers"
         id="path823-35"
         cx="1609.3098"
         cy="593.89667"
         rx="147.88733"
         ry="142.01877" />
      <rect
         style="fill:#ffffff;fill-opacity:1;fill-rule:nonzero;stroke:none;stroke-width:0.80125982;stroke-linecap:round;stroke-linejoin:bevel;stroke-miterlimit:4;stroke-dasharray:none;stroke-opacity:1;paint-order:stroke fill markers"
         id="rect864"
         width="180.75117"
         height="600.93896"
         x="811.18781"
         y="288.73239" />
      <rect
         style="fill:#ffffff;fill-opacity:1;fill-rule:nonzero;stroke:none;stroke-width:0.80125982;stroke-linecap:round;stroke-linejoin:bevel;stroke-miterlimit:4;stroke-dasharray:none;stroke-opacity:1;paint-order:stroke fill markers"
         id="rect864-6"
         width="180.75117"
         height="600.93896"
         x="810.01404"
         y="1150.2347" />
      <rect
         style="fill:#ffffff;fill-opacity:1;fill-rule:nonzero;stroke:none;stroke-width:2.6886096;stroke-linecap:round;stroke-linejoin:bevel;stroke-miterlimit:4;stroke-dasharray:none;stroke-opacity:1;paint-order:stroke fill markers"
         id="rect864-2"
         width="1363.8497"
         height="896.71362"
         x="209.0751"
         y="584.50702" />
    </g>
    <g
       id="g8"
       style="fill:#2683ff">
      <path
         id="path2"
         d="m 175.47,1360.1 a 54.69,54.69 0 1 0 54.69,54.69 c 0,-9.7 -2.65,-18.52 -7.06,-27.34 a 55.55,55.55 0 0 0 -47.63,-27.34 M 948.13,170.23 a 54.69,54.69 0 1 0 -54.69,54.69 55,55 0 0 0 54.69,-54.69 M 1615,644.77 a 54.69,54.69 0 1 0 -54.69,-54.69 53.88,53.88 0 0 0 7.06,26.46 54.55,54.55 0 0 0 47.63,28.23 M 201,539.8 c -26.46,-15 -59.1,-6.17 -74.09,20.29 -14.99,26.46 -6.17,59.1 20.29,74.09 26.46,14.99 59.1,6.17 74.09,-20.29 15,-25.58 6.17,-59.1 -20.29,-74.09 m 1436,830.88 c -7.94,-5.29 -17.64,-7.06 -27.34,-7.94 a 54.69,54.69 0 1 0 0,109.37 c 19.4,0 37,-10.58 47.63,-27.34 15,-25.58 6.17,-59.1 -20.29,-74.09 m -798.25,456 c -2.65,24.7 12.35,48.51 35.28,57.33 5.29,1.76 11.47,3.53 16.76,3.53 a 57.57,57.57 0 0 0 56.45,-46.75 54.39,54.39 0 0 0 -107.61,-15.88 3.08,3.08 0 0 0 -0.88,1.76"
         inkscape:connector-curvature="0" />
      <path
         id="path4"
         d="m 1690.81,1270.13 a 143.5,143.5 0 0 0 -20.29,-9.7 v -510.7 c 7.94,-2.65 15.88,-7.06 23.82,-10.58 82,-45.87 112,-149.95 66.15,-232 -45.85,-82.05 -149.95,-112 -232,-66.15 -7.06,3.53 -13.23,7.94 -19.4,12.35 l -449.84,-260.2 c 0.88,-7.94 1.76,-15 1.76,-22.93 C 1061,75.85 984.3,0 890.8,0 c -93.5,0 -172,77.62 -172,171.11 0,7.94 0.88,15 1.76,22.93 L 274.25,452.48 A 170.51,170.51 0 1 0 67,723.27 c 6.17,4.41 12.35,8.82 19.4,13.23 a 108.24,108.24 0 0 0 22.93,10.58 V 1256.9 C 22,1292.18 -20.35,1391 14.93,1478.29 c 35.28,87.29 134.07,129.66 221.4,94.38 7.94,-2.65 15,-7.06 22.05,-10.58 7.06,-4.41 14.11,-8.82 21.17,-14.11 l 441.9,254.91 c -15,92.61 48.51,179.93 141.13,194.93 92.62,15 179.94,-48.51 194.93,-141.13 1.76,-9.7 1.76,-18.52 1.76,-28.23 a 216.83,216.83 0 0 0 -1.76,-24.7 l 439.26,-253.14 c 7.06,5.29 14.11,10.58 22.05,15 82,45.87 186.11,16.76 232,-65.27 44.07,-82.04 17.61,-182.59 -60.01,-230.22 z m 30.87,213.45 c -36.16,61.74 -116.43,82.91 -178.17,46.75 -49.39,-29.11 -74.09,-86.44 -60.86,-142 l -206.4,-120.84 a 230.18,230.18 0 0 1 -249.62,52 c -30.87,9.7 -97,15.88 -97,15.88 v 363.4 c 72.33,22.05 112,98.79 90,171.11 -22,72.32 -98.79,112 -171.12,90 -0.88,0 -1.76,-0.88 -2.65,-0.88 -6.17,-1.76 -11.47,-4.41 -16.76,-7.06 -67.92,-33.52 -94.38,-116.43 -60.86,-183.46 16.76,-33.52 46.75,-58.21 82,-69.68 v -370.46 a 610.19,610.19 0 0 1 -75.86,-29.11 273.82,273.82 0 0 1 -225.8,-55.57 l -246.09,142 a 131,131 0 1 1 -157.89,-97 c 42.34,-10.58 87.32,1.76 120,31.75 l 230.21,-133.19 c -77.62,-109.37 -65.27,-259.32 30,-354.58 l -262,-149.95 c -52,49.39 -134.07,46.75 -183.46,-6.17 a 130,130 0 0 1 6.17,-184.35 c 52.92,-49.39 134.07,-46.75 183.46,6.17 30,31.75 41.46,75.85 31.75,118.19 l 290.19,166.7 A 274.14,274.14 0 0 1 714.41,750.59 C 755,717.09 859,682.69 859,682.69 V 285.78 C 794.61,266.38 758.45,198.46 777.85,134.07 797.25,69.68 865.22,34.4 929.61,53.8 c 64.39,19.4 100.55,87.32 81.15,151.71 a 120.78,120.78 0 0 1 -81.15,81.15 v 389 c 0,0 190.52,47.63 250.5,119.07 l 308.71,-175.52 c -15.88,-70.56 27.34,-141.13 97.91,-157 70.57,-15.87 141.13,27.34 157,97.91 15.87,70.57 -27.34,141.13 -97.91,157 a 131.4,131.4 0 0 1 -119.08,-32.64 l -305.18,172.86 c 8.82,18.52 16.76,37 22.05,56.45 94.38,64.39 127.9,187.87 77.62,291.07 l 202,117.31 a 129,129 0 0 1 153.47,-16.76 c 60.86,36.16 82,115.55 45,178.17 z"
         inkscape:connector-curvature="0" />
      <path
         id="path6"
         d="m 1152.77,982.59 c -0.88,-7.06 -1.76,-13.23 -2.65,-20.29 a 109.71,109.71 0 0 0 -3.53,-14.11 c 0,-1.76 -0.88,-3.53 -0.88,-5.29 -1.76,-5.29 -3.53,-11.47 -5.29,-16.76 v -0.88 a 233.81,233.81 0 0 0 -50.28,-79.38 c -5.29,-5.29 -9.7,-9.7 -15.88,-15 l -0.88,-0.88 c -5.29,-4.41 -10.58,-8.82 -16.76,-12.35 l -0.88,-0.88 c -5.29,-3.53 -11.47,-7.94 -16.76,-10.58 l -0.88,-0.88 a 164.47,164.47 0 0 0 -17.64,-8.82 l -1.76,-0.88 c -6.17,-2.65 -12.35,-5.29 -19.4,-7.94 l -0.88,-0.88 c -7.06,-1.76 -13.23,-4.41 -20.29,-5.29 h -0.88 a 176.62,176.62 0 0 0 -21.17,-3.53 H 955.2 A 218,218 0 0 0 844.06,791.2 l -4.41,3.53 c -5.29,1.76 -14.11,6.17 -19.4,8.82 a 41.2,41.2 0 0 1 -8.82,4.41 c -2.65,0.88 -7.06,4.41 -9.7,6.17 -2.64,1.76 -8.82,6.17 -12.35,8.82 l -2.65,1.76 c -5.29,3.53 -9.7,7.94 -15,12.35 l -4.41,4.41 c -5.29,5.29 -9.7,9.7 -14.11,15 a 192.84,192.84 0 0 0 -31.75,-2.65 c -3.53,0 -6.17,0 -8.82,0.88 -40.57,1.76 -79.38,18.52 -109.37,45.87 -15,13.23 -27.34,30 -37,47.63 l -0.94,1.8 a 125,125 0 0 0 -7.06,15.88 c -0.88,1.76 -0.88,2.65 -1.76,4.41 a 86.7,86.7 0 0 0 -4.41,14.11 c -0.88,1.76 -0.88,4.41 -1.76,6.17 -0.88,4.41 -1.76,8.82 -2.65,14.11 0,1.76 -0.88,3.53 -0.88,6.17 a 156.14,156.14 0 0 0 -0.88,20.29 106.75,106.75 0 0 0 0.88,16.76 c 0,1.76 0.88,3.53 0.88,6.17 0.88,3.53 0.88,7.06 1.76,10.58 0.88,3.52 0.88,4.41 1.76,7.06 a 25.75,25.75 0 0 1 1.76,7.94 c 0,2.65 1.76,5.29 2.65,7.94 a 43,43 0 0 0 2.65,6.17 91.51,91.51 0 0 1 3.53,8.82 c 0.88,1.76 1.76,2.65 1.76,4.41 a 156,156 0 0 0 60,70.56 c 13.23,7.94 26.46,15 40.57,19.4 a 117.51,117.51 0 0 0 16.76,4.41 l 1.76,0.88 15.88,2.65 3.53,0.88 c 6.17,0.88 12.35,0.88 19.4,0.88 23.82,0 46.75,-4.41 67.92,-14.11 5.29,3.53 9.7,7.06 15,10.58 l 1.76,0.88 c 4.41,2.65 9.7,5.29 15,7.94 H 822 a 227.42,227.42 0 0 0 163.18,16.76 h 0.88 a 100.75,100.75 0 0 0 22.93,-7.94 l 23.82,-10.58 a 129.23,129.23 0 0 0 79.38,27.34 c 6.17,0 11.47,-0.88 17.64,-0.88 l 4.41,-0.88 a 143.32,143.32 0 0 0 16.76,-3.53 117.79,117.79 0 0 0 15.88,-6.17 l 2.65,-0.88 c 5.29,-2.65 9.7,-5.29 15,-7.94 22.05,-14.11 38.81,-35.28 48.51,-59.1 3.53,-7.94 5.29,-15.88 7.06,-23.81 v -2.65 c 0.88,-3.53 0.88,-7.06 1.76,-10.58 0,-4.41 0.88,-8.82 0.88,-13.23 0,-58.21 -36.16,-108.49 -90,-125.25"
         inkscape:connector-curvature="0" />
    </g>
  </g>
</svg>
