<?xml version="1.0" encoding="UTF-8" standalone="no"?>
<!-- Generator: Adobe Illustrator 26.0.1, SVG Export Plug-In . SVG Version: 6.00 Build 0)  -->

<svg
   xmlns:dc="http://purl.org/dc/elements/1.1/"
   xmlns:cc="http://creativecommons.org/ns#"
   xmlns:rdf="http://www.w3.org/1999/02/22-rdf-syntax-ns#"
   xmlns:svg="http://www.w3.org/2000/svg"
   xmlns="http://www.w3.org/2000/svg"
   xmlns:sodipodi="http://sodipodi.sourceforge.net/DTD/sodipodi-0.dtd"
   xmlns:inkscape="http://www.inkscape.org/namespaces/inkscape"
   version="1.1"
   id="Layer_1"
   x="0px"
   y="0px"
   viewBox="0 0 34.999999 35"
   xml:space="preserve"
   sodipodi:docname="tribe-coin-symbol.svg"
   width="35"
   height="35"
   inkscape:version="0.92.5 (2060ec1f9f, 2020-04-08)"><metadata
   id="metadata15"><rdf:RDF><cc:Work
       rdf:about=""><dc:format>image/svg+xml</dc:format><dc:type
         rdf:resource="http://purl.org/dc/dcmitype/StillImage" /><dc:title></dc:title></cc:Work></rdf:RDF></metadata><defs
   id="defs13" /><sodipodi:namedview
   pagecolor="#ffffff"
   bordercolor="#666666"
   borderopacity="1"
   objecttolerance="10"
   gridtolerance="10"
   guidetolerance="10"
   inkscape:pageopacity="0"
   inkscape:pageshadow="2"
   inkscape:window-width="1920"
   inkscape:window-height="1023"
   id="namedview11"
   showgrid="false"
   showguides="true"
   inkscape:guide-bbox="true"
   inkscape:zoom="23.542857"
   inkscape:cx="17.5"
   inkscape:cy="17.5"
   inkscape:window-x="0"
   inkscape:window-y="0"
   inkscape:window-maximized="1"
   inkscape:current-layer="Layer_1"><sodipodi:guide
     position="17.5,31.856796"
     orientation="1,0"
     id="guide834"
     inkscape:locked="false" /></sodipodi:namedview>
<style
   type="text/css"
   id="style2">
	.st0{fill:#178DD0;}
</style>



<circle
   style="fill:#178dd0;fill-opacity:1;stroke:none;stroke-width:2.07023406;stroke-miterlimit:4;stroke-dasharray:none;stroke-opacity:1"
   id="path825"
   cx="17.5"
   cy="17.5"
   r="17.5" /><g
   id="g830"
   transform="translate(7.4327163,-5.4915246)"
   style="fill:#ffffff"><path
     style="fill:#ffffff"
     inkscape:connector-curvature="0"
     id="path4"
     d="M 0.3,23.7 C 0.4,23 0.4,22.6 0.8,22.3 1.1,22 1.5,22.1 2.2,22.2 c 0.4,0 1,0.1 1.6,0.2 0.6,0.1 1.1,0.2 1.6,0.4 0.7,0.2 1,0.4 1.5,1 0.5,0.6 0.5,1.2 0.5,2.3 0,0.8 0,1.9 0,3.4 0,1.9 0,3.2 0,4.1 0,0.7 0,1.1 -0.2,1.3 C 6.9,35 6.5,35 5.8,35 5.1,35 4.3,35 3.5,35 3.3,35 3.1,35 2.9,35 1.7,35 1.2,35 0.7,34.6 0.3,34.2 0.2,33.7 0.1,32.6 0,31.5 -0.1,30.2 -0.1,28.6 0,26.6 0.1,24.9 0.3,23.7 Z"
     class="st0" /><path
     style="fill:#ffffff"
     inkscape:connector-curvature="0"
     id="path6"
     d="M 19.9,23.7 C 19.8,23 19.8,22.6 19.4,22.3 19.1,22 18.7,22.1 18,22.2 c -0.4,0 -1,0.1 -1.6,0.2 -0.6,0.1 -1.1,0.2 -1.6,0.4 -0.7,0.2 -1,0.4 -1.5,1 -0.5,0.6 -0.5,1.2 -0.5,2.3 0,0.8 0,1.9 0,3.4 0,1.9 0,3.2 0,4.1 0,0.7 0,1.1 0.2,1.3 0.2,0.2 0.6,0.2 1.3,0.2 0.7,0 1.5,0 2.3,0 0.2,0 0.4,0 0.6,0 1.2,0 1.7,0 2.2,-0.4 0.5,-0.4 0.5,-0.9 0.6,-2 0.1,-1.1 0.2,-2.4 0.2,-4 0,-2.1 -0.1,-3.8 -0.3,-5 z"
     class="st0" /><path
     style="fill:#ffffff"
     inkscape:connector-curvature="0"
     id="path8"
     d="m 0.3,14.2 c 0,-1.3 0,-1.9 0.4,-2.3 0.4,-0.4 1,-0.5 2.3,-0.6 1.8,-0.1 4.4,-0.3 7.2,-0.3 2.8,0 5.4,0.2 7.3,0.3 1.2,0.1 1.9,0.1 2.3,0.6 0.4,0.4 0.4,1.1 0.4,2.3 v 0.6 c 0,1.3 0,1.9 -0.4,2.3 -0.4,0.4 -1,0.5 -2.2,0.6 C 15.8,17.9 13.2,18 10.2,18 7.3,18 4.7,17.9 2.9,17.7 1.7,17.6 1.1,17.6 0.7,17.2 0.3,16.7 0.3,16.1 0.3,14.8 Z"
     class="st0" /></g></svg>