<?xml version="1.0" encoding="UTF-8" standalone="no"?>
<svg
   xmlns:dc="http://purl.org/dc/elements/1.1/"
   xmlns:cc="http://creativecommons.org/ns#"
   xmlns:rdf="http://www.w3.org/1999/02/22-rdf-syntax-ns#"
   xmlns:svg="http://www.w3.org/2000/svg"
   xmlns="http://www.w3.org/2000/svg"
   xmlns:sodipodi="http://sodipodi.sourceforge.net/DTD/sodipodi-0.dtd"
   xmlns:inkscape="http://www.inkscape.org/namespaces/inkscape"
   id="Layer_1"
   data-name="Layer 1"
   viewBox="0 0 300.00001 300.00001"
   version="1.1"
   sodipodi:docname="tether-coin-symbol.svg"
   width="300"
   height="300"
   inkscape:version="0.92.5 (2060ec1f9f, 2020-04-08)">
  <metadata
     id="metadata13">
    <rdf:RDF>
      <cc:Work
         rdf:about="">
        <dc:format>image/svg+xml</dc:format>
        <dc:type
           rdf:resource="http://purl.org/dc/dcmitype/StillImage" />
        <dc:title>tether-usdt-logo</dc:title>
      </cc:Work>
    </rdf:RDF>
  </metadata>
  <defs
     id="defs11" />
  <sodipodi:namedview
     pagecolor="#ffffff"
     bordercolor="#666666"
     borderopacity="1"
     objecttolerance="10"
     gridtolerance="10"
     guidetolerance="10"
     inkscape:pageopacity="0"
     inkscape:pageshadow="2"
     inkscape:window-width="1920"
     inkscape:window-height="1027"
     id="namedview9"
     showgrid="false"
     showguides="true"
     inkscape:guide-bbox="true"
     inkscape:zoom="1.5"
     inkscape:cx="169.715"
     inkscape:cy="147.63499"
     inkscape:window-x="0"
     inkscape:window-y="0"
     inkscape:window-maximized="1"
     inkscape:current-layer="Layer_1" />
  <title
     id="title2">tether-usdt-logo</title>
  <circle
     style="fill:#53ad97;fill-opacity:1;fill-rule:nonzero;stroke:none;stroke-width:0.79702926;stroke-linecap:round;stroke-linejoin:bevel;stroke-miterlimit:4;stroke-dasharray:none;stroke-opacity:1;paint-order:stroke fill markers"
     id="path820"
     cx="150"
     cy="150"
     r="150" />
  <path
     d="m 171.19,165.53001 v 0 c -1.2,0.09 -7.4,0.46 -21.23,0.46 -11,0 -18.81,-0.33 -21.55,-0.46 v 0 c -42.51,-1.87 -74.24,-9.27 -74.24,-18.13 0,-8.86 31.73,-16.25 74.24,-18.15 v 28.91 c 2.78,0.2 10.74,0.67 21.74,0.67 13.2,0 19.81,-0.55 21,-0.66 v -28.9 c 42.42,1.89 74.08,9.29 74.08,18.13 0,8.84 -31.65,16.24 -74.08,18.12 v 0 z m 0,-39.25 v -25.87 h 59.2 V 60.960011 H 69.21 v 39.449999 h 59.19 v 25.86 c -48.11,2.21 -84.29,11.74 -84.29,23.16 0,11.42 36.18,20.94 84.29,23.16 v 82.9 h 42.78 v -82.93 c 48,-2.21 84.12,-11.73 84.12,-23.14 0,-11.41 -36.09,-20.93 -84.12,-23.15 v 0 z m 0,0 z"
     style="fill:#ffffff;fill-rule:evenodd"
     id="path6"
     inkscape:connector-curvature="0" />
</svg>
