<?xml version="1.0" encoding="UTF-8" standalone="no"?>
<!DOCTYPE svg PUBLIC "-//W3C//DTD SVG 1.1//EN"
 "http://www.w3.org/Graphics/SVG/1.1/DTD/svg11.dtd">
<!-- Generated by graphviz version 2.43.0 (0)
 -->
<!-- Title: B Pages: 1 -->
<svg width="972pt" height="680pt"
 viewBox="0.00 0.00 971.70 680.10" xmlns="http://www.w3.org/2000/svg" xmlns:xlink="http://www.w3.org/1999/xlink">
<g id="page0,1_graph0" class="graph" transform="scale(1 1) rotate(0) translate(4 676.1)">
<title>B</title>
<polygon fill="white" stroke="transparent" points="-4,4 -4,-676.1 967.7,-676.1 967.7,4 -4,4"/>
<!-- n -->
<g id="node1" class="node">
<title>n</title>
<ellipse fill="none" stroke="black" cx="353.5" cy="-626.14" rx="45.92" ry="45.92"/>
<text text-anchor="middle" x="353.5" y="-629.94" font-family="Helvetica,sans-Serif" font-size="14.00">{}</text>
<text text-anchor="middle" x="353.5" y="-614.94" font-family="Helvetica,sans-Serif" font-size="14.00">h(L+R)</text>
</g>
<!-- n0 -->
<g id="node2" class="node">
<title>n0</title>
<ellipse fill="none" stroke="black" cx="266.5" cy="-483.22" rx="45.92" ry="45.92"/>
<text text-anchor="middle" x="266.5" y="-487.02" font-family="Helvetica,sans-Serif" font-size="14.00">{0}</text>
<text text-anchor="middle" x="266.5" y="-472.02" font-family="Helvetica,sans-Serif" font-size="14.00">h(L+R)</text>
</g>
<!-- n&#45;&gt;n0 -->
<g id="edge1" class="edge">
<title>n&#45;&gt;n0</title>
<path fill="none" stroke="black" d="M329.73,-586.63C319.18,-569.55 306.66,-549.28 295.56,-531.3"/>
<polygon fill="black" stroke="black" points="298.48,-529.35 290.24,-522.68 292.52,-533.03 298.48,-529.35"/>
<text text-anchor="middle" x="318.5" y="-550.98" font-family="Helvetica,sans-Serif" font-size="14.00">0</text>
</g>
<!-- n1 -->
<g id="node3" class="node">
<title>n1</title>
<ellipse fill="none" stroke="black" cx="439.5" cy="-483.22" rx="45.92" ry="45.92"/>
<text text-anchor="middle" x="439.5" y="-487.02" font-family="Helvetica,sans-Serif" font-size="14.00">{1}</text>
<text text-anchor="middle" x="439.5" y="-472.02" font-family="Helvetica,sans-Serif" font-size="14.00">h(L+R)</text>
</g>
<!-- n&#45;&gt;n1 -->
<g id="edge3" class="edge">
<title>n&#45;&gt;n1</title>
<path fill="none" stroke="black" d="M377,-586.63C387.34,-569.69 399.6,-549.61 410.5,-531.74"/>
<polygon fill="black" stroke="black" points="413.51,-533.53 415.73,-523.17 407.53,-529.88 413.51,-533.53"/>
<text text-anchor="middle" x="404.5" y="-550.98" font-family="Helvetica,sans-Serif" font-size="14.00">1</text>
</g>
<!-- mA -->
<!-- n&#45;&gt;mA -->
<!-- n00 -->
<g id="node4" class="node">
<title>n00</title>
<ellipse fill="none" stroke="black" cx="96.5" cy="-340.29" rx="45.92" ry="45.92"/>
<text text-anchor="middle" x="96.5" y="-344.09" font-family="Helvetica,sans-Serif" font-size="14.00">{00}</text>
<text text-anchor="middle" x="96.5" y="-329.09" font-family="Helvetica,sans-Serif" font-size="14.00">h(L+R)</text>
</g>
<!-- n0&#45;&gt;n00 -->
<g id="edge6" class="edge">
<title>n0&#45;&gt;n00</title>
<path fill="none" stroke="black" d="M231.28,-453.02C204.61,-430.91 167.84,-400.44 139.45,-376.9"/>
<polygon fill="black" stroke="black" points="141.61,-374.14 131.68,-370.46 137.14,-379.53 141.61,-374.14"/>
<text text-anchor="middle" x="192.5" y="-408.06" font-family="Helvetica,sans-Serif" font-size="14.00">0</text>
</g>
<!-- n01 -->
<g id="node10" class="node">
<title>n01</title>
<ellipse fill="none" stroke="black" cx="266.5" cy="-340.29" rx="45.92" ry="45.92"/>
<text text-anchor="middle" x="266.5" y="-344.09" font-family="Helvetica,sans-Serif" font-size="14.00">{01}</text>
<text text-anchor="middle" x="266.5" y="-329.09" font-family="Helvetica,sans-Serif" font-size="14.00">h(L+R)</text>
</g>
<!-- n0&#45;&gt;n01 -->
<g id="edge8" class="edge">
<title>n0&#45;&gt;n01</title>
<path fill="none" stroke="black" d="M266.5,-437.24C266.5,-424.28 266.5,-409.98 266.5,-396.47"/>
<polygon fill="black" stroke="black" points="270,-396.33 266.5,-386.33 263,-396.33 270,-396.33"/>
<text text-anchor="middle" x="271.5" y="-408.06" font-family="Helvetica,sans-Serif" font-size="14.00">1</text>
</g>
<!-- n0&#45;&gt;mA -->
<!-- mn0 -->
<!-- n0&#45;&gt;mn0 -->
<!-- n10 -->
<g id="node5" class="node">
<title>n10</title>
<ellipse fill="lightgray" stroke="red" cx="439.5" cy="-340.29" rx="45.92" ry="45.92"/>
<text text-anchor="middle" x="439.5" y="-344.09" font-family="Helvetica,sans-Serif" font-size="14.00">{10}</text>
<text text-anchor="middle" x="439.5" y="-329.09" font-family="Helvetica,sans-Serif" font-size="14.00">h(L+R)</text>
</g>
<!-- n1&#45;&gt;n10 -->
<g id="edge11" class="edge">
<title>n1&#45;&gt;n10</title>
<path fill="none" stroke="red" d="M439.5,-437.24C439.5,-424.28 439.5,-409.98 439.5,-396.47"/>
<polygon fill="red" stroke="red" points="443,-396.33 439.5,-386.33 436,-396.33 443,-396.33"/>
</g>
<!-- n11 -->
<g id="node13" class="node">
<title>n11</title>
<ellipse fill="none" stroke="black" cx="609.5" cy="-340.29" rx="45.92" ry="45.92"/>
<text text-anchor="middle" x="609.5" y="-344.09" font-family="Helvetica,sans-Serif" font-size="14.00">{11}</text>
<text text-anchor="middle" x="609.5" y="-329.09" font-family="Helvetica,sans-Serif" font-size="14.00">h(L+R)</text>
</g>
<!-- n1&#45;&gt;n11 -->
<g id="edge13" class="edge">
<title>n1&#45;&gt;n11</title>
<path fill="none" stroke="black" d="M474.72,-453.02C501.39,-430.91 538.16,-400.44 566.55,-376.9"/>
<polygon fill="black" stroke="black" points="568.86,-379.53 574.32,-370.46 564.39,-374.14 568.86,-379.53"/>
<text text-anchor="middle" x="534.5" y="-408.06" font-family="Helvetica,sans-Serif" font-size="14.00">1</text>
</g>
<!-- mn1 -->
<!-- n1&#45;&gt;mn1 -->
<!-- n001 -->
<g id="node6" class="node">
<title>n001</title>
<ellipse fill="none" stroke="black" cx="131.5" cy="-197.37" rx="45.92" ry="45.92"/>
<text text-anchor="middle" x="131.5" y="-201.17" font-family="Helvetica,sans-Serif" font-size="14.00">{001}</text>
<text text-anchor="middle" x="131.5" y="-186.17" font-family="Helvetica,sans-Serif" font-size="14.00">h(L+R)</text>
</g>
<!-- n00&#45;&gt;n001 -->
<g id="edge18" class="edge">
<title>n00&#45;&gt;n001</title>
<path fill="none" stroke="black" d="M107.38,-295.48C110.81,-281.69 114.63,-266.31 118.2,-251.93"/>
<polygon fill="black" stroke="black" points="121.61,-252.71 120.62,-242.16 114.82,-251.02 121.61,-252.71"/>
<text text-anchor="middle" x="120.5" y="-265.13" font-family="Helvetica,sans-Serif" font-size="14.00">1</text>
</g>
<!-- n00&#45;&gt;mn0 -->
<!-- n000 -->
<!-- n00&#45;&gt;n000 -->
<!-- mn00 -->
<!-- n00&#45;&gt;mn00 -->
<!-- n101 -->
<g id="node8" class="node">
<title>n101</title>
<ellipse fill="lightgray" stroke="red" cx="527.5" cy="-197.37" rx="45.92" ry="45.92"/>
<text text-anchor="middle" x="527.5" y="-201.17" font-family="Helvetica,sans-Serif" font-size="14.00">{101}</text>
<text text-anchor="middle" x="527.5" y="-186.17" font-family="Helvetica,sans-Serif" font-size="14.00">h(L+R)</text>
</g>
<!-- n10&#45;&gt;n101 -->
<g id="edge33" class="edge">
<title>n10&#45;&gt;n101</title>
<path fill="none" stroke="red" d="M463.55,-300.79C474.22,-283.7 486.87,-263.43 498.1,-245.45"/>
<polygon fill="red" stroke="red" points="501.15,-247.17 503.48,-236.83 495.22,-243.46 501.15,-247.17"/>
<text text-anchor="middle" x="491.5" y="-265.13" font-family="Helvetica,sans-Serif" font-size="14.00">1</text>
</g>
<!-- n10&#45;&gt;mn1 -->
<!-- n100 -->
<!-- n10&#45;&gt;n100 -->
<!-- mn10 -->
<!-- n10&#45;&gt;mn10 -->
<!-- n0011 -->
<g id="node7" class="node">
<title>n0011</title>
<ellipse fill="none" stroke="black" cx="209.5" cy="-50.2" rx="50.41" ry="50.41"/>
<text text-anchor="middle" x="209.5" y="-61.5" font-family="Helvetica,sans-Serif" font-size="14.00">{0011}</text>
<text text-anchor="middle" x="209.5" y="-46.5" font-family="Helvetica,sans-Serif" font-size="14.00">&quot;3&quot;</text>
<text text-anchor="middle" x="209.5" y="-31.5" font-family="Helvetica,sans-Serif" font-size="14.00">h(3)</text>
</g>
<!-- n001&#45;&gt;n0011 -->
<g id="edge38" class="edge">
<title>n001&#45;&gt;n0011</title>
<path fill="none" stroke="black" d="M153.02,-156.32C161.78,-140.03 172.01,-120.97 181.35,-103.6"/>
<polygon fill="black" stroke="black" points="184.49,-105.15 186.14,-94.69 178.32,-101.84 184.49,-105.15"/>
<text text-anchor="middle" x="178.5" y="-122.21" font-family="Helvetica,sans-Serif" font-size="14.00">1</text>
</g>
<!-- n0010 -->
<!-- n001&#45;&gt;n0010 -->
<!-- mn001 -->
<!-- n001&#45;&gt;mn001 -->
<!-- n1011 -->
<g id="node9" class="node">
<title>n1011</title>
<ellipse fill="lightgray" stroke="red" cx="617.5" cy="-50.2" rx="50.41" ry="50.41"/>
<text text-anchor="middle" x="617.5" y="-61.5" font-family="Helvetica,sans-Serif" font-size="14.00">{1011}</text>
<text text-anchor="middle" x="617.5" y="-46.5" font-family="Helvetica,sans-Serif" font-size="14.00">&quot;b&quot;</text>
<text text-anchor="middle" x="617.5" y="-31.5" font-family="Helvetica,sans-Serif" font-size="14.00">h(b)</text>
</g>
<!-- n101&#45;&gt;n1011 -->
<g id="edge48" class="edge">
<title>n101&#45;&gt;n1011</title>
<path fill="none" stroke="red" d="M551.38,-157.85C561.99,-140.74 574.62,-120.37 585.99,-102.04"/>
<polygon fill="red" stroke="red" points="589.15,-103.57 591.45,-93.22 583.2,-99.88 589.15,-103.57"/>
<text text-anchor="middle" x="579.5" y="-122.21" font-family="Helvetica,sans-Serif" font-size="14.00">1</text>
</g>
<!-- n1010 -->
<!-- n101&#45;&gt;n1010 -->
<!-- mn101 -->
<!-- n101&#45;&gt;mn101 -->
<!-- n011 -->
<g id="node11" class="node">
<title>n011</title>
<ellipse fill="none" stroke="black" cx="330.5" cy="-197.37" rx="45.92" ry="45.92"/>
<text text-anchor="middle" x="330.5" y="-201.17" font-family="Helvetica,sans-Serif" font-size="14.00">{011}</text>
<text text-anchor="middle" x="330.5" y="-186.17" font-family="Helvetica,sans-Serif" font-size="14.00">h(L+R)</text>
</g>
<!-- n01&#45;&gt;n011 -->
<g id="edge23" class="edge">
<title>n01&#45;&gt;n011</title>
<path fill="none" stroke="black" d="M285.18,-298.16C292.15,-282.81 300.15,-265.2 307.47,-249.09"/>
<polygon fill="black" stroke="black" points="310.73,-250.36 311.68,-239.81 304.36,-247.46 310.73,-250.36"/>
<text text-anchor="middle" x="305.5" y="-265.13" font-family="Helvetica,sans-Serif" font-size="14.00">1</text>
</g>
<!-- n010 -->
<!-- n01&#45;&gt;n010 -->
<!-- mn01 -->
<!-- n01&#45;&gt;mn01 -->
<!-- n0111 -->
<g id="node12" class="node">
<title>n0111</title>
<ellipse fill="none" stroke="black" cx="413.5" cy="-50.2" rx="50.41" ry="50.41"/>
<text text-anchor="middle" x="413.5" y="-61.5" font-family="Helvetica,sans-Serif" font-size="14.00">{0111}</text>
<text text-anchor="middle" x="413.5" y="-46.5" font-family="Helvetica,sans-Serif" font-size="14.00">&quot;7&quot;</text>
<text text-anchor="middle" x="413.5" y="-31.5" font-family="Helvetica,sans-Serif" font-size="14.00">h(7)</text>
</g>
<!-- n011&#45;&gt;n0111 -->
<g id="edge43" class="edge">
<title>n011&#45;&gt;n0111</title>
<path fill="none" stroke="black" d="M352.96,-157.09C362.45,-140.5 373.62,-120.95 383.78,-103.19"/>
<polygon fill="black" stroke="black" points="387.05,-104.51 388.98,-94.09 380.98,-101.03 387.05,-104.51"/>
<text text-anchor="middle" x="379.5" y="-122.21" font-family="Helvetica,sans-Serif" font-size="14.00">1</text>
</g>
<!-- n0110 -->
<!-- n011&#45;&gt;n0110 -->
<!-- mn011 -->
<!-- n011&#45;&gt;mn011 -->
<!-- n111 -->
<g id="node14" class="node">
<title>n111</title>
<ellipse fill="none" stroke="black" cx="736.5" cy="-197.37" rx="45.92" ry="45.92"/>
<text text-anchor="middle" x="736.5" y="-201.17" font-family="Helvetica,sans-Serif" font-size="14.00">{111}</text>
<text text-anchor="middle" x="736.5" y="-186.17" font-family="Helvetica,sans-Serif" font-size="14.00">h(L+R)</text>
</g>
<!-- n11&#45;&gt;n111 -->
<g id="edge28" class="edge">
<title>n11&#45;&gt;n111</title>
<path fill="none" stroke="black" d="M639.92,-305.54C657.7,-285.81 680.27,-260.76 699.13,-239.84"/>
<polygon fill="black" stroke="black" points="701.79,-242.11 705.89,-232.34 696.59,-237.42 701.79,-242.11"/>
<text text-anchor="middle" x="681.5" y="-265.13" font-family="Helvetica,sans-Serif" font-size="14.00">1</text>
</g>
<!-- n110 -->
<!-- n11&#45;&gt;n110 -->
<!-- mn11 -->
<!-- n11&#45;&gt;mn11 -->
<!-- n1111 -->
<g id="node15" class="node">
<title>n1111</title>
<ellipse fill="none" stroke="black" cx="913.5" cy="-50.2" rx="50.41" ry="50.41"/>
<text text-anchor="middle" x="913.5" y="-61.5" font-family="Helvetica,sans-Serif" font-size="14.00">{1111}</text>
<text text-anchor="middle" x="913.5" y="-46.5" font-family="Helvetica,sans-Serif" font-size="14.00">&quot;f&quot;</text>
<text text-anchor="middle" x="913.5" y="-31.5" font-family="Helvetica,sans-Serif" font-size="14.00">h(f)</text>
</g>
<!-- n111&#45;&gt;n1111 -->
<g id="edge53" class="edge">
<title>n111&#45;&gt;n1111</title>
<path fill="none" stroke="black" d="M771.89,-167.34C799.31,-144.86 837.5,-113.53 867.32,-89.08"/>
<polygon fill="black" stroke="black" points="869.59,-91.75 875.1,-82.7 865.15,-86.33 869.59,-91.75"/>
<text text-anchor="middle" x="834.5" y="-122.21" font-family="Helvetica,sans-Serif" font-size="14.00">1</text>
</g>
<!-- n1110 -->
<g id="node16" class="node">
<title>n1110</title>
<ellipse fill="none" stroke="black" cx="735.5" cy="-50.2" rx="50.41" ry="50.41"/>
<text text-anchor="middle" x="735.5" y="-61.5" font-family="Helvetica,sans-Serif" font-size="14.00">{1110}</text>
<text text-anchor="middle" x="735.5" y="-46.5" font-family="Helvetica,sans-Serif" font-size="14.00">&quot;e&quot;</text>
<text text-anchor="middle" x="735.5" y="-31.5" font-family="Helvetica,sans-Serif" font-size="14.00">h(e)</text>
</g>
<!-- n111&#45;&gt;n1110 -->
<g id="edge51" class="edge">
<title>n111&#45;&gt;n1110</title>
<path fill="none" stroke="black" d="M736.19,-151.24C736.1,-138.43 736,-124.3 735.91,-110.78"/>
<polygon fill="black" stroke="black" points="739.41,-110.58 735.84,-100.6 732.41,-110.63 739.41,-110.58"/>
<text text-anchor="middle" x="740.5" y="-122.21" font-family="Helvetica,sans-Serif" font-size="14.00">0</text>
</g>
<!-- mn111 -->
<!-- n111&#45;&gt;mn111 -->
<!-- n1110&#45;&gt;mn111 -->
<!-- mA&#45;&gt;n1 -->
<!-- mn0&#45;&gt;n01 -->
<!-- mn1&#45;&gt;n11 -->
<!-- n000&#45;&gt;mn00 -->
<!-- mn00&#45;&gt;n001 -->
<!-- n010&#45;&gt;mn01 -->
<!-- mn01&#45;&gt;n011 -->
<!-- n110&#45;&gt;mn11 -->
<!-- mn11&#45;&gt;n111 -->
<!-- n100&#45;&gt;mn10 -->
<!-- mn10&#45;&gt;n101 -->
<!-- n0010&#45;&gt;mn001 -->
<!-- mn001&#45;&gt;n0011 -->
<!-- n0110&#45;&gt;mn011 -->
<!-- mn011&#45;&gt;n0111 -->
<!-- n1010&#45;&gt;mn101 -->
<!-- mn101&#45;&gt;n1011 -->
<!-- mn111&#45;&gt;n1111 -->
</g>
</svg>
