<?xml version="1.0" encoding="UTF-8" standalone="no"?>
<!DOCTYPE svg PUBLIC "-//W3C//DTD SVG 1.1//EN"
 "http://www.w3.org/Graphics/SVG/1.1/DTD/svg11.dtd">
<!-- Generated by graphviz version 2.43.0 (0)
 -->
<!-- Title: B Pages: 1 -->
<svg width="984pt" height="689pt"
 viewBox="0.00 0.00 983.70 688.59" xmlns="http://www.w3.org/2000/svg" xmlns:xlink="http://www.w3.org/1999/xlink">
<g id="page0,1_graph0" class="graph" transform="scale(1 1) rotate(0) translate(4 684.59)">
<title>B</title>
<polygon fill="white" stroke="transparent" points="-4,4 -4,-684.59 979.7,-684.59 979.7,4 -4,4"/>
<!-- n -->
<g id="node1" class="node">
<title>n</title>
<ellipse fill="none" stroke="black" cx="356.5" cy="-634.63" rx="45.92" ry="45.92"/>
<text text-anchor="middle" x="356.5" y="-638.43" font-family="Helvetica,sans-Serif" font-size="14.00">{}</text>
<text text-anchor="middle" x="356.5" y="-623.43" font-family="Helvetica,sans-Serif" font-size="14.00">h(L+R)</text>
</g>
<!-- n0 -->
<g id="node2" class="node">
<title>n0</title>
<ellipse fill="none" stroke="black" cx="258.5" cy="-491.7" rx="45.92" ry="45.92"/>
<text text-anchor="middle" x="258.5" y="-495.5" font-family="Helvetica,sans-Serif" font-size="14.00">{0}</text>
<text text-anchor="middle" x="258.5" y="-480.5" font-family="Helvetica,sans-Serif" font-size="14.00">h(L+R)</text>
</g>
<!-- n&#45;&gt;n0 -->
<g id="edge1" class="edge">
<title>n&#45;&gt;n0</title>
<path fill="none" stroke="black" d="M330.5,-596.23C318.1,-578.41 303.17,-556.95 290.13,-538.19"/>
<polygon fill="black" stroke="black" points="292.87,-536 284.29,-529.78 287.12,-539.99 292.87,-536"/>
<text text-anchor="middle" x="315.5" y="-559.47" font-family="Helvetica,sans-Serif" font-size="14.00">0</text>
</g>
<!-- n1 -->
<g id="node3" class="node">
<title>n1</title>
<ellipse fill="none" stroke="black" cx="447.5" cy="-491.7" rx="45.92" ry="45.92"/>
<text text-anchor="middle" x="447.5" y="-495.5" font-family="Helvetica,sans-Serif" font-size="14.00">{1}</text>
<text text-anchor="middle" x="447.5" y="-480.5" font-family="Helvetica,sans-Serif" font-size="14.00">h(L+R)</text>
</g>
<!-- n&#45;&gt;n1 -->
<g id="edge3" class="edge">
<title>n&#45;&gt;n1</title>
<path fill="none" stroke="black" d="M381.13,-595.49C392.25,-578.26 405.51,-557.73 417.24,-539.57"/>
<polygon fill="black" stroke="black" points="420.37,-541.17 422.85,-530.87 414.49,-537.37 420.37,-541.17"/>
<text text-anchor="middle" x="410.5" y="-559.47" font-family="Helvetica,sans-Serif" font-size="14.00">1</text>
</g>
<!-- mA -->
<!-- n&#45;&gt;mA -->
<!-- n00 -->
<g id="node4" class="node">
<title>n00</title>
<ellipse fill="none" stroke="black" cx="84.5" cy="-346.66" rx="48.17" ry="48.17"/>
<text text-anchor="middle" x="84.5" y="-350.46" font-family="Helvetica,sans-Serif" font-size="14.00">{00}</text>
<text text-anchor="middle" x="84.5" y="-335.46" font-family="Helvetica,sans-Serif" font-size="14.00">h(R+R)</text>
</g>
<!-- n0&#45;&gt;n00 -->
<g id="edge6" class="edge">
<title>n0&#45;&gt;n00</title>
<path fill="none" stroke="black" d="M223.29,-461.76C196.15,-439.44 158.44,-408.44 129.17,-384.38"/>
<polygon fill="black" stroke="black" points="131.11,-381.44 121.16,-377.8 126.66,-386.85 131.11,-381.44"/>
<text text-anchor="middle" x="182.5" y="-416.54" font-family="Helvetica,sans-Serif" font-size="14.00">0</text>
</g>
<!-- n01 -->
<g id="node10" class="node">
<title>n01</title>
<ellipse fill="none" stroke="black" cx="258.5" cy="-346.66" rx="48.17" ry="48.17"/>
<text text-anchor="middle" x="258.5" y="-350.46" font-family="Helvetica,sans-Serif" font-size="14.00">{01}</text>
<text text-anchor="middle" x="258.5" y="-335.46" font-family="Helvetica,sans-Serif" font-size="14.00">h(R+R)</text>
</g>
<!-- n0&#45;&gt;n01 -->
<g id="edge8" class="edge">
<title>n0&#45;&gt;n01</title>
<path fill="none" stroke="black" d="M258.5,-445.44C258.5,-432.66 258.5,-418.58 258.5,-405.17"/>
<polygon fill="black" stroke="black" points="262,-405.09 258.5,-395.09 255,-405.09 262,-405.09"/>
<text text-anchor="middle" x="263.5" y="-416.54" font-family="Helvetica,sans-Serif" font-size="14.00">1</text>
</g>
<!-- n0&#45;&gt;mA -->
<!-- mn0 -->
<!-- n0&#45;&gt;mn0 -->
<!-- n10 -->
<g id="node5" class="node">
<title>n10</title>
<ellipse fill="lightgray" stroke="red" cx="447.5" cy="-346.66" rx="48.17" ry="48.17"/>
<text text-anchor="middle" x="447.5" y="-350.46" font-family="Helvetica,sans-Serif" font-size="14.00">{10}</text>
<text text-anchor="middle" x="447.5" y="-335.46" font-family="Helvetica,sans-Serif" font-size="14.00">h(R+R)</text>
</g>
<!-- n1&#45;&gt;n10 -->
<g id="edge11" class="edge">
<title>n1&#45;&gt;n10</title>
<path fill="none" stroke="red" d="M447.5,-445.44C447.5,-432.66 447.5,-418.58 447.5,-405.17"/>
<polygon fill="red" stroke="red" points="451,-405.09 447.5,-395.09 444,-405.09 451,-405.09"/>
</g>
<!-- n11 -->
<g id="node13" class="node">
<title>n11</title>
<ellipse fill="none" stroke="black" cx="621.5" cy="-346.66" rx="48.17" ry="48.17"/>
<text text-anchor="middle" x="621.5" y="-350.46" font-family="Helvetica,sans-Serif" font-size="14.00">{11}</text>
<text text-anchor="middle" x="621.5" y="-335.46" font-family="Helvetica,sans-Serif" font-size="14.00">h(R+R)</text>
</g>
<!-- n1&#45;&gt;n11 -->
<g id="edge13" class="edge">
<title>n1&#45;&gt;n11</title>
<path fill="none" stroke="black" d="M482.71,-461.76C509.85,-439.44 547.56,-408.44 576.83,-384.38"/>
<polygon fill="black" stroke="black" points="579.34,-386.85 584.84,-377.8 574.89,-381.44 579.34,-386.85"/>
<text text-anchor="middle" x="544.5" y="-416.54" font-family="Helvetica,sans-Serif" font-size="14.00">1</text>
</g>
<!-- mn1 -->
<!-- n1&#45;&gt;mn1 -->
<!-- n001 -->
<g id="node6" class="node">
<title>n001</title>
<ellipse fill="none" stroke="black" cx="133.5" cy="-199.49" rx="48.17" ry="48.17"/>
<text text-anchor="middle" x="133.5" y="-203.29" font-family="Helvetica,sans-Serif" font-size="14.00">{001}</text>
<text text-anchor="middle" x="133.5" y="-188.29" font-family="Helvetica,sans-Serif" font-size="14.00">h(R+R)</text>
</g>
<!-- n00&#45;&gt;n001 -->
<g id="edge18" class="edge">
<title>n00&#45;&gt;n001</title>
<path fill="none" stroke="black" d="M99.6,-300.92C104.49,-286.43 109.97,-270.2 115.07,-255.08"/>
<polygon fill="black" stroke="black" points="118.48,-255.93 118.36,-245.33 111.85,-253.69 118.48,-255.93"/>
<text text-anchor="middle" x="115.5" y="-269.38" font-family="Helvetica,sans-Serif" font-size="14.00">1</text>
</g>
<!-- n00&#45;&gt;mn0 -->
<!-- n000 -->
<!-- n00&#45;&gt;n000 -->
<!-- mn00 -->
<!-- n00&#45;&gt;mn00 -->
<!-- n101 -->
<g id="node8" class="node">
<title>n101</title>
<ellipse fill="lightgray" stroke="red" cx="539.5" cy="-199.49" rx="48.17" ry="48.17"/>
<text text-anchor="middle" x="539.5" y="-203.29" font-family="Helvetica,sans-Serif" font-size="14.00">{101}</text>
<text text-anchor="middle" x="539.5" y="-188.29" font-family="Helvetica,sans-Serif" font-size="14.00">h(R+R)</text>
</g>
<!-- n10&#45;&gt;n101 -->
<g id="edge33" class="edge">
<title>n10&#45;&gt;n101</title>
<path fill="none" stroke="red" d="M472.88,-305.61C483.94,-288.15 497.01,-267.54 508.63,-249.2"/>
<polygon fill="red" stroke="red" points="511.8,-250.73 514.2,-240.41 505.89,-246.99 511.8,-250.73"/>
<text text-anchor="middle" x="501.5" y="-269.38" font-family="Helvetica,sans-Serif" font-size="14.00">1</text>
</g>
<!-- n10&#45;&gt;mn1 -->
<!-- n100 -->
<!-- n10&#45;&gt;n100 -->
<!-- mn10 -->
<!-- n10&#45;&gt;mn10 -->
<!-- n0011 -->
<g id="node7" class="node">
<title>n0011</title>
<ellipse fill="none" stroke="black" cx="221.5" cy="-50.2" rx="50.41" ry="50.41"/>
<text text-anchor="middle" x="221.5" y="-61.5" font-family="Helvetica,sans-Serif" font-size="14.00">{0011}</text>
<text text-anchor="middle" x="221.5" y="-46.5" font-family="Helvetica,sans-Serif" font-size="14.00">&quot;3&quot;</text>
<text text-anchor="middle" x="221.5" y="-31.5" font-family="Helvetica,sans-Serif" font-size="14.00">h(3)</text>
</g>
<!-- n001&#45;&gt;n0011 -->
<g id="edge38" class="edge">
<title>n001&#45;&gt;n0011</title>
<path fill="none" stroke="black" d="M157.78,-157.86C168.01,-140.73 180.03,-120.61 190.86,-102.48"/>
<polygon fill="black" stroke="black" points="193.95,-104.14 196.07,-93.76 187.94,-100.55 193.95,-104.14"/>
<text text-anchor="middle" x="185.5" y="-122.21" font-family="Helvetica,sans-Serif" font-size="14.00">1</text>
</g>
<!-- n0010 -->
<!-- n001&#45;&gt;n0010 -->
<!-- mn001 -->
<!-- n001&#45;&gt;mn001 -->
<!-- n1011 -->
<g id="node9" class="node">
<title>n1011</title>
<ellipse fill="lightgray" stroke="red" cx="629.5" cy="-50.2" rx="50.41" ry="50.41"/>
<text text-anchor="middle" x="629.5" y="-61.5" font-family="Helvetica,sans-Serif" font-size="14.00">{1011}</text>
<text text-anchor="middle" x="629.5" y="-46.5" font-family="Helvetica,sans-Serif" font-size="14.00">&quot;b&quot;</text>
<text text-anchor="middle" x="629.5" y="-31.5" font-family="Helvetica,sans-Serif" font-size="14.00">h(b)</text>
</g>
<!-- n101&#45;&gt;n1011 -->
<g id="edge48" class="edge">
<title>n101&#45;&gt;n1011</title>
<path fill="none" stroke="red" d="M564.33,-157.86C574.84,-140.66 587.2,-120.44 598.31,-102.25"/>
<polygon fill="red" stroke="red" points="601.42,-103.86 603.65,-93.51 595.45,-100.21 601.42,-103.86"/>
<text text-anchor="middle" x="591.5" y="-122.21" font-family="Helvetica,sans-Serif" font-size="14.00">1</text>
</g>
<!-- n1010 -->
<!-- n101&#45;&gt;n1010 -->
<!-- mn101 -->
<!-- n101&#45;&gt;mn101 -->
<!-- n011 -->
<g id="node11" class="node">
<title>n011</title>
<ellipse fill="none" stroke="black" cx="337.5" cy="-199.49" rx="48.17" ry="48.17"/>
<text text-anchor="middle" x="337.5" y="-203.29" font-family="Helvetica,sans-Serif" font-size="14.00">{011}</text>
<text text-anchor="middle" x="337.5" y="-188.29" font-family="Helvetica,sans-Serif" font-size="14.00">h(R+R)</text>
</g>
<!-- n01&#45;&gt;n011 -->
<g id="edge23" class="edge">
<title>n01&#45;&gt;n011</title>
<path fill="none" stroke="black" d="M281.14,-304.06C290.15,-287.51 300.59,-268.31 310.03,-250.97"/>
<polygon fill="black" stroke="black" points="313.15,-252.55 314.86,-242.1 307,-249.21 313.15,-252.55"/>
<text text-anchor="middle" x="305.5" y="-269.38" font-family="Helvetica,sans-Serif" font-size="14.00">1</text>
</g>
<!-- n010 -->
<!-- n01&#45;&gt;n010 -->
<!-- mn01 -->
<!-- n01&#45;&gt;mn01 -->
<!-- n0111 -->
<g id="node12" class="node">
<title>n0111</title>
<ellipse fill="none" stroke="black" cx="425.5" cy="-50.2" rx="50.41" ry="50.41"/>
<text text-anchor="middle" x="425.5" y="-61.5" font-family="Helvetica,sans-Serif" font-size="14.00">{0111}</text>
<text text-anchor="middle" x="425.5" y="-46.5" font-family="Helvetica,sans-Serif" font-size="14.00">&quot;7&quot;</text>
<text text-anchor="middle" x="425.5" y="-31.5" font-family="Helvetica,sans-Serif" font-size="14.00">h(7)</text>
</g>
<!-- n011&#45;&gt;n0111 -->
<g id="edge43" class="edge">
<title>n011&#45;&gt;n0111</title>
<path fill="none" stroke="black" d="M361.78,-157.86C372.01,-140.73 384.03,-120.61 394.86,-102.48"/>
<polygon fill="black" stroke="black" points="397.95,-104.14 400.07,-93.76 391.94,-100.55 397.95,-104.14"/>
<text text-anchor="middle" x="389.5" y="-122.21" font-family="Helvetica,sans-Serif" font-size="14.00">1</text>
</g>
<!-- n0110 -->
<!-- n011&#45;&gt;n0110 -->
<!-- mn011 -->
<!-- n011&#45;&gt;mn011 -->
<!-- n111 -->
<g id="node14" class="node">
<title>n111</title>
<ellipse fill="none" stroke="black" cx="748.5" cy="-199.49" rx="45.92" ry="45.92"/>
<text text-anchor="middle" x="748.5" y="-203.29" font-family="Helvetica,sans-Serif" font-size="14.00">{111}</text>
<text text-anchor="middle" x="748.5" y="-188.29" font-family="Helvetica,sans-Serif" font-size="14.00">h(L+R)</text>
</g>
<!-- n11&#45;&gt;n111 -->
<g id="edge28" class="edge">
<title>n11&#45;&gt;n111</title>
<path fill="none" stroke="black" d="M652.89,-309.78C670.69,-289.44 693.05,-263.88 711.67,-242.59"/>
<polygon fill="black" stroke="black" points="714.39,-244.79 718.34,-234.96 709.12,-240.19 714.39,-244.79"/>
<text text-anchor="middle" x="693.5" y="-269.38" font-family="Helvetica,sans-Serif" font-size="14.00">1</text>
</g>
<!-- n110 -->
<!-- n11&#45;&gt;n110 -->
<!-- mn11 -->
<!-- n11&#45;&gt;mn11 -->
<!-- n1111 -->
<g id="node15" class="node">
<title>n1111</title>
<ellipse fill="none" stroke="black" cx="925.5" cy="-50.2" rx="50.41" ry="50.41"/>
<text text-anchor="middle" x="925.5" y="-61.5" font-family="Helvetica,sans-Serif" font-size="14.00">{1111}</text>
<text text-anchor="middle" x="925.5" y="-46.5" font-family="Helvetica,sans-Serif" font-size="14.00">&quot;f&quot;</text>
<text text-anchor="middle" x="925.5" y="-31.5" font-family="Helvetica,sans-Serif" font-size="14.00">h(f)</text>
</g>
<!-- n111&#45;&gt;n1111 -->
<g id="edge53" class="edge">
<title>n111&#45;&gt;n1111</title>
<path fill="none" stroke="black" d="M783.47,-169.39C810.94,-146.54 849.42,-114.51 879.41,-89.56"/>
<polygon fill="black" stroke="black" points="881.78,-92.14 887.23,-83.05 877.3,-86.76 881.78,-92.14"/>
<text text-anchor="middle" x="846.5" y="-122.21" font-family="Helvetica,sans-Serif" font-size="14.00">1</text>
</g>
<!-- n1110 -->
<g id="node16" class="node">
<title>n1110</title>
<ellipse fill="none" stroke="black" cx="747.5" cy="-50.2" rx="50.41" ry="50.41"/>
<text text-anchor="middle" x="747.5" y="-61.5" font-family="Helvetica,sans-Serif" font-size="14.00">{1110}</text>
<text text-anchor="middle" x="747.5" y="-46.5" font-family="Helvetica,sans-Serif" font-size="14.00">&quot;e&quot;</text>
<text text-anchor="middle" x="747.5" y="-31.5" font-family="Helvetica,sans-Serif" font-size="14.00">h(e)</text>
</g>
<!-- n111&#45;&gt;n1110 -->
<g id="edge51" class="edge">
<title>n111&#45;&gt;n1110</title>
<path fill="none" stroke="black" d="M748.19,-153.5C748.1,-140.02 748,-125.03 747.9,-110.76"/>
<polygon fill="black" stroke="black" points="751.4,-110.51 747.83,-100.54 744.4,-110.56 751.4,-110.51"/>
<text text-anchor="middle" x="752.5" y="-122.21" font-family="Helvetica,sans-Serif" font-size="14.00">0</text>
</g>
<!-- mn111 -->
<!-- n111&#45;&gt;mn111 -->
<!-- n1110&#45;&gt;mn111 -->
<!-- mA&#45;&gt;n1 -->
<!-- mn0&#45;&gt;n01 -->
<!-- mn1&#45;&gt;n11 -->
<!-- n000&#45;&gt;mn00 -->
<!-- mn00&#45;&gt;n001 -->
<!-- n010&#45;&gt;mn01 -->
<!-- mn01&#45;&gt;n011 -->
<!-- n110&#45;&gt;mn11 -->
<!-- mn11&#45;&gt;n111 -->
<!-- n100&#45;&gt;mn10 -->
<!-- mn10&#45;&gt;n101 -->
<!-- n0010&#45;&gt;mn001 -->
<!-- mn001&#45;&gt;n0011 -->
<!-- n0110&#45;&gt;mn011 -->
<!-- mn011&#45;&gt;n0111 -->
<!-- n1010&#45;&gt;mn101 -->
<!-- mn101&#45;&gt;n1011 -->
<!-- mn111&#45;&gt;n1111 -->
</g>
</svg>
