<?xml version="1.0" encoding="UTF-8" standalone="no"?>
<!DOCTYPE svg PUBLIC "-//W3C//DTD SVG 1.1//EN"
 "http://www.w3.org/Graphics/SVG/1.1/DTD/svg11.dtd">
<!-- Generated by graphviz version 2.43.0 (0)
 -->
<!-- Title: D Pages: 1 -->
<svg width="667pt" height="546pt"
 viewBox="0.00 0.00 667.41 545.67" xmlns="http://www.w3.org/2000/svg" xmlns:xlink="http://www.w3.org/1999/xlink">
<g id="page0,1_graph0" class="graph" transform="scale(1 1) rotate(0) translate(4 541.67)">
<title>D</title>
<polygon fill="white" stroke="transparent" points="-4,4 -4,-541.67 663.41,-541.67 663.41,4 -4,4"/>
<!-- n -->
<g id="node1" class="node">
<title>n</title>
<ellipse fill="none" stroke="black" cx="280.2" cy="-491.7" rx="45.92" ry="45.92"/>
<text text-anchor="middle" x="280.2" y="-495.5" font-family="Helvetica,sans-Serif" font-size="14.00">{}</text>
<text text-anchor="middle" x="280.2" y="-480.5" font-family="Helvetica,sans-Serif" font-size="14.00">h(L+R)</text>
</g>
<!-- n0 -->
<g id="node2" class="node">
<title>n0</title>
<ellipse fill="none" stroke="black" cx="195.2" cy="-348.78" rx="45.92" ry="45.92"/>
<text text-anchor="middle" x="195.2" y="-352.58" font-family="Helvetica,sans-Serif" font-size="14.00">{0}</text>
<text text-anchor="middle" x="195.2" y="-337.58" font-family="Helvetica,sans-Serif" font-size="14.00">h(L+R)</text>
</g>
<!-- n&#45;&gt;n0 -->
<g id="edge1" class="edge">
<title>n&#45;&gt;n0</title>
<path fill="none" stroke="black" d="M256.75,-451.82C246.63,-435.03 234.68,-415.23 224.02,-397.56"/>
<polygon fill="black" stroke="black" points="226.74,-395.29 218.58,-388.53 220.75,-398.91 226.74,-395.29"/>
<text text-anchor="middle" x="246.2" y="-416.54" font-family="Helvetica,sans-Serif" font-size="14.00">0</text>
</g>
<!-- n1 -->
<g id="node3" class="node">
<title>n1</title>
<ellipse fill="none" stroke="red" cx="365.2" cy="-348.78" rx="45.92" ry="45.92"/>
<text text-anchor="middle" x="365.2" y="-352.58" font-family="Helvetica,sans-Serif" font-size="14.00">{1}</text>
<text text-anchor="middle" x="365.2" y="-337.58" font-family="Helvetica,sans-Serif" font-size="14.00">h(L+R)</text>
</g>
<!-- n&#45;&gt;n1 -->
<g id="edge3" class="edge">
<title>n&#45;&gt;n1</title>
<path fill="none" stroke="black" d="M303.66,-451.82C313.78,-435.03 325.73,-415.23 336.39,-397.56"/>
<polygon fill="black" stroke="black" points="339.66,-398.91 341.83,-388.53 333.67,-395.29 339.66,-398.91"/>
<text text-anchor="middle" x="331.2" y="-416.54" font-family="Helvetica,sans-Serif" font-size="14.00">1</text>
</g>
<!-- mA -->
<!-- n&#45;&gt;mA -->
<!-- n0011 -->
<g id="node4" class="node">
<title>n0011</title>
<ellipse fill="none" stroke="black" cx="50.2" cy="-201.61" rx="50.41" ry="50.41"/>
<text text-anchor="middle" x="50.2" y="-212.91" font-family="Helvetica,sans-Serif" font-size="14.00">{0011}</text>
<text text-anchor="middle" x="50.2" y="-197.91" font-family="Helvetica,sans-Serif" font-size="14.00">&quot;3&quot;</text>
<text text-anchor="middle" x="50.2" y="-182.91" font-family="Helvetica,sans-Serif" font-size="14.00">h(3)</text>
</g>
<!-- n0&#45;&gt;n0011 -->
<g id="edge6" class="edge">
<title>n0&#45;&gt;n0011</title>
<path fill="none" stroke="black" d="M163.02,-315.56C142.25,-294.76 114.99,-267.47 92.47,-244.93"/>
<polygon fill="black" stroke="black" points="94.88,-242.39 85.34,-237.79 89.93,-247.34 94.88,-242.39"/>
<text text-anchor="middle" x="146.2" y="-273.62" font-family="Helvetica,sans-Serif" font-size="14.00">011</text>
</g>
<!-- n0111 -->
<g id="node6" class="node">
<title>n0111</title>
<ellipse fill="none" stroke="black" cx="228.2" cy="-201.61" rx="50.41" ry="50.41"/>
<text text-anchor="middle" x="228.2" y="-212.91" font-family="Helvetica,sans-Serif" font-size="14.00">{0111}</text>
<text text-anchor="middle" x="228.2" y="-197.91" font-family="Helvetica,sans-Serif" font-size="14.00">&quot;7&quot;</text>
<text text-anchor="middle" x="228.2" y="-182.91" font-family="Helvetica,sans-Serif" font-size="14.00">h(7)</text>
</g>
<!-- n0&#45;&gt;n0111 -->
<g id="edge8" class="edge">
<title>n0&#45;&gt;n0111</title>
<path fill="none" stroke="black" d="M205.2,-303.83C208.29,-290.2 211.76,-274.97 215.04,-260.54"/>
<polygon fill="black" stroke="black" points="218.47,-261.24 217.27,-250.72 211.64,-259.69 218.47,-261.24"/>
<text text-anchor="middle" x="227.2" y="-273.62" font-family="Helvetica,sans-Serif" font-size="14.00">111</text>
</g>
<!-- n0&#45;&gt;mA -->
<!-- mn0 -->
<!-- n0&#45;&gt;mn0 -->
<!-- n1011 -->
<g id="node5" class="node">
<title>n1011</title>
<ellipse fill="none" stroke="red" cx="346.2" cy="-201.61" rx="50.41" ry="50.41"/>
<text text-anchor="middle" x="346.2" y="-212.91" font-family="Helvetica,sans-Serif" font-size="14.00">{1011}</text>
<text text-anchor="middle" x="346.2" y="-197.91" font-family="Helvetica,sans-Serif" font-size="14.00">&quot;b&quot;</text>
<text text-anchor="middle" x="346.2" y="-182.91" font-family="Helvetica,sans-Serif" font-size="14.00">h(b)</text>
</g>
<!-- n1&#45;&gt;n1011 -->
<g id="edge11" class="edge">
<title>n1&#45;&gt;n1011</title>
<path fill="none" stroke="red" d="M359.35,-303.04C357.63,-289.9 355.72,-275.33 353.91,-261.45"/>
<polygon fill="red" stroke="red" points="357.37,-260.96 352.6,-251.5 350.43,-261.87 357.37,-260.96"/>
<text text-anchor="middle" x="371.2" y="-273.62" font-family="Helvetica,sans-Serif" font-size="14.00">011</text>
</g>
<!-- n111 -->
<g id="node7" class="node">
<title>n111</title>
<ellipse fill="none" stroke="black" cx="520.2" cy="-201.61" rx="45.92" ry="45.92"/>
<text text-anchor="middle" x="520.2" y="-205.41" font-family="Helvetica,sans-Serif" font-size="14.00">{111}</text>
<text text-anchor="middle" x="520.2" y="-190.41" font-family="Helvetica,sans-Serif" font-size="14.00">h(L+R)</text>
</g>
<!-- n1&#45;&gt;n111 -->
<g id="edge13" class="edge">
<title>n1&#45;&gt;n111</title>
<path fill="none" stroke="black" d="M398.46,-316.64C422.16,-294.44 454.16,-264.47 479.41,-240.82"/>
<polygon fill="black" stroke="black" points="482.1,-243.09 487.01,-233.7 477.32,-237.99 482.1,-243.09"/>
<text text-anchor="middle" x="457.7" y="-273.62" font-family="Helvetica,sans-Serif" font-size="14.00">11</text>
</g>
<!-- mn1 -->
<!-- n1&#45;&gt;mn1 -->
<!-- n0011&#45;&gt;mn0 -->
<!-- n1011&#45;&gt;mn1 -->
<!-- n1111 -->
<g id="node8" class="node">
<title>n1111</title>
<ellipse fill="none" stroke="black" cx="609.2" cy="-50.2" rx="50.41" ry="50.41"/>
<text text-anchor="middle" x="609.2" y="-61.5" font-family="Helvetica,sans-Serif" font-size="14.00">{1111}</text>
<text text-anchor="middle" x="609.2" y="-46.5" font-family="Helvetica,sans-Serif" font-size="14.00">&quot;f&quot;</text>
<text text-anchor="middle" x="609.2" y="-31.5" font-family="Helvetica,sans-Serif" font-size="14.00">h(f)</text>
</g>
<!-- n111&#45;&gt;n1111 -->
<g id="edge18" class="edge">
<title>n111&#45;&gt;n1111</title>
<path fill="none" stroke="black" d="M543.36,-161.75C554.12,-143.68 567.07,-121.94 578.62,-102.54"/>
<polygon fill="black" stroke="black" points="581.71,-104.2 583.82,-93.82 575.7,-100.62 581.71,-104.2"/>
<text text-anchor="middle" x="572.2" y="-122.21" font-family="Helvetica,sans-Serif" font-size="14.00">1</text>
</g>
<!-- n1110 -->
<g id="node9" class="node">
<title>n1110</title>
<ellipse fill="none" stroke="black" cx="431.2" cy="-50.2" rx="50.41" ry="50.41"/>
<text text-anchor="middle" x="431.2" y="-61.5" font-family="Helvetica,sans-Serif" font-size="14.00">{1110}</text>
<text text-anchor="middle" x="431.2" y="-46.5" font-family="Helvetica,sans-Serif" font-size="14.00">&quot;e&quot;</text>
<text text-anchor="middle" x="431.2" y="-31.5" font-family="Helvetica,sans-Serif" font-size="14.00">h(e)</text>
</g>
<!-- n111&#45;&gt;n1110 -->
<g id="edge16" class="edge">
<title>n111&#45;&gt;n1110</title>
<path fill="none" stroke="black" d="M497.05,-161.75C486.29,-143.68 473.34,-121.94 461.79,-102.54"/>
<polygon fill="black" stroke="black" points="464.71,-100.62 456.59,-93.82 458.7,-104.2 464.71,-100.62"/>
<text text-anchor="middle" x="484.2" y="-122.21" font-family="Helvetica,sans-Serif" font-size="14.00">0</text>
</g>
<!-- mn111 -->
<!-- n111&#45;&gt;mn111 -->
<!-- n1110&#45;&gt;mn111 -->
<!-- mA&#45;&gt;n1 -->
<!-- mn0&#45;&gt;n0111 -->
<!-- mn1&#45;&gt;n111 -->
<!-- mn111&#45;&gt;n1111 -->
</g>
</svg>
