<?xml version="1.0" encoding="UTF-8" standalone="no"?>
<!DOCTYPE svg PUBLIC "-//W3C//DTD SVG 1.1//EN"
 "http://www.w3.org/Graphics/SVG/1.1/DTD/svg11.dtd">
<!-- Generated by graphviz version 2.43.0 (0)
 -->
<!-- Title: C Pages: 1 -->
<svg width="582pt" height="394pt"
 viewBox="0.00 0.00 582.41 394.26" xmlns="http://www.w3.org/2000/svg" xmlns:xlink="http://www.w3.org/1999/xlink">
<g id="page0,1_graph0" class="graph" transform="scale(1 1) rotate(0) translate(4 390.26)">
<title>C</title>
<polygon fill="white" stroke="transparent" points="-4,4 -4,-390.26 578.41,-390.26 578.41,4 -4,4"/>
<!-- n -->
<g id="node1" class="node">
<title>n</title>
<ellipse fill="none" stroke="black" cx="280.2" cy="-340.29" rx="45.92" ry="45.92"/>
<text text-anchor="middle" x="280.2" y="-344.09" font-family="Helvetica,sans-Serif" font-size="14.00">{}</text>
<text text-anchor="middle" x="280.2" y="-329.09" font-family="Helvetica,sans-Serif" font-size="14.00">h(L+R)</text>
</g>
<!-- n0 -->
<g id="node2" class="node">
<title>n0</title>
<ellipse fill="none" stroke="black" cx="195.2" cy="-197.37" rx="45.92" ry="45.92"/>
<text text-anchor="middle" x="195.2" y="-201.17" font-family="Helvetica,sans-Serif" font-size="14.00">{0}</text>
<text text-anchor="middle" x="195.2" y="-186.17" font-family="Helvetica,sans-Serif" font-size="14.00">h(L+R)</text>
</g>
<!-- n&#45;&gt;n0 -->
<g id="edge1" class="edge">
<title>n&#45;&gt;n0</title>
<path fill="none" stroke="black" d="M256.75,-300.41C246.63,-283.62 234.68,-263.82 224.02,-246.15"/>
<polygon fill="black" stroke="black" points="226.74,-243.88 218.58,-237.13 220.75,-247.5 226.74,-243.88"/>
<text text-anchor="middle" x="246.2" y="-265.13" font-family="Helvetica,sans-Serif" font-size="14.00">0</text>
</g>
<!-- n111 -->
<g id="node5" class="node">
<title>n111</title>
<ellipse fill="none" stroke="black" cx="365.2" cy="-197.37" rx="45.92" ry="45.92"/>
<text text-anchor="middle" x="365.2" y="-201.17" font-family="Helvetica,sans-Serif" font-size="14.00">{111}</text>
<text text-anchor="middle" x="365.2" y="-186.17" font-family="Helvetica,sans-Serif" font-size="14.00">h(L+R)</text>
</g>
<!-- n&#45;&gt;n111 -->
<g id="edge3" class="edge">
<title>n&#45;&gt;n111</title>
<path fill="none" stroke="black" d="M303.66,-300.41C313.78,-283.62 325.73,-263.82 336.39,-246.15"/>
<polygon fill="black" stroke="black" points="339.66,-247.5 341.83,-237.13 333.67,-243.88 339.66,-247.5"/>
<text text-anchor="middle" x="340.2" y="-265.13" font-family="Helvetica,sans-Serif" font-size="14.00">111</text>
</g>
<!-- mA -->
<!-- n&#45;&gt;mA -->
<!-- n0011 -->
<g id="node3" class="node">
<title>n0011</title>
<ellipse fill="none" stroke="black" cx="50.2" cy="-50.2" rx="50.41" ry="50.41"/>
<text text-anchor="middle" x="50.2" y="-61.5" font-family="Helvetica,sans-Serif" font-size="14.00">{0011}</text>
<text text-anchor="middle" x="50.2" y="-46.5" font-family="Helvetica,sans-Serif" font-size="14.00">&quot;3&quot;</text>
<text text-anchor="middle" x="50.2" y="-31.5" font-family="Helvetica,sans-Serif" font-size="14.00">h(3)</text>
</g>
<!-- n0&#45;&gt;n0011 -->
<g id="edge6" class="edge">
<title>n0&#45;&gt;n0011</title>
<path fill="none" stroke="black" d="M163.02,-164.15C142.25,-143.35 114.99,-116.06 92.47,-93.52"/>
<polygon fill="black" stroke="black" points="94.88,-90.98 85.34,-86.38 89.93,-95.93 94.88,-90.98"/>
<text text-anchor="middle" x="146.2" y="-122.21" font-family="Helvetica,sans-Serif" font-size="14.00">011</text>
</g>
<!-- n0111 -->
<g id="node4" class="node">
<title>n0111</title>
<ellipse fill="none" stroke="black" cx="228.2" cy="-50.2" rx="50.41" ry="50.41"/>
<text text-anchor="middle" x="228.2" y="-61.5" font-family="Helvetica,sans-Serif" font-size="14.00">{0111}</text>
<text text-anchor="middle" x="228.2" y="-46.5" font-family="Helvetica,sans-Serif" font-size="14.00">&quot;7&quot;</text>
<text text-anchor="middle" x="228.2" y="-31.5" font-family="Helvetica,sans-Serif" font-size="14.00">h(7)</text>
</g>
<!-- n0&#45;&gt;n0111 -->
<g id="edge8" class="edge">
<title>n0&#45;&gt;n0111</title>
<path fill="none" stroke="black" d="M205.2,-152.42C208.29,-138.79 211.76,-123.56 215.04,-109.14"/>
<polygon fill="black" stroke="black" points="218.47,-109.83 217.27,-99.31 211.64,-108.28 218.47,-109.83"/>
<text text-anchor="middle" x="227.2" y="-122.21" font-family="Helvetica,sans-Serif" font-size="14.00">111</text>
</g>
<!-- n0&#45;&gt;mA -->
<!-- mn0 -->
<!-- n0&#45;&gt;mn0 -->
<!-- n0011&#45;&gt;mn0 -->
<!-- n1111 -->
<g id="node6" class="node">
<title>n1111</title>
<ellipse fill="none" stroke="black" cx="524.2" cy="-50.2" rx="50.41" ry="50.41"/>
<text text-anchor="middle" x="524.2" y="-61.5" font-family="Helvetica,sans-Serif" font-size="14.00">{1111}</text>
<text text-anchor="middle" x="524.2" y="-46.5" font-family="Helvetica,sans-Serif" font-size="14.00">&quot;f&quot;</text>
<text text-anchor="middle" x="524.2" y="-31.5" font-family="Helvetica,sans-Serif" font-size="14.00">h(f)</text>
</g>
<!-- n111&#45;&gt;n1111 -->
<g id="edge13" class="edge">
<title>n111&#45;&gt;n1111</title>
<path fill="none" stroke="black" d="M398.92,-165.59C422.57,-144 454.41,-114.92 480.08,-91.49"/>
<polygon fill="black" stroke="black" points="482.46,-94.06 487.48,-84.73 477.74,-88.89 482.46,-94.06"/>
<text text-anchor="middle" x="454.2" y="-122.21" font-family="Helvetica,sans-Serif" font-size="14.00">1</text>
</g>
<!-- n1110 -->
<g id="node7" class="node">
<title>n1110</title>
<ellipse fill="none" stroke="black" cx="346.2" cy="-50.2" rx="50.41" ry="50.41"/>
<text text-anchor="middle" x="346.2" y="-61.5" font-family="Helvetica,sans-Serif" font-size="14.00">{1110}</text>
<text text-anchor="middle" x="346.2" y="-46.5" font-family="Helvetica,sans-Serif" font-size="14.00">&quot;e&quot;</text>
<text text-anchor="middle" x="346.2" y="-31.5" font-family="Helvetica,sans-Serif" font-size="14.00">h(e)</text>
</g>
<!-- n111&#45;&gt;n1110 -->
<g id="edge11" class="edge">
<title>n111&#45;&gt;n1110</title>
<path fill="none" stroke="black" d="M359.35,-151.63C357.63,-138.49 355.72,-123.92 353.91,-110.04"/>
<polygon fill="black" stroke="black" points="357.37,-109.55 352.6,-100.09 350.43,-110.46 357.37,-109.55"/>
<text text-anchor="middle" x="362.2" y="-122.21" font-family="Helvetica,sans-Serif" font-size="14.00">0</text>
</g>
<!-- mn111 -->
<!-- n111&#45;&gt;mn111 -->
<!-- n1110&#45;&gt;mn111 -->
<!-- mA&#45;&gt;n111 -->
<!-- mn0&#45;&gt;n0111 -->
<!-- mn111&#45;&gt;n1111 -->
</g>
</svg>
