<?xml version="1.0" encoding="UTF-8" standalone="no"?>
<!DOCTYPE svg PUBLIC "-//W3C//DTD SVG 1.1//EN"
 "http://www.w3.org/Graphics/SVG/1.1/DTD/svg11.dtd">
<!-- Generated by graphviz version 2.43.0 (0)
 -->
<!-- Title: A Pages: 1 -->
<svg width="774pt" height="680pt"
 viewBox="0.00 0.00 773.70 680.10" xmlns="http://www.w3.org/2000/svg" xmlns:xlink="http://www.w3.org/1999/xlink">
<g id="graph0" class="graph" transform="scale(1 1) rotate(0) translate(4 676.1)">
<title>A</title>
<polygon fill="white" stroke="transparent" points="-4,4 -4,-676.1 769.7,-676.1 769.7,4 -4,4"/>
<!-- n -->
<g id="node1" class="node">
<title>n</title>
<ellipse fill="none" stroke="black" cx="288.5" cy="-626.14" rx="45.92" ry="45.92"/>
<text text-anchor="middle" x="288.5" y="-629.94" font-family="Helvetica,sans-Serif" font-size="14.00">{}</text>
<text text-anchor="middle" x="288.5" y="-614.94" font-family="Helvetica,sans-Serif" font-size="14.00">h(L+R)</text>
</g>
<!-- n0 -->
<g id="node2" class="node">
<title>n0</title>
<ellipse fill="none" stroke="black" cx="203.5" cy="-483.22" rx="45.92" ry="45.92"/>
<text text-anchor="middle" x="203.5" y="-487.02" font-family="Helvetica,sans-Serif" font-size="14.00">{0}</text>
<text text-anchor="middle" x="203.5" y="-472.02" font-family="Helvetica,sans-Serif" font-size="14.00">h(L+R)</text>
</g>
<!-- n&#45;&gt;n0 -->
<g id="edge1" class="edge">
<title>n&#45;&gt;n0</title>
<path fill="none" stroke="black" d="M265.05,-586.26C254.92,-569.47 242.98,-549.67 232.32,-531.99"/>
<polygon fill="black" stroke="black" points="235.04,-529.73 226.88,-522.97 229.04,-533.34 235.04,-529.73"/>
<text text-anchor="middle" x="254.5" y="-550.98" font-family="Helvetica,sans-Serif" font-size="14.00">0</text>
</g>
<!-- n1 -->
<g id="node3" class="node">
<title>n1</title>
<ellipse fill="none" stroke="black" cx="373.5" cy="-483.22" rx="45.92" ry="45.92"/>
<text text-anchor="middle" x="373.5" y="-487.02" font-family="Helvetica,sans-Serif" font-size="14.00">{1}</text>
<text text-anchor="middle" x="373.5" y="-472.02" font-family="Helvetica,sans-Serif" font-size="14.00">h(L+R)</text>
</g>
<!-- n&#45;&gt;n1 -->
<g id="edge3" class="edge">
<title>n&#45;&gt;n1</title>
<path fill="none" stroke="black" d="M311.95,-586.26C322.08,-569.47 334.02,-549.67 344.68,-531.99"/>
<polygon fill="black" stroke="black" points="347.96,-533.34 350.12,-522.97 341.96,-529.73 347.96,-533.34"/>
<text text-anchor="middle" x="339.5" y="-550.98" font-family="Helvetica,sans-Serif" font-size="14.00">1</text>
</g>
<!-- mA -->
<!-- n&#45;&gt;mA -->
<!-- n00 -->
<g id="node4" class="node">
<title>n00</title>
<ellipse fill="none" stroke="black" cx="75.5" cy="-340.29" rx="45.92" ry="45.92"/>
<text text-anchor="middle" x="75.5" y="-344.09" font-family="Helvetica,sans-Serif" font-size="14.00">{00}</text>
<text text-anchor="middle" x="75.5" y="-329.09" font-family="Helvetica,sans-Serif" font-size="14.00">h(L+R)</text>
</g>
<!-- n0&#45;&gt;n00 -->
<g id="edge6" class="edge">
<title>n0&#45;&gt;n00</title>
<path fill="none" stroke="black" d="M172.84,-448.46C154.79,-428.59 131.84,-403.32 112.75,-382.31"/>
<polygon fill="black" stroke="black" points="115.22,-379.82 105.91,-374.77 110.04,-384.53 115.22,-379.82"/>
<text text-anchor="middle" x="148.5" y="-408.06" font-family="Helvetica,sans-Serif" font-size="14.00">0</text>
</g>
<!-- n01 -->
<g id="node7" class="node">
<title>n01</title>
<ellipse fill="none" stroke="black" cx="245.5" cy="-340.29" rx="45.92" ry="45.92"/>
<text text-anchor="middle" x="245.5" y="-344.09" font-family="Helvetica,sans-Serif" font-size="14.00">{01}</text>
<text text-anchor="middle" x="245.5" y="-329.09" font-family="Helvetica,sans-Serif" font-size="14.00">h(L+R)</text>
</g>
<!-- n0&#45;&gt;n01 -->
<g id="edge8" class="edge">
<title>n0&#45;&gt;n01</title>
<path fill="none" stroke="black" d="M216.44,-438.79C220.6,-424.86 225.24,-409.27 229.58,-394.71"/>
<polygon fill="black" stroke="black" points="233.02,-395.41 232.53,-384.83 226.32,-393.41 233.02,-395.41"/>
<text text-anchor="middle" x="231.5" y="-408.06" font-family="Helvetica,sans-Serif" font-size="14.00">1</text>
</g>
<!-- n0&#45;&gt;mA -->
<!-- mn0 -->
<!-- n0&#45;&gt;mn0 -->
<!-- n11 -->
<g id="node10" class="node">
<title>n11</title>
<ellipse fill="none" stroke="black" cx="480.5" cy="-340.29" rx="45.92" ry="45.92"/>
<text text-anchor="middle" x="480.5" y="-344.09" font-family="Helvetica,sans-Serif" font-size="14.00">{11}</text>
<text text-anchor="middle" x="480.5" y="-329.09" font-family="Helvetica,sans-Serif" font-size="14.00">h(L+R)</text>
</g>
<!-- n1&#45;&gt;n11 -->
<g id="edge13" class="edge">
<title>n1&#45;&gt;n11</title>
<path fill="none" stroke="black" d="M401.06,-445.93C415.03,-427.52 432.13,-405 446.88,-385.58"/>
<polygon fill="black" stroke="black" points="449.78,-387.54 453.04,-377.46 444.2,-383.31 449.78,-387.54"/>
<text text-anchor="middle" x="434.5" y="-408.06" font-family="Helvetica,sans-Serif" font-size="14.00">1</text>
</g>
<!-- n10 -->
<!-- n1&#45;&gt;n10 -->
<!-- mn1 -->
<!-- n1&#45;&gt;mn1 -->
<!-- n001 -->
<g id="node5" class="node">
<title>n001</title>
<ellipse fill="none" stroke="black" cx="131.5" cy="-197.37" rx="45.92" ry="45.92"/>
<text text-anchor="middle" x="131.5" y="-201.17" font-family="Helvetica,sans-Serif" font-size="14.00">{001}</text>
<text text-anchor="middle" x="131.5" y="-186.17" font-family="Helvetica,sans-Serif" font-size="14.00">h(L+R)</text>
</g>
<!-- n00&#45;&gt;n001 -->
<g id="edge18" class="edge">
<title>n00&#45;&gt;n001</title>
<path fill="none" stroke="black" d="M92.15,-297.39C98.08,-282.48 104.82,-265.51 111.03,-249.88"/>
<polygon fill="black" stroke="black" points="114.38,-250.94 114.82,-240.35 107.87,-248.35 114.38,-250.94"/>
<text text-anchor="middle" x="110.5" y="-265.13" font-family="Helvetica,sans-Serif" font-size="14.00">1</text>
</g>
<!-- n00&#45;&gt;mn0 -->
<!-- n000 -->
<!-- n00&#45;&gt;n000 -->
<!-- mn00 -->
<!-- n00&#45;&gt;mn00 -->
<!-- n0011 -->
<g id="node6" class="node">
<title>n0011</title>
<ellipse fill="none" stroke="black" cx="215.5" cy="-50.2" rx="50.41" ry="50.41"/>
<text text-anchor="middle" x="215.5" y="-61.5" font-family="Helvetica,sans-Serif" font-size="14.00">{0011}</text>
<text text-anchor="middle" x="215.5" y="-46.5" font-family="Helvetica,sans-Serif" font-size="14.00">&quot;3&quot;</text>
<text text-anchor="middle" x="215.5" y="-31.5" font-family="Helvetica,sans-Serif" font-size="14.00">h(3)</text>
</g>
<!-- n001&#45;&gt;n0011 -->
<g id="edge33" class="edge">
<title>n001&#45;&gt;n0011</title>
<path fill="none" stroke="black" d="M154.23,-157.09C163.83,-140.5 175.14,-120.95 185.42,-103.19"/>
<polygon fill="black" stroke="black" points="188.71,-104.5 190.68,-94.09 182.65,-100.99 188.71,-104.5"/>
<text text-anchor="middle" x="181.5" y="-122.21" font-family="Helvetica,sans-Serif" font-size="14.00">1</text>
</g>
<!-- n0010 -->
<!-- n001&#45;&gt;n0010 -->
<!-- mn001 -->
<!-- n001&#45;&gt;mn001 -->
<!-- n011 -->
<g id="node8" class="node">
<title>n011</title>
<ellipse fill="none" stroke="black" cx="330.5" cy="-197.37" rx="45.92" ry="45.92"/>
<text text-anchor="middle" x="330.5" y="-201.17" font-family="Helvetica,sans-Serif" font-size="14.00">{011}</text>
<text text-anchor="middle" x="330.5" y="-186.17" font-family="Helvetica,sans-Serif" font-size="14.00">h(L+R)</text>
</g>
<!-- n01&#45;&gt;n011 -->
<g id="edge23" class="edge">
<title>n01&#45;&gt;n011</title>
<path fill="none" stroke="black" d="M268.95,-300.41C279.08,-283.62 291.02,-263.82 301.68,-246.15"/>
<polygon fill="black" stroke="black" points="304.96,-247.5 307.12,-237.13 298.96,-243.88 304.96,-247.5"/>
<text text-anchor="middle" x="296.5" y="-265.13" font-family="Helvetica,sans-Serif" font-size="14.00">1</text>
</g>
<!-- n010 -->
<!-- n01&#45;&gt;n010 -->
<!-- mn01 -->
<!-- n01&#45;&gt;mn01 -->
<!-- n0111 -->
<g id="node9" class="node">
<title>n0111</title>
<ellipse fill="none" stroke="black" cx="419.5" cy="-50.2" rx="50.41" ry="50.41"/>
<text text-anchor="middle" x="419.5" y="-61.5" font-family="Helvetica,sans-Serif" font-size="14.00">{0111}</text>
<text text-anchor="middle" x="419.5" y="-46.5" font-family="Helvetica,sans-Serif" font-size="14.00">&quot;7&quot;</text>
<text text-anchor="middle" x="419.5" y="-31.5" font-family="Helvetica,sans-Serif" font-size="14.00">h(7)</text>
</g>
<!-- n011&#45;&gt;n0111 -->
<g id="edge38" class="edge">
<title>n011&#45;&gt;n0111</title>
<path fill="none" stroke="black" d="M354.12,-157.85C364.56,-140.81 376.99,-120.54 388.19,-102.27"/>
<polygon fill="black" stroke="black" points="391.34,-103.84 393.58,-93.48 385.37,-100.18 391.34,-103.84"/>
<text text-anchor="middle" x="382.5" y="-122.21" font-family="Helvetica,sans-Serif" font-size="14.00">1</text>
</g>
<!-- n0110 -->
<!-- n011&#45;&gt;n0110 -->
<!-- mn011 -->
<!-- n011&#45;&gt;mn011 -->
<!-- n111 -->
<g id="node11" class="node">
<title>n111</title>
<ellipse fill="none" stroke="black" cx="582.5" cy="-197.37" rx="45.92" ry="45.92"/>
<text text-anchor="middle" x="582.5" y="-201.17" font-family="Helvetica,sans-Serif" font-size="14.00">{111}</text>
<text text-anchor="middle" x="582.5" y="-186.17" font-family="Helvetica,sans-Serif" font-size="14.00">h(L+R)</text>
</g>
<!-- n11&#45;&gt;n111 -->
<g id="edge28" class="edge">
<title>n11&#45;&gt;n111</title>
<path fill="none" stroke="black" d="M507.03,-302.64C520.09,-284.59 535.96,-262.67 549.77,-243.6"/>
<polygon fill="black" stroke="black" points="552.72,-245.49 555.75,-235.34 547.05,-241.38 552.72,-245.49"/>
<text text-anchor="middle" x="539.5" y="-265.13" font-family="Helvetica,sans-Serif" font-size="14.00">1</text>
</g>
<!-- n110 -->
<!-- n11&#45;&gt;n110 -->
<!-- mn11 -->
<!-- n11&#45;&gt;mn11 -->
<!-- n1111 -->
<g id="node12" class="node">
<title>n1111</title>
<ellipse fill="none" stroke="black" cx="715.5" cy="-50.2" rx="50.41" ry="50.41"/>
<text text-anchor="middle" x="715.5" y="-61.5" font-family="Helvetica,sans-Serif" font-size="14.00">{1111}</text>
<text text-anchor="middle" x="715.5" y="-46.5" font-family="Helvetica,sans-Serif" font-size="14.00">&quot;f&quot;</text>
<text text-anchor="middle" x="715.5" y="-31.5" font-family="Helvetica,sans-Serif" font-size="14.00">h(f)</text>
</g>
<!-- n111&#45;&gt;n1111 -->
<g id="edge43" class="edge">
<title>n111&#45;&gt;n1111</title>
<path fill="none" stroke="black" d="M613.35,-162.7C631.74,-142.62 655.31,-116.9 675.17,-95.23"/>
<polygon fill="black" stroke="black" points="677.85,-97.48 682.02,-87.74 672.69,-92.75 677.85,-97.48"/>
<text text-anchor="middle" x="657.5" y="-122.21" font-family="Helvetica,sans-Serif" font-size="14.00">1</text>
</g>
<!-- n1110 -->
<g id="node13" class="node">
<title>n1110</title>
<ellipse fill="none" stroke="black" cx="537.5" cy="-50.2" rx="50.41" ry="50.41"/>
<text text-anchor="middle" x="537.5" y="-61.5" font-family="Helvetica,sans-Serif" font-size="14.00">{1110}</text>
<text text-anchor="middle" x="537.5" y="-46.5" font-family="Helvetica,sans-Serif" font-size="14.00">&quot;e&quot;</text>
<text text-anchor="middle" x="537.5" y="-31.5" font-family="Helvetica,sans-Serif" font-size="14.00">h(e)</text>
</g>
<!-- n111&#45;&gt;n1110 -->
<g id="edge41" class="edge">
<title>n111&#45;&gt;n1110</title>
<path fill="none" stroke="black" d="M569.12,-153.21C564.72,-139.02 559.76,-123.02 555.1,-107.97"/>
<polygon fill="black" stroke="black" points="558.39,-106.77 552.08,-98.25 551.7,-108.84 558.39,-106.77"/>
<text text-anchor="middle" x="567.5" y="-122.21" font-family="Helvetica,sans-Serif" font-size="14.00">0</text>
</g>
<!-- mn111 -->
<!-- n111&#45;&gt;mn111 -->
<!-- n1110&#45;&gt;mn111 -->
<!-- mA&#45;&gt;n1 -->
<!-- mn0&#45;&gt;n01 -->
<!-- n10&#45;&gt;mn1 -->
<!-- mn1&#45;&gt;n11 -->
<!-- n000&#45;&gt;mn00 -->
<!-- mn00&#45;&gt;n001 -->
<!-- n010&#45;&gt;mn01 -->
<!-- mn01&#45;&gt;n011 -->
<!-- n110&#45;&gt;mn11 -->
<!-- mn11&#45;&gt;n111 -->
<!-- n0010&#45;&gt;mn001 -->
<!-- mn001&#45;&gt;n0011 -->
<!-- n0110&#45;&gt;mn011 -->
<!-- mn011&#45;&gt;n0111 -->
<!-- mn111&#45;&gt;n1111 -->
</g>
</svg>
