<?xml version="1.0" encoding="UTF-8" standalone="no"?>
<!DOCTYPE svg PUBLIC "-//W3C//DTD SVG 1.1//EN"
 "http://www.w3.org/Graphics/SVG/1.1/DTD/svg11.dtd">
<!-- Generated by graphviz version 2.43.0 (0)
 -->
<!-- Title: A Pages: 1 -->
<svg width="779pt" height="693pt"
 viewBox="0.00 0.00 778.70 692.83" xmlns="http://www.w3.org/2000/svg" xmlns:xlink="http://www.w3.org/1999/xlink">
<g id="graph0" class="graph" transform="scale(1 1) rotate(0) translate(4 688.83)">
<title>A</title>
<polygon fill="white" stroke="transparent" points="-4,4 -4,-688.83 774.7,-688.83 774.7,4 -4,4"/>
<!-- n -->
<g id="node1" class="node">
<title>n</title>
<ellipse fill="none" stroke="black" cx="290.5" cy="-638.87" rx="45.92" ry="45.92"/>
<text text-anchor="middle" x="290.5" y="-642.67" font-family="Helvetica,sans-Serif" font-size="14.00">{}</text>
<text text-anchor="middle" x="290.5" y="-627.67" font-family="Helvetica,sans-Serif" font-size="14.00">h(L+R)</text>
</g>
<!-- n0 -->
<g id="node2" class="node">
<title>n0</title>
<ellipse fill="none" stroke="black" cx="205.5" cy="-493.83" rx="45.92" ry="45.92"/>
<text text-anchor="middle" x="205.5" y="-497.63" font-family="Helvetica,sans-Serif" font-size="14.00">{0}</text>
<text text-anchor="middle" x="205.5" y="-482.63" font-family="Helvetica,sans-Serif" font-size="14.00">h(L+R)</text>
</g>
<!-- n&#45;&gt;n0 -->
<g id="edge1" class="edge">
<title>n&#45;&gt;n0</title>
<path fill="none" stroke="black" d="M267.27,-598.78C256.97,-581.44 244.74,-560.86 233.9,-542.61"/>
<polygon fill="black" stroke="black" points="236.82,-540.67 228.7,-533.87 230.8,-544.25 236.82,-540.67"/>
<text text-anchor="middle" x="256.5" y="-563.71" font-family="Helvetica,sans-Serif" font-size="14.00">0</text>
</g>
<!-- n1 -->
<g id="node3" class="node">
<title>n1</title>
<ellipse fill="none" stroke="black" cx="377.5" cy="-493.83" rx="48.17" ry="48.17"/>
<text text-anchor="middle" x="377.5" y="-497.63" font-family="Helvetica,sans-Serif" font-size="14.00">{1}</text>
<text text-anchor="middle" x="377.5" y="-482.63" font-family="Helvetica,sans-Serif" font-size="14.00">h(R+R)</text>
</g>
<!-- n&#45;&gt;n1 -->
<g id="edge3" class="edge">
<title>n&#45;&gt;n1</title>
<path fill="none" stroke="black" d="M314.04,-599.16C324.38,-582.17 336.63,-562.02 347.61,-543.98"/>
<polygon fill="black" stroke="black" points="350.67,-545.68 352.87,-535.32 344.69,-542.04 350.67,-545.68"/>
<text text-anchor="middle" x="342.5" y="-563.71" font-family="Helvetica,sans-Serif" font-size="14.00">1</text>
</g>
<!-- mA -->
<!-- n&#45;&gt;mA -->
<!-- n00 -->
<g id="node4" class="node">
<title>n00</title>
<ellipse fill="none" stroke="black" cx="74.5" cy="-346.66" rx="48.17" ry="48.17"/>
<text text-anchor="middle" x="74.5" y="-350.46" font-family="Helvetica,sans-Serif" font-size="14.00">{00}</text>
<text text-anchor="middle" x="74.5" y="-335.46" font-family="Helvetica,sans-Serif" font-size="14.00">h(R+R)</text>
</g>
<!-- n0&#45;&gt;n00 -->
<g id="edge6" class="edge">
<title>n0&#45;&gt;n00</title>
<path fill="none" stroke="black" d="M175.12,-459.16C156.66,-438.7 132.92,-412.39 113.13,-390.47"/>
<polygon fill="black" stroke="black" points="115.61,-387.99 106.32,-382.92 110.42,-392.68 115.61,-387.99"/>
<text text-anchor="middle" x="149.5" y="-416.54" font-family="Helvetica,sans-Serif" font-size="14.00">0</text>
</g>
<!-- n01 -->
<g id="node7" class="node">
<title>n01</title>
<ellipse fill="none" stroke="black" cx="248.5" cy="-346.66" rx="48.17" ry="48.17"/>
<text text-anchor="middle" x="248.5" y="-350.46" font-family="Helvetica,sans-Serif" font-size="14.00">{01}</text>
<text text-anchor="middle" x="248.5" y="-335.46" font-family="Helvetica,sans-Serif" font-size="14.00">h(R+R)</text>
</g>
<!-- n0&#45;&gt;n01 -->
<g id="edge8" class="edge">
<title>n0&#45;&gt;n01</title>
<path fill="none" stroke="black" d="M218.28,-449.66C222.63,-434.99 227.55,-418.39 232.14,-402.91"/>
<polygon fill="black" stroke="black" points="235.61,-403.51 235.09,-392.92 228.9,-401.52 235.61,-403.51"/>
<text text-anchor="middle" x="233.5" y="-416.54" font-family="Helvetica,sans-Serif" font-size="14.00">1</text>
</g>
<!-- n0&#45;&gt;mA -->
<!-- mn0 -->
<!-- n0&#45;&gt;mn0 -->
<!-- n11 -->
<g id="node10" class="node">
<title>n11</title>
<ellipse fill="none" stroke="black" cx="486.5" cy="-346.66" rx="48.17" ry="48.17"/>
<text text-anchor="middle" x="486.5" y="-350.46" font-family="Helvetica,sans-Serif" font-size="14.00">{11}</text>
<text text-anchor="middle" x="486.5" y="-335.46" font-family="Helvetica,sans-Serif" font-size="14.00">h(R+R)</text>
</g>
<!-- n1&#45;&gt;n11 -->
<g id="edge13" class="edge">
<title>n1&#45;&gt;n11</title>
<path fill="none" stroke="black" d="M406.14,-454.68C420.16,-436.01 437.15,-413.39 451.89,-393.75"/>
<polygon fill="black" stroke="black" points="454.85,-395.64 458.05,-385.55 449.25,-391.44 454.85,-395.64"/>
<text text-anchor="middle" x="439.5" y="-416.54" font-family="Helvetica,sans-Serif" font-size="14.00">1</text>
</g>
<!-- n10 -->
<!-- n1&#45;&gt;n10 -->
<!-- mn1 -->
<!-- n1&#45;&gt;mn1 -->
<!-- n001 -->
<g id="node5" class="node">
<title>n001</title>
<ellipse fill="none" stroke="black" cx="133.5" cy="-199.49" rx="48.17" ry="48.17"/>
<text text-anchor="middle" x="133.5" y="-203.29" font-family="Helvetica,sans-Serif" font-size="14.00">{001}</text>
<text text-anchor="middle" x="133.5" y="-188.29" font-family="Helvetica,sans-Serif" font-size="14.00">h(R+R)</text>
</g>
<!-- n00&#45;&gt;n001 -->
<g id="edge18" class="edge">
<title>n00&#45;&gt;n001</title>
<path fill="none" stroke="black" d="M92.36,-301.71C98.49,-286.64 105.4,-269.62 111.8,-253.89"/>
<polygon fill="black" stroke="black" points="115.18,-254.87 115.7,-244.29 108.69,-252.24 115.18,-254.87"/>
<text text-anchor="middle" x="111.5" y="-269.38" font-family="Helvetica,sans-Serif" font-size="14.00">1</text>
</g>
<!-- n00&#45;&gt;mn0 -->
<!-- n000 -->
<!-- n00&#45;&gt;n000 -->
<!-- mn00 -->
<!-- n00&#45;&gt;mn00 -->
<!-- n0011 -->
<g id="node6" class="node">
<title>n0011</title>
<ellipse fill="none" stroke="black" cx="220.5" cy="-50.2" rx="50.41" ry="50.41"/>
<text text-anchor="middle" x="220.5" y="-61.5" font-family="Helvetica,sans-Serif" font-size="14.00">{0011}</text>
<text text-anchor="middle" x="220.5" y="-46.5" font-family="Helvetica,sans-Serif" font-size="14.00">&quot;3&quot;</text>
<text text-anchor="middle" x="220.5" y="-31.5" font-family="Helvetica,sans-Serif" font-size="14.00">h(3)</text>
</g>
<!-- n001&#45;&gt;n0011 -->
<g id="edge33" class="edge">
<title>n001&#45;&gt;n0011</title>
<path fill="none" stroke="black" d="M157.73,-157.46C167.8,-140.42 179.59,-120.46 190.22,-102.46"/>
<polygon fill="black" stroke="black" points="193.26,-104.2 195.34,-93.81 187.24,-100.64 193.26,-104.2"/>
<text text-anchor="middle" x="185.5" y="-122.21" font-family="Helvetica,sans-Serif" font-size="14.00">1</text>
</g>
<!-- n0010 -->
<!-- n001&#45;&gt;n0010 -->
<!-- mn001 -->
<!-- n001&#45;&gt;mn001 -->
<!-- n011 -->
<g id="node8" class="node">
<title>n011</title>
<ellipse fill="none" stroke="black" cx="335.5" cy="-199.49" rx="48.17" ry="48.17"/>
<text text-anchor="middle" x="335.5" y="-203.29" font-family="Helvetica,sans-Serif" font-size="14.00">{011}</text>
<text text-anchor="middle" x="335.5" y="-188.29" font-family="Helvetica,sans-Serif" font-size="14.00">h(R+R)</text>
</g>
<!-- n01&#45;&gt;n011 -->
<g id="edge23" class="edge">
<title>n01&#45;&gt;n011</title>
<path fill="none" stroke="black" d="M272.97,-304.84C283.25,-287.68 295.29,-267.58 306.05,-249.63"/>
<polygon fill="black" stroke="black" points="309.08,-251.39 311.22,-241.01 303.07,-247.79 309.08,-251.39"/>
<text text-anchor="middle" x="300.5" y="-269.38" font-family="Helvetica,sans-Serif" font-size="14.00">1</text>
</g>
<!-- n010 -->
<!-- n01&#45;&gt;n010 -->
<!-- mn01 -->
<!-- n01&#45;&gt;mn01 -->
<!-- n0111 -->
<g id="node9" class="node">
<title>n0111</title>
<ellipse fill="none" stroke="black" cx="424.5" cy="-50.2" rx="50.41" ry="50.41"/>
<text text-anchor="middle" x="424.5" y="-61.5" font-family="Helvetica,sans-Serif" font-size="14.00">{0111}</text>
<text text-anchor="middle" x="424.5" y="-46.5" font-family="Helvetica,sans-Serif" font-size="14.00">&quot;7&quot;</text>
<text text-anchor="middle" x="424.5" y="-31.5" font-family="Helvetica,sans-Serif" font-size="14.00">h(7)</text>
</g>
<!-- n011&#45;&gt;n0111 -->
<g id="edge38" class="edge">
<title>n011&#45;&gt;n0111</title>
<path fill="none" stroke="black" d="M360.06,-157.86C370.45,-140.66 382.67,-120.44 393.66,-102.25"/>
<polygon fill="black" stroke="black" points="396.76,-103.88 398.94,-93.51 390.77,-100.25 396.76,-103.88"/>
<text text-anchor="middle" x="387.5" y="-122.21" font-family="Helvetica,sans-Serif" font-size="14.00">1</text>
</g>
<!-- n0110 -->
<!-- n011&#45;&gt;n0110 -->
<!-- mn011 -->
<!-- n011&#45;&gt;mn011 -->
<!-- n111 -->
<g id="node11" class="node">
<title>n111</title>
<ellipse fill="none" stroke="black" cx="589.5" cy="-199.49" rx="45.92" ry="45.92"/>
<text text-anchor="middle" x="589.5" y="-203.29" font-family="Helvetica,sans-Serif" font-size="14.00">{111}</text>
<text text-anchor="middle" x="589.5" y="-188.29" font-family="Helvetica,sans-Serif" font-size="14.00">h(L+R)</text>
</g>
<!-- n11&#45;&gt;n111 -->
<g id="edge28" class="edge">
<title>n11&#45;&gt;n111</title>
<path fill="none" stroke="black" d="M514.1,-306.76C527.45,-287.94 543.55,-265.25 557.44,-245.68"/>
<polygon fill="black" stroke="black" points="560.31,-247.68 563.24,-237.5 554.6,-243.63 560.31,-247.68"/>
<text text-anchor="middle" x="545.5" y="-269.38" font-family="Helvetica,sans-Serif" font-size="14.00">1</text>
</g>
<!-- n110 -->
<!-- n11&#45;&gt;n110 -->
<!-- mn11 -->
<!-- n11&#45;&gt;mn11 -->
<!-- n1111 -->
<g id="node12" class="node">
<title>n1111</title>
<ellipse fill="none" stroke="black" cx="720.5" cy="-50.2" rx="50.41" ry="50.41"/>
<text text-anchor="middle" x="720.5" y="-61.5" font-family="Helvetica,sans-Serif" font-size="14.00">{1111}</text>
<text text-anchor="middle" x="720.5" y="-46.5" font-family="Helvetica,sans-Serif" font-size="14.00">&quot;f&quot;</text>
<text text-anchor="middle" x="720.5" y="-31.5" font-family="Helvetica,sans-Serif" font-size="14.00">h(f)</text>
</g>
<!-- n111&#45;&gt;n1111 -->
<g id="edge43" class="edge">
<title>n111&#45;&gt;n1111</title>
<path fill="none" stroke="black" d="M619.55,-164.7C637.73,-144.26 661.12,-117.97 680.81,-95.83"/>
<polygon fill="black" stroke="black" points="683.57,-97.99 687.6,-88.2 678.34,-93.34 683.57,-97.99"/>
<text text-anchor="middle" x="663.5" y="-122.21" font-family="Helvetica,sans-Serif" font-size="14.00">1</text>
</g>
<!-- n1110 -->
<g id="node13" class="node">
<title>n1110</title>
<ellipse fill="none" stroke="black" cx="542.5" cy="-50.2" rx="50.41" ry="50.41"/>
<text text-anchor="middle" x="542.5" y="-61.5" font-family="Helvetica,sans-Serif" font-size="14.00">{1110}</text>
<text text-anchor="middle" x="542.5" y="-46.5" font-family="Helvetica,sans-Serif" font-size="14.00">&quot;e&quot;</text>
<text text-anchor="middle" x="542.5" y="-31.5" font-family="Helvetica,sans-Serif" font-size="14.00">h(e)</text>
</g>
<!-- n111&#45;&gt;n1110 -->
<g id="edge41" class="edge">
<title>n111&#45;&gt;n1110</title>
<path fill="none" stroke="black" d="M575.78,-155.49C571.04,-140.66 565.67,-123.8 560.63,-108.03"/>
<polygon fill="black" stroke="black" points="563.93,-106.84 557.55,-98.38 557.26,-108.97 563.93,-106.84"/>
<text text-anchor="middle" x="571.5" y="-122.21" font-family="Helvetica,sans-Serif" font-size="14.00">0</text>
</g>
<!-- mn111 -->
<!-- n111&#45;&gt;mn111 -->
<!-- n1110&#45;&gt;mn111 -->
<!-- mA&#45;&gt;n1 -->
<!-- mn0&#45;&gt;n01 -->
<!-- n10&#45;&gt;mn1 -->
<!-- mn1&#45;&gt;n11 -->
<!-- n000&#45;&gt;mn00 -->
<!-- mn00&#45;&gt;n001 -->
<!-- n010&#45;&gt;mn01 -->
<!-- mn01&#45;&gt;n011 -->
<!-- n110&#45;&gt;mn11 -->
<!-- mn11&#45;&gt;n111 -->
<!-- n0010&#45;&gt;mn001 -->
<!-- mn001&#45;&gt;n0011 -->
<!-- n0110&#45;&gt;mn011 -->
<!-- mn011&#45;&gt;n0111 -->
<!-- mn111&#45;&gt;n1111 -->
</g>
</svg>
