<?xml version="1.0" encoding="UTF-8" standalone="no"?>
<svg xmlns:dc="http://purl.org/dc/elements/1.1/" xmlns:cc="http://web.resource.org/cc/" xmlns:rdf="http://www.w3.org/1999/02/22-rdf-syntax-ns#" xmlns:svg="http://www.w3.org/2000/svg" xmlns="http://www.w3.org/2000/svg" xmlns:sodipodi="http://sodipodi.sourceforge.net/DTD/sodipodi-0.dtd" xmlns:inkscape="http://www.inkscape.org/namespaces/inkscape" version="1.0" id="svg2" sodipodi:version="0.32" inkscape:version="0.45.1" width="532.60724" height="515.1626" sodipodi:docname="file.svg" inkscape:output_extension="org.inkscape.output.svg.inkscape" sodipodi:docbase="C:\Documents and Settings\Gengis Khan\Mes documents">
  <metadata id="metadata339">
    <rdf:RDF>
      <cc:Work rdf:about="">
        <dc:format>image/svg+xml</dc:format>
        <dc:type rdf:resource="http://purl.org/dc/dcmitype/StillImage"/>
        <cc:license rdf:resource="http://web.resource.org/cc/PublicDomain"/>
        <dc:title>Catalog of elliptic curves</dc:title>
        <dc:date>2008-02-14</dc:date>
        <dc:creator>
          <cc:Agent>
            <dc:title>Tos</dc:title>
          </cc:Agent>
        </dc:creator>
        <dc:rights>
          <cc:Agent>
            <dc:title>Public Domain / Domaine public</dc:title>
          </cc:Agent>
        </dc:rights>
        <dc:subject>
          <rdf:Bag>
            <rdf:li>elliptic elliptique curve courbe</rdf:li>
          </rdf:Bag>
        </dc:subject>
        <dc:description>Catalog of elliptic curves / Catalogue de courbes elliptiques:
y³=x²+ax+b
[-3,3]x[-3,3]
Generated with / Généré avec Mathematica:

p = GraphicsArray[
  Table[ContourPlot[y^2 == x^3 + a x + b, {x, -3, 3}, {y, -3, 3}, 
    FrameTicks -&gt; None], {a, -2, 1}, {b, -1, 2}]]
xml = XML`SVG`GraphicsToSymbolicSVG[p];
Export["file.svg", xml, "XML"] 
</dc:description>
      </cc:Work>
      <cc:License rdf:about="http://web.resource.org/cc/PublicDomain">
        <cc:permits rdf:resource="http://web.resource.org/cc/Reproduction"/>
        <cc:permits rdf:resource="http://web.resource.org/cc/Distribution"/>
        <cc:permits rdf:resource="http://web.resource.org/cc/DerivativeWorks"/>
      </cc:License>
    </rdf:RDF>
  </metadata>
  <sodipodi:namedview inkscape:window-height="964" inkscape:window-width="1280" inkscape:pageshadow="2" inkscape:pageopacity="0.0" guidetolerance="10.0" gridtolerance="10.0" objecttolerance="10.0" borderopacity="1.0" bordercolor="#666666" pagecolor="#ffffff" id="base" inkscape:zoom="1.4329667" inkscape:cx="211.64997" inkscape:cy="269.08566" inkscape:window-x="-4" inkscape:window-y="-4" inkscape:current-layer="svg2"/>
  <rect style="fill:#ffffff;stroke:none" id="rect6" height="500" width="500" y="15.16257" x="32.607212"/>
  <g id="g8" clip-path="url(#cp1)" transform="matrix(1.3888889,0,0,1.3888889,-70.170568,-2.8929855)">
    <clipPath id="cp1">
      <polygon id="polygon11" points="74,13 74,97 158,97 158,13 74,13 "/>
    </clipPath>
    <polyline style="fill:none;stroke:#3f3d99;stroke-width:0.5px;stroke-opacity:1" id="polyline13" points="148.625,14.75 148.313,15.75 147.813,17.125 147.625,17.625 147.563,17.875 147.313,18.5625 147.125,19.0625 146.75,19.9375 146.5,20.5 146.125,21.625 146,22.0625 145.875,22.4375 145.5,23.375 145.25,24.125 144.5,26.125 144.5,26.1875 144.5,26.25 144.438,26.3125 143.938,27.625 143.688,28.3125 143.438,29.0625 143,30.3125 142.938,30.4375 142.938,30.5 142.938,30.625 142.625,31.5 142.438,31.9375 142.188,32.5625 141.938,33.375 141.563,34.5 141.5,34.6875 141.5,34.8125 141.438,34.9375 141,36.25 140.813,36.875 140.563,37.625 140.125,39 140.125,39.0625 140.125,39.125 139.688,40.5 139.5,41.25 139,43.0625 138.938,43.375 138.938,43.5625 138.75,44.4375 138.625,44.8125 138.375,45.875 138.313,46.25 138.25,46.75 138.188,47.125 138.063,47.6875 137.938,48.3125 137.938,48.4375 137.813,49.125 137.75,49.5625 137.688,50.125 137.625,50.5625 137.625,50.875 137.563,51.6875 137.5,51.9375 137.5,52.1875 137.438,53.25 137.438,53.375 137.438,53.5625 137.438,54.6875 137.438,54.8125 137.438,54.9375 137.438,56.125 137.438,56.25 137.438,56.4375 137.5,57.4375 137.5,57.6875 137.563,57.9375 137.625,58.8125 137.625,59.125 137.688,59.5625 137.75,60.0625 137.813,60.5625 137.938,61.1875 137.938,61.3125 138.063,62 138.188,62.5625 138.25,62.9375 138.313,63.4375 138.375,63.75 138.625,64.8125 138.75,65.25 138.938,66.0625 138.938,66.25 139,66.5625 139.5,68.375 139.688,69.125 140.125,70.5625 140.125,70.5625 140.125,70.625 140.563,72 140.813,72.8125 141.438,74.6875 141.5,74.875 141.5,74.9375 141.563,75.125 142.188,77.0625 142.375,77.75 142.938,79.0625 142.938,79.125 142.938,79.1875 143,79.3125 143.438,80.5625 143.688,81.3125 143.938,82 144.438,83.3125 144.5,83.4375 144.5,83.4375 144.5,83.5 145.25,85.5 145.5,86.3125 145.875,87.25 146,87.625 146.125,88 146.563,89.1875 146.75,89.6875 147.125,90.625 147.313,91.125 147.563,91.8125 147.625,92 147.813,92.5625 148.313,93.875 148.688,94.875 "/>
    <polyline style="fill:none;stroke:#3f3d99;stroke-width:0.5px;stroke-opacity:1" id="polyline15" points="105.125,50.875 104.75,50.9375 104.375,50.9375 103.875,51.25 103.75,51.3125 103.688,51.375 103.375,51.6875 103.25,51.9375 103.125,52.125 102.938,52.4375 102.875,52.625 102.875,52.6875 102.813,52.8125 102.688,53.125 102.625,53.375 102.563,53.625 102.563,53.75 102.563,53.8125 102.5,54.125 102.5,54.375 102.5,54.5625 102.5,54.8125 102.5,55.0625 102.5,55.25 102.5,55.5625 102.563,55.875 102.563,55.9375 102.563,56.0625 102.625,56.25 102.688,56.5 102.813,56.8125 102.875,57 102.875,57.0625 102.938,57.1875 103.125,57.5 103.25,57.6875 103.375,57.9375 103.688,58.25 103.75,58.3125 103.875,58.375 104.375,58.6875 104.75,58.75 105.125,58.75 105.375,58.6875 105.813,58.5625 105.875,58.5 106,58.375 106.313,58.1875 106.5,57.9375 106.625,57.8125 106.688,57.6875 106.938,57.375 107,57.1875 107.125,57 107.188,56.875 107.25,56.6875 107.375,56.375 107.375,56.25 107.438,56.0625 107.5,55.8125 107.5,55.5625 107.563,55.25 107.563,55.125 107.563,54.8125 107.563,54.5 107.563,54.4375 107.5,54.125 107.5,53.875 107.438,53.5625 107.375,53.375 107.375,53.3125 107.25,52.9375 107.188,52.75 107.125,52.6875 107,52.4375 106.938,52.25 106.688,51.9375 106.625,51.875 106.5,51.6875 106.313,51.5 106,51.25 105.813,51.125 105.375,50.9375 105.125,50.875 "/>
  </g>
  <g id="g17" clip-path="url(#cp2)" transform="matrix(1.3888889,0,0,1.3888889,-70.170568,-2.8929855)">
    <clipPath id="cp2">
      <polygon id="polygon20" points="74,13 74,98 159,98 159,13 74,13 "/>
    </clipPath>
    <polyline style="fill:none;stroke:#000000;stroke-width:0.1875px;stroke-opacity:1" id="polyline22" points="157.563,96.5625 74.0625,96.5625 "/>
    <polyline style="fill:none;stroke:#000000;stroke-width:0.1875px;stroke-opacity:1" id="polyline24" points="74.0625,96.5625 74.0625,13.0625 "/>
    <polyline style="fill:none;stroke:#000000;stroke-width:0.1875px;stroke-opacity:1" id="polyline26" points="74.0625,13.0625 157.563,13.0625 "/>
    <polyline style="fill:none;stroke:#000000;stroke-width:0.1875px;stroke-opacity:1" id="polyline28" points="157.563,13.0625 157.563,96.5625 "/>
  </g>
  <g id="g30" clip-path="url(#cp3)" transform="matrix(1.3888889,0,0,1.3888889,-70.170568,-2.8929855)">
    <clipPath id="cp3">
      <polygon id="polygon33" points="165.438,13 165.438,97 249.438,97 249.438,13 165.438,13 "/>
    </clipPath>
    <polyline style="fill:none;stroke:#3f3d99;stroke-width:0.5px;stroke-opacity:1" id="polyline35" points="239.25,14.75 239.125,15.125 238.75,16.1875 238.313,17.1875 238.125,17.625 237.75,18.625 237.563,19.0625 237.5,19.25 237.313,19.75 237,20.5 236.688,21.3125 235.875,23.3125 235.875,23.375 235.875,23.375 235.875,23.375 235.313,24.75 235.063,25.375 234.938,25.75 234.75,26.1875 234.438,26.9375 234.25,27.4375 234.125,27.625 233.938,28.125 233.563,29.0625 233.438,29.5 233,30.5 233,30.5 233,30.5 232.625,31.5 232.438,31.9375 232.063,32.875 231.813,33.5625 231.625,34.125 231.313,34.8125 231,35.625 230.313,37.5 230.25,37.625 230.25,37.6875 230.188,37.875 229.688,39.0625 229.438,39.8125 229.188,40.5 228.75,41.875 228.75,41.9375 228.688,41.9375 228.688,42 228.375,43 228.188,43.375 228,44.0625 228,44.125 227.75,44.8125 227.438,46.125 227.375,46.25 227.375,46.3125 227.313,46.625 227.25,46.9375 227.063,47.4375 227.063,47.6875 226.938,48 226.813,48.625 226.688,49.125 226.563,49.8125 226.438,50.5625 226.375,51.0625 226.25,51.9375 226.188,53.0625 226.188,53.375 226.188,53.6875 226.125,54.8125 226.188,55.9375 226.188,56.5625 226.25,57.6875 226.375,58.625 226.563,59.8125 226.688,60.5625 226.813,61 226.938,61.625 227.063,62 227.063,62.1875 227.25,62.6875 227.313,63 227.375,63.3125 227.375,63.4375 227.438,63.5625 227.688,64.4375 227.75,64.8125 228,65.5625 228,65.5625 228.188,66.25 228.375,66.625 228.688,67.6875 228.688,67.6875 228.75,67.6875 228.75,67.75 229.188,69.125 229.438,69.875 229.688,70.5625 230.188,71.75 230.25,71.9375 230.25,72 230.313,72.125 231,74 231.313,74.875 231.625,75.5 231.813,76.0625 231.875,76.3125 232.063,76.75 232.438,77.75 232.625,78.125 233,79.125 233,79.125 233,79.125 233.438,80.1875 233.563,80.5625 233.813,81.1875 234,81.5 234.125,82 234.25,82.25 234.438,82.75 234.75,83.4375 234.938,83.9375 235.063,84.25 235.313,84.875 235.875,86.3125 235.875,86.3125 235.875,86.3125 235.875,86.3125 236.688,88.375 237,89.1875 237.313,89.875 237.5,90.375 237.75,91.0625 238.125,92 238.313,92.4375 238.75,93.4375 239.125,94.5 239.25,94.875 "/>
    <polyline style="fill:none;stroke:#3f3d99;stroke-width:0.5px;stroke-opacity:1" id="polyline37" points="203.313,44.8125 203.188,44.625 203,44.4375 201.938,43.375 201.75,43.1875 201.563,43.0625 200.938,42.5625 200.375,42.1875 200.125,42.0625 200.063,42 199.938,41.9375 199.125,41.5 198.688,41.375 198.063,41.125 197.813,41.0625 197.25,40.9375 196.938,40.9375 196.875,40.9375 196.563,40.875 196.188,40.875 196.188,40.875 195.813,40.9375 195.563,40.9375 195.375,41 195.125,41.0625 194.938,41.0625 194.5,41.25 194.375,41.25 194.313,41.25 193.938,41.5 193.688,41.625 193.125,41.9375 193.063,42 192.938,42.0625 192.25,42.6875 192.25,42.6875 192.25,42.6875 191.625,43.375 191.563,43.4375 191.5,43.5 191.25,43.8125 191.125,44.125 191,44.25 190.813,44.5625 190.688,44.8125 190.438,45.1875 190.438,45.1875 190.313,45.5 190.125,45.9375 190,46.125 189.938,46.25 189.875,46.4375 189.625,47.1875 189.5,47.6875 189.25,48.25 189.188,48.625 189.063,49.125 189,49.4375 188.75,50.4375 188.75,50.5625 188.75,50.625 188.688,51 188.563,51.9375 188.438,53.1875 188.438,53.625 188.438,54.8125 188.438,56 188.438,56.4375 188.563,57.6875 188.688,58.625 188.75,59.0625 188.75,59.125 188.75,59.1875 189,60.25 189.063,60.5625 189.188,61.0625 189.25,61.375 189.375,61.8125 189.438,62 189.625,62.5 189.875,63.1875 189.938,63.4375 190,63.5 190.125,63.75 190.438,64.5 190.688,64.8125 190.813,65.125 191,65.375 191.125,65.5625 191.25,65.8125 191.5,66.125 191.563,66.25 191.625,66.25 192.25,66.9375 192.25,67 192.25,67 192.938,67.5625 193,67.625 193.125,67.6875 193.688,68.0625 193.938,68.1875 194.375,68.375 194.5,68.4375 194.938,68.5625 195.125,68.625 195.375,68.6875 195.563,68.6875 195.813,68.75 196.188,68.75 196.188,68.75 196.563,68.75 196.875,68.75 196.938,68.75 197.25,68.6875 197.813,68.5625 198.063,68.5 198.688,68.3125 199.125,68.125 199.938,67.6875 200.063,67.625 200.125,67.625 200.375,67.4375 200.938,67.0625 201.063,67 201.563,66.625 201.75,66.4375 201.938,66.25 203,65.25 203.188,65.0625 203.313,64.8125 204.438,63.4375 204.438,63.4375 204.438,63.4375 204.5,63.3125 205.313,62 205.5,61.625 205.813,60.9375 206,60.6875 206.063,60.5625 206.188,60.1875 206.375,59.6875 206.563,59.125 206.75,58.5625 206.875,58.0625 206.938,57.6875 207,57.4375 207.188,56.25 207.25,54.8125 207.25,54.8125 207.25,54.8125 207.25,54.8125 207.25,54.8125 207.188,53.375 207,52.25 206.938,51.9375 206.875,51.5625 206.75,51.0625 206.563,50.5625 206.375,50 206.188,49.4375 206.063,49.125 206,48.9375 205.813,48.6875 205.5,48 205.313,47.6875 205,47.0625 204.5,46.375 204.438,46.25 204.438,46.1875 204.438,46.1875 203.313,44.8125 "/>
  </g>
  <g id="g39" clip-path="url(#cp4)" transform="matrix(1.3888889,0,0,1.3888889,-70.170568,-2.8929855)">
    <clipPath id="cp4">
      <polygon id="polygon42" points="165.438,13 165.438,98 250.438,98 250.438,13 165.438,13 "/>
    </clipPath>
    <polyline style="fill:none;stroke:#000000;stroke-width:0.1875px;stroke-opacity:1" id="polyline44" points="249,96.5625 165.563,96.5625 "/>
    <polyline style="fill:none;stroke:#000000;stroke-width:0.1875px;stroke-opacity:1" id="polyline46" points="165.563,96.5625 165.563,13.0625 "/>
    <polyline style="fill:none;stroke:#000000;stroke-width:0.1875px;stroke-opacity:1" id="polyline48" points="165.563,13.0625 249,13.0625 "/>
    <polyline style="fill:none;stroke:#000000;stroke-width:0.1875px;stroke-opacity:1" id="polyline50" points="249,13.0625 249,96.5625 "/>
  </g>
  <g id="g52" clip-path="url(#cp5)" transform="matrix(1.3888889,0,0,1.3888889,-70.170568,-2.8929855)">
    <clipPath id="cp5">
      <polygon id="polygon55" points="256.875,13 256.875,97 340.875,97 340.875,13 256.875,13 "/>
    </clipPath>
    <polyline style="fill:none;stroke:#3f3d99;stroke-width:0.5px;stroke-opacity:1" id="polyline57" points="329.813,94.875 329.563,94.25 329.063,93.125 328.75,92.3125 328.625,92 328.25,91.125 327.438,89.25 327.375,89.1875 327.375,89.125 327.313,89 326.75,87.75 326.5,87.125 326.125,86.3125 325.875,85.75 325.625,85.125 325.5,84.875 325.188,84.1875 325.188,84.1875 324.875,83.4375 324.75,83.1875 324.5,82.5625 324.313,82.1875 324.188,82 324,81.5625 323.875,81.1875 323.563,80.5625 323.375,80.25 323.063,79.4375 322.938,79.25 322.875,79.125 322.75,78.875 322.5,78.25 322.188,77.75 322,77.3125 321.625,76.375 321.563,76.3125 321.125,75.375 320.813,74.875 320.625,74.375 320.188,73.4375 320.188,73.4375 320.188,73.4375 320.188,73.4375 319.438,72 319.25,71.5 318.813,70.625 318.813,70.5625 318.75,70.5 318.313,69.5625 318.063,69.125 318,69.0625 317.813,68.625 317.375,67.8125 317.375,67.6875 317.375,67.6875 317.313,67.625 317,67 316.875,66.75 316.625,66.25 316.625,66.1875 316.375,65.75 315.938,64.9375 315.938,64.8125 315.938,64.8125 315.875,64.75 315.563,64.125 315.438,63.875 315.188,63.4375 315.188,63.3125 314.938,62.9375 314.813,62.6875 314.688,62.4375 314.563,62.0625 314.5,62 314.5,61.9375 314.438,61.875 314.125,61.25 314,61 313.813,60.5625 313.75,60.375 313.563,60 313.438,59.8125 313.25,59.375 313.125,59.125 313.125,59 313,58.75 312.875,58.375 312.75,58.1875 312.75,58 312.688,57.8125 312.625,57.6875 312.563,57.4375 312.438,57.0625 312.375,57 312.375,56.9375 312.313,56.625 312.25,56.3125 312.188,56.25 312.188,56.125 312.125,55.75 312.063,55.5625 312.063,55.3125 312.063,55.0625 312.063,54.8125 312.063,54.5625 312.063,54.3125 312.063,54.125 312.125,53.9375 312.188,53.5 312.188,53.375 312.313,53 312.375,52.75 312.375,52.6875 312.438,52.5625 312.563,52.1875 312.625,51.9375 312.688,51.8125 312.75,51.6875 312.75,51.5 312.875,51.25 313,50.875 313.125,50.625 313.125,50.5625 313.25,50.3125 313.438,49.8125 313.563,49.625 313.75,49.25 313.813,49.125 313.875,49 314,48.6875 314.125,48.375 314.438,47.75 314.5,47.6875 314.5,47.6875 314.563,47.5625 314.688,47.25 314.813,46.9375 314.938,46.75 315.188,46.3125 315.188,46.25 315.438,45.8125 315.563,45.5 315.875,44.875 315.938,44.8125 315.938,44.8125 315.938,44.75 316.375,43.875 316.625,43.4375 316.625,43.375 316.875,42.9375 317,42.6875 317.313,42.0625 317.375,42 317.375,41.9375 317.375,41.875 317.813,41 318,40.625 318.063,40.5 318.313,40.0625 318.75,39.1875 318.813,39.0625 318.813,39 319.25,38.125 319.438,37.625 320.188,36.25 320.188,36.25 320.188,36.25 320.188,36.1875 320.625,35.25 320.813,34.8125 321.125,34.3125 321.563,33.375 321.625,33.25 322,32.3125 322.188,31.9375 322.5,31.375 322.75,30.75 322.875,30.5 322.938,30.375 323.063,30.1875 323.375,29.4375 323.563,29.0625 323.875,28.4375 324,28.125 324.188,27.625 324.313,27.4375 324.5,27.0625 324.75,26.5 324.875,26.1875 325.188,25.5 325.188,25.5 325.5,24.75 325.625,24.5 325.875,23.875 326.125,23.375 326.5,22.5 326.75,21.9375 327.313,20.625 327.375,20.5 327.375,20.5 327.438,20.375 328.25,18.5 328.625,17.625 328.75,17.3125 329.063,16.5 329.563,15.375 329.813,14.75 "/>
    <polyline style="fill:none;stroke:#3f3d99;stroke-width:0.5px;stroke-opacity:1" id="polyline59" points="283.688,72.875 284.063,73.125 284.375,73.3125 284.5,73.3125 284.688,73.4375 285,73.5625 285.125,73.625 285.438,73.75 285.5,73.75 285.813,73.875 286.063,73.9375 286.375,74 286.563,74 286.625,74.0625 287.25,74.125 287.25,74.125 287.313,74.125 287.938,74.125 288,74.125 288,74.125 288.625,74.0625 288.688,74.0625 288.75,74.0625 289.25,74 289.438,74 289.625,73.9375 290.125,73.8125 290.438,73.6875 291.25,73.4375 291.5,73.375 291.563,73.3125 291.75,73.25 292.438,72.875 292.813,72.6875 293,72.625 293.375,72.375 294.063,72 294.438,71.75 295.125,71.25 295.188,71.25 295.875,70.75 296.063,70.5625 296.688,70 297.313,69.5 297.75,69.125 298.25,68.625 298.688,68.1875 299.188,67.6875 299.625,67.1875 300.125,66.6875 300.5,66.25 301,65.6875 301.563,65 301.688,64.8125 302.25,64.1875 302.313,64.125 302.813,63.4375 303,63.125 303.5,62.5 303.75,62.1875 303.875,62 304.063,61.625 304.313,61.25 304.438,61.125 304.688,60.75 304.813,60.5625 305.125,59.9375 305.188,59.875 305.25,59.8125 305.313,59.6875 305.438,59.4375 305.625,59.125 305.688,58.9375 305.813,58.75 305.875,58.625 305.938,58.5 306,58.375 306.125,58.1875 306.188,58 306.313,57.6875 306.563,57 306.563,57 306.563,57 306.563,56.9375 306.75,56.4375 306.813,56.25 306.875,56 306.875,55.8125 306.938,55.5625 306.938,55.1875 306.938,55.1875 307,54.8125 306.938,54.5 306.938,54.4375 306.938,54.125 306.875,53.8125 306.875,53.6875 306.813,53.375 306.75,53.25 306.563,52.6875 306.563,52.6875 306.563,52.6875 306.563,52.6875 306.313,51.9375 306.188,51.625 306.125,51.5 306,51.25 305.938,51.1875 305.875,51 305.688,50.6875 305.625,50.5625 305.438,50.25 305.313,50 305.25,49.8125 305.188,49.75 305.125,49.6875 304.813,49.125 304.688,48.875 304.438,48.5625 304.313,48.375 304.063,48 303.875,47.6875 303.75,47.5 303.5,47.1875 303,46.5 302.875,46.3125 302.813,46.25 302.313,45.5625 302.25,45.5 301.688,44.8125 301.563,44.625 301,43.9375 300.5,43.375 300.125,43 299.625,42.4375 299.188,41.9375 298.688,41.5 298.25,41 297.75,40.5 297.313,40.125 296.75,39.625 296.063,39.0625 295.875,38.9375 295.125,38.375 294.438,37.875 294.063,37.625 293.375,37.25 293,37 292.438,36.75 291.75,36.4375 291.563,36.3125 291.5,36.3125 291.25,36.25 290.438,35.9375 290.125,35.875 289.625,35.75 289.438,35.6875 289.25,35.6875 288.688,35.5625 288,35.5 288,35.5 287.938,35.5 287.25,35.5625 287.25,35.5625 286.625,35.625 286.563,35.625 286.375,35.6875 286.063,35.75 285.813,35.8125 285.5,35.875 285.438,35.9375 285.125,36 284.688,36.25 284.5,36.3125 284.375,36.375 284.063,36.5625 283.625,36.875 283.5,36.9375 283,37.3125 282.813,37.5 282.563,37.625 282.438,37.8125 282.25,37.9375 282.188,38 282.063,38.1875 281.875,38.375 281.75,38.5625 281.563,38.75 281.375,38.9375 281.313,39.0625 281.125,39.375 280.813,39.75 280.813,39.75 280.75,39.875 280.375,40.5 280.25,40.6875 280.125,40.9375 279.938,41.25 279.75,41.625 279.625,41.9375 279.313,42.5625 279.188,42.875 279,43.375 278.938,43.625 278.75,44.125 278.688,44.25 278.563,44.6875 278.5,44.8125 278.438,45.0625 278.25,45.8125 278.125,46.25 277.938,46.9375 277.938,47 277.813,47.6875 277.688,48.125 277.625,48.75 277.563,49.125 277.5,49.375 277.375,50.4375 277.375,50.5625 277.313,50.625 277.25,51.5625 277.188,51.9375 277.125,53.3125 277.125,53.375 277.125,53.5 277.125,54.8125 277.125,56.125 277.125,56.25 277.125,56.375 277.188,57.6875 277.25,58.125 277.313,59 277.375,59.125 277.375,59.25 277.5,60.3125 277.563,60.5625 277.625,60.875 277.688,61.5 277.813,62 277.938,62.6875 277.938,62.6875 278.125,63.4375 278.25,63.875 278.438,64.625 278.5,64.8125 278.563,65 278.688,65.375 278.75,65.5625 278.938,66.0625 279,66.25 279.125,66.5625 279.188,66.8125 279.313,67 279.313,67.0625 279.375,67.25 279.625,67.6875 279.75,68.0625 279.813,68.0625 279.938,68.4375 280,68.5 280.125,68.75 280.125,68.75 280.25,69 280.313,69.125 280.438,69.375 280.5,69.4375 280.688,69.75 280.813,69.875 280.813,69.875 280.813,69.9375 281.313,70.5625 281.375,70.6875 281.563,70.875 281.875,71.3125 282.063,71.5 282.25,71.6875 282.563,72 282.813,72.1875 283,72.3125 283.5,72.6875 283.625,72.8125 283.688,72.875 "/>
  </g>
  <g id="g61" clip-path="url(#cp6)" transform="matrix(1.3888889,0,0,1.3888889,-70.170568,-2.8929855)">
    <clipPath id="cp6">
      <polygon id="polygon64" points="256.875,13 256.875,98 341.875,98 341.875,13 256.875,13 "/>
    </clipPath>
    <polyline style="fill:none;stroke:#000000;stroke-width:0.1875px;stroke-opacity:1" id="polyline66" points="340.438,96.5625 257,96.5625 "/>
    <polyline style="fill:none;stroke:#000000;stroke-width:0.1875px;stroke-opacity:1" id="polyline68" points="257,96.5625 257,13.0625 "/>
    <polyline style="fill:none;stroke:#000000;stroke-width:0.1875px;stroke-opacity:1" id="polyline70" points="257,13.0625 340.438,13.0625 "/>
    <polyline style="fill:none;stroke:#000000;stroke-width:0.1875px;stroke-opacity:1" id="polyline72" points="340.438,13.0625 340.438,96.5625 "/>
  </g>
  <g id="g74" clip-path="url(#cp7)" transform="matrix(1.3888889,0,0,1.3888889,-70.170568,-2.8929855)">
    <clipPath id="cp7">
      <polygon id="polygon77" points="348.313,13 348.313,97 432.313,97 432.313,13 348.313,13 "/>
    </clipPath>
    <polyline style="fill:none;stroke:#3f3d99;stroke-width:0.5px;stroke-opacity:1" id="polyline79" points="420.313,14.75 420.188,15 419.813,15.8125 419.188,17.1875 419,17.625 418.938,17.75 418.75,18.125 418.313,19.0625 418,19.75 417.938,19.875 417.625,20.5 417.313,21.125 417.063,21.6875 416.938,21.9375 416.563,22.6875 416.25,23.375 416.125,23.5625 415.938,24.0625 415.5,24.75 415.188,25.5 415.125,25.5625 414.813,26.1875 414.5,26.8125 414.188,27.375 414,27.625 413.688,28.3125 413.5,28.625 413.25,29.0625 413.188,29.1875 413.063,29.4375 412.438,30.5 412.125,31 411.625,31.9375 411.625,31.9375 411.625,31.9375 411.063,32.8125 410.688,33.375 410.188,34.25 409.938,34.5625 409.813,34.8125 409.5,35.3125 409.375,35.4375 409,35.9375 408.813,36.25 408.813,36.25 408.75,36.3125 408.313,36.9375 408.188,37.0625 408.063,37.3125 407.75,37.625 407.563,37.875 407.438,38 407.313,38.1875 407.25,38.3125 407.188,38.375 407,38.625 406.875,38.6875 406.625,39 406.5,39.0625 406.188,39.375 405.875,39.6875 405.813,39.8125 405.5,40.125 404.938,40.5 404.688,40.75 404.438,40.875 403.938,41.25 403.813,41.3125 403.75,41.375 403.5,41.4375 403.375,41.5625 403.063,41.6875 402.813,41.75 402.375,41.9375 402.313,41.9375 402.313,41.9375 402.188,41.9375 401.938,42 401.688,42.0625 401.625,42.0625 401.5,42.0625 401,42.0625 400.875,42.0625 400.75,42.0625 400.25,42 400.188,42 400.125,42 399.875,41.9375 399.813,41.9375 399.563,41.875 399.438,41.875 399,41.6875 398.75,41.625 398.125,41.375 398,41.25 397.313,40.9375 396.625,40.5 396.125,40.25 395.875,40.0625 394.438,39.0625 394.438,39.0625 394.438,39.0625 394.438,39.0625 393.625,38.5 393,38.0625 392.813,37.875 392.5,37.625 391.563,37 391.125,36.6875 390.563,36.25 390.125,35.9375 389.5,35.5 388.75,34.9375 388.438,34.8125 387.75,34.3125 387.313,34.0625 386.063,33.375 385.938,33.3125 385.875,33.25 385.625,33.125 385,32.8125 384.438,32.5625 384,32.375 383.125,32.0625 383,32 382.688,31.9375 381.813,31.6875 381.563,31.625 381.188,31.5625 380.625,31.4375 380.125,31.375 380,31.375 379.563,31.375 379.438,31.375 379.313,31.375 378.875,31.375 378.688,31.375 378.563,31.375 378.188,31.4375 378,31.4375 377.75,31.5 377.563,31.5 377.25,31.5625 377,31.625 376.563,31.75 376.125,31.9375 375.938,32 375.875,32.0625 375.688,32.125 375.438,32.25 375.125,32.375 374.938,32.5 374.688,32.625 374.5,32.75 374.438,32.8125 374.063,33 373.875,33.1875 373.688,33.3125 373.688,33.3125 373.625,33.375 373.313,33.625 373.313,33.6875 373.25,33.75 373,33.9375 372.938,34 372.813,34.0625 372.625,34.3125 372.563,34.375 372.25,34.6875 372.188,34.75 372.188,34.8125 371.875,35.125 371.688,35.375 371.563,35.5 371.563,35.5 371.563,35.5625 371.25,35.9375 371.063,36.25 370.813,36.5625 370.688,36.8125 370.625,36.9375 370.438,37.25 370.313,37.5 370.188,37.625 370.188,37.6875 370.125,37.8125 369.813,38.375 369.688,38.6875 369.5,39.0625 369.438,39.25 369.25,39.625 369.063,40.1875 368.938,40.5 368.688,41.0625 368.5,41.75 368.438,41.9375 368.313,42.375 368,43.375 367.875,43.9375 367.625,44.8125 367.313,46.1875 367.313,46.25 367.313,46.25 367.25,46.5 367.063,47.6875 366.938,48.75 366.875,49.125 366.875,49.5 366.688,51.375 366.688,51.9375 366.625,52.625 366.563,54.125 366.563,54.8125 366.563,55.5 366.625,57.0625 366.688,57.6875 366.688,58.25 366.875,60.125 366.875,60.5625 366.938,60.875 367.063,62 367.25,63.125 367.313,63.375 367.313,63.4375 367.313,63.5 367.625,64.8125 367.875,65.6875 368,66.25 368.313,67.3125 368.438,67.6875 368.5,67.9375 368.688,68.5625 368.813,69 368.875,69.125 369.063,69.5 369.25,70 369.438,70.375 369.5,70.5625 369.688,71 369.813,71.3125 370.125,71.875 370.188,71.9375 370.188,72 370.313,72.1875 370.438,72.375 370.625,72.6875 370.688,72.875 370.813,73.0625 371.063,73.4375 371.25,73.6875 371.563,74.125 371.563,74.125 371.563,74.125 371.688,74.3125 371.875,74.5 372.188,74.875 372.25,75 372.563,75.3125 372.875,75.5625 373,75.6875 373.313,76 373.625,76.3125 373.688,76.3125 373.875,76.5 374.063,76.625 374.438,76.875 374.688,77 374.938,77.1875 375.125,77.25 375.438,77.4375 375.688,77.5625 375.875,77.625 375.938,77.625 376.125,77.75 376.563,77.875 377,78 377.25,78.0625 377.563,78.125 377.75,78.1875 378,78.1875 378.188,78.25 378.563,78.25 378.688,78.25 378.875,78.3125 379.313,78.3125 379.438,78.3125 379.563,78.3125 380,78.25 380.125,78.25 380.625,78.1875 381.188,78.125 381.563,78 381.813,78 382.688,77.75 383,77.625 383.125,77.5625 384,77.25 384.438,77.0625 385,76.8125 385.625,76.5 385.875,76.375 385.938,76.375 386.063,76.3125 387.313,75.5625 387.75,75.3125 388.438,74.875 388.75,74.6875 389.5,74.1875 390.125,73.6875 390.563,73.4375 391.125,73 391.563,72.6875 392.5,72 392.813,71.75 393,71.625 393.625,71.1875 394.438,70.5625 394.438,70.5625 394.438,70.5625 394.438,70.5625 395.875,69.5625 396.125,69.4375 396.625,69.125 397.313,68.6875 398,68.375 398.125,68.3125 398.75,68.0625 399,67.9375 399.438,67.8125 399.938,67.6875 400.125,67.6875 400.188,67.625 400.25,67.625 400.75,67.5625 400.875,67.5625 401,67.5625 401.5,67.625 401.625,67.625 401.688,67.625 402.188,67.6875 402.313,67.75 402.313,67.75 402.375,67.75 402.813,67.875 403.063,67.9375 403.375,68.125 403.5,68.1875 403.75,68.3125 403.813,68.375 403.938,68.4375 404.438,68.75 404.688,68.9375 404.938,69.125 405.188,69.3125 405.5,69.5625 405.813,69.875 405.875,69.9375 406.188,70.25 406.25,70.3125 406.5,70.5625 406.563,70.625 406.625,70.6875 406.875,70.9375 406.875,71 407.125,71.3125 407.25,71.375 407.313,71.5 407.563,71.75 407.75,72 408.063,72.375 408.188,72.5625 408.313,72.6875 408.75,73.3125 408.813,73.375 408.813,73.4375 409,73.6875 409.375,74.25 409.5,74.3125 409.813,74.875 409.938,75.0625 410.188,75.375 410.688,76.3125 411.063,76.8125 411.625,77.6875 411.625,77.75 411.625,77.75 412.125,78.625 412.438,79.125 413.063,80.1875 413.188,80.4375 413.25,80.5625 413.5,81.0625 413.688,81.375 414,82 414.188,82.3125 414.5,82.8125 414.813,83.4375 415.188,84.1875 415.5,84.875 415.938,85.625 416.125,86.0625 416.25,86.3125 416.625,87 416.625,87.0625 416.938,87.75 417.063,88 417.313,88.5 417.625,89.1875 417.938,89.75 418,89.9375 418.313,90.625 418.75,91.5 418.938,91.875 419,92 419.188,92.4375 419.813,93.8125 420.188,94.625 420.313,94.875 "/>
  </g>
  <g id="g81" clip-path="url(#cp8)" transform="matrix(1.3888889,0,0,1.3888889,-70.170568,-2.8929855)">
    <clipPath id="cp8">
      <polygon id="polygon84" points="348.313,13 348.313,98 433.313,98 433.313,13 348.313,13 "/>
    </clipPath>
    <polyline style="fill:none;stroke:#000000;stroke-width:0.1875px;stroke-opacity:1" id="polyline86" points="431.875,96.5625 348.438,96.5625 "/>
    <polyline style="fill:none;stroke:#000000;stroke-width:0.1875px;stroke-opacity:1" id="polyline88" points="348.438,96.5625 348.438,13.0625 "/>
    <polyline style="fill:none;stroke:#000000;stroke-width:0.1875px;stroke-opacity:1" id="polyline90" points="348.438,13.0625 431.875,13.0625 "/>
    <polyline style="fill:none;stroke:#000000;stroke-width:0.1875px;stroke-opacity:1" id="polyline92" points="431.875,13.0625 431.875,96.5625 "/>
  </g>
  <g id="g94" clip-path="url(#cp9)" transform="matrix(1.3888889,0,0,1.3888889,-70.170568,-2.8929855)">
    <clipPath id="cp9">
      <polygon id="polygon97" points="74,104.438 74,188.438 158,188.438 158,104.438 74,104.438 "/>
    </clipPath>
    <polyline style="fill:none;stroke:#3f3d99;stroke-width:0.5px;stroke-opacity:1" id="polyline99" points="146.625,106.188 146.188,107.313 146,107.813 145.875,108.188 145.5,109.063 145.25,109.688 145.188,109.813 144.938,110.5 144.438,111.688 144.375,111.875 144.375,111.938 144.313,112.063 143.938,112.875 143.75,113.375 143.563,113.875 143.313,114.5 143.188,114.813 143,115.25 142.75,115.938 142.313,116.938 142,117.625 141.875,117.938 141.563,118.813 141.063,120 140.875,120.5 140.375,121.75 140.313,121.938 140.25,122.063 140.125,122.313 139.688,123.375 139.438,124.063 139.125,124.813 138.75,125.938 138.625,126.125 138.563,126.25 138.5,126.438 138.25,127.188 138,127.688 137.813,128.188 137.625,128.75 137.5,129.125 137.313,129.688 137.063,130.313 136.938,130.5 136.75,131.063 136.438,131.938 136.313,132.438 136.063,133.188 136,133.375 135.938,133.5 135.875,133.813 135.625,134.563 135.5,134.813 135.375,135.313 135.063,136.25 134.938,136.75 134.688,137.688 134.625,137.875 134.438,138.875 134.375,139.063 134.375,139.125 134.375,139.188 134.125,140.25 134.063,140.563 133.875,141.438 133.688,142.688 133.625,143.438 133.563,144 133.5,145.75 133.5,146.25 133.5,146.75 133.563,148.563 133.625,149.125 133.688,149.875 133.875,151.125 134.063,152 134.125,152.313 134.375,153.313 134.375,153.438 134.375,153.5 134.438,153.688 134.688,154.875 134.938,155.75 135.375,157.188 135.5,157.688 135.625,158 135.875,158.75 136,159.125 136.063,159.313 136.313,160.125 136.438,160.563 136.688,161.188 136.813,161.5 136.938,162 137.063,162.25 137.313,162.875 137.5,163.438 137.625,163.75 137.813,164.313 138,164.875 138.25,165.375 138.5,166.063 138.563,166.313 138.625,166.375 138.75,166.625 139.125,167.75 139.438,168.438 139.438,168.438 139.688,169.188 140.125,170.25 140.25,170.5 140.375,170.813 140.875,172 141.063,172.563 141.438,173.438 141.563,173.75 141.875,174.563 142,174.875 142.313,175.625 142.75,176.625 143.125,177.75 143.563,178.625 144.313,180.438 144.375,180.625 144.375,180.688 144.438,180.813 145.188,182.75 145.5,183.5 145.875,184.375 146,184.75 146.188,185.25 146.625,186.313 "/>
  </g>
  <g id="g101" clip-path="url(#cp10)" transform="matrix(1.3888889,0,0,1.3888889,-70.170568,-2.8929855)">
    <clipPath id="cp10">
      <polygon id="polygon104" points="74,104.438 74,189.438 159,189.438 159,104.438 74,104.438 "/>
    </clipPath>
    <polyline style="fill:none;stroke:#000000;stroke-width:0.1875px;stroke-opacity:1" id="polyline106" points="157.563,188 74.0625,188 "/>
    <polyline style="fill:none;stroke:#000000;stroke-width:0.1875px;stroke-opacity:1" id="polyline108" points="74.0625,188 74.0625,104.563 "/>
    <polyline style="fill:none;stroke:#000000;stroke-width:0.1875px;stroke-opacity:1" id="polyline110" points="74.0625,104.563 157.563,104.563 "/>
    <polyline style="fill:none;stroke:#000000;stroke-width:0.1875px;stroke-opacity:1" id="polyline112" points="157.563,104.563 157.563,188 "/>
  </g>
  <g id="g114" clip-path="url(#cp11)" transform="matrix(1.3888889,0,0,1.3888889,-70.170568,-2.8929855)">
    <clipPath id="cp11">
      <polygon id="polygon117" points="165.438,104.438 165.438,188.438 249.438,188.438 249.438,104.438 165.438,104.438 "/>
    </clipPath>
    <polyline style="fill:none;stroke:#3f3d99;stroke-width:0.5px;stroke-opacity:1" id="polyline119" points="237.188,186.313 236.813,185.438 236,183.563 235.938,183.5 235.938,183.438 235.875,183.313 235.063,181.438 234.688,180.625 234.438,180.063 234.188,179.438 233.75,178.438 233.375,177.75 233.313,177.5 233,176.875 232.75,176.313 232.375,175.5 232.125,174.875 231.625,173.688 231.5,173.563 231.5,173.438 231.375,173.25 231.063,172.563 230.813,172 230.625,171.563 230.188,170.625 230.125,170.625 230.125,170.563 229.688,169.625 229.438,169.188 229.25,168.688 228.875,167.875 228.813,167.75 228.813,167.688 228.75,167.563 228.125,166.313 227.875,165.75 227.563,165.125 227.438,164.875 227.313,164.563 226.938,163.813 226.75,163.438 226.25,162.375 226,161.875 225.875,161.563 225.563,160.875 225.375,160.563 225.125,159.938 225,159.688 224.75,159.125 224.625,158.938 224.438,158.5 224.188,158 224.063,157.688 223.75,157.063 223.75,157 223.375,156.313 223.313,156 223.125,155.563 223,155.313 222.875,155 222.813,154.875 222.688,154.5 222.438,154 222.313,153.563 222.25,153.438 222.063,152.938 221.75,152.188 221.688,152 221.688,151.875 221.563,151.563 221.25,150.563 221.125,150.125 221.063,149.688 220.938,149.125 220.875,148.813 220.813,148.5 220.75,148.313 220.688,147.688 220.625,147.188 220.625,146.75 220.625,146.25 220.625,145.813 220.625,145.313 220.688,144.813 220.75,144.188 220.813,144.063 220.875,143.75 220.938,143.438 221.063,142.875 221.125,142.438 221.25,142 221.563,141 221.688,140.625 221.688,140.563 221.75,140.375 222.063,139.563 222.188,139.125 222.438,138.563 222.688,138 222.813,137.688 222.875,137.563 223,137.25 223.125,136.938 223.313,136.563 223.375,136.25 223.75,135.563 223.75,135.5 224.063,134.813 224.188,134.563 224.438,134.063 224.625,133.563 224.688,133.375 225,132.813 225.125,132.625 225.375,131.938 225.563,131.625 225.875,131 226,130.688 226.063,130.5 226.25,130.125 226.75,129.125 226.938,128.75 227.313,128 227.375,127.75 227.438,127.688 227.563,127.375 227.875,126.813 228.125,126.25 228.75,125 228.813,124.875 228.813,124.813 228.875,124.688 229.25,123.875 229.438,123.375 229.688,122.938 230.125,121.938 230.125,121.938 230.188,121.938 230.625,120.938 230.813,120.5 231.375,119.313 231.5,119 232.063,117.625 232.375,117 232.75,116.25 233,115.688 233.313,115.063 233.438,114.813 233.75,114.063 234.188,113.063 234.438,112.5 234.625,112.125 234.688,111.938 234.875,111.5 235.063,111.125 235.313,110.5 235.875,109.25 235.938,109.125 235.938,109.063 236,108.938 236.563,107.625 236.813,107.125 237.188,106.188 "/>
    <polyline style="fill:none;stroke:#3f3d99;stroke-width:0.5px;stroke-opacity:1" id="polyline121" points="203.813,152.813 203.688,152.938 203.438,153.125 203,153.438 203,153.438 203,153.438 202.938,153.438 202.625,153.625 202.563,153.688 202.375,153.813 202.25,153.875 202.063,153.938 201.625,154.125 201.563,154.188 201.563,154.188 201.5,154.188 201,154.313 200.813,154.375 200.5,154.438 200.438,154.5 200.125,154.5 199.813,154.5 199.375,154.563 199.063,154.5 198.688,154.438 198.125,154.313 197.938,154.25 197.875,154.25 197.688,154.125 197.25,153.938 196.938,153.75 196.875,153.688 196.563,153.438 196.563,153.438 196.563,153.375 196.188,153.063 196.188,153.063 195.875,152.688 195.813,152.625 195.563,152.25 195.375,152 195.125,151.5 195,151.375 194.875,151.063 194.688,150.563 194.625,150.375 194.375,149.688 194.25,149.25 194.25,149.125 194.188,148.938 194.125,148.438 194.063,148.063 194,147.688 194,147.25 193.938,146.75 193.938,146.25 193.938,145.813 194,145.25 194.063,144.813 194.063,144.5 194.188,143.563 194.25,143.438 194.375,142.875 194.625,142.188 194.688,142 194.875,141.5 195,141.188 195.125,141 195.375,140.563 195.563,140.25 195.813,139.875 195.875,139.875 195.875,139.813 196.188,139.5 196.563,139.125 196.563,139.125 196.563,139.125 196.938,138.813 197.25,138.625 197.688,138.375 197.875,138.313 197.938,138.25 198.188,138.188 198.438,138.125 198.688,138.063 198.875,138.063 199,138 199.063,138 199.375,138 199.688,138 199.813,138 200.125,138 200.438,138.063 200.5,138.063 200.813,138.125 201,138.188 201.5,138.375 201.563,138.375 201.563,138.375 201.625,138.375 202.063,138.625 202.25,138.688 202.563,138.813 202.938,139.063 203,139.125 203,139.125 203,139.125 203.313,139.375 203.438,139.375 203.5,139.5 203.688,139.625 203.813,139.688 203.938,139.813 204.188,140.063 204.438,140.25 204.563,140.375 204.688,140.563 205.125,141 205.25,141.125 205.375,141.25 205.813,141.938 205.875,141.938 205.875,142 205.938,142.063 206.313,142.688 206.375,142.875 206.563,143.188 206.625,143.438 206.813,143.875 207.063,144.625 207.125,144.813 207.125,145 207.25,145.563 207.25,146.25 207.25,146.25 207.25,146.25 207.25,146.25 207.25,146.25 207.25,147 207.125,147.563 207.125,147.688 207.063,147.938 206.938,148.438 206.813,148.688 206.625,149.125 206.563,149.313 206.375,149.688 205.938,150.5 205.875,150.563 205.875,150.563 205.813,150.625 205.375,151.25 205.25,151.375 205.125,151.563 204.688,152 204.563,152.125 204.438,152.313 204.188,152.5 203.938,152.688 203.813,152.813 "/>
  </g>
  <g id="g123" clip-path="url(#cp12)" transform="matrix(1.3888889,0,0,1.3888889,-70.170568,-2.8929855)">
    <clipPath id="cp12">
      <polygon id="polygon126" points="165.438,104.438 165.438,189.438 250.438,189.438 250.438,104.438 165.438,104.438 "/>
    </clipPath>
    <polyline style="fill:none;stroke:#000000;stroke-width:0.1875px;stroke-opacity:1" id="polyline128" points="249,188 165.563,188 "/>
    <polyline style="fill:none;stroke:#000000;stroke-width:0.1875px;stroke-opacity:1" id="polyline130" points="165.563,188 165.563,104.563 "/>
    <polyline style="fill:none;stroke:#000000;stroke-width:0.1875px;stroke-opacity:1" id="polyline132" points="165.563,104.563 249,104.563 "/>
    <polyline style="fill:none;stroke:#000000;stroke-width:0.1875px;stroke-opacity:1" id="polyline134" points="249,104.563 249,188 "/>
  </g>
  <g id="g136" clip-path="url(#cp13)" transform="matrix(1.3888889,0,0,1.3888889,-70.170568,-2.8929855)">
    <clipPath id="cp13">
      <polygon id="polygon139" points="256.875,104.438 256.875,188.438 340.875,188.438 340.875,104.438 256.875,104.438 "/>
    </clipPath>
    <polyline style="fill:none;stroke:#3f3d99;stroke-width:0.5px;stroke-opacity:1" id="polyline141" points="327.625,186.313 327.563,186.125 327.313,185.625 327,184.875 326.625,184.188 326.313,183.5 325.875,182.625 325.688,182.25 325.625,182.063 325.375,181.5 325.25,181.25 324.938,180.625 324.813,180.313 324.5,179.625 324.313,179.313 324.25,179.188 323.813,178.375 323.5,177.75 323.063,176.75 322.875,176.5 322.5,175.813 322.063,174.875 321.875,174.625 321.625,174 321.25,173.438 320.875,172.75 320.5,172 320.188,171.375 319.875,170.875 319.688,170.625 319.375,170 319.063,169.5 318.875,169.188 318.813,169.063 318.75,168.938 318,167.75 317.75,167.313 317.313,166.563 317.188,166.375 317.125,166.313 316.813,165.813 316.625,165.563 316.188,164.875 316.063,164.688 315.875,164.375 315.5,163.813 315.188,163.438 314.875,163 314.438,162.375 314.25,162.188 314.125,162 313.75,161.5 313.625,161.375 313.563,161.313 313,160.625 313,160.625 312.938,160.563 312.313,159.875 312.313,159.875 312.313,159.875 311.938,159.5 311.938,159.5 311.563,159.188 311.563,159.188 311.563,159.125 311.25,158.813 311.188,158.813 311.188,158.813 310.875,158.563 310.813,158.5 310.75,158.438 310.5,158.25 310.438,158.188 310.188,158 310,157.875 309.688,157.688 309.563,157.625 309.438,157.563 309.125,157.375 309.063,157.375 308.75,157.188 308.125,157 308.063,157 308,156.938 307.938,156.938 307.313,156.813 307.063,156.813 306.813,156.75 306.563,156.75 306.313,156.75 306.125,156.75 305.875,156.75 305.688,156.813 305.313,156.813 305.125,156.875 305.063,156.875 304.563,157 304.438,157.063 303.938,157.188 303.75,157.25 303.313,157.438 303,157.563 302.875,157.563 302.563,157.688 302.313,157.813 301.875,158 301.563,158.188 301.063,158.438 300.938,158.5 300.688,158.625 300.125,158.875 300,159 299.688,159.125 298.688,159.625 298.063,159.938 297.313,160.313 296.688,160.563 296.125,160.813 295.875,160.938 295.313,161.125 295.063,161.188 294.438,161.438 293.938,161.563 293.313,161.688 293,161.813 292.813,161.813 291.625,161.938 291.563,161.938 291.5,162 290.188,161.938 290.125,161.938 290.063,161.938 289.438,161.813 289,161.75 288.688,161.688 288.125,161.438 288,161.375 287.875,161.375 287.75,161.313 287.438,161.125 287.25,161.063 286.938,160.875 286.688,160.688 286.563,160.625 286.5,160.563 286.125,160.313 285.813,160.063 285.625,159.875 285.375,159.625 285.125,159.375 284.938,159.125 284.688,158.875 284.375,158.5 284.313,158.438 284.063,158.063 283.875,157.688 283.688,157.438 283.5,157.188 283.188,156.5 283.063,156.313 283.063,156.25 283,156.063 282.5,154.875 282.25,154.188 282.188,154.063 282,153.438 281.875,153.063 281.625,152.125 281.625,152 281.625,151.938 281.563,151.563 281.375,150.563 281.25,149.438 281.188,149.125 281.188,148.75 281.063,146.75 281.063,146.25 281.063,145.813 281.188,143.813 281.188,143.438 281.25,143.125 281.375,142 281.563,140.938 281.625,140.625 281.625,140.563 281.688,140.438 282,139.125 282.25,138.375 282.5,137.688 283,136.438 283.063,136.313 283.063,136.25 283.188,136.063 283.5,135.375 283.688,135.063 283.875,134.813 284.063,134.5 284.188,134.313 284.313,134.125 284.375,134 284.688,133.688 284.938,133.375 285.125,133.188 285.375,132.938 285.625,132.688 285.813,132.5 286.125,132.25 286.5,131.938 286.563,131.938 286.688,131.813 286.938,131.625 287.25,131.5 287.438,131.375 287.75,131.25 287.875,131.188 288,131.125 288.188,131.063 288.438,131 288.688,130.875 288.688,130.875 289,130.813 289.188,130.75 289.438,130.688 289.563,130.688 290.063,130.625 290.125,130.625 290.188,130.625 291.5,130.563 291.563,130.563 291.625,130.563 292.813,130.75 293,130.75 293.313,130.813 293.938,131 294.438,131.125 294.813,131.25 295.063,131.313 295.313,131.438 295.875,131.625 296.125,131.688 296.688,131.938 297.313,132.25 298.063,132.625 298.688,132.938 299.688,133.375 300,133.563 300.125,133.625 300.688,133.875 300.938,134.063 301.063,134.125 301.563,134.375 301.875,134.5 302.063,134.563 302.313,134.688 302.563,134.813 302.875,134.938 303,135 303.313,135.125 303.75,135.25 303.938,135.313 304.438,135.5 304.563,135.563 305.063,135.625 305.125,135.688 305.313,135.688 305.875,135.75 306.313,135.813 306.563,135.813 306.813,135.75 307.313,135.75 307.938,135.563 308,135.563 308.063,135.563 308.125,135.563 308.563,135.375 308.75,135.313 309.063,135.188 309.125,135.125 309.438,135 309.688,134.813 310,134.625 310.188,134.563 310.438,134.375 310.75,134.125 310.813,134.063 310.875,134 311.188,133.75 311.563,133.375 311.563,133.375 311.563,133.375 312.313,132.688 312.938,131.938 313,131.938 313,131.875 313.625,131.125 314.125,130.5 314.25,130.375 314.438,130.125 314.875,129.563 315.188,129.125 315.5,128.688 315.875,128.188 316.063,127.875 316.188,127.688 316.625,127 316.813,126.688 317.125,126.25 317.188,126.125 317.313,126 317.75,125.25 318,124.813 318.75,123.625 318.813,123.438 318.875,123.375 319.063,123.063 319.375,122.563 319.688,121.938 319.875,121.625 320.188,121.125 320.5,120.5 320.875,119.813 321.25,119.063 321.625,118.5 321.875,117.938 322.063,117.625 322.5,116.75 322.875,116.063 323.063,115.75 323.5,114.813 323.813,114.125 324.25,113.375 324.5,112.875 324.75,112.25 324.938,111.938 325.25,111.313 325.375,111 325.625,110.5 325.688,110.313 325.875,109.938 326.313,109.063 326.625,108.375 327,107.625 327.313,106.875 327.563,106.438 327.625,106.188 "/>
  </g>
  <g id="g143" clip-path="url(#cp14)" transform="matrix(1.3888889,0,0,1.3888889,-70.170568,-2.8929855)">
    <clipPath id="cp14">
      <polygon id="polygon146" points="256.875,104.438 256.875,189.438 341.875,189.438 341.875,104.438 256.875,104.438 "/>
    </clipPath>
    <polyline style="fill:none;stroke:#000000;stroke-width:0.1875px;stroke-opacity:1" id="polyline148" points="340.438,188 257,188 "/>
    <polyline style="fill:none;stroke:#000000;stroke-width:0.1875px;stroke-opacity:1" id="polyline150" points="257,188 257,104.563 "/>
    <polyline style="fill:none;stroke:#000000;stroke-width:0.1875px;stroke-opacity:1" id="polyline152" points="257,104.563 340.438,104.563 "/>
    <polyline style="fill:none;stroke:#000000;stroke-width:0.1875px;stroke-opacity:1" id="polyline154" points="340.438,104.563 340.438,188 "/>
  </g>
  <g id="g156" clip-path="url(#cp15)" transform="matrix(1.3888889,0,0,1.3888889,-70.170568,-2.8929855)">
    <clipPath id="cp15">
      <polygon id="polygon159" points="348.313,104.438 348.313,188.438 432.313,188.438 432.313,104.438 348.313,104.438 "/>
    </clipPath>
    <polyline style="fill:none;stroke:#3f3d99;stroke-width:0.5px;stroke-opacity:1" id="polyline161" points="418,106.188 417.313,107.563 417.313,107.625 417.313,107.625 417.25,107.688 416.563,109.063 416.313,109.5 415.938,110.313 415.813,110.5 415.313,111.375 415,111.938 414.5,112.938 414.313,113.188 413.938,113.938 413.438,114.813 413.313,115.063 413.063,115.438 412.563,116.25 412.25,116.813 411.875,117.438 411.688,117.625 411.625,117.813 411.125,118.563 410.75,119.063 410.188,120 409.938,120.313 409.813,120.5 409.5,121 409.375,121.125 408.813,121.875 408.75,121.938 408.75,121.938 408.75,122 408.125,122.75 407.625,123.375 407.5,123.563 407.313,123.75 406.813,124.313 406.375,124.813 406.125,125.063 405.875,125.313 405.688,125.5 405.438,125.75 404.875,126.25 404.688,126.438 404.438,126.625 404.063,126.938 403.875,127.125 403.75,127.188 403.063,127.688 403.063,127.688 403.063,127.688 402.938,127.75 402.313,128.125 402.125,128.188 401.813,128.375 401.688,128.438 401.625,128.5 401.438,128.563 401.188,128.688 400.875,128.813 400.625,128.875 400.313,128.938 400.188,129 400.125,129 399.75,129.125 399.5,129.125 399.438,129.188 399.375,129.188 398.875,129.25 398.75,129.25 398.563,129.25 398.188,129.313 398,129.313 397.5,129.313 397.313,129.313 397.125,129.25 395.875,129.125 395.875,129.125 395.875,129.125 395.813,129.125 394.688,128.875 394.438,128.813 393.563,128.563 393,128.375 391.938,128 391.563,127.875 391.438,127.813 390.938,127.688 390.125,127.375 389.75,127.25 389.313,127.063 388.75,126.875 388.25,126.75 387.563,126.563 387.313,126.438 387.125,126.375 386.563,126.25 386.563,126.25 386,126.125 385.875,126.063 385.625,126 384.813,125.875 384.438,125.813 383.938,125.75 383.563,125.688 383,125.688 382.438,125.625 382.125,125.625 381.563,125.688 381.063,125.75 380.875,125.75 380.563,125.813 380.125,125.875 379.875,125.938 379.438,126.063 379,126.25 378.813,126.313 378.688,126.313 378.563,126.438 378.313,126.5 378,126.688 377.813,126.75 377.5,126.938 377.375,127 377.25,127.063 376.938,127.25 376.938,127.313 376.563,127.563 376.438,127.688 376.125,127.938 375.875,128.125 375.625,128.375 375.375,128.625 375.125,128.875 374.938,129.125 374.688,129.375 374.438,129.688 374.313,129.813 374.063,130.188 373.875,130.5 373.5,131.063 373,131.875 372.938,131.938 372.938,131.938 372.875,132.063 372.5,132.875 372.313,133.375 372.063,133.875 371.75,134.625 371.688,134.813 371.563,135.188 371.313,136 371.125,136.688 370.875,137.688 370.75,138.25 370.313,140.375 370.25,140.563 370.25,140.688 370.125,141.563 370.063,142 369.938,143.25 369.938,143.438 369.938,143.563 369.875,146 369.875,146.25 369.875,146.563 369.938,148.938 369.938,149.125 369.938,149.313 370.063,150.563 370.125,150.938 370.25,151.875 370.25,152 370.313,152.188 370.75,154.25 370.875,154.875 371.125,155.875 371.313,156.563 371.563,157.375 371.688,157.688 371.75,157.938 372.063,158.625 372.25,159.125 372.25,159.188 372.5,159.625 372.875,160.5 372.938,160.563 372.938,160.625 373,160.625 373.5,161.5 373.688,161.875 373.813,162 374.063,162.375 374.313,162.75 374.438,162.875 374.688,163.188 374.938,163.438 375.125,163.688 375.375,163.938 375.625,164.125 375.875,164.375 376.125,164.625 376.438,164.875 376.563,165 376.938,165.25 376.938,165.25 377.25,165.5 377.375,165.5 377.5,165.563 377.813,165.75 378,165.875 378.313,166 378.563,166.125 378.688,166.188 378.813,166.25 379,166.313 379.313,166.438 379.438,166.438 379.875,166.563 380.125,166.625 380.563,166.75 380.875,166.75 381.063,166.813 381.563,166.875 382.125,166.875 382.438,166.875 383,166.875 383.563,166.813 383.938,166.813 384.438,166.75 384.813,166.688 385.625,166.5 385.875,166.5 386,166.438 386.563,166.313 386.563,166.313 387.125,166.125 387.313,166.063 387.563,166 388.25,165.813 388.75,165.625 389.313,165.438 389.75,165.313 390.125,165.125 390.938,164.875 391.438,164.688 391.938,164.5 393,164.125 393.563,164 394.438,163.75 395.813,163.438 395.875,163.438 395.875,163.438 395.875,163.438 396.625,163.313 397.125,163.25 397.313,163.25 397.5,163.25 397.813,163.25 398,163.25 398.188,163.25 398.563,163.25 398.75,163.25 398.875,163.313 399.375,163.375 399.438,163.375 399.75,163.438 400.125,163.5 400.188,163.563 400.313,163.563 400.625,163.688 400.875,163.75 401.188,163.875 401.438,164 401.625,164.063 401.813,164.125 402.125,164.313 402.313,164.438 402.5,164.5 402.625,164.563 402.938,164.75 403.063,164.813 403.063,164.875 403.063,164.875 403.375,165.063 403.5,165.125 403.75,165.313 403.875,165.438 404.063,165.563 404.438,165.875 404.688,166.063 404.938,166.313 405.188,166.5 405.438,166.75 405.688,167 405.875,167.188 406.125,167.5 406.375,167.75 406.813,168.25 407.313,168.75 407.5,169 407.625,169.188 408.125,169.75 408.75,170.563 408.75,170.563 408.75,170.625 408.813,170.688 409.375,171.438 409.5,171.563 409.813,172 409.938,172.25 410.188,172.563 410.75,173.438 411.125,173.938 411.625,174.75 411.688,174.875 411.875,175.125 412.25,175.688 412.563,176.313 413.063,177.063 413.313,177.5 413.438,177.75 413.938,178.625 414.25,179.188 414.313,179.313 414.5,179.563 415,180.625 415.313,181.188 415.813,182.063 415.938,182.188 416.313,183.063 416.563,183.5 416.813,184 417.25,184.813 417.313,184.875 417.313,184.938 417.313,185 418,186.313 "/>
  </g>
  <g id="g163" clip-path="url(#cp16)" transform="matrix(1.3888889,0,0,1.3888889,-70.170568,-2.8929855)">
    <clipPath id="cp16">
      <polygon id="polygon166" points="348.313,104.438 348.313,189.438 433.313,189.438 433.313,104.438 348.313,104.438 "/>
    </clipPath>
    <polyline style="fill:none;stroke:#000000;stroke-width:0.1875px;stroke-opacity:1" id="polyline168" points="431.875,188 348.438,188 "/>
    <polyline style="fill:none;stroke:#000000;stroke-width:0.1875px;stroke-opacity:1" id="polyline170" points="348.438,188 348.438,104.563 "/>
    <polyline style="fill:none;stroke:#000000;stroke-width:0.1875px;stroke-opacity:1" id="polyline172" points="348.438,104.563 431.875,104.563 "/>
    <polyline style="fill:none;stroke:#000000;stroke-width:0.1875px;stroke-opacity:1" id="polyline174" points="431.875,104.563 431.875,188 "/>
  </g>
  <g id="g176" clip-path="url(#cp17)" transform="matrix(1.3888889,0,0,1.3888889,-70.170568,-2.8929855)">
    <clipPath id="cp17">
      <polygon id="polygon179" points="74,195.875 74,279.875 158,279.875 158,195.875 74,195.875 "/>
    </clipPath>
    <polyline style="fill:none;stroke:#3f3d99;stroke-width:0.5px;stroke-opacity:1" id="polyline181" points="144.563,277.75 144.563,277.688 144.438,277.438 143.938,276.375 143.688,275.688 143.313,274.938 143,274.125 142.813,273.688 142.5,272.938 142.063,272.063 141.938,271.688 141.563,270.875 141.438,270.625 141.063,269.75 140.813,269.188 140.188,267.813 140.188,267.75 140.125,267.688 139.5,266.313 139.25,265.75 139,265.188 138.875,264.875 138.75,264.563 138.375,263.813 138.188,263.5 137.938,262.813 137.813,262.563 137.563,262.063 137.5,261.875 137.313,261.438 136.875,260.625 136.625,259.938 136.563,259.875 136.25,259.188 135.875,258.313 135.688,257.938 135.625,257.75 135.375,257.25 135.25,256.938 134.938,256.313 134.813,255.938 134.438,255.125 134.313,254.875 134.188,254.688 133.875,254 133.625,253.438 133.438,253 133.125,252.125 133.063,252 133.063,252 133,251.875 132.438,250.563 132.188,249.938 132.063,249.688 131.875,249.188 131.563,248.375 131.375,247.938 131.313,247.75 131.188,247.313 131,246.875 130.75,246.313 130.625,245.813 130.438,245.188 130.313,244.875 130.125,244.063 130,243.563 129.938,243.438 129.875,243.188 129.438,241.25 129.375,240.563 129.25,239.688 129.188,238.688 129.125,237.688 129.188,236.75 129.188,236.313 129.25,235.75 129.375,234.875 129.438,234.188 129.563,233.438 129.875,232.25 129.938,232 130,231.813 130.125,231.375 130.313,230.75 130.313,230.563 130.438,230.25 130.625,229.625 130.75,229.125 131.125,228.125 131.313,227.688 131.375,227.5 131.563,227.063 131.875,226.25 132.063,225.75 132.188,225.438 132.438,224.813 133,223.563 133.063,223.438 133.063,223.375 133.063,223.313 133.875,221.438 134.313,220.563 134.438,220.313 134.813,219.5 134.938,219.125 135.25,218.5 135.375,218.125 135.625,217.688 135.688,217.5 135.875,217.125 136.25,216.25 136.563,215.563 136.625,215.5 136.875,214.813 137.313,214 137.5,213.563 137.563,213.375 137.813,212.875 137.938,212.625 138.188,211.938 138.375,211.625 138.75,210.875 138.875,210.5 139.25,209.625 139.5,209.125 140.125,207.75 140.188,207.688 140.188,207.688 140.188,207.625 140.813,206.25 141.063,205.688 141.563,204.563 141.938,203.75 142.063,203.375 142.5,202.5 142.813,201.75 143,201.313 143.313,200.5 143.688,199.75 143.938,199.063 144.438,198 144.563,197.75 144.563,197.625 "/>
  </g>
  <g id="g183" clip-path="url(#cp18)" transform="matrix(1.3888889,0,0,1.3888889,-70.170568,-2.8929855)">
    <clipPath id="cp18">
      <polygon id="polygon186" points="74,195.875 74,280.875 159,280.875 159,195.875 74,195.875 "/>
    </clipPath>
    <polyline style="fill:none;stroke:#000000;stroke-width:0.1875px;stroke-opacity:1" id="polyline188" points="157.563,279.438 74.0625,279.438 "/>
    <polyline style="fill:none;stroke:#000000;stroke-width:0.1875px;stroke-opacity:1" id="polyline190" points="74.0625,279.438 74.0625,196 "/>
    <polyline style="fill:none;stroke:#000000;stroke-width:0.1875px;stroke-opacity:1" id="polyline192" points="74.0625,196 157.563,196 "/>
    <polyline style="fill:none;stroke:#000000;stroke-width:0.1875px;stroke-opacity:1" id="polyline194" points="157.563,196 157.563,279.438 "/>
  </g>
  <g id="g196" clip-path="url(#cp19)" transform="matrix(1.3888889,0,0,1.3888889,-70.170568,-2.8929855)">
    <clipPath id="cp19">
      <polygon id="polygon199" points="165.438,195.875 165.438,279.875 249.438,279.875 249.438,195.875 165.438,195.875 "/>
    </clipPath>
    <polyline style="fill:none;stroke:#3f3d99;stroke-width:0.5px;stroke-opacity:1" id="polyline201" points="235,197.625 234.375,199 234.313,199.25 233.625,200.5 233.5,200.938 233,201.938 233,201.938 232.563,202.875 232.25,203.375 231.688,204.75 231.625,204.813 231.625,204.875 230.875,206.25 230.688,206.75 230.25,207.563 230.188,207.688 230.188,207.75 229.688,208.625 229.438,209.125 228.75,210.5 228.75,210.5 228.75,210.5 228.688,210.563 227.938,211.938 227.75,212.375 227.563,212.688 227.313,213.188 227.25,213.313 227.188,213.375 227.063,213.625 226.75,214.25 226.375,214.813 225.875,215.75 225.688,216.063 225.563,216.25 225.188,216.875 225.188,217 224.75,217.688 224.625,217.875 224.438,218.25 223.875,219.125 223.563,219.688 223.125,220.438 223.063,220.563 223,220.625 222.5,221.438 222.125,222 221.563,222.938 221.375,223.188 221.25,223.375 220.875,224 220.813,224.063 220.625,224.375 220.313,224.813 220.25,224.938 220.125,225.063 219.813,225.563 219.688,225.75 219.438,226.125 219.313,226.25 219.063,226.625 218.813,227 218.688,227.125 218.5,227.438 218.313,227.688 218,228.125 217.875,228.25 217.75,228.438 217.313,229.063 217.25,229.063 217.188,229.125 216.938,229.438 216.625,229.875 216.563,229.938 216.313,230.313 216.188,230.375 216.063,230.563 216,230.688 215.875,230.813 215.75,230.938 215.625,231.063 215.5,231.25 215.5,231.25 215.313,231.438 215.125,231.688 214.875,232 214.625,232.25 214.438,232.5 214.313,232.625 214.188,232.688 214,232.938 213.688,233.25 213.5,233.438 213.25,233.688 213,234 212.813,234.125 212.563,234.375 212.25,234.688 212,234.875 211.813,235.063 211.563,235.313 211.188,235.563 211,235.75 210.875,235.875 210.25,236.313 210.188,236.375 210.125,236.438 209.813,236.625 209.75,236.625 209.438,236.875 209.313,236.938 209.125,237 209.063,237.063 208.875,237.188 208.688,237.25 208.438,237.375 208.375,237.375 208.125,237.563 208,237.688 207.25,237.688 208,237.75 208.125,237.875 208.375,238 208.438,238.063 208.688,238.125 208.875,238.25 209.125,238.438 209.313,238.5 209.75,238.75 210.125,239 210.188,239.063 210.25,239.125 210.875,239.5 211,239.688 211.188,239.875 211.563,240.125 211.813,240.375 212,240.563 212.25,240.75 212.563,241 212.813,241.313 213,241.438 213.25,241.75 213.5,242 213.688,242.188 214,242.438 214.188,242.75 214.313,242.813 214.438,242.938 214.625,243.188 214.875,243.438 215.125,243.75 215.313,243.938 215.438,244.125 215.875,244.563 216,244.75 216.063,244.875 216.563,245.5 216.625,245.563 216.625,245.563 216.938,245.938 217,246 217.188,246.313 217.25,246.313 217.313,246.375 217.75,247 217.875,247.125 218.25,247.75 218.5,248 218.688,248.313 219.063,248.813 219.25,249.188 219.688,249.625 220.125,250.375 220.25,250.5 220.313,250.563 220.625,251.063 220.813,251.375 220.875,251.438 221.25,252 221.375,252.25 221.563,252.5 222.125,253.438 222.5,254 223,254.813 223.063,254.875 223.125,255 223.563,255.75 223.875,256.313 224.438,257.188 224.625,257.563 224.75,257.75 225.188,258.438 225.188,258.5 225.563,259.188 225.688,259.375 225.875,259.625 226.375,260.625 226.75,261.188 227.063,261.75 227.188,262.063 227.25,262.125 227.313,262.25 227.563,262.75 227.75,263.063 227.938,263.5 228.25,264 228.688,264.875 228.75,264.875 228.75,264.938 228.75,264.938 229.438,266.313 229.688,266.813 230.188,267.688 230.188,267.75 230.25,267.813 230.688,268.688 230.875,269.188 231.625,270.563 231.625,270.625 231.688,270.688 232.313,272.063 232.563,272.5 233,273.5 233,273.5 233.5,274.438 233.625,274.938 234.313,276.188 234.375,276.375 234.438,276.5 235.063,277.75 "/>
  </g>
  <g id="g203" clip-path="url(#cp20)" transform="matrix(1.3888889,0,0,1.3888889,-70.170568,-2.8929855)">
    <clipPath id="cp20">
      <polygon id="polygon206" points="165.438,195.875 165.438,280.875 250.438,280.875 250.438,195.875 165.438,195.875 "/>
    </clipPath>
    <polyline style="fill:none;stroke:#000000;stroke-width:0.1875px;stroke-opacity:1" id="polyline208" points="249,279.438 165.563,279.438 "/>
    <polyline style="fill:none;stroke:#000000;stroke-width:0.1875px;stroke-opacity:1" id="polyline210" points="165.563,279.438 165.563,196 "/>
    <polyline style="fill:none;stroke:#000000;stroke-width:0.1875px;stroke-opacity:1" id="polyline212" points="165.563,196 249,196 "/>
    <polyline style="fill:none;stroke:#000000;stroke-width:0.1875px;stroke-opacity:1" id="polyline214" points="249,196 249,279.438 "/>
  </g>
  <g id="g216" clip-path="url(#cp21)" transform="matrix(1.3888889,0,0,1.3888889,-70.170568,-2.8929855)">
    <clipPath id="cp21">
      <polygon id="polygon219" points="256.875,195.875 256.875,279.875 340.875,279.875 340.875,195.875 256.875,195.875 "/>
    </clipPath>
    <polyline style="fill:none;stroke:#3f3d99;stroke-width:0.5px;stroke-opacity:1" id="polyline221" points="325.375,197.625 325.125,198.25 324.5,199.563 324.125,200.188 323.938,200.5 323.375,201.563 323.188,201.938 323.125,202.063 323.063,202.25 322.438,203.375 322.125,203.875 321.688,204.813 321.625,204.875 321.125,205.75 320.813,206.25 320.188,207.438 320.063,207.563 320,207.688 319.813,208.063 319.563,208.438 319.125,209.125 319,209.375 318.75,209.813 318.438,210.25 318.25,210.5 317.875,211.125 317.438,211.875 317.375,211.938 317.313,212 317.313,212 316.75,212.813 316.375,213.375 316.188,213.688 315.875,214.125 315.563,214.5 315.313,214.813 315,215.313 314.438,216.063 314.375,216.125 314.25,216.25 313.688,216.938 313.5,217.188 313.063,217.688 313.063,217.75 313,217.75 312.438,218.375 312.375,218.5 312.313,218.563 311.813,219.125 311.688,219.188 311.563,219.313 311.063,219.813 311,219.938 310.313,220.563 310.25,220.625 310.188,220.688 309.438,221.25 309.438,221.25 309.438,221.25 308.75,221.813 308.625,221.875 308.438,222 307.313,222.688 306.813,222.938 305.938,223.313 305.875,223.375 305.813,223.375 305.75,223.375 305.125,223.625 304.75,223.75 304.438,223.875 303.875,224 303.625,224 303,224.188 302.375,224.25 302.188,224.25 301.563,224.313 301.063,224.313 300.625,224.313 300.125,224.375 299.688,224.375 299.188,224.375 298.688,224.375 297.75,224.375 297.313,224.375 296.875,224.375 295.875,224.438 294.688,224.563 294.438,224.563 294.25,224.625 293.25,224.813 293.063,224.875 293,224.875 292.875,224.938 292,225.25 291.563,225.438 291.313,225.563 291,225.688 290.813,225.813 290.125,226.25 290.125,226.25 290.125,226.25 290.125,226.25 289.75,226.563 289.438,226.875 289.313,226.938 288.688,227.563 288.625,227.625 288.563,227.688 288.125,228.25 288,228.438 288,228.438 287.563,229.125 287.438,229.313 287.25,229.563 287.125,229.813 286.938,230.25 286.813,230.563 286.563,231.125 286.5,231.25 286.438,231.375 286.25,232 286.125,232.313 286,232.688 285.813,233.438 285.813,233.438 285.813,233.438 285.813,233.438 285.688,234.125 285.625,234.625 285.563,234.875 285.563,235.125 285.438,235.875 285.438,236.313 285.375,236.75 285.375,237.25 285.375,237.688 285.375,238.188 285.375,238.688 285.438,239.125 285.438,239.5 285.563,240.25 285.563,240.563 285.625,240.813 285.813,242 285.813,242 285.813,242 285.813,242 286,242.75 286.125,243.125 286.25,243.438 286.438,244.063 286.5,244.188 286.563,244.313 286.813,244.875 286.938,245.188 287.125,245.563 287.25,245.813 287.438,246.125 287.563,246.313 288,247 288,247 288,247 288.125,247.125 288.313,247.375 288.563,247.75 288.625,247.813 288.688,247.875 289.25,248.438 289.313,248.5 289.438,248.563 289.75,248.875 290.125,249.125 290.125,249.188 290.125,249.188 290.125,249.188 290.5,249.375 290.563,249.438 290.688,249.5 290.813,249.625 291,249.688 291.313,249.875 291.563,250 292,250.188 292.875,250.5 293,250.5 293.063,250.563 293.25,250.563 294.25,250.813 294.438,250.813 294.688,250.875 295.875,251 296.875,251 297.313,251.063 297.75,251.063 298.688,251.063 299.688,251.063 300.125,251.063 300.625,251.063 301.563,251.125 302.375,251.188 303,251.25 303.625,251.375 303.875,251.438 304.438,251.563 304.75,251.688 305.75,252 305.813,252.063 305.875,252.063 305.938,252.063 306.813,252.5 307.313,252.75 308.438,253.438 308.625,253.563 308.75,253.625 309.438,254.188 309.438,254.188 310.188,254.75 310.25,254.813 310.313,254.875 310.875,255.375 311,255.5 311.063,255.625 311.563,256.125 311.688,256.188 311.813,256.313 312.313,256.875 312.375,256.938 312.438,257 313,257.625 313.063,257.688 313.125,257.75 313.5,258.25 313.688,258.5 314.25,259.188 314.375,259.25 314.438,259.375 315,260.063 315.313,260.625 315.563,260.938 315.875,261.313 316.188,261.75 316.375,262.063 316.75,262.563 317.313,263.438 317.313,263.438 317.375,263.5 317.875,264.313 318.75,265.625 319,266.063 319.125,266.313 319.75,267.375 320,267.75 320.063,267.875 320.188,268 320.813,269.188 321.125,269.688 321.625,270.5 321.688,270.625 322.125,271.5 322.438,272.063 323.063,273.125 323.125,273.375 323.375,273.813 323.938,274.938 324.125,275.25 324.5,275.875 325.125,277.125 325.375,277.75 "/>
  </g>
  <g id="g223" clip-path="url(#cp22)" transform="matrix(1.3888889,0,0,1.3888889,-70.170568,-2.8929855)">
    <clipPath id="cp22">
      <polygon id="polygon226" points="256.875,195.875 256.875,280.875 341.875,280.875 341.875,195.875 256.875,195.875 "/>
    </clipPath>
    <polyline style="fill:none;stroke:#000000;stroke-width:0.1875px;stroke-opacity:1" id="polyline228" points="340.438,279.438 257,279.438 "/>
    <polyline style="fill:none;stroke:#000000;stroke-width:0.1875px;stroke-opacity:1" id="polyline230" points="257,279.438 257,196 "/>
    <polyline style="fill:none;stroke:#000000;stroke-width:0.1875px;stroke-opacity:1" id="polyline232" points="257,196 340.438,196 "/>
    <polyline style="fill:none;stroke:#000000;stroke-width:0.1875px;stroke-opacity:1" id="polyline234" points="340.438,196 340.438,279.438 "/>
  </g>
  <g id="g236" clip-path="url(#cp23)" transform="matrix(1.3888889,0,0,1.3888889,-70.170568,-2.8929855)">
    <clipPath id="cp23">
      <polygon id="polygon239" points="348.313,195.875 348.313,279.875 432.313,279.875 432.313,195.875 348.313,195.875 "/>
    </clipPath>
    <polyline style="fill:none;stroke:#3f3d99;stroke-width:0.5px;stroke-opacity:1" id="polyline241" points="415.688,197.625 415.438,198.125 414.75,199.375 414.5,199.875 414.063,200.5 413.688,201.188 413.563,201.438 413.25,201.938 413.063,202.313 412.625,202.938 412.375,203.375 411.625,204.625 411.563,204.688 411.5,204.813 411.188,205.25 410.5,206.25 410.375,206.438 410.188,206.75 409.5,207.688 409.188,208.125 408.75,208.75 408.5,209.125 408,209.75 407.563,210.313 407.375,210.5 407.375,210.563 407.313,210.563 406.688,211.313 406.125,211.938 406,212.063 405.875,212.25 405.313,212.813 404.75,213.375 404.625,213.563 404.438,213.688 403.875,214.25 403.188,214.813 403.125,214.938 403.063,215 402.313,215.563 402.25,215.563 401.625,216.063 401.5,216.125 401.313,216.25 400.875,216.5 400.625,216.688 400.188,216.938 399.688,217.188 398.875,217.563 398.75,217.625 398.688,217.625 398.563,217.688 398,217.875 397.625,218 397.313,218.125 396.688,218.25 396.5,218.313 395.875,218.5 394.938,218.625 394.438,218.688 394.063,218.688 393,218.813 391.875,218.813 391.563,218.813 391.313,218.813 390.125,218.813 389,218.813 388.75,218.813 388.438,218.875 387.313,218.875 386,219 385.875,219 385.75,219 385,219.125 384.5,219.188 384.438,219.188 384.313,219.25 383.375,219.438 383,219.563 382.313,219.813 382.25,219.813 381.563,220.125 381.313,220.25 380.813,220.563 380.375,220.813 380.125,220.938 379.688,221.25 379.563,221.375 378.813,222 378.75,222 378.688,222.063 378.063,222.75 377.5,223.375 377.375,223.5 377.25,223.688 376.813,224.375 376.563,224.813 375.875,226 375.75,226.188 375.75,226.25 375.625,226.5 375.313,227.188 375.125,227.563 375.063,227.688 374.938,228.188 374.688,228.875 374.563,229.125 374.563,229.25 374.438,229.688 374.25,230.375 374.188,230.563 374.125,230.875 374,231.25 373.938,231.563 373.875,232 373.75,232.688 373.75,232.75 373.688,232.938 373.625,233.438 373.563,234 373.5,234.313 373.438,234.875 373.438,235.313 373.375,235.875 373.375,236.313 373.375,236.625 373.313,237.375 373.375,237.688 373.313,238.063 373.375,238.75 373.375,239.125 373.375,239.563 373.438,240.125 373.438,240.563 373.5,241.125 373.563,241.438 373.625,242 373.688,242.5 373.75,242.688 373.75,242.75 373.875,243.438 373.938,243.875 374.125,244.563 374.188,244.875 374.25,245.063 374.438,245.75 374.563,246.188 374.563,246.313 374.688,246.563 374.938,247.25 375.063,247.75 375.125,247.875 375.313,248.25 375.625,248.938 375.75,249.188 375.75,249.25 375.875,249.438 376.563,250.563 376.813,251.063 377.25,251.75 377.375,251.875 377.5,252 378.063,252.688 378.688,253.313 378.75,253.375 378.813,253.438 379.563,254.063 380.125,254.5 380.813,254.875 381.313,255.125 381.563,255.313 382.25,255.625 382.313,255.625 383,255.875 383.375,255.938 384.313,256.188 384.438,256.25 385,256.313 385.75,256.438 385.875,256.438 386,256.438 387.313,256.563 388.438,256.563 388.75,256.563 389,256.563 390.125,256.563 391.313,256.625 391.563,256.625 391.875,256.625 393,256.625 394.063,256.688 394.438,256.75 394.938,256.813 395.875,256.938 396.5,257.125 396.688,257.125 397.313,257.313 397.625,257.438 398,257.563 398.563,257.75 398.688,257.813 398.75,257.813 398.875,257.875 399.688,258.25 400.188,258.5 400.625,258.75 401.25,259.188 401.5,259.313 401.625,259.375 402.25,259.875 402.313,259.875 403.063,260.438 403.125,260.5 403.188,260.625 403.875,261.188 404.438,261.688 404.625,261.875 404.75,262.063 405.313,262.625 405.875,263.188 406,263.313 406.125,263.5 406.688,264.125 407.313,264.813 407.375,264.875 407.375,264.875 407.563,265.125 408,265.688 408.5,266.313 408.75,266.688 409.188,267.313 409.5,267.75 410.188,268.688 410.375,269 410.5,269.188 411,269.813 411.25,270.25 411.5,270.625 411.563,270.688 411.625,270.813 412.375,272.063 412.625,272.438 413.063,273.125 413.25,273.5 413.563,274 413.688,274.25 414.063,274.938 414.5,275.563 414.75,276.063 415.438,277.313 415.688,277.75 "/>
  </g>
  <g id="g243" clip-path="url(#cp24)" transform="matrix(1.3888889,0,0,1.3888889,-70.170568,-2.8929855)">
    <clipPath id="cp24">
      <polygon id="polygon246" points="348.313,195.875 348.313,280.875 433.313,280.875 433.313,195.875 348.313,195.875 "/>
    </clipPath>
    <polyline style="fill:none;stroke:#000000;stroke-width:0.1875px;stroke-opacity:1" id="polyline248" points="431.875,279.438 348.438,279.438 "/>
    <polyline style="fill:none;stroke:#000000;stroke-width:0.1875px;stroke-opacity:1" id="polyline250" points="348.438,279.438 348.438,196 "/>
    <polyline style="fill:none;stroke:#000000;stroke-width:0.1875px;stroke-opacity:1" id="polyline252" points="348.438,196 431.875,196 "/>
    <polyline style="fill:none;stroke:#000000;stroke-width:0.1875px;stroke-opacity:1" id="polyline254" points="431.875,196 431.875,279.438 "/>
  </g>
  <g id="g256" clip-path="url(#cp25)" transform="matrix(1.3888889,0,0,1.3888889,-70.170568,-2.8929855)">
    <clipPath id="cp25">
      <polygon id="polygon259" points="74,287.313 74,371.313 158,371.313 158,287.313 74,287.313 "/>
    </clipPath>
    <polyline style="fill:none;stroke:#3f3d99;stroke-width:0.5px;stroke-opacity:1" id="polyline261" points="142.5,289.063 142.25,289.75 141.563,291.188 141.313,291.688 141.188,291.938 140.813,292.688 140.5,293.375 140.375,293.625 140.125,294.188 139.813,294.813 139.438,295.563 139.125,296.25 138.75,297.125 138.563,297.5 138.438,297.688 138.188,298.188 138.063,298.438 137.75,299.125 137.563,299.438 137.313,300.063 137,300.563 136.625,301.313 136.313,302 135.875,302.875 135.688,303.188 135.563,303.375 135.25,304 134.813,304.813 134.688,305.125 134.438,305.688 134.125,306.25 133.75,307 133.375,307.688 133,308.438 132.75,308.875 132.625,309.125 132.25,309.813 132.25,309.875 131.875,310.563 131.75,310.75 131.563,311.188 131.125,312 130.813,312.625 130.688,312.875 130.375,313.438 130.125,313.938 129.813,314.5 129.625,314.875 129.438,315.313 129.313,315.5 129.188,315.813 128.938,316.25 128.875,316.438 128.688,316.813 128.375,317.375 128.25,317.688 127.938,318.375 127.813,318.563 127.563,319.125 127.5,319.375 127.25,319.875 127.063,320.375 126.938,320.563 126.75,321.125 126.625,321.375 126.375,322 126.25,322.375 125.938,323.375 125.875,323.438 125.875,323.5 125.813,323.625 125.563,324.563 125.5,324.875 125.375,325.313 125.188,326.313 125.063,327 125.063,327.063 125,327.75 124.938,328.25 124.938,328.625 124.938,329.125 124.938,329.688 124.938,330.063 125,330.563 125.063,331.375 125.188,332 125.313,332.563 125.375,333 125.5,333.438 125.563,333.75 125.813,334.688 125.875,334.813 125.875,334.875 125.938,334.938 126.25,335.938 126.375,336.313 126.563,336.75 126.625,336.938 126.75,337.188 126.938,337.75 127.063,337.938 127.25,338.438 127.5,338.938 127.563,339.188 127.813,339.75 127.938,339.938 128.25,340.625 128.375,340.938 128.688,341.5 128.875,341.875 128.938,342.063 129.188,342.5 129.313,342.813 129.438,343 129.625,343.438 129.813,343.813 130.125,344.375 130.375,344.875 130.688,345.438 130.813,345.688 131.125,346.313 131.563,347.125 131.75,347.563 131.875,347.75 132.25,348.438 132.25,348.5 132.625,349.188 132.75,349.438 133,349.875 133.375,350.625 133.75,351.313 133.75,351.375 134.125,352.063 134.438,352.625 134.688,353.188 135.25,354.313 135.563,354.938 135.688,355.125 135.875,355.438 136.313,356.313 136.625,357 136.75,357.25 137,357.75 137.313,358.25 137.563,358.938 138.188,360.063 138.438,360.625 138.563,360.813 138.75,361.188 139.125,362.063 139.438,362.75 139.813,363.5 140.125,364.125 140.375,364.688 140.813,365.625 141.188,366.375 141.313,366.625 141.563,367.125 142.25,368.563 142.5,369.25 "/>
  </g>
  <g id="g263" clip-path="url(#cp26)" transform="matrix(1.3888889,0,0,1.3888889,-70.170568,-2.8929855)">
    <clipPath id="cp26">
      <polygon id="polygon266" points="74,287.313 74,372.313 159,372.313 159,287.313 74,287.313 "/>
    </clipPath>
    <polyline style="fill:none;stroke:#000000;stroke-width:0.1875px;stroke-opacity:1" id="polyline268" points="157.563,370.875 74.0625,370.875 "/>
    <polyline style="fill:none;stroke:#000000;stroke-width:0.1875px;stroke-opacity:1" id="polyline270" points="74.0625,370.875 74.0625,287.438 "/>
    <polyline style="fill:none;stroke:#000000;stroke-width:0.1875px;stroke-opacity:1" id="polyline272" points="74.0625,287.438 157.563,287.438 "/>
    <polyline style="fill:none;stroke:#000000;stroke-width:0.1875px;stroke-opacity:1" id="polyline274" points="157.563,287.438 157.563,370.875 "/>
  </g>
  <g id="g276" clip-path="url(#cp27)" transform="matrix(1.3888889,0,0,1.3888889,-70.170568,-2.8929855)">
    <clipPath id="cp27">
      <polygon id="polygon279" points="165.438,287.313 165.438,371.313 249.438,371.313 249.438,287.313 165.438,287.313 "/>
    </clipPath>
    <polyline style="fill:none;stroke:#3f3d99;stroke-width:0.5px;stroke-opacity:1" id="polyline281" points="232.938,289.063 232.813,289.313 232,290.938 231.625,291.688 231.438,291.938 231.313,292.25 231,292.813 230.688,293.375 230.188,294.438 230.063,294.688 229.938,294.813 229.75,295.25 229.563,295.625 229.188,296.25 229.063,296.563 228.75,297.125 228.375,297.688 228,298.375 228,298.375 227.625,299.125 227.313,299.688 227,300.188 226.813,300.563 226.063,301.75 225.938,302 225.875,302.125 225.063,303.375 224.875,303.813 224.438,304.5 224.188,304.813 223.875,305.438 223.75,305.563 223.313,306.25 223,306.75 222.625,307.313 222.375,307.688 221.563,308.875 221.5,309 221.438,309.125 221.063,309.625 220.875,309.875 220.375,310.563 220.313,310.688 220.125,310.938 219.875,311.25 219.688,311.563 219.375,312 219.125,312.375 218.813,312.688 218.688,312.875 218.5,313.188 218.313,313.438 218,313.813 217.875,314 217.313,314.688 217.125,314.875 216.625,315.5 216.563,315.563 216,316.25 215.938,316.375 215.875,316.438 215.25,317.125 214.75,317.688 214.563,317.875 214.438,318.063 213.938,318.625 213.438,319.125 213.25,319.375 213,319.688 212.563,320.125 212.125,320.563 211.875,320.875 211.563,321.25 211.188,321.625 210.813,322 210.5,322.375 210.125,322.875 209.875,323.188 209.625,323.438 208.688,324.75 208.688,324.813 208.625,324.875 208.563,325 208.125,325.75 208,326.063 207.875,326.313 207.688,326.75 207.625,327 207.5,327.5 207.438,327.75 207.375,327.875 207.313,328.375 207.313,328.438 207.313,328.5 207.25,329.125 207.25,329.125 207.25,329.125 207.313,329.813 207.313,329.875 207.313,329.938 207.375,330.438 207.438,330.563 207.5,330.813 207.625,331.313 207.688,331.563 207.875,332 208,332.25 208.125,332.563 208.563,333.313 208.625,333.438 208.688,333.5 208.688,333.563 209.25,334.313 209.625,334.875 209.875,335.125 210.125,335.438 210.5,335.938 210.813,336.313 211.188,336.688 211.563,337.063 211.875,337.438 212.125,337.75 212.563,338.188 213,338.625 213.25,338.938 213.438,339.188 213.938,339.688 214.438,340.25 214.563,340.438 214.75,340.625 215.25,341.188 215.875,341.875 215.938,341.938 216,342.063 216.563,342.75 216.625,342.813 217.188,343.438 217.25,343.563 217.313,343.625 217.75,344.188 217.875,344.313 218.25,344.875 218.5,345.125 218.688,345.438 219.125,345.938 219.375,346.313 219.688,346.75 220.125,347.375 220.313,347.625 220.375,347.75 221,348.625 221.438,349.188 221.5,349.313 221.563,349.375 222.625,351 223.25,352.063 223.75,352.75 224.438,353.813 224.875,354.5 225.063,354.938 225.938,356.313 226.063,356.563 226.813,357.75 227,358.125 227.313,358.625 227.625,359.188 228,359.938 228,359.938 228.375,360.625 228.75,361.188 229.063,361.75 229.188,362.063 229.563,362.688 229.75,363.063 229.938,363.5 230.063,363.625 230.188,363.875 230.688,364.938 231,365.5 231.313,366.063 231.438,366.375 231.625,366.625 232,367.375 232.813,369 232.938,369.25 "/>
  </g>
  <g id="g283" clip-path="url(#cp28)" transform="matrix(1.3888889,0,0,1.3888889,-70.170568,-2.8929855)">
    <clipPath id="cp28">
      <polygon id="polygon286" points="165.438,287.313 165.438,372.313 250.438,372.313 250.438,287.313 165.438,287.313 "/>
    </clipPath>
    <polyline style="fill:none;stroke:#000000;stroke-width:0.1875px;stroke-opacity:1" id="polyline288" points="249,370.875 165.563,370.875 "/>
    <polyline style="fill:none;stroke:#000000;stroke-width:0.1875px;stroke-opacity:1" id="polyline290" points="165.563,370.875 165.563,287.438 "/>
    <polyline style="fill:none;stroke:#000000;stroke-width:0.1875px;stroke-opacity:1" id="polyline292" points="165.563,287.438 249,287.438 "/>
    <polyline style="fill:none;stroke:#000000;stroke-width:0.1875px;stroke-opacity:1" id="polyline294" points="249,287.438 249,370.875 "/>
  </g>
  <g id="g296" clip-path="url(#cp29)" transform="matrix(1.3888889,0,0,1.3888889,-70.170568,-2.8929855)">
    <clipPath id="cp29">
      <polygon id="polygon299" points="256.875,287.313 256.875,371.313 340.875,371.313 340.875,287.313 256.875,287.313 "/>
    </clipPath>
    <polyline style="fill:none;stroke:#3f3d99;stroke-width:0.5px;stroke-opacity:1" id="polyline301" points="323.188,289.063 323.063,289.375 322.625,290.125 321.625,291.938 321.625,291.938 321.625,291.938 321.625,292 320.75,293.375 320.563,293.75 320.188,294.438 319.938,294.813 319.625,295.375 319.5,295.563 319.063,296.25 318.75,296.813 318.375,297.313 318.188,297.688 317.813,298.188 317.313,299 317.25,299.063 317.25,299.125 317.125,299.313 316.688,299.938 316.25,300.563 316.125,300.75 315.875,301.125 315.25,302 314.938,302.438 314.438,303.063 314.188,303.375 313.688,304.063 313.063,304.813 313,304.875 312.375,305.625 311.875,306.25 311.563,306.563 311.063,307.125 310.5,307.688 310.375,307.875 310.188,308.125 309.625,308.625 309.063,309.125 308.938,309.313 308.75,309.5 308.188,310 307.5,310.563 307.313,310.688 306.563,311.25 306.563,311.25 305.875,311.813 305.563,312 304.938,312.438 304.5,312.688 304.438,312.75 304,313 303.75,313.188 303.313,313.438 303.125,313.563 303,313.625 302.563,313.875 302.188,314.063 301.563,314.375 301.25,314.563 300.625,314.875 300.125,315.125 299.625,315.313 299.375,315.5 298.688,315.813 297.813,316.25 297.438,316.438 297.313,316.563 296.563,316.938 295.875,317.438 295.688,317.5 295.375,317.688 294.813,318.125 294.438,318.438 294.438,318.438 294.063,318.75 293.625,319.125 293.313,319.438 293,319.813 292.625,320.188 292.375,320.563 292,321 291.563,321.75 291.438,321.875 291.375,322 291.25,322.313 290.938,322.813 290.813,323.125 290.688,323.438 290.563,323.875 290.25,324.75 290.188,324.875 290.188,324.938 290.125,325.125 290,325.563 289.938,326.063 289.875,326.313 289.813,326.625 289.688,327.313 289.688,327.75 289.625,328.188 289.625,328.625 289.625,329.125 289.625,329.688 289.625,330.125 289.688,330.563 289.688,331 289.813,331.688 289.875,332 289.938,332.25 290,332.75 290.125,333.188 290.188,333.375 290.188,333.438 290.25,333.563 290.563,334.438 290.688,334.875 290.813,335.188 290.938,335.5 291.25,336 291.375,336.313 291.438,336.438 291.563,336.563 292,337.313 292.375,337.75 292.625,338.125 293,338.5 293.313,338.875 293.625,339.188 294.063,339.563 294.438,339.875 295.375,340.625 295.688,340.813 295.875,340.875 296.563,341.375 297.313,341.75 297.438,341.875 298.688,342.438 299.375,342.813 300.125,343.188 300.625,343.438 301.25,343.75 301.563,343.938 302.563,344.438 303,344.688 303.125,344.75 303.313,344.875 304,345.313 304.438,345.563 304.938,345.875 305.563,346.313 305.875,346.5 306.563,347.063 307.313,347.625 307.5,347.75 308.188,348.313 308.75,348.813 308.938,349 309.063,349.188 309.625,349.688 310.188,350.188 310.375,350.438 310.5,350.625 311.063,351.188 311.563,351.75 311.875,352.063 312.375,352.688 313,353.438 313.063,353.5 313.25,353.688 313.688,354.25 314.188,354.938 314.438,355.25 314.938,355.875 315.25,356.313 315.875,357.188 316.125,357.563 316.25,357.75 316.688,358.375 317.125,359 317.25,359.188 317.25,359.25 317.313,359.313 317.813,360.125 318.188,360.625 318.375,361 318.75,361.5 319.5,362.75 319.875,363.5 320.563,364.563 321.625,366.313 321.625,366.375 321.625,366.375 321.625,366.375 322.625,368.188 323.063,368.938 323.188,369.25 "/>
  </g>
  <g id="g303" clip-path="url(#cp30)" transform="matrix(1.3888889,0,0,1.3888889,-70.170568,-2.8929855)">
    <clipPath id="cp30">
      <polygon id="polygon306" points="256.875,287.313 256.875,372.313 341.875,372.313 341.875,287.313 256.875,287.313 "/>
    </clipPath>
    <polyline style="fill:none;stroke:#000000;stroke-width:0.1875px;stroke-opacity:1" id="polyline308" points="340.438,370.875 257,370.875 "/>
    <polyline style="fill:none;stroke:#000000;stroke-width:0.1875px;stroke-opacity:1" id="polyline310" points="257,370.875 257,287.438 "/>
    <polyline style="fill:none;stroke:#000000;stroke-width:0.1875px;stroke-opacity:1" id="polyline312" points="257,287.438 340.438,287.438 "/>
    <polyline style="fill:none;stroke:#000000;stroke-width:0.1875px;stroke-opacity:1" id="polyline314" points="340.438,287.438 340.438,370.875 "/>
  </g>
  <g id="g316" clip-path="url(#cp31)" transform="matrix(1.3888889,0,0,1.3888889,-70.170568,-2.8929855)">
    <clipPath id="cp31">
      <polygon id="polygon319" points="348.313,287.313 348.313,371.313 432.313,371.313 432.313,287.313 348.313,287.313 "/>
    </clipPath>
    <polyline style="fill:none;stroke:#3f3d99;stroke-width:0.5px;stroke-opacity:1" id="polyline321" points="413.375,369.25 413.25,369 413.063,368.688 412.5,367.813 412.188,367.25 411.625,366.375 411.625,366.375 411.063,365.5 410.688,364.938 410.188,364.188 409.938,363.75 409.688,363.5 408.75,362.125 408.75,362.063 408.688,362.063 408.563,361.875 407.625,360.625 407.5,360.438 407.313,360.188 406.875,359.688 406.5,359.188 406.25,358.875 405.875,358.438 405.25,357.75 404.875,357.313 404.438,356.875 404.188,356.563 403.938,356.313 403.5,355.875 403.063,355.375 402.5,354.938 402.063,354.5 401.625,354.063 400.813,353.5 400.5,353.188 400.188,352.938 398.875,352.063 398.813,352 398.75,351.938 398.438,351.75 397.313,351.063 397,350.875 396.5,350.625 395.875,350.313 395.25,350 395.125,349.938 394.438,349.625 393.313,349.188 393.125,349.125 393,349.063 392.813,349 392.063,348.688 391.563,348.563 391,348.313 390.563,348.188 390.125,348.063 389.375,347.75 388.875,347.563 388.75,347.5 388.313,347.375 387.313,346.938 386.875,346.75 385.938,346.313 385.875,346.313 385.75,346.25 384.938,345.813 384.438,345.438 384.063,345.25 383.625,344.875 383.25,344.625 383,344.438 382.688,344.188 382.5,344 382.313,343.813 381.938,343.438 381.75,343.313 381.563,343.125 380.688,342.063 380.438,341.688 380.125,341.313 379.688,340.625 379.313,340 379.125,339.625 378.938,339.188 378.875,339 378.688,338.688 378.438,338 378.313,337.75 378.063,337.125 378.063,337 378,336.875 377.813,336.313 377.688,335.875 377.5,335.125 377.438,334.875 377.25,334.063 377.188,333.563 377.125,333.313 377.063,332 376.875,331 376.875,330.188 376.813,329.125 376.875,328.125 376.875,327.313 377,326.313 377.125,325 377.188,324.75 377.25,324.25 377.438,323.563 377.438,323.438 377.5,323.188 377.688,322.438 377.875,322 378.063,321.313 378.063,321.188 378.313,320.563 378.438,320.313 378.688,319.625 378.875,319.313 378.938,319.125 379.125,318.688 379.313,318.313 379.688,317.688 380.125,317 380.438,316.563 380.688,316.25 381.063,315.75 381.25,315.563 381.563,315.188 381.75,315 381.938,314.875 383,313.875 383.25,313.688 383.563,313.438 383.688,313.313 384.063,313.063 384.438,312.813 384.688,312.688 384.938,312.5 385.75,312.063 385.875,312 385.875,312 385.938,312 386.875,311.563 387.313,311.375 388.313,310.938 388.75,310.813 388.875,310.75 389.375,310.563 390.125,310.25 390.563,310.125 391,310 391.563,309.75 392.063,309.625 392.813,309.313 393,309.25 393.125,309.188 393.313,309.125 394.438,308.688 395.125,308.375 395.25,308.313 395.875,308 396.5,307.688 397,307.438 397.313,307.25 397.938,306.875 398.438,306.563 398.75,306.375 398.813,306.313 398.875,306.25 400.188,305.375 400.5,305.125 400.813,304.813 401.625,304.25 402.063,303.813 402.5,303.375 403.063,302.938 403.5,302.438 403.938,302 404.188,301.75 404.438,301.438 404.875,301 405.25,300.563 405.875,299.875 406.25,299.438 406.5,299.125 407.313,298.125 407.5,297.875 407.625,297.688 408.563,296.438 408.688,296.25 408.75,296.25 408.75,296.188 409.688,294.813 409.938,294.563 410.188,294.125 410.688,293.375 411.063,292.813 411.625,291.938 411.625,291.938 412.188,291.063 412.5,290.5 413.063,289.625 413.25,289.313 413.375,289.063 "/>
  </g>
  <g id="g323" clip-path="url(#cp32)" transform="matrix(1.3888889,0,0,1.3888889,-70.170568,-2.8929855)">
    <clipPath id="cp32">
      <polygon id="polygon326" points="348.313,287.313 348.313,372.313 433.313,372.313 433.313,287.313 348.313,287.313 "/>
    </clipPath>
    <polyline style="fill:none;stroke:#000000;stroke-width:0.1875px;stroke-opacity:1" id="polyline328" points="431.875,370.875 348.438,370.875 "/>
    <polyline style="fill:none;stroke:#000000;stroke-width:0.1875px;stroke-opacity:1" id="polyline330" points="348.438,370.875 348.438,287.438 "/>
    <polyline style="fill:none;stroke:#000000;stroke-width:0.1875px;stroke-opacity:1" id="polyline332" points="348.438,287.438 431.875,287.438 "/>
    <polyline style="fill:none;stroke:#000000;stroke-width:0.1875px;stroke-opacity:1" id="polyline334" points="431.875,287.438 431.875,370.875 "/>
  </g>
  <defs id="defs336"/>
  <text xml:space="preserve" style="font-size:12px;font-style:normal;font-weight:normal;fill:#000000;fill-opacity:1;stroke:none;stroke-width:1px;stroke-linecap:butt;stroke-linejoin:miter;stroke-opacity:1;font-family:Arial" x="-0.43945313" y="76.792343" id="text2491"><tspan sodipodi:role="line" id="tspan2493" x="-0.43945313" y="76.792343" style="font-size:10px"><tspan style="font-size:10px;font-style:italic" id="tspan2495">a </tspan>= -2</tspan></text>
  <text xml:space="preserve" style="font-size:12px;font-style:normal;font-weight:normal;fill:#000000;fill-opacity:1;stroke:none;stroke-width:1px;stroke-linecap:butt;stroke-linejoin:miter;stroke-opacity:1;font-family:Arial" x="-0.43945313" y="457.80399" id="text2497"><tspan sodipodi:role="line" id="tspan2499" x="-0.43945313" y="457.80399" style="font-size:10px"><tspan style="font-size:10px;font-style:italic" id="tspan2501">a </tspan>= 1</tspan></text>
  <text xml:space="preserve" style="font-size:12px;font-style:normal;font-weight:normal;fill:#000000;fill-opacity:1;stroke:none;stroke-width:1px;stroke-linecap:butt;stroke-linejoin:miter;stroke-opacity:1;font-family:Arial" x="-0.43945313" y="203.81091" id="text2503"><tspan sodipodi:role="line" id="tspan2505" x="-0.43945313" y="203.81091" style="font-size:10px"><tspan style="font-size:10px;font-style:italic" id="tspan2507">a </tspan>= -1</tspan></text>
  <text xml:space="preserve" style="font-size:12px;font-style:normal;font-weight:normal;fill:#000000;fill-opacity:1;stroke:none;stroke-width:1px;stroke-linecap:butt;stroke-linejoin:miter;stroke-opacity:1;font-family:Arial" x="-0.43945313" y="330.80499" id="text2509"><tspan sodipodi:role="line" id="tspan2511" x="-0.43945313" y="330.80499" style="font-size:10px"><tspan style="font-size:10px;font-style:italic" id="tspan2513">a </tspan>= 0</tspan></text>
  <text xml:space="preserve" style="font-size:12px;font-style:normal;font-weight:normal;fill:#000000;fill-opacity:1;stroke:none;stroke-width:1px;stroke-linecap:butt;stroke-linejoin:miter;stroke-opacity:1;font-family:Arial" x="77.445343" y="7.1899414" id="text2515"><tspan sodipodi:role="line" id="tspan2517" x="77.445343" y="7.1899414" style="font-size:10px">b = -1 </tspan></text>
  <text xml:space="preserve" style="font-size:12px;font-style:normal;font-weight:normal;fill:#000000;fill-opacity:1;stroke:none;stroke-width:1px;stroke-linecap:butt;stroke-linejoin:miter;stroke-opacity:1;font-family:Arial" x="206.13348" y="7.1875" id="text2521"><tspan sodipodi:role="line" id="tspan2523" x="206.13348" y="7.1875" style="font-size:10px">b = 0 </tspan></text>
  <text xml:space="preserve" style="font-size:12px;font-style:normal;font-weight:normal;fill:#000000;fill-opacity:1;stroke:none;stroke-width:1px;stroke-linecap:butt;stroke-linejoin:miter;stroke-opacity:1;font-family:Arial" x="333.13" y="7.1899414" id="text2525"><tspan sodipodi:role="line" id="tspan2527" x="333.13" y="7.1899414" style="font-size:10px">b = 1 </tspan></text>
  <text xml:space="preserve" style="font-size:12px;font-style:normal;font-weight:normal;fill:#000000;fill-opacity:1;stroke:none;stroke-width:1px;stroke-linecap:butt;stroke-linejoin:miter;stroke-opacity:1;font-family:Arial" x="460.12656" y="7.1899414" id="text2529"><tspan sodipodi:role="line" id="tspan2531" x="460.12656" y="7.1899414" style="font-size:10px">b = 2 </tspan></text>
</svg>