<?xml version="1.0" encoding="UTF-8" standalone="no"?>
<!DOCTYPE svg PUBLIC "-//W3C//DTD SVG 1.1//EN"
 "http://www.w3.org/Graphics/SVG/1.1/DTD/svg11.dtd">
<!-- Generated by graphviz version 2.43.0 (0)
 -->
<!-- Title: A Pages: 1 -->
<svg width="210pt" height="422pt"
 viewBox="0.00 0.00 210.00 422.20" xmlns="http://www.w3.org/2000/svg" xmlns:xlink="http://www.w3.org/1999/xlink">
<g id="graph0" class="graph" transform="scale(1 1) rotate(0) translate(4 418.2)">
<title>A</title>
<polygon fill="white" stroke="transparent" points="-4,4 -4,-418.2 206,-418.2 206,4 -4,4"/>
<!-- alice_0 -->
<g id="node1" class="node">
<title>alice_0</title>
<ellipse fill="black" stroke="black" cx="29" cy="-385.2" rx="29" ry="29"/>
<text text-anchor="middle" x="29" y="-381.5" font-family="Helvetica,sans-Serif" font-size="14.00" fill="white">Alice</text>
</g>
<!-- alice_end -->
<!-- alice_0&#45;&gt;alice_end -->
<g id="edge1" class="edge">
<title>alice_0&#45;&gt;alice_end</title>
<path fill="none" stroke="black" d="M29,-356.17C29,-276.47 29,-57.38 29,-14.53"/>
</g>
<!-- bob_0 -->
<g id="node2" class="node">
<title>bob_0</title>
<ellipse fill="black" stroke="black" cx="173" cy="-385.2" rx="29" ry="29"/>
<text text-anchor="middle" x="173" y="-381.5" font-family="Helvetica,sans-Serif" font-size="14.00" fill="white">Bob</text>
</g>
<!-- bob_end -->
<!-- bob_0&#45;&gt;bob_end -->
<g id="edge2" class="edge">
<title>bob_0&#45;&gt;bob_end</title>
<path fill="none" stroke="black" d="M173,-356.17C173,-276.47 173,-57.38 173,-14.53"/>
</g>
<!-- alice_1 -->
<g id="node5" class="node">
<title>alice_1</title>
<ellipse fill="black" stroke="black" cx="29" cy="-295.2" rx="0" ry="0"/>
</g>
<!-- bob_1 -->
<g id="node13" class="node">
<title>bob_1</title>
<ellipse fill="black" stroke="black" cx="173" cy="-295.2" rx="0" ry="0"/>
</g>
<!-- alice_1&#45;&gt;bob_1 -->
<g id="edge3" class="edge">
<title>alice_1&#45;&gt;bob_1</title>
<path fill="none" stroke="black" d="M29.1,-295.2C32.74,-295.2 130.5,-295.2 162.77,-295.2"/>
<polygon fill="black" stroke="black" points="162.9,-298.7 172.9,-295.2 162.9,-291.7 162.9,-298.7"/>
<text text-anchor="middle" x="75.44" y="-299" font-family="Helvetica,sans-Serif" font-size="14.00">2 BTC</text>
</g>
<!-- alice_2 -->
<g id="node6" class="node">
<title>alice_2</title>
<ellipse fill="black" stroke="black" cx="29" cy="-259.2" rx="0" ry="0"/>
</g>
<!-- alice_3 -->
<g id="node7" class="node">
<title>alice_3</title>
<ellipse fill="black" stroke="black" cx="29" cy="-223.2" rx="0" ry="0"/>
</g>
<!-- alice_4 -->
<g id="node8" class="node">
<title>alice_4</title>
<ellipse fill="black" stroke="black" cx="29" cy="-187.2" rx="0" ry="0"/>
</g>
<!-- bob_4 -->
<g id="node16" class="node">
<title>bob_4</title>
<ellipse fill="black" stroke="black" cx="173" cy="-187.2" rx="0" ry="0"/>
</g>
<!-- alice_4&#45;&gt;bob_4 -->
<g id="edge6" class="edge">
<title>alice_4&#45;&gt;bob_4</title>
<path fill="none" stroke="black" d="M29.1,-187.2C32.74,-187.2 130.5,-187.2 162.77,-187.2"/>
<polygon fill="black" stroke="black" points="162.9,-190.7 172.9,-187.2 162.9,-183.7 162.9,-190.7"/>
<text text-anchor="middle" x="75.44" y="-191" font-family="Helvetica,sans-Serif" font-size="14.00">5 BTC</text>
</g>
<!-- alice_5 -->
<g id="node9" class="node">
<title>alice_5</title>
<ellipse fill="black" stroke="black" cx="29" cy="-151.2" rx="0" ry="0"/>
</g>
<!-- alice_6 -->
<g id="node10" class="node">
<title>alice_6</title>
<ellipse fill="black" stroke="black" cx="29" cy="-115.2" rx="0" ry="0"/>
</g>
<!-- bob_6 -->
<g id="node18" class="node">
<title>bob_6</title>
<ellipse fill="black" stroke="black" cx="173" cy="-115.2" rx="0" ry="0"/>
</g>
<!-- alice_6&#45;&gt;bob_6 -->
<g id="edge8" class="edge">
<title>alice_6&#45;&gt;bob_6</title>
<path fill="none" stroke="black" d="M29.1,-115.2C32.74,-115.2 130.5,-115.2 162.77,-115.2"/>
<polygon fill="black" stroke="black" points="162.9,-118.7 172.9,-115.2 162.9,-111.7 162.9,-118.7"/>
<text text-anchor="middle" x="75.44" y="-119" font-family="Helvetica,sans-Serif" font-size="14.00">3 BTC</text>
</g>
<!-- alice_7 -->
<g id="node11" class="node">
<title>alice_7</title>
<ellipse fill="black" stroke="black" cx="29" cy="-79.2" rx="0" ry="0"/>
</g>
<!-- bob_7 -->
<g id="node19" class="node">
<title>bob_7</title>
<ellipse fill="black" stroke="black" cx="173" cy="-79.2" rx="0" ry="0"/>
</g>
<!-- alice_7&#45;&gt;bob_7 -->
<g id="edge9" class="edge">
<title>alice_7&#45;&gt;bob_7</title>
<path fill="none" stroke="black" d="M29.1,-79.2C32.74,-79.2 130.5,-79.2 162.77,-79.2"/>
<polygon fill="black" stroke="black" points="162.9,-82.7 172.9,-79.2 162.9,-75.7 162.9,-82.7"/>
<text text-anchor="middle" x="75.44" y="-83" font-family="Helvetica,sans-Serif" font-size="14.00">4 BTC</text>
</g>
<!-- alice_8 -->
<g id="node12" class="node">
<title>alice_8</title>
<ellipse fill="black" stroke="black" cx="29" cy="-43.2" rx="0" ry="0"/>
</g>
<!-- bob_2 -->
<g id="node14" class="node">
<title>bob_2</title>
<ellipse fill="black" stroke="black" cx="173" cy="-259.2" rx="0" ry="0"/>
</g>
<!-- bob_2&#45;&gt;alice_2 -->
<g id="edge4" class="edge">
<title>bob_2&#45;&gt;alice_2</title>
<path fill="none" stroke="black" d="M172.9,-259.2C169.26,-259.2 71.5,-259.2 39.23,-259.2"/>
<polygon fill="black" stroke="black" points="39.1,-255.7 29.1,-259.2 39.1,-262.7 39.1,-255.7"/>
<text text-anchor="middle" x="85.56" y="-263" font-family="Helvetica,sans-Serif" font-size="14.00">1 BTC</text>
</g>
<!-- bob_3 -->
<g id="node15" class="node">
<title>bob_3</title>
<ellipse fill="black" stroke="black" cx="173" cy="-223.2" rx="0" ry="0"/>
</g>
<!-- bob_3&#45;&gt;alice_3 -->
<g id="edge5" class="edge">
<title>bob_3&#45;&gt;alice_3</title>
<path fill="none" stroke="black" d="M172.9,-223.2C169.26,-223.2 71.5,-223.2 39.23,-223.2"/>
<polygon fill="black" stroke="black" points="39.1,-219.7 29.1,-223.2 39.1,-226.7 39.1,-219.7"/>
<text text-anchor="middle" x="85.56" y="-227" font-family="Helvetica,sans-Serif" font-size="14.00">3 BTC</text>
</g>
<!-- bob_5 -->
<g id="node17" class="node">
<title>bob_5</title>
<ellipse fill="black" stroke="black" cx="173" cy="-151.2" rx="0" ry="0"/>
</g>
<!-- bob_5&#45;&gt;alice_5 -->
<g id="edge7" class="edge">
<title>bob_5&#45;&gt;alice_5</title>
<path fill="none" stroke="black" d="M172.9,-151.2C169.26,-151.2 71.5,-151.2 39.23,-151.2"/>
<polygon fill="black" stroke="black" points="39.1,-147.7 29.1,-151.2 39.1,-154.7 39.1,-147.7"/>
<text text-anchor="middle" x="85.56" y="-155" font-family="Helvetica,sans-Serif" font-size="14.00">4 BTC</text>
</g>
<!-- bob_8 -->
<g id="node20" class="node">
<title>bob_8</title>
<ellipse fill="black" stroke="black" cx="173" cy="-43.2" rx="0" ry="0"/>
</g>
<!-- bob_8&#45;&gt;alice_8 -->
<g id="edge10" class="edge">
<title>bob_8&#45;&gt;alice_8</title>
<path fill="none" stroke="black" d="M172.9,-43.2C169.26,-43.2 71.5,-43.2 39.23,-43.2"/>
<polygon fill="black" stroke="black" points="39.1,-39.7 29.1,-43.2 39.1,-46.7 39.1,-39.7"/>
<text text-anchor="middle" x="85.56" y="-47" font-family="Helvetica,sans-Serif" font-size="14.00">3 BTC</text>
</g>
</g>
</svg>
