<?xml version="1.0" encoding="UTF-8" standalone="no"?>
<!DOCTYPE svg PUBLIC "-//W3C//DTD SVG 1.1//EN"
 "http://www.w3.org/Graphics/SVG/1.1/DTD/svg11.dtd">
<!-- Generated by graphviz version 2.43.0 (0)
 -->
<!-- Title: C Pages: 1 -->
<svg width="355pt" height="346pt"
 viewBox="0.00 0.00 355.16 345.50" xmlns="http://www.w3.org/2000/svg" xmlns:xlink="http://www.w3.org/1999/xlink">
<g id="page0,1_graph0" class="graph" transform="scale(1 1) rotate(0) translate(4 341.5)">
<title>C</title>
<polygon fill="white" stroke="transparent" points="-4,4 -4,-341.5 351.16,-341.5 351.16,4 -4,4"/>
<!-- A -->
<g id="node1" class="node">
<title>A</title>
<ellipse fill="lightgray" stroke="black" cx="18" cy="-113.36" rx="18" ry="18"/>
<text text-anchor="middle" x="18" y="-109.66" font-family="Helvetica,sans-Serif" font-size="14.00">A</text>
</g>
<!-- B -->
<g id="node2" class="node">
<title>B</title>
<ellipse fill="lightgray" stroke="black" cx="30.44" cy="-199.73" rx="18" ry="18"/>
<text text-anchor="middle" x="30.44" y="-196.03" font-family="Helvetica,sans-Serif" font-size="14.00">B</text>
</g>
<!-- A&#45;&#45;B -->
<g id="edge1" class="edge">
<title>A&#45;&#45;B</title>
<path fill="none" stroke="black" stroke-width="4" d="M20.58,-131.26C22.71,-146.08 25.73,-167.04 27.87,-181.86"/>
</g>
<!-- C -->
<g id="node7" class="node">
<title>C</title>
<ellipse fill="none" stroke="black" cx="86.2" cy="-59.09" rx="18" ry="18"/>
<text text-anchor="middle" x="86.2" y="-55.39" font-family="Helvetica,sans-Serif" font-size="14.00">C</text>
</g>
<!-- A&#45;&#45;C -->
<g id="edge2" class="edge">
<title>A&#45;&#45;C</title>
<path fill="none" stroke="black" d="M32.13,-102.12C43.84,-92.8 60.39,-79.63 72.09,-70.32"/>
</g>
<!-- G -->
<g id="node3" class="node">
<title>G</title>
<ellipse fill="lightgray" stroke="black" cx="111.15" cy="-208.04" rx="18" ry="18"/>
<text text-anchor="middle" x="111.15" y="-204.34" font-family="Helvetica,sans-Serif" font-size="14.00">G</text>
</g>
<!-- B&#45;&#45;G -->
<g id="edge3" class="edge">
<title>B&#45;&#45;G</title>
<path fill="none" stroke="black" stroke-width="4" d="M48.35,-201.57C61.63,-202.94 79.67,-204.8 93.01,-206.17"/>
</g>
<!-- R -->
<g id="node18" class="node">
<title>R</title>
<ellipse fill="none" stroke="black" cx="35.34" cy="-284.38" rx="18" ry="18"/>
<text text-anchor="middle" x="35.34" y="-280.68" font-family="Helvetica,sans-Serif" font-size="14.00">R</text>
</g>
<!-- B&#45;&#45;R -->
<g id="edge26" class="edge">
<title>B&#45;&#45;R</title>
<path fill="none" stroke="black" d="M31.51,-218.1C32.33,-232.39 33.48,-252.13 34.3,-266.34"/>
</g>
<!-- J -->
<g id="node4" class="node">
<title>J</title>
<ellipse fill="lightgray" stroke="black" cx="189.82" cy="-197.02" rx="18" ry="18"/>
<text text-anchor="middle" x="189.82" y="-193.32" font-family="Helvetica,sans-Serif" font-size="14.00">J</text>
</g>
<!-- G&#45;&#45;J -->
<g id="edge12" class="edge">
<title>G&#45;&#45;J</title>
<path fill="none" stroke="black" stroke-width="4" d="M129,-205.54C141.78,-203.75 158.94,-201.35 171.77,-199.55"/>
</g>
<!-- H -->
<g id="node13" class="node">
<title>H</title>
<ellipse fill="none" stroke="black" cx="117.81" cy="-293.83" rx="18" ry="18"/>
<text text-anchor="middle" x="117.81" y="-290.13" font-family="Helvetica,sans-Serif" font-size="14.00">H</text>
</g>
<!-- G&#45;&#45;H -->
<g id="edge11" class="edge">
<title>G&#45;&#45;H</title>
<path fill="none" stroke="black" d="M112.56,-226.23C113.69,-240.79 115.27,-261.11 116.4,-275.66"/>
</g>
<!-- N -->
<g id="node5" class="node">
<title>N</title>
<ellipse fill="lightgray" stroke="black" cx="244.45" cy="-254.76" rx="18" ry="18"/>
<text text-anchor="middle" x="244.45" y="-251.06" font-family="Helvetica,sans-Serif" font-size="14.00">N</text>
</g>
<!-- J&#45;&#45;N -->
<g id="edge18" class="edge">
<title>J&#45;&#45;N</title>
<path fill="none" stroke="black" stroke-width="4" d="M202.22,-210.12C211.03,-219.44 222.84,-231.91 231.73,-241.31"/>
</g>
<!-- K -->
<g id="node11" class="node">
<title>K</title>
<ellipse fill="none" stroke="black" cx="201.37" cy="-113.65" rx="18" ry="18"/>
<text text-anchor="middle" x="201.37" y="-109.95" font-family="Helvetica,sans-Serif" font-size="14.00">K</text>
</g>
<!-- J&#45;&#45;K -->
<g id="edge16" class="edge">
<title>J&#45;&#45;K</title>
<path fill="none" stroke="black" d="M192.33,-178.93C194.27,-164.94 196.93,-145.68 198.87,-131.7"/>
</g>
<!-- M -->
<g id="node16" class="node">
<title>M</title>
<ellipse fill="none" stroke="black" cx="262.24" cy="-195.3" rx="18.7" ry="18.7"/>
<text text-anchor="middle" x="262.24" y="-191.6" font-family="Helvetica,sans-Serif" font-size="14.00">M</text>
</g>
<!-- J&#45;&#45;M -->
<g id="edge17" class="edge">
<title>J&#45;&#45;M</title>
<path fill="none" stroke="black" d="M208.1,-196.59C218.82,-196.33 232.36,-196.01 243.22,-195.75"/>
</g>
<!-- P -->
<g id="node6" class="node">
<title>P</title>
<ellipse fill="lightgray" stroke="black" cx="324.72" cy="-231.05" rx="18" ry="18"/>
<text text-anchor="middle" x="324.72" y="-227.35" font-family="Helvetica,sans-Serif" font-size="14.00">P</text>
</g>
<!-- N&#45;&#45;P -->
<g id="edge23" class="edge">
<title>N&#45;&#45;P</title>
<path fill="none" stroke="black" stroke-width="4" d="M261.87,-249.61C275.33,-245.64 293.88,-240.16 307.34,-236.19"/>
</g>
<!-- Q -->
<g id="node12" class="node">
<title>Q</title>
<ellipse fill="none" stroke="black" cx="328.96" cy="-130.23" rx="18.4" ry="18.4"/>
<text text-anchor="middle" x="328.96" y="-126.53" font-family="Helvetica,sans-Serif" font-size="14.00">Q</text>
</g>
<!-- P&#45;&#45;Q -->
<g id="edge25" class="edge">
<title>P&#45;&#45;Q</title>
<path fill="none" stroke="black" d="M325.48,-213.03C326.25,-194.79 327.43,-166.74 328.19,-148.44"/>
</g>
<!-- D -->
<g id="node8" class="node">
<title>D</title>
<ellipse fill="none" stroke="black" cx="166.45" cy="-18" rx="18" ry="18"/>
<text text-anchor="middle" x="166.45" y="-14.3" font-family="Helvetica,sans-Serif" font-size="14.00">D</text>
</g>
<!-- C&#45;&#45;D -->
<g id="edge4" class="edge">
<title>C&#45;&#45;D</title>
<path fill="none" stroke="black" d="M102.44,-50.77C116.37,-43.65 136.32,-33.43 150.24,-26.3"/>
</g>
<!-- F -->
<g id="node9" class="node">
<title>F</title>
<ellipse fill="none" stroke="black" cx="122.01" cy="-123.55" rx="18" ry="18"/>
<text text-anchor="middle" x="122.01" y="-119.85" font-family="Helvetica,sans-Serif" font-size="14.00">F</text>
</g>
<!-- C&#45;&#45;F -->
<g id="edge5" class="edge">
<title>C&#45;&#45;F</title>
<path fill="none" stroke="black" d="M95.05,-75.03C100.6,-85.02 107.73,-97.85 113.26,-107.8"/>
</g>
<!-- E -->
<g id="node10" class="node">
<title>E</title>
<ellipse fill="none" stroke="black" cx="249.71" cy="-58.08" rx="18" ry="18"/>
<text text-anchor="middle" x="249.71" y="-54.38" font-family="Helvetica,sans-Serif" font-size="14.00">E</text>
</g>
<!-- D&#45;&#45;E -->
<g id="edge6" class="edge">
<title>D&#45;&#45;E</title>
<path fill="none" stroke="black" d="M182.9,-25.92C197.5,-32.95 218.71,-43.16 233.3,-50.18"/>
</g>
<!-- F&#45;&#45;G -->
<g id="edge10" class="edge">
<title>F&#45;&#45;G</title>
<path fill="none" stroke="black" d="M119.7,-141.47C117.86,-155.81 115.29,-175.82 113.45,-190.15"/>
</g>
<!-- F&#45;&#45;K -->
<g id="edge9" class="edge">
<title>F&#45;&#45;K</title>
<path fill="none" stroke="black" d="M140.01,-121.31C153,-119.68 170.46,-117.51 183.43,-115.89"/>
</g>
<!-- E&#45;&#45;K -->
<g id="edge7" class="edge">
<title>E&#45;&#45;K</title>
<path fill="none" stroke="black" d="M237.76,-71.82C230.38,-80.3 220.93,-91.16 213.52,-99.68"/>
</g>
<!-- E&#45;&#45;Q -->
<g id="edge8" class="edge">
<title>E&#45;&#45;Q</title>
<path fill="none" stroke="black" d="M263.15,-70.32C277.73,-83.59 300.85,-104.64 315.45,-117.93"/>
</g>
<!-- L -->
<g id="node17" class="node">
<title>L</title>
<ellipse fill="none" stroke="black" cx="277.94" cy="-121.66" rx="18" ry="18"/>
<text text-anchor="middle" x="277.94" y="-117.96" font-family="Helvetica,sans-Serif" font-size="14.00">L</text>
</g>
<!-- K&#45;&#45;L -->
<g id="edge19" class="edge">
<title>K&#45;&#45;L</title>
<path fill="none" stroke="black" d="M219.52,-115.55C231.72,-116.82 247.75,-118.5 259.93,-119.78"/>
</g>
<!-- I -->
<g id="node14" class="node">
<title>I</title>
<ellipse fill="none" stroke="black" cx="202.7" cy="-319.5" rx="18" ry="18"/>
<text text-anchor="middle" x="202.7" y="-315.8" font-family="Helvetica,sans-Serif" font-size="14.00">I</text>
</g>
<!-- H&#45;&#45;I -->
<g id="edge13" class="edge">
<title>H&#45;&#45;I</title>
<path fill="none" stroke="black" d="M135.4,-299.15C150.07,-303.58 170.85,-309.87 185.43,-314.28"/>
</g>
<!-- I&#45;&#45;N -->
<g id="edge14" class="edge">
<title>I&#45;&#45;N</title>
<path fill="none" stroke="black" d="M212.6,-304.16C219.25,-293.84 227.99,-280.29 234.63,-269.99"/>
</g>
<!-- O -->
<g id="node15" class="node">
<title>O</title>
<ellipse fill="none" stroke="black" cx="291.55" cy="-316.46" rx="18.4" ry="18.4"/>
<text text-anchor="middle" x="291.55" y="-312.76" font-family="Helvetica,sans-Serif" font-size="14.00">O</text>
</g>
<!-- I&#45;&#45;O -->
<g id="edge15" class="edge">
<title>I&#45;&#45;O</title>
<path fill="none" stroke="black" d="M221.11,-318.87C236.36,-318.35 257.92,-317.61 273.17,-317.09"/>
</g>
<!-- O&#45;&#45;P -->
<g id="edge24" class="edge">
<title>O&#45;&#45;P</title>
<path fill="none" stroke="black" d="M298.27,-299.17C304.06,-284.26 312.38,-262.84 318.13,-248.02"/>
</g>
<!-- M&#45;&#45;N -->
<g id="edge22" class="edge">
<title>M&#45;&#45;N</title>
<path fill="none" stroke="black" d="M256.81,-213.46C254.56,-220.98 251.96,-229.66 249.73,-237.11"/>
</g>
<!-- L&#45;&#45;Q -->
<g id="edge21" class="edge">
<title>L&#45;&#45;Q</title>
<path fill="none" stroke="black" d="M295.79,-124.66C300.61,-125.47 305.85,-126.35 310.7,-127.16"/>
</g>
<!-- L&#45;&#45;M -->
<g id="edge20" class="edge">
<title>L&#45;&#45;M</title>
<path fill="none" stroke="black" d="M274.14,-139.49C271.75,-150.73 268.66,-165.21 266.23,-176.61"/>
</g>
<!-- R&#45;&#45;H -->
<g id="edge27" class="edge">
<title>R&#45;&#45;H</title>
<path fill="none" stroke="black" d="M53.24,-286.43C66.98,-288 85.87,-290.17 99.67,-291.75"/>
</g>
</g>
</svg>
