<?xml version="1.0" encoding="UTF-8" standalone="no"?>
<!DOCTYPE svg PUBLIC "-//W3C//DTD SVG 1.1//EN"
 "http://www.w3.org/Graphics/SVG/1.1/DTD/svg11.dtd">
<!-- Generated by graphviz version 2.43.0 (0)
 -->
<!-- Title: B Pages: 1 -->
<svg width="354pt" height="566pt"
 viewBox="0.00 0.00 354.00 566.20" xmlns="http://www.w3.org/2000/svg" xmlns:xlink="http://www.w3.org/1999/xlink">
<g id="page0,1_graph0" class="graph" transform="scale(1 1) rotate(0) translate(4 562.2)">
<title>B</title>
<polygon fill="white" stroke="transparent" points="-4,4 -4,-562.2 350,-562.2 350,4 -4,4"/>
<!-- alice_0 -->
<g id="node1" class="node">
<title>alice_0</title>
<ellipse fill="black" stroke="black" cx="29" cy="-529.2" rx="29" ry="29"/>
<text text-anchor="middle" x="29" y="-525.5" font-family="Helvetica,sans-Serif" font-size="14.00" fill="white">Alice</text>
</g>
<!-- alice_end -->
<!-- alice_0&#45;&gt;alice_end -->
<g id="edge1" class="edge">
<title>alice_0&#45;&gt;alice_end</title>
<path fill="none" stroke="black" d="M29,-500.02C29,-399.1 29,-68.18 29,-14.57"/>
</g>
<!-- bob_0 -->
<g id="node2" class="node">
<title>bob_0</title>
<ellipse fill="black" stroke="black" cx="173" cy="-529.2" rx="29" ry="29"/>
<text text-anchor="middle" x="173" y="-525.5" font-family="Helvetica,sans-Serif" font-size="14.00" fill="white">Bob</text>
</g>
<!-- bob_end -->
<!-- bob_0&#45;&gt;bob_end -->
<g id="edge2" class="edge">
<title>bob_0&#45;&gt;bob_end</title>
<path fill="none" stroke="black" d="M173,-500.02C173,-399.1 173,-68.18 173,-14.57"/>
</g>
<!-- ln_0 -->
<g id="node3" class="node">
<title>ln_0</title>
<ellipse fill="black" stroke="black" cx="317" cy="-529.2" rx="29" ry="29"/>
<text text-anchor="middle" x="317" y="-525.5" font-family="Helvetica,sans-Serif" font-size="14.00" fill="white">LN</text>
</g>
<!-- ln_end -->
<!-- ln_0&#45;&gt;ln_end -->
<g id="edge3" class="edge">
<title>ln_0&#45;&gt;ln_end</title>
<path fill="none" stroke="black" d="M317,-500.02C317,-399.1 317,-68.18 317,-14.57"/>
</g>
<!-- alice_a -->
<g id="node7" class="node">
<title>alice_a</title>
<ellipse fill="black" stroke="black" cx="29" cy="-439.2" rx="0" ry="0"/>
</g>
<!-- ln_a -->
<g id="node11" class="node">
<title>ln_a</title>
<ellipse fill="black" stroke="black" cx="317" cy="-439.2" rx="0" ry="0"/>
</g>
<!-- alice_a&#45;&gt;ln_a -->
<g id="edge4" class="edge">
<title>alice_a&#45;&gt;ln_a</title>
<path fill="none" stroke="black" d="M29.05,-439.2C32.98,-439.2 255.79,-439.2 306.71,-439.2"/>
<polygon fill="black" stroke="black" points="306.95,-442.7 316.95,-439.2 306.95,-435.7 306.95,-442.7"/>
<text text-anchor="middle" x="147.38" y="-443" font-family="Helvetica,sans-Serif" font-size="14.00">5 BTC</text>
</g>
<!-- alice_b -->
<g id="node8" class="node">
<title>alice_b</title>
<ellipse fill="black" stroke="black" cx="29" cy="-403.2" rx="0" ry="0"/>
</g>
<!-- bob_a -->
<g id="node9" class="node">
<title>bob_a</title>
<ellipse fill="black" stroke="black" cx="173" cy="-439.2" rx="0" ry="0"/>
</g>
<!-- bob_b -->
<g id="node10" class="node">
<title>bob_b</title>
<ellipse fill="black" stroke="black" cx="173" cy="-403.2" rx="0" ry="0"/>
</g>
<!-- ln_b -->
<g id="node12" class="node">
<title>ln_b</title>
<ellipse fill="black" stroke="black" cx="317" cy="-403.2" rx="0" ry="0"/>
</g>
<!-- bob_b&#45;&gt;ln_b -->
<g id="edge5" class="edge">
<title>bob_b&#45;&gt;ln_b</title>
<path fill="none" stroke="black" d="M173.1,-403.2C176.74,-403.2 274.5,-403.2 306.77,-403.2"/>
<polygon fill="black" stroke="black" points="306.9,-406.7 316.9,-403.2 306.9,-399.7 306.9,-406.7"/>
<text text-anchor="middle" x="219.44" y="-407" font-family="Helvetica,sans-Serif" font-size="14.00">5 BTC</text>
</g>
<!-- alice_1 -->
<g id="node13" class="node">
<title>alice_1</title>
<ellipse fill="black" stroke="black" cx="29" cy="-367.2" rx="0" ry="0"/>
</g>
<!-- bob_1 -->
<g id="node21" class="node">
<title>bob_1</title>
<ellipse fill="black" stroke="black" cx="173" cy="-367.2" rx="0" ry="0"/>
</g>
<!-- alice_1&#45;&gt;bob_1 -->
<g id="edge6" class="edge">
<title>alice_1&#45;&gt;bob_1</title>
<path fill="none" stroke="black" stroke-dasharray="5,2" d="M29.1,-367.2C32.74,-367.2 130.5,-367.2 162.77,-367.2"/>
<polygon fill="black" stroke="black" points="162.9,-370.7 172.9,-367.2 162.9,-363.7 162.9,-370.7"/>
<text text-anchor="middle" x="75.44" y="-371" font-family="Helvetica,sans-Serif" font-size="14.00">2 BTC</text>
</g>
<!-- alice_2 -->
<g id="node14" class="node">
<title>alice_2</title>
<ellipse fill="black" stroke="black" cx="29" cy="-331.2" rx="0" ry="0"/>
</g>
<!-- alice_3 -->
<g id="node15" class="node">
<title>alice_3</title>
<ellipse fill="black" stroke="black" cx="29" cy="-295.2" rx="0" ry="0"/>
</g>
<!-- alice_4 -->
<g id="node16" class="node">
<title>alice_4</title>
<ellipse fill="black" stroke="black" cx="29" cy="-259.2" rx="0" ry="0"/>
</g>
<!-- bob_4 -->
<g id="node24" class="node">
<title>bob_4</title>
<ellipse fill="black" stroke="black" cx="173" cy="-259.2" rx="0" ry="0"/>
</g>
<!-- alice_4&#45;&gt;bob_4 -->
<g id="edge9" class="edge">
<title>alice_4&#45;&gt;bob_4</title>
<path fill="none" stroke="black" stroke-dasharray="5,2" d="M29.1,-259.2C32.74,-259.2 130.5,-259.2 162.77,-259.2"/>
<polygon fill="black" stroke="black" points="162.9,-262.7 172.9,-259.2 162.9,-255.7 162.9,-262.7"/>
<text text-anchor="middle" x="75.44" y="-263" font-family="Helvetica,sans-Serif" font-size="14.00">5 BTC</text>
</g>
<!-- alice_5 -->
<g id="node17" class="node">
<title>alice_5</title>
<ellipse fill="black" stroke="black" cx="29" cy="-223.2" rx="0" ry="0"/>
</g>
<!-- alice_6 -->
<g id="node18" class="node">
<title>alice_6</title>
<ellipse fill="black" stroke="black" cx="29" cy="-187.2" rx="0" ry="0"/>
</g>
<!-- bob_6 -->
<g id="node26" class="node">
<title>bob_6</title>
<ellipse fill="black" stroke="black" cx="173" cy="-187.2" rx="0" ry="0"/>
</g>
<!-- alice_6&#45;&gt;bob_6 -->
<g id="edge11" class="edge">
<title>alice_6&#45;&gt;bob_6</title>
<path fill="none" stroke="black" stroke-dasharray="5,2" d="M29.1,-187.2C32.74,-187.2 130.5,-187.2 162.77,-187.2"/>
<polygon fill="black" stroke="black" points="162.9,-190.7 172.9,-187.2 162.9,-183.7 162.9,-190.7"/>
<text text-anchor="middle" x="75.44" y="-191" font-family="Helvetica,sans-Serif" font-size="14.00">3 BTC</text>
</g>
<!-- alice_7 -->
<g id="node19" class="node">
<title>alice_7</title>
<ellipse fill="black" stroke="black" cx="29" cy="-151.2" rx="0" ry="0"/>
</g>
<!-- bob_7 -->
<g id="node27" class="node">
<title>bob_7</title>
<ellipse fill="black" stroke="black" cx="173" cy="-151.2" rx="0" ry="0"/>
</g>
<!-- alice_7&#45;&gt;bob_7 -->
<g id="edge12" class="edge">
<title>alice_7&#45;&gt;bob_7</title>
<path fill="none" stroke="black" stroke-dasharray="5,2" d="M29.1,-151.2C32.74,-151.2 130.5,-151.2 162.77,-151.2"/>
<polygon fill="black" stroke="black" points="162.9,-154.7 172.9,-151.2 162.9,-147.7 162.9,-154.7"/>
<text text-anchor="middle" x="75.44" y="-155" font-family="Helvetica,sans-Serif" font-size="14.00">2 BTC</text>
</g>
<!-- alice_8 -->
<g id="node20" class="node">
<title>alice_8</title>
<ellipse fill="black" stroke="black" cx="29" cy="-115.2" rx="0" ry="0"/>
</g>
<!-- bob_2 -->
<g id="node22" class="node">
<title>bob_2</title>
<ellipse fill="black" stroke="black" cx="173" cy="-331.2" rx="0" ry="0"/>
</g>
<!-- bob_2&#45;&gt;alice_2 -->
<g id="edge7" class="edge">
<title>bob_2&#45;&gt;alice_2</title>
<path fill="none" stroke="black" stroke-dasharray="5,2" d="M172.9,-331.2C169.26,-331.2 71.5,-331.2 39.23,-331.2"/>
<polygon fill="black" stroke="black" points="39.1,-327.7 29.1,-331.2 39.1,-334.7 39.1,-327.7"/>
<text text-anchor="middle" x="85.56" y="-335" font-family="Helvetica,sans-Serif" font-size="14.00">1 BTC</text>
</g>
<!-- bob_3 -->
<g id="node23" class="node">
<title>bob_3</title>
<ellipse fill="black" stroke="black" cx="173" cy="-295.2" rx="0" ry="0"/>
</g>
<!-- bob_3&#45;&gt;alice_3 -->
<g id="edge8" class="edge">
<title>bob_3&#45;&gt;alice_3</title>
<path fill="none" stroke="black" stroke-dasharray="5,2" d="M172.9,-295.2C169.26,-295.2 71.5,-295.2 39.23,-295.2"/>
<polygon fill="black" stroke="black" points="39.1,-291.7 29.1,-295.2 39.1,-298.7 39.1,-291.7"/>
<text text-anchor="middle" x="85.56" y="-299" font-family="Helvetica,sans-Serif" font-size="14.00">3 BTC</text>
</g>
<!-- bob_5 -->
<g id="node25" class="node">
<title>bob_5</title>
<ellipse fill="black" stroke="black" cx="173" cy="-223.2" rx="0" ry="0"/>
</g>
<!-- bob_5&#45;&gt;alice_5 -->
<g id="edge10" class="edge">
<title>bob_5&#45;&gt;alice_5</title>
<path fill="none" stroke="black" stroke-dasharray="5,2" d="M172.9,-223.2C169.26,-223.2 71.5,-223.2 39.23,-223.2"/>
<polygon fill="black" stroke="black" points="39.1,-219.7 29.1,-223.2 39.1,-226.7 39.1,-219.7"/>
<text text-anchor="middle" x="85.56" y="-227" font-family="Helvetica,sans-Serif" font-size="14.00">4 BTC</text>
</g>
<!-- bob_8 -->
<g id="node28" class="node">
<title>bob_8</title>
<ellipse fill="black" stroke="black" cx="173" cy="-115.2" rx="0" ry="0"/>
</g>
<!-- bob_8&#45;&gt;alice_8 -->
<g id="edge13" class="edge">
<title>bob_8&#45;&gt;alice_8</title>
<path fill="none" stroke="black" stroke-dasharray="5,2" d="M172.9,-115.2C169.26,-115.2 71.5,-115.2 39.23,-115.2"/>
<polygon fill="black" stroke="black" points="39.1,-111.7 29.1,-115.2 39.1,-118.7 39.1,-111.7"/>
<text text-anchor="middle" x="85.56" y="-119" font-family="Helvetica,sans-Serif" font-size="14.00">3 BTC</text>
</g>
<!-- alice_y -->
<g id="node29" class="node">
<title>alice_y</title>
<ellipse fill="black" stroke="black" cx="29" cy="-79.2" rx="0" ry="0"/>
</g>
<!-- alice_z -->
<g id="node30" class="node">
<title>alice_z</title>
<ellipse fill="black" stroke="black" cx="29" cy="-43.2" rx="0" ry="0"/>
</g>
<!-- bob_y -->
<g id="node31" class="node">
<title>bob_y</title>
<ellipse fill="black" stroke="black" cx="173" cy="-79.2" rx="0" ry="0"/>
</g>
<!-- bob_z -->
<g id="node32" class="node">
<title>bob_z</title>
<ellipse fill="black" stroke="black" cx="173" cy="-43.2" rx="0" ry="0"/>
</g>
<!-- ln_y -->
<g id="node33" class="node">
<title>ln_y</title>
<ellipse fill="black" stroke="black" cx="317" cy="-79.2" rx="0" ry="0"/>
</g>
<!-- ln_y&#45;&gt;alice_y -->
<g id="edge14" class="edge">
<title>ln_y&#45;&gt;alice_y</title>
<path fill="none" stroke="black" d="M316.95,-79.2C313.02,-79.2 90.21,-79.2 39.29,-79.2"/>
<polygon fill="black" stroke="black" points="39.05,-75.7 29.05,-79.2 39.05,-82.7 39.05,-75.7"/>
<text text-anchor="middle" x="157.62" y="-83" font-family="Helvetica,sans-Serif" font-size="14.00">6 BTC</text>
</g>
<!-- ln_z -->
<g id="node34" class="node">
<title>ln_z</title>
<ellipse fill="black" stroke="black" cx="317" cy="-43.2" rx="0" ry="0"/>
</g>
<!-- ln_z&#45;&gt;bob_z -->
<g id="edge15" class="edge">
<title>ln_z&#45;&gt;bob_z</title>
<path fill="none" stroke="black" d="M316.9,-43.2C313.26,-43.2 215.5,-43.2 183.23,-43.2"/>
<polygon fill="black" stroke="black" points="183.1,-39.7 173.1,-43.2 183.1,-46.7 183.1,-39.7"/>
<text text-anchor="middle" x="229.56" y="-47" font-family="Helvetica,sans-Serif" font-size="14.00">4 BTC</text>
</g>
</g>
</svg>
