<?xml version="1.0" encoding="UTF-8" standalone="no"?>
<!-- Created with Inkscape (http://www.inkscape.org/) -->

<svg
   xmlns:dc="http://purl.org/dc/elements/1.1/"
   xmlns:cc="http://creativecommons.org/ns#"
   xmlns:rdf="http://www.w3.org/1999/02/22-rdf-syntax-ns#"
   xmlns:svg="http://www.w3.org/2000/svg"
   xmlns="http://www.w3.org/2000/svg"
   xmlns:xlink="http://www.w3.org/1999/xlink"
   xmlns:sodipodi="http://sodipodi.sourceforge.net/DTD/sodipodi-0.dtd"
   xmlns:inkscape="http://www.inkscape.org/namespaces/inkscape"
   width="73.559967mm"
   height="71.717888mm"
   viewBox="0 0 73.559968 71.717887"
   version="1.1"
   id="svg1127"
   inkscape:version="0.92.5 (2060ec1f9f, 2020-04-08)"
   sodipodi:docname="sm1-b.svg">
  <defs
     id="defs1121">
    <marker
       inkscape:stockid="Arrow1Lend"
       orient="auto"
       refY="0"
       refX="0"
       id="marker1163"
       style="overflow:visible"
       inkscape:isstock="true">
      <path
         inkscape:connector-curvature="0"
         id="path1161"
         d="M 0,0 5,-5 -12.5,0 5,5 Z"
         style="fill:#000000;fill-opacity:1;fill-rule:evenodd;stroke:#000000;stroke-width:1.00000003pt;stroke-opacity:1"
         transform="matrix(-0.8,0,0,-0.8,-10,0)" />
    </marker>
    <marker
       inkscape:isstock="true"
       style="overflow:visible"
       id="marker1007"
       refX="0"
       refY="0"
       orient="auto"
       inkscape:stockid="Arrow1Lend"
       inkscape:collect="always">
      <path
         transform="matrix(-0.8,0,0,-0.8,-10,0)"
         style="fill:#000000;fill-opacity:1;fill-rule:evenodd;stroke:#000000;stroke-width:1.00000003pt;stroke-opacity:1"
         d="M 0,0 5,-5 -12.5,0 5,5 Z"
         id="path1005"
         inkscape:connector-curvature="0" />
    </marker>
    <marker
       inkscape:stockid="Arrow1Lend"
       orient="auto"
       refY="0"
       refX="0"
       id="marker1605"
       style="overflow:visible"
       inkscape:isstock="true"
       inkscape:collect="always">
      <path
         inkscape:connector-curvature="0"
         id="path1603"
         d="M 0,0 5,-5 -12.5,0 5,5 Z"
         style="fill:#000000;fill-opacity:1;fill-rule:evenodd;stroke:#000000;stroke-width:1.00000003pt;stroke-opacity:1"
         transform="matrix(-0.8,0,0,-0.8,-10,0)" />
    </marker>
    <marker
       inkscape:stockid="Arrow1Lend"
       orient="auto"
       refY="0"
       refX="0"
       id="marker1439"
       style="overflow:visible"
       inkscape:isstock="true">
      <path
         inkscape:connector-curvature="0"
         id="path1437"
         d="M 0,0 5,-5 -12.5,0 5,5 Z"
         style="fill:#000000;fill-opacity:1;fill-rule:evenodd;stroke:#000000;stroke-width:1.00000003pt;stroke-opacity:1"
         transform="matrix(-0.8,0,0,-0.8,-10,0)" />
    </marker>
    <marker
       inkscape:isstock="true"
       style="overflow:visible"
       id="marker4214"
       refX="0"
       refY="0"
       orient="auto"
       inkscape:stockid="Arrow2Mend">
      <path
         inkscape:connector-curvature="0"
         transform="scale(-0.6)"
         d="M 8.7185878,4.0337352 -2.2072895,0.01601326 8.7185884,-4.0017078 c -1.7454984,2.3720609 -1.7354408,5.6174519 -6e-7,8.035443 z"
         style="fill:#ff0000;fill-opacity:1;fill-rule:evenodd;stroke:#ff0000;stroke-width:0.625;stroke-linejoin:round;stroke-opacity:1"
         id="path4212" />
    </marker>
    <marker
       inkscape:stockid="Arrow2Mend"
       orient="auto"
       refY="0"
       refX="0"
       id="marker4060"
       style="overflow:visible"
       inkscape:isstock="true">
      <path
         id="path4058"
         style="fill:#ff0000;fill-opacity:1;fill-rule:evenodd;stroke:#000000;stroke-width:0.625;stroke-linejoin:round;stroke-opacity:1"
         d="M 8.7185878,4.0337352 -2.2072895,0.01601326 8.7185884,-4.0017078 c -1.7454984,2.3720609 -1.7354408,5.6174519 -6e-7,8.035443 z"
         transform="scale(-0.6)"
         inkscape:connector-curvature="0" />
    </marker>
    <marker
       inkscape:stockid="Arrow2Mstart"
       orient="auto"
       refY="0"
       refX="0"
       id="marker3984"
       style="overflow:visible"
       inkscape:isstock="true">
      <path
         id="path3982"
         style="fill:#000000;fill-opacity:1;fill-rule:evenodd;stroke:#000000;stroke-width:0.625;stroke-linejoin:round;stroke-opacity:1"
         d="M 8.7185878,4.0337352 -2.2072895,0.01601326 8.7185884,-4.0017078 c -1.7454984,2.3720609 -1.7354408,5.6174519 -6e-7,8.035443 z"
         transform="scale(0.6)"
         inkscape:connector-curvature="0" />
    </marker>
    <marker
       inkscape:isstock="true"
       style="overflow:visible"
       id="marker2351"
       refX="0"
       refY="0"
       orient="auto"
       inkscape:stockid="Arrow1Lend"
       inkscape:collect="always">
      <path
         transform="matrix(-0.8,0,0,-0.8,-10,0)"
         style="fill:#000000;fill-opacity:1;fill-rule:evenodd;stroke:#000000;stroke-width:1.00000003pt;stroke-opacity:1"
         d="M 0,0 5,-5 -12.5,0 5,5 Z"
         id="path2349"
         inkscape:connector-curvature="0" />
    </marker>
    <marker
       inkscape:stockid="Arrow1Lend"
       orient="auto"
       refY="0"
       refX="0"
       id="marker1921"
       style="overflow:visible"
       inkscape:isstock="true">
      <path
         id="path1919"
         d="M 0,0 5,-5 -12.5,0 5,5 Z"
         style="fill:#000000;fill-opacity:1;fill-rule:evenodd;stroke:#000000;stroke-width:1.00000003pt;stroke-opacity:1"
         transform="matrix(-0.8,0,0,-0.8,-10,0)"
         inkscape:connector-curvature="0" />
    </marker>
    <marker
       inkscape:stockid="Arrow1Lend"
       orient="auto"
       refY="0"
       refX="0"
       id="marker1819"
       style="overflow:visible"
       inkscape:isstock="true">
      <path
         id="path1559"
         d="M 0,0 5,-5 -12.5,0 5,5 Z"
         style="fill:#000000;fill-opacity:1;fill-rule:evenodd;stroke:#000000;stroke-width:1.00000003pt;stroke-opacity:1"
         transform="matrix(-0.8,0,0,-0.8,-10,0)"
         inkscape:connector-curvature="0" />
    </marker>
    <marker
       inkscape:isstock="true"
       style="overflow:visible"
       id="marker1462"
       refX="0"
       refY="0"
       orient="auto"
       inkscape:stockid="Arrow1Lend">
      <path
         inkscape:connector-curvature="0"
         transform="matrix(-0.8,0,0,-0.8,-10,0)"
         style="fill:#000000;fill-opacity:1;fill-rule:evenodd;stroke:#000000;stroke-width:1.00000003pt;stroke-opacity:1"
         d="M 0,0 5,-5 -12.5,0 5,5 Z"
         id="path1460" />
    </marker>
    <marker
       inkscape:stockid="Arrow1Lstart"
       orient="auto"
       refY="0"
       refX="0"
       id="Arrow1Lstart"
       style="overflow:visible"
       inkscape:isstock="true">
      <path
         id="path1700"
         d="M 0,0 5,-5 -12.5,0 5,5 Z"
         style="fill:#000000;fill-opacity:1;fill-rule:evenodd;stroke:#000000;stroke-width:1.00000003pt;stroke-opacity:1"
         transform="matrix(0.8,0,0,0.8,10,0)"
         inkscape:connector-curvature="0" />
    </marker>
    <marker
       inkscape:stockid="Arrow2Mend"
       orient="auto"
       refY="0"
       refX="0"
       id="Arrow2Mend"
       style="overflow:visible"
       inkscape:isstock="true">
      <path
         id="path1727"
         style="fill:#000000;fill-opacity:1;fill-rule:evenodd;stroke:#000000;stroke-width:0.625;stroke-linejoin:round;stroke-opacity:1"
         d="M 8.7185878,4.0337352 -2.2072895,0.01601326 8.7185884,-4.0017078 c -1.7454984,2.3720609 -1.7354408,5.6174519 -6e-7,8.035443 z"
         transform="scale(-0.6)"
         inkscape:connector-curvature="0" />
    </marker>
    <marker
       inkscape:stockid="Arrow2Lend"
       orient="auto"
       refY="0"
       refX="0"
       id="Arrow2Lend"
       style="overflow:visible"
       inkscape:isstock="true">
      <path
         id="path1721"
         style="fill:#000000;fill-opacity:1;fill-rule:evenodd;stroke:#000000;stroke-width:0.625;stroke-linejoin:round;stroke-opacity:1"
         d="M 8.7185878,4.0337352 -2.2072895,0.01601326 8.7185884,-4.0017078 c -1.7454984,2.3720609 -1.7354408,5.6174519 -6e-7,8.035443 z"
         transform="matrix(-1.1,0,0,-1.1,-1.1,0)"
         inkscape:connector-curvature="0" />
    </marker>
    <marker
       inkscape:stockid="Arrow1Lend"
       orient="auto"
       refY="0"
       refX="0"
       id="Arrow1Lend"
       style="overflow:visible"
       inkscape:isstock="true"
       inkscape:collect="always">
      <path
         id="path1703"
         d="M 0,0 5,-5 -12.5,0 5,5 Z"
         style="fill:#000000;fill-opacity:1;fill-rule:evenodd;stroke:#000000;stroke-width:1.00000003pt;stroke-opacity:1"
         transform="matrix(-0.8,0,0,-0.8,-10,0)"
         inkscape:connector-curvature="0" />
    </marker>
    <marker
       inkscape:stockid="Arrow2Mend"
       orient="auto"
       refY="0"
       refX="0"
       id="Arrow2Mend-7"
       style="overflow:visible"
       inkscape:isstock="true">
      <path
         inkscape:connector-curvature="0"
         id="path1727-0"
         style="fill:#000000;fill-opacity:1;fill-rule:evenodd;stroke:#000000;stroke-width:0.625;stroke-linejoin:round;stroke-opacity:1"
         d="M 8.7185878,4.0337352 -2.2072895,0.01601326 8.7185884,-4.0017078 c -1.7454984,2.3720609 -1.7354408,5.6174519 -6e-7,8.035443 z"
         transform="scale(-0.6)" />
    </marker>
    <marker
       inkscape:stockid="Arrow2Mend"
       orient="auto"
       refY="0"
       refX="0"
       id="Arrow2Mend-7-3"
       style="overflow:visible"
       inkscape:isstock="true">
      <path
         inkscape:connector-curvature="0"
         id="path1727-0-6"
         style="fill:#000000;fill-opacity:1;fill-rule:evenodd;stroke:#000000;stroke-width:0.625;stroke-linejoin:round;stroke-opacity:1"
         d="M 8.7185878,4.0337352 -2.2072895,0.01601326 8.7185884,-4.0017078 c -1.7454984,2.3720609 -1.7354408,5.6174519 -6e-7,8.035443 z"
         transform="scale(-0.6)" />
    </marker>
    <marker
       inkscape:stockid="Arrow2Mend"
       orient="auto"
       refY="0"
       refX="0"
       id="Arrow2Mend-0"
       style="overflow:visible"
       inkscape:isstock="true">
      <path
         inkscape:connector-curvature="0"
         id="path1727-6"
         style="fill:#000000;fill-opacity:1;fill-rule:evenodd;stroke:#000000;stroke-width:0.625;stroke-linejoin:round;stroke-opacity:1"
         d="M 8.7185878,4.0337352 -2.2072895,0.01601326 8.7185884,-4.0017078 c -1.7454984,2.3720609 -1.7354408,5.6174519 -6e-7,8.035443 z"
         transform="scale(-0.6)" />
    </marker>
    <marker
       inkscape:stockid="Arrow2Mend"
       orient="auto"
       refY="0"
       refX="0"
       id="Arrow2Mend-2"
       style="overflow:visible"
       inkscape:isstock="true">
      <path
         inkscape:connector-curvature="0"
         id="path1727-02"
         style="fill:#000000;fill-opacity:1;fill-rule:evenodd;stroke:#000000;stroke-width:0.625;stroke-linejoin:round;stroke-opacity:1"
         d="M 8.7185878,4.0337352 -2.2072895,0.01601326 8.7185884,-4.0017078 c -1.7454984,2.3720609 -1.7354408,5.6174519 -6e-7,8.035443 z"
         transform="scale(-0.6)" />
    </marker>
    <marker
       inkscape:stockid="Arrow2Mend"
       orient="auto"
       refY="0"
       refX="0"
       id="Arrow2Mend-7-3-5"
       style="overflow:visible"
       inkscape:isstock="true">
      <path
         inkscape:connector-curvature="0"
         id="path1727-0-6-9"
         style="fill:#000000;fill-opacity:1;fill-rule:evenodd;stroke:#000000;stroke-width:0.625;stroke-linejoin:round;stroke-opacity:1"
         d="M 8.7185878,4.0337352 -2.2072895,0.01601326 8.7185884,-4.0017078 c -1.7454984,2.3720609 -1.7354408,5.6174519 -6e-7,8.035443 z"
         transform="scale(-0.6)" />
    </marker>
    <marker
       inkscape:stockid="Arrow2Mend"
       orient="auto"
       refY="0"
       refX="0"
       id="Arrow2Mend-7-3-2"
       style="overflow:visible"
       inkscape:isstock="true">
      <path
         inkscape:connector-curvature="0"
         id="path1727-0-6-8"
         style="fill:#000000;fill-opacity:1;fill-rule:evenodd;stroke:#000000;stroke-width:0.625;stroke-linejoin:round;stroke-opacity:1"
         d="M 8.7185878,4.0337352 -2.2072895,0.01601326 8.7185884,-4.0017078 c -1.7454984,2.3720609 -1.7354408,5.6174519 -6e-7,8.035443 z"
         transform="scale(-0.6)" />
    </marker>
    <marker
       inkscape:stockid="Arrow2Mend"
       orient="auto"
       refY="0"
       refX="0"
       id="marker3945-9"
       style="overflow:visible"
       inkscape:isstock="true">
      <path
         inkscape:connector-curvature="0"
         id="path3943-7"
         style="fill:#000000;fill-opacity:1;fill-rule:evenodd;stroke:#000000;stroke-width:0.625;stroke-linejoin:round;stroke-opacity:1"
         d="M 8.7185878,4.0337352 -2.2072895,0.01601326 8.7185884,-4.0017078 c -1.7454984,2.3720609 -1.7354408,5.6174519 -6e-7,8.035443 z"
         transform="scale(-0.6)" />
    </marker>
    <marker
       inkscape:isstock="true"
       style="overflow:visible"
       id="marker4214-8"
       refX="0"
       refY="0"
       orient="auto"
       inkscape:stockid="Arrow2Mend">
      <path
         inkscape:connector-curvature="0"
         transform="scale(-0.6)"
         d="M 8.7185878,4.0337352 -2.2072895,0.01601326 8.7185884,-4.0017078 c -1.7454984,2.3720609 -1.7354408,5.6174519 -6e-7,8.035443 z"
         style="fill:#ff0000;fill-opacity:1;fill-rule:evenodd;stroke:#ff0000;stroke-width:0.625;stroke-linejoin:round;stroke-opacity:1"
         id="path4212-9" />
    </marker>
    <pattern
       inkscape:collect="always"
       xlink:href="#Polkadots-large-7-4"
       id="pattern3801-4-4"
       patternTransform="matrix(0.62499999,0,0,0.62499999,73.89622,17.465158)" />
    <pattern
       inkscape:isstock="true"
       inkscape:stockid="Polka dots, large"
       id="Polkadots-large-7-4"
       patternTransform="translate(0,0) scale(10,10)"
       height="10"
       width="10"
       patternUnits="userSpaceOnUse"
       inkscape:collect="always">
      <circle
         id="circle2411-4-4"
         r="0.45"
         cy="0.810"
         cx="2.567"
         style="fill:black;stroke:none" />
      <circle
         id="circle2413-4-4"
         r="0.45"
         cy="2.33"
         cx="3.048"
         style="fill:black;stroke:none" />
      <circle
         id="circle2415-3-7"
         r="0.45"
         cy="2.415"
         cx="4.418"
         style="fill:black;stroke:none" />
      <circle
         id="circle2417-0-6"
         r="0.45"
         cy="3.029"
         cx="1.844"
         style="fill:black;stroke:none" />
      <circle
         id="circle2419-7-3"
         r="0.45"
         cy="1.363"
         cx="6.08"
         style="fill:black;stroke:none" />
      <circle
         id="circle2421-8-1"
         r="0.45"
         cy="4.413"
         cx="5.819"
         style="fill:black;stroke:none" />
      <circle
         id="circle2423-6-7"
         r="0.45"
         cy="4.048"
         cx="4.305"
         style="fill:black;stroke:none" />
      <circle
         id="circle2425-8-5"
         r="0.45"
         cy="3.045"
         cx="5.541"
         style="fill:black;stroke:none" />
      <circle
         id="circle2427-8-9"
         r="0.45"
         cy="5.527"
         cx="4.785"
         style="fill:black;stroke:none" />
      <circle
         id="circle2429-4-6"
         r="0.45"
         cy="5.184"
         cx="2.667"
         style="fill:black;stroke:none" />
      <circle
         id="circle2431-3-2"
         r="0.45"
         cy="1.448"
         cx="7.965"
         style="fill:black;stroke:none" />
      <circle
         id="circle2433-1-1"
         r="0.45"
         cy="5.049"
         cx="7.047"
         style="fill:black;stroke:none" />
      <circle
         id="circle2435-4-7"
         r="0.45"
         cy="0.895"
         cx="4.340"
         style="fill:black;stroke:none" />
      <circle
         id="circle2437-9-8"
         r="0.45"
         cy="0.340"
         cx="7.125"
         style="fill:black;stroke:none" />
      <circle
         id="circle2439-2-5"
         r="0.45"
         cy="1.049"
         cx="9.553"
         style="fill:black;stroke:none" />
      <circle
         id="circle2441-0-7"
         r="0.45"
         cy="2.689"
         cx="7.006"
         style="fill:black;stroke:none" />
      <circle
         id="circle2443-6-4"
         r="0.45"
         cy="2.689"
         cx="8.909"
         style="fill:black;stroke:none" />
      <circle
         id="circle2445-8-1"
         r="0.45"
         cy="4.407"
         cx="9.315"
         style="fill:black;stroke:none" />
      <circle
         id="circle2447-9-8"
         r="0.45"
         cy="3.870"
         cx="7.820"
         style="fill:black;stroke:none" />
      <circle
         id="circle2449-2-5"
         r="0.45"
         cy="5.948"
         cx="8.270"
         style="fill:black;stroke:none" />
      <circle
         id="circle2451-6-9"
         r="0.45"
         cy="7.428"
         cx="7.973"
         style="fill:black;stroke:none" />
      <circle
         id="circle2453-6-7"
         r="0.45"
         cy="8.072"
         cx="9.342"
         style="fill:black;stroke:none" />
      <circle
         id="circle2455-4-5"
         r="0.45"
         cy="9.315"
         cx="8.206"
         style="fill:black;stroke:none" />
      <circle
         id="circle2457-9-3"
         r="0.45"
         cy="9.475"
         cx="9.682"
         style="fill:black;stroke:none" />
      <circle
         id="circle2459-5-8"
         r="0.45"
         cy="6.186"
         cx="9.688"
         style="fill:black;stroke:none" />
      <circle
         id="circle2461-0-8"
         r="0.45"
         cy="6.296"
         cx="3.379"
         style="fill:black;stroke:none" />
      <circle
         id="circle2463-4-3"
         r="0.45"
         cy="8.204"
         cx="2.871"
         style="fill:black;stroke:none" />
      <circle
         id="circle2465-8-1"
         r="0.45"
         cy="8.719"
         cx="4.59"
         style="fill:black;stroke:none" />
      <circle
         id="circle2467-7-8"
         r="0.45"
         cy="9.671"
         cx="3.181"
         style="fill:black;stroke:none" />
      <circle
         id="circle2469-1-9"
         r="0.45"
         cy="7.315"
         cx="5.734"
         style="fill:black;stroke:none" />
      <circle
         id="circle2471-7-6"
         r="0.45"
         cy="6.513"
         cx="6.707"
         style="fill:black;stroke:none" />
      <circle
         id="circle2473-2-4"
         r="0.45"
         cy="9.670"
         cx="5.730"
         style="fill:black;stroke:none" />
      <circle
         id="circle2475-7-3"
         r="0.45"
         cy="8.373"
         cx="6.535"
         style="fill:black;stroke:none" />
      <circle
         id="circle2477-2-3"
         r="0.45"
         cy="7.154"
         cx="4.37"
         style="fill:black;stroke:none" />
      <circle
         id="circle2479-2-3"
         r="0.45"
         cy="7.25"
         cx="0.622"
         style="fill:black;stroke:none" />
      <circle
         id="circle2481-6-8"
         r="0.45"
         cy="5.679"
         cx="0.831"
         style="fill:black;stroke:none" />
      <circle
         id="circle2483-1-6"
         r="0.45"
         cy="8.519"
         cx="1.257"
         style="fill:black;stroke:none" />
      <circle
         id="circle2485-0-0"
         r="0.45"
         cy="6.877"
         cx="1.989"
         style="fill:black;stroke:none" />
      <circle
         id="circle2487-6-4"
         r="0.45"
         cy="3.181"
         cx="0.374"
         style="fill:black;stroke:none" />
      <circle
         id="circle2489-1-8"
         r="0.45"
         cy="1.664"
         cx="1.166"
         style="fill:black;stroke:none" />
      <circle
         id="circle2491-5-8"
         r="0.45"
         cy="0.093"
         cx="1.151"
         style="fill:black;stroke:none" />
      <circle
         id="circle2493-9-8"
         r="0.45"
         cy="10.093"
         cx="1.151"
         style="fill:black;stroke:none" />
      <circle
         id="circle2495-4-9"
         r="0.45"
         cy="4.451"
         cx="1.302"
         style="fill:black;stroke:none" />
      <circle
         id="circle2497-9-7"
         r="0.45"
         cy="3.763"
         cx="3.047"
         style="fill:black;stroke:none" />
    </pattern>
  </defs>
  <sodipodi:namedview
     id="base"
     pagecolor="#ffffff"
     bordercolor="#666666"
     borderopacity="1.0"
     inkscape:pageopacity="0.0"
     inkscape:pageshadow="2"
     inkscape:zoom="3.2391384"
     inkscape:cx="139.01096"
     inkscape:cy="135.52987"
     inkscape:document-units="mm"
     inkscape:current-layer="layer1"
     showgrid="true"
     fit-margin-top="0"
     fit-margin-left="0"
     fit-margin-right="0"
     fit-margin-bottom="0"
     inkscape:window-width="1920"
     inkscape:window-height="1055"
     inkscape:window-x="1920"
     inkscape:window-y="0"
     inkscape:window-maximized="1">
    <inkscape:grid
       type="xygrid"
       id="grid1696"
       originx="-42.679122"
       originy="-217.27084" />
  </sodipodi:namedview>
  <metadata
     id="metadata1124">
    <rdf:RDF>
      <cc:Work
         rdf:about="">
        <dc:format>image/svg+xml</dc:format>
        <dc:type
           rdf:resource="http://purl.org/dc/dcmitype/StillImage" />
        <dc:title />
      </cc:Work>
    </rdf:RDF>
  </metadata>
  <g
     inkscape:label="Layer 1"
     inkscape:groupmode="layer"
     id="layer1"
     transform="translate(-42.67912,-8.0112698)">
    <path
       id="path957-3"
       d="m 79.83463,8.0112698 h 0.32698 c 0.26062,0.04806 0.49257,0.190279 0.69321,0.357188 0.36601,0.42201 0.29038,1.009385 0.3239,1.522898 0.0185,0.1466232 0.0838,0.4030472 0.28773,0.3353592 0.2002,-0.09591 0.282,0.198878 0.13736,0.29523 -0.23724,0.155002 -0.63566,0.05468 -0.68659,0.411869 0.0915,0.23636 0.3735,0.192704 0.57525,0.2271 0.35498,0.21762 0.80852,0.166247 1.20099,0.306035 0.34836,0.166026 0.70423,0.304933 1.00784,0.541293 0.49631,0.08687 1.00387,0.173082 1.50768,0.08202 0.25069,-0.04035 0.41452,0.265906 0.67359,0.179697 0.10627,-0.01455 0.27737,-0.179255 0.35652,-0.04476 v 0.04013 c -0.2088,0.09327 -0.44538,0.192925 -0.51814,0.431932 -0.0443,0.207698 -0.29435,0.329407 -0.24386,0.562019 -5e-4,0.309122 -0.17991,0.575469 -0.41209,0.765748 -0.50028,0.584289 -1.07641,1.103312 -1.73213,1.512755 -0.0481,0.282885 -0.3314,0.45332 -0.52961,0.603911 0.22093,0.159853 0.0988,0.551437 0.39313,0.576131 0.17572,0.02998 0.16271,0.27208 0.0357,0.349913 -0.19932,0.09437 -0.42267,0.0485 -0.63456,0.0635 0.51461,0.721209 0.54835,1.652323 0.70225,2.495461 -0.0657,0.278695 -0.30714,0.659695 -0.63566,0.583185 0.0203,0.110023 0.13934,0.206375 0.0739,0.325218 -0.1464,0.198216 -0.0238,0.450893 -0.13075,0.65793 0.15522,0.08797 0.14442,0.273623 0.007,0.372622 -0.0891,0.295451 -0.095,0.616038 -0.09,0.924938 0.39489,0.120827 0.31706,0.659916 0.14288,0.934201 -0.2712,0.395552 0.25444,0.850194 -0.0265,1.228989 -0.0968,0.158088 -0.2895,0.110242 -0.41474,0.02337 0.32742,1.122495 -0.42311,2.215224 -0.20373,3.331104 0.40217,0.505796 0.8696,0.928246 1.33218,1.380464 0.0391,-0.0077 0.11531,-0.06085 0.13405,-0.013 -0.0382,0.223132 0.44803,0.130969 0.34506,0.353441 H 83.6928 c -0.57282,-0.157869 -1.171,-0.234598 -1.71869,-0.474707 -0.34241,-0.152355 -0.75758,-0.04828 -1.07487,-0.268993 0.008,-0.651317 0.36778,-1.231856 0.30538,-1.894638 -0.0507,-0.453539 -0.2604,-0.877755 -0.27583,-1.33813 -0.0443,-0.481322 0.13802,-0.959114 0.0553,-1.43779 0.0697,-0.273623 -0.16117,-0.554082 -5e-4,-0.827925 -0.08,-0.265686 -0.0659,-0.550774 -0.14155,-0.817342 -0.2088,-0.48507 0.0476,-1.036726 -0.22093,-1.50592 -0.0163,-0.260616 -0.1281,-0.582525 -0.0144,-0.823517 -0.18058,-0.173521 -0.14398,-0.485068 -0.17705,-0.679096 -0.33646,0.397096 -0.31044,0.955366 -0.51638,1.409788 -0.0864,0.406797 -0.12612,0.855706 -0.39202,1.212453 -0.17044,0.224233 -0.0591,0.538207 -0.24166,0.749433 0.06,0.271638 -0.0207,0.581201 0.15743,0.818885 0.20638,0.182563 0.005,0.483526 0.0979,0.701586 0.1087,0.586713 0.32477,1.189082 0.16294,1.788143 -0.19293,0.712391 -0.25422,1.503937 0.058,2.19075 -0.0335,0.225558 0.18962,0.472282 0.0326,0.682185 -1.07729,0.178373 -2.17245,0.295231 -3.26871,0.291702 0.0316,-0.234819 0.50933,-0.02911 0.5607,-0.295673 0.0512,-0.03704 0.084,0.03308 0.12854,0.04741 -1.1344,-3.58356 -2.28644,-7.168002 -3.42922,-10.746934 -0.22974,0.06747 -0.31904,0.393127 -0.56466,0.410104 0.0836,-0.311106 0.50998,-0.486393 0.53865,-0.826602 -0.0712,-0.416718 -0.23769,-0.769056 -0.32257,-1.166372 -0.34132,0.04653 -0.5327,-0.240109 -0.75208,-0.421129 v -0.202415 c 0.0439,-0.06328 0.0481,-0.138245 0,-0.200642 v -0.09635 c 0.13141,-0.15875 0.28994,-0.295892 0.45861,-0.41297 0.29788,-0.03682 0.66344,0.05755 0.88834,-0.197997 0.38342,-0.366888 0.86077,-0.648008 1.1796,-1.07509 0.22974,0.17727 0.35542,-0.128985 0.60281,-0.182563 0.10318,-0.300302 0.34947,-0.535781 0.65594,-0.62199 0.47427,-0.159192 0.65793,-0.654625 1.01402,-0.950076 0.0562,-0.37196 0.41363,-0.558492 0.75009,-0.635661 0.23769,-0.166467 0.51021,-0.286633 0.75914,-0.433034 0.06,-0.173523 0.51108,-0.207479 0.31441,-0.428846 -0.30559,-0.15875 -0.37659,-0.483306 -0.5274,-0.735542 0.0763,-0.310445 -0.3336,-0.5452632 -0.22732,-0.8905442 0.19005,-0.366006 0.12082,-0.842256 0.43523,-1.14763 0.2357,-0.202406 0.56026,-0.224454 0.85196,-0.284206 m 2.92108,5.3412792 c -0.0161,0.09349 -0.0251,0.192043 -0.0688,0.278253 -0.34683,0.239007 -0.21961,0.754504 -0.39071,1.109265 -0.0567,0.475148 -0.34483,0.859235 -0.59817,1.2517 0.0533,0.03439 0.20064,0.206596 0.19579,0.02447 -0.0119,-0.166687 0.22908,-0.183003 0.19204,-0.355424 0.10672,-0.117297 0.31905,-0.07188 0.40592,-0.21806 0.34572,-0.465005 0.51086,-1.030112 0.77897,-1.538112 0.21784,0.103409 0.34595,-0.203067 0.4983,-0.294128 -0.19204,-0.401064 -0.68394,-0.0904 -1.01335,-0.257968 m -4.77264,0.865187 c -0.12304,0.07276 -0.25599,0.240109 -0.19469,0.378575 -0.19734,0.203508 -0.42951,0.383425 -0.72849,0.367991 -0.27274,-0.01257 -0.39798,0.270096 -0.46037,0.491684 -0.1711,0.281341 -0.56357,0.389378 -0.86144,0.256205 -0.14133,-0.101864 -0.31794,0.02271 -0.46104,0.05358 -0.30052,0.387172 -0.91083,0.219162 -1.24553,0.597075 0.0103,0.164925 -0.1808,0.23592 -0.2917,0.293909 0.19513,0.439649 0.24254,0.931995 0.46831,1.379802 0.34109,0.09745 0.70446,0.174404 1.05393,0.203729 0.0844,0.06152 0.0189,0.158089 -0.073,0.147726 -0.26679,-0.04873 -0.54086,-0.03947 -0.80941,-0.0796 0.96154,3.624792 1.93344,7.246717 2.91681,10.865555 0.55254,-0.106714 0.91149,-0.643818 1.33372,-0.991084 0.25511,-0.404151 0.19491,-0.915238 0.0847,-1.359077 -0.13847,-0.615376 -0.30185,-1.230312 -0.33338,-1.863548 -0.13207,-0.274505 -0.46103,-0.50315 -0.34903,-0.892749 -0.14772,-0.189397 -0.20637,-0.445823 -0.13736,-0.68086 -0.16536,-0.243417 -0.15632,-0.60788 0.0891,-0.79353 -0.11002,-0.786694 -0.0602,-1.57824 -0.0558,-2.367579 0.0322,-0.189178 -0.2604,-0.146183 -0.28686,-0.319044 -0.15654,-0.952721 0.16735,-1.917347 0.58584,-2.764014 -0.21322,-0.06063 0.13758,-0.07871 0.0831,-0.21321 0.001,-0.132513 0.12215,-0.180359 0.23261,-0.174846 0.20108,-0.210784 0.26943,-0.451776 0.57878,-0.541073 -0.4714,-0.436342 -0.91877,-0.935964 -1.03937,-1.589044 -0.1087,-0.100982 -0.004,-0.345943 -0.0994,-0.406576 z"
       inkscape:connector-curvature="0"
       style="opacity:1;fill:#ff0000;stroke-width:0.02204861" />
    <path
       id="path957-3-3"
       d="m 49.834628,58.01127 h 0.32698 c 0.26062,0.04806 0.49257,0.190279 0.69321,0.357188 0.36601,0.42201 0.29038,1.009385 0.3239,1.522898 0.0185,0.146623 0.0838,0.403047 0.28773,0.335359 0.2002,-0.09591 0.282,0.198878 0.13736,0.29523 -0.23724,0.155002 -0.63566,0.05468 -0.68659,0.411869 0.0915,0.23636 0.3735,0.192704 0.57525,0.2271 0.35498,0.21762 0.80852,0.166247 1.20099,0.306035 0.34836,0.166026 0.70423,0.304933 1.00784,0.541293 0.49631,0.08687 1.00387,0.173082 1.50768,0.08202 0.25069,-0.04035 0.41452,0.265906 0.67359,0.179697 0.10627,-0.01455 0.27737,-0.179255 0.35652,-0.04476 v 0.04013 c -0.2088,0.09327 -0.44538,0.192925 -0.51814,0.431932 -0.0443,0.207698 -0.29435,0.329407 -0.24386,0.562019 -5e-4,0.309122 -0.17991,0.575469 -0.41209,0.765748 -0.50028,0.584289 -1.07641,1.103312 -1.73213,1.512755 -0.0481,0.282885 -0.3314,0.45332 -0.52961,0.603911 0.22093,0.159853 0.0988,0.551437 0.39313,0.576131 0.17572,0.02998 0.16271,0.27208 0.0357,0.349913 -0.19932,0.09437 -0.42267,0.0485 -0.63456,0.0635 0.51461,0.721209 0.54835,1.652323 0.70225,2.495461 -0.0657,0.278695 -0.30714,0.659695 -0.63566,0.583185 0.0203,0.110023 0.13934,0.206375 0.0739,0.325218 -0.1464,0.198216 -0.0238,0.450893 -0.13075,0.65793 0.15522,0.08797 0.14442,0.273623 0.007,0.372622 -0.0891,0.295451 -0.095,0.616038 -0.09,0.924938 0.39489,0.120827 0.31706,0.659916 0.14288,0.934201 -0.2712,0.395552 0.25444,0.850194 -0.0265,1.228989 -0.0968,0.158088 -0.2895,0.110242 -0.41474,0.02337 0.32742,1.122495 -0.42311,2.215224 -0.20373,3.331104 0.40217,0.505796 0.8696,0.928246 1.33218,1.380464 0.0391,-0.0077 0.11531,-0.06085 0.13405,-0.013 -0.0382,0.223132 0.44803,0.130969 0.34506,0.353441 h -0.14067 c -0.57282,-0.157869 -1.171,-0.234598 -1.71869,-0.474707 -0.34241,-0.152355 -0.75758,-0.04828 -1.07487,-0.268993 0.008,-0.651317 0.36778,-1.231856 0.30538,-1.894638 -0.0507,-0.453539 -0.2604,-0.877755 -0.27583,-1.33813 -0.0443,-0.481322 0.13802,-0.959114 0.0553,-1.43779 0.0697,-0.273623 -0.16117,-0.554082 -5e-4,-0.827925 -0.08,-0.265688 -0.0659,-0.550776 -0.14155,-0.817344 -0.2088,-0.48507 0.0476,-1.036726 -0.22093,-1.50592 -0.0163,-0.260616 -0.1281,-0.582525 -0.0144,-0.823517 -0.18058,-0.173521 -0.14398,-0.485068 -0.17705,-0.679096 -0.33646,0.397096 -0.31044,0.955366 -0.51638,1.409788 -0.0864,0.406797 -0.12612,0.855706 -0.39202,1.212453 -0.17044,0.224233 -0.0591,0.538207 -0.24166,0.749433 0.06,0.271638 -0.0207,0.581201 0.15743,0.818885 0.20638,0.182563 0.005,0.483526 0.0979,0.701586 0.1087,0.586713 0.32477,1.189082 0.16294,1.788143 -0.19293,0.712391 -0.25422,1.503937 0.058,2.19075 -0.0335,0.225558 0.18962,0.472282 0.0326,0.682185 -1.07729,0.178373 -2.172448,0.295231 -3.268708,0.291702 0.0316,-0.234819 0.50933,-0.02911 0.5607,-0.295673 0.0512,-0.03704 0.084,0.03308 0.12854,0.04741 -1.1344,-3.58356 -2.28644,-7.168002 -3.42922,-10.746934 -0.22974,0.06747 -0.31904,0.393127 -0.56466,0.410104 0.0836,-0.311106 0.50998,-0.486393 0.53865,-0.826602 -0.0712,-0.416718 -0.23769,-0.769056 -0.32257,-1.166372 -0.34132,0.04653 -0.5327,-0.240109 -0.75208,-0.421129 v -0.202415 c 0.0439,-0.06328 0.0481,-0.138245 0,-0.200642 v -0.09635 c 0.13141,-0.15875 0.28994,-0.295892 0.45861,-0.41297 0.29788,-0.03682 0.66344,0.05755 0.88834,-0.197997 0.38342,-0.366888 0.86077,-0.648008 1.1796,-1.07509 0.22974,0.17727 0.35542,-0.128985 0.60281,-0.182563 0.10318,-0.300302 0.34947,-0.535781 0.65594,-0.62199 0.47427,-0.159192 0.65793,-0.654625 1.01402,-0.950076 0.0562,-0.37196 0.41363,-0.558492 0.75009,-0.635661 0.237688,-0.166467 0.510208,-0.286633 0.759138,-0.433034 0.06,-0.173523 0.51108,-0.207479 0.31441,-0.428846 -0.30559,-0.15875 -0.37659,-0.483306 -0.5274,-0.735542 0.0763,-0.310445 -0.333598,-0.545263 -0.22732,-0.890544 0.19005,-0.366006 0.12082,-0.842256 0.43523,-1.14763 0.2357,-0.202406 0.56026,-0.224454 0.85196,-0.284206 m 2.92108,5.341279 c -0.0161,0.09349 -0.0251,0.192043 -0.0688,0.278253 -0.34683,0.239007 -0.21961,0.754504 -0.39071,1.109265 -0.0567,0.475148 -0.34483,0.859235 -0.59817,1.2517 0.0533,0.03439 0.20064,0.206596 0.19579,0.02447 -0.0119,-0.166687 0.22908,-0.183003 0.19204,-0.355424 0.10672,-0.117297 0.31905,-0.07188 0.40592,-0.21806 0.34572,-0.465005 0.51086,-1.030112 0.77897,-1.538112 0.21784,0.103409 0.34595,-0.203067 0.4983,-0.294128 -0.19204,-0.401064 -0.68394,-0.0904 -1.01335,-0.257968 m -4.772638,0.865187 c -0.12304,0.07276 -0.25599,0.240109 -0.19469,0.378575 -0.19734,0.203508 -0.42951,0.383425 -0.72849,0.367991 -0.27274,-0.01257 -0.39798,0.270096 -0.46037,0.491684 -0.1711,0.281341 -0.56357,0.389378 -0.86144,0.256205 -0.14133,-0.101864 -0.31794,0.02271 -0.46104,0.05358 -0.30052,0.387172 -0.91083,0.219162 -1.24553,0.597075 0.0103,0.164925 -0.1808,0.23592 -0.2917,0.293909 0.19513,0.439649 0.24254,0.931995 0.46831,1.379802 0.34109,0.09745 0.70446,0.174404 1.05393,0.203729 0.0844,0.06152 0.0189,0.158089 -0.073,0.147726 -0.26679,-0.04873 -0.54086,-0.03947 -0.80941,-0.0796 0.96154,3.624792 1.93344,7.246717 2.91681,10.865555 0.55254,-0.106714 0.91149,-0.643818 1.333718,-0.991084 0.25511,-0.404151 0.19491,-0.915238 0.0847,-1.359077 -0.13847,-0.615376 -0.301848,-1.230312 -0.333378,-1.863548 -0.13207,-0.274505 -0.46103,-0.50315 -0.34903,-0.892749 -0.14772,-0.189397 -0.20637,-0.445823 -0.13736,-0.68086 -0.16536,-0.243417 -0.15632,-0.60788 0.0891,-0.79353 -0.11002,-0.786694 -0.0602,-1.57824 -0.0558,-2.367579 0.0322,-0.189178 -0.2604,-0.146183 -0.28686,-0.319044 -0.15654,-0.952721 0.16735,-1.917347 0.58584,-2.764014 -0.21322,-0.06063 0.13758,-0.07871 0.0831,-0.21321 0.001,-0.132513 0.12215,-0.180359 0.232608,-0.174846 0.20108,-0.210784 0.26943,-0.451776 0.57878,-0.541073 -0.4714,-0.436342 -0.918768,-0.935964 -1.039368,-1.589044 -0.1087,-0.100982 -0.004,-0.345943 -0.0994,-0.406576 z"
       inkscape:connector-curvature="0"
       style="opacity:1;fill:#008000;stroke-width:0.02204861" />
    <path
       id="path957-3-3-6-7"
       d="m 109.83463,58.011271 h 0.32698 c 0.26062,0.04806 0.49257,0.190279 0.69321,0.357188 0.36601,0.42201 0.29038,1.009385 0.3239,1.522898 0.0185,0.146623 0.0838,0.403047 0.28773,0.335359 0.2002,-0.09591 0.282,0.198878 0.13736,0.29523 -0.23724,0.155002 -0.63566,0.05468 -0.68659,0.411869 0.0915,0.23636 0.3735,0.192704 0.57525,0.2271 0.35498,0.21762 0.80852,0.166247 1.20099,0.306035 0.34836,0.166026 0.70423,0.304933 1.00784,0.541293 0.49631,0.08687 1.00387,0.173082 1.50768,0.08202 0.25069,-0.04035 0.41452,0.265906 0.67359,0.179697 0.10627,-0.01455 0.27737,-0.179255 0.35652,-0.04476 v 0.04013 c -0.2088,0.09327 -0.44538,0.192925 -0.51814,0.431932 -0.0443,0.207698 -0.29435,0.329407 -0.24386,0.562019 -5.1e-4,0.309122 -0.17991,0.575469 -0.41209,0.765748 -0.50028,0.584289 -1.07641,1.103312 -1.73213,1.512755 -0.0481,0.282885 -0.3314,0.45332 -0.52961,0.603911 0.22093,0.159853 0.0988,0.551437 0.39313,0.576131 0.17572,0.02998 0.16271,0.27208 0.0357,0.349913 -0.19932,0.09437 -0.42267,0.0485 -0.63456,0.0635 0.51461,0.721209 0.54835,1.652323 0.70225,2.495461 -0.0657,0.278695 -0.30714,0.659695 -0.63566,0.583185 0.0203,0.110023 0.13934,0.206375 0.0739,0.325218 -0.1464,0.198216 -0.0238,0.450893 -0.13075,0.65793 0.15522,0.08797 0.14442,0.273623 0.007,0.372622 -0.0891,0.295451 -0.095,0.616038 -0.09,0.924938 0.39489,0.120827 0.31706,0.659916 0.14288,0.934201 -0.2712,0.395552 0.25444,0.850194 -0.0265,1.228989 -0.0968,0.158088 -0.2895,0.110242 -0.41474,0.02337 0.32742,1.122495 -0.42311,2.215222 -0.20373,3.331104 0.40217,0.505795 0.8696,0.928246 1.33218,1.380463 0.0391,-0.0077 0.11531,-0.06085 0.13405,-0.013 -0.0382,0.223132 0.44803,0.130969 0.34506,0.353441 h -0.14067 c -0.57282,-0.157869 -1.171,-0.234598 -1.71869,-0.474708 -0.34241,-0.152354 -0.75758,-0.04828 -1.07487,-0.268992 0.008,-0.651318 0.36778,-1.231856 0.30538,-1.894639 -0.0507,-0.453538 -0.2604,-0.877754 -0.27583,-1.338129 -0.0443,-0.481323 0.13802,-0.959115 0.0553,-1.43779 0.0697,-0.273624 -0.16117,-0.554082 -5.1e-4,-0.827925 -0.08,-0.265689 -0.0659,-0.550777 -0.14155,-0.817345 -0.20879,-0.485069 0.0476,-1.036725 -0.22093,-1.50592 -0.0163,-0.260615 -0.1281,-0.582524 -0.0144,-0.823517 -0.18058,-0.173521 -0.14398,-0.485068 -0.17705,-0.679095 -0.33646,0.397095 -0.31044,0.955365 -0.51638,1.409787 -0.0864,0.406797 -0.12612,0.855707 -0.39202,1.212453 -0.17044,0.224234 -0.0591,0.538207 -0.24166,0.749434 0.06,0.271637 -0.0207,0.581201 0.15743,0.818884 0.20638,0.182563 0.005,0.483526 0.0979,0.701587 0.1087,0.586713 0.32478,1.189081 0.16295,1.788143 -0.19294,0.712391 -0.25423,1.503937 0.058,2.19075 -0.0335,0.225557 0.18962,0.472282 0.0326,0.682185 -1.07729,0.178372 -2.17245,0.295231 -3.26871,0.291702 0.0316,-0.234819 0.50933,-0.02911 0.5607,-0.295673 0.0512,-0.03704 0.084,0.03308 0.12854,0.04741 -1.1344,-3.583559 -2.28644,-7.168001 -3.42922,-10.746933 -0.22974,0.06747 -0.31904,0.393127 -0.56466,0.410104 0.0836,-0.311106 0.50998,-0.486393 0.53865,-0.826602 -0.0712,-0.416718 -0.23769,-0.769056 -0.32257,-1.166372 -0.34132,0.04653 -0.5327,-0.240109 -0.75208,-0.421129 v -0.202415 c 0.0439,-0.06328 0.0481,-0.138245 0,-0.200642 v -0.09635 c 0.13141,-0.15875 0.28994,-0.295892 0.45861,-0.41297 0.29788,-0.03682 0.66344,0.05755 0.88834,-0.197997 0.38342,-0.366888 0.86077,-0.648008 1.1796,-1.07509 0.22974,0.17727 0.35542,-0.128985 0.60281,-0.182563 0.10318,-0.300302 0.34947,-0.535781 0.65594,-0.62199 0.47427,-0.159192 0.65793,-0.654625 1.01402,-0.950076 0.0562,-0.37196 0.41363,-0.558492 0.75009,-0.635661 0.23769,-0.166467 0.51021,-0.286633 0.75914,-0.433034 0.06,-0.173523 0.51108,-0.207479 0.31441,-0.428846 -0.30559,-0.15875 -0.37659,-0.483306 -0.5274,-0.735542 0.0763,-0.310445 -0.3336,-0.545263 -0.22732,-0.890544 0.19005,-0.366006 0.12082,-0.842256 0.43523,-1.14763 0.2357,-0.202406 0.56026,-0.224454 0.85196,-0.284206 m 2.92108,5.341279 c -0.0161,0.09349 -0.0251,0.192043 -0.0688,0.278253 -0.34683,0.239007 -0.21961,0.754504 -0.39071,1.109265 -0.0567,0.475148 -0.34483,0.859235 -0.59817,1.2517 0.0533,0.03439 0.20064,0.206596 0.19579,0.02447 -0.0119,-0.166687 0.22908,-0.183003 0.19204,-0.355424 0.10672,-0.117297 0.31905,-0.07188 0.40592,-0.218062 0.34572,-0.465003 0.51086,-1.030111 0.77897,-1.538111 0.21784,0.10341 0.34595,-0.203066 0.4983,-0.294127 -0.19204,-0.401064 -0.68394,-0.0904 -1.01335,-0.257969 m -4.77264,0.865188 c -0.12304,0.07276 -0.25599,0.24011 -0.19469,0.378576 -0.19734,0.203508 -0.42951,0.383424 -0.72849,0.367991 -0.27274,-0.01257 -0.39798,0.270095 -0.46037,0.491683 -0.1711,0.281341 -0.56357,0.389378 -0.86144,0.256205 -0.14133,-0.101864 -0.31794,0.02271 -0.46104,0.05358 -0.30052,0.387173 -0.91083,0.219163 -1.24553,0.597076 0.0103,0.164924 -0.1808,0.23592 -0.2917,0.293909 0.19513,0.439648 0.24254,0.931995 0.46831,1.379802 0.34109,0.09745 0.70446,0.174403 1.05393,0.203729 0.0844,0.06152 0.0189,0.158089 -0.073,0.147726 -0.26679,-0.04873 -0.54086,-0.03947 -0.80941,-0.0796 0.96154,3.624792 1.93344,7.246717 2.91681,10.865555 0.55254,-0.106714 0.91149,-0.643818 1.33372,-0.991084 0.25511,-0.404151 0.19491,-0.915238 0.0847,-1.359077 -0.13847,-0.615376 -0.30185,-1.230312 -0.33338,-1.863548 -0.13207,-0.274505 -0.46103,-0.50315 -0.34903,-0.892749 -0.14772,-0.189397 -0.20637,-0.445823 -0.13736,-0.68086 -0.16536,-0.243417 -0.15632,-0.60788 0.0891,-0.79353 -0.11002,-0.786694 -0.0602,-1.57824 -0.0558,-2.367579 0.0322,-0.189178 -0.2604,-0.146183 -0.28686,-0.319044 -0.15654,-0.952721 0.16735,-1.917347 0.58584,-2.764014 -0.21322,-0.06063 0.13758,-0.07871 0.0831,-0.21321 0.001,-0.132513 0.12215,-0.180359 0.23261,-0.174846 0.20108,-0.210784 0.26943,-0.451776 0.57878,-0.541073 -0.4714,-0.436342 -0.91877,-0.935964 -1.03937,-1.589044 -0.1087,-0.100982 -0.004,-0.345943 -0.0994,-0.406576 z"
       inkscape:connector-curvature="0"
       style="opacity:1;fill:#008000;stroke-width:0.02204861" />
    <path
       style="display:none;fill:none;fill-rule:evenodd;stroke:#000000;stroke-width:0.26499999;stroke-linecap:butt;stroke-linejoin:miter;stroke-miterlimit:4;stroke-dasharray:none;stroke-opacity:1;marker-end:url(#Arrow1Lend)"
       d="M 91.040721,43.488625 53.509033,59.097617"
       id="path1048"
       inkscape:connector-type="polyline"
       inkscape:connector-curvature="0" />
    <text
       xml:space="preserve"
       style="font-style:normal;font-variant:normal;font-weight:normal;font-stretch:normal;font-size:5.64444447px;line-height:1;font-family:arial;-inkscape-font-specification:arial;letter-spacing:0px;word-spacing:0px;fill:#000000;fill-opacity:1;stroke:none;stroke-width:0.26458332"
       x="58.699215"
       y="42.68782"
       id="text2147"><tspan
         sodipodi:role="line"
         id="tspan2145"
         x="58.699215"
         y="42.68782"
         style="font-size:4.23333311px;stroke-width:0.26458332">A:0</tspan></text>
    <text
       xml:space="preserve"
       style="font-style:normal;font-variant:normal;font-weight:normal;font-stretch:normal;font-size:5.64444447px;line-height:1;font-family:arial;-inkscape-font-specification:arial;letter-spacing:0px;word-spacing:0px;fill:#000000;fill-opacity:1;stroke:none;stroke-width:0.26458332"
       x="96.53949"
       y="42.68782"
       id="text2147-3"><tspan
         sodipodi:role="line"
         id="tspan2145-5"
         x="96.53949"
         y="42.68782"
         style="font-size:4.23333311px;stroke-width:0.26458332">R:0</tspan></text>
    <text
       xml:space="preserve"
       style="font-style:normal;font-variant:normal;font-weight:normal;font-stretch:normal;font-size:5.64444447px;line-height:1;font-family:arial;-inkscape-font-specification:arial;letter-spacing:0px;word-spacing:0px;fill:#000000;fill-opacity:1;stroke:none;stroke-width:0.26458332"
       x="44.694363"
       y="19.820219"
       id="text2183"><tspan
         sodipodi:role="line"
         id="tspan2181"
         x="44.694363"
         y="19.820219"
         style="font-size:7.05555534px;stroke-width:0.26458332">SM(1)</tspan></text>
    <path
       style="fill:none;fill-rule:evenodd;stroke:#000000;stroke-width:0.26499999;stroke-linecap:butt;stroke-linejoin:miter;stroke-miterlimit:4;stroke-dasharray:none;stroke-opacity:1;marker-end:url(#marker2351)"
       d="M 79.374999,29.770828 109.80208,57.552077"
       id="path1413"
       inkscape:connector-type="polyline"
       inkscape:connector-curvature="0" />
    <path
       style="fill:none;fill-rule:evenodd;stroke:#000000;stroke-width:0.26458332px;stroke-linecap:butt;stroke-linejoin:miter;stroke-opacity:1;marker-end:url(#marker1605)"
       d="M 79.374999,29.770828 50.270833,57.552077"
       id="path1417"
       inkscape:connector-type="polyline"
       inkscape:connector-curvature="0" />
    <path
       style="fill:none;fill-rule:evenodd;stroke:#000000;stroke-width:0.26499999;stroke-linecap:butt;stroke-linejoin:miter;stroke-miterlimit:4;stroke-dasharray:none;stroke-opacity:1;marker-end:url(#marker1007)"
       d="M 56.885417,65.489577 H 100.54166"
       id="path66"
       inkscape:connector-type="polyline"
       inkscape:connector-curvature="0" />
    <path
       style="fill:none;fill-rule:evenodd;stroke:#000000;stroke-width:0.26458332px;stroke-linecap:butt;stroke-linejoin:miter;stroke-opacity:1;marker-end:url(#marker1163)"
       d="M 100.54166,74.749994 H 56.885417"
       id="path1153"
       inkscape:connector-type="polyline"
       inkscape:connector-curvature="0" />
    <text
       xml:space="preserve"
       style="font-style:normal;font-variant:normal;font-weight:normal;font-stretch:normal;font-size:5.64444447px;line-height:1;font-family:arial;-inkscape-font-specification:arial;letter-spacing:0px;word-spacing:0px;fill:#000000;fill-opacity:1;stroke:none;stroke-width:0.26458332"
       x="72.816872"
       y="64.30854"
       id="text2147-36"><tspan
         sodipodi:role="line"
         id="tspan2145-7"
         x="72.816872"
         y="64.30854"
         style="font-size:4.23333311px;stroke-width:0.26458332">A:0:1</tspan></text>
    <text
       xml:space="preserve"
       style="font-style:normal;font-variant:normal;font-weight:normal;font-stretch:normal;font-size:5.64444447px;line-height:1;font-family:arial;-inkscape-font-specification:arial;letter-spacing:0px;word-spacing:0px;fill:#000000;fill-opacity:1;stroke:none;stroke-width:0.26458332"
       x="72.677933"
       y="73.568954"
       id="text2147-36-5"><tspan
         sodipodi:role="line"
         id="tspan2145-7-3"
         x="72.677933"
         y="73.568954"
         style="font-size:4.23333311px;stroke-width:0.26458332">R:0:2</tspan></text>
    <path
       inkscape:connector-curvature="0"
       style="fill:url(#pattern3801-4-4);fill-opacity:1;fill-rule:nonzero;stroke:none;stroke-width:0.01653646;stroke-linecap:round;stroke-linejoin:bevel;stroke-miterlimit:4;stroke-dasharray:none;stroke-opacity:1;paint-order:stroke fill markers"
       d="m 79.834748,8.0111047 c -0.29169,0.05975 -0.61645,0.08181 -0.85213,0.284221 -0.31441,0.305374 -0.24507,0.781727 -0.43512,1.147733 -0.10628,0.345282 0.30368,0.5799413 0.22738,0.8903843 0.15081,0.252238 0.22149,0.576607 0.5271,0.735357 0.19667,0.221366 -0.2542,0.255391 -0.3142,0.428913 -0.24893,0.146402 -0.52143,0.266581 -0.75913,0.433049 -0.33645,0.07717 -0.69414,0.26366 -0.75034,0.635619 -0.3561,0.295452 -0.53962,0.791139 -1.013888,0.95033 -0.30647,0.08621 -0.55259,0.321882 -0.65577,0.622184 -0.24739,0.05358 -0.37332,0.35969 -0.60306,0.18242 -0.31885,0.427082 -0.79584,0.707982 -1.17926,1.074869 -0.2249,0.255548 -0.59044,0.1611 -0.88832,0.197919 -0.16867,0.117081 -0.32747,0.254664 -0.45889,0.413414 v 0.09612 c 0.0481,0.0624 0.0439,0.137226 0,0.200507 v 0.20257 c 0.21938,0.18102 0.41057,0.467694 0.7519,0.421164 0.0849,0.397314 0.25176,0.749617 0.32297,1.166336 -0.0287,0.340209 -0.45539,0.515199 -0.53898,0.826307 0.24561,-0.01699 0.33508,-0.342326 0.56482,-0.409794 1.14278,3.578931 2.29485,7.163069 3.429238,10.746631 -0.0445,-0.01434 -0.0775,-0.08407 -0.12868,-0.04703 -0.0514,0.266563 -0.529068,0.06077 -0.560668,0.295588 1.096248,0.0035 2.191758,-0.113599 3.269038,-0.291971 0.15703,-0.209904 -0.0666,-0.456573 -0.0331,-0.68213 -0.31221,-0.686813 -0.2508,-1.478172 -0.0579,-2.190565 0.16183,-0.599059 -0.0541,-1.20129 -0.16277,-1.788004 -0.0929,-0.218059 0.10818,-0.519202 -0.0982,-0.701765 -0.17814,-0.237685 -0.0971,-0.547433 -0.15711,-0.819073 0.18256,-0.211225 0.0709,-0.525074 0.24134,-0.749308 0.26589,-0.356746 0.30581,-0.805532 0.39221,-1.212329 0.20594,-0.454422 0.17979,-1.012637 0.51625,-1.409731 0.0331,0.194026 -0.003,0.505507 0.17725,0.679026 -0.1137,0.240993 -0.002,0.563108 0.0145,0.823722 0.26853,0.469196 0.0119,1.020784 0.22066,1.505852 0.0756,0.266568 0.0616,0.551318 0.14159,0.817005 -0.16067,0.273843 0.0702,0.554233 5.3e-4,0.827857 0.0827,0.478676 -0.0996,0.956834 -0.0553,1.438156 0.0154,0.460372 0.22526,0.884362 0.27596,1.3379 0.0624,0.662784 -0.29742,1.243658 -0.3054,1.894975 0.31728,0.220715 0.73245,0.116364 1.07487,0.268719 0.54768,0.240109 1.14593,0.317037 1.71875,0.474906 h 0.14055 c 0.10297,-0.222473 -0.38339,-0.130334 -0.34519,-0.353468 -0.0187,-0.04785 -0.0947,0.0052 -0.13385,0.01291 -0.46257,-0.452218 -0.93004,-0.874482 -1.33222,-1.380278 -0.21937,-1.115881 0.53104,-2.209086 0.20362,-3.331581 0.12524,0.08687 0.31815,0.134835 0.41496,-0.02326 0.28094,-0.378796 -0.24484,-0.833312 0.0264,-1.228865 0.17418,-0.274285 0.25226,-0.813482 -0.14262,-0.934309 -0.005,-0.308902 7.9e-4,-0.629557 0.0899,-0.925008 0.13741,-0.099 0.14798,-0.284617 -0.007,-0.372589 0.10695,-0.207036 -0.0157,-0.459623 0.13074,-0.65784 0.0654,-0.118844 -0.0536,-0.215023 -0.0739,-0.325045 0.32852,0.07651 0.56992,-0.304733 0.63562,-0.583427 -0.1539,-0.843137 -0.18768,-1.774246 -0.70229,-2.495455 0.21189,-0.015 0.43527,0.03081 0.63459,-0.06356 0.12701,-0.07783 0.14006,-0.319868 -0.0357,-0.349848 -0.29433,-0.02469 -0.17181,-0.41634 -0.39274,-0.576193 0.19821,-0.150591 0.48107,-0.320696 0.52916,-0.603581 0.65573,-0.409443 1.23192,-0.928796 1.7322,-1.513086 0.23218,-0.190278 0.41187,-0.456206 0.41238,-0.765328 -0.0505,-0.232611 0.19961,-0.354542 0.24391,-0.56224 0.0728,-0.239006 0.309,-0.338744 0.5178,-0.432014 v -0.04031 c -0.0791,-0.134495 -0.2503,0.03041 -0.35657,0.04496 -0.25907,0.08621 -0.42265,-0.220183 -0.67334,-0.179832 -0.50381,0.09106 -1.01161,0.0052 -1.50792,-0.08165 -0.30361,-0.23636 -0.65933,-0.375544 -1.00769,-0.54157 -0.39247,-0.139788 -0.84598,-0.0883 -1.20096,-0.305922 -0.20175,-0.0344 -0.48366,0.009 -0.57516,-0.227378 0.0509,-0.357186 0.44902,-0.256856 0.68626,-0.41186 0.14464,-0.09635 0.0633,-0.390983 -0.13694,-0.295071 -0.20393,0.06769 -0.26934,-0.188758 -0.28784,-0.3353803 -0.0335,-0.513514 0.042,-1.100894 -0.32401,-1.522904 -0.20069,-0.166913 -0.43241,-0.309028 -0.69303,-0.357087 z m 2.92076,5.3412763 c 0.32941,0.167569 0.82134,-0.1432 1.01338,0.257866 -0.15235,0.09106 -0.28032,0.397446 -0.49816,0.294039 -0.26811,0.508 -0.43305,1.073402 -0.77878,1.538407 -0.0869,0.14618 -0.29945,0.100777 -0.40617,0.218075 0.037,0.172421 -0.20413,0.188846 -0.19223,0.355534 0.005,0.182126 -0.14204,0.0096 -0.19535,-0.02482 0.25335,-0.392465 0.54121,-0.776454 0.5979,-1.251604 0.17111,-0.354761 0.0438,-0.870487 0.39068,-1.109493 0.0437,-0.08621 0.0526,-0.184528 0.0687,-0.278019 z m -4.77233,0.865064 c 0.0954,0.06063 -0.01,0.305712 0.0992,0.406693 0.12061,0.653079 0.56782,1.152708 1.03922,1.589051 -0.30934,0.0893 -0.37769,0.330268 -0.57877,0.541051 -0.11047,-0.0055 -0.23154,0.04215 -0.23254,0.174668 0.0545,0.134498 -0.29643,0.152791 -0.0832,0.213423 -0.4185,0.846667 -0.74204,1.811452 -0.5855,2.764171 0.0265,0.172863 0.319,0.129667 0.2868,0.318844 -0.004,0.78934 -0.0542,1.581121 0.0558,2.367815 -0.24542,0.18565 -0.25475,0.549817 -0.0894,0.793234 -0.069,0.235037 -0.0103,0.491696 0.13746,0.681095 -0.11201,0.389599 0.21727,0.617945 0.34934,0.892451 0.0315,0.633237 0.19483,1.248076 0.3333,1.863452 0.11021,0.443839 0.17036,0.95494 -0.0847,1.359091 -0.42223,0.347265 -0.78122,0.884438 -1.33376,0.991153 C 76.31305,25.554798 75.34134,21.932943 74.3798,18.308152 c 0.26855,0.04013 0.54247,0.03085 0.80926,0.07958 0.0919,0.01037 0.15726,-0.08627 0.0729,-0.147793 -0.34947,-0.02933 -0.71259,-0.106154 -1.05369,-0.203605 -0.22577,-0.447807 -0.27357,-0.940112 -0.4687,-1.37976 0.1109,-0.05799 0.30227,-0.129114 0.29197,-0.294039 0.3347,-0.377913 0.94488,-0.20969 1.2454,-0.596863 0.1431,-0.03087 0.31963,-0.155607 0.46096,-0.05374 0.29787,0.133173 0.69034,0.02503 0.86144,-0.256315 0.0624,-0.221588 0.1877,-0.504013 0.460438,-0.491445 0.29898,0.01542 0.5313,-0.164428 0.72864,-0.367935 -0.0613,-0.138467 0.0718,-0.30603 0.19482,-0.378788 z"
       id="rect3752-0-7" />
  </g>
</svg>
