<?xml version="1.0" encoding="UTF-8" standalone="no"?>
<!-- Created with Inkscape (http://www.inkscape.org/) -->

<svg
   xmlns:dc="http://purl.org/dc/elements/1.1/"
   xmlns:cc="http://creativecommons.org/ns#"
   xmlns:rdf="http://www.w3.org/1999/02/22-rdf-syntax-ns#"
   xmlns:svg="http://www.w3.org/2000/svg"
   xmlns="http://www.w3.org/2000/svg"
   xmlns:xlink="http://www.w3.org/1999/xlink"
   xmlns:sodipodi="http://sodipodi.sourceforge.net/DTD/sodipodi-0.dtd"
   xmlns:inkscape="http://www.inkscape.org/namespaces/inkscape"
   id="svg6316"
   version="1.1"
   inkscape:version="0.91 r13725"
   width="948.10016"
   height="520.66107"
   viewBox="0 0 948.10016 520.66107"
   sodipodi:docname="Found-Cartoon-Animals-Request-2016072659-800px.svg">
  <metadata
     id="metadata6322">
    <rdf:RDF>
      <cc:Work
         rdf:about="">
        <dc:format>image/svg+xml</dc:format>
        <dc:type
           rdf:resource="http://purl.org/dc/dcmitype/StillImage" />
        <dc:title></dc:title>
      </cc:Work>
    </rdf:RDF>
  </metadata>
  <defs
     id="defs6320">
    <linearGradient
       inkscape:collect="always"
       id="linearGradient6336">
      <stop
         style="stop-color:#79b4d1;stop-opacity:1"
         offset="0"
         id="stop6338" />
      <stop
         style="stop-color:#61a8c8;stop-opacity:1"
         offset="1"
         id="stop6340" />
    </linearGradient>
    <radialGradient
       inkscape:collect="always"
       xlink:href="#linearGradient6336"
       id="radialGradient6342"
       cx="1285.1639"
       cy="678.86682"
       fx="1285.1639"
       fy="678.86682"
       r="473.74365"
       gradientTransform="matrix(-0.63097326,0.36236617,-0.26962332,-0.46949296,1612.29,-24.555128)"
       gradientUnits="userSpaceOnUse" />
  </defs>
  <sodipodi:namedview
     pagecolor="#ffffff"
     bordercolor="#666666"
     borderopacity="1"
     objecttolerance="10"
     gridtolerance="10"
     guidetolerance="10"
     inkscape:pageopacity="0"
     inkscape:pageshadow="2"
     inkscape:window-width="1366"
     inkscape:window-height="715"
     id="namedview6318"
     showgrid="false"
     fit-margin-top="0"
     fit-margin-left="0"
     fit-margin-right="0"
     fit-margin-bottom="0"
     inkscape:zoom="0.833"
     inkscape:cx="512.92609"
     inkscape:cy="296.55512"
     inkscape:window-x="-8"
     inkscape:window-y="-8"
     inkscape:window-maximized="1"
     inkscape:current-layer="svg6316" />
  <path
     sodipodi:nodetypes="cssssssssssssscsssssssssssssssscsssssssssssscssssssssssssssscssssssssssssssssscsscc"
     inkscape:connector-curvature="0"
     id="path6330"
     d="m 502.42808,512.03087 c -9.4022,-4.7563 -20.5894,-18.81474 -23.2654,-29.23644 -0.8625,-3.3589 -1.9352,-6.54637 -2.3837,-7.08328 -0.4485,-0.53693 -10.591,-1.77453 -22.5388,-2.75024 -55.1571,-4.50435 -92.1852,-9.3016 -103.8333,-13.45233 -2.9037,-1.03474 -8.6502,-2.89554 -12.77,-4.13511 -7.7323,-2.32658 -24.4762,-8.34607 -34.3315,-12.34233 -3.0898,-1.25293 -9.1466,-3.11747 -13.4595,-4.14343 -4.3129,-1.02596 -10.7735,-3.44518 -14.3569,-5.37603 -3.5832,-1.93084 -9.4241,-4.44223 -12.9795,-5.58085 -8.4469,-2.70512 -37.9477,-17.37389 -46.4533,-23.09823 -3.6643,-2.46606 -7.3504,-4.48375 -8.1913,-4.48375 -0.841,0 -8.7657,-4.94674 -17.6103,-10.99275 -8.8448,-6.04601 -16.7601,-10.99275 -17.5899,-10.99275 -0.8297,0 -1.6902,-0.69305 -1.9121,-1.54011 -0.222,-0.84706 -5.4598,-6.18086 -11.6395,-11.8529 -6.1797,-5.67203 -12.7306,-12.32684 -14.5577,-14.78848 -1.8272,-2.46164 -5.0068,-5.64928 -7.0657,-7.08366 -4.0844,-2.84545 -21.2309,-24.34063 -24.6405,-30.88972 -1.1671,-2.24211 -6.4679,-10.12255 -11.7792,-17.51212 -11.004402,-15.3102 -12.467802,-17.54441 -28.190102,-43.03557 -6.3121,-10.23399 -13.88,-24.24973 -16.8177,-31.1461 -6.2655,-14.70887 -6.2117,-14.6319 -14.3343,-20.50267 -7.1982,-5.20262 -18.9685,-18.85228 -23.0037,-26.67675 -1.5108,-2.9296 -3.5768,-9.25044 -4.5911,-14.04628 -1.0143,-4.79586 -2.9038,-12.84201 -4.1988998,-17.88035 -6.7287,-26.17642 -10.73650004,-56.864248 -9.79890004,-75.029208 0.5208,-10.09105 2.49110004,-13.86146 9.77920004,-18.71447 9.6456998,-6.42279 22.4759998,-2.244 38.7996998,12.63681 17.2871,15.75928 20.2289,18.97128 30.4566,33.25463 10.4364,14.574788 15.2902,18.682878 28.001602,23.699568 5.5507,2.19063 9.4503,2.76341 18.8577,2.76982 11.2192,0.007 12.3659,-0.2396 21.2232,-4.57628 5.1496,-2.5214 13.5765,-6.91788 18.7261,-9.76994 8.4497,-4.67972 10.1548,-5.17723 17.4778,-5.10008 12.9619,0.1366 24.4842,6.18726 28.2504,14.83483 5.1746,11.8816 -1.3267,50.21042 -11.3568,66.95548 -1.7093,2.85337 -10.6262,12.25537 -19.8154,20.89335 -9.1894,8.63798 -17.3683,16.94444 -18.1756,18.45882 -2.3859,4.47607 3.0775,19.37561 10.7957,29.44171 3.395,4.42783 11.4697,8.65228 16.6209,8.6955 1.7588,0.0148 7.5962,1.15392 12.9719,2.53148 5.3756,1.37756 12.0826,2.33942 14.904,2.13748 5.8611,-0.4195 5.3982,0.25167 15.6596,-22.70478 l 6.1629,-13.78766 -5.3707,-5.25453 c -12.9643,-12.68395 -13.4786,-40.20995 -0.887,-47.48703 2.3755,-1.37287 8.6387,-2.52325 18.2046,-3.34372 14.5424,-1.24729 24.5551,-2.94046 27.7576,-4.69392 6.6782,-3.65653 31.5012,-26.89755 42.6095,-39.89414 5.1676,-6.04601 13.0945,-15.08404 17.6155,-20.08452 27.8912,-30.849428 29.8274,-32.672478 48.5006,-45.668088 35.9672,-25.03135 51.3496,-32.87707 95.1728,-48.54279 35.9423,-12.84849986 33.3961,-12.52023986 90.5103,-11.6689099 45.6859,0.68099 49.5736,0.9136 63.0451,3.77233 43.1103,9.1482499 61.1722,14.9146999 77.6957,24.8053399 19.8164,11.8616 28.9443,19.39793 44.0478,36.36709 21.2202,23.84154 36.6554,35.288948 60.5494,44.905948 20.4666,8.23749 36.8664,11.52884 68.2428,13.69593 29.2237,2.01841 39.9591,4.09054 49.2524,9.50658 7.9913,4.65719 11.0633,9.84044 11.0661,18.6708 0,6.77399 -3.8552,23.05879 -6.8557,28.9434 -1.0347,2.02919 -1.8814,5.15417 -1.8814,6.94436 0,9.07808 -15.3651,45.43053 -26.5288,62.76437 -2.5748,3.99802 -4.6815,7.74678 -4.6815,8.3306 0,0.58382 -1.9663,3.85811 -4.3695,7.2762 -2.4032,3.41808 -4.3694,6.66931 -4.3694,7.22497 0,0.55564 -5.1584,7.77666 -11.4629,16.04668 -6.3046,8.27006 -13.9668,18.88391 -17.0273,23.58636 -3.0604,4.70245 -7.3588,10.47364 -9.5518,12.82487 -2.1931,2.35123 -5.0644,5.71438 -6.3806,7.47369 -1.3162,1.7593 -9.4155,11.28559 -17.9984,21.16952 -8.5828,9.88392 -16.5745,19.43723 -17.7591,21.22959 -5.0318,7.6133 -39.5215,42.0701 -46.2035,46.15967 -2.9285,1.79229 -7.8526,5.26461 -10.9425,7.71627 -7.8236,6.20776 -11.0944,8.14714 -27.4651,16.28562 -41.7847,20.77245 -59.1626,26.38755 -91.687,29.6257 -23.2489,2.31468 -54.5649,2.29786 -68.1106,-0.0366 -5.8363,-1.00584 -11.7822,-1.82954 -13.213,-1.83046 -2.6389,-9.7e-4 -7.5669,6.18647 -14.8703,18.67259 -3.8102,6.5139 -7.4005,9.4578 -19.4766,15.9702 -9.2677,4.9979 -17.6223,5.8709 -24.2242,2.5311 z"
     style="fill:url(#radialGradient6342);fill-opacity:1" />
  <path
     inkscape:connector-curvature="0"
     id="path6328"
     d="m 507.67638,520.26817 c -3.8858,-0.8309 -17.2327,-13.4048 -20.886,-19.6765 -1.6419,-2.8186 -3.6586,-7.93719 -4.4814,-11.37469 -0.8229,-3.4375 -2.1256,-6.89842 -2.8949,-7.69094 -0.7953,-0.81927 -9.4881,-2.04637 -20.1488,-2.84427 -26.2872,-1.96745 -75.4616,-7.2652 -88.125,-9.49405 -15.6134,-2.74804 -28.4104,-6.83723 -63.75,-20.37077 -5.1562,-1.97462 -11.1961,-3.94257 -13.4219,-4.37322 -2.2258,-0.43065 -8.132,-2.68498 -13.125,-5.00963 -4.993,-2.32463 -12.0229,-5.19503 -15.622,-6.37866 -8.2357,-2.70839 -42.609,-20.06971 -45.956,-23.21148 -1.3751,-1.29074 -4.9851,-3.45883 -8.0223,-4.81797 -14.2352,-6.37017 -47.4865,-32.43606 -60.7278,-47.6049 -2.0625,-2.36274 -6.4799,-6.86273 -9.8165,-10 -6.8657,-6.45556 -21.7154,-25.80834 -25.5196,-33.2583 -1.3891,-2.7202 -5.0076,-8.32081 -8.0412,-12.44581 -8.907102,-12.11163 -17.415702,-25.05291 -29.104602,-44.26714 -10.1974,-16.7624 -12.782,-21.73824 -22.9084,-44.10241 -3,-6.62548 -5.0875,-9.30191 -10.0176,-12.8438 -11.9444,-8.58121 -27.7126,-30.51879 -27.7161,-38.56012 -6e-4,-1.25042 -1.3746,-7.71917 -3.0535,-14.375 C 8.5480782,124.61505 6.0272782,109.47602 4.3367782,87.506692 c -1.9827,-25.76714 -1.3192,-32.44828 3.7476,-37.73688 5.4025998,-5.63904 11.6500998,-7.07753 19.7074998,-4.53764 8.0653,2.54236 11.5254,5.06132 26.4018,19.22061 12.1114,11.52768 15.5953,15.66545 26.639,31.6392 7.4737,10.809898 12.3013,14.985098 23.157602,20.028098 16.7401,7.77611 32.3567,7.26251 48.4,-1.59178 22.1565,-12.22816 25.0319,-13.43632 31.9786,-13.43632 8.2911,0 18.983,3.88246 23.4062,8.49932 4.6634,4.86752 5.853,12.70004 4.4351,29.20105 -1.1969,13.92852 -5.4645,31.26245 -9.7792,39.71977 -3.5029,6.86638 -12.7051,17.09501 -26.4887,29.44327 -12.8912,11.54887 -15.5433,15.66804 -14.3124,22.2294 1.2853,6.85133 8.9508,21.51423 13.7628,26.32629 4.5793,4.57924 8.8567,6.20284 25.1226,9.53585 4.125,0.84525 10.1071,2.10665 13.2936,2.80311 9.8698,2.15724 11.6116,0.51548 20.1668,-19.00806 4.0671,-9.28125 7.6963,-17.8843 8.0649,-19.1179 0.464,-1.55276 -0.8873,-3.57611 -4.3917,-6.57574 -6.9643,-5.96119 -9.6336,-13.38873 -9.6336,-26.80636 0,-17.31083 4.913,-22.47506 21.3988,-22.49303 7.7827,-0.009 27.2801,-3.29646 30.8375,-5.20035 4.1973,-2.24633 23.4094,-18.95862 31.6244,-27.50963 4.186,-4.35709 14.5758,-16.07824 23.0885,-26.04699 28.8446,-33.778008 37.0017,-42.046758 52.3165,-53.032748 41.3724,-29.67823 56.957,-37.44689 118.8593,-59.2492299 9.2064,-3.24254996 10.048,-3.30917996 46.8019,-3.70483996 51.7459,-0.55705 78.044,1.04819996 98.8231,6.03219996 34.528,8.2817699 48.4361,13.1747299 64.0083,22.5187099 18.6807,11.20915 28.9406,19.90568 44.1167,37.39448 20.1413,23.2106 35.3105,34.893038 58.125,44.764438 21.462,9.2862 42.5403,13.74208 72.8647,15.40336 31.4665,1.72387 48.9241,6.59965 54.5814,15.24426 4.4923,6.86442 3.1834,22.03162 -3.4273,39.71549 -1.6529,4.42139 -3.3699,10.76017 -3.8156,14.08618 -1.1956,8.9213 -19.9214,52.3622 -25.1375,58.31506 -0.9097,1.0382 -2.757,4.13764 -4.105,6.88764 -3.9871,8.1334 -12.7229,21.83967 -20.3158,31.875 -3.9013,5.15625 -10.6601,14.71875 -15.0195,21.25 -4.3594,6.53125 -10.0957,14.40625 -12.7474,17.5 -11.3376,13.22784 -38.1953,45.71712 -41.8273,50.59761 -2.1721,2.91882 -6.6721,8.14032 -10,11.60333 -24.5782,25.5762 -30.6858,31.65122 -33.7823,33.60226 -1.9351,1.21927 -8.2996,5.72979 -14.1434,10.02336 -18.4585,13.562 -63.8263,35.26245 -84.2449,40.29624 -26.1344,6.4429 -81.4499,8.99974 -103.7178,4.79414 -6.8413,-1.29208 -11.868,-1.67397 -13.125,-0.99712 -1.1205,0.60333 -5.4123,6.56853 -9.5373,13.25601 -4.125,6.68736 -9.1875,13.40516 -11.25,14.92836 -11.8157,8.7261 -23.465,12.8092 -31.5889,11.072 z m 12.4554,-24.3962 c 8.2446,-2.47016 14.7752,-9.44746 22.1874,-23.70519 3.7028,-7.12239 8.6539,-15.98469 11.0024,-19.694 6.369,-10.05916 22.5877,-25.82457 29.8275,-28.99386 8.5931,-3.7617 18.3716,-6.25653 19.6219,-5.0062 0.5809,0.58082 -3.1514,4.49409 -8.2938,8.69615 -11.2715,9.21024 -25.8039,24.9597 -25.8231,27.98561 -0.01,1.66223 1.1118,2.23479 4.6737,2.38441 2.5781,0.10825 5.5313,0.0959 6.5625,-0.0276 1.0313,-0.1235 8.9597,-0.20495 17.6187,-0.18105 21.3166,0.0589 76.1313,-6.757 76.1313,-9.46645 0,-0.3475 -7.7662,-0.24741 -17.2583,0.22241 -17.3868,0.86059 -31.4917,-0.0265 -31.4917,-1.98058 0,-2.47274 38.8355,-7.49756 58.125,-7.52065 20.7784,-0.0249 50.3371,-5.31222 58.3128,-10.43077 l 4.1872,-2.68722 -8.75,-0.37806 c -4.8125,-0.20793 -29.2812,0.1577 -54.375,0.81252 -25.1163,0.6554 -48.4344,0.71836 -51.875,0.14006 -3.4375,-0.57777 -6.9531,-1.08402 -7.8125,-1.12501 -0.8594,-0.041 -1.5625,-0.89659 -1.5625,-1.90134 0,-4.68167 20.63,-7.20306 77.5,-9.472 40.2779,-1.60696 54.0237,-2.953 65.3794,-6.40218 7.4116,-2.2512 9.6865,-3.67949 15.383,-9.65795 9.0884,-9.53838 8.8906,-10.65212 -1.6999,-9.57074 -4.6406,0.47385 -12.9375,1.61366 -18.4375,2.53294 -5.5,0.91926 -16.1875,2.03477 -23.75,2.47892 -7.5625,0.44415 -25,1.87568 -38.75,3.18118 -36.0513,3.4229 -66.901,4.43797 -69.6642,2.29223 -1.3789,-1.0708 -1.7854,-2.2803 -1.1203,-3.33347 1.3185,-2.08791 9.8875,-4.08036 13.5807,-3.15778 2.6794,0.66933 17.7563,-0.96042 30.9538,-3.34597 3.4375,-0.62135 14.6875,-1.41953 25,-1.77374 10.3125,-0.3542 20.715,-1.2179 23.1168,-1.91931 2.4017,-0.70141 10.0368,-1.2753 16.967,-1.2753 17.4022,0 58.2893,-5.43475 63.417,-8.42945 5.2497,-3.06601 12.6673,-12.77741 11.0187,-14.42608 -0.817,-0.81702 -3.92,-0.56566 -9.1286,0.73952 -10.8709,2.724 -25.9132,4.42267 -46.9711,5.30425 -9.8066,0.41053 -19.6504,1.30688 -21.875,1.99186 -2.2246,0.68497 -13.0448,1.746 -24.0448,2.35782 -11,0.61184 -26.7891,1.49418 -35.0869,1.96078 -21.4059,1.20369 -48.5662,-1.88725 -45.2984,-5.15511 1.5751,-1.57502 24.4594,-4.28022 41.6353,-4.9218 91.8522,-3.43099 127.8764,-6.66555 147.5,-13.24383 4.125,-1.38279 8.6479,-3.47914 10.0509,-4.65856 3.6885,-3.10075 19.3241,-23.77113 19.3241,-25.54663 0,-1.95628 -5.0952,-0.86425 -18.6903,4.00584 -29.54,10.5819 -67.3188,19.1603 -101.9347,23.1462 -22.3017,2.56796 -81.4165,3.10013 -90.3125,0.81301 -3.6094,-0.92795 -6.5625,-2.18285 -6.5625,-2.78868 0,-1.58372 3.7862,-2.14753 20,-2.97822 14.1373,-0.72431 60.8956,-4.38377 88.3786,-6.91682 26.9325,-2.4823 62.0469,-10.02586 93.9048,-20.17343 23.2086,-7.39255 26.1512,-8.70866 31.1694,-13.94143 4.5877,-4.78374 20.2972,-29.33344 20.2972,-31.71895 0,-2.32105 -1.0665,-2.10235 -7.3987,1.51728 -3.0381,1.7366 -9.5069,4.85442 -14.375,6.92847 -4.8682,2.07405 -11.6638,5.0905 -15.1013,6.70321 -16.4952,7.73877 -66.0758,22.8432 -94.375,28.75071 -33.2116,6.93299 -93.1876,12.7824 -110,10.72821 -6.4515,-0.78825 -6.6731,-0.92546 -3.5976,-2.22728 1.8026,-0.76302 7.9901,-2.04363 13.75,-2.84582 5.7599,-0.80217 14.9726,-2.49892 20.4726,-3.77055 5.5,-1.27162 19.5625,-3.20371 31.25,-4.29352 19.3595,-1.80519 40.143,-5.2109 73.5028,-12.0446 26.8827,-5.50688 57.168,-16.92678 89.6155,-33.79189 27.1545,-14.11404 32.1719,-18.1579 35.697,-28.77104 1.1354,-3.41848 1.7588,-6.521 1.3854,-6.89448 -0.3735,-0.37348 -3.9465,1.2902 -7.9399,3.69706 -24.9904,15.06182 -85.5753,39.79669 -115.8685,47.30539 -8.1717,2.0255 -15.8258,4.2009 -17.0092,4.83421 -3.1107,1.6648 -43.7579,12.00116 -56.2581,14.30615 -20.8112,3.83747 -66.1678,6.85795 -73.498,4.89451 -5.4222,-1.45234 -2.4808,-4.5125 7.248,-7.54065 14.2906,-4.44805 37.0422,-10.01174 47.5,-11.61566 5.1563,-0.79083 12.1875,-1.96774 15.625,-2.61535 3.4375,-0.64761 13.2813,-2.32884 21.875,-3.73604 18.8222,-3.08209 54.7944,-12.10092 91.7284,-22.99787 29.2887,-8.6413 53.7242,-20.28209 75.1984,-35.8236 3.466,-2.50844 9.1761,-6.01733 12.6892,-7.79754 7.7286,-3.9164 11.038,-7.88871 13.5116,-16.21839 2.4302,-8.18316 2.4092,-12.10121 -0.065,-12.10121 -2.6037,0 -8.4804,3.11569 -10.5263,5.58086 -0.9109,1.09765 -7.9012,6.4059 -15.5339,11.79614 -7.6327,5.39024 -15.0027,11.05786 -16.3777,12.59472 -1.375,1.53687 -4.6686,3.90108 -7.319,5.2538 -2.6505,1.35273 -8.5568,4.81758 -13.125,7.69965 -9.2358,5.82677 -21.3998,11.28144 -38.306,17.17747 -6.1875,2.15788 -12.7724,4.70683 -14.633,5.66432 -9.1684,4.71803 -31.3645,11.18119 -46.617,13.57415 -2.75,0.43145 -12.7981,2.75363 -22.3291,5.1604 -9.5311,2.40678 -23.3123,5.52305 -30.625,6.92505 -30.8515,5.91486 -89.0963,4.86219 -78.9212,-1.42636 1.0196,-0.63014 4.9524,-1.50294 8.7395,-1.93955 3.7872,-0.43663 9.9796,-1.53819 13.7608,-2.44793 3.7813,-0.90973 10.5313,-2.03298 15,-2.49611 4.4688,-0.46311 10.6563,-1.39239 13.75,-2.06505 3.0938,-0.67265 9.7466,-1.68974 14.7842,-2.26019 6.6667,-0.75495 9.9388,-1.76967 12.0244,-3.72896 2.4387,-2.29107 3.7741,-2.57121 8.9708,-1.88185 6.5194,0.86483 38.1949,-4.51359 44.2206,-7.50852 1.7188,-0.85428 7.0177,-2.51033 11.7755,-3.68012 12.3632,-3.0397 40.7893,-14.2209 71.9745,-28.31058 18.2522,-8.24647 53.1376,-31.9388 68.75,-46.69132 7.2188,-6.82117 13.2928,-13.34301 13.4978,-14.49296 0.5789,-3.24666 -2.8609,-5.24875 -11.9869,-6.97666 -4.6123,-0.87329 -10.6359,-2.17796 -13.3859,-2.89928 -2.75,-0.72131 -7.8552,-1.3249 -11.3449,-1.3413 -10.2999,-0.0484 -40.9904,-4.70881 -50.5301,-7.67307 -7.8361,-2.43489 -30.3151,-14.43458 -46.0368,-24.57525 -3.6639,-2.36331 -19.1327,-16.516738 -34.375,-31.452078 -29.5901,-28.99431 -35.3263,-33.45832 -55.8381,-43.45371 -19.0859,-9.30057 -20.0725,-9.54726 -66.25,-16.56514 -8.6936,-1.32121 -48.1443,-4.34146 -54.375,-4.1628 -39.9706,1.1461 -46.3026,1.57403 -58.75,3.97038 -26.3555,5.07393 -56.5815,15.19101 -68.4212,22.90154 -3.6183,2.35642 -15.312,9.49434 -25.9859,15.86204 -30.1224,17.9701 -42.5764,27.90047 -70.8632,56.503848 -13.8641,14.01917 -26.8441,27.73942 -28.8445,30.48942 -2.0004,2.75 -9.2187,11.46875 -16.0406,19.375 -9.7116,11.25515 -14.409,15.59581 -21.6435,20 l -9.24,5.625 -14.7351,0.625 c -16.7899,0.71216 -19.1001,1.75302 -16.0506,7.23169 1.2003,2.15636 5.269,5.05877 11.1617,7.96212 9.9303,4.89273 12.8023,7.57598 11.6296,10.86519 -0.4051,1.1363 -4.1902,7.1285 -8.4112,13.316 -9.2652,13.58157 -13.555,23.58824 -16.3438,38.125 -0.9911,5.16627 -7.2918,15.5515 -11.0189,18.16204 -3.3409,2.34005 -9.6507,2.32042 -25.7043,-0.0799 -16.3676,-2.44731 -20.2955,-3.84915 -31.3178,-11.17675 -10.5112,-6.9878 -15.1627,-12.8743 -23.7299,-30.03035 -6.9643,-13.94628 -10.431,-26.33352 -8.8457,-31.60788 1.9584,-6.5158 2.823,-7.7662 7.9709,-11.52777 2.8512,-2.08335 10.0731,-8.63763 16.0487,-14.5651 12.8949,-12.79105 18.9512,-23.70685 21.1795,-38.1736 1.2023,-7.80598 1.1097,-9.82853 -0.6403,-13.98625 l -2.046,-4.8606 -6.3379,0.75063 c -3.4859,0.41285 -9.5289,2.21582 -13.429,4.00661 -5.9534,2.73364 -9.5295,3.37248 -22.2915,3.98215 -17.3869,0.83063 -25.5683,-0.4005 -40.8565,-6.14802 -12.871302,-4.83889 -18.072202,-8.83657 -42.479902,-32.65189 -10.8828,-10.618678 -21.7062,-20.340248 -24.0519,-21.603498 -3.9733,-2.13975 -4.4067,-2.15496 -6.3393,-0.22235 -3.1271,3.12706 -3.9038,29.887558 -1.2009,41.372638 1.1022,4.68328 2.0136,10.30828 2.0254,12.5 0.041,7.64476 4.6334,21.46138 9.8417,29.60993 2.8562,4.46875 6.2787,9.8125 7.6055,11.875 1.3267,2.0625 4.8954,5.82477 7.9304,8.36059 3.035,2.53584 8.7528,9.56709 12.7063,15.625 3.9534,6.05793 8.1938,12.46645 9.423,14.24118 1.2292,1.77472 4.8035,8.34101 7.9428,14.59176 3.1393,6.25075 6.2369,11.69202 6.8837,12.09171 0.6467,0.39969 3.4245,4.80214 6.173,9.78323 7.019802,12.72188 15.595202,24.44937 29.016202,39.68153 6.3604,7.21875 14.896,17.34375 18.968,22.5 4.072,5.15625 11.7257,13.79815 17.0083,19.20424 9.2438,9.45995 34.3004,32.0624 39.7336,35.84199 5.9931,4.16912 14.0014,10.22991 19.8711,15.03883 8.2072,6.72397 33.6391,22.52392 46.25,28.73351 10.98,5.40655 24.0579,9.44362 48.0311,14.82696 8.6454,1.94137 26.4064,6.65307 39.4689,10.47042 15.8412,4.62942 30.8263,8.03994 45,10.2418 11.6875,1.81563 26.3125,4.35359 32.5,5.6399 6.1875,1.28631 17.2777,3.0371 24.6448,3.89064 17.8233,2.06494 18.9636,1.5402 20.9072,-9.62095 1.7649,-10.1347 3.7764,-14.31545 10.55,-21.92777 2.8314,-3.182 8.1505,-9.23998 11.8203,-13.46219 6.6984,-7.70669 12.9775,-12.12765 15.2394,-10.72969 2.1844,1.35001 1.2752,6.28281 -1.967,10.67196 -5.7144,7.736 -12.5806,21.63958 -14.7809,29.93035 -1.1859,4.46875 -2.9736,10.73175 -3.9725,13.91777 -1.0831,3.45426 -1.8163,10.85866 -1.8163,18.34159 0,11.81009 0.1987,12.78499 3.3755,16.56042 3.4724,4.12671 9.2047,7.29497 13.3545,7.38127 1.2952,0.027 4.5629,-0.6126 7.2615,-1.4211 z m 97.7314,-250.32614 c -7.874,-3.42693 -10.1665,-11.46572 -5.4677,-19.17251 4.5457,-7.45553 13.8403,-8.36548 21.986,-2.15245 3.4146,2.60446 4.2588,4.11524 4.2588,7.6218 0,6.59781 -2.9561,11.16022 -8.7273,13.46937 -6.0486,2.42019 -6.9845,2.43834 -12.0498,0.23379 z"
     style="fill:#161b20" />
</svg>
