<?xml version="1.0" encoding="UTF-8" standalone="no"?>
<!DOCTYPE svg PUBLIC "-//W3C//DTD SVG 1.1//EN"
 "http://www.w3.org/Graphics/SVG/1.1/DTD/svg11.dtd">
<!-- Generated by graphviz version 2.43.0 (0)
 -->
<!-- Title: E Pages: 1 -->
<svg width="486pt" height="422pt"
 viewBox="0.00 0.00 485.69 422.00" xmlns="http://www.w3.org/2000/svg" xmlns:xlink="http://www.w3.org/1999/xlink">
<g id="page0,1_graph0" class="graph" transform="scale(1 1) rotate(0) translate(4 418)">
<title>E</title>
<polygon fill="white" stroke="transparent" points="-4,4 -4,-418 481.69,-418 481.69,4 -4,4"/>
<!-- oracle -->
<g id="node1" class="node">
<title>oracle</title>
<polygon fill="none" stroke="black" points="365.69,-233.5 253.69,-233.5 253.69,-180.5 365.69,-180.5 365.69,-233.5"/>
<text text-anchor="middle" x="309.69" y="-218.3" font-family="Helvetica,sans-Serif" font-size="14.00">oracle</text>
<text text-anchor="middle" x="309.69" y="-203.3" font-family="Helvetica,sans-Serif" font-size="14.00">contract</text>
<text text-anchor="middle" x="309.69" y="-188.3" font-family="Helvetica,sans-Serif" font-size="14.00">priceUpdate()</text>
</g>
<!-- output -->
<g id="node10" class="node">
<title>output</title>
<text text-anchor="middle" x="440.19" y="-218.3" font-family="Helvetica,sans-Serif" font-size="14.00">staked</text>
<text text-anchor="middle" x="440.19" y="-203.3" font-family="Helvetica,sans-Serif" font-size="14.00">price:</text>
<text text-anchor="middle" x="440.19" y="-188.3" font-family="Helvetica,sans-Serif" font-size="14.00">$10,000</text>
</g>
<!-- oracle&#45;&gt;output -->
<g id="edge9" class="edge">
<title>oracle&#45;&gt;output</title>
<path fill="none" stroke="black" d="M365.93,-207C374.74,-207 383.77,-207 392.35,-207"/>
<polygon fill="black" stroke="black" points="392.55,-210.5 402.55,-207 392.55,-203.5 392.55,-210.5"/>
</g>
<!-- signer1 -->
<g id="node2" class="node">
<title>signer1</title>
<text text-anchor="middle" x="38.35" y="-392.3" font-family="Helvetica,sans-Serif" font-size="14.00">signer 1</text>
</g>
<!-- signer1&#45;&gt;oracle -->
<g id="edge1" class="edge">
<title>signer1&#45;&gt;oracle</title>
<path fill="none" stroke="black" d="M75.47,-398.21C118.1,-398.91 189.05,-393.89 235.69,-358 272.35,-329.8 291.62,-278.47 300.97,-243.57"/>
<polygon fill="black" stroke="black" points="304.39,-244.3 303.45,-233.75 297.6,-242.58 304.39,-244.3"/>
<text text-anchor="middle" x="165.19" y="-401.8" font-family="Helvetica,sans-Serif" font-size="14.00">$101 stake $10</text>
</g>
<!-- signer2 -->
<g id="node3" class="node">
<title>signer2</title>
<text text-anchor="middle" x="38.35" y="-338.3" font-family="Helvetica,sans-Serif" font-size="14.00">signer 2</text>
</g>
<!-- signer2&#45;&gt;oracle -->
<g id="edge2" class="edge">
<title>signer2&#45;&gt;oracle</title>
<path fill="none" stroke="black" d="M75.37,-341.25C116.94,-338.85 185.96,-330.03 235.69,-299 257.89,-285.15 276.18,-262.06 288.9,-242.48"/>
<polygon fill="black" stroke="black" points="292.01,-244.11 294.35,-233.78 286.08,-240.4 292.01,-244.11"/>
<text text-anchor="middle" x="165.19" y="-342.8" font-family="Helvetica,sans-Serif" font-size="14.00">$98 stake $10</text>
</g>
<!-- signer3 -->
<g id="node4" class="node">
<title>signer3</title>
<text text-anchor="middle" x="38.35" y="-284.3" font-family="Helvetica,sans-Serif" font-size="14.00">signer 3</text>
</g>
<!-- signer3&#45;&gt;oracle -->
<g id="edge3" class="edge">
<title>signer3&#45;&gt;oracle</title>
<path fill="none" stroke="black" d="M75.7,-283.68C115.8,-278.18 181.79,-266.89 235.69,-247 242.4,-244.52 249.25,-241.51 255.93,-238.26"/>
<polygon fill="black" stroke="black" points="257.56,-241.35 264.9,-233.7 254.4,-235.11 257.56,-241.35"/>
<text text-anchor="middle" x="165.19" y="-283.8" font-family="Helvetica,sans-Serif" font-size="14.00">$102 stake $5</text>
</g>
<!-- signer4 -->
<g id="node5" class="node">
<title>signer4</title>
<text text-anchor="middle" x="38.35" y="-230.3" font-family="Helvetica,sans-Serif" font-size="14.00">signer 4</text>
</g>
<!-- signer4&#45;&gt;oracle -->
<g id="edge4" class="edge">
<title>signer4&#45;&gt;oracle</title>
<path fill="none" stroke="black" d="M75.39,-230.39C118.28,-226.09 190.72,-218.83 243.52,-213.53"/>
<polygon fill="black" stroke="black" points="243.88,-217.02 253.48,-212.54 243.18,-210.05 243.88,-217.02"/>
<text text-anchor="middle" x="165.19" y="-231.8" font-family="Helvetica,sans-Serif" font-size="14.00">$100 stake $10</text>
</g>
<!-- signer5 -->
<g id="node6" class="node">
<title>signer5</title>
<text text-anchor="middle" x="38.35" y="-176.3" font-family="Helvetica,sans-Serif" font-size="14.00">signer 5</text>
</g>
<!-- signer5&#45;&gt;oracle -->
<g id="edge5" class="edge">
<title>signer5&#45;&gt;oracle</title>
<path fill="none" stroke="black" d="M75.63,-181.83C115.1,-184.04 180.03,-188.31 235.69,-195 238.2,-195.3 240.76,-195.63 243.34,-195.97"/>
<polygon fill="black" stroke="black" points="242.97,-199.46 253.36,-197.39 243.95,-192.52 242.97,-199.46"/>
<text text-anchor="middle" x="165.19" y="-198.8" font-family="Helvetica,sans-Serif" font-size="14.00">$99 stake $5</text>
</g>
<!-- signer6 -->
<g id="node7" class="node">
<title>signer6</title>
<text text-anchor="middle" x="38.35" y="-122.3" font-family="Helvetica,sans-Serif" font-size="14.00">signer 6</text>
</g>
<!-- signer6&#45;&gt;oracle -->
<g id="edge6" class="edge">
<title>signer6&#45;&gt;oracle</title>
<path fill="none" stroke="black" d="M75.46,-129.26C115.63,-133.74 181.95,-143.66 235.69,-164 243.89,-167.1 252.22,-171.09 260.19,-175.38"/>
<polygon fill="black" stroke="black" points="258.57,-178.48 269,-180.33 261.99,-172.38 258.57,-178.48"/>
<text text-anchor="middle" x="165.19" y="-167.8" font-family="Helvetica,sans-Serif" font-size="14.00">$101 stake $2</text>
</g>
<!-- signer7 -->
<g id="node8" class="node">
<title>signer7</title>
<text text-anchor="middle" x="38.35" y="-68.3" font-family="Helvetica,sans-Serif" font-size="14.00">signer 7</text>
</g>
<!-- signer7&#45;&gt;oracle -->
<g id="edge7" class="edge">
<title>signer7&#45;&gt;oracle</title>
<path fill="none" stroke="black" d="M75.43,-71.96C117.05,-73.49 186.12,-81.04 235.69,-112 258.74,-126.4 277.28,-150.85 289.91,-171.34"/>
<polygon fill="black" stroke="black" points="287.01,-173.31 295.12,-180.13 293.03,-169.74 287.01,-173.31"/>
<text text-anchor="middle" x="165.19" y="-115.8" font-family="Helvetica,sans-Serif" font-size="14.00">$102 stake $15</text>
</g>
<!-- whale -->
<g id="node9" class="node">
<title>whale</title>
<ellipse fill="skyblue" stroke="black" cx="38.35" cy="-18" rx="38.19" ry="18"/>
<text text-anchor="middle" x="38.35" y="-14.3" font-family="Helvetica,sans-Serif" font-size="14.00">Whale</text>
</g>
<!-- whale&#45;&gt;oracle -->
<g id="edge8" class="edge">
<title>whale&#45;&gt;oracle</title>
<path fill="none" stroke="blue" d="M76.61,-15.29C119.35,-14.16 189.47,-18.6 235.69,-54 273.02,-82.58 292.19,-135.06 301.32,-170.49"/>
<polygon fill="blue" stroke="blue" points="297.98,-171.55 303.74,-180.44 304.78,-169.9 297.98,-171.55"/>
<text text-anchor="middle" x="165.19" y="-57.8" font-family="Helvetica,sans-Serif" font-size="14.00" fill="blue">$10,000 stake $999</text>
</g>
</g>
</svg>
