<?xml version="1.0" encoding="UTF-8" standalone="no"?>
<!DOCTYPE svg PUBLIC "-//W3C//DTD SVG 1.1//EN"
 "http://www.w3.org/Graphics/SVG/1.1/DTD/svg11.dtd">
<!-- Generated by graphviz version 2.43.0 (0)
 -->
<!-- Title: D Pages: 1 -->
<svg width="438pt" height="368pt"
 viewBox="0.00 0.00 438.00 368.00" xmlns="http://www.w3.org/2000/svg" xmlns:xlink="http://www.w3.org/1999/xlink">
<g id="page0,1_graph0" class="graph" transform="scale(1 1) rotate(0) translate(4 364)">
<title>D</title>
<polygon fill="white" stroke="transparent" points="-4,4 -4,-364 434,-364 434,4 -4,4"/>
<!-- oracle -->
<g id="node1" class="node">
<title>oracle</title>
<polygon fill="none" stroke="black" points="331,-206.5 219,-206.5 219,-153.5 331,-153.5 331,-206.5"/>
<text text-anchor="middle" x="275" y="-191.3" font-family="Helvetica,sans-Serif" font-size="14.00">oracle</text>
<text text-anchor="middle" x="275" y="-176.3" font-family="Helvetica,sans-Serif" font-size="14.00">contract</text>
<text text-anchor="middle" x="275" y="-161.3" font-family="Helvetica,sans-Serif" font-size="14.00">priceUpdate()</text>
</g>
<!-- output -->
<g id="node9" class="node">
<title>output</title>
<text text-anchor="middle" x="399" y="-191.3" font-family="Helvetica,sans-Serif" font-size="14.00">staked</text>
<text text-anchor="middle" x="399" y="-176.3" font-family="Helvetica,sans-Serif" font-size="14.00">price:</text>
<text text-anchor="middle" x="399" y="-161.3" font-family="Helvetica,sans-Serif" font-size="14.00">$102</text>
</g>
<!-- oracle&#45;&gt;output -->
<g id="edge8" class="edge">
<title>oracle&#45;&gt;output</title>
<path fill="none" stroke="black" d="M331.29,-180C340.25,-180 349.38,-180 357.9,-180"/>
<polygon fill="black" stroke="black" points="357.92,-183.5 367.92,-180 357.92,-176.5 357.92,-183.5"/>
</g>
<!-- signer1 -->
<g id="node2" class="node">
<title>signer1</title>
<text text-anchor="middle" x="37" y="-338.3" font-family="Helvetica,sans-Serif" font-size="14.00">signer 1</text>
</g>
<!-- signer1&#45;&gt;oracle -->
<g id="edge1" class="edge">
<title>signer1&#45;&gt;oracle</title>
<path fill="none" stroke="black" d="M74.01,-339.29C109.41,-335.03 163.44,-324.09 201,-296 228.32,-275.57 247.94,-241.63 259.91,-215.73"/>
<polygon fill="black" stroke="black" points="263.11,-217.15 263.98,-206.59 256.72,-214.3 263.11,-217.15"/>
<text text-anchor="middle" x="146.5" y="-339.8" font-family="Helvetica,sans-Serif" font-size="14.00">$101 stake $10</text>
</g>
<!-- signer2 -->
<g id="node3" class="node">
<title>signer2</title>
<text text-anchor="middle" x="37" y="-284.3" font-family="Helvetica,sans-Serif" font-size="14.00">signer 2</text>
</g>
<!-- signer2&#45;&gt;oracle -->
<g id="edge2" class="edge">
<title>signer2&#45;&gt;oracle</title>
<path fill="none" stroke="black" d="M74.28,-282.02C108.44,-275.38 160.3,-262.63 201,-241 214.75,-233.7 228.27,-223.5 239.86,-213.54"/>
<polygon fill="black" stroke="black" points="242.4,-215.96 247.56,-206.71 237.76,-210.72 242.4,-215.96"/>
<text text-anchor="middle" x="146.5" y="-280.8" font-family="Helvetica,sans-Serif" font-size="14.00">$98 stake $10</text>
</g>
<!-- signer3 -->
<g id="node4" class="node">
<title>signer3</title>
<text text-anchor="middle" x="37" y="-230.3" font-family="Helvetica,sans-Serif" font-size="14.00">signer 3</text>
</g>
<!-- signer3&#45;&gt;oracle -->
<g id="edge3" class="edge">
<title>signer3&#45;&gt;oracle</title>
<path fill="none" stroke="black" d="M74.03,-226.73C107.13,-219.94 157.49,-209.33 201,-199 203.6,-198.38 206.25,-197.74 208.92,-197.09"/>
<polygon fill="black" stroke="black" points="209.8,-200.48 218.66,-194.67 208.11,-193.68 209.8,-200.48"/>
<text text-anchor="middle" x="146.5" y="-225.8" font-family="Helvetica,sans-Serif" font-size="14.00">$102 stake $5</text>
</g>
<!-- signer4 -->
<g id="node5" class="node">
<title>signer4</title>
<text text-anchor="middle" x="37" y="-176.3" font-family="Helvetica,sans-Serif" font-size="14.00" fill="red">signer 4</text>
</g>
<!-- signer4&#45;&gt;oracle -->
<g id="edge4" class="edge">
<title>signer4&#45;&gt;oracle</title>
<path fill="none" stroke="red" d="M74.1,-180C109.72,-180 165,-180 208.4,-180"/>
<polygon fill="red" stroke="red" points="208.59,-183.5 218.59,-180 208.59,-176.5 208.59,-183.5"/>
<text text-anchor="middle" x="146.5" y="-183.8" font-family="Helvetica,sans-Serif" font-size="14.00" fill="red">$0 stake $10</text>
</g>
<!-- signer5 -->
<g id="node6" class="node">
<title>signer5</title>
<text text-anchor="middle" x="37" y="-122.3" font-family="Helvetica,sans-Serif" font-size="14.00" fill="red">signer 5</text>
</g>
<!-- signer5&#45;&gt;oracle -->
<g id="edge5" class="edge">
<title>signer5&#45;&gt;oracle</title>
<path fill="none" stroke="red" d="M74.03,-133.27C107.13,-140.06 157.49,-150.67 201,-161 203.6,-161.62 206.25,-162.26 208.92,-162.91"/>
<polygon fill="red" stroke="red" points="208.11,-166.32 218.66,-165.33 209.8,-159.52 208.11,-166.32"/>
<text text-anchor="middle" x="146.5" y="-164.8" font-family="Helvetica,sans-Serif" font-size="14.00" fill="red">$0 stake $5</text>
</g>
<!-- signer6 -->
<g id="node7" class="node">
<title>signer6</title>
<text text-anchor="middle" x="37" y="-68.3" font-family="Helvetica,sans-Serif" font-size="14.00">signer 6</text>
</g>
<!-- signer6&#45;&gt;oracle -->
<g id="edge6" class="edge">
<title>signer6&#45;&gt;oracle</title>
<path fill="none" stroke="black" d="M74.33,-77.64C108.51,-83.99 160.39,-96.36 201,-118 215.2,-125.57 229.1,-136.28 240.9,-146.67"/>
<polygon fill="black" stroke="black" points="238.57,-149.29 248.33,-153.42 243.28,-144.1 238.57,-149.29"/>
<text text-anchor="middle" x="146.5" y="-121.8" font-family="Helvetica,sans-Serif" font-size="14.00">$101 stake $2</text>
</g>
<!-- signer7 -->
<g id="node8" class="node">
<title>signer7</title>
<text text-anchor="middle" x="37" y="-14.3" font-family="Helvetica,sans-Serif" font-size="14.00">signer 7</text>
</g>
<!-- signer7&#45;&gt;oracle -->
<g id="edge7" class="edge">
<title>signer7&#45;&gt;oracle</title>
<path fill="none" stroke="black" d="M74.04,-20.14C109.46,-23.86 163.51,-34.07 201,-62 228.87,-82.76 248.52,-117.6 260.35,-144.06"/>
<polygon fill="black" stroke="black" points="257.2,-145.58 264.36,-153.38 263.63,-142.81 257.2,-145.58"/>
<text text-anchor="middle" x="146.5" y="-65.8" font-family="Helvetica,sans-Serif" font-size="14.00">$102 stake $15</text>
</g>
</g>
</svg>
