<?xml version="1.0" encoding="UTF-8" standalone="no"?>
<!DOCTYPE svg PUBLIC "-//W3C//DTD SVG 1.1//EN"
 "http://www.w3.org/Graphics/SVG/1.1/DTD/svg11.dtd">
<!-- Generated by graphviz version 2.43.0 (0)
 -->
<!-- Title: E Pages: 1 -->
<svg width="521pt" height="458pt"
 viewBox="0.00 0.00 521.00 458.00" xmlns="http://www.w3.org/2000/svg" xmlns:xlink="http://www.w3.org/1999/xlink">
<g id="page0,1_graph0" class="graph" transform="scale(1 1) rotate(0) translate(4 454)">
<title>E</title>
<polygon fill="white" stroke="transparent" points="-4,4 -4,-454 517,-454 517,4 -4,4"/>
<!-- oracle -->
<g id="node1" class="node">
<title>oracle</title>
<polygon fill="none" stroke="black" points="401,-269.5 289,-269.5 289,-216.5 401,-216.5 401,-269.5"/>
<text text-anchor="middle" x="345" y="-254.3" font-family="Helvetica,sans-Serif" font-size="14.00">oracle</text>
<text text-anchor="middle" x="345" y="-239.3" font-family="Helvetica,sans-Serif" font-size="14.00">contract</text>
<text text-anchor="middle" x="345" y="-224.3" font-family="Helvetica,sans-Serif" font-size="14.00">priceUpdate()</text>
</g>
<!-- output -->
<g id="node10" class="node">
<title>output</title>
<text text-anchor="middle" x="475.5" y="-254.3" font-family="Helvetica,sans-Serif" font-size="14.00">staked</text>
<text text-anchor="middle" x="475.5" y="-239.3" font-family="Helvetica,sans-Serif" font-size="14.00">price:</text>
<text text-anchor="middle" x="475.5" y="-224.3" font-family="Helvetica,sans-Serif" font-size="14.00">$10,000</text>
</g>
<!-- oracle&#45;&gt;output -->
<g id="edge9" class="edge">
<title>oracle&#45;&gt;output</title>
<path fill="none" stroke="black" d="M401.24,-243C410.04,-243 419.07,-243 427.66,-243"/>
<polygon fill="black" stroke="black" points="427.86,-246.5 437.86,-243 427.86,-239.5 427.86,-246.5"/>
</g>
<!-- signer1 -->
<g id="node2" class="node">
<title>signer1</title>
<text text-anchor="middle" x="72" y="-428.3" font-family="Helvetica,sans-Serif" font-size="14.00">signer 1</text>
</g>
<!-- signer1&#45;&gt;oracle -->
<g id="edge1" class="edge">
<title>signer1&#45;&gt;oracle</title>
<path fill="none" stroke="black" d="M109.01,-432.19C151.92,-430.61 223.72,-422.04 271,-385 304.92,-358.43 324.56,-311.78 334.76,-279.23"/>
<polygon fill="black" stroke="black" points="338.12,-280.2 337.62,-269.62 331.41,-278.2 338.12,-280.2"/>
<text text-anchor="middle" x="216.5" y="-429.8" font-family="Helvetica,sans-Serif" font-size="14.00">$101 stake $10</text>
</g>
<!-- signer2 -->
<g id="node3" class="node">
<title>signer2</title>
<text text-anchor="middle" x="72" y="-374.3" font-family="Helvetica,sans-Serif" font-size="14.00">signer 2</text>
</g>
<!-- signer2&#45;&gt;oracle -->
<g id="edge2" class="edge">
<title>signer2&#45;&gt;oracle</title>
<path fill="none" stroke="black" d="M109.09,-374.91C150.8,-369.96 220.19,-357.37 271,-326 290.79,-313.78 308.2,-294.54 321.05,-277.65"/>
<polygon fill="black" stroke="black" points="323.87,-279.72 326.98,-269.59 318.23,-275.57 323.87,-279.72"/>
<text text-anchor="middle" x="216.5" y="-369.8" font-family="Helvetica,sans-Serif" font-size="14.00">$98 stake $10</text>
</g>
<!-- signer3 -->
<g id="node4" class="node">
<title>signer3</title>
<text text-anchor="middle" x="72" y="-320.3" font-family="Helvetica,sans-Serif" font-size="14.00">signer 3</text>
</g>
<!-- signer3&#45;&gt;oracle -->
<g id="edge3" class="edge">
<title>signer3&#45;&gt;oracle</title>
<path fill="none" stroke="black" d="M109.12,-318.42C149.37,-311.6 216.01,-298.5 271,-279 275.51,-277.4 280.1,-275.6 284.67,-273.67"/>
<polygon fill="black" stroke="black" points="286.26,-276.79 294.01,-269.56 283.44,-270.38 286.26,-276.79"/>
<text text-anchor="middle" x="216.5" y="-310.8" font-family="Helvetica,sans-Serif" font-size="14.00">$102 stake $5</text>
</g>
<!-- signer4 -->
<g id="node5" class="node">
<title>signer4</title>
<text text-anchor="middle" x="72" y="-266.3" font-family="Helvetica,sans-Serif" font-size="14.00">signer 4</text>
</g>
<!-- signer4&#45;&gt;oracle -->
<g id="edge4" class="edge">
<title>signer4&#45;&gt;oracle</title>
<path fill="none" stroke="black" d="M109.27,-266.39C152.56,-262.07 225.76,-254.78 278.93,-249.48"/>
<polygon fill="black" stroke="black" points="279.34,-252.96 288.95,-248.48 278.65,-245.99 279.34,-252.96"/>
<text text-anchor="middle" x="216.5" y="-263.8" font-family="Helvetica,sans-Serif" font-size="14.00">$100 stake $10</text>
</g>
<!-- signer5 -->
<g id="node6" class="node">
<title>signer5</title>
<text text-anchor="middle" x="72" y="-212.3" font-family="Helvetica,sans-Serif" font-size="14.00">signer 5</text>
</g>
<!-- signer5&#45;&gt;oracle -->
<g id="edge5" class="edge">
<title>signer5&#45;&gt;oracle</title>
<path fill="none" stroke="black" d="M109.22,-217.79C148.99,-219.98 214.69,-224.25 271,-231 273.51,-231.3 276.07,-231.63 278.65,-231.97"/>
<polygon fill="black" stroke="black" points="278.28,-235.45 288.67,-233.38 279.26,-228.52 278.28,-235.45"/>
<text text-anchor="middle" x="216.5" y="-234.8" font-family="Helvetica,sans-Serif" font-size="14.00">$99 stake $5</text>
</g>
<!-- signer6 -->
<g id="node7" class="node">
<title>signer6</title>
<text text-anchor="middle" x="72" y="-158.3" font-family="Helvetica,sans-Serif" font-size="14.00">signer 6</text>
</g>
<!-- signer6&#45;&gt;oracle -->
<g id="edge6" class="edge">
<title>signer6&#45;&gt;oracle</title>
<path fill="none" stroke="black" d="M109.34,-165.89C149.78,-171 216.59,-181.8 271,-202 278.28,-204.7 285.7,-208.07 292.89,-211.69"/>
<polygon fill="black" stroke="black" points="291.36,-214.84 301.84,-216.4 294.62,-208.65 291.36,-214.84"/>
<text text-anchor="middle" x="216.5" y="-205.8" font-family="Helvetica,sans-Serif" font-size="14.00">$101 stake $2</text>
</g>
<!-- signer7 -->
<g id="node8" class="node">
<title>signer7</title>
<text text-anchor="middle" x="72" y="-104.3" font-family="Helvetica,sans-Serif" font-size="14.00">signer 7</text>
</g>
<!-- signer7&#45;&gt;oracle -->
<g id="edge7" class="edge">
<title>signer7&#45;&gt;oracle</title>
<path fill="none" stroke="black" d="M109.23,-109.74C151.06,-113.23 220.58,-123.69 271,-155 292.01,-168.05 309.87,-189.24 322.66,-207.56"/>
<polygon fill="black" stroke="black" points="320.03,-209.94 328.52,-216.28 325.84,-206.03 320.03,-209.94"/>
<text text-anchor="middle" x="216.5" y="-158.8" font-family="Helvetica,sans-Serif" font-size="14.00">$102 stake $15</text>
</g>
<!-- whale -->
<g id="node9" class="node">
<title>whale</title>
<polygon fill="none" stroke="black" stroke-width="0" points="144,-72 0,-72 0,0 144,0 144,-72"/>
<image xlink:href="bigfish.svg" width="144px" height="72px" preserveAspectRatio="xMinYMin meet" x="0" y="-72"/>
<text text-anchor="middle" x="72" y="-47.3" font-family="Helvetica,sans-Serif" font-size="14.00">. &#160;&#160;Whale</text>
<text text-anchor="middle" x="72" y="-32.3" font-family="Helvetica,sans-Serif" font-size="14.00"> </text>
<text text-anchor="middle" x="72" y="-17.3" font-family="Helvetica,sans-Serif" font-size="14.00"> </text>
</g>
<!-- whale&#45;&gt;oracle -->
<g id="edge8" class="edge">
<title>whale&#45;&gt;oracle</title>
<path fill="none" stroke="blue" d="M144.32,-30.82C185.33,-31.54 235.58,-39.14 271,-67 314.41,-101.14 332.25,-165.62 339.41,-206.33"/>
<polygon fill="blue" stroke="blue" points="335.98,-207.08 341.04,-216.39 342.89,-205.96 335.98,-207.08"/>
<text text-anchor="middle" x="216.5" y="-100.8" font-family="Helvetica,sans-Serif" font-size="14.00" fill="blue">$10,000</text>
<text text-anchor="middle" x="216.5" y="-85.8" font-family="Helvetica,sans-Serif" font-size="14.00" fill="blue">stake</text>
<text text-anchor="middle" x="216.5" y="-70.8" font-family="Helvetica,sans-Serif" font-size="14.00" fill="blue">$999</text>
</g>
</g>
</svg>
