<?xml version="1.0" encoding="UTF-8" standalone="no"?>
<!DOCTYPE svg PUBLIC "-//W3C//DTD SVG 1.1//EN"
 "http://www.w3.org/Graphics/SVG/1.1/DTD/svg11.dtd">
<!-- Generated by graphviz version 2.43.0 (0)
 -->
<!-- Title: C Pages: 1 -->
<svg width="372pt" height="368pt"
 viewBox="0.00 0.00 372.00 368.00" xmlns="http://www.w3.org/2000/svg" xmlns:xlink="http://www.w3.org/1999/xlink">
<g id="page0,1_graph0" class="graph" transform="scale(1 1) rotate(0) translate(4 364)">
<title>C</title>
<polygon fill="white" stroke="transparent" points="-4,4 -4,-364 368,-364 368,4 -4,4"/>
<!-- oracle -->
<g id="node1" class="node">
<title>oracle</title>
<polygon fill="none" stroke="black" points="259,-206.5 147,-206.5 147,-153.5 259,-153.5 259,-206.5"/>
<text text-anchor="middle" x="203" y="-191.3" font-family="Helvetica,sans-Serif" font-size="14.00">oracle</text>
<text text-anchor="middle" x="203" y="-176.3" font-family="Helvetica,sans-Serif" font-size="14.00">contract</text>
<text text-anchor="middle" x="203" y="-161.3" font-family="Helvetica,sans-Serif" font-size="14.00">priceUpdate()</text>
</g>
<!-- output -->
<g id="node9" class="node">
<title>output</title>
<text text-anchor="middle" x="330" y="-191.3" font-family="Helvetica,sans-Serif" font-size="14.00">median</text>
<text text-anchor="middle" x="330" y="-176.3" font-family="Helvetica,sans-Serif" font-size="14.00">price:</text>
<text text-anchor="middle" x="330" y="-161.3" font-family="Helvetica,sans-Serif" font-size="14.00">$101</text>
</g>
<!-- oracle&#45;&gt;output -->
<g id="edge8" class="edge">
<title>oracle&#45;&gt;output</title>
<path fill="none" stroke="black" d="M259.19,-180C268.12,-180 277.25,-180 285.84,-180"/>
<polygon fill="black" stroke="black" points="285.99,-183.5 295.99,-180 285.99,-176.5 285.99,-183.5"/>
</g>
<!-- signer1 -->
<g id="node2" class="node">
<title>signer1</title>
<text text-anchor="middle" x="37" y="-338.3" font-family="Helvetica,sans-Serif" font-size="14.00">signer 1</text>
</g>
<!-- signer1&#45;&gt;oracle -->
<g id="edge1" class="edge">
<title>signer1&#45;&gt;oracle</title>
<path fill="none" stroke="black" d="M62.42,-323.73C66.3,-320.81 70.26,-317.83 74,-315 98.53,-296.44 107.11,-294.6 129,-273 146.83,-255.41 164.25,-233.45 177.6,-215.3"/>
<polygon fill="black" stroke="black" points="180.78,-216.87 183.81,-206.72 175.11,-212.77 180.78,-216.87"/>
<text text-anchor="middle" x="110.5" y="-304.8" font-family="Helvetica,sans-Serif" font-size="14.00">$101</text>
</g>
<!-- signer2 -->
<g id="node3" class="node">
<title>signer2</title>
<text text-anchor="middle" x="37" y="-284.3" font-family="Helvetica,sans-Serif" font-size="14.00">signer 2</text>
</g>
<!-- signer2&#45;&gt;oracle -->
<g id="edge2" class="edge">
<title>signer2&#45;&gt;oracle</title>
<path fill="none" stroke="black" d="M69.57,-269.8C87.27,-259.38 109.62,-245.86 129,-233 138.59,-226.64 148.69,-219.56 158.21,-212.71"/>
<polygon fill="black" stroke="black" points="160.37,-215.47 166.41,-206.76 156.26,-209.8 160.37,-215.47"/>
<text text-anchor="middle" x="110.5" y="-257.8" font-family="Helvetica,sans-Serif" font-size="14.00">$99</text>
</g>
<!-- signer3 -->
<g id="node4" class="node">
<title>signer3</title>
<text text-anchor="middle" x="37" y="-230.3" font-family="Helvetica,sans-Serif" font-size="14.00">signer 3</text>
</g>
<!-- signer3&#45;&gt;oracle -->
<g id="edge3" class="edge">
<title>signer3&#45;&gt;oracle</title>
<path fill="none" stroke="black" d="M74.4,-222.02C92.89,-215.93 115.92,-208.34 137.31,-201.3"/>
<polygon fill="black" stroke="black" points="138.59,-204.56 147,-198.11 136.41,-197.91 138.59,-204.56"/>
<text text-anchor="middle" x="110.5" y="-217.8" font-family="Helvetica,sans-Serif" font-size="14.00">$102</text>
</g>
<!-- signer4 -->
<g id="node5" class="node">
<title>signer4</title>
<text text-anchor="middle" x="37" y="-176.3" font-family="Helvetica,sans-Serif" font-size="14.00" fill="red">signer 4</text>
</g>
<!-- signer4&#45;&gt;oracle -->
<g id="edge4" class="edge">
<title>signer4&#45;&gt;oracle</title>
<path fill="none" stroke="red" d="M74.4,-180C92.72,-180 115.51,-180 136.73,-180"/>
<polygon fill="red" stroke="red" points="137,-183.5 147,-180 137,-176.5 137,-183.5"/>
<text text-anchor="middle" x="110.5" y="-183.8" font-family="Helvetica,sans-Serif" font-size="14.00" fill="red">$0</text>
</g>
<!-- signer5 -->
<g id="node6" class="node">
<title>signer5</title>
<text text-anchor="middle" x="37" y="-122.3" font-family="Helvetica,sans-Serif" font-size="14.00" fill="red">signer 5</text>
</g>
<!-- signer5&#45;&gt;oracle -->
<g id="edge5" class="edge">
<title>signer5&#45;&gt;oracle</title>
<path fill="none" stroke="red" d="M74.4,-137.98C92.89,-144.07 115.92,-151.66 137.31,-158.7"/>
<polygon fill="red" stroke="red" points="136.41,-162.09 147,-161.89 138.59,-155.44 136.41,-162.09"/>
<text text-anchor="middle" x="110.5" y="-157.8" font-family="Helvetica,sans-Serif" font-size="14.00" fill="red">$0</text>
</g>
<!-- signer6 -->
<g id="node7" class="node">
<title>signer6</title>
<text text-anchor="middle" x="37" y="-68.3" font-family="Helvetica,sans-Serif" font-size="14.00">signer 6</text>
</g>
<!-- signer6&#45;&gt;oracle -->
<g id="edge6" class="edge">
<title>signer6&#45;&gt;oracle</title>
<path fill="none" stroke="black" d="M70.5,-90.21C88.08,-100.33 110.02,-113.4 129,-126 139.05,-132.68 149.62,-140.19 159.5,-147.44"/>
<polygon fill="black" stroke="black" points="157.49,-150.31 167.61,-153.45 161.66,-144.68 157.49,-150.31"/>
<text text-anchor="middle" x="110.5" y="-129.8" font-family="Helvetica,sans-Serif" font-size="14.00">$101</text>
</g>
<!-- signer7 -->
<g id="node8" class="node">
<title>signer7</title>
<text text-anchor="middle" x="37" y="-14.3" font-family="Helvetica,sans-Serif" font-size="14.00">signer 7</text>
</g>
<!-- signer7&#45;&gt;oracle -->
<g id="edge7" class="edge">
<title>signer7&#45;&gt;oracle</title>
<path fill="none" stroke="black" d="M68.03,-36.11C86.68,-48.13 110.52,-64.97 129,-83 148.06,-101.59 166.08,-125.45 179.45,-144.85"/>
<polygon fill="black" stroke="black" points="176.56,-146.83 185.07,-153.14 182.35,-142.9 176.56,-146.83"/>
<text text-anchor="middle" x="110.5" y="-86.8" font-family="Helvetica,sans-Serif" font-size="14.00">$102</text>
</g>
</g>
</svg>
