<?xml version="1.0" encoding="UTF-8" standalone="no"?>
<!DOCTYPE svg PUBLIC "-//W3C//DTD SVG 1.1//EN"
 "http://www.w3.org/Graphics/SVG/1.1/DTD/svg11.dtd">
<!-- Generated by graphviz version 2.43.0 (0)
 -->
<!-- Title: A Pages: 1 -->
<svg width="405pt" height="61pt"
 viewBox="0.00 0.00 405.00 61.00" xmlns="http://www.w3.org/2000/svg" xmlns:xlink="http://www.w3.org/1999/xlink">
<g id="graph0" class="graph" transform="scale(1 1) rotate(0) translate(4 57)">
<title>A</title>
<polygon fill="white" stroke="transparent" points="-4,4 -4,-57 401,-57 401,4 -4,4"/>
<!-- oracle -->
<g id="node1" class="node">
<title>oracle</title>
<polygon fill="none" stroke="black" points="304,-53 192,-53 192,0 304,0 304,-53"/>
<text text-anchor="middle" x="248" y="-37.8" font-family="Helvetica,sans-Serif" font-size="14.00">oracle</text>
<text text-anchor="middle" x="248" y="-22.8" font-family="Helvetica,sans-Serif" font-size="14.00">contract</text>
<text text-anchor="middle" x="248" y="-7.8" font-family="Helvetica,sans-Serif" font-size="14.00">priceUpdate()</text>
</g>
<!-- output -->
<g id="node3" class="node">
<title>output</title>
<text text-anchor="middle" x="369" y="-30.3" font-family="Helvetica,sans-Serif" font-size="14.00">price:</text>
<text text-anchor="middle" x="369" y="-15.3" font-family="Helvetica,sans-Serif" font-size="14.00">$100</text>
</g>
<!-- oracle&#45;&gt;output -->
<g id="edge2" class="edge">
<title>oracle&#45;&gt;output</title>
<path fill="none" stroke="black" d="M304.32,-26.5C313.28,-26.5 322.37,-26.5 330.77,-26.5"/>
<polygon fill="black" stroke="black" points="330.97,-30 340.97,-26.5 330.97,-23 330.97,-30"/>
</g>
<!-- signer -->
<g id="node2" class="node">
<title>signer</title>
<text text-anchor="middle" x="30" y="-22.8" font-family="Helvetica,sans-Serif" font-size="14.00">signer</text>
</g>
<!-- signer&#45;&gt;oracle -->
<g id="edge1" class="edge">
<title>signer&#45;&gt;oracle</title>
<path fill="none" stroke="black" d="M60.13,-26.5C91.13,-26.5 141.19,-26.5 181.69,-26.5"/>
<polygon fill="black" stroke="black" points="181.77,-30 191.77,-26.5 181.77,-23 181.77,-30"/>
<text text-anchor="middle" x="126" y="-30.3" font-family="Helvetica,sans-Serif" font-size="14.00">update($100)</text>
</g>
</g>
</svg>
