<?xml version='1.0' encoding='UTF-8' standalone='no'?>
<svg xmlns="http://www.w3.org/2000/svg" height="375pt" width="500pt" xmlns:xlink="http://www.w3.org/1999/xlink" viewBox="0 0 500 375">
 <title>gl2ps_renderer figure</title>
 <desc>
Creator: GL2PS 1.4.2, (C) 1999-2020 C. Geuzaine
For: Octave
CreationDate: Thu Jan 26 22:45:54 2023
</desc>
 <defs/>
 <polygon points="0,0 500,0 500,375 0,375" fill="#ffffff"/>
 <g>
  <polygon points="0,375 500,375 500,0 0,0" shape-rendering="crispEdges" fill="#ffffff"/>
  <clipPath id="cp00500375">
   <polygon points="0,375 500,375 500,0 0,0"/>
  </clipPath>
  <g clip-path="url(#cp00500375)">
   <polygon points="65.1187,334.358 453.325,334.358 453.325,28.1763 65.1187,28.1763" shape-rendering="crispEdges" fill="#ffffff"/>
   <polyline points="65.1187,334.358 65.1187,28.1763" stroke-width="0.5" stroke-dasharray="16,0" stroke-linejoin="miter" stroke-linecap="butt" fill="none" stroke="#262626" stroke-opacity="0.15"/>
   <polyline points="120.577,334.358 120.577,28.1763" stroke-width="0.5" stroke-dasharray="16,0" stroke-linejoin="miter" stroke-linecap="butt" fill="none" stroke="#262626" stroke-opacity="0.15"/>
   <polyline points="176.035,334.358 176.035,28.1763" stroke-width="0.5" stroke-dasharray="16,0" stroke-linejoin="miter" stroke-linecap="butt" fill="none" stroke="#262626" stroke-opacity="0.15"/>
   <polyline points="231.493,334.358 231.493,28.1763" stroke-width="0.5" stroke-dasharray="16,0" stroke-linejoin="miter" stroke-linecap="butt" fill="none" stroke="#262626" stroke-opacity="0.15"/>
   <polyline points="286.951,334.358 286.951,28.1763" stroke-width="0.5" stroke-dasharray="16,0" stroke-linejoin="miter" stroke-linecap="butt" fill="none" stroke="#262626" stroke-opacity="0.15"/>
   <polyline points="342.409,334.358 342.409,28.1763" stroke-width="0.5" stroke-dasharray="16,0" stroke-linejoin="miter" stroke-linecap="butt" fill="none" stroke="#262626" stroke-opacity="0.15"/>
   <polyline points="397.867,334.358 397.867,28.1763" stroke-width="0.5" stroke-dasharray="16,0" stroke-linejoin="miter" stroke-linecap="butt" fill="none" stroke="#262626" stroke-opacity="0.15"/>
   <polyline points="453.325,334.358 453.325,28.1763" stroke-width="0.5" stroke-dasharray="16,0" stroke-linejoin="miter" stroke-linecap="butt" fill="none" stroke="#262626" stroke-opacity="0.15"/>
   <polyline points="65.1187,334.358 65.1187,330.474" stroke-width="0.5" stroke-linejoin="miter" stroke-linecap="butt" fill="none" stroke="#262626"/>
   <polyline points="65.1187,28.1763 65.1187,32.0605" stroke-width="0.5" stroke-linejoin="miter" stroke-linecap="butt" fill="none" stroke="#262626"/>
   <polyline points="120.577,334.358 120.577,330.474" stroke-width="0.5" stroke-linejoin="miter" stroke-linecap="butt" fill="none" stroke="#262626"/>
   <polyline points="120.577,28.1763 120.577,32.0605" stroke-width="0.5" stroke-linejoin="miter" stroke-linecap="butt" fill="none" stroke="#262626"/>
   <polyline points="176.035,334.358 176.035,330.474" stroke-width="0.5" stroke-linejoin="miter" stroke-linecap="butt" fill="none" stroke="#262626"/>
   <polyline points="176.035,28.1763 176.035,32.0605" stroke-width="0.5" stroke-linejoin="miter" stroke-linecap="butt" fill="none" stroke="#262626"/>
   <polyline points="231.493,334.358 231.493,330.474" stroke-width="0.5" stroke-linejoin="miter" stroke-linecap="butt" fill="none" stroke="#262626"/>
   <polyline points="231.493,28.1763 231.493,32.0605" stroke-width="0.5" stroke-linejoin="miter" stroke-linecap="butt" fill="none" stroke="#262626"/>
   <polyline points="286.951,334.358 286.951,330.474" stroke-width="0.5" stroke-linejoin="miter" stroke-linecap="butt" fill="none" stroke="#262626"/>
   <polyline points="286.951,28.1763 286.951,32.0605" stroke-width="0.5" stroke-linejoin="miter" stroke-linecap="butt" fill="none" stroke="#262626"/>
   <polyline points="342.409,334.358 342.409,330.474" stroke-width="0.5" stroke-linejoin="miter" stroke-linecap="butt" fill="none" stroke="#262626"/>
   <polyline points="342.409,28.1763 342.409,32.0605" stroke-width="0.5" stroke-linejoin="miter" stroke-linecap="butt" fill="none" stroke="#262626"/>
   <polyline points="397.867,334.358 397.867,330.474" stroke-width="0.5" stroke-linejoin="miter" stroke-linecap="butt" fill="none" stroke="#262626"/>
   <polyline points="397.867,28.1763 397.867,32.0605" stroke-width="0.5" stroke-linejoin="miter" stroke-linecap="butt" fill="none" stroke="#262626"/>
   <polyline points="453.325,334.358 453.325,330.474" stroke-width="0.5" stroke-linejoin="miter" stroke-linecap="butt" fill="none" stroke="#262626"/>
   <polyline points="453.325,28.1763 453.325,32.0605" stroke-width="0.5" stroke-linejoin="miter" stroke-linecap="butt" fill="none" stroke="#262626"/>
   <text font-family="FreeSans" font-weight="normal" xml:space="preserve" transform="translate(60.6184,349.863) rotate(-0,4.5,-8)" font-size="10" font-style="normal">
    <tspan x="0 3 " fill="rgb(38,38,38)" y="-0">-3</tspan>
   </text>
   <text font-family="FreeSans" font-weight="normal" xml:space="preserve" transform="translate(116.076,349.863) rotate(-0,4.5,-8)" font-size="10" font-style="normal">
    <tspan x="0 3 " fill="rgb(38,38,38)" y="-0">-2</tspan>
   </text>
   <text font-family="FreeSans" font-weight="normal" xml:space="preserve" transform="translate(171.534,349.863) rotate(-0,4.5,-8)" font-size="10" font-style="normal">
    <tspan x="0 3 " fill="rgb(38,38,38)" y="-0">-1</tspan>
   </text>
   <text font-family="FreeSans" font-weight="normal" xml:space="preserve" transform="translate(228.492,349.863) rotate(-0,3,-8)" font-size="10" font-style="normal">
    <tspan x="0 " fill="rgb(38,38,38)" y="-0">0</tspan>
   </text>
   <text font-family="FreeSans" font-weight="normal" xml:space="preserve" transform="translate(283.951,349.863) rotate(-0,3,-8)" font-size="10" font-style="normal">
    <tspan x="0 " fill="rgb(38,38,38)" y="-0">1</tspan>
   </text>
   <text font-family="FreeSans" font-weight="normal" xml:space="preserve" transform="translate(339.409,349.863) rotate(-0,3,-8)" font-size="10" font-style="normal">
    <tspan x="0 " fill="rgb(38,38,38)" y="-0">2</tspan>
   </text>
   <text font-family="FreeSans" font-weight="normal" xml:space="preserve" transform="translate(394.867,349.863) rotate(-0,3,-8)" font-size="10" font-style="normal">
    <tspan x="0 " fill="rgb(38,38,38)" y="-0">3</tspan>
   </text>
   <text font-family="FreeSans" font-weight="normal" xml:space="preserve" transform="translate(450.325,349.863) rotate(-0,3,-8)" font-size="10" font-style="normal">
    <tspan x="0 " fill="rgb(38,38,38)" y="-0">4</tspan>
   </text>
   <polyline points="65.1187,334.358 453.325,334.358" stroke-width="0.5" stroke-dasharray="16,0" stroke-linejoin="miter" stroke-linecap="butt" fill="none" stroke="#262626" stroke-opacity="0.15"/>
   <polyline points="65.1187,283.328 453.325,283.328" stroke-width="0.5" stroke-dasharray="16,0" stroke-linejoin="miter" stroke-linecap="butt" fill="none" stroke="#262626" stroke-opacity="0.15"/>
   <polyline points="65.1187,232.297 453.325,232.297" stroke-width="0.5" stroke-dasharray="16,0" stroke-linejoin="miter" stroke-linecap="butt" fill="none" stroke="#262626" stroke-opacity="0.15"/>
   <polyline points="65.1187,181.267 453.325,181.267" stroke-width="0.5" stroke-dasharray="16,0" stroke-linejoin="miter" stroke-linecap="butt" fill="none" stroke="#262626" stroke-opacity="0.15"/>
   <polyline points="65.1187,130.237 453.325,130.237" stroke-width="0.5" stroke-dasharray="16,0" stroke-linejoin="miter" stroke-linecap="butt" fill="none" stroke="#262626" stroke-opacity="0.15"/>
   <polyline points="65.1187,79.2065 453.325,79.2065" stroke-width="0.5" stroke-dasharray="16,0" stroke-linejoin="miter" stroke-linecap="butt" fill="none" stroke="#262626" stroke-opacity="0.15"/>
   <polyline points="65.1187,28.1763 453.325,28.1763" stroke-width="0.5" stroke-dasharray="16,0" stroke-linejoin="miter" stroke-linecap="butt" fill="none" stroke="#262626" stroke-opacity="0.15"/>
   <polyline points="65.1187,334.358 69.0024,334.358" stroke-width="0.5" stroke-linejoin="miter" stroke-linecap="butt" fill="none" stroke="#262626"/>
   <polyline points="453.325,334.358 449.44,334.358" stroke-width="0.5" stroke-linejoin="miter" stroke-linecap="butt" fill="none" stroke="#262626"/>
   <polyline points="65.1187,283.328 69.0024,283.328" stroke-width="0.5" stroke-linejoin="miter" stroke-linecap="butt" fill="none" stroke="#262626"/>
   <polyline points="453.325,283.328 449.44,283.328" stroke-width="0.5" stroke-linejoin="miter" stroke-linecap="butt" fill="none" stroke="#262626"/>
   <polyline points="65.1187,232.297 69.0024,232.297" stroke-width="0.5" stroke-linejoin="miter" stroke-linecap="butt" fill="none" stroke="#262626"/>
   <polyline points="453.325,232.297 449.44,232.297" stroke-width="0.5" stroke-linejoin="miter" stroke-linecap="butt" fill="none" stroke="#262626"/>
   <polyline points="65.1187,181.267 69.0024,181.267" stroke-width="0.5" stroke-linejoin="miter" stroke-linecap="butt" fill="none" stroke="#262626"/>
   <polyline points="453.325,181.267 449.44,181.267" stroke-width="0.5" stroke-linejoin="miter" stroke-linecap="butt" fill="none" stroke="#262626"/>
   <polyline points="65.1187,130.237 69.0024,130.237" stroke-width="0.5" stroke-linejoin="miter" stroke-linecap="butt" fill="none" stroke="#262626"/>
   <polyline points="453.325,130.237 449.44,130.237" stroke-width="0.5" stroke-linejoin="miter" stroke-linecap="butt" fill="none" stroke="#262626"/>
   <polyline points="65.1187,79.2065 69.0024,79.2065" stroke-width="0.5" stroke-linejoin="miter" stroke-linecap="butt" fill="none" stroke="#262626"/>
   <polyline points="453.325,79.2065 449.44,79.2065" stroke-width="0.5" stroke-linejoin="miter" stroke-linecap="butt" fill="none" stroke="#262626"/>
   <polyline points="65.1187,28.1763 69.0024,28.1763" stroke-width="0.5" stroke-linejoin="miter" stroke-linecap="butt" fill="none" stroke="#262626"/>
   <polyline points="453.325,28.1763 449.44,28.1763" stroke-width="0.5" stroke-linejoin="miter" stroke-linecap="butt" fill="none" stroke="#262626"/>
   <text font-family="FreeSans" font-weight="normal" xml:space="preserve" transform="translate(51.1158,338.358) rotate(-0,9,-4)" font-size="10" font-style="normal">
    <tspan x="0 3 " fill="rgb(38,38,38)" y="-0">-6</tspan>
   </text>
   <text font-family="FreeSans" font-weight="normal" xml:space="preserve" transform="translate(51.1158,287.328) rotate(-0,9,-4)" font-size="10" font-style="normal">
    <tspan x="0 3 " fill="rgb(38,38,38)" y="-0">-4</tspan>
   </text>
   <text font-family="FreeSans" font-weight="normal" xml:space="preserve" transform="translate(51.1158,236.298) rotate(-0,9,-4)" font-size="10" font-style="normal">
    <tspan x="0 3 " fill="rgb(38,38,38)" y="-0">-2</tspan>
   </text>
   <text font-family="FreeSans" font-weight="normal" xml:space="preserve" transform="translate(54.1158,185.267) rotate(-0,6,-4)" font-size="10" font-style="normal">
    <tspan x="0 " fill="rgb(38,38,38)" y="-0">0</tspan>
   </text>
   <text font-family="FreeSans" font-weight="normal" xml:space="preserve" transform="translate(54.1158,134.237) rotate(-0,6,-4)" font-size="10" font-style="normal">
    <tspan x="0 " fill="rgb(38,38,38)" y="-0">2</tspan>
   </text>
   <text font-family="FreeSans" font-weight="normal" xml:space="preserve" transform="translate(54.1158,83.2066) rotate(-0,6,-4)" font-size="10" font-style="normal">
    <tspan x="0 " fill="rgb(38,38,38)" y="-0">4</tspan>
   </text>
   <text font-family="FreeSans" font-weight="normal" xml:space="preserve" transform="translate(54.1158,32.1763) rotate(-0,6,-4)" font-size="10" font-style="normal">
    <tspan x="0 " fill="rgb(38,38,38)" y="-0">6</tspan>
   </text>
   <polyline points="65.1187,334.358 453.325,334.358" stroke-width="0.5" stroke-dasharray="16,0" stroke-linejoin="miter" stroke-linecap="square" fill="none" stroke="#262626"/>
   <polyline points="65.1187,28.1763 453.325,28.1763" stroke-width="0.5" stroke-dasharray="16,0" stroke-linejoin="miter" stroke-linecap="square" fill="none" stroke="#262626"/>
   <polyline points="65.1187,334.358 65.1187,28.1763" stroke-width="0.5" stroke-dasharray="16,0" stroke-linejoin="miter" stroke-linecap="square" fill="none" stroke="#262626"/>
   <polyline points="453.325,334.358 453.325,28.1763" stroke-width="0.5" stroke-dasharray="16,0" stroke-linejoin="miter" stroke-linecap="square" fill="none" stroke="#262626"/>
   <text font-family="FreeSans" font-weight="bold" xml:space="preserve" transform="translate(231.722,18.1763) rotate(-0,27.5,0)" font-size="11" font-style="normal">
    <tspan x="0 6 12 18 25 31 37 43 49 " fill="rgb(0,0,0)" y="-3">secp256k1</tspan>
   </text>
   <polyline points="125.405,181.267 125.959,172.835 126.514,169.374 127.069,166.739 127.624,164.536 128.178,162.61 128.732,160.883 129.287,159.308 129.842,157.854 130.396,156.5 130.951,155.229 131.505,154.031 132.06,152.896 132.615,151.816 133.169,150.786 133.724,149.8 134.278,148.855 134.833,147.948 135.388,147.074 135.942,146.231 136.497,145.418 137.051,144.632 137.606,143.872 138.161,143.135 138.715,142.421 139.27,141.728 139.824,141.054 140.379,140.4 140.934,139.764 141.488,139.145 142.042,138.542 142.597,137.956 143.152,137.384 143.706,136.826 144.261,136.282 144.815,135.752 145.37,135.234 145.925,134.729 146.479,134.235 147.034,133.752 147.588,133.281 148.143,132.821 148.697,132.371 149.252,131.931 149.807,131.5 150.361,131.079 150.916,130.667 151.47,130.264 152.025,129.87 152.58,129.484 153.134,129.106 153.688,128.736 154.243,128.374 154.798,128.02 155.353,127.672 155.907,127.333 156.461,127 157.016,126.674 157.571,126.354 158.125,126.042 158.68,125.736 159.234,125.436 159.789,125.142 160.344,124.854 160.898,124.572 161.453,124.295 162.007,124.025 162.562,123.76 163.117,123.5 163.671,123.246 164.226,122.997 164.78,122.753 165.335,122.514 165.89,122.28 166.444,122.05 166.999,121.826 167.553,121.606 168.108,121.391 168.663,121.18 169.217,120.974 169.771,120.771 170.326,120.574 170.881,120.38 171.435,120.19 171.99,120.005 172.544,119.823 173.099,119.646 173.654,119.472 174.208,119.302 174.763,119.136 175.317,118.973 175.872,118.814 176.426,118.659 176.981,118.506 177.536,118.358 178.09,118.212 178.645,118.071 179.199,117.932 179.754,117.796 180.309,117.664 180.863,117.535 181.417,117.409 181.972,117.286 182.527,117.165 183.082,117.048 183.636,116.934 184.19,116.822 184.745,116.713 185.3,116.607 185.854,116.503 186.409,116.403 186.963,116.304 187.518,116.209 188.073,116.116 188.627,116.025 189.182,115.937 189.736,115.851 190.291,115.768 190.846,115.687 191.4,115.607 191.955,115.531 192.509,115.457 193.064,115.384 193.619,115.314 194.173,115.246 194.728,115.18 195.282,115.116 195.837,115.054 196.392,114.994 196.946,114.936 197.5,114.88 198.055,114.826 198.61,114.773 199.164,114.723 199.719,114.673 200.273,114.626 200.828,114.581 201.383,114.537 201.937,114.494 202.492,114.454 203.046,114.415 203.601,114.376 204.155,114.34 204.71,114.306 205.265,114.272 205.819,114.241 206.374,114.21 206.928,114.181 207.483,114.153 208.038,114.126 208.592,114.101 209.146,114.077 209.701,114.054 210.256,114.032 210.811,114.011 211.365,113.991 211.919,113.973 212.474,113.955 213.029,113.938 213.583,113.923 214.138,113.908 214.692,113.895 215.247,113.882 215.802,113.87 216.356,113.858 216.911,113.848 217.465,113.838 218.02,113.83 218.575,113.821 219.129,113.814 219.684,113.807 220.238,113.801 220.793,113.795 221.348,113.79 221.902,113.785 222.457,113.781 223.011,113.778 223.566,113.774 224.121,113.772 224.675,113.77 225.229,113.768 225.784,113.766 226.339,113.764 226.893,113.763 227.448,113.762 228.002,113.762 228.557,113.761 229.112,113.761 229.666,113.761 230.221,113.76 230.775,113.76 231.33,113.76 231.884,113.76 232.439,113.76 232.994,113.76 233.548,113.76 234.103,113.76 234.657,113.76 235.212,113.759 235.767,113.758 236.321,113.757 236.875,113.756 237.43,113.754 237.985,113.753 238.54,113.75 239.094,113.748 239.648,113.745 240.203,113.742 240.758,113.738 241.312,113.734 241.867,113.729 242.421,113.724 242.976,113.718 243.531,113.711 244.085,113.704 244.64,113.696 245.194,113.688 245.749,113.679 246.304,113.668 246.858,113.658 247.413,113.646 247.967,113.634 248.522,113.621 249.077,113.607 249.631,113.592 250.186,113.576 250.74,113.559 251.295,113.542 251.85,113.522 252.404,113.502 252.958,113.481 253.513,113.459 254.068,113.436 254.622,113.412 255.177,113.386 255.731,113.359 256.286,113.331 256.841,113.302 257.395,113.271 257.95,113.239 258.504,113.206 259.059,113.171 259.613,113.135 260.168,113.097 260.723,113.058 261.277,113.018 261.832,112.976 262.386,112.932 262.941,112.887 263.496,112.84 264.05,112.792 264.605,112.742 265.159,112.69 265.714,112.637 266.269,112.582 266.823,112.525 267.377,112.466 267.932,112.406 268.487,112.344 269.042,112.28 269.596,112.214 270.15,112.146 270.705,112.077 271.26,112.005 271.814,111.932 272.369,111.856 272.923,111.779 273.478,111.7 274.033,111.618 274.587,111.535 275.142,111.449 275.696,111.361 276.251,111.271 276.806,111.18 277.36,111.085 277.915,110.989 278.469,110.891 279.024,110.79 279.579,110.687 280.133,110.582 280.688,110.475 281.242,110.365 281.797,110.253 282.351,110.139 282.906,110.022 283.46,109.903 284.015,109.782 284.57,109.658 285.124,109.532 285.679,109.403 286.233,109.272 286.788,109.139 287.343,109.003 287.897,108.865 288.452,108.724 289.006,108.581 289.561,108.435 290.115,108.287 290.67,108.136 291.225,107.983 291.779,107.827 292.334,107.668 292.888,107.507 293.443,107.344 293.998,107.178 294.552,107.009 295.106,106.838 295.661,106.664 296.216,106.487 296.771,106.308 297.325,106.126 297.879,105.942 298.434,105.755 298.989,105.565 299.543,105.373 300.098,105.178 300.652,104.98 301.207,104.779 301.762,104.576 302.316,104.371 302.871,104.162 303.425,103.951 303.98,103.737 304.535,103.521 305.089,103.301 305.644,103.08 306.198,102.854 306.753,102.627 307.308,102.397 307.862,102.165 308.417,101.929 308.971,101.691 309.526,101.45 310.08,101.207 310.635,100.96 311.189,100.711 311.744,100.459 312.299,100.205 312.853,99.9482 313.408,99.688 313.962,99.4258 314.517,99.1606 315.072,98.8926 315.626,98.6221 316.181,98.3486 316.735,98.0728 317.29,97.7939 317.844,97.5127 318.399,97.2285 318.954,96.9419 319.508,96.6528 320.063,96.3608 320.617,96.0659 321.172,95.7686 321.727,95.4688 322.281,95.166 322.835,94.8608 323.39,94.5527 323.945,94.2422 324.5,93.9292 325.054,93.6133 325.608,93.2949 326.163,92.9741 326.718,92.6504 327.272,92.3242 327.827,91.9951 328.381,91.6641 328.936,91.3301 329.491,90.9937 330.045,90.6543 330.6,90.313 331.154,89.9688 331.709,89.6221 332.264,89.2729 332.818,88.9209 333.373,88.5669 333.927,88.21 334.482,87.8506 335.037,87.4888 335.591,87.125 336.146,86.7578 336.7,86.3887 337.255,86.0171 337.81,85.6431 338.364,85.2666 338.918,84.8877 339.473,84.5063 340.028,84.1226 340.582,83.7363 341.137,83.3477 341.691,82.9565 342.246,82.563 342.801,82.1675 343.355,81.769 343.91,81.3687 344.464,80.9658 345.019,80.5605 345.573,80.1533 346.128,79.7437 346.683,79.3311 347.237,78.917 347.792,78.5 348.346,78.0811 348.901,77.6597 349.456,77.2363 350.01,76.8105 350.564,76.3823 351.119,75.9521 351.674,75.5195 352.229,75.0845 352.783,74.6475 353.337,74.2085 353.892,73.7671 354.447,73.3232 355.001,72.8774 355.556,72.4297 356.11,71.9795 356.665,71.5273 357.22,71.0728 357.774,70.6162 358.329,70.1577 358.883,69.6968 359.438,69.2339 359.993,68.769 360.547,68.3018 361.102,67.833 361.656,67.3618 362.211,66.8882 362.766,66.4131 363.32,65.9355 363.875,65.4561 364.429,64.9746 364.984,64.4912 365.538,64.0054 366.093,63.5181 366.647,63.0283 367.202,62.5371 367.757,62.0435 368.311,61.5479 368.866,61.0503 369.42,60.5513 369.975,60.0498 370.53,59.5464 371.084,59.041 371.639,58.5342 372.193,58.0249 372.748,57.5142 373.302,57.001 373.857,56.4863 374.412,55.9697 374.966,55.4512 375.521,54.9307 376.075,54.4087 376.63,53.8843 377.185,53.3584 377.739,52.8306 378.293,52.3008 378.848,51.7695 379.403,51.2363 379.958,50.7012 380.512,50.1641 381.066,49.6255 381.621,49.085 382.176,48.5425 382.73,47.9985 383.285,47.4526 383.839,46.9053 384.394,46.356 384.949,45.8047 385.503,45.252 386.058,44.6973 386.612,44.1411 387.167,43.583 387.722,43.0234 388.276,42.4619 388.831,41.8989 389.385,41.334 389.94,40.7676 390.495,40.1992 391.049,39.6294 391.604,39.0576 392.158,38.4844 392.713,37.9097 393.268,37.333 393.822,36.7549 394.376,36.1753 394.931,35.5938 395.486,35.0107 396.04,34.4263 396.595,33.8398 397.149,33.252 397.704,32.6626 398.259,32.0718 398.813,31.479 399.368,30.8848 399.922,30.2891 400.477,29.6914 401.031,29.0923 401.586,28.4922 402.141,27.8901 402.159,27.8701" stroke-width="0.5" stroke-linejoin="round" stroke-linecap="butt" fill="none" stroke="#0000ff"/>
   <polyline points="125.405,181.267 125.959,189.699 126.514,193.161 127.069,195.795 127.624,197.999 128.178,199.924 128.732,201.651 129.287,203.226 129.842,204.68 130.396,206.035 130.951,207.305 131.505,208.503 132.06,209.639 132.615,210.719 133.169,211.749 133.724,212.734 134.278,213.679 134.833,214.587 135.388,215.46 135.942,216.303 136.497,217.116 137.051,217.902 137.606,218.663 138.161,219.399 138.715,220.114 139.27,220.807 139.824,221.48 140.379,222.134 140.934,222.771 141.488,223.389 142.042,223.992 142.597,224.579 143.152,225.151 143.706,225.708 144.261,226.252 144.815,226.783 145.37,227.3 145.925,227.806 146.479,228.3 147.034,228.782 147.588,229.253 148.143,229.713 148.697,230.164 149.252,230.604 149.807,231.035 150.361,231.456 150.916,231.867 151.47,232.271 152.025,232.665 152.58,233.051 153.134,233.428 153.688,233.798 154.243,234.16 154.798,234.515 155.353,234.862 155.907,235.202 156.461,235.535 157.016,235.86 157.571,236.18 158.125,236.493 158.68,236.799 159.234,237.099 159.789,237.393 160.344,237.681 160.898,237.962 161.453,238.239 162.007,238.509 162.562,238.774 163.117,239.034 163.671,239.289 164.226,239.538 164.78,239.782 165.335,240.021 165.89,240.255 166.444,240.484 166.999,240.708 167.553,240.928 168.108,241.144 168.663,241.354 169.217,241.561 169.771,241.763 170.326,241.961 170.881,242.154 171.435,242.344 171.99,242.529 172.544,242.711 173.099,242.889 173.654,243.062 174.208,243.232 174.763,243.398 175.317,243.562 175.872,243.72 176.426,243.876 176.981,244.028 177.536,244.177 178.09,244.322 178.645,244.464 179.199,244.603 179.754,244.738 180.309,244.87 180.863,245 181.417,245.126 181.972,245.249 182.527,245.369 183.082,245.486 183.636,245.601 184.19,245.712 184.745,245.821 185.3,245.928 185.854,246.031 186.409,246.132 186.963,246.23 187.518,246.326 188.073,246.419 188.627,246.509 189.182,246.598 189.736,246.684 190.291,246.767 190.846,246.848 191.4,246.927 191.955,247.003 192.509,247.078 193.064,247.15 193.619,247.22 194.173,247.288 194.728,247.354 195.282,247.418 195.837,247.48 196.392,247.54 196.946,247.598 197.5,247.654 198.055,247.708 198.61,247.761 199.164,247.812 199.719,247.861 200.273,247.908 200.828,247.954 201.383,247.998 201.937,248.04 202.492,248.081 203.046,248.12 203.601,248.158 204.155,248.194 204.71,248.229 205.265,248.262 205.819,248.294 206.374,248.324 206.928,248.354 207.483,248.381 208.038,248.408 208.592,248.434 209.146,248.458 209.701,248.481 210.256,248.502 210.811,248.523 211.365,248.543 211.919,248.562 212.474,248.579 213.029,248.596 213.583,248.611 214.138,248.626 214.692,248.64 215.247,248.653 215.802,248.665 216.356,248.676 216.911,248.686 217.465,248.696 218.02,248.705 218.575,248.713 219.129,248.721 219.684,248.728 220.238,248.734 220.793,248.739 221.348,248.745 221.902,248.749 222.457,248.753 223.011,248.757 223.566,248.76 224.121,248.763 224.675,248.765 225.229,248.767 225.784,248.769 226.339,248.77 226.893,248.771 227.448,248.772 228.002,248.773 228.557,248.773 229.112,248.773 229.666,248.774 230.221,248.774 230.775,248.774 231.33,248.774 231.884,248.774 232.439,248.774 232.994,248.774 233.548,248.774 234.103,248.774 234.657,248.775 235.212,248.775 235.767,248.776 236.321,248.777 236.875,248.778 237.43,248.78 237.985,248.782 238.54,248.784 239.094,248.787 239.648,248.79 240.203,248.792 240.758,248.796 241.312,248.801 241.867,248.806 242.421,248.811 242.976,248.817 243.531,248.823 244.085,248.831 244.64,248.838 245.194,248.847 245.749,248.856 246.304,248.866 246.858,248.876 247.413,248.888 247.967,248.9 248.522,248.914 249.077,248.928 249.631,248.942 250.186,248.958 250.74,248.975 251.295,248.993 251.85,249.012 252.404,249.032 252.958,249.053 253.513,249.075 254.068,249.099 254.622,249.123 255.177,249.148 255.731,249.175 256.286,249.204 256.841,249.233 257.395,249.264 257.95,249.295 258.504,249.329 259.059,249.364 259.613,249.4 260.168,249.438 260.723,249.477 261.277,249.517 261.832,249.559 262.386,249.603 262.941,249.647 263.496,249.694 264.05,249.743 264.605,249.792 265.159,249.844 265.714,249.897 266.269,249.953 266.823,250.009 267.377,250.068 267.932,250.128 268.487,250.19 269.042,250.254 269.596,250.32 270.15,250.388 270.705,250.458 271.26,250.529 271.814,250.603 272.369,250.678 272.923,250.755 273.478,250.835 274.033,250.917 274.587,251 275.142,251.085 275.696,251.173 276.251,251.263 276.806,251.355 277.36,251.449 277.915,251.545 278.469,251.644 279.024,251.744 279.579,251.847 280.133,251.953 280.688,252.06 281.242,252.169 281.797,252.282 282.351,252.396 282.906,252.512 283.46,252.631 284.015,252.753 284.57,252.876 285.124,253.002 285.679,253.131 286.233,253.262 286.788,253.396 287.343,253.531 287.897,253.669 288.452,253.81 289.006,253.954 289.561,254.099 290.115,254.248 290.67,254.398 291.225,254.552 291.779,254.708 292.334,254.866 292.888,255.027 293.443,255.19 293.998,255.356 294.552,255.525 295.106,255.697 295.661,255.871 296.216,256.047 296.771,256.226 297.325,256.408 297.879,256.593 298.434,256.78 298.989,256.969 299.543,257.162 300.098,257.357 300.652,257.555 301.207,257.755 301.762,257.958 302.316,258.164 302.871,258.373 303.425,258.583 303.98,258.797 304.535,259.014 305.089,259.233 305.644,259.455 306.198,259.68 306.753,259.907 307.308,260.137 307.862,260.37 308.417,260.605 308.971,260.843 309.526,261.084 310.08,261.328 310.635,261.574 311.189,261.823 311.744,262.075 312.299,262.329 312.853,262.586 313.408,262.846 313.962,263.109 314.517,263.374 315.072,263.642 315.626,263.913 316.181,264.186 316.735,264.462 317.29,264.74 317.844,265.021 318.399,265.306 318.954,265.592 319.508,265.882 320.063,266.174 320.617,266.468 321.172,266.766 321.727,267.066 322.281,267.369 322.835,267.674 323.39,267.981 323.945,268.292 324.5,268.605 325.054,268.921 325.608,269.24 326.163,269.561 326.718,269.884 327.272,270.21 327.827,270.539 328.381,270.871 328.936,271.205 329.491,271.541 330.045,271.88 330.6,272.222 331.154,272.566 331.709,272.913 332.264,273.262 332.818,273.613 333.373,273.968 333.927,274.324 334.482,274.684 335.037,275.045 335.591,275.41 336.146,275.776 336.7,276.146 337.255,276.517 337.81,276.891 338.364,277.268 338.918,277.647 339.473,278.028 340.028,278.412 340.582,278.798 341.137,279.187 341.691,279.578 342.246,279.971 342.801,280.367 343.355,280.765 343.91,281.166 344.464,281.568 345.019,281.974 345.573,282.381 346.128,282.791 346.683,283.203 347.237,283.618 347.792,284.034 348.346,284.453 348.901,284.875 349.456,285.298 350.01,285.724 350.564,286.152 351.119,286.583 351.674,287.015 352.229,287.45 352.783,287.887 353.337,288.326 353.892,288.768 354.447,289.211 355.001,289.657 355.556,290.104 356.11,290.555 356.665,291.007 357.22,291.461 357.774,291.918 358.329,292.376 358.883,292.837 359.438,293.3 359.993,293.765 360.547,294.232 361.102,294.702 361.656,295.173 362.211,295.646 362.766,296.122 363.32,296.599 363.875,297.078 364.429,297.56 364.984,298.043 365.538,298.529 366.093,299.017 366.647,299.506 367.202,299.998 367.757,300.491 368.311,300.986 368.866,301.484 369.42,301.983 369.975,302.485 370.53,302.988 371.084,303.493 371.639,304 372.193,304.509 372.748,305.021 373.302,305.533 373.857,306.048 374.412,306.564 374.966,307.083 375.521,307.604 376.075,308.126 376.63,308.65 377.185,309.176 377.739,309.704 378.293,310.233 378.848,310.765 379.403,311.298 379.958,311.833 380.512,312.37 381.066,312.909 381.621,313.45 382.176,313.992 382.73,314.536 383.285,315.082 383.839,315.629 384.394,316.179 384.949,316.729 385.503,317.283 386.058,317.837 386.612,318.394 387.167,318.951 387.722,319.511 388.276,320.073 388.831,320.636 389.385,321.201 389.94,321.767 390.495,322.335 391.049,322.905 391.604,323.477 392.158,324.05 392.713,324.625 393.268,325.201 393.822,325.779 394.376,326.359 394.931,326.94 395.486,327.523 396.04,328.108 396.595,328.694 397.149,329.282 397.704,329.872 398.259,330.463 398.813,331.056 399.368,331.65 399.922,332.246 400.477,332.843 401.031,333.442 401.586,334.042 402.141,334.645 402.159,334.665" stroke-width="0.5" stroke-linejoin="round" stroke-linecap="butt" fill="none" stroke="#0000ff"/>
   <polyline points="228.493,113.76 234.493,113.76" stroke-width="0.5" stroke-linejoin="miter" stroke-linecap="square" fill="none" stroke="#ff0000"/>
   <polyline points="231.493,110.76 231.493,116.76" stroke-width="0.5" stroke-linejoin="miter" stroke-linecap="square" fill="none" stroke="#ff0000"/>
   <polyline points="229.371,111.639 233.614,115.882" stroke-width="0.5" stroke-linejoin="miter" stroke-linecap="square" fill="none" stroke="#ff0000"/>
   <polyline points="229.371,115.882 233.614,111.639" stroke-width="0.5" stroke-linejoin="miter" stroke-linecap="square" fill="none" stroke="#ff0000"/>
   <polyline points="131.441,148.585 137.441,148.585" stroke-width="0.5" stroke-linejoin="miter" stroke-linecap="square" fill="none" stroke="#ff0000"/>
   <polyline points="134.441,145.585 134.441,151.585" stroke-width="0.5" stroke-linejoin="miter" stroke-linecap="square" fill="none" stroke="#ff0000"/>
   <polyline points="132.32,146.464 136.562,150.707" stroke-width="0.5" stroke-linejoin="miter" stroke-linecap="square" fill="none" stroke="#ff0000"/>
   <polyline points="132.32,150.707 136.562,146.464" stroke-width="0.5" stroke-linejoin="miter" stroke-linecap="square" fill="none" stroke="#ff0000"/>
   <polyline points="228.493,248.774 234.493,248.774" stroke-width="0.5" stroke-linejoin="miter" stroke-linecap="square" fill="none" stroke="#ff0000"/>
   <polyline points="231.493,245.774 231.493,251.774" stroke-width="0.5" stroke-linejoin="miter" stroke-linecap="square" fill="none" stroke="#ff0000"/>
   <polyline points="229.371,246.653 233.614,250.896" stroke-width="0.5" stroke-linejoin="miter" stroke-linecap="square" fill="none" stroke="#ff0000"/>
   <polyline points="229.371,250.896 233.614,246.653" stroke-width="0.5" stroke-linejoin="miter" stroke-linecap="square" fill="none" stroke="#ff0000"/>
   <polyline points="131.441,213.949 137.441,213.949" stroke-width="0.5" stroke-linejoin="miter" stroke-linecap="square" fill="none" stroke="#ff0000"/>
   <polyline points="134.441,210.949 134.441,216.949" stroke-width="0.5" stroke-linejoin="miter" stroke-linecap="square" fill="none" stroke="#ff0000"/>
   <polyline points="132.32,211.828 136.562,216.07" stroke-width="0.5" stroke-linejoin="miter" stroke-linecap="square" fill="none" stroke="#ff0000"/>
   <polyline points="132.32,216.07 136.562,211.828" stroke-width="0.5" stroke-linejoin="miter" stroke-linecap="square" fill="none" stroke="#ff0000"/>
   <text font-family="FreeSans" font-weight="normal" xml:space="preserve" transform="translate(137.214,160.252) rotate(-0,-0,-4.5)" font-size="10" font-style="normal">
    <tspan x="0 " fill="rgb(0,0,0)" y="-0">A</tspan>
   </text>
   <text font-family="FreeSans" font-weight="normal" xml:space="preserve" transform="translate(220.401,109.222) rotate(-0,-0,-4.5)" font-size="10" font-style="normal">
    <tspan x="0 " fill="rgb(0,0,0)" y="-0">B</tspan>
   </text>
   <text font-family="FreeSans" font-weight="normal" xml:space="preserve" transform="translate(137.214,211.282) rotate(-0,-0,-4.5)" font-size="10" font-style="normal">
    <tspan x="0 7 " fill="rgb(0,0,0)" y="-0">A'</tspan>
   </text>
   <text font-family="FreeSans" font-weight="normal" xml:space="preserve" transform="translate(220.401,262.313) rotate(-0,-0,-4.5)" font-size="10" font-style="normal">
    <tspan x="0 7 " fill="rgb(0,0,0)" y="-0">B'</tspan>
   </text>
   <text font-family="FreeSans" font-weight="normal" xml:space="preserve" transform="translate(148.305,54.5884) rotate(-0,-0,-6)" font-size="10" font-style="normal">
    <tspan x="0 5 10 15 21 27 33 39 44 50 53 58 60 62 68 71 73 78 81 86 91 94 99 104 107 110 " fill="rgb(0,0,0)" y="-2">secp256k1 eliptic curve: y</tspan>
    <tspan x="115 " font-size="7" fill="rgb(0,0,0)" y="-6">2</tspan>
    <tspan x="119 125 128 " fill="rgb(0,0,0)" y="-2">= x</tspan>
    <tspan x="133 " font-size="7" fill="rgb(0,0,0)" y="-6">3</tspan>
    <tspan x="137 143 " fill="rgb(0,0,0)" y="-2">+7</tspan>
   </text>
   <text font-family="FreeSans" font-weight="normal" xml:space="preserve" transform="translate(231.492,143.616) rotate(-0,-0,-7)" font-size="9" font-style="normal">
    <tspan x="0 5 10 13 15 " fill="rgb(0,0,0)" y="-4">Let A</tspan>
    <tspan x="21 " font-size="6.3" fill="rgb(0,0,0)" y="-2">x</tspan>
    <tspan x="24 29 31 34 39 41 46 51 53 55 58 63 68 72 74 " fill="rgb(0,0,0)" y="-4">= -1.75; thus A</tspan>
    <tspan x="80 " font-size="6.3" fill="rgb(0,0,0)" y="-2">y</tspan>
    <tspan x="83 88 90 94 99 102 105 108 111 116 118 123 " fill="rgb(0,0,0)" y="-4">= sqrt(-1.75</tspan>
    <tspan x="128 " font-size="6.3" fill="rgb(0,0,0)" y="-8">3</tspan>
    <tspan x="132 137 142 145 147 152 154 159 164 166 171 176 181 " fill="rgb(0,0,0)" y="-4">+7) = ±1.2809</tspan>
   </text>
   <text font-family="FreeSans" font-weight="normal" xml:space="preserve" transform="translate(231.492,162.752) rotate(-0,-0,-7)" font-size="9" font-style="normal">
    <tspan x="0 5 10 13 15 " fill="rgb(0,0,0)" y="-4">Let B</tspan>
    <tspan x="21 " font-size="6.3" fill="rgb(0,0,0)" y="-2">x</tspan>
    <tspan x="24 29 31 36 38 40 43 48 53 57 59 " fill="rgb(0,0,0)" y="-4">= 0; thus B</tspan>
    <tspan x="65 " font-size="6.3" fill="rgb(0,0,0)" y="-2">y</tspan>
    <tspan x="68 73 75 79 84 87 90 93 " fill="rgb(0,0,0)" y="-4">= sqrt(0</tspan>
    <tspan x="98 " font-size="6.3" fill="rgb(0,0,0)" y="-8">3</tspan>
    <tspan x="102 107 112 115 117 122 124 129 134 136 141 146 151 " fill="rgb(0,0,0)" y="-4">+7) = ±2.6458</tspan>
   </text>
  </g>
 </g>
</svg>
