<?xml version='1.0' encoding='UTF-8' standalone='no'?>
<svg height="375pt" viewBox="0 0 500 375" width="500pt" xmlns:xlink="http://www.w3.org/1999/xlink" xmlns="http://www.w3.org/2000/svg">
 <title>gl2ps_renderer figure</title>
 <desc>
Creator: GL2PS 1.4.2, (C) 1999-2020 C. Geuzaine
For: Octave
CreationDate: Thu Jan 26 22:45:56 2023
</desc>
 <defs/>
 <polygon points="0,0 500,0 500,375 0,375" fill="#ffffff"/>
 <g>
  <polygon points="0,375 500,375 500,0 0,0" fill="#ffffff" shape-rendering="crispEdges"/>
  <clipPath id="cp00500375">
   <polygon points="0,375 500,375 500,0 0,0"/>
  </clipPath>
  <g clip-path="url(#cp00500375)">
   <polygon points="65.1187,334.358 453.325,334.358 453.325,28.1763 65.1187,28.1763" fill="#ffffff" shape-rendering="crispEdges"/>
   <polyline stroke-width="0.5" points="65.8931,334.358 65.8931,28.1763" stroke-dasharray="16,0" fill="none" stroke="#262626" stroke-linecap="butt" stroke-linejoin="miter" stroke-opacity="0.15"/>
   <polyline stroke-width="0.5" points="143.379,334.358 143.379,28.1763" stroke-dasharray="16,0" fill="none" stroke="#262626" stroke-linecap="butt" stroke-linejoin="miter" stroke-opacity="0.15"/>
   <polyline stroke-width="0.5" points="220.866,334.358 220.866,28.1763" stroke-dasharray="16,0" fill="none" stroke="#262626" stroke-linecap="butt" stroke-linejoin="miter" stroke-opacity="0.15"/>
   <polyline stroke-width="0.5" points="298.352,334.358 298.352,28.1763" stroke-dasharray="16,0" fill="none" stroke="#262626" stroke-linecap="butt" stroke-linejoin="miter" stroke-opacity="0.15"/>
   <polyline stroke-width="0.5" points="375.838,334.358 375.838,28.1763" stroke-dasharray="16,0" fill="none" stroke="#262626" stroke-linecap="butt" stroke-linejoin="miter" stroke-opacity="0.15"/>
   <polyline stroke-width="0.5" points="453.325,334.358 453.325,28.1763" stroke-dasharray="16,0" fill="none" stroke="#262626" stroke-linecap="butt" stroke-linejoin="miter" stroke-opacity="0.15"/>
   <polyline stroke-width="0.5" points="65.8931,334.358 65.8931,330.474" fill="none" stroke="#262626" stroke-linecap="butt" stroke-linejoin="miter"/>
   <polyline stroke-width="0.5" points="65.8931,28.1763 65.8931,32.0605" fill="none" stroke="#262626" stroke-linecap="butt" stroke-linejoin="miter"/>
   <polyline stroke-width="0.5" points="143.379,334.358 143.379,330.474" fill="none" stroke="#262626" stroke-linecap="butt" stroke-linejoin="miter"/>
   <polyline stroke-width="0.5" points="143.379,28.1763 143.379,32.0605" fill="none" stroke="#262626" stroke-linecap="butt" stroke-linejoin="miter"/>
   <polyline stroke-width="0.5" points="220.866,334.358 220.866,330.474" fill="none" stroke="#262626" stroke-linecap="butt" stroke-linejoin="miter"/>
   <polyline stroke-width="0.5" points="220.866,28.1763 220.866,32.0605" fill="none" stroke="#262626" stroke-linecap="butt" stroke-linejoin="miter"/>
   <polyline stroke-width="0.5" points="298.352,334.358 298.352,330.474" fill="none" stroke="#262626" stroke-linecap="butt" stroke-linejoin="miter"/>
   <polyline stroke-width="0.5" points="298.352,28.1763 298.352,32.0605" fill="none" stroke="#262626" stroke-linecap="butt" stroke-linejoin="miter"/>
   <polyline stroke-width="0.5" points="375.838,334.358 375.838,330.474" fill="none" stroke="#262626" stroke-linecap="butt" stroke-linejoin="miter"/>
   <polyline stroke-width="0.5" points="375.838,28.1763 375.838,32.0605" fill="none" stroke="#262626" stroke-linecap="butt" stroke-linejoin="miter"/>
   <polyline stroke-width="0.5" points="453.325,334.358 453.325,330.474" fill="none" stroke="#262626" stroke-linecap="butt" stroke-linejoin="miter"/>
   <polyline stroke-width="0.5" points="453.325,28.1763 453.325,32.0605" fill="none" stroke="#262626" stroke-linecap="butt" stroke-linejoin="miter"/>
   <text xml:space="preserve" font-family="FreeSans" font-size="10" transform="translate(62.8933,349.863) rotate(-0,3,-8)" font-style="normal" font-weight="normal">
    <tspan x="0 " fill="rgb(38,38,38)" y="-0">0</tspan>
   </text>
   <text xml:space="preserve" font-family="FreeSans" font-size="10" transform="translate(134.38,349.863) rotate(-0,9,-8)" font-style="normal" font-weight="normal">
    <tspan x="0 6 12 " fill="rgb(38,38,38)" y="-0">200</tspan>
   </text>
   <text xml:space="preserve" font-family="FreeSans" font-size="10" transform="translate(211.866,349.863) rotate(-0,9,-8)" font-style="normal" font-weight="normal">
    <tspan x="0 6 12 " fill="rgb(38,38,38)" y="-0">400</tspan>
   </text>
   <text xml:space="preserve" font-family="FreeSans" font-size="10" transform="translate(289.352,349.863) rotate(-0,9,-8)" font-style="normal" font-weight="normal">
    <tspan x="0 6 12 " fill="rgb(38,38,38)" y="-0">600</tspan>
   </text>
   <text xml:space="preserve" font-family="FreeSans" font-size="10" transform="translate(366.838,349.863) rotate(-0,9,-8)" font-style="normal" font-weight="normal">
    <tspan x="0 6 12 " fill="rgb(38,38,38)" y="-0">800</tspan>
   </text>
   <text xml:space="preserve" font-family="FreeSans" font-size="10" transform="translate(441.325,349.863) rotate(-0,12,-8)" font-style="normal" font-weight="normal">
    <tspan x="0 6 12 18 " fill="rgb(38,38,38)" y="-0">1000</tspan>
   </text>
   <polyline stroke-width="0.5" points="65.1187,334.358 453.325,334.358" stroke-dasharray="16,0" fill="none" stroke="#262626" stroke-linecap="butt" stroke-linejoin="miter" stroke-opacity="0.15"/>
   <polyline stroke-width="0.5" points="65.1187,283.328 453.325,283.328" stroke-dasharray="16,0" fill="none" stroke="#262626" stroke-linecap="butt" stroke-linejoin="miter" stroke-opacity="0.15"/>
   <polyline stroke-width="0.5" points="65.1187,232.297 453.325,232.297" stroke-dasharray="16,0" fill="none" stroke="#262626" stroke-linecap="butt" stroke-linejoin="miter" stroke-opacity="0.15"/>
   <polyline stroke-width="0.5" points="65.1187,181.267 453.325,181.267" stroke-dasharray="16,0" fill="none" stroke="#262626" stroke-linecap="butt" stroke-linejoin="miter" stroke-opacity="0.15"/>
   <polyline stroke-width="0.5" points="65.1187,130.237 453.325,130.237" stroke-dasharray="16,0" fill="none" stroke="#262626" stroke-linecap="butt" stroke-linejoin="miter" stroke-opacity="0.15"/>
   <polyline stroke-width="0.5" points="65.1187,79.2065 453.325,79.2065" stroke-dasharray="16,0" fill="none" stroke="#262626" stroke-linecap="butt" stroke-linejoin="miter" stroke-opacity="0.15"/>
   <polyline stroke-width="0.5" points="65.1187,28.1763 453.325,28.1763" stroke-dasharray="16,0" fill="none" stroke="#262626" stroke-linecap="butt" stroke-linejoin="miter" stroke-opacity="0.15"/>
   <polyline stroke-width="0.5" points="65.1187,334.358 69.0024,334.358" fill="none" stroke="#262626" stroke-linecap="butt" stroke-linejoin="miter"/>
   <polyline stroke-width="0.5" points="453.325,334.358 449.44,334.358" fill="none" stroke="#262626" stroke-linecap="butt" stroke-linejoin="miter"/>
   <polyline stroke-width="0.5" points="65.1187,283.328 69.0024,283.328" fill="none" stroke="#262626" stroke-linecap="butt" stroke-linejoin="miter"/>
   <polyline stroke-width="0.5" points="453.325,283.328 449.44,283.328" fill="none" stroke="#262626" stroke-linecap="butt" stroke-linejoin="miter"/>
   <polyline stroke-width="0.5" points="65.1187,232.297 69.0024,232.297" fill="none" stroke="#262626" stroke-linecap="butt" stroke-linejoin="miter"/>
   <polyline stroke-width="0.5" points="453.325,232.297 449.44,232.297" fill="none" stroke="#262626" stroke-linecap="butt" stroke-linejoin="miter"/>
   <polyline stroke-width="0.5" points="65.1187,181.267 69.0024,181.267" fill="none" stroke="#262626" stroke-linecap="butt" stroke-linejoin="miter"/>
   <polyline stroke-width="0.5" points="453.325,181.267 449.44,181.267" fill="none" stroke="#262626" stroke-linecap="butt" stroke-linejoin="miter"/>
   <polyline stroke-width="0.5" points="65.1187,130.237 69.0024,130.237" fill="none" stroke="#262626" stroke-linecap="butt" stroke-linejoin="miter"/>
   <polyline stroke-width="0.5" points="453.325,130.237 449.44,130.237" fill="none" stroke="#262626" stroke-linecap="butt" stroke-linejoin="miter"/>
   <polyline stroke-width="0.5" points="65.1187,79.2065 69.0024,79.2065" fill="none" stroke="#262626" stroke-linecap="butt" stroke-linejoin="miter"/>
   <polyline stroke-width="0.5" points="453.325,79.2065 449.44,79.2065" fill="none" stroke="#262626" stroke-linecap="butt" stroke-linejoin="miter"/>
   <polyline stroke-width="0.5" points="65.1187,28.1763 69.0024,28.1763" fill="none" stroke="#262626" stroke-linecap="butt" stroke-linejoin="miter"/>
   <polyline stroke-width="0.5" points="453.325,28.1763 449.44,28.1763" fill="none" stroke="#262626" stroke-linecap="butt" stroke-linejoin="miter"/>
   <text xml:space="preserve" font-family="FreeSans" font-size="10" transform="translate(54.1158,338.358) rotate(-0,6,-4)" font-style="normal" font-weight="normal">
    <tspan x="0 " fill="rgb(38,38,38)" y="-0">0</tspan>
   </text>
   <text xml:space="preserve" font-family="FreeSans" font-size="10" transform="translate(36.1158,287.328) rotate(-0,24,-4)" font-style="normal" font-weight="normal">
    <tspan x="0 6 12 18 " fill="rgb(38,38,38)" y="-0">5000</tspan>
   </text>
   <text xml:space="preserve" font-family="FreeSans" font-size="10" transform="translate(30.1158,236.298) rotate(-0,30,-4)" font-style="normal" font-weight="normal">
    <tspan x="0 6 12 18 24 " fill="rgb(38,38,38)" y="-0">10000</tspan>
   </text>
   <text xml:space="preserve" font-family="FreeSans" font-size="10" transform="translate(30.1158,185.267) rotate(-0,30,-4)" font-style="normal" font-weight="normal">
    <tspan x="0 6 12 18 24 " fill="rgb(38,38,38)" y="-0">15000</tspan>
   </text>
   <text xml:space="preserve" font-family="FreeSans" font-size="10" transform="translate(30.1158,134.237) rotate(-0,30,-4)" font-style="normal" font-weight="normal">
    <tspan x="0 6 12 18 24 " fill="rgb(38,38,38)" y="-0">20000</tspan>
   </text>
   <text xml:space="preserve" font-family="FreeSans" font-size="10" transform="translate(30.1158,83.2066) rotate(-0,30,-4)" font-style="normal" font-weight="normal">
    <tspan x="0 6 12 18 24 " fill="rgb(38,38,38)" y="-0">25000</tspan>
   </text>
   <text xml:space="preserve" font-family="FreeSans" font-size="10" transform="translate(30.1158,32.1763) rotate(-0,30,-4)" font-style="normal" font-weight="normal">
    <tspan x="0 6 12 18 24 " fill="rgb(38,38,38)" y="-0">30000</tspan>
   </text>
   <polyline stroke-width="0.5" points="65.1187,334.358 453.325,334.358" stroke-dasharray="16,0" fill="none" stroke="#262626" stroke-linecap="square" stroke-linejoin="miter"/>
   <polyline stroke-width="0.5" points="65.1187,28.1763 453.325,28.1763" stroke-dasharray="16,0" fill="none" stroke="#262626" stroke-linecap="square" stroke-linejoin="miter"/>
   <polyline stroke-width="0.5" points="65.1187,334.358 65.1187,28.1763" stroke-dasharray="16,0" fill="none" stroke="#262626" stroke-linecap="square" stroke-linejoin="miter"/>
   <polyline stroke-width="0.5" points="453.325,334.358 453.325,28.1763" stroke-dasharray="16,0" fill="none" stroke="#262626" stroke-linecap="square" stroke-linejoin="miter"/>
   <text xml:space="preserve" font-family="FreeSans" font-size="11" transform="translate(231.722,18.1763) rotate(-0,27.5,0)" font-style="normal" font-weight="bold">
    <tspan x="0 6 12 18 25 31 37 43 49 " fill="rgb(0,0,0)" y="-3">secp256k1</tspan>
   </text>
   <polyline stroke-width="0.5" points="65.1187,334.358 65.5059,334.333 65.8931,334.331 66.2808,334.329 66.668,334.319 67.0557,334.299 67.4429,334.272 67.8306,334.241 68.2178,334.206 68.6055,334.167 68.9927,334.125 69.3804,334.081 69.7676,334.034 70.1553,333.985 70.5425,333.933 70.9297,333.879 71.3174,333.823 71.7046,333.765 72.0923,333.705 72.4795,333.642 72.8672,333.578 73.2544,333.513 73.6421,333.445 74.0293,333.375 74.417,333.305 74.8042,333.232 75.1914,333.158 75.5791,333.082 75.9663,333.005 76.354,332.926 76.7412,332.846 77.1289,332.764 77.5161,332.681 77.9038,332.596 78.291,332.51 78.6787,332.423 79.0659,332.334 79.4536,332.245 79.8408,332.153 80.228,332.061 80.6157,331.967 81.0029,331.872 81.3906,331.776 81.7778,331.679 82.1655,331.58 82.5527,331.48 82.9404,331.379 83.3276,331.277 83.7153,331.174 84.1025,331.069 84.4902,330.964 84.8774,330.857 85.2646,330.75 85.6523,330.641 86.0396,330.531 86.4272,330.42 86.8145,330.308 87.2021,330.195 87.5894,330.081 87.9771,329.966 88.3643,329.85 88.752,329.733 89.1392,329.615 89.5264,329.496 89.9141,329.375 90.3013,329.254 90.689,329.133 91.0762,329.01 91.4639,328.886 91.8511,328.761 92.2388,328.635 92.626,328.508 93.0137,328.381 93.4009,328.252 93.7886,328.123 94.1758,327.993 94.563,327.861 94.9507,327.729 95.3379,327.596 95.7256,327.462 96.1128,327.327 96.5005,327.192 96.8877,327.055 97.2754,326.918 97.6626,326.78 98.0503,326.641 98.4375,326.501 98.8252,326.36 99.2124,326.218 99.5996,326.076 99.9873,325.933 100.375,325.789 100.762,325.644 101.149,325.499 101.537,325.352 101.924,325.205 102.312,325.057 102.699,324.908 103.087,324.758 103.474,324.608 103.861,324.457 104.249,324.305 104.636,324.152 105.024,323.999 105.411,323.844 105.799,323.689 106.186,323.534 106.574,323.377 106.961,323.22 107.349,323.062 107.736,322.903 108.124,322.744 108.511,322.583 108.898,322.422 109.286,322.261 109.673,322.099 110.061,321.936 110.448,321.771 110.835,321.607 111.223,321.442 111.61,321.276 111.998,321.109 112.385,320.942 112.772,320.774 113.16,320.605 113.547,320.436 113.935,320.266 114.322,320.095 114.709,319.923 115.097,319.751 115.484,319.578 115.872,319.405 116.259,319.23 116.647,319.056 117.034,318.88 117.422,318.704 117.809,318.527 118.196,318.349 118.584,318.171 118.971,317.992 119.359,317.813 119.746,317.633 120.134,317.452 120.521,317.271 120.909,317.088 121.296,316.905 121.684,316.722 122.071,316.538 122.458,316.354 122.846,316.168 123.233,315.982 123.621,315.795 124.008,315.608 124.396,315.42 124.783,315.232 125.17,315.043 125.558,314.854 125.945,314.663 126.333,314.472 126.72,314.281 127.107,314.088 127.495,313.896 127.882,313.703 128.27,313.509 128.657,313.314 129.044,313.119 129.432,312.923 129.819,312.727 130.207,312.53 130.594,312.332 130.982,312.134 131.369,311.936 131.757,311.736 132.144,311.536 132.531,311.336 132.919,311.135 133.306,310.933 133.694,310.731 134.081,310.528 134.469,310.325 134.856,310.121 135.244,309.916 135.631,309.711 136.019,309.505 136.406,309.299 136.793,309.092 137.181,308.885 137.568,308.677 137.956,308.468 138.343,308.259 138.73,308.05 139.118,307.839 139.505,307.629 139.893,307.417 140.28,307.206 140.667,306.993 141.055,306.78 141.442,306.567 141.83,306.353 142.217,306.138 142.604,305.923 142.992,305.707 143.379,305.491 143.767,305.274 144.154,305.057 144.542,304.839 144.929,304.621 145.317,304.402 145.704,304.182 146.092,303.962 146.479,303.742 146.866,303.521 147.254,303.299 147.641,303.077 148.029,302.854 148.416,302.631 148.804,302.408 149.191,302.183 149.579,301.958 149.966,301.733 150.354,301.508 150.741,301.281 151.128,301.055 151.516,300.827 151.903,300.599 152.291,300.371 152.678,300.142 153.065,299.913 153.453,299.683 153.84,299.453 154.228,299.222 154.615,298.99 155.002,298.758 155.39,298.526 155.777,298.293 156.165,298.06 156.552,297.825 156.939,297.591 157.327,297.356 157.714,297.121 158.102,296.885 158.489,296.648 158.877,296.411 159.264,296.174 159.652,295.936 160.039,295.698 160.427,295.459 160.814,295.219 161.201,294.979 161.589,294.739 161.976,294.498 162.364,294.257 162.751,294.015 163.139,293.773 163.526,293.53 163.914,293.287 164.301,293.043 164.688,292.799 165.076,292.554 165.463,292.309 165.851,292.063 166.238,291.817 166.625,291.57 167.013,291.323 167.4,291.076 167.788,290.828 168.175,290.579 168.562,290.331 168.95,290.081 169.337,289.831 169.725,289.581 170.112,289.33 170.5,289.079 170.887,288.827 171.274,288.574 171.662,288.322 172.049,288.068 172.437,287.815 172.824,287.561 173.212,287.306 173.599,287.051 173.987,286.796 174.374,286.54 174.762,286.283 175.149,286.026 175.536,285.769 175.924,285.511 176.311,285.253 176.699,284.995 177.086,284.735 177.474,284.476 177.861,284.216 178.249,283.955 178.636,283.694 179.023,283.433 179.411,283.171 179.798,282.909 180.186,282.646 180.573,282.383 180.96,282.12 181.348,281.855 181.735,281.591 182.123,281.326 182.51,281.061 182.897,280.795 183.285,280.528 183.672,280.262 184.06,279.995 184.447,279.727 184.834,279.459 185.222,279.19 185.609,278.922 185.997,278.652 186.384,278.382 186.772,278.112 187.159,277.842 187.547,277.571 187.934,277.299 188.322,277.027 188.709,276.755 189.097,276.482 189.484,276.209 189.871,275.935 190.259,275.661 190.646,275.387 191.034,275.112 191.421,274.836 191.809,274.561 192.196,274.284 192.583,274.008 192.971,273.731 193.358,273.453 193.746,273.175 194.133,272.897 194.521,272.618 194.908,272.339 195.295,272.06 195.683,271.78 196.07,271.499 196.458,271.218 196.845,270.937 197.232,270.655 197.62,270.374 198.007,270.091 198.395,269.808 198.782,269.524 199.169,269.241 199.557,268.957 199.944,268.672 200.332,268.387 200.719,268.102 201.107,267.816 201.494,267.53 201.882,267.243 202.269,266.956 202.657,266.669 203.044,266.381 203.432,266.093 203.819,265.804 204.206,265.515 204.594,265.226 204.981,264.936 205.369,264.646 205.756,264.355 206.144,264.063 206.531,263.772 206.918,263.48 207.306,263.188 207.693,262.896 208.081,262.603 208.468,262.309 208.855,262.015 209.243,261.721 209.63,261.426 210.018,261.131 210.405,260.835 210.792,260.54 211.18,260.243 211.567,259.947 211.955,259.649 212.342,259.352 212.729,259.054 213.117,258.756 213.504,258.458 213.892,258.158 214.279,257.859 214.667,257.559 215.054,257.259 215.442,256.958 215.829,256.658 216.217,256.356 216.604,256.054 216.992,255.752 217.379,255.45 217.766,255.147 218.154,254.844 218.541,254.54 218.929,254.236 219.316,253.931 219.704,253.626 220.091,253.321 220.479,253.016 220.866,252.709 221.253,252.403 221.641,252.097 222.028,251.79 222.416,251.482 222.803,251.174 223.19,250.866 223.578,250.557 223.965,250.248 224.353,249.938 224.74,249.629 225.127,249.318 225.515,249.008 225.902,248.697 226.29,248.386 226.677,248.074 227.065,247.762 227.452,247.45 227.839,247.137 228.227,246.824 228.614,246.51 229.002,246.196 229.389,245.882 229.777,245.567 230.164,245.252 230.552,244.937 230.939,244.621 231.327,244.305 231.714,243.988 232.101,243.671 232.489,243.354 232.876,243.037 233.264,242.718 233.651,242.4 234.039,242.081 234.426,241.762 234.813,241.443 235.201,241.123 235.588,240.803 235.976,240.482 236.363,240.161 236.75,239.84 237.138,239.518 237.525,239.196 237.913,238.874 238.3,238.551 238.688,238.228 239.075,237.904 239.462,237.581 239.85,237.256 240.237,236.932 240.625,236.607 241.012,236.281 241.4,235.956 241.787,235.63 242.174,235.303 242.562,234.977 242.949,234.649 243.337,234.322 243.724,233.994 244.112,233.666 244.499,233.337 244.887,233.009 245.274,232.68 245.662,232.35 246.049,232.02 246.436,231.689 246.824,231.359 247.211,231.028 247.599,230.697 247.986,230.365 248.374,230.033 248.761,229.7 249.148,229.368 249.536,229.035 249.923,228.701 250.311,228.367 250.698,228.033 251.085,227.699 251.473,227.364 251.86,227.028 252.248,226.693 252.635,226.357 253.022,226.021 253.41,225.684 253.797,225.347 254.185,225.01 254.572,224.672 254.96,224.334 255.347,223.996 255.734,223.657 256.122,223.318 256.509,222.979 256.897,222.639 257.284,222.299 257.672,221.958 258.059,221.618 258.447,221.276 258.834,220.935 259.222,220.593 259.609,220.251 259.997,219.908 260.384,219.565 260.771,219.222 261.159,218.879 261.546,218.535 261.934,218.191 262.321,217.846 262.708,217.501 263.096,217.156 263.483,216.811 263.871,216.465 264.258,216.119 264.646,215.772 265.033,215.425 265.42,215.078 265.808,214.73 266.195,214.382 266.583,214.034 266.97,213.686 267.357,213.336 267.745,212.987 268.132,212.638 268.52,212.288 268.907,211.938 269.295,211.587 269.682,211.236 270.069,210.885 270.457,210.533 270.844,210.181 271.232,209.829 271.619,209.476 272.007,209.123 272.394,208.77 272.782,208.417 273.169,208.062 273.557,207.708 273.944,207.354 274.332,206.999 274.719,206.643 275.106,206.288 275.494,205.932 275.881,205.576 276.269,205.219 276.656,204.862 277.043,204.505 277.431,204.147 277.818,203.79 278.206,203.431 278.593,203.073 278.98,202.714 279.368,202.354 279.755,201.995 280.143,201.635 280.53,201.275 280.917,200.915 281.305,200.554 281.692,200.192 282.08,199.831 282.467,199.469 282.855,199.107 283.242,198.745 283.63,198.382 284.017,198.019 284.404,197.655 284.792,197.292 285.179,196.928 285.567,196.563 285.954,196.199 286.342,195.833 286.729,195.468 287.117,195.103 287.504,194.737 287.892,194.37 288.279,194.004 288.667,193.637 289.054,193.27 289.441,192.902 289.829,192.534 290.216,192.166 290.604,191.797 290.991,191.428 291.378,191.059 291.766,190.69 292.153,190.32 292.541,189.95 292.928,189.58 293.315,189.208 293.703,188.837 294.09,188.466 294.478,188.095 294.865,187.723 295.252,187.35 295.64,186.978 296.027,186.604 296.415,186.231 296.802,185.858 297.19,185.484 297.577,185.11 297.965,184.735 298.352,184.36 298.739,183.985 299.127,183.61 299.514,183.234 299.902,182.858 300.289,182.481 300.677,182.104 301.064,181.728 301.452,181.35 301.839,180.973 302.227,180.595 302.614,180.216 303.001,179.838 303.389,179.459 303.776,179.08 304.164,178.7 304.551,178.32 304.938,177.94 305.326,177.56 305.713,177.179 306.101,176.798 306.488,176.417 306.875,176.035 307.263,175.653 307.65,175.271 308.038,174.888 308.425,174.505 308.812,174.123 309.2,173.739 309.587,173.355 309.975,172.971 310.362,172.586 310.75,172.202 311.137,171.817 311.525,171.432 311.912,171.046 312.3,170.66 312.687,170.274 313.074,169.887 313.462,169.5 313.849,169.113 314.237,168.726 314.624,168.338 315.012,167.95 315.399,167.562 315.787,167.173 316.174,166.784 316.562,166.395 316.949,166.005 317.336,165.615 317.724,165.225 318.111,164.835 318.499,164.444 318.886,164.053 319.273,163.662 319.661,163.27 320.048,162.878 320.436,162.486 320.823,162.093 321.21,161.7 321.598,161.307 321.985,160.914 322.373,160.52 322.76,160.126 323.147,159.731 323.535,159.337 323.922,158.942 324.31,158.547 324.697,158.151 325.085,157.755 325.472,157.359 325.86,156.963 326.247,156.566 326.635,156.169 327.022,155.772 327.409,155.375 327.797,154.977 328.184,154.578 328.572,154.18 328.959,153.781 329.347,153.382 329.734,152.982 330.122,152.583 330.509,152.183 330.896,151.783 331.284,151.382 331.671,150.981 332.059,150.58 332.446,150.179 332.833,149.777 333.221,149.375 333.608,148.973 333.996,148.57 334.383,148.167 334.771,147.764 335.158,147.361 335.545,146.957 335.933,146.553 336.32,146.149 336.708,145.744 337.095,145.339 337.482,144.934 337.87,144.528 338.257,144.123 338.645,143.717 339.032,143.311 339.42,142.904 339.807,142.497 340.195,142.09 340.582,141.682 340.97,141.274 341.357,140.866 341.744,140.458 342.132,140.049 342.519,139.641 342.907,139.231 343.294,138.822 343.682,138.412 344.069,138.002 344.457,137.591 344.844,137.181 345.231,136.77 345.619,136.359 346.006,135.947 346.394,135.535 346.781,135.124 347.168,134.711 347.556,134.298 347.943,133.885 348.331,133.472 348.718,133.059 349.105,132.645 349.493,132.231 349.88,131.816 350.268,131.402 350.655,130.987 351.042,130.572 351.43,130.156 351.817,129.741 352.205,129.325 352.592,128.908 352.98,128.492 353.367,128.075 353.755,127.658 354.142,127.24 354.53,126.822 354.917,126.404 355.305,125.986 355.692,125.568 356.079,125.149 356.467,124.729 356.854,124.311 357.242,123.891 357.629,123.471 358.017,123.05 358.404,122.63 358.792,122.209 359.179,121.788 359.566,121.367 359.954,120.945 360.341,120.523 360.729,120.101 361.116,119.679 361.503,119.256 361.891,118.833 362.278,118.41 362.666,117.986 363.053,117.562 363.44,117.138 363.828,116.714 364.215,116.289 364.603,115.864 364.99,115.439 365.377,115.013 365.765,114.587 366.152,114.162 366.54,113.735 366.927,113.309 367.315,112.882 367.702,112.455 368.09,112.027 368.477,111.6 368.865,111.171 369.252,110.743 369.639,110.314 370.027,109.886 370.414,109.457 370.802,109.027 371.189,108.598 371.577,108.168 371.964,107.738 372.352,107.307 372.739,106.876 373.126,106.446 373.514,106.015 373.901,105.583 374.289,105.151 374.676,104.719 375.063,104.287 375.451,103.854 375.838,103.421 376.226,102.988 376.613,102.555 377,102.121 377.388,101.687 377.775,101.253 378.163,100.818 378.55,100.384 378.938,99.9487 379.325,99.5132 379.712,99.0776 380.1,98.6421 380.487,98.2056 380.875,97.7695 381.262,97.333 381.65,96.896 382.037,96.4585 382.425,96.021 382.812,95.5835 383.2,95.1455 383.587,94.707 383.975,94.2686 384.362,93.8301 384.749,93.3911 385.137,92.9517 385.524,92.5122 385.912,92.0723 386.299,91.6318 386.687,91.1914 387.074,90.751 387.461,90.3101 387.849,89.8687 388.236,89.4272 388.624,88.9858 389.011,88.5439 389.398,88.1016 389.786,87.6592 390.173,87.2163 390.561,86.7729 390.948,86.3301 391.335,85.8862 391.723,85.4424 392.11,84.9985 392.498,84.5542 392.885,84.1094 393.273,83.6646 393.66,83.2192 394.047,82.7739 394.435,82.3281 394.822,81.8823 395.21,81.436 395.597,80.9897 395.985,80.543 396.372,80.0957 396.76,79.6489 397.147,79.2012 397.535,78.7534 397.922,78.3052 398.31,77.8569 398.697,77.4087 399.084,76.9595 399.472,76.5107 399.859,76.061 400.247,75.6118 400.634,75.1616 401.021,74.7119 401.409,74.2612 401.796,73.8105 402.184,73.3599 402.571,72.9087 402.958,72.457 403.346,72.0054 403.733,71.5537 404.121,71.1016 404.508,70.6489 404.896,70.1963 405.283,69.7432 405.67,69.29 406.058,68.8364 406.445,68.3828 406.833,67.9287 407.22,67.4746 407.608,67.02 407.995,66.5649 408.382,66.1099 408.77,65.6548 409.157,65.1992 409.545,64.7432 409.932,64.2871 410.32,63.8311 410.707,63.3745 411.095,62.9175 411.482,62.4604 411.87,62.0029 412.257,61.5454 412.644,61.0874 413.032,60.6294 413.419,60.1709 413.807,59.7124 414.194,59.2534 414.582,58.7944 414.969,58.335 415.356,57.8755 415.744,57.4155 416.131,56.9551 416.519,56.4951 416.906,56.0342 417.293,55.5732 417.681,55.1123 418.068,54.6509 418.456,54.189 418.843,53.7271 419.23,53.2646 419.618,52.8022 420.005,52.3398 420.393,51.877 420.78,51.4136 421.168,50.9502 421.555,50.4863 421.942,50.0225 422.33,49.5581 422.717,49.0938 423.105,48.6289 423.492,48.1641 423.88,47.6987 424.267,47.2334 424.655,46.7676 425.042,46.3018 425.43,45.8354 425.817,45.3687 426.205,44.9019 426.592,44.4351 426.979,43.9678 427.367,43.5005 427.754,43.0327 428.142,42.5645 428.529,42.0962 428.917,41.6279 429.304,41.1592 429.691,40.6899 430.079,40.2207 430.466,39.7515 430.854,39.2817 431.241,38.8115 431.628,38.3413 432.016,37.8711 432.403,37.4004 432.791,36.9292 433.178,36.458 433.565,35.9863 433.953,35.5146 434.34,35.043 434.728,34.5703 435.115,34.0981 435.503,33.6255 435.89,33.1523 436.278,32.6792 436.665,32.2056 437.052,31.7319 437.44,31.2578 437.827,30.7837 438.215,30.3096 438.602,29.8345 438.99,29.3599 439.377,28.8843 439.765,28.4092 440.152,27.9331 440.204,27.8701" fill="none" stroke="#0071bc" stroke-linecap="butt" stroke-linejoin="round"/>
   <polyline stroke-width="0.5" points="65.1187,334.358 65.5059,334.383 65.8931,334.385 66.2808,334.387 66.668,334.397 67.0557,334.417 67.4429,334.444 67.8306,334.476 68.2178,334.511 68.6055,334.549 68.9927,334.591 69.3804,334.635 69.6216,334.665" fill="none" stroke="#d85218" stroke-linecap="butt" stroke-linejoin="round"/>
   <polyline stroke-width="0.5" points="142.926,332.152 441.453,27.8701" fill="none" stroke="#ecb01f" stroke-linecap="butt" stroke-linejoin="round"/>
   <text xml:space="preserve" font-family="FreeSans" font-size="10" transform="translate(148.92,54.5884) rotate(-0,-0,-6)" font-style="normal" font-weight="normal">
    <tspan x="0 5 10 15 21 27 33 39 44 50 53 58 60 62 68 71 73 78 81 86 91 94 99 104 107 110 " fill="rgb(0,0,0)" y="-2">secp256k1 eliptic curve: y</tspan>
    <tspan font-size="7" x="115 " fill="rgb(0,0,0)" y="-6">2</tspan>
    <tspan x="119 125 128 " fill="rgb(0,0,0)" y="-2">= x</tspan>
    <tspan font-size="7" x="133 " fill="rgb(0,0,0)" y="-6">3</tspan>
    <tspan x="137 143 " fill="rgb(0,0,0)" y="-2">+7</tspan>
   </text>
   <text xml:space="preserve" font-family="FreeSans" font-size="10" transform="translate(172.437,314.843) rotate(-0,-0,-6)" font-style="normal" font-weight="normal">
    <tspan x="0 7 10 15 18 21 26 28 34 39 42 45 47 49 54 59 62 65 70 73 78 83 88 95 98 101 106 111 114 117 122 127 130 135 143 148 153 158 161 164 169 172 175 180 185 188 193 198 201 206 209 214 217 222 225 228 " fill="rgb(0,0,0)" y="-2">A straight line to show the the amount of curvature of y</tspan>
    <tspan font-size="7" x="233 " fill="rgb(0,0,0)" y="-6">2</tspan>
    <tspan x="237 243 246 " fill="rgb(0,0,0)" y="-2">= x</tspan>
    <tspan font-size="7" x="251 " fill="rgb(0,0,0)" y="-6">3</tspan>
    <tspan x="255 261 " fill="rgb(0,0,0)" y="-2">+7</tspan>
   </text>
  </g>
 </g>
</svg>
