<?xml version='1.0' encoding='UTF-8' standalone='no'?>
<svg xmlns:xlink="http://www.w3.org/1999/xlink" xmlns="http://www.w3.org/2000/svg" viewBox="0 0 576 432" width="576pt" height="432pt">
 <title>gl2ps_renderer figure</title>
 <desc>
Creator: GL2PS 1.4.0, (C) 1999-2017 C. Geuzaine
For: Octave
CreationDate: Sun Jan 23 23:43:35 2022
</desc>
 <defs/>
 <polygon points="0,0 576,0 576,432 0,432" fill="#ffffff"/>
 <g>
  <polygon shape-rendering="crispEdges" points="0,432 576,432 576,0 0,0" fill="#ffffff"/>
  <clipPath id="cp00576432">
   <polygon points="0,432 576,432 576,0 0,0"/>
  </clipPath>
  <g clip-path="url(#cp00576432)">
   <polygon shape-rendering="crispEdges" points="74.8799,384.48 521.28,384.48 521.28,32.3999 74.8799,32.3999" fill="#ffffff"/>
   <polyline stroke-linejoin="miter" stroke-width="0.5" stroke-linecap="butt" stroke="#262626" stroke-opacity="0.15" points="75.771,384.48 75.771,32.3999" stroke-dasharray="16,0" fill="none"/>
   <polyline stroke-linejoin="miter" stroke-width="0.5" stroke-linecap="butt" stroke="#262626" stroke-opacity="0.15" points="164.873,384.48 164.873,32.3999" stroke-dasharray="16,0" fill="none"/>
   <polyline stroke-linejoin="miter" stroke-width="0.5" stroke-linecap="butt" stroke="#262626" stroke-opacity="0.15" points="253.975,384.48 253.975,32.3999" stroke-dasharray="16,0" fill="none"/>
   <polyline stroke-linejoin="miter" stroke-width="0.5" stroke-linecap="butt" stroke="#262626" stroke-opacity="0.15" points="343.077,384.48 343.077,32.3999" stroke-dasharray="16,0" fill="none"/>
   <polyline stroke-linejoin="miter" stroke-width="0.5" stroke-linecap="butt" stroke="#262626" stroke-opacity="0.15" points="432.178,384.48 432.178,32.3999" stroke-dasharray="16,0" fill="none"/>
   <polyline stroke-linejoin="miter" stroke-width="0.5" stroke-linecap="butt" stroke="#262626" stroke-opacity="0.15" points="521.28,384.48 521.28,32.3999" stroke-dasharray="16,0" fill="none"/>
   <polyline stroke-linejoin="miter" stroke-width="0.5" stroke-linecap="butt" stroke="#262626" points="75.771,384.48 75.771,380.015" fill="none"/>
   <polyline stroke-linejoin="miter" stroke-width="0.5" stroke-linecap="butt" stroke="#262626" points="75.771,32.3999 75.771,36.8652" fill="none"/>
   <polyline stroke-linejoin="miter" stroke-width="0.5" stroke-linecap="butt" stroke="#262626" points="164.873,384.48 164.873,380.015" fill="none"/>
   <polyline stroke-linejoin="miter" stroke-width="0.5" stroke-linecap="butt" stroke="#262626" points="164.873,32.3999 164.873,36.8652" fill="none"/>
   <polyline stroke-linejoin="miter" stroke-width="0.5" stroke-linecap="butt" stroke="#262626" points="253.975,384.48 253.975,380.015" fill="none"/>
   <polyline stroke-linejoin="miter" stroke-width="0.5" stroke-linecap="butt" stroke="#262626" points="253.975,32.3999 253.975,36.8652" fill="none"/>
   <polyline stroke-linejoin="miter" stroke-width="0.5" stroke-linecap="butt" stroke="#262626" points="343.077,384.48 343.077,380.015" fill="none"/>
   <polyline stroke-linejoin="miter" stroke-width="0.5" stroke-linecap="butt" stroke="#262626" points="343.077,32.3999 343.077,36.8652" fill="none"/>
   <polyline stroke-linejoin="miter" stroke-width="0.5" stroke-linecap="butt" stroke="#262626" points="432.178,384.48 432.178,380.015" fill="none"/>
   <polyline stroke-linejoin="miter" stroke-width="0.5" stroke-linecap="butt" stroke="#262626" points="432.178,32.3999 432.178,36.8652" fill="none"/>
   <polyline stroke-linejoin="miter" stroke-width="0.5" stroke-linecap="butt" stroke="#262626" points="521.28,384.48 521.28,380.015" fill="none"/>
   <polyline stroke-linejoin="miter" stroke-width="0.5" stroke-linecap="butt" stroke="#262626" points="521.28,32.3999 521.28,36.8652" fill="none"/>
   <text transform="translate(72.771,399.982) rotate(-0,3,-8)" font-weight="normal" font-size="10" font-style="normal" xml:space="preserve" font-family="FreeSans">
    <tspan x="0 " y="-0" fill="rgb(38,38,38)">0</tspan>
   </text>
   <text transform="translate(155.873,399.982) rotate(-0,9,-8)" font-weight="normal" font-size="10" font-style="normal" xml:space="preserve" font-family="FreeSans">
    <tspan x="0 6 12 " y="-0" fill="rgb(38,38,38)">200</tspan>
   </text>
   <text transform="translate(244.975,399.982) rotate(-0,9,-8)" font-weight="normal" font-size="10" font-style="normal" xml:space="preserve" font-family="FreeSans">
    <tspan x="0 6 12 " y="-0" fill="rgb(38,38,38)">400</tspan>
   </text>
   <text transform="translate(334.076,399.982) rotate(-0,9,-8)" font-weight="normal" font-size="10" font-style="normal" xml:space="preserve" font-family="FreeSans">
    <tspan x="0 6 12 " y="-0" fill="rgb(38,38,38)">600</tspan>
   </text>
   <text transform="translate(423.178,399.982) rotate(-0,9,-8)" font-weight="normal" font-size="10" font-style="normal" xml:space="preserve" font-family="FreeSans">
    <tspan x="0 6 12 " y="-0" fill="rgb(38,38,38)">800</tspan>
   </text>
   <text transform="translate(509.28,399.982) rotate(-0,12,-8)" font-weight="normal" font-size="10" font-style="normal" xml:space="preserve" font-family="FreeSans">
    <tspan x="0 6 12 18 " y="-0" fill="rgb(38,38,38)">1000</tspan>
   </text>
   <polyline stroke-linejoin="miter" stroke-width="0.5" stroke-linecap="butt" stroke="#262626" stroke-opacity="0.15" points="74.8799,384.48 521.28,384.48" stroke-dasharray="16,0" fill="none"/>
   <polyline stroke-linejoin="miter" stroke-width="0.5" stroke-linecap="butt" stroke="#262626" stroke-opacity="0.15" points="74.8799,325.8 521.28,325.8" stroke-dasharray="16,0" fill="none"/>
   <polyline stroke-linejoin="miter" stroke-width="0.5" stroke-linecap="butt" stroke="#262626" stroke-opacity="0.15" points="74.8799,267.12 521.28,267.12" stroke-dasharray="16,0" fill="none"/>
   <polyline stroke-linejoin="miter" stroke-width="0.5" stroke-linecap="butt" stroke="#262626" stroke-opacity="0.15" points="74.8799,208.44 521.28,208.44" stroke-dasharray="16,0" fill="none"/>
   <polyline stroke-linejoin="miter" stroke-width="0.5" stroke-linecap="butt" stroke="#262626" stroke-opacity="0.15" points="74.8799,149.76 521.28,149.76" stroke-dasharray="16,0" fill="none"/>
   <polyline stroke-linejoin="miter" stroke-width="0.5" stroke-linecap="butt" stroke="#262626" stroke-opacity="0.15" points="74.8799,91.0801 521.28,91.0801" stroke-dasharray="16,0" fill="none"/>
   <polyline stroke-linejoin="miter" stroke-width="0.5" stroke-linecap="butt" stroke="#262626" stroke-opacity="0.15" points="74.8799,32.3999 521.28,32.3999" stroke-dasharray="16,0" fill="none"/>
   <polyline stroke-linejoin="miter" stroke-width="0.5" stroke-linecap="butt" stroke="#262626" points="74.8799,384.48 79.3481,384.48" fill="none"/>
   <polyline stroke-linejoin="miter" stroke-width="0.5" stroke-linecap="butt" stroke="#262626" points="521.28,384.48 516.812,384.48" fill="none"/>
   <polyline stroke-linejoin="miter" stroke-width="0.5" stroke-linecap="butt" stroke="#262626" points="74.8799,325.8 79.3481,325.8" fill="none"/>
   <polyline stroke-linejoin="miter" stroke-width="0.5" stroke-linecap="butt" stroke="#262626" points="521.28,325.8 516.812,325.8" fill="none"/>
   <polyline stroke-linejoin="miter" stroke-width="0.5" stroke-linecap="butt" stroke="#262626" points="74.8799,267.12 79.3481,267.12" fill="none"/>
   <polyline stroke-linejoin="miter" stroke-width="0.5" stroke-linecap="butt" stroke="#262626" points="521.28,267.12 516.812,267.12" fill="none"/>
   <polyline stroke-linejoin="miter" stroke-width="0.5" stroke-linecap="butt" stroke="#262626" points="74.8799,208.44 79.3481,208.44" fill="none"/>
   <polyline stroke-linejoin="miter" stroke-width="0.5" stroke-linecap="butt" stroke="#262626" points="521.28,208.44 516.812,208.44" fill="none"/>
   <polyline stroke-linejoin="miter" stroke-width="0.5" stroke-linecap="butt" stroke="#262626" points="74.8799,149.76 79.3481,149.76" fill="none"/>
   <polyline stroke-linejoin="miter" stroke-width="0.5" stroke-linecap="butt" stroke="#262626" points="521.28,149.76 516.812,149.76" fill="none"/>
   <polyline stroke-linejoin="miter" stroke-width="0.5" stroke-linecap="butt" stroke="#262626" points="74.8799,91.0801 79.3481,91.0801" fill="none"/>
   <polyline stroke-linejoin="miter" stroke-width="0.5" stroke-linecap="butt" stroke="#262626" points="521.28,91.0801 516.812,91.0801" fill="none"/>
   <polyline stroke-linejoin="miter" stroke-width="0.5" stroke-linecap="butt" stroke="#262626" points="74.8799,32.3999 79.3481,32.3999" fill="none"/>
   <polyline stroke-linejoin="miter" stroke-width="0.5" stroke-linecap="butt" stroke="#262626" points="521.28,32.3999 516.812,32.3999" fill="none"/>
   <text transform="translate(63.8755,388.48) rotate(-0,6,-4)" font-weight="normal" font-size="10" font-style="normal" xml:space="preserve" font-family="FreeSans">
    <tspan x="0 " y="-0" fill="rgb(38,38,38)">0</tspan>
   </text>
   <text transform="translate(45.8755,329.8) rotate(-0,24,-4)" font-weight="normal" font-size="10" font-style="normal" xml:space="preserve" font-family="FreeSans">
    <tspan x="0 6 12 18 " y="-0" fill="rgb(38,38,38)">5000</tspan>
   </text>
   <text transform="translate(39.8755,271.12) rotate(-0,30,-4)" font-weight="normal" font-size="10" font-style="normal" xml:space="preserve" font-family="FreeSans">
    <tspan x="0 6 12 18 24 " y="-0" fill="rgb(38,38,38)">10000</tspan>
   </text>
   <text transform="translate(39.8755,212.44) rotate(-0,30,-4)" font-weight="normal" font-size="10" font-style="normal" xml:space="preserve" font-family="FreeSans">
    <tspan x="0 6 12 18 24 " y="-0" fill="rgb(38,38,38)">15000</tspan>
   </text>
   <text transform="translate(39.8755,153.76) rotate(-0,30,-4)" font-weight="normal" font-size="10" font-style="normal" xml:space="preserve" font-family="FreeSans">
    <tspan x="0 6 12 18 24 " y="-0" fill="rgb(38,38,38)">20000</tspan>
   </text>
   <text transform="translate(39.8755,95.08) rotate(-0,30,-4)" font-weight="normal" font-size="10" font-style="normal" xml:space="preserve" font-family="FreeSans">
    <tspan x="0 6 12 18 24 " y="-0" fill="rgb(38,38,38)">25000</tspan>
   </text>
   <text transform="translate(39.8755,36.4) rotate(-0,30,-4)" font-weight="normal" font-size="10" font-style="normal" xml:space="preserve" font-family="FreeSans">
    <tspan x="0 6 12 18 24 " y="-0" fill="rgb(38,38,38)">30000</tspan>
   </text>
   <polyline stroke-linejoin="miter" stroke-width="0.5" stroke-linecap="square" stroke="#262626" points="74.8799,384.48 521.28,384.48" stroke-dasharray="16,0" fill="none"/>
   <polyline stroke-linejoin="miter" stroke-width="0.5" stroke-linecap="square" stroke="#262626" points="74.8799,32.3999 521.28,32.3999" stroke-dasharray="16,0" fill="none"/>
   <polyline stroke-linejoin="miter" stroke-width="0.5" stroke-linecap="square" stroke="#262626" points="74.8799,384.48 74.8799,32.3999" stroke-dasharray="16,0" fill="none"/>
   <polyline stroke-linejoin="miter" stroke-width="0.5" stroke-linecap="square" stroke="#262626" points="521.28,384.48 521.28,32.3999" stroke-dasharray="16,0" fill="none"/>
   <text transform="translate(270.58,22.4) rotate(-0,27.5,0)" font-weight="bold" font-size="11" font-style="normal" xml:space="preserve" font-family="FreeSans">
    <tspan x="0 6 12 18 25 31 37 43 49 " y="-3" fill="rgb(0,0,0)">secp256k1</tspan>
   </text>
   <polyline stroke-linejoin="round" stroke-width="0.5" stroke-linecap="butt" stroke="#0071bc" points="74.8799,384.48 75.3257,384.451 75.771,384.449 76.2163,384.447 76.6621,384.435 77.1074,384.412 77.5532,384.381 77.9985,384.345 78.4438,384.305 78.8896,384.26 79.335,384.213 79.7808,384.162 80.2261,384.107 80.6719,384.051 81.1172,383.991 81.5625,383.929 82.0083,383.864 82.4536,383.797 82.8989,383.728 83.3447,383.657 83.79,383.583 84.2358,383.507 84.6812,383.43 85.127,383.35 85.5723,383.269 86.0176,383.185 86.4634,383.1 86.9087,383.013 87.3545,382.924 87.7998,382.833 88.2451,382.741 88.6909,382.647 89.1362,382.551 89.582,382.454 90.0273,382.355 90.4727,382.255 90.9185,382.153 91.3638,382.05 91.8096,381.945 92.2549,381.838 92.7002,381.73 93.146,381.622 93.5913,381.511 94.0371,381.399 94.4824,381.286 94.9277,381.171 95.3735,381.055 95.8188,380.937 96.2646,380.818 96.71,380.698 97.1553,380.577 97.6011,380.455 98.0464,380.331 98.4922,380.206 98.9375,380.079 99.3828,379.952 99.8286,379.823 100.274,379.693 100.72,379.562 101.165,379.429 101.61,379.296 102.056,379.161 102.501,379.025 102.947,378.889 103.393,378.75 103.838,378.611 104.284,378.471 104.729,378.33 105.175,378.188 105.62,378.044 106.065,377.899 106.511,377.753 106.957,377.606 107.402,377.459 107.848,377.31 108.293,377.16 108.739,377.009 109.184,376.857 109.63,376.704 110.075,376.55 110.521,376.396 110.966,376.239 111.412,376.083 111.857,375.924 112.303,375.766 112.748,375.605 113.194,375.445 113.639,375.283 114.085,375.12 114.53,374.957 114.976,374.792 115.421,374.626 115.867,374.459 116.312,374.292 116.758,374.124 117.203,373.955 117.649,373.784 118.094,373.613 118.54,373.441 118.985,373.268 119.431,373.094 119.876,372.919 120.322,372.744 120.768,372.567 121.213,372.39 121.658,372.212 122.104,372.033 122.549,371.853 122.995,371.672 123.44,371.49 123.886,371.308 124.332,371.125 124.777,370.94 125.223,370.755 125.668,370.569 126.114,370.383 126.559,370.195 127.004,370.007 127.45,369.817 127.896,369.627 128.341,369.437 128.787,369.245 129.232,369.053 129.678,368.859 130.123,368.666 130.569,368.471 131.014,368.275 131.459,368.079 131.905,367.881 132.351,367.683 132.796,367.484 133.242,367.285 133.687,367.084 134.133,366.883 134.578,366.682 135.024,366.479 135.469,366.275 135.915,366.071 136.36,365.866 136.806,365.661 137.251,365.455 137.697,365.247 138.142,365.039 138.588,364.831 139.033,364.621 139.479,364.411 139.924,364.2 140.37,363.989 140.815,363.776 141.261,363.563 141.707,363.349 142.152,363.135 142.597,362.919 143.043,362.704 143.488,362.487 143.934,362.27 144.379,362.051 144.825,361.833 145.271,361.613 145.716,361.393 146.162,361.172 146.607,360.95 147.052,360.728 147.498,360.505 147.943,360.281 148.389,360.057 148.834,359.832 149.28,359.606 149.726,359.379 150.171,359.152 150.617,358.924 151.062,358.696 151.507,358.467 151.953,358.237 152.398,358.006 152.844,357.775 153.29,357.543 153.735,357.311 154.181,357.078 154.626,356.844 155.072,356.609 155.517,356.374 155.963,356.138 156.408,355.901 156.854,355.665 157.299,355.427 157.745,355.188 158.19,354.949 158.636,354.709 159.081,354.469 159.527,354.228 159.972,353.986 160.418,353.744 160.863,353.501 161.309,353.257 161.754,353.013 162.2,352.768 162.646,352.522 163.091,352.276 163.536,352.03 163.982,351.782 164.427,351.534 164.873,351.286 165.318,351.036 165.764,350.787 166.209,350.536 166.655,350.285 167.101,350.033 167.546,349.781 167.991,349.528 168.437,349.274 168.882,349.02 169.328,348.765 169.773,348.51 170.219,348.254 170.665,347.997 171.11,347.74 171.556,347.482 172.001,347.224 172.446,346.964 172.892,346.705 173.337,346.445 173.783,346.184 174.229,345.922 174.674,345.661 175.12,345.398 175.565,345.135 176.011,344.871 176.456,344.606 176.901,344.342 177.347,344.076 177.792,343.81 178.238,343.543 178.684,343.276 179.129,343.008 179.575,342.74 180.02,342.471 180.466,342.201 180.911,341.931 181.356,341.66 181.802,341.389 182.248,341.117 182.693,340.845 183.139,340.572 183.584,340.298 184.03,340.024 184.475,339.75 184.921,339.474 185.366,339.198 185.812,338.922 186.257,338.645 186.703,338.368 187.148,338.089 187.594,337.811 188.039,337.532 188.485,337.252 188.93,336.972 189.376,336.691 189.821,336.409 190.267,336.127 190.712,335.845 191.158,335.562 191.604,335.278 192.049,334.994 192.494,334.709 192.94,334.424 193.385,334.139 193.831,333.852 194.276,333.565 194.722,333.278 195.167,332.99 195.613,332.702 196.059,332.413 196.504,332.123 196.949,331.833 197.395,331.542 197.84,331.251 198.286,330.959 198.731,330.667 199.177,330.375 199.623,330.082 200.068,329.788 200.514,329.493 200.959,329.199 201.405,328.903 201.85,328.607 202.295,328.311 202.741,328.014 203.187,327.716 203.632,327.418 204.078,327.12 204.523,326.821 204.969,326.521 205.414,326.222 205.86,325.921 206.305,325.62 206.75,325.318 207.196,325.016 207.642,324.713 208.087,324.41 208.533,324.107 208.978,323.803 209.424,323.498 209.869,323.193 210.315,322.887 210.76,322.581 211.206,322.274 211.651,321.967 212.097,321.659 212.542,321.351 212.988,321.042 213.433,320.733 213.879,320.424 214.324,320.113 214.77,319.803 215.215,319.492 215.661,319.18 216.106,318.868 216.552,318.555 216.998,318.242 217.443,317.928 217.888,317.614 218.334,317.299 218.779,316.984 219.225,316.668 219.67,316.352 220.116,316.036 220.562,315.719 221.007,315.401 221.453,315.083 221.898,314.764 222.343,314.445 222.789,314.125 223.234,313.806 223.68,313.485 224.125,313.164 224.571,312.843 225.017,312.521 225.462,312.198 225.908,311.875 226.353,311.552 226.798,311.228 227.244,310.904 227.689,310.579 228.135,310.253 228.581,309.928 229.026,309.602 229.472,309.274 229.917,308.947 230.363,308.62 230.808,308.292 231.253,307.963 231.699,307.634 232.145,307.304 232.59,306.974 233.036,306.644 233.481,306.312 233.927,305.981 234.372,305.649 234.818,305.317 235.263,304.984 235.709,304.651 236.154,304.317 236.6,303.983 237.045,303.648 237.491,303.313 237.937,302.977 238.382,302.641 238.827,302.305 239.273,301.968 239.718,301.63 240.164,301.292 240.609,300.954 241.055,300.615 241.5,300.276 241.946,299.936 242.392,299.596 242.837,299.255 243.282,298.914 243.728,298.572 244.173,298.23 244.619,297.888 245.064,297.545 245.51,297.202 245.956,296.857 246.401,296.513 246.847,296.168 247.292,295.823 247.737,295.478 248.183,295.132 248.628,294.785 249.074,294.438 249.52,294.091 249.965,293.743 250.411,293.395 250.856,293.046 251.302,292.696 251.747,292.347 252.192,291.997 252.638,291.646 253.083,291.295 253.529,290.944 253.975,290.592 254.42,290.24 254.866,289.887 255.311,289.534 255.757,289.18 256.202,288.826 256.647,288.472 257.093,288.117 257.539,287.761 257.984,287.406 258.43,287.049 258.875,286.692 259.321,286.335 259.766,285.978 260.212,285.62 260.657,285.262 261.103,284.903 261.548,284.543 261.994,284.184 262.439,283.824 262.885,283.463 263.33,283.102 263.776,282.741 264.221,282.379 264.667,282.017 265.112,281.654 265.558,281.291 266.003,280.927 266.449,280.563 266.895,280.199 267.34,279.834 267.785,279.469 268.231,279.103 268.676,278.737 269.122,278.371 269.567,278.003 270.013,277.636 270.458,277.268 270.904,276.9 271.35,276.531 271.795,276.163 272.241,275.793 272.686,275.423 273.131,275.053 273.577,274.682 274.022,274.311 274.468,273.939 274.914,273.567 275.359,273.195 275.805,272.822 276.25,272.449 276.696,272.075 277.141,271.701 277.586,271.327 278.032,270.952 278.478,270.577 278.923,270.201 279.369,269.825 279.814,269.448 280.26,269.071 280.705,268.694 281.151,268.316 281.596,267.938 282.042,267.559 282.487,267.18 282.933,266.801 283.378,266.421 283.824,266.041 284.269,265.66 284.715,265.279 285.16,264.897 285.606,264.516 286.051,264.134 286.497,263.751 286.942,263.368 287.388,262.984 287.833,262.601 288.279,262.216 288.724,261.832 289.17,261.446 289.615,261.061 290.061,260.675 290.506,260.289 290.952,259.902 291.397,259.515 291.843,259.127 292.289,258.74 292.734,258.352 293.179,257.963 293.625,257.574 294.07,257.184 294.516,256.794 294.961,256.404 295.407,256.013 295.853,255.622 296.298,255.231 296.744,254.839 297.189,254.447 297.634,254.054 298.08,253.661 298.525,253.268 298.971,252.874 299.417,252.479 299.862,252.085 300.308,251.69 300.753,251.294 301.199,250.898 301.644,250.502 302.089,250.106 302.535,249.709 302.98,249.312 303.426,248.914 303.872,248.516 304.317,248.117 304.763,247.718 305.208,247.319 305.654,246.919 306.099,246.519 306.545,246.119 306.99,245.718 307.436,245.316 307.881,244.915 308.327,244.513 308.772,244.11 309.218,243.708 309.663,243.305 310.109,242.901 310.554,242.497 311,242.093 311.445,241.688 311.891,241.283 312.336,240.877 312.782,240.472 313.228,240.065 313.673,239.659 314.118,239.252 314.564,238.845 315.009,238.437 315.455,238.029 315.9,237.62 316.346,237.211 316.792,236.802 317.237,236.392 317.683,235.982 318.128,235.572 318.573,235.161 319.019,234.75 319.464,234.338 319.91,233.926 320.355,233.514 320.801,233.102 321.247,232.688 321.692,232.275 322.138,231.861 322.583,231.447 323.028,231.033 323.474,230.618 323.919,230.203 324.365,229.787 324.811,229.371 325.256,228.954 325.702,228.538 326.147,228.121 326.593,227.703 327.038,227.285 327.483,226.867 327.929,226.448 328.375,226.029 328.82,225.61 329.266,225.19 329.711,224.77 330.157,224.35 330.602,223.929 331.048,223.507 331.493,223.086 331.938,222.664 332.384,222.242 332.83,221.819 333.275,221.396 333.721,220.972 334.166,220.549 334.612,220.125 335.057,219.7 335.503,219.275 335.948,218.85 336.394,218.424 336.839,217.999 337.285,217.572 337.73,217.146 338.176,216.718 338.621,216.291 339.067,215.863 339.512,215.435 339.958,215.006 340.403,214.578 340.849,214.148 341.294,213.719 341.74,213.289 342.186,212.858 342.631,212.428 343.077,211.997 343.522,211.565 343.967,211.134 344.413,210.702 344.858,210.269 345.304,209.836 345.75,209.403 346.195,208.97 346.641,208.536 347.086,208.102 347.531,207.667 347.977,207.232 348.422,206.796 348.868,206.361 349.313,205.925 349.759,205.488 350.205,205.052 350.65,204.615 351.096,204.177 351.541,203.739 351.987,203.301 352.432,202.863 352.877,202.424 353.323,201.984 353.769,201.545 354.214,201.105 354.66,200.665 355.105,200.224 355.551,199.783 355.996,199.342 356.442,198.9 356.887,198.458 357.333,198.016 357.778,197.573 358.224,197.13 358.669,196.687 359.115,196.243 359.56,195.798 360.006,195.354 360.451,194.909 360.897,194.464 361.342,194.019 361.788,193.573 362.233,193.126 362.679,192.68 363.125,192.233 363.57,191.786 364.015,191.338 364.461,190.89 364.906,190.442 365.352,189.993 365.797,189.544 366.243,189.095 366.688,188.645 367.134,188.195 367.58,187.745 368.025,187.294 368.47,186.843 368.916,186.392 369.361,185.94 369.807,185.488 370.252,185.035 370.698,184.583 371.144,184.129 371.589,183.676 372.035,183.222 372.48,182.768 372.925,182.313 373.371,181.859 373.816,181.404 374.262,180.948 374.708,180.492 375.153,180.036 375.599,179.58 376.044,179.123 376.49,178.666 376.935,178.208 377.381,177.75 377.826,177.292 378.271,176.833 378.717,176.375 379.163,175.916 379.608,175.456 380.054,174.996 380.499,174.536 380.945,174.075 381.39,173.614 381.836,173.153 382.281,172.691 382.727,172.229 383.172,171.767 383.618,171.305 384.063,170.842 384.509,170.378 384.954,169.915 385.4,169.451 385.845,168.987 386.291,168.522 386.736,168.057 387.182,167.592 387.627,167.126 388.073,166.66 388.519,166.194 388.964,165.728 389.409,165.261 389.855,164.793 390.3,164.326 390.746,163.858 391.191,163.39 391.637,162.921 392.083,162.452 392.528,161.983 392.974,161.513 393.419,161.043 393.864,160.573 394.31,160.103 394.755,159.632 395.201,159.161 395.646,158.689 396.092,158.217 396.538,157.745 396.983,157.272 397.429,156.799 397.874,156.326 398.319,155.853 398.765,155.379 399.21,154.905 399.656,154.43 400.102,153.956 400.547,153.48 400.993,153.005 401.438,152.529 401.884,152.053 402.329,151.577 402.774,151.1 403.22,150.623 403.666,150.145 404.111,149.667 404.557,149.189 405.002,148.711 405.448,148.232 405.893,147.753 406.339,147.274 406.784,146.794 407.229,146.314 407.675,145.834 408.121,145.353 408.566,144.872 409.012,144.391 409.457,143.909 409.903,143.427 410.348,142.945 410.794,142.462 411.239,141.979 411.685,141.496 412.13,141.013 412.576,140.529 413.021,140.045 413.467,139.56 413.912,139.075 414.358,138.59 414.803,138.105 415.249,137.619 415.694,137.133 416.14,136.646 416.585,136.16 417.031,135.673 417.477,135.185 417.922,134.698 418.368,134.209 418.813,133.721 419.258,133.232 419.704,132.744 420.149,132.254 420.595,131.765 421.041,131.275 421.486,130.785 421.932,130.294 422.377,129.803 422.823,129.312 423.268,128.82 423.713,128.329 424.159,127.836 424.604,127.344 425.05,126.852 425.496,126.358 425.941,125.865 426.387,125.371 426.832,124.877 427.277,124.383 427.723,123.888 428.168,123.393 428.614,122.898 429.06,122.402 429.505,121.907 429.951,121.41 430.396,120.914 430.842,120.417 431.287,119.92 431.733,119.422 432.178,118.925 432.624,118.427 433.069,117.928 433.515,117.43 433.96,116.931 434.406,116.431 434.851,115.932 435.297,115.432 435.742,114.931 436.188,114.431 436.633,113.93 437.079,113.429 437.524,112.927 437.97,112.425 438.416,111.923 438.861,111.421 439.306,110.918 439.752,110.415 440.197,109.912 440.643,109.408 441.088,108.904 441.534,108.4 441.979,107.896 442.425,107.391 442.871,106.885 443.316,106.38 443.761,105.874 444.207,105.368 444.652,104.862 445.098,104.355 445.543,103.848 445.989,103.341 446.435,102.833 446.88,102.325 447.326,101.817 447.771,101.308 448.216,100.799 448.662,100.291 449.107,99.7808 449.553,99.271 449.999,98.7612 450.444,98.2505 450.89,97.7402 451.335,97.229 451.781,96.7178 452.226,96.2061 452.672,95.6943 453.117,95.1821 453.562,94.6699 454.008,94.1567 454.454,93.6436 454.899,93.1304 455.345,92.6167 455.79,92.1025 456.236,91.5884 456.681,91.0737 457.127,90.5591 457.572,90.0439 458.018,89.5283 458.463,89.0122 458.909,88.4961 459.354,87.98 459.8,87.4634 460.245,86.9463 460.691,86.4287 461.136,85.9111 461.582,85.3936 462.027,84.875 462.473,84.3569 462.918,83.8379 463.364,83.3188 463.81,82.7993 464.255,82.2798 464.7,81.7598 465.146,81.2393 465.591,80.7188 466.037,80.1982 466.482,79.6768 466.928,79.1553 467.374,78.6338 467.819,78.1113 468.265,77.5889 468.71,77.0664 469.155,76.5435 469.601,76.0205 470.046,75.4966 470.492,74.9727 470.938,74.4487 471.383,73.9243 471.829,73.3994 472.274,72.8745 472.72,72.3491 473.165,71.8237 473.61,71.2979 474.056,70.7715 474.501,70.2451 474.947,69.7183 475.393,69.1909 475.838,68.6636 476.284,68.1357 476.729,67.6079 477.175,67.0796 477.62,66.5513 478.065,66.0225 478.511,65.4932 478.957,64.9639 479.402,64.4341 479.848,63.9038 480.293,63.3735 480.739,62.8433 481.184,62.312 481.63,61.7808 482.075,61.2495 482.521,60.7178 482.966,60.1855 483.412,59.6533 483.857,59.1206 484.303,58.5879 484.748,58.0547 485.194,57.521 485.639,56.9873 486.085,56.4531 486.53,55.9185 486.976,55.3838 487.421,54.8491 487.867,54.314 488.312,53.7783 488.758,53.2422 489.203,52.7061 489.649,52.1699 490.094,51.6333 490.54,51.0962 490.985,50.5586 491.431,50.0215 491.876,49.4834 492.322,48.9453 492.768,48.4067 493.213,47.8682 493.658,47.3291 494.104,46.79 494.549,46.25 494.995,45.7104 495.44,45.1699 495.886,44.6299 496.332,44.0889 496.777,43.5479 497.223,43.0068 497.668,42.4648 498.113,41.9233 498.559,41.3809 499.004,40.8384 499.45,40.2959 499.896,39.7529 500.341,39.2095 500.787,38.666 501.232,38.1221 501.678,37.5781 502.123,37.0332 502.569,36.4888 503.014,35.9438 503.459,35.3984 503.905,34.853 504.351,34.3071 504.796,33.7607 505.242,33.2144 505.687,32.6675 506.133,32.1206 506.192,32.0479" fill="none"/>
   <polyline stroke-linejoin="round" stroke-width="0.5" stroke-linecap="butt" stroke="#d85218" points="74.8799,384.48 75.3257,384.509 75.771,384.511 76.2163,384.513 76.6621,384.525 77.1074,384.548 77.5532,384.579 77.9985,384.615 78.4438,384.655 78.8896,384.7 79.335,384.748 79.7808,384.798 80.0581,384.832" fill="none"/>
   <polyline stroke-linejoin="round" stroke-width="0.5" stroke-linecap="butt" stroke="#ecb01f" points="164.351,381.943 507.629,32.0479" fill="none"/>
   <text transform="translate(171.244,62.872) rotate(-0,-0,-7)" font-weight="normal" font-size="10" font-style="normal" xml:space="preserve" font-family="FreeSans">
    <tspan x="0 5 10 15 21 27 33 39 44 50 53 58 60 62 68 71 73 78 81 86 91 94 99 104 107 110 " y="-2" fill="rgb(0,0,0)">secp256k1 eliptic curve: y</tspan>
    <tspan x="115 " font-size="8" y="-7" fill="rgb(0,0,0)">2</tspan>
    <tspan x="119 125 128 " y="-2" fill="rgb(0,0,0)">= x</tspan>
    <tspan x="133 " font-size="8" y="-7" fill="rgb(0,0,0)">3</tspan>
    <tspan x="137 143 " y="-2" fill="rgb(0,0,0)">+7</tspan>
   </text>
   <text transform="translate(198.286,362.14) rotate(-0,-0,-7)" font-weight="normal" font-size="10" font-style="normal" xml:space="preserve" font-family="FreeSans">
    <tspan x="0 3 5 10 15 18 21 26 29 34 37 40 45 47 53 58 61 64 66 68 73 78 81 84 89 92 97 102 107 114 117 120 125 130 133 136 141 146 149 154 162 167 172 177 180 183 188 191 194 199 204 207 212 217 220 225 228 233 236 241 244 247 " y="-2" fill="rgb(0,0,0)">(just a straight line to show the the amount of curvature of y</tspan>
    <tspan x="252 " font-size="8" y="-7" fill="rgb(0,0,0)">2</tspan>
    <tspan x="256 262 265 " y="-2" fill="rgb(0,0,0)">= x</tspan>
    <tspan x="270 " font-size="8" y="-7" fill="rgb(0,0,0)">3</tspan>
    <tspan x="274 280 286 " y="-2" fill="rgb(0,0,0)">+7)</tspan>
   </text>
  </g>
 </g>
</svg>
