<?xml version="1.0" encoding="UTF-8" standalone="no"?>
<!DOCTYPE svg PUBLIC "-//W3C//DTD SVG 1.1//EN"
 "http://www.w3.org/Graphics/SVG/1.1/DTD/svg11.dtd">
<!-- Generated by graphviz version 2.43.0 (0)
 -->
<!-- Title: A Pages: 1 -->
<svg width="418pt" height="61pt"
 viewBox="0.00 0.00 418.00 61.00" xmlns="http://www.w3.org/2000/svg" xmlns:xlink="http://www.w3.org/1999/xlink">
<g id="graph0" class="graph" transform="scale(1 1) rotate(0) translate(4 57)">
<title>A</title>
<polygon fill="white" stroke="transparent" points="-4,4 -4,-57 414,-57 414,4 -4,4"/>
<!-- oracle -->
<g id="node1" class="node">
<title>oracle</title>
<polygon fill="none" stroke="black" points="317,-53 205,-53 205,0 317,0 317,-53"/>
<text text-anchor="middle" x="261" y="-37.8" font-family="Helvetica,sans-Serif" font-size="14.00">oracle</text>
<text text-anchor="middle" x="261" y="-22.8" font-family="Helvetica,sans-Serif" font-size="14.00">contract</text>
<text text-anchor="middle" x="261" y="-7.8" font-family="Helvetica,sans-Serif" font-size="14.00">priceUpdate()</text>
</g>
<!-- output -->
<g id="node3" class="node">
<title>output</title>
<text text-anchor="middle" x="382" y="-30.3" font-family="Helvetica,sans-Serif" font-size="14.00">price:</text>
<text text-anchor="middle" x="382" y="-15.3" font-family="Helvetica,sans-Serif" font-size="14.00">$100</text>
</g>
<!-- oracle&#45;&gt;output -->
<g id="edge2" class="edge">
<title>oracle&#45;&gt;output</title>
<path fill="none" stroke="black" d="M317.32,-26.5C326.28,-26.5 335.37,-26.5 343.77,-26.5"/>
<polygon fill="black" stroke="black" points="343.97,-30 353.97,-26.5 343.97,-23 343.97,-30"/>
</g>
<!-- signer -->
<g id="node2" class="node">
<title>signer</title>
<text text-anchor="middle" x="30" y="-22.8" font-family="Helvetica,sans-Serif" font-size="14.00">signer</text>
</g>
<!-- signer&#45;&gt;oracle -->
<g id="edge1" class="edge">
<title>signer&#45;&gt;oracle</title>
<path fill="none" stroke="black" d="M60,-26.5C93.61,-26.5 150.05,-26.5 194.42,-26.5"/>
<polygon fill="black" stroke="black" points="194.55,-30 204.55,-26.5 194.55,-23 194.55,-30"/>
<text text-anchor="middle" x="132.5" y="-30.3" font-family="Helvetica,sans-Serif" font-size="14.00">update($100.0)</text>
</g>
</g>
</svg>
