<?xml version="1.0" encoding="UTF-8" standalone="no"?>
<!DOCTYPE svg PUBLIC "-//W3C//DTD SVG 1.1//EN"
 "http://www.w3.org/Graphics/SVG/1.1/DTD/svg11.dtd">
<!-- Generated by graphviz version 2.43.0 (0)
 -->
<!-- Title: H Pages: 1 -->
<svg width="205pt" height="305pt"
 viewBox="0.00 0.00 204.75 305.00" xmlns="http://www.w3.org/2000/svg" xmlns:xlink="http://www.w3.org/1999/xlink">
<g id="page0,1_graph0" class="graph" transform="scale(1 1) rotate(0) translate(16.85 301)">
<title>H</title>
<polygon fill="white" stroke="transparent" points="-16.85,4 -16.85,-301 187.89,-301 187.89,4 -16.85,4"/>
<!-- end -->
<!-- g2 -->
<g id="node2" class="node">
<title>g2</title>
<ellipse fill="none" stroke="black" cx="91" cy="-187" rx="18" ry="18"/>
<text text-anchor="middle" x="91" y="-183.3" font-family="Helvetica,sans-Serif" font-size="14.00">x</text>
</g>
<!-- g2&#45;&gt;end -->
<g id="edge7" class="edge">
<title>g2&#45;&gt;end</title>
<path fill="none" stroke="darkgreen" d="M91,-205.32C91,-227.4 91,-263.9 91,-282.8"/>
<polygon fill="darkgreen" stroke="darkgreen" points="87.5,-283 91,-293 94.5,-283 87.5,-283"/>
<text text-anchor="start" x="-12" y="-248.86" font-family="Helvetica,sans-Serif" font-size="14.00" fill="darkgreen">O</text>
<text text-anchor="start" x="0" y="-248.86" font-family="Helvetica,sans-Serif" baseline-shift="sub" font-size="14.00" fill="darkgreen">5</text>
<text text-anchor="start" x="8" y="-248.86" font-family="Helvetica,sans-Serif" font-size="14.00" fill="darkgreen">=40%11=7</text>
</g>
<!-- g1 -->
<g id="node3" class="node">
<title>g1</title>
<ellipse fill="none" stroke="black" cx="55" cy="-97" rx="18" ry="18"/>
<text text-anchor="middle" x="55" y="-93.3" font-family="Helvetica,sans-Serif" font-size="14.00">x</text>
</g>
<!-- g1&#45;&gt;g2 -->
<g id="edge5" class="edge">
<title>g1&#45;&gt;g2</title>
<path fill="none" stroke="#8b4726" d="M61.77,-113.93C67.05,-127.13 74.48,-145.69 80.52,-160.81"/>
<polygon fill="#8b4726" stroke="#8b4726" points="77.3,-162.16 84.26,-170.15 83.79,-159.56 77.3,-162.16"/>
<text text-anchor="start" x="-12.85" y="-142.17" font-family="Helvetica,sans-Serif" font-size="14.00" fill="#8b4726">O</text>
<text text-anchor="start" x="-0.85" y="-142.17" font-family="Helvetica,sans-Serif" baseline-shift="sub" font-size="14.00" fill="#8b4726">4</text>
<text text-anchor="start" x="7.15" y="-142.17" font-family="Helvetica,sans-Serif" font-size="14.00" fill="#8b4726">=8,L</text>
<text text-anchor="start" x="41.15" y="-142.17" font-family="Helvetica,sans-Serif" baseline-shift="sub" font-size="14.00" fill="#8b4726">4</text>
<text text-anchor="start" x="49.15" y="-142.17" font-family="Helvetica,sans-Serif" font-size="14.00" fill="#8b4726">=8</text>
</g>
<!-- g3 -->
<!-- g3&#45;&gt;g2 -->
<g id="edge6" class="edge">
<title>g3&#45;&gt;g2</title>
<path fill="none" stroke="#551a8b" d="M126.25,-98.88C123.1,-106.74 110.74,-137.66 101.54,-160.66"/>
<polygon fill="#551a8b" stroke="#551a8b" points="98.29,-159.36 97.82,-169.95 104.79,-161.96 98.29,-159.36"/>
<text text-anchor="start" x="113.89" y="-134.57" font-family="Helvetica,sans-Serif" font-size="14.00" fill="#551a8b">R</text>
<text text-anchor="start" x="123.89" y="-134.57" font-family="Helvetica,sans-Serif" baseline-shift="sub" font-size="14.00" fill="#551a8b">1</text>
<text text-anchor="start" x="131.89" y="-134.57" font-family="Helvetica,sans-Serif" font-size="14.00" fill="#551a8b">+R</text>
<text text-anchor="start" x="153.89" y="-134.57" font-family="Helvetica,sans-Serif" baseline-shift="sub" font-size="14.00" fill="#551a8b">3</text>
<text text-anchor="start" x="161.89" y="-134.57" font-family="Helvetica,sans-Serif" font-size="14.00" fill="#551a8b">=5</text>
</g>
<!-- c1 -->
<g id="node5" class="node">
<title>c1</title>
<text text-anchor="middle" x="19" y="-3.3" font-family="Helvetica,sans-Serif" font-size="14.00" fill="red">c1=4</text>
</g>
<!-- c1&#45;&gt;g1 -->
<g id="edge1" class="edge">
<title>c1&#45;&gt;g1</title>
<path fill="none" stroke="red" d="M22.07,-14.67C26.99,-26.98 36.88,-51.7 44.54,-70.85"/>
<polygon fill="red" stroke="red" points="41.34,-72.28 48.31,-80.26 47.84,-69.68 41.34,-72.28"/>
<text text-anchor="start" x="-4.7" y="-47.56" font-family="Helvetica,sans-Serif" font-size="14.00" fill="red">L</text>
<text text-anchor="start" x="3.3" y="-47.56" font-family="Helvetica,sans-Serif" baseline-shift="sub" font-size="14.00" fill="red">1</text>
<text text-anchor="start" x="11.3" y="-47.56" font-family="Helvetica,sans-Serif" font-size="14.00" fill="red">=4</text>
</g>
<!-- c1&#45;&gt;g3 -->
<g id="edge2" class="edge">
<title>c1&#45;&gt;g3</title>
<path fill="none" stroke="red" d="M28.21,-14.67C48.54,-31.61 97.07,-72.06 117.59,-89.16"/>
<polygon fill="red" stroke="red" points="115.54,-92.01 125.47,-95.72 120.02,-86.63 115.54,-92.01"/>
<text text-anchor="start" x="72.9" y="-56.72" font-family="Helvetica,sans-Serif" font-size="14.00" fill="red">R</text>
<text text-anchor="start" x="82.9" y="-56.72" font-family="Helvetica,sans-Serif" baseline-shift="sub" font-size="14.00" fill="red">1</text>
<text text-anchor="start" x="90.9" y="-56.72" font-family="Helvetica,sans-Serif" font-size="14.00" fill="red">=4</text>
</g>
<!-- c2 -->
<g id="node6" class="node">
<title>c2</title>
<text text-anchor="middle" x="91" y="-3.3" font-family="Helvetica,sans-Serif" font-size="14.00" fill="blue">c2=2</text>
</g>
<!-- c2&#45;&gt;g1 -->
<g id="edge3" class="edge">
<title>c2&#45;&gt;g1</title>
<path fill="none" stroke="blue" d="M87.93,-14.67C83.01,-26.98 73.12,-51.7 65.46,-70.85"/>
<polygon fill="blue" stroke="blue" points="62.16,-69.68 61.69,-80.26 68.66,-72.28 62.16,-69.68"/>
<text text-anchor="start" x="36.7" y="-32.56" font-family="Helvetica,sans-Serif" font-size="14.00" fill="blue">R</text>
<text text-anchor="start" x="46.7" y="-32.56" font-family="Helvetica,sans-Serif" baseline-shift="sub" font-size="14.00" fill="blue">2</text>
<text text-anchor="start" x="54.7" y="-32.56" font-family="Helvetica,sans-Serif" font-size="14.00" fill="blue">=2</text>
</g>
<!-- c3 -->
<g id="node7" class="node">
<title>c3</title>
<text text-anchor="middle" x="163" y="-3.3" font-family="Helvetica,sans-Serif" font-size="14.00" fill="magenta">c3=1</text>
</g>
<!-- c3&#45;&gt;g3 -->
<g id="edge4" class="edge">
<title>c3&#45;&gt;g3</title>
<path fill="none" stroke="magenta" d="M159.93,-14.67C153.58,-30.56 138.95,-67.12 131.52,-85.71"/>
<polygon fill="magenta" stroke="magenta" points="128.17,-84.65 127.71,-95.23 134.67,-87.25 128.17,-84.65"/>
<text text-anchor="start" x="105.72" y="-39.99" font-family="Helvetica,sans-Serif" font-size="14.00" fill="magenta">R</text>
<text text-anchor="start" x="115.72" y="-39.99" font-family="Helvetica,sans-Serif" baseline-shift="sub" font-size="14.00" fill="magenta">3</text>
<text text-anchor="start" x="123.72" y="-39.99" font-family="Helvetica,sans-Serif" font-size="14.00" fill="magenta">=1</text>
</g>
</g>
</svg>
