<?xml version="1.0" encoding="UTF-8" standalone="no"?>
<!DOCTYPE svg PUBLIC "-//W3C//DTD SVG 1.1//EN"
 "http://www.w3.org/Graphics/SVG/1.1/DTD/svg11.dtd">
<!-- Generated by graphviz version 2.43.0 (0)
 -->
<!-- Title: E Pages: 1 -->
<svg width="170pt" height="331pt"
 viewBox="0.00 0.00 170.00 331.00" xmlns="http://www.w3.org/2000/svg" xmlns:xlink="http://www.w3.org/1999/xlink">
<g id="page0,1_graph0" class="graph" transform="scale(1 1) rotate(0) translate(4 327)">
<title>E</title>
<polygon fill="white" stroke="transparent" points="-4,4 -4,-327 166,-327 166,4 -4,4"/>
<!-- end -->
<!-- g2 -->
<g id="node2" class="node">
<title>g2</title>
<ellipse fill="none" stroke="black" cx="81" cy="-187" rx="18" ry="18"/>
<text text-anchor="middle" x="81" y="-183.3" font-family="Helvetica,sans-Serif" font-size="14.00">x</text>
<text text-anchor="start" x="45" y="-209.8" font-family="Helvetica,sans-Serif" font-size="14.00">g</text>
<text text-anchor="start" x="55" y="-209.8" font-family="Helvetica,sans-Serif" baseline-shift="sub" font-size="14.00">2</text>
</g>
<!-- g2&#45;&gt;end -->
<g id="edge7" class="edge">
<title>g2&#45;&gt;end</title>
<path fill="none" stroke="darkgreen" d="M81,-205.32C81,-219.28 81,-238.98 81,-256.37"/>
<polygon fill="darkgreen" stroke="darkgreen" points="77.5,-256.83 81,-266.83 84.5,-256.83 77.5,-256.83"/>
<text text-anchor="start" x="33" y="-235.65" font-family="Helvetica,sans-Serif" font-size="14.00" fill="darkgreen">c</text>
<text text-anchor="start" x="41" y="-235.65" font-family="Helvetica,sans-Serif" baseline-shift="sub" font-size="14.00" fill="darkgreen">5</text>
<text text-anchor="start" x="49" y="-235.65" font-family="Helvetica,sans-Serif" font-size="14.00" fill="darkgreen">=w</text>
<text text-anchor="start" x="73" y="-235.65" font-family="Helvetica,sans-Serif" baseline-shift="sub" font-size="14.00" fill="darkgreen">5</text>
</g>
<!-- g1 -->
<g id="node3" class="node">
<title>g1</title>
<ellipse fill="none" stroke="black" cx="45" cy="-97" rx="18" ry="18"/>
<text text-anchor="middle" x="45" y="-93.3" font-family="Helvetica,sans-Serif" font-size="14.00">x</text>
<text text-anchor="start" x="9" y="-119.8" font-family="Helvetica,sans-Serif" font-size="14.00">g</text>
<text text-anchor="start" x="19" y="-119.8" font-family="Helvetica,sans-Serif" baseline-shift="sub" font-size="14.00">1</text>
</g>
<!-- g1&#45;&gt;g2 -->
<g id="edge5" class="edge">
<title>g1&#45;&gt;g2</title>
<path fill="none" stroke="#8b4726" d="M51.77,-113.93C57.05,-127.13 64.48,-145.69 70.52,-160.81"/>
<polygon fill="#8b4726" stroke="#8b4726" points="67.3,-162.16 74.26,-170.15 73.79,-159.56 67.3,-162.16"/>
<text text-anchor="start" x="13.15" y="-142.17" font-family="Helvetica,sans-Serif" font-size="14.00" fill="#8b4726">c</text>
<text text-anchor="start" x="21.15" y="-142.17" font-family="Helvetica,sans-Serif" baseline-shift="sub" font-size="14.00" fill="#8b4726">4</text>
<text text-anchor="start" x="29.15" y="-142.17" font-family="Helvetica,sans-Serif" font-size="14.00" fill="#8b4726">=w</text>
<text text-anchor="start" x="53.15" y="-142.17" font-family="Helvetica,sans-Serif" baseline-shift="sub" font-size="14.00" fill="#8b4726">4</text>
</g>
<!-- g3 -->
<!-- g3&#45;&gt;g2 -->
<g id="edge6" class="edge">
<title>g3&#45;&gt;g2</title>
<path fill="none" stroke="#551a8b" d="M116.25,-98.88C113.1,-106.74 100.74,-137.66 91.54,-160.66"/>
<polygon fill="#551a8b" stroke="#551a8b" points="88.29,-159.36 87.82,-169.95 94.79,-161.96 88.29,-159.36"/>
</g>
<!-- c1 -->
<g id="node5" class="node">
<title>c1</title>
<text text-anchor="middle" x="9" y="-3.3" font-family="Helvetica,sans-Serif" font-size="14.00" fill="red">c1</text>
</g>
<!-- c1&#45;&gt;g1 -->
<g id="edge1" class="edge">
<title>c1&#45;&gt;g1</title>
<path fill="none" stroke="red" d="M12.07,-14.67C16.99,-26.98 26.88,-51.7 34.54,-70.85"/>
<polygon fill="red" stroke="red" points="31.34,-72.28 38.31,-80.26 37.84,-69.68 31.34,-72.28"/>
<text text-anchor="start" x="3.3" y="-47.56" font-family="Helvetica,sans-Serif" font-size="14.00" fill="red">w</text>
<text text-anchor="start" x="15.3" y="-47.56" font-family="Helvetica,sans-Serif" baseline-shift="sub" font-size="14.00" fill="red">1</text>
</g>
<!-- c1&#45;&gt;g3 -->
<g id="edge2" class="edge">
<title>c1&#45;&gt;g3</title>
<path fill="none" stroke="red" d="M17.84,-14.37C37.92,-31.1 86.82,-71.85 107.51,-89.09"/>
<polygon fill="red" stroke="red" points="105.53,-92 115.45,-95.71 110.01,-86.62 105.53,-92"/>
<text text-anchor="start" x="42.67" y="-56.53" font-family="Helvetica,sans-Serif" font-size="14.00" fill="red">w</text>
<text text-anchor="start" x="54.67" y="-56.53" font-family="Helvetica,sans-Serif" baseline-shift="sub" font-size="14.00" fill="red">1</text>
</g>
<!-- c2 -->
<g id="node6" class="node">
<title>c2</title>
<text text-anchor="middle" x="81" y="-3.3" font-family="Helvetica,sans-Serif" font-size="14.00" fill="blue">c2</text>
</g>
<!-- c2&#45;&gt;g1 -->
<g id="edge3" class="edge">
<title>c2&#45;&gt;g1</title>
<path fill="none" stroke="blue" d="M77.93,-14.67C73.01,-26.98 63.12,-51.7 55.46,-70.85"/>
<polygon fill="blue" stroke="blue" points="52.16,-69.68 51.69,-80.26 58.66,-72.28 52.16,-69.68"/>
<text text-anchor="start" x="46.7" y="-32.56" font-family="Helvetica,sans-Serif" font-size="14.00" fill="blue">w</text>
<text text-anchor="start" x="58.7" y="-32.56" font-family="Helvetica,sans-Serif" baseline-shift="sub" font-size="14.00" fill="blue">2</text>
</g>
<!-- c3 -->
<g id="node7" class="node">
<title>c3</title>
<text text-anchor="middle" x="153" y="-3.3" font-family="Helvetica,sans-Serif" font-size="14.00" fill="magenta">c3</text>
</g>
<!-- c3&#45;&gt;g3 -->
<g id="edge4" class="edge">
<title>c3&#45;&gt;g3</title>
<path fill="none" stroke="magenta" d="M149.93,-14.67C143.58,-30.56 128.95,-67.12 121.52,-85.71"/>
<polygon fill="magenta" stroke="magenta" points="118.17,-84.65 117.71,-95.23 124.67,-87.25 118.17,-84.65"/>
<text text-anchor="start" x="115.72" y="-54.99" font-family="Helvetica,sans-Serif" font-size="14.00" fill="magenta">w</text>
<text text-anchor="start" x="127.72" y="-54.99" font-family="Helvetica,sans-Serif" baseline-shift="sub" font-size="14.00" fill="magenta">3</text>
</g>
</g>
</svg>
