<?xml version="1.0" encoding="UTF-8" standalone="no"?>
<!DOCTYPE svg PUBLIC "-//W3C//DTD SVG 1.1//EN"
 "http://www.w3.org/Graphics/SVG/1.1/DTD/svg11.dtd">
<!-- Generated by graphviz version 2.43.0 (0)
 -->
<!-- Title: A Pages: 1 -->
<svg width="170pt" height="305pt"
 viewBox="0.00 0.00 170.00 305.00" xmlns="http://www.w3.org/2000/svg" xmlns:xlink="http://www.w3.org/1999/xlink">
<g id="graph0" class="graph" transform="scale(1 1) rotate(0) translate(4 301)">
<title>A</title>
<polygon fill="white" stroke="transparent" points="-4,4 -4,-301 166,-301 166,4 -4,4"/>
<!-- end -->
<!-- g2 -->
<g id="node2" class="node">
<title>g2</title>
<ellipse fill="none" stroke="black" cx="81" cy="-187" rx="18" ry="18"/>
<text text-anchor="middle" x="81" y="-183.3" font-family="Helvetica,sans-Serif" font-size="14.00">x</text>
</g>
<!-- g2&#45;&gt;end -->
<g id="edge7" class="edge">
<title>g2&#45;&gt;end</title>
<path fill="none" stroke="black" d="M81,-205.32C81,-227.4 81,-263.9 81,-282.8"/>
<polygon fill="black" stroke="black" points="77.5,-283 81,-293 84.5,-283 77.5,-283"/>
</g>
<!-- g1 -->
<g id="node3" class="node">
<title>g1</title>
<ellipse fill="none" stroke="black" cx="45" cy="-97" rx="18" ry="18"/>
<text text-anchor="middle" x="45" y="-93.3" font-family="Helvetica,sans-Serif" font-size="14.00">x</text>
</g>
<!-- g1&#45;&gt;g2 -->
<g id="edge5" class="edge">
<title>g1&#45;&gt;g2</title>
<path fill="none" stroke="black" d="M51.77,-113.93C57.05,-127.13 64.48,-145.69 70.52,-160.81"/>
<polygon fill="black" stroke="black" points="67.3,-162.16 74.26,-170.15 73.79,-159.56 67.3,-162.16"/>
</g>
<!-- g3 -->
<g id="node4" class="node">
<title>g3</title>
<ellipse fill="none" stroke="black" cx="117" cy="-97" rx="18.7" ry="18.7"/>
<text text-anchor="middle" x="117" y="-93.3" font-family="Helvetica,sans-Serif" font-size="14.00">+</text>
</g>
<!-- g3&#45;&gt;g2 -->
<g id="edge6" class="edge">
<title>g3&#45;&gt;g2</title>
<path fill="none" stroke="black" d="M109.89,-114.78C104.66,-127.85 97.47,-145.83 91.57,-160.57"/>
<polygon fill="black" stroke="black" points="88.2,-159.58 87.73,-170.17 94.7,-162.18 88.2,-159.58"/>
</g>
<!-- c1 -->
<g id="node5" class="node">
<title>c1</title>
<text text-anchor="middle" x="9" y="-3.3" font-family="Helvetica,sans-Serif" font-size="14.00">c1</text>
</g>
<!-- c1&#45;&gt;g1 -->
<g id="edge1" class="edge">
<title>c1&#45;&gt;g1</title>
<path fill="none" stroke="black" d="M12.07,-14.67C16.99,-26.98 26.88,-51.7 34.54,-70.85"/>
<polygon fill="black" stroke="black" points="31.34,-72.28 38.31,-80.26 37.84,-69.68 31.34,-72.28"/>
</g>
<!-- c1&#45;&gt;g3 -->
<g id="edge2" class="edge">
<title>c1&#45;&gt;g3</title>
<path fill="none" stroke="black" d="M17.84,-14.37C34.42,-28.18 70.67,-58.39 94.44,-78.2"/>
<polygon fill="black" stroke="black" points="92.36,-81.02 102.28,-84.73 96.84,-75.64 92.36,-81.02"/>
</g>
<!-- c2 -->
<g id="node6" class="node">
<title>c2</title>
<text text-anchor="middle" x="81" y="-3.3" font-family="Helvetica,sans-Serif" font-size="14.00">c2</text>
</g>
<!-- c2&#45;&gt;g1 -->
<g id="edge3" class="edge">
<title>c2&#45;&gt;g1</title>
<path fill="none" stroke="black" d="M77.93,-14.67C73.01,-26.98 63.12,-51.7 55.46,-70.85"/>
<polygon fill="black" stroke="black" points="52.16,-69.68 51.69,-80.26 58.66,-72.28 52.16,-69.68"/>
</g>
<!-- c3 -->
<g id="node7" class="node">
<title>c3</title>
<text text-anchor="middle" x="153" y="-3.3" font-family="Helvetica,sans-Serif" font-size="14.00">c3</text>
</g>
<!-- c3&#45;&gt;g3 -->
<g id="edge4" class="edge">
<title>c3&#45;&gt;g3</title>
<path fill="none" stroke="black" d="M149.93,-14.67C145.09,-26.76 135.47,-50.83 127.87,-69.83"/>
<polygon fill="black" stroke="black" points="124.58,-68.63 124.11,-79.22 131.08,-71.23 124.58,-68.63"/>
</g>
</g>
</svg>
