<?xml version="1.0" encoding="UTF-8" standalone="no"?>
<!DOCTYPE svg PUBLIC "-//W3C//DTD SVG 1.1//EN"
 "http://www.w3.org/Graphics/SVG/1.1/DTD/svg11.dtd">
<!-- Generated by graphviz version 2.43.0 (0)
 -->
<!-- Title: D Pages: 1 -->
<svg width="158pt" height="305pt"
 viewBox="0.00 0.00 158.00 305.00" xmlns="http://www.w3.org/2000/svg" xmlns:xlink="http://www.w3.org/1999/xlink">
<g id="page0,1_graph0" class="graph" transform="scale(1 1) rotate(0) translate(4 301)">
<title>D</title>
<polygon fill="white" stroke="transparent" points="-4,4 -4,-301 154,-301 154,4 -4,4"/>
<!-- end -->
<!-- g2 -->
<g id="node2" class="node">
<title>g2</title>
<ellipse fill="none" stroke="black" cx="75" cy="-187" rx="18" ry="18"/>
</g>
<!-- g2&#45;&gt;end -->
<g id="edge7" class="edge">
<title>g2&#45;&gt;end</title>
<path fill="none" stroke="black" d="M75,-205.32C75,-227.4 75,-263.9 75,-282.8"/>
<polygon fill="black" stroke="black" points="71.5,-283 75,-293 78.5,-283 71.5,-283"/>
</g>
<!-- g1 -->
<g id="node3" class="node">
<title>g1</title>
<ellipse fill="none" stroke="black" cx="39" cy="-97" rx="18" ry="18"/>
</g>
<!-- g1&#45;&gt;g2 -->
<g id="edge5" class="edge">
<title>g1&#45;&gt;g2</title>
<path fill="none" stroke="black" d="M45.77,-113.93C51.05,-127.13 58.48,-145.69 64.52,-160.81"/>
<polygon fill="black" stroke="black" points="61.3,-162.16 68.26,-170.15 67.79,-159.56 61.3,-162.16"/>
</g>
<!-- g3 -->
<!-- g3&#45;&gt;g2 -->
<g id="edge6" class="edge">
<title>g3&#45;&gt;g2</title>
<path fill="none" stroke="black" d="M110.25,-98.88C107.1,-106.74 94.74,-137.66 85.54,-160.66"/>
<polygon fill="black" stroke="black" points="82.29,-159.36 81.82,-169.95 88.79,-161.96 82.29,-159.36"/>
</g>
<!-- c1 -->
<g id="node5" class="node">
<title>c1</title>
<text text-anchor="middle" x="3" y="-3.3" font-family="Helvetica,sans-Serif" font-size="14.00"> </text>
</g>
<!-- c1&#45;&gt;g1 -->
<g id="edge1" class="edge">
<title>c1&#45;&gt;g1</title>
<path fill="none" stroke="black" d="M5.59,-13.47C10.31,-25.26 20.54,-50.85 28.45,-70.62"/>
<polygon fill="black" stroke="black" points="25.26,-72.06 32.22,-80.05 31.76,-69.46 25.26,-72.06"/>
</g>
<!-- c1&#45;&gt;g3 -->
<g id="edge2" class="edge">
<title>c1&#45;&gt;g3</title>
<path fill="none" stroke="black" d="M5.67,-9.22C18.97,-20.3 78.32,-69.77 101.59,-89.16"/>
<polygon fill="black" stroke="black" points="99.53,-92 109.45,-95.71 104.01,-86.62 99.53,-92"/>
</g>
<!-- c2 -->
<g id="node6" class="node">
<title>c2</title>
<text text-anchor="middle" x="75" y="-3.3" font-family="Helvetica,sans-Serif" font-size="14.00"> </text>
</g>
<!-- c2&#45;&gt;g1 -->
<g id="edge3" class="edge">
<title>c2&#45;&gt;g1</title>
<path fill="none" stroke="black" d="M72.41,-13.47C67.69,-25.26 57.46,-50.85 49.55,-70.62"/>
<polygon fill="black" stroke="black" points="46.24,-69.46 45.78,-80.05 52.74,-72.06 46.24,-69.46"/>
</g>
<!-- c3 -->
<g id="node7" class="node">
<title>c3</title>
<text text-anchor="middle" x="147" y="-3.3" font-family="Helvetica,sans-Serif" font-size="14.00"> </text>
</g>
<!-- c3&#45;&gt;g3 -->
<g id="edge4" class="edge">
<title>c3&#45;&gt;g3</title>
<path fill="none" stroke="black" d="M144.41,-13.47C138.33,-28.68 123.06,-66.84 115.46,-85.86"/>
<polygon fill="black" stroke="black" points="112.2,-84.58 111.73,-95.16 118.7,-87.18 112.2,-84.58"/>
</g>
</g>
</svg>
