<?xml version="1.0" encoding="UTF-8" standalone="no"?>
<!DOCTYPE svg PUBLIC "-//W3C//DTD SVG 1.1//EN"
 "http://www.w3.org/Graphics/SVG/1.1/DTD/svg11.dtd">
<!-- Generated by graphviz version 2.43.0 (0)
 -->
<!-- Title: E Pages: 1 -->
<svg width="306pt" height="1006pt"
 viewBox="0.00 0.00 305.63 1005.99" xmlns="http://www.w3.org/2000/svg" xmlns:xlink="http://www.w3.org/1999/xlink">
<g id="page0,1_graph0" class="graph" transform="scale(1 1) rotate(0) translate(4 1001.99)">
<title>E</title>
<polygon fill="white" stroke="transparent" points="-4,4 -4,-1001.99 301.63,-1001.99 301.63,4 -4,4"/>
<!-- null -->
<!-- 1000 -->
<g id="node2" class="node">
<title>1000</title>
<ellipse fill="none" stroke="black" cx="146.51" cy="-907.19" rx="51.4" ry="51.4"/>
<text text-anchor="middle" x="146.51" y="-903.49" font-family="Helvetica,sans-Serif" font-size="14.00">block 1000</text>
</g>
<!-- null&#45;&gt;1000 -->
<g id="edge1" class="edge">
<title>null&#45;&gt;1000</title>
<path fill="none" stroke="black" d="M146.51,-994.21C146.51,-991.12 146.51,-981.02 146.51,-968.77"/>
<polygon fill="black" stroke="black" points="150.01,-968.58 146.51,-958.58 143.01,-968.58 150.01,-968.58"/>
</g>
<!-- 1001 -->
<g id="node3" class="node">
<title>1001</title>
<ellipse fill="none" stroke="black" cx="67.51" cy="-747.87" rx="67.51" ry="67.51"/>
<text text-anchor="middle" x="67.51" y="-751.67" font-family="Helvetica,sans-Serif" font-size="14.00">block 1001</text>
<text text-anchor="middle" x="67.51" y="-736.67" font-family="Helvetica,sans-Serif" font-size="14.00">spend UTXO</text>
</g>
<!-- 1000&#45;&gt;1001 -->
<g id="edge2" class="edge">
<title>1000&#45;&gt;1001</title>
<path fill="none" stroke="black" d="M123.87,-861.11C117.07,-847.57 109.46,-832.41 102.07,-817.71"/>
<polygon fill="black" stroke="black" points="105.13,-816 97.52,-808.63 98.88,-819.14 105.13,-816"/>
</g>
<!-- bad -->
<g id="node11" class="node">
<title>bad</title>
<ellipse fill="lightgray" stroke="red" cx="225.51" cy="-747.87" rx="72.25" ry="72.25"/>
<text text-anchor="middle" x="225.51" y="-759.17" font-family="Helvetica,sans-Serif" font-size="14.00">block 1001&#39;</text>
<text text-anchor="middle" x="225.51" y="-744.17" font-family="Helvetica,sans-Serif" font-size="14.00">spend UTXO</text>
<text text-anchor="middle" x="225.51" y="-729.17" font-family="Helvetica,sans-Serif" font-size="14.00">elsewhere</text>
</g>
<!-- 1000&#45;&gt;bad -->
<g id="edge6" class="edge">
<title>1000&#45;&gt;bad</title>
<path fill="none" stroke="black" d="M169.15,-861.11C175.29,-848.86 182.12,-835.28 188.83,-821.91"/>
<polygon fill="black" stroke="black" points="192.09,-823.22 193.45,-812.71 185.83,-820.08 192.09,-823.22"/>
</g>
<!-- 1002 -->
<g id="node4" class="node">
<title>1002</title>
<ellipse fill="none" stroke="black" cx="67.51" cy="-573.28" rx="62.43" ry="62.43"/>
<text text-anchor="middle" x="67.51" y="-577.08" font-family="Helvetica,sans-Serif" font-size="14.00">block 1002</text>
<text text-anchor="middle" x="67.51" y="-562.08" font-family="Helvetica,sans-Serif" font-size="14.00">(conf 1)</text>
</g>
<!-- 1001&#45;&gt;1002 -->
<g id="edge3" class="edge">
<title>1001&#45;&gt;1002</title>
<path fill="none" stroke="black" d="M67.51,-680.14C67.51,-668.96 67.51,-657.31 67.51,-646"/>
<polygon fill="black" stroke="black" points="71.01,-645.74 67.51,-635.74 64.01,-645.74 71.01,-645.74"/>
</g>
<!-- 1003 -->
<g id="node5" class="node">
<title>1003</title>
<ellipse fill="none" stroke="black" cx="67.51" cy="-404.34" rx="62.43" ry="62.43"/>
<text text-anchor="middle" x="67.51" y="-408.14" font-family="Helvetica,sans-Serif" font-size="14.00">block 1003</text>
<text text-anchor="middle" x="67.51" y="-393.14" font-family="Helvetica,sans-Serif" font-size="14.00">(conf 2)</text>
</g>
<!-- 1002&#45;&gt;1003 -->
<g id="edge4" class="edge">
<title>1002&#45;&gt;1003</title>
<path fill="none" stroke="black" d="M67.51,-511.06C67.51,-500.02 67.51,-488.42 67.51,-477.11"/>
<polygon fill="black" stroke="black" points="71.01,-476.82 67.51,-466.82 64.01,-476.83 71.01,-476.82"/>
</g>
<!-- 1004 -->
<g id="node6" class="node">
<title>1004</title>
<ellipse fill="none" stroke="black" cx="67.51" cy="-235.4" rx="62.43" ry="62.43"/>
<text text-anchor="middle" x="67.51" y="-239.2" font-family="Helvetica,sans-Serif" font-size="14.00">block 1004</text>
<text text-anchor="middle" x="67.51" y="-224.2" font-family="Helvetica,sans-Serif" font-size="14.00">(conf 3)</text>
</g>
<!-- 1003&#45;&gt;1004 -->
<g id="edge5" class="edge">
<title>1003&#45;&gt;1004</title>
<path fill="none" stroke="black" d="M67.51,-342.13C67.51,-331.08 67.51,-319.48 67.51,-308.17"/>
<polygon fill="black" stroke="black" points="71.01,-307.89 67.51,-297.89 64.01,-307.89 71.01,-307.89"/>
</g>
<!-- a1002 -->
<g id="node7" class="node">
<title>a1002</title>
<ellipse fill="none" stroke="black" cx="225.51" cy="-573.28" rx="66.44" ry="66.44"/>
<text text-anchor="middle" x="225.51" y="-584.58" font-family="Helvetica,sans-Serif" font-size="14.00">block 1002</text>
<text text-anchor="middle" x="225.51" y="-569.58" font-family="Helvetica,sans-Serif" font-size="14.00">from 1001&#39;</text>
<text text-anchor="middle" x="225.51" y="-554.58" font-family="Helvetica,sans-Serif" font-size="14.00">(conf 1)</text>
</g>
<!-- a1003 -->
<g id="node8" class="node">
<title>a1003</title>
<ellipse fill="none" stroke="black" cx="225.51" cy="-404.34" rx="66.44" ry="66.44"/>
<text text-anchor="middle" x="225.51" y="-415.64" font-family="Helvetica,sans-Serif" font-size="14.00">block 1003</text>
<text text-anchor="middle" x="225.51" y="-400.64" font-family="Helvetica,sans-Serif" font-size="14.00">from 1001&#39;</text>
<text text-anchor="middle" x="225.51" y="-385.64" font-family="Helvetica,sans-Serif" font-size="14.00">(conf 2)</text>
</g>
<!-- a1002&#45;&gt;a1003 -->
<g id="edge8" class="edge">
<title>a1002&#45;&gt;a1003</title>
<path fill="none" stroke="black" d="M225.51,-506.78C225.51,-498.31 225.51,-489.58 225.51,-480.96"/>
<polygon fill="black" stroke="black" points="229.01,-480.92 225.51,-470.92 222.01,-480.92 229.01,-480.92"/>
</g>
<!-- a1004 -->
<g id="node9" class="node">
<title>a1004</title>
<ellipse fill="none" stroke="black" cx="225.51" cy="-235.4" rx="66.44" ry="66.44"/>
<text text-anchor="middle" x="225.51" y="-246.7" font-family="Helvetica,sans-Serif" font-size="14.00">block 1004</text>
<text text-anchor="middle" x="225.51" y="-231.7" font-family="Helvetica,sans-Serif" font-size="14.00">from 1001&#39;</text>
<text text-anchor="middle" x="225.51" y="-216.7" font-family="Helvetica,sans-Serif" font-size="14.00">(conf 3)</text>
</g>
<!-- a1003&#45;&gt;a1004 -->
<g id="edge9" class="edge">
<title>a1003&#45;&gt;a1004</title>
<path fill="none" stroke="black" d="M225.51,-337.84C225.51,-329.37 225.51,-320.64 225.51,-312.03"/>
<polygon fill="black" stroke="black" points="229.01,-311.99 225.51,-301.99 222.01,-311.99 229.01,-311.99"/>
</g>
<!-- a1005 -->
<g id="node10" class="node">
<title>a1005</title>
<ellipse fill="none" stroke="black" cx="225.51" cy="-66.47" rx="66.44" ry="66.44"/>
<text text-anchor="middle" x="225.51" y="-77.77" font-family="Helvetica,sans-Serif" font-size="14.00">block 1005</text>
<text text-anchor="middle" x="225.51" y="-62.77" font-family="Helvetica,sans-Serif" font-size="14.00">from 1001&#39;</text>
<text text-anchor="middle" x="225.51" y="-47.77" font-family="Helvetica,sans-Serif" font-size="14.00">(conf 4)</text>
</g>
<!-- a1004&#45;&gt;a1005 -->
<g id="edge10" class="edge">
<title>a1004&#45;&gt;a1005</title>
<path fill="none" stroke="black" d="M225.51,-168.91C225.51,-160.44 225.51,-151.71 225.51,-143.09"/>
<polygon fill="black" stroke="black" points="229.01,-143.05 225.51,-133.05 222.01,-143.05 229.01,-143.05"/>
</g>
<!-- bad&#45;&gt;a1002 -->
<g id="edge7" class="edge">
<title>bad&#45;&gt;a1002</title>
<path fill="none" stroke="black" d="M225.51,-675.67C225.51,-667.13 225.51,-658.38 225.51,-649.78"/>
<polygon fill="black" stroke="black" points="229.01,-649.77 225.51,-639.77 222.01,-649.77 229.01,-649.77"/>
</g>
</g>
</svg>
