<?xml version="1.0" encoding="UTF-8" standalone="no"?>
<!DOCTYPE svg PUBLIC "-//W3C//DTD SVG 1.1//EN"
 "http://www.w3.org/Graphics/SVG/1.1/DTD/svg11.dtd">
<!-- Generated by graphviz version 2.43.0 (0)
 -->
<!-- Title: F Pages: 1 -->
<svg width="274pt" height="522pt"
 viewBox="0.00 0.00 274.42 521.84" xmlns="http://www.w3.org/2000/svg" xmlns:xlink="http://www.w3.org/1999/xlink">
<g id="page0,1_graph0" class="graph" transform="scale(1 1) rotate(0) translate(4 517.84)">
<title>F</title>
<polygon fill="white" stroke="transparent" points="-4,4 -4,-517.84 270.42,-517.84 270.42,4 -4,4"/>
<!-- null -->
<!-- 1000 -->
<g id="node2" class="node">
<title>1000</title>
<ellipse fill="none" stroke="black" cx="133.21" cy="-372.05" rx="51.4" ry="51.4"/>
<text text-anchor="middle" x="133.21" y="-368.35" font-family="Helvetica,sans-Serif" font-size="14.00">block 1000</text>
</g>
<!-- null&#45;&gt;1000 -->
<g id="edge1" class="edge">
<title>null&#45;&gt;1000</title>
<path fill="none" stroke="black" d="M133.21,-459.17C133.21,-451.43 133.21,-442.63 133.21,-433.68"/>
<polygon fill="black" stroke="black" points="136.71,-433.56 133.21,-423.56 129.71,-433.56 136.71,-433.56"/>
</g>
<!-- a1001 -->
<g id="node3" class="node">
<title>a1001</title>
<ellipse fill="none" stroke="black" cx="62.21" cy="-222.64" rx="62.43" ry="62.43"/>
<text text-anchor="middle" x="62.21" y="-226.44" font-family="Helvetica,sans-Serif" font-size="14.00">block 1001</text>
<text text-anchor="middle" x="62.21" y="-211.44" font-family="Helvetica,sans-Serif" font-size="14.00">version 1</text>
</g>
<!-- 1000&#45;&gt;a1001 -->
<g id="edge2" class="edge">
<title>1000&#45;&gt;a1001</title>
<path fill="none" stroke="black" d="M111.33,-325.62C105.63,-313.77 99.37,-300.78 93.29,-288.15"/>
<polygon fill="black" stroke="black" points="96.39,-286.53 88.9,-279.04 90.08,-289.57 96.39,-286.53"/>
</g>
<!-- b1001 -->
<g id="node4" class="node">
<title>b1001</title>
<ellipse fill="none" stroke="black" cx="204.21" cy="-222.64" rx="62.43" ry="62.43"/>
<text text-anchor="middle" x="204.21" y="-226.44" font-family="Helvetica,sans-Serif" font-size="14.00">block 1001</text>
<text text-anchor="middle" x="204.21" y="-211.44" font-family="Helvetica,sans-Serif" font-size="14.00">version 2</text>
</g>
<!-- 1000&#45;&gt;b1001 -->
<g id="edge3" class="edge">
<title>1000&#45;&gt;b1001</title>
<path fill="none" stroke="black" d="M155.09,-325.62C160.8,-313.77 167.06,-300.78 173.14,-288.15"/>
<polygon fill="black" stroke="black" points="176.34,-289.57 177.53,-279.04 170.03,-286.53 176.34,-289.57"/>
</g>
<!-- a1002 -->
<g id="node5" class="node">
<title>a1002</title>
<ellipse fill="none" stroke="black" cx="62.21" cy="-62.21" rx="62.43" ry="62.43"/>
<text text-anchor="middle" x="62.21" y="-66.01" font-family="Helvetica,sans-Serif" font-size="14.00">block 1002</text>
<text text-anchor="middle" x="62.21" y="-51.01" font-family="Helvetica,sans-Serif" font-size="14.00">version 1</text>
</g>
<!-- a1001&#45;&gt;a1002 -->
<g id="edge4" class="edge">
<title>a1001&#45;&gt;a1002</title>
<path fill="none" stroke="black" d="M62.21,-160.39C62.21,-151.94 62.21,-143.2 62.21,-134.59"/>
<polygon fill="black" stroke="black" points="65.71,-134.56 62.21,-124.56 58.71,-134.56 65.71,-134.56"/>
</g>
<!-- b1002 -->
<g id="node6" class="node">
<title>b1002</title>
<ellipse fill="none" stroke="black" cx="204.21" cy="-62.21" rx="62.43" ry="62.43"/>
<text text-anchor="middle" x="204.21" y="-66.01" font-family="Helvetica,sans-Serif" font-size="14.00">block 1002</text>
<text text-anchor="middle" x="204.21" y="-51.01" font-family="Helvetica,sans-Serif" font-size="14.00">version 2</text>
</g>
<!-- b1001&#45;&gt;b1002 -->
<g id="edge5" class="edge">
<title>b1001&#45;&gt;b1002</title>
<path fill="none" stroke="black" d="M204.21,-160.39C204.21,-151.94 204.21,-143.2 204.21,-134.59"/>
<polygon fill="black" stroke="black" points="207.71,-134.56 204.21,-124.56 200.71,-134.56 207.71,-134.56"/>
</g>
</g>
</svg>
