<?xml version="1.0" encoding="UTF-8" standalone="no"?>
<!DOCTYPE svg PUBLIC "-//W3C//DTD SVG 1.1//EN"
 "http://www.w3.org/Graphics/SVG/1.1/DTD/svg11.dtd">
<!-- Generated by graphviz version 2.43.0 (0)
 -->
<!-- Title: C Pages: 1 -->
<svg width="143pt" height="802pt"
 viewBox="0.00 0.00 143.01 802.28" xmlns="http://www.w3.org/2000/svg" xmlns:xlink="http://www.w3.org/1999/xlink">
<g id="page0,1_graph0" class="graph" transform="scale(1 1) rotate(0) translate(4 798.28)">
<title>C</title>
<polygon fill="white" stroke="transparent" points="-4,4 -4,-798.28 139.01,-798.28 139.01,4 -4,4"/>
<!-- null -->
<!-- 1000 -->
<g id="node2" class="node">
<title>1000</title>
<ellipse fill="none" stroke="black" cx="67.51" cy="-703.48" rx="51.4" ry="51.4"/>
<text text-anchor="middle" x="67.51" y="-699.78" font-family="Helvetica,sans-Serif" font-size="14.00">block 1000</text>
</g>
<!-- null&#45;&gt;1000 -->
<g id="edge1" class="edge">
<title>null&#45;&gt;1000</title>
<path fill="none" stroke="black" d="M67.51,-790.5C67.51,-787.41 67.51,-777.31 67.51,-765.06"/>
<polygon fill="black" stroke="black" points="71.01,-764.87 67.51,-754.87 64.01,-764.87 71.01,-764.87"/>
</g>
<!-- 1001 -->
<g id="node3" class="node">
<title>1001</title>
<ellipse fill="none" stroke="black" cx="67.51" cy="-548.78" rx="67.51" ry="67.51"/>
<text text-anchor="middle" x="67.51" y="-552.58" font-family="Helvetica,sans-Serif" font-size="14.00">block 1001</text>
<text text-anchor="middle" x="67.51" y="-537.58" font-family="Helvetica,sans-Serif" font-size="14.00">spend UTXO</text>
</g>
<!-- 1000&#45;&gt;1001 -->
<g id="edge2" class="edge">
<title>1000&#45;&gt;1001</title>
<path fill="none" stroke="black" d="M67.51,-652.06C67.51,-643.88 67.51,-635.25 67.51,-626.61"/>
<polygon fill="black" stroke="black" points="71.01,-626.49 67.51,-616.49 64.01,-626.49 71.01,-626.49"/>
</g>
<!-- 1002 -->
<g id="node4" class="node">
<title>1002</title>
<ellipse fill="none" stroke="black" cx="67.51" cy="-383.06" rx="62.43" ry="62.43"/>
<text text-anchor="middle" x="67.51" y="-386.86" font-family="Helvetica,sans-Serif" font-size="14.00">block 1002</text>
<text text-anchor="middle" x="67.51" y="-371.86" font-family="Helvetica,sans-Serif" font-size="14.00">(conf 1)</text>
</g>
<!-- 1001&#45;&gt;1002 -->
<g id="edge3" class="edge">
<title>1001&#45;&gt;1002</title>
<path fill="none" stroke="black" d="M67.51,-481.19C67.51,-472.76 67.51,-464.1 67.51,-455.59"/>
<polygon fill="black" stroke="black" points="71.01,-455.31 67.51,-445.31 64.01,-455.31 71.01,-455.31"/>
</g>
<!-- 1003 -->
<g id="node5" class="node">
<title>1003</title>
<ellipse fill="none" stroke="black" cx="67.51" cy="-222.64" rx="62.43" ry="62.43"/>
<text text-anchor="middle" x="67.51" y="-226.44" font-family="Helvetica,sans-Serif" font-size="14.00">block 1003</text>
<text text-anchor="middle" x="67.51" y="-211.44" font-family="Helvetica,sans-Serif" font-size="14.00">(conf 2)</text>
</g>
<!-- 1002&#45;&gt;1003 -->
<g id="edge4" class="edge">
<title>1002&#45;&gt;1003</title>
<path fill="none" stroke="black" d="M67.51,-320.81C67.51,-312.36 67.51,-303.62 67.51,-295.01"/>
<polygon fill="black" stroke="black" points="71.01,-294.99 67.51,-284.99 64.01,-294.99 71.01,-294.99"/>
</g>
<!-- 1004 -->
<g id="node6" class="node">
<title>1004</title>
<ellipse fill="none" stroke="black" cx="67.51" cy="-62.21" rx="62.43" ry="62.43"/>
<text text-anchor="middle" x="67.51" y="-66.01" font-family="Helvetica,sans-Serif" font-size="14.00">block 1004</text>
<text text-anchor="middle" x="67.51" y="-51.01" font-family="Helvetica,sans-Serif" font-size="14.00">(conf 3)</text>
</g>
<!-- 1003&#45;&gt;1004 -->
<g id="edge5" class="edge">
<title>1003&#45;&gt;1004</title>
<path fill="none" stroke="black" d="M67.51,-160.39C67.51,-151.94 67.51,-143.2 67.51,-134.59"/>
<polygon fill="black" stroke="black" points="71.01,-134.56 67.51,-124.56 64.01,-134.56 71.01,-134.56"/>
</g>
</g>
</svg>
