<?xml version="1.0" encoding="UTF-8" standalone="no"?>
<!DOCTYPE svg PUBLIC "-//W3C//DTD SVG 1.1//EN"
 "http://www.w3.org/Graphics/SVG/1.1/DTD/svg11.dtd">
<!-- Generated by graphviz version 2.43.0 (0)
 -->
<!-- Title: B Pages: 1 -->
<svg width="143pt" height="372pt"
 viewBox="0.00 0.00 143.01 372.00" xmlns="http://www.w3.org/2000/svg" xmlns:xlink="http://www.w3.org/1999/xlink">
<g id="page0,1_graph0" class="graph" transform="scale(1 1) rotate(0) translate(4 368)">
<title>B</title>
<polygon fill="white" stroke="transparent" points="-4,4 -4,-368 139.01,-368 139.01,4 -4,4"/>
<!-- null -->
<!-- 1000 -->
<g id="node2" class="node">
<title>1000</title>
<ellipse fill="none" stroke="black" cx="67.51" cy="-222.21" rx="51.4" ry="51.4"/>
<text text-anchor="middle" x="67.51" y="-218.51" font-family="Helvetica,sans-Serif" font-size="14.00">block 1000</text>
</g>
<!-- null&#45;&gt;1000 -->
<g id="edge1" class="edge">
<title>null&#45;&gt;1000</title>
<path fill="none" stroke="black" d="M67.51,-309.33C67.51,-301.59 67.51,-292.79 67.51,-283.84"/>
<polygon fill="black" stroke="black" points="71.01,-283.72 67.51,-273.72 64.01,-283.72 71.01,-283.72"/>
</g>
<!-- 1001 -->
<g id="node3" class="node">
<title>1001</title>
<ellipse fill="none" stroke="black" cx="67.51" cy="-67.51" rx="67.51" ry="67.51"/>
<text text-anchor="middle" x="67.51" y="-71.31" font-family="Helvetica,sans-Serif" font-size="14.00">block 1001</text>
<text text-anchor="middle" x="67.51" y="-56.31" font-family="Helvetica,sans-Serif" font-size="14.00">spend UTXO</text>
</g>
<!-- 1000&#45;&gt;1001 -->
<g id="edge2" class="edge">
<title>1000&#45;&gt;1001</title>
<path fill="none" stroke="black" d="M67.51,-170.79C67.51,-162.61 67.51,-153.98 67.51,-145.34"/>
<polygon fill="black" stroke="black" points="71.01,-145.22 67.51,-135.22 64.01,-145.22 71.01,-145.22"/>
</g>
</g>
</svg>
