<?xml version="1.0" encoding="UTF-8" standalone="no"?>
<!DOCTYPE svg PUBLIC "-//W3C//DTD SVG 1.1//EN"
 "http://www.w3.org/Graphics/SVG/1.1/DTD/svg11.dtd">
<!-- Generated by graphviz version 2.43.0 (0)
 -->
<!-- Title: D Pages: 1 -->
<svg width="306pt" height="863pt"
 viewBox="0.00 0.00 305.63 862.51" xmlns="http://www.w3.org/2000/svg" xmlns:xlink="http://www.w3.org/1999/xlink">
<g id="page0,1_graph0" class="graph" transform="scale(1 1) rotate(0) translate(4 858.51)">
<title>D</title>
<polygon fill="white" stroke="transparent" points="-4,4 -4,-858.51 301.63,-858.51 301.63,4 -4,4"/>
<!-- null -->
<!-- 1000 -->
<g id="node2" class="node">
<title>1000</title>
<ellipse fill="none" stroke="black" cx="146.51" cy="-712.72" rx="51.4" ry="51.4"/>
<text text-anchor="middle" x="146.51" y="-709.02" font-family="Helvetica,sans-Serif" font-size="14.00">block 1000</text>
</g>
<!-- null&#45;&gt;1000 -->
<g id="edge1" class="edge">
<title>null&#45;&gt;1000</title>
<path fill="none" stroke="black" d="M146.51,-799.84C146.51,-792.1 146.51,-783.3 146.51,-774.35"/>
<polygon fill="black" stroke="black" points="150.01,-774.23 146.51,-764.23 143.01,-774.23 150.01,-774.23"/>
</g>
<!-- 1001 -->
<g id="node3" class="node">
<title>1001</title>
<ellipse fill="none" stroke="black" cx="67.51" cy="-553.4" rx="67.51" ry="67.51"/>
<text text-anchor="middle" x="67.51" y="-557.2" font-family="Helvetica,sans-Serif" font-size="14.00">block 1001</text>
<text text-anchor="middle" x="67.51" y="-542.2" font-family="Helvetica,sans-Serif" font-size="14.00">spend UTXO</text>
</g>
<!-- 1000&#45;&gt;1001 -->
<g id="edge2" class="edge">
<title>1000&#45;&gt;1001</title>
<path fill="none" stroke="black" d="M123.87,-666.64C117.07,-653.1 109.46,-637.94 102.07,-623.23"/>
<polygon fill="black" stroke="black" points="105.13,-621.52 97.52,-614.16 98.88,-624.67 105.13,-621.52"/>
</g>
<!-- bad -->
<g id="node7" class="node">
<title>bad</title>
<ellipse fill="lightgray" stroke="red" cx="225.51" cy="-553.4" rx="72.25" ry="72.25"/>
<text text-anchor="middle" x="225.51" y="-564.7" font-family="Helvetica,sans-Serif" font-size="14.00">block 1001&#39;</text>
<text text-anchor="middle" x="225.51" y="-549.7" font-family="Helvetica,sans-Serif" font-size="14.00">spend UTXO</text>
<text text-anchor="middle" x="225.51" y="-534.7" font-family="Helvetica,sans-Serif" font-size="14.00">elsewhere</text>
</g>
<!-- 1000&#45;&gt;bad -->
<g id="edge6" class="edge">
<title>1000&#45;&gt;bad</title>
<path fill="none" stroke="black" d="M169.15,-666.64C175.29,-654.39 182.12,-640.81 188.83,-627.44"/>
<polygon fill="black" stroke="black" points="192.09,-628.75 193.45,-618.24 185.83,-625.61 192.09,-628.75"/>
</g>
<!-- 1002 -->
<g id="node4" class="node">
<title>1002</title>
<ellipse fill="none" stroke="black" cx="67.51" cy="-383.06" rx="62.43" ry="62.43"/>
<text text-anchor="middle" x="67.51" y="-386.86" font-family="Helvetica,sans-Serif" font-size="14.00">block 1002</text>
<text text-anchor="middle" x="67.51" y="-371.86" font-family="Helvetica,sans-Serif" font-size="14.00">(conf 1)</text>
</g>
<!-- 1001&#45;&gt;1002 -->
<g id="edge3" class="edge">
<title>1001&#45;&gt;1002</title>
<path fill="none" stroke="black" d="M67.51,-485.87C67.51,-475.98 67.51,-465.75 67.51,-455.76"/>
<polygon fill="black" stroke="black" points="71.01,-455.46 67.51,-445.46 64.01,-455.46 71.01,-455.46"/>
</g>
<!-- 1003 -->
<g id="node5" class="node">
<title>1003</title>
<ellipse fill="none" stroke="black" cx="67.51" cy="-222.64" rx="62.43" ry="62.43"/>
<text text-anchor="middle" x="67.51" y="-226.44" font-family="Helvetica,sans-Serif" font-size="14.00">block 1003</text>
<text text-anchor="middle" x="67.51" y="-211.44" font-family="Helvetica,sans-Serif" font-size="14.00">(conf 2)</text>
</g>
<!-- 1002&#45;&gt;1003 -->
<g id="edge4" class="edge">
<title>1002&#45;&gt;1003</title>
<path fill="none" stroke="black" d="M67.51,-320.81C67.51,-312.36 67.51,-303.62 67.51,-295.01"/>
<polygon fill="black" stroke="black" points="71.01,-294.99 67.51,-284.99 64.01,-294.99 71.01,-294.99"/>
</g>
<!-- 1004 -->
<g id="node6" class="node">
<title>1004</title>
<ellipse fill="none" stroke="black" cx="67.51" cy="-62.21" rx="62.43" ry="62.43"/>
<text text-anchor="middle" x="67.51" y="-66.01" font-family="Helvetica,sans-Serif" font-size="14.00">block 1004</text>
<text text-anchor="middle" x="67.51" y="-51.01" font-family="Helvetica,sans-Serif" font-size="14.00">(conf 3)</text>
</g>
<!-- 1003&#45;&gt;1004 -->
<g id="edge5" class="edge">
<title>1003&#45;&gt;1004</title>
<path fill="none" stroke="black" d="M67.51,-160.39C67.51,-151.94 67.51,-143.2 67.51,-134.59"/>
<polygon fill="black" stroke="black" points="71.01,-134.56 67.51,-124.56 64.01,-134.56 71.01,-134.56"/>
</g>
</g>
</svg>
