<?xml version='1.0' encoding='UTF-8' standalone='no'?>
<svg height="432pt" width="576pt" viewBox="0 0 576 432" xmlns="http://www.w3.org/2000/svg" xmlns:xlink="http://www.w3.org/1999/xlink">
 <title>gl2ps_renderer figure</title>
 <desc>
Creator: GL2PS 1.4.0, (C) 1999-2017 C. Geuzaine
For: Octave
CreationDate: Sun Apr  3 13:54:03 2022
</desc>
 <defs/>
 <polygon points="0,0 576,0 576,432 0,432" fill="#ffffff"/>
 <g>
  <polygon points="0,432 576,432 576,0 0,0" fill="#ffffff" shape-rendering="crispEdges"/>
  <clipPath id="cp00576432">
   <polygon points="0,432 576,432 576,0 0,0"/>
  </clipPath>
  <g clip-path="url(#cp00576432)">
   <polygon points="74.8799,384.48 521.28,384.48 521.28,32.3999 74.8799,32.3999" fill="#ffffff" shape-rendering="crispEdges"/>
   <polyline points="88.8301,384.48 88.8301,32.3999" stroke="#191919" stroke-linecap="butt" stroke-dasharray="1,1,1,1,1,1,1,1,1,1" fill="none" stroke-linejoin="miter" stroke-width="0.5" stroke-opacity="0.25"/>
   <polyline points="102.78,384.48 102.78,32.3999" stroke="#191919" stroke-linecap="butt" stroke-dasharray="1,1,1,1,1,1,1,1,1,1" fill="none" stroke-linejoin="miter" stroke-width="0.5" stroke-opacity="0.25"/>
   <polyline points="116.73,384.48 116.73,32.3999" stroke="#191919" stroke-linecap="butt" stroke-dasharray="1,1,1,1,1,1,1,1,1,1" fill="none" stroke-linejoin="miter" stroke-width="0.5" stroke-opacity="0.25"/>
   <polyline points="130.68,384.48 130.68,32.3999" stroke="#191919" stroke-linecap="butt" stroke-dasharray="1,1,1,1,1,1,1,1,1,1" fill="none" stroke-linejoin="miter" stroke-width="0.5" stroke-opacity="0.25"/>
   <polyline points="158.58,384.48 158.58,32.3999" stroke="#191919" stroke-linecap="butt" stroke-dasharray="1,1,1,1,1,1,1,1,1,1" fill="none" stroke-linejoin="miter" stroke-width="0.5" stroke-opacity="0.25"/>
   <polyline points="172.53,384.48 172.53,32.3999" stroke="#191919" stroke-linecap="butt" stroke-dasharray="1,1,1,1,1,1,1,1,1,1" fill="none" stroke-linejoin="miter" stroke-width="0.5" stroke-opacity="0.25"/>
   <polyline points="186.48,384.48 186.48,32.3999" stroke="#191919" stroke-linecap="butt" stroke-dasharray="1,1,1,1,1,1,1,1,1,1" fill="none" stroke-linejoin="miter" stroke-width="0.5" stroke-opacity="0.25"/>
   <polyline points="200.43,384.48 200.43,32.3999" stroke="#191919" stroke-linecap="butt" stroke-dasharray="1,1,1,1,1,1,1,1,1,1" fill="none" stroke-linejoin="miter" stroke-width="0.5" stroke-opacity="0.25"/>
   <polyline points="228.33,384.48 228.33,32.3999" stroke="#191919" stroke-linecap="butt" stroke-dasharray="1,1,1,1,1,1,1,1,1,1" fill="none" stroke-linejoin="miter" stroke-width="0.5" stroke-opacity="0.25"/>
   <polyline points="242.28,384.48 242.28,32.3999" stroke="#191919" stroke-linecap="butt" stroke-dasharray="1,1,1,1,1,1,1,1,1,1" fill="none" stroke-linejoin="miter" stroke-width="0.5" stroke-opacity="0.25"/>
   <polyline points="256.23,384.48 256.23,32.3999" stroke="#191919" stroke-linecap="butt" stroke-dasharray="1,1,1,1,1,1,1,1,1,1" fill="none" stroke-linejoin="miter" stroke-width="0.5" stroke-opacity="0.25"/>
   <polyline points="270.18,384.48 270.18,32.3999" stroke="#191919" stroke-linecap="butt" stroke-dasharray="1,1,1,1,1,1,1,1,1,1" fill="none" stroke-linejoin="miter" stroke-width="0.5" stroke-opacity="0.25"/>
   <polyline points="298.08,384.48 298.08,32.3999" stroke="#191919" stroke-linecap="butt" stroke-dasharray="1,1,1,1,1,1,1,1,1,1" fill="none" stroke-linejoin="miter" stroke-width="0.5" stroke-opacity="0.25"/>
   <polyline points="312.03,384.48 312.03,32.3999" stroke="#191919" stroke-linecap="butt" stroke-dasharray="1,1,1,1,1,1,1,1,1,1" fill="none" stroke-linejoin="miter" stroke-width="0.5" stroke-opacity="0.25"/>
   <polyline points="325.98,384.48 325.98,32.3999" stroke="#191919" stroke-linecap="butt" stroke-dasharray="1,1,1,1,1,1,1,1,1,1" fill="none" stroke-linejoin="miter" stroke-width="0.5" stroke-opacity="0.25"/>
   <polyline points="339.93,384.48 339.93,32.3999" stroke="#191919" stroke-linecap="butt" stroke-dasharray="1,1,1,1,1,1,1,1,1,1" fill="none" stroke-linejoin="miter" stroke-width="0.5" stroke-opacity="0.25"/>
   <polyline points="367.83,384.48 367.83,32.3999" stroke="#191919" stroke-linecap="butt" stroke-dasharray="1,1,1,1,1,1,1,1,1,1" fill="none" stroke-linejoin="miter" stroke-width="0.5" stroke-opacity="0.25"/>
   <polyline points="381.78,384.48 381.78,32.3999" stroke="#191919" stroke-linecap="butt" stroke-dasharray="1,1,1,1,1,1,1,1,1,1" fill="none" stroke-linejoin="miter" stroke-width="0.5" stroke-opacity="0.25"/>
   <polyline points="395.73,384.48 395.73,32.3999" stroke="#191919" stroke-linecap="butt" stroke-dasharray="1,1,1,1,1,1,1,1,1,1" fill="none" stroke-linejoin="miter" stroke-width="0.5" stroke-opacity="0.25"/>
   <polyline points="409.68,384.48 409.68,32.3999" stroke="#191919" stroke-linecap="butt" stroke-dasharray="1,1,1,1,1,1,1,1,1,1" fill="none" stroke-linejoin="miter" stroke-width="0.5" stroke-opacity="0.25"/>
   <polyline points="437.58,384.48 437.58,32.3999" stroke="#191919" stroke-linecap="butt" stroke-dasharray="1,1,1,1,1,1,1,1,1,1" fill="none" stroke-linejoin="miter" stroke-width="0.5" stroke-opacity="0.25"/>
   <polyline points="451.53,384.48 451.53,32.3999" stroke="#191919" stroke-linecap="butt" stroke-dasharray="1,1,1,1,1,1,1,1,1,1" fill="none" stroke-linejoin="miter" stroke-width="0.5" stroke-opacity="0.25"/>
   <polyline points="465.48,384.48 465.48,32.3999" stroke="#191919" stroke-linecap="butt" stroke-dasharray="1,1,1,1,1,1,1,1,1,1" fill="none" stroke-linejoin="miter" stroke-width="0.5" stroke-opacity="0.25"/>
   <polyline points="479.43,384.48 479.43,32.3999" stroke="#191919" stroke-linecap="butt" stroke-dasharray="1,1,1,1,1,1,1,1,1,1" fill="none" stroke-linejoin="miter" stroke-width="0.5" stroke-opacity="0.25"/>
   <polyline points="507.33,384.48 507.33,32.3999" stroke="#191919" stroke-linecap="butt" stroke-dasharray="1,1,1,1,1,1,1,1,1,1" fill="none" stroke-linejoin="miter" stroke-width="0.5" stroke-opacity="0.25"/>
   <polyline points="521.28,384.48 521.28,32.3999" stroke="#191919" stroke-linecap="butt" stroke-dasharray="1,1,1,1,1,1,1,1,1,1" fill="none" stroke-linejoin="miter" stroke-width="0.5" stroke-opacity="0.25"/>
   <polyline points="74.8799,384.48 74.8799,32.3999" stroke="#191919" stroke-linecap="butt" stroke-dasharray="1,1,1,1,1,1,1,1,1,1" fill="none" stroke-linejoin="miter" stroke-width="0.5" stroke-opacity="0.25"/>
   <polyline points="144.63,384.48 144.63,32.3999" stroke="#191919" stroke-linecap="butt" stroke-dasharray="1,1,1,1,1,1,1,1,1,1" fill="none" stroke-linejoin="miter" stroke-width="0.5" stroke-opacity="0.25"/>
   <polyline points="214.38,384.48 214.38,32.3999" stroke="#191919" stroke-linecap="butt" stroke-dasharray="1,1,1,1,1,1,1,1,1,1" fill="none" stroke-linejoin="miter" stroke-width="0.5" stroke-opacity="0.25"/>
   <polyline points="284.13,384.48 284.13,32.3999" stroke="#191919" stroke-linecap="butt" stroke-dasharray="1,1,1,1,1,1,1,1,1,1" fill="none" stroke-linejoin="miter" stroke-width="0.5" stroke-opacity="0.25"/>
   <polyline points="353.88,384.48 353.88,32.3999" stroke="#191919" stroke-linecap="butt" stroke-dasharray="1,1,1,1,1,1,1,1,1,1" fill="none" stroke-linejoin="miter" stroke-width="0.5" stroke-opacity="0.25"/>
   <polyline points="423.63,384.48 423.63,32.3999" stroke="#191919" stroke-linecap="butt" stroke-dasharray="1,1,1,1,1,1,1,1,1,1" fill="none" stroke-linejoin="miter" stroke-width="0.5" stroke-opacity="0.25"/>
   <polyline points="493.38,384.48 493.38,32.3999" stroke="#191919" stroke-linecap="butt" stroke-dasharray="1,1,1,1,1,1,1,1,1,1" fill="none" stroke-linejoin="miter" stroke-width="0.5" stroke-opacity="0.25"/>
   <polyline points="74.8799,384.48 74.8799,380.015" stroke="#262626" stroke-linecap="butt" fill="none" stroke-linejoin="miter" stroke-width="0.5"/>
   <polyline points="74.8799,32.3999 74.8799,36.8652" stroke="#262626" stroke-linecap="butt" fill="none" stroke-linejoin="miter" stroke-width="0.5"/>
   <polyline points="144.63,384.48 144.63,380.015" stroke="#262626" stroke-linecap="butt" fill="none" stroke-linejoin="miter" stroke-width="0.5"/>
   <polyline points="144.63,32.3999 144.63,36.8652" stroke="#262626" stroke-linecap="butt" fill="none" stroke-linejoin="miter" stroke-width="0.5"/>
   <polyline points="214.38,384.48 214.38,380.015" stroke="#262626" stroke-linecap="butt" fill="none" stroke-linejoin="miter" stroke-width="0.5"/>
   <polyline points="214.38,32.3999 214.38,36.8652" stroke="#262626" stroke-linecap="butt" fill="none" stroke-linejoin="miter" stroke-width="0.5"/>
   <polyline points="284.13,384.48 284.13,380.015" stroke="#262626" stroke-linecap="butt" fill="none" stroke-linejoin="miter" stroke-width="0.5"/>
   <polyline points="284.13,32.3999 284.13,36.8652" stroke="#262626" stroke-linecap="butt" fill="none" stroke-linejoin="miter" stroke-width="0.5"/>
   <polyline points="353.88,384.48 353.88,380.015" stroke="#262626" stroke-linecap="butt" fill="none" stroke-linejoin="miter" stroke-width="0.5"/>
   <polyline points="353.88,32.3999 353.88,36.8652" stroke="#262626" stroke-linecap="butt" fill="none" stroke-linejoin="miter" stroke-width="0.5"/>
   <polyline points="423.63,384.48 423.63,380.015" stroke="#262626" stroke-linecap="butt" fill="none" stroke-linejoin="miter" stroke-width="0.5"/>
   <polyline points="423.63,32.3999 423.63,36.8652" stroke="#262626" stroke-linecap="butt" fill="none" stroke-linejoin="miter" stroke-width="0.5"/>
   <polyline points="493.38,384.48 493.38,380.015" stroke="#262626" stroke-linecap="butt" fill="none" stroke-linejoin="miter" stroke-width="0.5"/>
   <polyline points="493.38,32.3999 493.38,36.8652" stroke="#262626" stroke-linecap="butt" fill="none" stroke-linejoin="miter" stroke-width="0.5"/>
   <text font-style="normal" font-weight="normal" font-family="FreeSans" xml:space="preserve" transform="translate(71.88,399.982) rotate(-0,3,-8)" font-size="10">
    <tspan x="0 " fill="rgb(38,38,38)" y="-0">0</tspan>
   </text>
   <text font-style="normal" font-weight="normal" font-family="FreeSans" xml:space="preserve" transform="translate(141.63,399.982) rotate(-0,3,-8)" font-size="10">
    <tspan x="0 " fill="rgb(38,38,38)" y="-0">5</tspan>
   </text>
   <text font-style="normal" font-weight="normal" font-family="FreeSans" xml:space="preserve" transform="translate(208.38,399.982) rotate(-0,6,-8)" font-size="10">
    <tspan x="0 6 " fill="rgb(38,38,38)" y="-0">10</tspan>
   </text>
   <text font-style="normal" font-weight="normal" font-family="FreeSans" xml:space="preserve" transform="translate(278.13,399.982) rotate(-0,6,-8)" font-size="10">
    <tspan x="0 6 " fill="rgb(38,38,38)" y="-0">15</tspan>
   </text>
   <text font-style="normal" font-weight="normal" font-family="FreeSans" xml:space="preserve" transform="translate(347.88,399.982) rotate(-0,6,-8)" font-size="10">
    <tspan x="0 6 " fill="rgb(38,38,38)" y="-0">20</tspan>
   </text>
   <text font-style="normal" font-weight="normal" font-family="FreeSans" xml:space="preserve" transform="translate(417.63,399.982) rotate(-0,6,-8)" font-size="10">
    <tspan x="0 6 " fill="rgb(38,38,38)" y="-0">25</tspan>
   </text>
   <text font-style="normal" font-weight="normal" font-family="FreeSans" xml:space="preserve" transform="translate(487.38,399.982) rotate(-0,6,-8)" font-size="10">
    <tspan x="0 6 " fill="rgb(38,38,38)" y="-0">30</tspan>
   </text>
   <polyline points="74.8799,373.478 521.28,373.478" stroke="#191919" stroke-linecap="butt" stroke-dasharray="1,1,1,1,1,1,1,1,1,1" fill="none" stroke-linejoin="miter" stroke-width="0.5" stroke-opacity="0.25"/>
   <polyline points="74.8799,362.475 521.28,362.475" stroke="#191919" stroke-linecap="butt" stroke-dasharray="1,1,1,1,1,1,1,1,1,1" fill="none" stroke-linejoin="miter" stroke-width="0.5" stroke-opacity="0.25"/>
   <polyline points="74.8799,351.473 521.28,351.473" stroke="#191919" stroke-linecap="butt" stroke-dasharray="1,1,1,1,1,1,1,1,1,1" fill="none" stroke-linejoin="miter" stroke-width="0.5" stroke-opacity="0.25"/>
   <polyline points="74.8799,340.47 521.28,340.47" stroke="#191919" stroke-linecap="butt" stroke-dasharray="1,1,1,1,1,1,1,1,1,1" fill="none" stroke-linejoin="miter" stroke-width="0.5" stroke-opacity="0.25"/>
   <polyline points="74.8799,318.465 521.28,318.465" stroke="#191919" stroke-linecap="butt" stroke-dasharray="1,1,1,1,1,1,1,1,1,1" fill="none" stroke-linejoin="miter" stroke-width="0.5" stroke-opacity="0.25"/>
   <polyline points="74.8799,307.462 521.28,307.462" stroke="#191919" stroke-linecap="butt" stroke-dasharray="1,1,1,1,1,1,1,1,1,1" fill="none" stroke-linejoin="miter" stroke-width="0.5" stroke-opacity="0.25"/>
   <polyline points="74.8799,296.46 521.28,296.46" stroke="#191919" stroke-linecap="butt" stroke-dasharray="1,1,1,1,1,1,1,1,1,1" fill="none" stroke-linejoin="miter" stroke-width="0.5" stroke-opacity="0.25"/>
   <polyline points="74.8799,285.458 521.28,285.458" stroke="#191919" stroke-linecap="butt" stroke-dasharray="1,1,1,1,1,1,1,1,1,1" fill="none" stroke-linejoin="miter" stroke-width="0.5" stroke-opacity="0.25"/>
   <polyline points="74.8799,263.453 521.28,263.453" stroke="#191919" stroke-linecap="butt" stroke-dasharray="1,1,1,1,1,1,1,1,1,1" fill="none" stroke-linejoin="miter" stroke-width="0.5" stroke-opacity="0.25"/>
   <polyline points="74.8799,252.45 521.28,252.45" stroke="#191919" stroke-linecap="butt" stroke-dasharray="1,1,1,1,1,1,1,1,1,1" fill="none" stroke-linejoin="miter" stroke-width="0.5" stroke-opacity="0.25"/>
   <polyline points="74.8799,241.447 521.28,241.447" stroke="#191919" stroke-linecap="butt" stroke-dasharray="1,1,1,1,1,1,1,1,1,1" fill="none" stroke-linejoin="miter" stroke-width="0.5" stroke-opacity="0.25"/>
   <polyline points="74.8799,230.445 521.28,230.445" stroke="#191919" stroke-linecap="butt" stroke-dasharray="1,1,1,1,1,1,1,1,1,1" fill="none" stroke-linejoin="miter" stroke-width="0.5" stroke-opacity="0.25"/>
   <polyline points="74.8799,208.44 521.28,208.44" stroke="#191919" stroke-linecap="butt" stroke-dasharray="1,1,1,1,1,1,1,1,1,1" fill="none" stroke-linejoin="miter" stroke-width="0.5" stroke-opacity="0.25"/>
   <polyline points="74.8799,197.438 521.28,197.438" stroke="#191919" stroke-linecap="butt" stroke-dasharray="1,1,1,1,1,1,1,1,1,1" fill="none" stroke-linejoin="miter" stroke-width="0.5" stroke-opacity="0.25"/>
   <polyline points="74.8799,186.435 521.28,186.435" stroke="#191919" stroke-linecap="butt" stroke-dasharray="1,1,1,1,1,1,1,1,1,1" fill="none" stroke-linejoin="miter" stroke-width="0.5" stroke-opacity="0.25"/>
   <polyline points="74.8799,175.433 521.28,175.433" stroke="#191919" stroke-linecap="butt" stroke-dasharray="1,1,1,1,1,1,1,1,1,1" fill="none" stroke-linejoin="miter" stroke-width="0.5" stroke-opacity="0.25"/>
   <polyline points="74.8799,153.428 521.28,153.428" stroke="#191919" stroke-linecap="butt" stroke-dasharray="1,1,1,1,1,1,1,1,1,1" fill="none" stroke-linejoin="miter" stroke-width="0.5" stroke-opacity="0.25"/>
   <polyline points="74.8799,142.425 521.28,142.425" stroke="#191919" stroke-linecap="butt" stroke-dasharray="1,1,1,1,1,1,1,1,1,1" fill="none" stroke-linejoin="miter" stroke-width="0.5" stroke-opacity="0.25"/>
   <polyline points="74.8799,131.422 521.28,131.422" stroke="#191919" stroke-linecap="butt" stroke-dasharray="1,1,1,1,1,1,1,1,1,1" fill="none" stroke-linejoin="miter" stroke-width="0.5" stroke-opacity="0.25"/>
   <polyline points="74.8799,120.42 521.28,120.42" stroke="#191919" stroke-linecap="butt" stroke-dasharray="1,1,1,1,1,1,1,1,1,1" fill="none" stroke-linejoin="miter" stroke-width="0.5" stroke-opacity="0.25"/>
   <polyline points="74.8799,98.415 521.28,98.415" stroke="#191919" stroke-linecap="butt" stroke-dasharray="1,1,1,1,1,1,1,1,1,1" fill="none" stroke-linejoin="miter" stroke-width="0.5" stroke-opacity="0.25"/>
   <polyline points="74.8799,87.4126 521.28,87.4126" stroke="#191919" stroke-linecap="butt" stroke-dasharray="1,1,1,1,1,1,1,1,1,1" fill="none" stroke-linejoin="miter" stroke-width="0.5" stroke-opacity="0.25"/>
   <polyline points="74.8799,76.4102 521.28,76.4102" stroke="#191919" stroke-linecap="butt" stroke-dasharray="1,1,1,1,1,1,1,1,1,1" fill="none" stroke-linejoin="miter" stroke-width="0.5" stroke-opacity="0.25"/>
   <polyline points="74.8799,65.4077 521.28,65.4077" stroke="#191919" stroke-linecap="butt" stroke-dasharray="1,1,1,1,1,1,1,1,1,1" fill="none" stroke-linejoin="miter" stroke-width="0.5" stroke-opacity="0.25"/>
   <polyline points="74.8799,43.4023 521.28,43.4023" stroke="#191919" stroke-linecap="butt" stroke-dasharray="1,1,1,1,1,1,1,1,1,1" fill="none" stroke-linejoin="miter" stroke-width="0.5" stroke-opacity="0.25"/>
   <polyline points="74.8799,32.3999 521.28,32.3999" stroke="#191919" stroke-linecap="butt" stroke-dasharray="1,1,1,1,1,1,1,1,1,1" fill="none" stroke-linejoin="miter" stroke-width="0.5" stroke-opacity="0.25"/>
   <polyline points="74.8799,384.48 521.28,384.48" stroke="#191919" stroke-linecap="butt" stroke-dasharray="1,1,1,1,1,1,1,1,1,1" fill="none" stroke-linejoin="miter" stroke-width="0.5" stroke-opacity="0.25"/>
   <polyline points="74.8799,329.467 521.28,329.467" stroke="#191919" stroke-linecap="butt" stroke-dasharray="1,1,1,1,1,1,1,1,1,1" fill="none" stroke-linejoin="miter" stroke-width="0.5" stroke-opacity="0.25"/>
   <polyline points="74.8799,274.455 521.28,274.455" stroke="#191919" stroke-linecap="butt" stroke-dasharray="1,1,1,1,1,1,1,1,1,1" fill="none" stroke-linejoin="miter" stroke-width="0.5" stroke-opacity="0.25"/>
   <polyline points="74.8799,219.442 521.28,219.442" stroke="#191919" stroke-linecap="butt" stroke-dasharray="1,1,1,1,1,1,1,1,1,1" fill="none" stroke-linejoin="miter" stroke-width="0.5" stroke-opacity="0.25"/>
   <polyline points="74.8799,164.43 521.28,164.43" stroke="#191919" stroke-linecap="butt" stroke-dasharray="1,1,1,1,1,1,1,1,1,1" fill="none" stroke-linejoin="miter" stroke-width="0.5" stroke-opacity="0.25"/>
   <polyline points="74.8799,109.417 521.28,109.417" stroke="#191919" stroke-linecap="butt" stroke-dasharray="1,1,1,1,1,1,1,1,1,1" fill="none" stroke-linejoin="miter" stroke-width="0.5" stroke-opacity="0.25"/>
   <polyline points="74.8799,54.4048 521.28,54.4048" stroke="#191919" stroke-linecap="butt" stroke-dasharray="1,1,1,1,1,1,1,1,1,1" fill="none" stroke-linejoin="miter" stroke-width="0.5" stroke-opacity="0.25"/>
   <polyline points="74.8799,384.48 79.3481,384.48" stroke="#262626" stroke-linecap="butt" fill="none" stroke-linejoin="miter" stroke-width="0.5"/>
   <polyline points="521.28,384.48 516.812,384.48" stroke="#262626" stroke-linecap="butt" fill="none" stroke-linejoin="miter" stroke-width="0.5"/>
   <polyline points="74.8799,329.467 79.3481,329.467" stroke="#262626" stroke-linecap="butt" fill="none" stroke-linejoin="miter" stroke-width="0.5"/>
   <polyline points="521.28,329.467 516.812,329.467" stroke="#262626" stroke-linecap="butt" fill="none" stroke-linejoin="miter" stroke-width="0.5"/>
   <polyline points="74.8799,274.455 79.3481,274.455" stroke="#262626" stroke-linecap="butt" fill="none" stroke-linejoin="miter" stroke-width="0.5"/>
   <polyline points="521.28,274.455 516.812,274.455" stroke="#262626" stroke-linecap="butt" fill="none" stroke-linejoin="miter" stroke-width="0.5"/>
   <polyline points="74.8799,219.442 79.3481,219.442" stroke="#262626" stroke-linecap="butt" fill="none" stroke-linejoin="miter" stroke-width="0.5"/>
   <polyline points="521.28,219.442 516.812,219.442" stroke="#262626" stroke-linecap="butt" fill="none" stroke-linejoin="miter" stroke-width="0.5"/>
   <polyline points="74.8799,164.43 79.3481,164.43" stroke="#262626" stroke-linecap="butt" fill="none" stroke-linejoin="miter" stroke-width="0.5"/>
   <polyline points="521.28,164.43 516.812,164.43" stroke="#262626" stroke-linecap="butt" fill="none" stroke-linejoin="miter" stroke-width="0.5"/>
   <polyline points="74.8799,109.417 79.3481,109.417" stroke="#262626" stroke-linecap="butt" fill="none" stroke-linejoin="miter" stroke-width="0.5"/>
   <polyline points="521.28,109.417 516.812,109.417" stroke="#262626" stroke-linecap="butt" fill="none" stroke-linejoin="miter" stroke-width="0.5"/>
   <polyline points="74.8799,54.4048 79.3481,54.4048" stroke="#262626" stroke-linecap="butt" fill="none" stroke-linejoin="miter" stroke-width="0.5"/>
   <polyline points="521.28,54.4048 516.812,54.4048" stroke="#262626" stroke-linecap="butt" fill="none" stroke-linejoin="miter" stroke-width="0.5"/>
   <text font-style="normal" font-weight="normal" font-family="FreeSans" xml:space="preserve" transform="translate(63.8755,388.48) rotate(-0,6,-4)" font-size="10">
    <tspan x="0 " fill="rgb(38,38,38)" y="-0">0</tspan>
   </text>
   <text font-style="normal" font-weight="normal" font-family="FreeSans" xml:space="preserve" transform="translate(63.8755,333.468) rotate(-0,6,-4)" font-size="10">
    <tspan x="0 " fill="rgb(38,38,38)" y="-0">5</tspan>
   </text>
   <text font-style="normal" font-weight="normal" font-family="FreeSans" xml:space="preserve" transform="translate(57.8755,278.455) rotate(-0,12,-4)" font-size="10">
    <tspan x="0 6 " fill="rgb(38,38,38)" y="-0">10</tspan>
   </text>
   <text font-style="normal" font-weight="normal" font-family="FreeSans" xml:space="preserve" transform="translate(57.8755,223.443) rotate(-0,12,-4)" font-size="10">
    <tspan x="0 6 " fill="rgb(38,38,38)" y="-0">15</tspan>
   </text>
   <text font-style="normal" font-weight="normal" font-family="FreeSans" xml:space="preserve" transform="translate(57.8755,168.43) rotate(-0,12,-4)" font-size="10">
    <tspan x="0 6 " fill="rgb(38,38,38)" y="-0">20</tspan>
   </text>
   <text font-style="normal" font-weight="normal" font-family="FreeSans" xml:space="preserve" transform="translate(57.8755,113.418) rotate(-0,12,-4)" font-size="10">
    <tspan x="0 6 " fill="rgb(38,38,38)" y="-0">25</tspan>
   </text>
   <text font-style="normal" font-weight="normal" font-family="FreeSans" xml:space="preserve" transform="translate(57.8755,58.405) rotate(-0,12,-4)" font-size="10">
    <tspan x="0 6 " fill="rgb(38,38,38)" y="-0">30</tspan>
   </text>
   <polyline points="74.8799,384.48 521.28,384.48" stroke="#262626" stroke-linecap="square" stroke-dasharray="16,0" fill="none" stroke-linejoin="miter" stroke-width="0.5"/>
   <polyline points="74.8799,32.3999 521.28,32.3999" stroke="#262626" stroke-linecap="square" stroke-dasharray="16,0" fill="none" stroke-linejoin="miter" stroke-width="0.5"/>
   <polyline points="74.8799,384.48 74.8799,32.3999" stroke="#262626" stroke-linecap="square" stroke-dasharray="16,0" fill="none" stroke-linejoin="miter" stroke-width="0.5"/>
   <polyline points="521.28,384.48 521.28,32.3999" stroke="#262626" stroke-linecap="square" stroke-dasharray="16,0" fill="none" stroke-linejoin="miter" stroke-width="0.5"/>
   <text font-style="normal" font-weight="bold" font-family="FreeSans" xml:space="preserve" transform="translate(163.08,22.4) rotate(-0,135,0)" font-size="18">
    <tspan x="0 13 25 38 54 70 75 86 93 98 108 119 124 134 145 152 162 173 178 192 197 203 214 219 229 240 250 260 " fill="rgb(0,0,0)" y="-4">CPAMM price curve with k=120</tspan>
   </text>
   <text font-style="normal" font-weight="normal" font-family="FreeSans" xml:space="preserve" transform="translate(-43.6245,208.44) rotate(-90,96.5,0)" font-size="18">
    <tspan x="0 11 21 30 40 50 63 73 77 87 92 98 109 122 128 133 137 141 151 161 165 175 179 184 " fill="rgb(38,38,38)" y="-4">TokenCoin (TC) liquidity</tspan>
   </text>
   <text font-style="normal" font-weight="normal" font-family="FreeSans" xml:space="preserve" transform="translate(209.58,425.982) rotate(-0,88.5,-21)" font-size="20">
    <tspan x="0 13 19 30 41 48 53 60 73 86 100 107 112 116 120 131 142 146 157 161 167 " fill="rgb(38,38,38)" y="-5">Ether (ETH) liquidity</tspan>
   </text>
   <polyline points="127.149,32.0479 127.89,37.0327 129.285,45.9414 130.68,54.4048 132.075,62.4556 133.47,70.123 134.865,77.4336 136.26,84.4116 137.655,91.0801 139.05,97.4585 140.445,103.565 141.84,109.417 143.235,115.031 144.63,120.42 146.025,125.598 147.42,130.576 148.815,135.367 150.21,139.98 151.605,144.425 153,148.712 154.395,152.849 155.79,156.842 157.185,160.7 158.58,164.43 159.975,168.038 161.37,171.528 162.765,174.909 164.16,178.183 165.555,181.357 166.95,184.435 168.345,187.42 169.74,190.318 171.135,193.132 172.53,195.866 173.925,198.522 175.32,201.105 176.715,203.617 178.11,206.061 179.505,208.44 180.9,210.756 182.295,213.013 183.69,215.211 185.085,217.354 186.48,219.442 187.875,221.48 189.27,223.468 190.665,225.408 192.06,227.301 193.455,229.15 194.85,230.957 196.245,232.721 197.64,234.446 199.035,236.132 200.43,237.78 201.825,239.392 203.22,240.969 204.615,242.512 206.01,244.022 207.405,245.501 208.8,246.949 210.195,248.367 211.59,249.755 212.985,251.116 214.38,252.45 215.775,253.757 217.17,255.039 218.565,256.295 219.96,257.528 221.355,258.737 222.75,259.923 224.145,261.087 225.54,262.23 226.935,263.352 228.33,264.453 229.725,265.534 231.12,266.596 232.515,267.639 233.91,268.664 235.305,269.671 236.7,270.661 238.095,271.634 239.49,272.59 240.885,273.53 242.28,274.455 243.675,275.364 245.07,276.259 246.465,277.139 247.86,278.004 249.255,278.856 250.65,279.694 252.045,280.52 253.44,281.332 254.835,282.131 256.23,282.918 257.625,283.694 259.02,284.457 260.415,285.209 261.81,285.95 263.205,286.68 264.6,287.399 265.995,288.108 267.39,288.806 268.785,289.495 270.18,290.173 271.575,290.842 272.97,291.501 274.365,292.151 275.76,292.792 277.155,293.425 278.55,294.048 279.945,294.664 281.34,295.271 282.735,295.869 284.13,296.46 285.525,297.043 286.92,297.618 288.315,298.186 289.71,298.746 291.105,299.299 292.5,299.845 293.895,300.384 295.29,300.917 296.685,301.442 298.08,301.961 299.475,302.474 300.87,302.98 302.265,303.48 303.66,303.974 305.055,304.462 306.45,304.944 307.845,305.42 309.24,305.891 310.635,306.356 312.03,306.815 313.425,307.27 314.82,307.718 316.215,308.162 317.61,308.601 319.005,309.034 320.4,309.463 321.795,309.887 323.19,310.306 324.585,310.72 325.98,311.13 327.375,311.535 328.77,311.936 330.165,312.333 331.56,312.725 332.955,313.112 334.35,313.496 335.745,313.875 337.14,314.251 338.535,314.623 339.93,314.991 341.325,315.354 342.72,315.714 344.115,316.071 345.51,316.423 346.905,316.772 348.3,317.118 349.695,317.459 351.09,317.798 352.485,318.133 353.88,318.465 355.275,318.793 356.67,319.119 358.065,319.44 359.46,319.759 360.855,320.075 362.25,320.388 363.645,320.697 365.04,321.004 366.435,321.308 367.83,321.608 369.225,321.907 370.62,322.202 372.015,322.494 373.41,322.784 374.805,323.071 376.2,323.355 377.595,323.637 378.99,323.916 380.385,324.192 381.78,324.466 383.175,324.738 384.57,325.007 385.965,325.274 387.36,325.538 388.755,325.8 390.15,326.06 391.545,326.317 392.94,326.572 394.335,326.825 395.73,327.076 397.125,327.324 398.52,327.57 399.915,327.815 401.31,328.057 402.705,328.297 404.1,328.535 405.495,328.771 406.89,329.005 408.285,329.237 409.68,329.467 411.075,329.696 412.47,329.922 413.865,330.146 415.26,330.369 416.655,330.59 418.05,330.809 419.445,331.026 420.84,331.242 422.235,331.456 423.63,331.668 425.025,331.878 426.42,332.087 427.815,332.294 429.21,332.5 430.605,332.704 432,332.906 433.395,333.106 434.79,333.306 436.185,333.503 437.58,333.699 438.975,333.894 440.37,334.087 441.765,334.278 443.16,334.469 444.555,334.657 445.95,334.845 447.345,335.031 448.74,335.215 450.135,335.398 451.53,335.58 452.925,335.76 454.32,335.939 455.715,336.117 457.11,336.294 458.505,336.469 459.9,336.643 461.295,336.816 462.69,336.987 464.085,337.157 465.48,337.327 466.875,337.494 468.27,337.661 469.665,337.826 471.06,337.991 472.455,338.154 473.85,338.315 475.245,338.477 476.64,338.636 478.035,338.795 479.43,338.953 480.825,339.109 482.22,339.264 483.615,339.418 485.01,339.572 486.405,339.724 487.8,339.875 489.195,340.025 490.59,340.175 491.985,340.323 493.38,340.47 494.775,340.616 496.17,340.761 497.565,340.906 498.96,341.049 500.355,341.191 501.75,341.333 503.145,341.474 504.54,341.613 505.935,341.752 507.33,341.89 508.725,342.027 510.12,342.163 511.515,342.298 512.91,342.432 514.305,342.566 515.7,342.698 517.095,342.83 518.49,342.961 519.885,343.091 521.28,343.221" stroke="#ff0000" stroke-linecap="butt" fill="none" stroke-linejoin="round" stroke-width="0.5"/>
   <polyline points="239.28,274.455 245.28,274.455" stroke="#ff0000" stroke-linecap="square" fill="none" stroke-linejoin="miter" stroke-width="0.5"/>
   <polyline points="242.28,271.455 242.28,277.455" stroke="#ff0000" stroke-linecap="square" fill="none" stroke-linejoin="miter" stroke-width="0.5"/>
   <polyline points="240.159,272.333 244.401,276.576" stroke="#ff0000" stroke-linecap="square" fill="none" stroke-linejoin="miter" stroke-width="0.5"/>
   <polyline points="240.159,276.576 244.401,272.333" stroke="#ff0000" stroke-linecap="square" fill="none" stroke-linejoin="miter" stroke-width="0.5"/>
   <text font-style="normal" font-weight="normal" font-family="FreeSans" xml:space="preserve" transform="translate(242.28,85.41) rotate(-0,-0,-9)" font-size="18">
    <tspan x="0 13 24 36 41 51 61 65 75 85 94 104 109 114 118 128 141 146 157 168 181 186 191 201 205 215 225 230 241 " fill="rgb(0,0,0)" y="-4">DEX balance: low ETH, high TC</tspan>
   </text>
   <text font-style="normal" font-weight="normal" font-family="FreeSans" xml:space="preserve" transform="translate(245.768,258.45) rotate(-0,-0,-6)" font-size="14">
    <tspan x="0 4 12 15 19 22 30 33 37 47 56 65 69 76 80 88 92 " fill="rgb(0,0,0)" y="-0">Initial DEX state</tspan>
   </text>
   <text font-style="normal" font-weight="normal" font-family="FreeSans" xml:space="preserve" transform="translate(245.768,275.954) rotate(-0,-0,-7)" font-size="14">
    <tspan x="0 8 16 20 29 38 48 52 56 64 72 76 85 " fill="rgb(0,0,0)" y="-2">12 ETH, 10 TC</tspan>
   </text>
   <text font-style="normal" font-weight="normal" font-family="FreeSans" xml:space="preserve" transform="translate(116.73,292.958) rotate(-0,-0,-7.5)" font-size="14">
    <tspan x="0 9 18 28 32 40 47 54 59 66 74 81 88 92 100 107 111 119 " fill="rgb(0,0,0)" y="-3">ETH decrease by 10</tspan>
   </text>
  </g>
  <clipPath id="cp00576432">
   <polygon points="0,432 576,432 576,0 0,0"/>
  </clipPath>
  <g clip-path="url(#cp00576432)">
   <polyline points="241.92,274.32 103.68,274.32" stroke="#000000" stroke-linecap="butt" fill="none" stroke-linejoin="round" stroke-width="1"/>
   <polygon points="114.859,268.73 110.947,274.32 114.859,279.91 103.68,274.32" fill="#000000" shape-rendering="crispEdges"/>
   <polyline points="103.68,274.32 114.859,268.73 110.947,274.32 114.859,279.91 103.68,274.32" stroke="#000000" stroke-linecap="butt" fill="none" stroke-linejoin="miter" stroke-width="0.5"/>
  </g>
 </g>
</svg>
