<?xml version='1.0' encoding='UTF-8' standalone='no'?>
<svg xmlns:xlink="http://www.w3.org/1999/xlink" height="432pt" xmlns="http://www.w3.org/2000/svg" viewBox="0 0 576 432" width="576pt">
 <title>gl2ps_renderer figure</title>
 <desc>
Creator: GL2PS 1.4.0, (C) 1999-2017 C. Geuzaine
For: Octave
CreationDate: Sun Apr  3 13:53:59 2022
</desc>
 <defs/>
 <polygon points="0,0 576,0 576,432 0,432" fill="#ffffff"/>
 <g>
  <polygon points="0,432 576,432 576,0 0,0" fill="#ffffff" shape-rendering="crispEdges"/>
  <clipPath id="cp00576432">
   <polygon points="0,432 576,432 576,0 0,0"/>
  </clipPath>
  <g clip-path="url(#cp00576432)">
   <polygon points="74.8799,384.48 521.28,384.48 521.28,32.3999 74.8799,32.3999" fill="#ffffff" shape-rendering="crispEdges"/>
   <polyline stroke-linecap="butt" stroke-width="0.5" stroke="#191919" stroke-linejoin="miter" points="92.7358,384.48 92.7358,32.3999" fill="none" stroke-opacity="0.25" stroke-dasharray="1,1,1,1,1,1,1,1,1,1"/>
   <polyline stroke-linecap="butt" stroke-width="0.5" stroke="#191919" stroke-linejoin="miter" points="110.592,384.48 110.592,32.3999" fill="none" stroke-opacity="0.25" stroke-dasharray="1,1,1,1,1,1,1,1,1,1"/>
   <polyline stroke-linecap="butt" stroke-width="0.5" stroke="#191919" stroke-linejoin="miter" points="128.448,384.48 128.448,32.3999" fill="none" stroke-opacity="0.25" stroke-dasharray="1,1,1,1,1,1,1,1,1,1"/>
   <polyline stroke-linecap="butt" stroke-width="0.5" stroke="#191919" stroke-linejoin="miter" points="146.304,384.48 146.304,32.3999" fill="none" stroke-opacity="0.25" stroke-dasharray="1,1,1,1,1,1,1,1,1,1"/>
   <polyline stroke-linecap="butt" stroke-width="0.5" stroke="#191919" stroke-linejoin="miter" points="182.016,384.48 182.016,32.3999" fill="none" stroke-opacity="0.25" stroke-dasharray="1,1,1,1,1,1,1,1,1,1"/>
   <polyline stroke-linecap="butt" stroke-width="0.5" stroke="#191919" stroke-linejoin="miter" points="199.872,384.48 199.872,32.3999" fill="none" stroke-opacity="0.25" stroke-dasharray="1,1,1,1,1,1,1,1,1,1"/>
   <polyline stroke-linecap="butt" stroke-width="0.5" stroke="#191919" stroke-linejoin="miter" points="217.728,384.48 217.728,32.3999" fill="none" stroke-opacity="0.25" stroke-dasharray="1,1,1,1,1,1,1,1,1,1"/>
   <polyline stroke-linecap="butt" stroke-width="0.5" stroke="#191919" stroke-linejoin="miter" points="235.584,384.48 235.584,32.3999" fill="none" stroke-opacity="0.25" stroke-dasharray="1,1,1,1,1,1,1,1,1,1"/>
   <polyline stroke-linecap="butt" stroke-width="0.5" stroke="#191919" stroke-linejoin="miter" points="271.296,384.48 271.296,32.3999" fill="none" stroke-opacity="0.25" stroke-dasharray="1,1,1,1,1,1,1,1,1,1"/>
   <polyline stroke-linecap="butt" stroke-width="0.5" stroke="#191919" stroke-linejoin="miter" points="289.152,384.48 289.152,32.3999" fill="none" stroke-opacity="0.25" stroke-dasharray="1,1,1,1,1,1,1,1,1,1"/>
   <polyline stroke-linecap="butt" stroke-width="0.5" stroke="#191919" stroke-linejoin="miter" points="307.008,384.48 307.008,32.3999" fill="none" stroke-opacity="0.25" stroke-dasharray="1,1,1,1,1,1,1,1,1,1"/>
   <polyline stroke-linecap="butt" stroke-width="0.5" stroke="#191919" stroke-linejoin="miter" points="324.864,384.48 324.864,32.3999" fill="none" stroke-opacity="0.25" stroke-dasharray="1,1,1,1,1,1,1,1,1,1"/>
   <polyline stroke-linecap="butt" stroke-width="0.5" stroke="#191919" stroke-linejoin="miter" points="360.576,384.48 360.576,32.3999" fill="none" stroke-opacity="0.25" stroke-dasharray="1,1,1,1,1,1,1,1,1,1"/>
   <polyline stroke-linecap="butt" stroke-width="0.5" stroke="#191919" stroke-linejoin="miter" points="378.432,384.48 378.432,32.3999" fill="none" stroke-opacity="0.25" stroke-dasharray="1,1,1,1,1,1,1,1,1,1"/>
   <polyline stroke-linecap="butt" stroke-width="0.5" stroke="#191919" stroke-linejoin="miter" points="396.288,384.48 396.288,32.3999" fill="none" stroke-opacity="0.25" stroke-dasharray="1,1,1,1,1,1,1,1,1,1"/>
   <polyline stroke-linecap="butt" stroke-width="0.5" stroke="#191919" stroke-linejoin="miter" points="414.144,384.48 414.144,32.3999" fill="none" stroke-opacity="0.25" stroke-dasharray="1,1,1,1,1,1,1,1,1,1"/>
   <polyline stroke-linecap="butt" stroke-width="0.5" stroke="#191919" stroke-linejoin="miter" points="449.856,384.48 449.856,32.3999" fill="none" stroke-opacity="0.25" stroke-dasharray="1,1,1,1,1,1,1,1,1,1"/>
   <polyline stroke-linecap="butt" stroke-width="0.5" stroke="#191919" stroke-linejoin="miter" points="467.712,384.48 467.712,32.3999" fill="none" stroke-opacity="0.25" stroke-dasharray="1,1,1,1,1,1,1,1,1,1"/>
   <polyline stroke-linecap="butt" stroke-width="0.5" stroke="#191919" stroke-linejoin="miter" points="485.568,384.48 485.568,32.3999" fill="none" stroke-opacity="0.25" stroke-dasharray="1,1,1,1,1,1,1,1,1,1"/>
   <polyline stroke-linecap="butt" stroke-width="0.5" stroke="#191919" stroke-linejoin="miter" points="503.424,384.48 503.424,32.3999" fill="none" stroke-opacity="0.25" stroke-dasharray="1,1,1,1,1,1,1,1,1,1"/>
   <polyline stroke-linecap="butt" stroke-width="0.5" stroke="#191919" stroke-linejoin="miter" points="74.8799,384.48 74.8799,32.3999" fill="none" stroke-opacity="0.25" stroke-dasharray="1,1,1,1,1,1,1,1,1,1"/>
   <polyline stroke-linecap="butt" stroke-width="0.5" stroke="#191919" stroke-linejoin="miter" points="164.16,384.48 164.16,32.3999" fill="none" stroke-opacity="0.25" stroke-dasharray="1,1,1,1,1,1,1,1,1,1"/>
   <polyline stroke-linecap="butt" stroke-width="0.5" stroke="#191919" stroke-linejoin="miter" points="253.44,384.48 253.44,32.3999" fill="none" stroke-opacity="0.25" stroke-dasharray="1,1,1,1,1,1,1,1,1,1"/>
   <polyline stroke-linecap="butt" stroke-width="0.5" stroke="#191919" stroke-linejoin="miter" points="342.72,384.48 342.72,32.3999" fill="none" stroke-opacity="0.25" stroke-dasharray="1,1,1,1,1,1,1,1,1,1"/>
   <polyline stroke-linecap="butt" stroke-width="0.5" stroke="#191919" stroke-linejoin="miter" points="432,384.48 432,32.3999" fill="none" stroke-opacity="0.25" stroke-dasharray="1,1,1,1,1,1,1,1,1,1"/>
   <polyline stroke-linecap="butt" stroke-width="0.5" stroke="#191919" stroke-linejoin="miter" points="521.28,384.48 521.28,32.3999" fill="none" stroke-opacity="0.25" stroke-dasharray="1,1,1,1,1,1,1,1,1,1"/>
   <polyline stroke-linecap="butt" stroke-width="0.5" stroke="#262626" stroke-linejoin="miter" points="74.8799,384.48 74.8799,380.015" fill="none"/>
   <polyline stroke-linecap="butt" stroke-width="0.5" stroke="#262626" stroke-linejoin="miter" points="74.8799,32.3999 74.8799,36.8652" fill="none"/>
   <polyline stroke-linecap="butt" stroke-width="0.5" stroke="#262626" stroke-linejoin="miter" points="164.16,384.48 164.16,380.015" fill="none"/>
   <polyline stroke-linecap="butt" stroke-width="0.5" stroke="#262626" stroke-linejoin="miter" points="164.16,32.3999 164.16,36.8652" fill="none"/>
   <polyline stroke-linecap="butt" stroke-width="0.5" stroke="#262626" stroke-linejoin="miter" points="253.44,384.48 253.44,380.015" fill="none"/>
   <polyline stroke-linecap="butt" stroke-width="0.5" stroke="#262626" stroke-linejoin="miter" points="253.44,32.3999 253.44,36.8652" fill="none"/>
   <polyline stroke-linecap="butt" stroke-width="0.5" stroke="#262626" stroke-linejoin="miter" points="342.72,384.48 342.72,380.015" fill="none"/>
   <polyline stroke-linecap="butt" stroke-width="0.5" stroke="#262626" stroke-linejoin="miter" points="342.72,32.3999 342.72,36.8652" fill="none"/>
   <polyline stroke-linecap="butt" stroke-width="0.5" stroke="#262626" stroke-linejoin="miter" points="432,384.48 432,380.015" fill="none"/>
   <polyline stroke-linecap="butt" stroke-width="0.5" stroke="#262626" stroke-linejoin="miter" points="432,32.3999 432,36.8652" fill="none"/>
   <polyline stroke-linecap="butt" stroke-width="0.5" stroke="#262626" stroke-linejoin="miter" points="521.28,384.48 521.28,380.015" fill="none"/>
   <polyline stroke-linecap="butt" stroke-width="0.5" stroke="#262626" stroke-linejoin="miter" points="521.28,32.3999 521.28,36.8652" fill="none"/>
   <text font-weight="normal" xml:space="preserve" font-family="FreeSans" transform="translate(67.38,400.982) rotate(-0,7.5,-9)" font-style="normal" font-size="10">
    <tspan y="-1" fill="rgb(38,38,38)" x="0 6 ">0%</tspan>
   </text>
   <text font-weight="normal" xml:space="preserve" font-family="FreeSans" transform="translate(150.66,400.982) rotate(-0,13.5,-9)" font-style="normal" font-size="10">
    <tspan y="-1" fill="rgb(38,38,38)" x="0 6 12 18 ">100%</tspan>
   </text>
   <text font-weight="normal" xml:space="preserve" font-family="FreeSans" transform="translate(239.94,400.982) rotate(-0,13.5,-9)" font-style="normal" font-size="10">
    <tspan y="-1" fill="rgb(38,38,38)" x="0 6 12 18 ">200%</tspan>
   </text>
   <text font-weight="normal" xml:space="preserve" font-family="FreeSans" transform="translate(329.22,400.982) rotate(-0,13.5,-9)" font-style="normal" font-size="10">
    <tspan y="-1" fill="rgb(38,38,38)" x="0 6 12 18 ">300%</tspan>
   </text>
   <text font-weight="normal" xml:space="preserve" font-family="FreeSans" transform="translate(418.5,400.982) rotate(-0,13.5,-9)" font-style="normal" font-size="10">
    <tspan y="-1" fill="rgb(38,38,38)" x="0 6 12 18 ">400%</tspan>
   </text>
   <text font-weight="normal" xml:space="preserve" font-family="FreeSans" transform="translate(507.78,400.982) rotate(-0,13.5,-9)" font-style="normal" font-size="10">
    <tspan y="-1" fill="rgb(38,38,38)" x="0 6 12 18 ">500%</tspan>
   </text>
   <polyline stroke-linecap="butt" stroke-width="0.5" stroke="#191919" stroke-linejoin="miter" points="74.8799,370.397 521.28,370.397" fill="none" stroke-opacity="0.25" stroke-dasharray="1,1,1,1,1,1,1,1,1,1"/>
   <polyline stroke-linecap="butt" stroke-width="0.5" stroke="#191919" stroke-linejoin="miter" points="74.8799,356.313 521.28,356.313" fill="none" stroke-opacity="0.25" stroke-dasharray="1,1,1,1,1,1,1,1,1,1"/>
   <polyline stroke-linecap="butt" stroke-width="0.5" stroke="#191919" stroke-linejoin="miter" points="74.8799,342.23 521.28,342.23" fill="none" stroke-opacity="0.25" stroke-dasharray="1,1,1,1,1,1,1,1,1,1"/>
   <polyline stroke-linecap="butt" stroke-width="0.5" stroke="#191919" stroke-linejoin="miter" points="74.8799,328.147 521.28,328.147" fill="none" stroke-opacity="0.25" stroke-dasharray="1,1,1,1,1,1,1,1,1,1"/>
   <polyline stroke-linecap="butt" stroke-width="0.5" stroke="#191919" stroke-linejoin="miter" points="74.8799,299.981 521.28,299.981" fill="none" stroke-opacity="0.25" stroke-dasharray="1,1,1,1,1,1,1,1,1,1"/>
   <polyline stroke-linecap="butt" stroke-width="0.5" stroke="#191919" stroke-linejoin="miter" points="74.8799,285.897 521.28,285.897" fill="none" stroke-opacity="0.25" stroke-dasharray="1,1,1,1,1,1,1,1,1,1"/>
   <polyline stroke-linecap="butt" stroke-width="0.5" stroke="#191919" stroke-linejoin="miter" points="74.8799,271.814 521.28,271.814" fill="none" stroke-opacity="0.25" stroke-dasharray="1,1,1,1,1,1,1,1,1,1"/>
   <polyline stroke-linecap="butt" stroke-width="0.5" stroke="#191919" stroke-linejoin="miter" points="74.8799,257.731 521.28,257.731" fill="none" stroke-opacity="0.25" stroke-dasharray="1,1,1,1,1,1,1,1,1,1"/>
   <polyline stroke-linecap="butt" stroke-width="0.5" stroke="#191919" stroke-linejoin="miter" points="74.8799,229.565 521.28,229.565" fill="none" stroke-opacity="0.25" stroke-dasharray="1,1,1,1,1,1,1,1,1,1"/>
   <polyline stroke-linecap="butt" stroke-width="0.5" stroke="#191919" stroke-linejoin="miter" points="74.8799,215.481 521.28,215.481" fill="none" stroke-opacity="0.25" stroke-dasharray="1,1,1,1,1,1,1,1,1,1"/>
   <polyline stroke-linecap="butt" stroke-width="0.5" stroke="#191919" stroke-linejoin="miter" points="74.8799,201.398 521.28,201.398" fill="none" stroke-opacity="0.25" stroke-dasharray="1,1,1,1,1,1,1,1,1,1"/>
   <polyline stroke-linecap="butt" stroke-width="0.5" stroke="#191919" stroke-linejoin="miter" points="74.8799,187.315 521.28,187.315" fill="none" stroke-opacity="0.25" stroke-dasharray="1,1,1,1,1,1,1,1,1,1"/>
   <polyline stroke-linecap="butt" stroke-width="0.5" stroke="#191919" stroke-linejoin="miter" points="74.8799,159.149 521.28,159.149" fill="none" stroke-opacity="0.25" stroke-dasharray="1,1,1,1,1,1,1,1,1,1"/>
   <polyline stroke-linecap="butt" stroke-width="0.5" stroke="#191919" stroke-linejoin="miter" points="74.8799,145.065 521.28,145.065" fill="none" stroke-opacity="0.25" stroke-dasharray="1,1,1,1,1,1,1,1,1,1"/>
   <polyline stroke-linecap="butt" stroke-width="0.5" stroke="#191919" stroke-linejoin="miter" points="74.8799,130.982 521.28,130.982" fill="none" stroke-opacity="0.25" stroke-dasharray="1,1,1,1,1,1,1,1,1,1"/>
   <polyline stroke-linecap="butt" stroke-width="0.5" stroke="#191919" stroke-linejoin="miter" points="74.8799,116.899 521.28,116.899" fill="none" stroke-opacity="0.25" stroke-dasharray="1,1,1,1,1,1,1,1,1,1"/>
   <polyline stroke-linecap="butt" stroke-width="0.5" stroke="#191919" stroke-linejoin="miter" points="74.8799,88.7329 521.28,88.7329" fill="none" stroke-opacity="0.25" stroke-dasharray="1,1,1,1,1,1,1,1,1,1"/>
   <polyline stroke-linecap="butt" stroke-width="0.5" stroke="#191919" stroke-linejoin="miter" points="74.8799,74.6494 521.28,74.6494" fill="none" stroke-opacity="0.25" stroke-dasharray="1,1,1,1,1,1,1,1,1,1"/>
   <polyline stroke-linecap="butt" stroke-width="0.5" stroke="#191919" stroke-linejoin="miter" points="74.8799,60.5664 521.28,60.5664" fill="none" stroke-opacity="0.25" stroke-dasharray="1,1,1,1,1,1,1,1,1,1"/>
   <polyline stroke-linecap="butt" stroke-width="0.5" stroke="#191919" stroke-linejoin="miter" points="74.8799,46.4834 521.28,46.4834" fill="none" stroke-opacity="0.25" stroke-dasharray="1,1,1,1,1,1,1,1,1,1"/>
   <polyline stroke-linecap="butt" stroke-width="0.5" stroke="#191919" stroke-linejoin="miter" points="74.8799,384.48 521.28,384.48" fill="none" stroke-opacity="0.25" stroke-dasharray="1,1,1,1,1,1,1,1,1,1"/>
   <polyline stroke-linecap="butt" stroke-width="0.5" stroke="#191919" stroke-linejoin="miter" points="74.8799,314.064 521.28,314.064" fill="none" stroke-opacity="0.25" stroke-dasharray="1,1,1,1,1,1,1,1,1,1"/>
   <polyline stroke-linecap="butt" stroke-width="0.5" stroke="#191919" stroke-linejoin="miter" points="74.8799,243.648 521.28,243.648" fill="none" stroke-opacity="0.25" stroke-dasharray="1,1,1,1,1,1,1,1,1,1"/>
   <polyline stroke-linecap="butt" stroke-width="0.5" stroke="#191919" stroke-linejoin="miter" points="74.8799,173.232 521.28,173.232" fill="none" stroke-opacity="0.25" stroke-dasharray="1,1,1,1,1,1,1,1,1,1"/>
   <polyline stroke-linecap="butt" stroke-width="0.5" stroke="#191919" stroke-linejoin="miter" points="74.8799,102.816 521.28,102.816" fill="none" stroke-opacity="0.25" stroke-dasharray="1,1,1,1,1,1,1,1,1,1"/>
   <polyline stroke-linecap="butt" stroke-width="0.5" stroke="#191919" stroke-linejoin="miter" points="74.8799,32.3999 521.28,32.3999" fill="none" stroke-opacity="0.25" stroke-dasharray="1,1,1,1,1,1,1,1,1,1"/>
   <polyline stroke-linecap="butt" stroke-width="0.5" stroke="#262626" stroke-linejoin="miter" points="74.8799,384.48 79.3481,384.48" fill="none"/>
   <polyline stroke-linecap="butt" stroke-width="0.5" stroke="#262626" stroke-linejoin="miter" points="521.28,384.48 516.812,384.48" fill="none"/>
   <polyline stroke-linecap="butt" stroke-width="0.5" stroke="#262626" stroke-linejoin="miter" points="74.8799,314.064 79.3481,314.064" fill="none"/>
   <polyline stroke-linecap="butt" stroke-width="0.5" stroke="#262626" stroke-linejoin="miter" points="521.28,314.064 516.812,314.064" fill="none"/>
   <polyline stroke-linecap="butt" stroke-width="0.5" stroke="#262626" stroke-linejoin="miter" points="74.8799,243.648 79.3481,243.648" fill="none"/>
   <polyline stroke-linecap="butt" stroke-width="0.5" stroke="#262626" stroke-linejoin="miter" points="521.28,243.648 516.812,243.648" fill="none"/>
   <polyline stroke-linecap="butt" stroke-width="0.5" stroke="#262626" stroke-linejoin="miter" points="74.8799,173.232 79.3481,173.232" fill="none"/>
   <polyline stroke-linecap="butt" stroke-width="0.5" stroke="#262626" stroke-linejoin="miter" points="521.28,173.232 516.812,173.232" fill="none"/>
   <polyline stroke-linecap="butt" stroke-width="0.5" stroke="#262626" stroke-linejoin="miter" points="74.8799,102.816 79.3481,102.816" fill="none"/>
   <polyline stroke-linecap="butt" stroke-width="0.5" stroke="#262626" stroke-linejoin="miter" points="521.28,102.816 516.812,102.816" fill="none"/>
   <polyline stroke-linecap="butt" stroke-width="0.5" stroke="#262626" stroke-linejoin="miter" points="74.8799,32.3999 79.3481,32.3999" fill="none"/>
   <polyline stroke-linecap="butt" stroke-width="0.5" stroke="#262626" stroke-linejoin="miter" points="521.28,32.3999 516.812,32.3999" fill="none"/>
   <text font-weight="normal" xml:space="preserve" font-family="FreeSans" transform="translate(39.8755,388.98) rotate(-0,30,-4.5)" font-style="normal" font-size="10">
    <tspan y="-1" fill="rgb(38,38,38)" x="0 3 9 15 21 ">-100%</tspan>
   </text>
   <text font-weight="normal" xml:space="preserve" font-family="FreeSans" transform="translate(45.8755,318.564) rotate(-0,24,-4.5)" font-style="normal" font-size="10">
    <tspan y="-1" fill="rgb(38,38,38)" x="0 3 9 15 ">-80%</tspan>
   </text>
   <text font-weight="normal" xml:space="preserve" font-family="FreeSans" transform="translate(45.8755,248.148) rotate(-0,24,-4.5)" font-style="normal" font-size="10">
    <tspan y="-1" fill="rgb(38,38,38)" x="0 3 9 15 ">-60%</tspan>
   </text>
   <text font-weight="normal" xml:space="preserve" font-family="FreeSans" transform="translate(45.8755,177.732) rotate(-0,24,-4.5)" font-style="normal" font-size="10">
    <tspan y="-1" fill="rgb(38,38,38)" x="0 3 9 15 ">-40%</tspan>
   </text>
   <text font-weight="normal" xml:space="preserve" font-family="FreeSans" transform="translate(45.8755,107.316) rotate(-0,24,-4.5)" font-style="normal" font-size="10">
    <tspan y="-1" fill="rgb(38,38,38)" x="0 3 9 15 ">-20%</tspan>
   </text>
   <text font-weight="normal" xml:space="preserve" font-family="FreeSans" transform="translate(54.8755,36.9) rotate(-0,15,-4.5)" font-style="normal" font-size="10">
    <tspan y="-1" fill="rgb(38,38,38)" x="0 6 ">0%</tspan>
   </text>
   <polyline stroke-linecap="square" stroke-width="0.5" stroke="#262626" stroke-linejoin="miter" points="74.8799,384.48 521.28,384.48" fill="none" stroke-dasharray="16,0"/>
   <polyline stroke-linecap="square" stroke-width="0.5" stroke="#262626" stroke-linejoin="miter" points="74.8799,32.3999 521.28,32.3999" fill="none" stroke-dasharray="16,0"/>
   <polyline stroke-linecap="square" stroke-width="0.5" stroke="#262626" stroke-linejoin="miter" points="74.8799,384.48 74.8799,32.3999" fill="none" stroke-dasharray="16,0"/>
   <polyline stroke-linecap="square" stroke-width="0.5" stroke="#262626" stroke-linejoin="miter" points="521.28,384.48 521.28,32.3999" fill="none" stroke-dasharray="16,0"/>
   <text font-weight="normal" xml:space="preserve" font-family="FreeSans" transform="translate(178.08,422.982) rotate(-0,120,-17)" font-style="normal" font-size="16">
    <tspan y="-4" fill="rgb(38,38,38)" x="0 11 20 25 30 39 48 52 56 65 70 74 82 91 95 104 112 116 125 129 143 147 156 160 164 168 177 181 185 189 198 201 205 214 219 223 231 ">Current price as a % of initial price</tspan>
   </text>
   <text font-weight="normal" xml:space="preserve" font-family="FreeSans" transform="translate(-135.624,208.44) rotate(-90,170.5,0)" font-style="normal" font-size="16">
    <tspan y="-4" fill="rgb(38,38,38)" x="0 11 20 29 38 47 56 60 64 73 77 80 84 93 102 106 115 119 123 131 135 143 152 155 164 173 177 186 194 198 207 211 225 229 238 242 246 250 259 263 267 271 280 283 287 290 294 303 312 316 325 329 333 ">Change in liquidity value as a % of initial liquidity</tspan>
   </text>
   <text font-weight="bold" xml:space="preserve" font-family="FreeSans" transform="translate(54.58,22.4) rotate(-0,243.5,0)" font-style="normal" font-size="20">
    <tspan y="-4" fill="rgb(0,0,0)" x="0 12 24 35 46 58 69 75 82 94 100 105 111 123 135 141 153 159 166 177 183 195 203 215 226 232 244 256 264 275 281 293 305 317 323 330 342 348 360 368 374 385 397 403 414 425 433 439 450 457 463 475 ">Losses to liquidity providers due to price variation</tspan>
   </text>
   <polyline stroke-linecap="butt" stroke-width="0.5" stroke="#ff0000" stroke-linejoin="round" points="74.8799,384.48 75.7729,314.761 76.6655,286.85 77.5586,266.068 78.4512,249.064 79.3438,234.523 80.2368,221.76 81.1294,210.365 82.0225,200.066 82.915,190.674 83.8081,182.048 84.7007,174.081 85.5938,166.687 86.4863,159.8 87.3794,153.364 88.272,147.332 89.165,141.666 90.0576,136.333 90.9502,131.302 91.8433,126.55 92.7358,122.055 93.6289,117.797 94.5215,113.758 95.4146,109.924 96.3071,106.281 97.2002,102.816 98.0928,99.5176 98.9854,96.376 99.8784,93.3813 100.771,90.5254 101.664,87.7998 102.557,85.1978 103.45,82.7124 104.342,80.3379 105.235,78.0679 106.128,75.8975 107.021,73.8213 107.914,71.835 108.807,69.9341 109.699,68.1147 110.592,66.373 111.485,64.7051 112.377,63.1084 113.271,61.5791 114.163,60.1143 115.056,58.7109 115.949,57.3672 116.842,56.0801 117.734,54.8472 118.627,53.6665 119.52,52.5356 120.413,51.4531 121.306,50.416 122.198,49.4238 123.091,48.4736 123.984,47.5645 124.877,46.6948 125.77,45.8628 126.663,45.0674 127.555,44.3066 128.448,43.5801 129.341,42.8857 130.233,42.2231 131.126,41.5908 132.019,40.9873 132.912,40.4121 133.805,39.8643 134.698,39.3423 135.59,38.8457 136.483,38.374 137.376,37.9258 138.269,37.5 139.162,37.0967 140.054,36.7144 140.947,36.353 141.84,36.0112 142.733,35.689 143.625,35.3853 144.519,35.0996 145.411,34.8315 146.304,34.5801 147.197,34.3452 148.09,34.126 148.982,33.9224 149.875,33.7334 150.768,33.5591 151.661,33.3989 152.554,33.252 153.446,33.1182 154.339,32.9971 155.232,32.8882 156.125,32.791 157.018,32.7056 157.91,32.6318 158.803,32.5684 159.696,32.5156 160.589,32.4731 161.481,32.4409 162.375,32.418 163.267,32.4043 164.16,32.3999 165.053,32.4043 165.946,32.4175 166.838,32.4385 167.731,32.4678 168.624,32.5049 169.517,32.5493 170.41,32.6016 171.302,32.6606 172.195,32.7266 173.088,32.7993 173.981,32.8789 174.874,32.9644 175.767,33.0562 176.659,33.1543 177.552,33.2578 178.445,33.3672 179.337,33.4819 180.23,33.6021 181.123,33.7275 182.016,33.8579 182.909,33.9932 183.802,34.1333 184.694,34.2778 185.587,34.4268 186.48,34.5801 187.373,34.7378 188.266,34.8994 189.158,35.0649 190.051,35.2344 190.944,35.4077 191.837,35.585 192.729,35.7651 193.623,35.9492 194.515,36.1362 195.408,36.3267 196.301,36.5205 197.193,36.7173 198.086,36.9165 198.979,37.1191 199.872,37.3242 200.765,37.5322 201.658,37.7432 202.55,37.9561 203.443,38.1719 204.336,38.3896 205.229,38.6104 206.122,38.833 207.015,39.0576 207.907,39.2847 208.8,39.5137 209.693,39.7446 210.585,39.9775 211.479,40.2119 212.371,40.4487 213.264,40.687 214.157,40.9272 215.05,41.1689 215.942,41.4121 216.835,41.6567 217.728,41.9033 218.621,42.1509 219.514,42.3999 220.406,42.6504 221.299,42.9023 222.192,43.1553 223.085,43.4097 223.978,43.6655 224.871,43.9219 225.763,44.1797 226.656,44.4385 227.549,44.6982 228.441,44.959 229.334,45.2207 230.227,45.4834 231.12,45.7471 232.013,46.0112 232.906,46.2764 233.798,46.5425 234.691,46.8091 235.584,47.0767 236.477,47.3447 237.37,47.6133 238.262,47.8828 239.155,48.1528 240.048,48.4233 240.941,48.6948 241.833,48.9663 242.727,49.2383 243.619,49.5112 244.512,49.7842 245.405,50.0576 246.297,50.332 247.19,50.606 248.083,50.8809 248.976,51.1558 249.869,51.4312 250.762,51.707 251.654,51.9829 252.547,52.2593 253.44,52.5356 254.333,52.8125 255.226,53.0894 256.118,53.3667 257.011,53.644 257.904,53.9214 258.797,54.1992 259.689,54.4766 260.583,54.7549 261.475,55.0327 262.368,55.3105 263.261,55.5889 264.154,55.8672 265.046,56.1455 265.939,56.4233 266.832,56.7017 267.725,56.98 268.618,57.2583 269.51,57.5366 270.403,57.8149 271.296,58.0933 272.189,58.3711 273.082,58.6494 273.975,58.9272 274.867,59.2051 275.76,59.4829 276.653,59.7607 277.545,60.0386 278.438,60.3159 279.331,60.5933 280.224,60.8706 281.117,61.1475 282.01,61.4243 282.902,61.7012 283.795,61.9775 284.688,62.2539 285.581,62.5303 286.474,62.8062 287.366,63.082 288.259,63.3574 289.152,63.6328 290.045,63.9082 290.938,64.1831 291.831,64.4575 292.723,64.7319 293.616,65.0063 294.509,65.2803 295.401,65.5537 296.294,65.8271 297.187,66.1001 298.08,66.373 298.973,66.6455 299.866,66.9175 300.758,67.1895 301.651,67.4614 302.544,67.7324 303.437,68.0034 304.33,68.2744 305.222,68.5449 306.115,68.8149 307.008,69.0845 307.901,69.354 308.793,69.623 309.687,69.8916 310.579,70.1602 311.472,70.4282 312.365,70.6958 313.258,70.9629 314.15,71.23 315.043,71.4966 315.936,71.7632 316.829,72.0288 317.722,72.2944 318.614,72.5596 319.507,72.8242 320.4,73.0889 321.293,73.3525 322.186,73.6162 323.079,73.8799 323.971,74.1426 324.864,74.4048 325.757,74.667 326.649,74.9287 327.542,75.1899 328.435,75.4512 329.328,75.7114 330.221,75.9717 331.114,76.2314 332.006,76.4907 332.899,76.7495 333.792,77.0078 334.685,77.2661 335.578,77.5234 336.47,77.7808 337.363,78.0376 338.256,78.2939 339.149,78.5498 340.042,78.8057 340.935,79.0605 341.827,79.3154 342.72,79.5698 343.613,79.8237 344.505,80.0771 345.398,80.3301 346.291,80.583 347.184,80.835 348.077,81.0869 348.97,81.3379 349.862,81.5889 350.755,81.8394 351.648,82.0894 352.541,82.3389 353.434,82.5879 354.326,82.8369 355.219,83.085 356.112,83.333 357.005,83.5806 357.897,83.8276 358.791,84.0742 359.683,84.3203 360.576,84.5659 361.469,84.811 362.362,85.0557 363.254,85.3003 364.147,85.5439 365.04,85.7876 365.933,86.0308 366.826,86.2734 367.718,86.5156 368.611,86.7573 369.504,86.9985 370.397,87.2393 371.29,87.48 372.183,87.7197 373.075,87.9595 373.968,88.1987 374.861,88.437 375.753,88.6753 376.646,88.9131 377.539,89.1504 378.432,89.3877 379.325,89.624 380.218,89.8599 381.11,90.0957 382.003,90.3311 382.896,90.5654 383.789,90.7998 384.682,91.0337 385.574,91.2671 386.467,91.5 387.36,91.7329 388.253,91.9648 389.146,92.1968 390.039,92.4277 390.931,92.6587 391.824,92.8892 392.717,93.1191 393.609,93.3486 394.502,93.5776 395.395,93.8062 396.288,94.0347 397.181,94.2622 398.074,94.4897 398.966,94.7163 399.859,94.9429 400.752,95.1689 401.645,95.3945 402.538,95.6201 403.43,95.8447 404.323,96.0693 405.216,96.293 406.109,96.5166 407.001,96.7397 407.895,96.9624 408.787,97.1846 409.68,97.4062 410.573,97.6279 411.466,97.8486 412.358,98.0693 413.251,98.2896 414.144,98.5093 415.037,98.7285 415.93,98.9473 416.822,99.1655 417.715,99.3838 418.608,99.6011 419.501,99.8184 420.394,100.035 421.287,100.251 422.179,100.468 423.072,100.683 423.965,100.898 424.857,101.113 425.75,101.327 426.643,101.541 427.536,101.755 428.429,101.968 429.322,102.181 430.214,102.393 431.107,102.604 432,102.816 432.893,103.027 433.786,103.238 434.678,103.448 435.571,103.658 436.464,103.867 437.357,104.076 438.25,104.285 439.143,104.493 440.035,104.701 440.928,104.908 441.821,105.115 442.713,105.322 443.606,105.528 444.499,105.734 445.392,105.939 446.285,106.145 447.178,106.35 448.07,106.554 448.963,106.757 449.856,106.961 450.749,107.164 451.642,107.367 452.534,107.569 453.427,107.771 454.32,107.973 455.213,108.174 456.105,108.375 456.999,108.575 457.891,108.775 458.784,108.975 459.677,109.174 460.57,109.373 461.462,109.572 462.355,109.77 463.248,109.967 464.141,110.165 465.034,110.362 465.926,110.559 466.819,110.755 467.712,110.951 468.605,111.146 469.498,111.341 470.391,111.536 471.283,111.73 472.176,111.925 473.069,112.118 473.961,112.312 474.854,112.504 475.747,112.697 476.64,112.889 477.533,113.081 478.426,113.272 479.318,113.464 480.211,113.654 481.104,113.845 481.997,114.035 482.89,114.225 483.782,114.414 484.675,114.603 485.568,114.792 486.461,114.98 487.354,115.168 488.247,115.355 489.139,115.542 490.032,115.729 490.925,115.916 491.817,116.102 492.71,116.288 493.603,116.474 494.496,116.659 495.389,116.843 496.282,117.028 497.174,117.212 498.067,117.396 498.96,117.579 499.853,117.762 500.746,117.945 501.639,118.127 502.531,118.309 503.424,118.491 504.317,118.672 505.209,118.853 506.103,119.034 506.995,119.214 507.888,119.394 508.781,119.574 509.674,119.753 510.566,119.932 511.459,120.111 512.352,120.29 513.245,120.467 514.138,120.645 515.03,120.822 515.923,121 516.816,121.176 517.709,121.353 518.602,121.529 519.495,121.705 520.387,121.88 521.28,122.055" fill="none"/>
  </g>
 </g>
</svg>
