<?xml version="1.0" encoding="UTF-8" standalone="no"?>
<!DOCTYPE svg PUBLIC "-//W3C//DTD SVG 1.1//EN"
 "http://www.w3.org/Graphics/SVG/1.1/DTD/svg11.dtd">
<!-- Generated by graphviz version 2.43.0 (0)
 -->
<!-- Title: A Pages: 1 -->
<svg width="185pt" height="131pt"
 viewBox="0.00 0.00 185.49 131.00" xmlns="http://www.w3.org/2000/svg" xmlns:xlink="http://www.w3.org/1999/xlink">
<g id="graph0" class="graph" transform="scale(1 1) rotate(0) translate(4 127)">
<title>A</title>
<polygon fill="white" stroke="transparent" points="-4,4 -4,-127 181.49,-127 181.49,4 -4,4"/>
<!-- Gen -->
<g id="node1" class="node">
<title>Gen</title>
<ellipse fill="none" stroke="black" cx="88.25" cy="-105" rx="29.5" ry="18"/>
<text text-anchor="middle" x="88.25" y="-101.3" font-family="Times,serif" font-size="14.00">Gen</text>
</g>
<!-- Lt 1 -->
<g id="node2" class="node">
<title>Lt 1</title>
<ellipse fill="none" stroke="black" cx="29.25" cy="-18" rx="29.5" ry="18"/>
<text text-anchor="middle" x="29.25" y="-14.3" font-family="Times,serif" font-size="14.00">Lt 1</text>
</g>
<!-- Gen&#45;&gt;Lt 1 -->
<g id="edge1" class="edge">
<title>Gen&#45;&gt;Lt 1</title>
<path fill="none" stroke="black" d="M77.15,-88.01C68.41,-75.43 56.1,-57.68 46.14,-43.33"/>
<polygon fill="black" stroke="black" points="48.87,-41.14 40.3,-34.92 43.12,-45.13 48.87,-41.14"/>
<text text-anchor="middle" x="84.75" y="-57.8" font-family="Times,serif" font-size="14.00">msg a</text>
</g>
<!-- Lt 2 -->
<g id="node3" class="node">
<title>Lt 2</title>
<ellipse fill="none" stroke="black" cx="148.25" cy="-18" rx="29.5" ry="18"/>
<text text-anchor="middle" x="148.25" y="-14.3" font-family="Times,serif" font-size="14.00">Lt 2</text>
</g>
<!-- Gen&#45;&gt;Lt 2 -->
<g id="edge2" class="edge">
<title>Gen&#45;&gt;Lt 2</title>
<path fill="none" stroke="black" d="M99.53,-88.01C108.42,-75.43 120.94,-57.68 131.07,-43.33"/>
<polygon fill="black" stroke="black" points="134.1,-45.1 137.01,-34.92 128.39,-41.07 134.1,-45.1"/>
<text text-anchor="middle" x="143.25" y="-57.8" font-family="Times,serif" font-size="14.00">msg b</text>
</g>
<!-- Lt 2&#45;&gt;Lt 1 -->
<g id="edge3" class="edge">
<title>Lt 2&#45;&gt;Lt 1</title>
<path fill="none" stroke="black" d="M118.76,-18C103.73,-18 85.24,-18 68.97,-18"/>
<polygon fill="black" stroke="black" points="68.66,-14.5 58.66,-18 68.66,-21.5 68.66,-14.5"/>
<text text-anchor="middle" x="88.75" y="-24.8" font-family="Times,serif" font-size="14.00">msg c</text>
</g>
</g>
</svg>
