<?xml version="1.0" encoding="UTF-8" standalone="no"?>
<!DOCTYPE svg PUBLIC "-//W3C//DTD SVG 1.1//EN"
 "http://www.w3.org/Graphics/SVG/1.1/DTD/svg11.dtd">
<!-- Generated by graphviz version 2.43.0 (0)
 -->
<!-- Title: A Pages: 1 -->
<svg width="185pt" height="131pt"
 viewBox="0.00 0.00 185.49 131.00" xmlns="http://www.w3.org/2000/svg" xmlns:xlink="http://www.w3.org/1999/xlink">
<g id="graph0" class="graph" transform="scale(1 1) rotate(0) translate(4 127)">
<title>A</title>
<polygon fill="white" stroke="transparent" points="-4,4 -4,-127 181.49,-127 181.49,4 -4,4"/>
<!-- Cmdr -->
<g id="node1" class="node">
<title>Cmdr</title>
<ellipse fill="none" stroke="black" cx="88.25" cy="-105" rx="36.29" ry="18"/>
<text text-anchor="middle" x="88.25" y="-101.3" font-family="Times,serif" font-size="14.00">Cmdr</text>
</g>
<!-- Lt 1 -->
<g id="node2" class="node">
<title>Lt 1</title>
<ellipse fill="none" stroke="black" cx="29.25" cy="-18" rx="29.5" ry="18"/>
<text text-anchor="middle" x="29.25" y="-14.3" font-family="Times,serif" font-size="14.00">Lt 1</text>
</g>
<!-- Cmdr&#45;&gt;Lt 1 -->
<g id="edge1" class="edge">
<title>Cmdr&#45;&gt;Lt 1</title>
<path fill="none" stroke="black" d="M76.87,-87.61C68.11,-74.99 55.86,-57.34 45.98,-43.11"/>
<polygon fill="black" stroke="black" points="48.77,-40.98 40.19,-34.76 43.02,-44.97 48.77,-40.98"/>
<text text-anchor="middle" x="84.75" y="-57.8" font-family="Times,serif" font-size="14.00">msg a</text>
</g>
<!-- Lt 2 -->
<g id="node3" class="node">
<title>Lt 2</title>
<ellipse fill="none" stroke="black" cx="148.25" cy="-18" rx="29.5" ry="18"/>
<text text-anchor="middle" x="148.25" y="-14.3" font-family="Times,serif" font-size="14.00">Lt 2</text>
</g>
<!-- Cmdr&#45;&gt;Lt 2 -->
<g id="edge2" class="edge">
<title>Cmdr&#45;&gt;Lt 2</title>
<path fill="none" stroke="black" d="M99.82,-87.61C108.73,-74.99 121.18,-57.34 131.23,-43.11"/>
<polygon fill="black" stroke="black" points="134.21,-44.95 137.12,-34.76 128.49,-40.92 134.21,-44.95"/>
<text text-anchor="middle" x="143.25" y="-57.8" font-family="Times,serif" font-size="14.00">msg b</text>
</g>
<!-- Lt 2&#45;&gt;Lt 1 -->
<g id="edge3" class="edge">
<title>Lt 2&#45;&gt;Lt 1</title>
<path fill="none" stroke="black" d="M118.76,-18C103.73,-18 85.24,-18 68.97,-18"/>
<polygon fill="black" stroke="black" points="68.66,-14.5 58.66,-18 68.66,-21.5 68.66,-14.5"/>
<text text-anchor="middle" x="88.75" y="-24.8" font-family="Times,serif" font-size="14.00">msg c</text>
</g>
</g>
</svg>
