<?xml version="1.0" encoding="UTF-8" standalone="no"?>
<!DOCTYPE svg PUBLIC "-//W3C//DTD SVG 1.1//EN"
 "http://www.w3.org/Graphics/SVG/1.1/DTD/svg11.dtd">
<!-- Generated by graphviz version 2.43.0 (0)
 -->
<!-- Title: D Pages: 1 -->
<svg width="160pt" height="131pt"
 viewBox="0.00 0.00 160.49 131.00" xmlns="http://www.w3.org/2000/svg" xmlns:xlink="http://www.w3.org/1999/xlink">
<g id="page0,1_graph0" class="graph" transform="scale(1 1) rotate(0) translate(4 127)">
<title>D</title>
<polygon fill="white" stroke="transparent" points="-4,4 -4,-127 156.49,-127 156.49,4 -4,4"/>
<!-- Cmdr -->
<g id="node1" class="node">
<title>Cmdr</title>
<ellipse fill="red" stroke="black" cx="75.25" cy="-105" rx="36.29" ry="18"/>
<text text-anchor="middle" x="75.25" y="-101.3" font-family="Times,serif" font-size="14.00">Cmdr</text>
</g>
<!-- Lt 1 -->
<g id="node2" class="node">
<title>Lt 1</title>
<ellipse fill="none" stroke="black" cx="29.25" cy="-18" rx="29.5" ry="18"/>
<text text-anchor="middle" x="29.25" y="-14.3" font-family="Times,serif" font-size="14.00">Lt 1</text>
</g>
<!-- Cmdr&#45;&gt;Lt 1 -->
<g id="edge1" class="edge">
<title>Cmdr&#45;&gt;Lt 1</title>
<path fill="none" stroke="black" d="M66.16,-87.21C59.52,-74.94 50.41,-58.1 42.9,-44.22"/>
<polygon fill="black" stroke="black" points="45.84,-42.31 38,-35.18 39.69,-45.64 45.84,-42.31"/>
<text text-anchor="middle" x="60.25" y="-57.8" font-family="Times,serif" font-size="14.00">A</text>
</g>
<!-- Lt 2 -->
<g id="node3" class="node">
<title>Lt 2</title>
<ellipse fill="red" stroke="black" cx="123.25" cy="-18" rx="29.5" ry="18"/>
<text text-anchor="middle" x="123.25" y="-14.3" font-family="Times,serif" font-size="14.00">Lt 2</text>
</g>
<!-- Cmdr&#45;&gt;Lt 2 -->
<g id="edge2" class="edge">
<title>Cmdr&#45;&gt;Lt 2</title>
<path fill="none" stroke="black" d="M84.73,-87.21C91.66,-74.94 101.17,-58.1 109,-44.22"/>
<polygon fill="black" stroke="black" points="112.24,-45.61 114.11,-35.18 106.14,-42.17 112.24,-45.61"/>
<text text-anchor="middle" x="106.75" y="-57.8" font-family="Times,serif" font-size="14.00">R</text>
</g>
<!-- Lt 2&#45;&gt;Lt 1 -->
<g id="edge3" class="edge">
<title>Lt 2&#45;&gt;Lt 1</title>
<path fill="none" stroke="black" d="M93.87,-18C85.91,-18 77.17,-18 68.76,-18"/>
<polygon fill="black" stroke="black" points="68.73,-14.5 58.73,-18 68.73,-21.5 68.73,-14.5"/>
<text text-anchor="middle" x="76.25" y="-24.8" font-family="Times,serif" font-size="14.00">A</text>
</g>
</g>
</svg>
