<?xml version="1.0" encoding="UTF-8" standalone="no"?>
<!-- Created with Inkscape (http://www.inkscape.org/) -->

<svg
   version="1.1"
   id="svg2"
   xml:space="preserve"
   width="659.34918"
   height="615.96039"
   viewBox="0 0 659.34918 615.96039"
   xmlns="http://www.w3.org/2000/svg"
   xmlns:svg="http://www.w3.org/2000/svg"><defs
     id="defs6" /><g
     id="g8"
     transform="matrix(1.3333333,0,0,-1.3333333,-78.325465,715.98068)"><path
       d="m 306,75.0152 c -136.556,0 -247.2559,4.2028 -247.2559,9.386 0,5.1847 110.6999,9.3879 247.2559,9.3879 136.556,0 247.256,-4.2032 247.256,-9.3879 0,-5.1832 -110.7,-9.386 -247.256,-9.386"
       style="fill:#dbdad8;fill-opacity:1;fill-rule:nonzero;stroke:none;stroke-width:0.1"
       id="path14" /><path
       d="m 369.814,533.169 17.201,-36.963 -36.963,-17.2 c -9.396,20.177 -0.859,44.221 19.249,53.921 0.173,0.083 0.343,0.162 0.513,0.242"
       style="fill:#fbe35d;fill-opacity:1;fill-rule:nonzero;stroke:none;stroke-width:0.1"
       id="path16" /><path
       d="m 423.979,513.407 c 9.399,-20.176 0.859,-44.22 -19.249,-53.92 -0.171,-0.084 -0.345,-0.164 -0.515,-0.243 l -17.2,36.962 36.964,17.201"
       style="fill:#f08f13;fill-opacity:1;fill-rule:nonzero;stroke:none;stroke-width:0.1"
       id="path18" /><path
       d="m 350.052,479.006 36.963,17.2 17.2,-36.962 c -20.178,-9.396 -44.22,-0.861 -53.92,19.246 -0.083,0.173 -0.164,0.345 -0.243,0.516"
       style="fill:#f4ae2e;fill-opacity:1;fill-rule:nonzero;stroke:none;stroke-width:0.1"
       id="path20" /><path
       d="m 423.979,513.407 -36.964,-17.201 -17.201,36.963 c 20.176,9.398 44.224,0.86 53.924,-19.248 0.083,-0.173 0.162,-0.343 0.241,-0.514"
       style="fill:#f4ae2e;fill-opacity:1;fill-rule:nonzero;stroke:none;stroke-width:0.1"
       id="path22" /><path
       d="m 417.072,510.731 0.009,-0.019 c 8.01,-16.605 1.047,-36.564 -15.559,-44.574 l -0.025,-0.012 c -1.767,-0.852 -3.568,-1.533 -5.397,-2.047 -2.699,-0.77 -5.447,-1.179 -8.168,-1.254 -5.423,-0.141 -10.775,1.046 -15.598,3.396 -2.3,1.131 -4.482,2.522 -6.491,4.169 -3.648,2.98 -6.714,6.788 -8.897,11.313 -0.101,0.21 -0.202,0.419 -0.291,0.635 -7.444,16.259 -0.721,35.515 15.223,43.613 0.203,0.114 0.42,0.218 0.636,0.322 4.524,2.183 9.289,3.252 13.998,3.314 2.594,0.045 5.169,-0.224 7.676,-0.778 5.235,-1.156 10.167,-3.555 14.321,-7.051 2.09,-1.749 3.979,-3.783 5.613,-6.065 1.111,-1.54 2.098,-3.195 2.95,-4.962"
       style="fill:#fbc640;fill-opacity:1;fill-rule:nonzero;stroke:none;stroke-width:0.1"
       id="path24" /><path
       d="m 366.285,471.658 c -3.283,2.886 -6.055,6.464 -8.074,10.649 -0.315,0.653 -0.608,1.312 -0.877,1.975 l 14.544,41.669 c 0.203,0.114 0.42,0.218 0.636,0.322 4.524,2.183 9.289,3.252 13.998,3.314 l -3.335,-9.55 -0.131,0.271 -3.94,-1.914 2.035,-4.189 -1.326,-3.799 -0.132,-0.064 -3.275,6.742 -3.943,-1.916 3.274,-6.741 -7.783,-3.78 1.916,-3.944 4.775,2.32 1.507,-3.102 -9.869,-28.263 m -7.499,6.721 c -0.668,1.06 -1.282,2.168 -1.84,3.324 -0.076,0.157 -0.152,0.315 -0.222,0.475 0.074,-0.16 0.149,-0.32 0.226,-0.479 0.557,-1.153 1.171,-2.261 1.836,-3.32"
       style="fill:#fcd261;fill-opacity:1;fill-rule:nonzero;stroke:none;stroke-width:0.1"
       id="path26" /><path
       d="m 388.09,463.28 c -5.392,0.071 -10.68,1.442 -15.402,3.954 l 8.089,23.168 3.846,-7.919 -4.775,-2.319 2.217,-4.567 7.784,3.78 2.247,-4.626 -4.006,-11.471 m 6.044,17.309 -0.342,0.703 0.708,0.344 -0.366,-1.047 m -2.812,4.725 -4.247,8.745 0.418,0.203 c 0.925,0.449 1.827,0.892 2.704,1.298 1.456,0.672 2.834,1.242 4.11,1.564 0.723,0.184 1.412,0.289 2.06,0.289 1.222,0 2.299,-0.373 3.189,-1.295 l -2.92,-8.363 c -0.708,-0.422 -1.43,-0.796 -2.107,-1.116 -1.176,-0.566 -2.21,-0.964 -2.765,-1.17 -0.28,-0.1 -0.442,-0.155 -0.442,-0.155 m -6.261,12.894 -0.907,1.866 3.012,8.626 c 0.493,0.115 0.967,0.184 1.423,0.195 0.041,0.001 0.083,0.001 0.124,0.001 1.591,0 2.93,-0.744 3.918,-2.778 0.732,-1.508 0.247,-2.851 -0.758,-3.985 -0.937,-1.057 -2.33,-1.932 -3.613,-2.585 -1.136,-0.577 -2.191,-0.985 -2.756,-1.19 -0.279,-0.101 -0.443,-0.15 -0.443,-0.15 m 17.258,5.822 c -0.493,0.089 -0.959,0.123 -1.382,0.123 -0.433,0 -0.821,-0.035 -1.146,-0.083 -0.015,-0.002 -0.03,-0.003 -0.044,-0.003 -0.205,0 -0.329,0.238 -0.209,0.422 0.629,0.946 0.691,2.547 0.614,3.379 -0.27,2.889 -1.945,6.011 -4.864,7.018 -0.757,0.261 -1.567,0.375 -2.402,0.375 -1.184,0 -2.42,-0.228 -3.633,-0.583 l 4.935,14.131 c 5.235,-1.156 10.167,-3.555 14.321,-7.051 l -6.19,-17.728"
       style="fill:#fcd261;fill-opacity:1;fill-rule:nonzero;stroke:none;stroke-width:0.1"
       id="path28" /><path
       d="m 396.126,464.152 4.234,12.127 3.293,1.6 -1.59,3.275 1.769,5.067 c 1.469,1.017 7.886,5.945 4.706,12.494 -0.067,0.138 -0.135,0.272 -0.203,0.403 l 5.787,16.575 c 1.111,-1.54 2.098,-3.195 2.95,-4.962 l -15.575,-44.605 c -0.132,-0.064 -0.265,-0.127 -0.397,-0.188 -1.208,-0.564 -2.432,-1.048 -3.669,-1.454 -0.435,-0.12 -0.869,-0.231 -1.305,-0.332"
       style="fill:#fcd261;fill-opacity:1;fill-rule:nonzero;stroke:none;stroke-width:0.1"
       id="path30" /><path
       d="m 393.072,472.74 -0.976,2.011 2.038,5.838 2.883,-5.934 -3.945,-1.915 m 6.642,3.225 -3.224,6.638 -1.99,-0.967 2.136,6.119 c 0.578,0.344 1.148,0.719 1.675,1.123 2.001,1.528 3.394,3.457 2.351,5.604 -0.326,0.673 -0.696,1.212 -1.106,1.636 l 2.763,7.912 c 1.923,-0.35 4.254,-1.55 6.016,-4.912 l -4.503,-12.897 c -0.184,-0.127 -0.291,-0.193 -0.291,-0.193 l -3.111,-1.512 1.633,-3.362 -1.703,-4.875 -0.646,-0.314 m -18.937,14.437 -4.623,9.519 3.661,10.485 2.566,1.246 -1.24,2.553 2.036,5.832 3.136,-6.455 c 0.935,0.415 1.93,0.8 2.94,1.096 l -2.087,-5.978 c -0.899,-0.21 -1.856,-0.575 -2.857,-1.019 -0.875,-0.386 -1.778,-0.829 -2.71,-1.283 l -0.418,-0.203 2.973,-6.121 -3.377,-9.672"
       style="fill:#f9ac28;fill-opacity:1;fill-rule:nonzero;stroke:none;stroke-width:0.1"
       id="path32" /><path
       d="m 376.154,499.921 -1.507,3.102 -4.775,-2.32 -1.916,3.944 7.783,3.78 -3.274,6.741 3.943,1.916 3.275,-6.742 0.132,0.064 -3.661,-10.485 m 4.987,14.284 -2.035,4.189 3.94,1.914 0.131,-0.271 -2.036,-5.832"
       style="fill:#fab63c;fill-opacity:1;fill-rule:nonzero;stroke:none;stroke-width:0.1"
       id="path34" /><path
       d="m 392.096,474.751 -2.247,4.626 -7.784,-3.78 -2.217,4.567 4.775,2.319 -3.846,7.919 3.377,9.672 0.907,-1.866 c 0,0 0.164,0.049 0.443,0.15 0.565,0.205 1.62,0.613 2.756,1.19 1.283,0.653 2.676,1.528 3.613,2.585 1.005,1.134 1.49,2.477 0.758,3.985 -0.988,2.034 -2.327,2.778 -3.918,2.778 -0.041,0 -0.083,0 -0.124,-0.001 -0.456,-0.011 -0.93,-0.08 -1.423,-0.195 l 2.087,5.978 c 1.213,0.355 2.449,0.583 3.633,0.583 0.835,0 1.645,-0.114 2.402,-0.375 2.919,-1.007 4.594,-4.129 4.864,-7.018 0.077,-0.832 0.015,-2.433 -0.614,-3.379 -0.12,-0.184 0.004,-0.422 0.209,-0.422 0.014,0 0.029,10e-4 0.044,0.003 0.325,0.048 0.713,0.083 1.146,0.083 0.423,0 0.889,-0.034 1.382,-0.123 l -2.763,-7.912 c -0.89,0.922 -1.967,1.295 -3.189,1.295 -0.648,0 -1.337,-0.105 -2.06,-0.289 -1.276,-0.322 -2.654,-0.892 -4.11,-1.564 -0.877,-0.406 -1.779,-0.849 -2.704,-1.298 l -0.418,-0.203 4.247,-8.745 c 0,0 0.162,0.055 0.442,0.155 0.555,0.206 1.589,0.604 2.765,1.17 0.677,0.32 1.399,0.694 2.107,1.116 l -2.136,-6.119 -0.708,-0.344 0.342,-0.703 -2.038,-5.838"
       style="fill:#fab63c;fill-opacity:1;fill-rule:nonzero;stroke:none;stroke-width:0.1"
       id="path36" /><path
       d="m 400.36,476.279 1.703,4.875 1.59,-3.275 -3.293,-1.6 m 3.472,9.942 4.503,12.897 c 0.068,-0.131 0.136,-0.265 0.203,-0.403 3.18,-6.549 -3.237,-11.477 -4.706,-12.494"
       style="fill:#fab63c;fill-opacity:1;fill-rule:nonzero;stroke:none;stroke-width:0.1"
       id="path38" /><path
       d="m 396.719,488.959 c -1.174,-0.898 -2.554,-1.658 -3.781,-2.239 -1.176,-0.566 -2.21,-0.964 -2.766,-1.17 -0.279,-0.1 -0.442,-0.154 -0.442,-0.154 l -4.247,8.743 0.418,0.203 c 0.925,0.45 1.828,0.893 2.703,1.299 1.458,0.672 2.835,1.242 4.11,1.563 2.715,0.692 4.942,0.269 6.356,-2.642 1.043,-2.146 -0.35,-4.075 -2.351,-5.603 z m -17.131,17.317 0.418,0.203 c 0.933,0.453 1.836,0.896 2.712,1.282 1.549,0.688 2.991,1.185 4.279,1.214 1.646,0.039 3.028,-0.69 4.042,-2.777 0.732,-1.507 0.247,-2.851 -0.758,-3.985 -0.937,-1.056 -2.331,-1.932 -3.613,-2.585 -1.137,-0.576 -2.19,-0.984 -2.757,-1.189 -0.278,-0.101 -0.443,-0.151 -0.443,-0.151 z m 18.611,-2.125 c -0.23,-0.037 -0.382,0.223 -0.253,0.419 0.628,0.946 0.691,2.546 0.615,3.379 -0.271,2.889 -1.946,6.011 -4.865,7.018 -2.727,0.941 -6.127,-0.04 -8.975,-1.304 l -3.268,6.726 -3.939,-1.914 3.274,-6.742 -2.697,-1.31 -3.275,6.742 -3.944,-1.915 3.275,-6.743 -7.783,-3.78 1.915,-3.943 4.777,2.319 9.975,-20.539 -4.776,-2.319 2.219,-4.567 7.783,3.78 3.223,-6.638 3.944,1.916 -3.224,6.637 2.697,1.311 3.225,-6.638 3.94,1.914 -3.224,6.637 3.111,1.511 c 0,0 8.576,5.319 4.997,12.687 -2.673,5.504 -6.821,5.636 -8.747,5.356"
       style="fill:#ffffff;fill-opacity:1;fill-rule:nonzero;stroke:none;stroke-width:0.1"
       id="path40" /><path
       d="m 356.724,482.178 c -7.714,16.641 -0.666,36.447 15.912,44.445 0.061,0.029 0.122,0.059 0.184,0.088 l 0.01,-0.022 c -1.508,-0.793 -2.933,-1.687 -4.269,-2.668 -13.525,-8.942 -18.811,-26.602 -11.906,-41.683 v 0 c 0.022,-0.054 0.045,-0.107 0.069,-0.16"
       style="fill:#f3a92d;fill-opacity:1;fill-rule:nonzero;stroke:none;stroke-width:0.1"
       id="path42" /><path
       d="m 401.208,465.706 -0.027,0.057 c 0.441,0.18 0.879,0.369 1.316,0.569 -0.205,-0.111 -0.415,-0.212 -0.625,-0.314 -0.221,-0.106 -0.443,-0.21 -0.664,-0.312"
       style="fill:#e76819;fill-opacity:1;fill-rule:nonzero;stroke:none;stroke-width:0.1"
       id="path44" /><path
       d="m 387.275,462.668 c -11.312,0 -22.216,5.728 -28.489,15.711 1.947,-3.091 4.341,-5.77 7.057,-7.989 v 0 c 2.009,-1.647 4.191,-3.038 6.491,-4.169 v 0 c 4.566,-2.225 9.606,-3.407 14.731,-3.407 0.289,0 0.578,0.004 0.867,0.011 v 0 c 2.721,0.075 5.469,0.484 8.168,1.254 v 0 c 0.446,0.125 0.889,0.26 1.331,0.405 1.26,0.349 2.513,0.774 3.75,1.279 l 0.027,-0.057 c -4.516,-2.06 -9.259,-3.038 -13.933,-3.038"
       style="fill:#ec8015;fill-opacity:1;fill-rule:nonzero;stroke:none;stroke-width:0.1"
       id="path46" /><path
       d="m 372.83,526.689 -0.01,0.022 c 0.149,0.071 0.298,0.141 0.451,0.206 -0.149,-0.075 -0.295,-0.151 -0.441,-0.228"
       style="fill:#ec8015;fill-opacity:1;fill-rule:nonzero;stroke:none;stroke-width:0.1"
       id="path48" /><path
       d="m 387.932,462.825 0.158,0.455 c 0.147,-0.002 0.293,-0.003 0.44,-0.003 2.527,0 5.075,0.286 7.596,0.875 l -0.026,-0.073 v 0 c -2.699,-0.77 -5.447,-1.179 -8.168,-1.254 m -15.598,3.396 v 0 c -2.3,1.131 -4.482,2.522 -6.491,4.169 l 0.442,1.268 c 1.968,-1.728 4.12,-3.21 6.403,-4.424 l -0.354,-1.013 m -15.679,16.117 v 0 c -6.905,15.081 -1.619,32.741 11.906,41.683 -12.245,-8.991 -17.075,-25.359 -11.227,-39.739 l -0.679,-1.944"
       style="fill:#f49322;fill-opacity:1;fill-rule:nonzero;stroke:none;stroke-width:0.1"
       id="path50" /><path
       d="m 365.843,470.39 v 0 c -2.716,2.219 -5.11,4.898 -7.057,7.989 -0.665,1.059 -1.279,2.167 -1.836,3.32 -0.077,0.159 -0.152,0.319 -0.226,0.479 -0.024,0.053 -0.047,0.106 -0.069,0.16 l 0.679,1.944 c 0.269,-0.663 0.562,-1.322 0.877,-1.975 2.019,-4.185 4.791,-7.763 8.074,-10.649 l -0.442,-1.268"
       style="fill:#f49c31;fill-opacity:1;fill-rule:nonzero;stroke:none;stroke-width:0.1"
       id="path52" /><path
       d="m 387.065,462.814 c -5.125,0 -10.165,1.182 -14.731,3.407 l 0.354,1.013 c 4.722,-2.512 10.01,-3.883 15.402,-3.954 l -0.158,-0.455 v 0 c -0.289,-0.007 -0.578,-0.011 -0.867,-0.011"
       style="fill:#f49c31;fill-opacity:1;fill-rule:nonzero;stroke:none;stroke-width:0.1"
       id="path54" /><path
       d="m 396.1,464.079 0.026,0.073 c 0.436,0.101 0.87,0.212 1.305,0.332 -0.442,-0.145 -0.885,-0.28 -1.331,-0.405"
       style="fill:#f49c31;fill-opacity:1;fill-rule:nonzero;stroke:none;stroke-width:0.1"
       id="path56" /><path
       d="m 471.972,430.705 21.669,-49.428 -49.428,-21.67 c -11.838,26.982 0.173,58.551 27.071,70.792 0.231,0.106 0.459,0.205 0.688,0.306"
       style="fill:#fbe35d;fill-opacity:1;fill-rule:nonzero;stroke:none;stroke-width:0.1"
       id="path58" /><path
       d="m 543.072,402.947 c 11.841,-26.98 -0.173,-58.55 -27.072,-70.792 -0.23,-0.105 -0.462,-0.206 -0.69,-0.306 l -21.669,49.428 49.431,21.67"
       style="fill:#f08f13;fill-opacity:1;fill-rule:nonzero;stroke:none;stroke-width:0.1"
       id="path60" /><path
       d="m 444.213,359.607 49.428,21.67 21.669,-49.428 c -26.982,-11.837 -58.549,0.169 -70.79,27.068 -0.106,0.23 -0.207,0.462 -0.307,0.69"
       style="fill:#f4ae2e;fill-opacity:1;fill-rule:nonzero;stroke:none;stroke-width:0.1"
       id="path62" /><path
       d="m 543.072,402.947 -49.431,-21.67 -21.669,49.428 c 26.979,11.84 58.553,-0.172 70.795,-27.071 0.105,-0.23 0.205,-0.458 0.305,-0.687"
       style="fill:#f4ae2e;fill-opacity:1;fill-rule:nonzero;stroke:none;stroke-width:0.1"
       id="path64" /><path
       d="m 533.851,399.61 0.011,-0.025 c 10.11,-22.213 0.303,-48.422 -21.91,-58.532 l -0.034,-0.015 c -2.363,-1.076 -4.769,-1.924 -7.203,-2.55 -3.596,-0.938 -7.244,-1.399 -10.849,-1.417 -7.181,-0.026 -14.228,1.703 -20.542,4.955 -3.011,1.565 -5.858,3.471 -8.469,5.71 -4.738,4.053 -8.684,9.183 -11.438,15.236 -0.128,0.28 -0.256,0.561 -0.366,0.849 -9.371,21.739 0.096,47.024 21.437,57.27 0.273,0.145 0.562,0.276 0.851,0.408 6.053,2.754 12.39,4.027 18.624,3.971 3.435,-0.017 6.835,-0.45 10.137,-1.257 6.893,-1.685 13.35,-5.006 18.745,-9.755 2.713,-2.377 5.154,-5.125 7.249,-8.194 1.425,-2.071 2.68,-4.29 3.757,-6.654"
       style="fill:#fbc640;fill-opacity:1;fill-rule:nonzero;stroke:none;stroke-width:0.1"
       id="path66" /><path
       d="m 465.479,349.402 c -4.26,3.917 -7.823,8.733 -10.371,14.332 -0.398,0.874 -0.765,1.754 -1.102,2.64 l 20.482,54.717 c 0.273,0.145 0.562,0.276 0.851,0.408 5.925,2.696 12.123,3.973 18.23,3.973 0.131,0 0.262,-10e-4 0.394,-0.002 l -4.696,-12.54 -0.166,0.362 -5.27,-2.416 2.569,-5.604 -1.869,-4.989 -0.176,-0.081 -4.133,9.02 -5.277,-2.419 4.135,-9.019 -10.413,-4.773 2.419,-5.276 6.39,2.929 1.901,-4.148 -13.898,-37.114 m -9.892,9.397 c -0.788,1.337 -1.513,2.729 -2.17,4.173 -0.095,0.208 -0.19,0.417 -0.278,0.628 0.093,-0.211 0.187,-0.423 0.283,-0.634 0.656,-1.441 1.379,-2.831 2.165,-4.167"
       style="fill:#fcd261;fill-opacity:1;fill-rule:nonzero;stroke:none;stroke-width:0.1"
       id="path68" /><path
       d="m 494.09,337.668 c -7.135,0.253 -14.092,2.225 -20.268,5.688 l 11.392,30.424 4.856,-10.595 -6.389,-2.928 2.799,-6.11 10.413,4.773 2.837,-6.19 -5.64,-15.062 m 8.511,22.729 -0.431,0.941 0.946,0.434 -0.515,-1.375 m -3.581,6.337 -5.363,11.699 0.56,0.256 c 1.237,0.567 2.444,1.127 3.616,1.638 1.948,0.847 3.788,1.561 5.485,1.948 0.896,0.207 1.75,0.324 2.555,0.324 1.693,0 3.17,-0.518 4.364,-1.811 l -4.112,-10.981 c -0.95,-0.537 -1.917,-1.011 -2.821,-1.415 -1.574,-0.714 -2.953,-1.21 -3.696,-1.466 -0.372,-0.125 -0.588,-0.192 -0.588,-0.192 m -7.907,17.249 -1.144,2.495 4.243,11.329 c 0.655,0.138 1.285,0.215 1.889,0.215 0.003,0 0.006,0 0.009,0 2.175,0 3.98,-1.007 5.257,-3.794 0.925,-2.017 0.242,-3.781 -1.12,-5.252 -1.272,-1.371 -3.143,-2.488 -4.859,-3.314 -1.521,-0.729 -2.928,-1.238 -3.683,-1.493 -0.373,-0.125 -0.592,-0.186 -0.592,-0.186 m 23.014,7.195 c -0.742,0.152 -1.44,0.207 -2.061,0.207 -0.479,0 -0.912,-0.033 -1.283,-0.078 -0.017,-0.003 -0.034,-0.004 -0.051,-0.004 -0.276,0 -0.437,0.323 -0.272,0.565 0.86,1.234 0.99,3.35 0.914,4.454 -0.272,3.832 -2.397,8.013 -6.23,9.432 -1.079,0.399 -2.243,0.569 -3.447,0.569 -1.483,0 -3.026,-0.258 -4.546,-0.666 l 6.949,18.556 c 6.893,-1.685 13.35,-5.006 18.745,-9.755 l -8.718,-23.28"
       style="fill:#fcd261;fill-opacity:1;fill-rule:nonzero;stroke:none;stroke-width:0.1"
       id="path70" /><path
       d="m 504.751,338.584 5.963,15.926 4.405,2.019 -2.008,4.381 2.491,6.654 c 1.976,1.303 10.614,7.636 6.599,16.396 -0.084,0.184 -0.17,0.364 -0.257,0.539 l 8.15,21.765 c 1.425,-2.071 2.68,-4.29 3.757,-6.654 l -21.933,-58.572 c -0.177,-0.081 -0.355,-0.16 -0.533,-0.238 -1.612,-0.709 -3.243,-1.313 -4.889,-1.813 -0.58,-0.146 -1.163,-0.281 -1.745,-0.403"
       style="fill:#fcd261;fill-opacity:1;fill-rule:nonzero;stroke:none;stroke-width:0.1"
       id="path72" /><path
       d="m 500.963,350.04 -1.233,2.69 2.871,7.667 3.638,-7.939 -5.276,-2.418 m 8.886,4.073 -4.071,8.879 -2.662,-1.22 3.009,8.035 c 0.775,0.438 1.539,0.918 2.249,1.437 2.693,1.963 4.595,4.474 3.278,7.346 -0.412,0.9 -0.886,1.625 -1.415,2.198 l 3.89,10.39 c 2.535,-0.52 5.585,-2.178 7.817,-6.679 l -6.342,-16.935 c -0.247,-0.163 -0.39,-0.248 -0.39,-0.248 l -4.163,-1.908 2.062,-4.498 -2.397,-6.4 -0.865,-0.397 m -24.635,19.667 -5.837,12.736 5.154,13.767 3.434,1.574 -1.565,3.415 2.867,7.658 3.959,-8.636 c 1.25,0.522 2.578,1.001 3.925,1.363 l -2.939,-7.85 c -1.197,-0.251 -2.474,-0.706 -3.812,-1.264 -1.17,-0.485 -2.378,-1.045 -3.626,-1.617 l -0.559,-0.256 3.754,-8.192 -4.755,-12.698"
       style="fill:#f9ac28;fill-opacity:1;fill-rule:nonzero;stroke:none;stroke-width:0.1"
       id="path74" /><path
       d="m 479.377,386.516 -1.901,4.148 -6.39,-2.929 -2.419,5.276 10.413,4.773 -4.135,9.019 5.277,2.419 4.133,-9.02 0.176,0.081 -5.154,-13.767 m 7.023,18.756 -2.569,5.604 5.27,2.416 0.166,-0.362 -2.867,-7.658"
       style="fill:#fab63c;fill-opacity:1;fill-rule:nonzero;stroke:none;stroke-width:0.1"
       id="path76" /><path
       d="m 499.73,352.73 -2.837,6.19 -10.413,-4.773 -2.799,6.11 6.389,2.928 -4.856,10.595 4.755,12.698 1.144,-2.495 c 0,0 0.219,0.061 0.592,0.186 0.755,0.255 2.162,0.764 3.683,1.493 1.716,0.826 3.587,1.943 4.859,3.314 1.362,1.471 2.045,3.235 1.12,5.252 -1.277,2.787 -3.082,3.794 -5.257,3.794 -0.003,0 -0.006,0 -0.009,0 -0.604,0 -1.234,-0.077 -1.889,-0.215 l 2.939,7.85 c 1.52,0.408 3.063,0.666 4.546,0.666 1.204,0 2.368,-0.17 3.447,-0.569 3.833,-1.419 5.958,-5.6 6.23,-9.432 0.076,-1.104 -0.054,-3.22 -0.914,-4.454 -0.165,-0.242 -0.004,-0.565 0.272,-0.565 0.017,0 0.034,10e-4 0.051,0.004 0.371,0.045 0.804,0.078 1.283,0.078 0.621,0 1.319,-0.055 2.061,-0.207 l -3.89,-10.39 c -1.194,1.293 -2.671,1.811 -4.364,1.811 -0.805,0 -1.659,-0.117 -2.555,-0.324 -1.697,-0.387 -3.537,-1.101 -5.485,-1.948 -1.172,-0.511 -2.379,-1.071 -3.616,-1.638 l -0.56,-0.256 5.363,-11.699 c 0,0 0.216,0.067 0.588,0.192 0.743,0.256 2.122,0.752 3.696,1.466 0.904,0.404 1.871,0.878 2.821,1.415 l -3.009,-8.035 -0.946,-0.434 0.431,-0.941 -2.871,-7.667"
       style="fill:#fab63c;fill-opacity:1;fill-rule:nonzero;stroke:none;stroke-width:0.1"
       id="path78" /><path
       d="m 510.714,354.51 2.397,6.4 2.008,-4.381 -4.405,-2.019 m 4.888,13.054 6.342,16.935 c 0.087,-0.175 0.173,-0.355 0.257,-0.539 4.015,-8.76 -4.623,-15.093 -6.599,-16.396"
       style="fill:#fab63c;fill-opacity:1;fill-rule:nonzero;stroke:none;stroke-width:0.1"
       id="path80" /><path
       d="m 506.27,371.398 c -1.581,-1.154 -3.429,-2.118 -5.072,-2.852 -1.572,-0.714 -2.953,-1.21 -3.695,-1.465 -0.372,-0.126 -0.589,-0.192 -0.589,-0.192 l -5.361,11.697 0.559,0.257 c 1.237,0.567 2.445,1.127 3.617,1.638 1.948,0.847 3.788,1.561 5.485,1.948 3.612,0.836 6.549,0.21 8.333,-3.684 1.316,-2.872 -0.585,-5.384 -3.277,-7.347 z m -22.16,23.426 0.56,0.256 c 1.247,0.572 2.455,1.132 3.626,1.617 2.07,0.864 3.994,1.479 5.699,1.48 2.18,0.003 3.987,-1.004 5.268,-3.795 0.924,-2.017 0.242,-3.781 -1.121,-5.252 -1.272,-1.37 -3.142,-2.488 -4.859,-3.314 -1.52,-0.729 -2.928,-1.237 -3.683,-1.493 -0.372,-0.125 -0.591,-0.186 -0.591,-0.186 z m 24.568,-3.364 c -0.306,-0.042 -0.497,0.306 -0.323,0.562 0.861,1.234 0.991,3.35 0.914,4.454 -0.273,3.832 -2.397,8.013 -6.23,9.432 -3.582,1.326 -8.11,0.129 -11.918,-1.46 l -4.124,8.998 -5.271,-2.416 4.134,-9.02 -3.609,-1.654 -4.134,9.02 -5.276,-2.418 4.134,-9.02 -10.412,-4.773 2.417,-5.276 6.39,2.929 12.595,-27.478 -6.39,-2.929 2.801,-6.11 10.412,4.773 4.07,-8.88 5.277,2.419 -4.071,8.879 3.61,1.654 4.069,-8.879 5.272,2.416 -4.071,8.879 4.163,1.908 c 0,0 11.508,6.785 6.99,16.643 -3.375,7.364 -8.862,7.66 -11.419,7.347"
       style="fill:#ffffff;fill-opacity:1;fill-rule:nonzero;stroke:none;stroke-width:0.1"
       id="path82" /><path
       d="m 453.139,363.6 c -9.721,22.254 0.192,48.262 22.372,58.358 0.082,0.037 0.164,0.074 0.246,0.111 l 0.013,-0.029 c -2.017,-1.005 -3.93,-2.146 -5.726,-3.403 -18.168,-11.434 -25.686,-34.651 -16.993,-54.816 v 0 c 0.028,-0.074 0.058,-0.148 0.088,-0.221"
       style="fill:#f3a92d;fill-opacity:1;fill-rule:nonzero;stroke:none;stroke-width:0.1"
       id="path84" /><path
       d="m 511.521,340.491 -0.033,0.075 c 0.589,0.225 1.175,0.463 1.759,0.715 -0.275,-0.141 -0.557,-0.269 -0.837,-0.397 -0.295,-0.135 -0.592,-0.266 -0.889,-0.393"
       style="fill:#e76819;fill-opacity:1;fill-rule:nonzero;stroke:none;stroke-width:0.1"
       id="path86" /><path
       d="m 493.984,336.871 c -15.436,-10e-4 -30.248,8.063 -38.397,21.928 2.512,-4.267 5.661,-7.978 9.268,-11.063 v 0 c 2.611,-2.239 5.458,-4.145 8.469,-5.71 v 0 c 6.267,-3.228 13.256,-4.956 20.383,-4.956 0.053,0 0.107,0.001 0.159,0.001 v 0 c 3.605,0.018 7.253,0.479 10.849,1.417 v 0 c 0.595,0.153 1.189,0.32 1.781,0.499 1.676,0.424 3.343,0.949 4.992,1.579 l 0.033,-0.075 c -5.714,-2.455 -11.671,-3.62 -17.537,-3.62"
       style="fill:#ec8015;fill-opacity:1;fill-rule:nonzero;stroke:none;stroke-width:0.1"
       id="path88" /><path
       d="m 475.77,422.04 -0.013,0.029 c 0.2,0.09 0.4,0.178 0.603,0.259 -0.198,-0.095 -0.393,-0.191 -0.59,-0.288"
       style="fill:#ec8015;fill-opacity:1;fill-rule:nonzero;stroke:none;stroke-width:0.1"
       id="path90" /><path
       d="m 493.866,337.071 0.224,0.597 c 0.523,-0.019 1.047,-0.028 1.572,-0.028 3.021,0 6.065,0.309 9.089,0.944 l -0.036,-0.096 v 0 c -3.596,-0.938 -7.244,-1.399 -10.849,-1.417 m -20.542,4.955 v 0 c -3.011,1.565 -5.858,3.471 -8.469,5.71 l 0.624,1.666 c 2.553,-2.347 5.357,-4.371 8.343,-6.046 l -0.498,-1.33 m -20.273,21.795 v 0 c -8.693,20.165 -1.175,43.382 16.993,54.816 C 453.57,407.1 446.693,385.58 454.006,366.374 l -0.955,-2.553"
       style="fill:#f49322;fill-opacity:1;fill-rule:nonzero;stroke:none;stroke-width:0.1"
       id="path92" /><path
       d="m 464.855,347.736 v 0 c -3.607,3.085 -6.756,6.796 -9.268,11.063 -0.786,1.336 -1.509,2.726 -2.165,4.167 -0.096,0.211 -0.19,0.423 -0.283,0.634 -0.03,0.073 -0.06,0.147 -0.088,0.221 l 0.955,2.553 c 0.337,-0.886 0.704,-1.766 1.102,-2.64 2.548,-5.599 6.111,-10.415 10.371,-14.332 l -0.624,-1.666"
       style="fill:#f49c31;fill-opacity:1;fill-rule:nonzero;stroke:none;stroke-width:0.1"
       id="path94" /><path
       d="m 493.707,337.07 c -7.127,0 -14.116,1.728 -20.383,4.956 l 0.498,1.33 c 6.176,-3.463 13.133,-5.435 20.268,-5.688 l -0.224,-0.597 v 0 c -0.052,0 -0.106,-0.001 -0.159,-0.001"
       style="fill:#f49c31;fill-opacity:1;fill-rule:nonzero;stroke:none;stroke-width:0.1"
       id="path96" /><path
       d="m 504.715,338.488 0.036,0.096 c 0.582,0.122 1.165,0.257 1.745,0.403 -0.592,-0.179 -1.186,-0.346 -1.781,-0.499"
       style="fill:#f49c31;fill-opacity:1;fill-rule:nonzero;stroke:none;stroke-width:0.1"
       id="path98" /><path
       d="m 361.719,290.722 c -5.917,19.963 -35.235,56.69 -76.524,94.904 -4.556,4.222 -9.272,8.468 -14.112,12.706 -4.802,4.205 -9.586,8.279 -14.335,12.223 -43.383,35.937 -83.705,60.194 -104.282,63.416 38.36,14.15 96.688,-2.544 145.327,-45.139 48.64,-42.595 72.892,-98.22 63.926,-138.11"
       style="fill:#464f70;fill-opacity:1;fill-rule:nonzero;stroke:none;stroke-width:0.1"
       id="path100" /><path
       d="m 361.719,290.722 c 4.372,30.116 -14.346,72.399 -49.751,110.513 -1.772,1.908 -4.165,2.859 -6.554,2.859 -2.47,0 -4.936,-1.016 -6.709,-3.041 l -13.51,-15.427 v 0 c -1.077,0.998 -2.163,1.997 -3.258,2.998 l 10.417,11.896 16.103,18.387 c 35.291,-34.92 55.087,-76.542 55.099,-110.887 0.002,-6.014 -0.603,-11.806 -1.837,-17.298 M 260.035,407.809 c -1.097,0.922 -2.193,1.837 -3.287,2.746 l 13.512,15.429 c 3.488,3.983 2.752,10.109 -1.567,13.17 -34.041,24.128 -69.33,37.282 -97.084,37.282 -6.892,0 -13.314,-0.81 -19.143,-2.465 8.965,3.307 19.027,4.93 29.795,4.93 31.805,0 69.818,-14.145 104.292,-40.812 l -26.518,-30.28"
       style="fill:#373e5b;fill-opacity:1;fill-rule:nonzero;stroke:none;stroke-width:0.1"
       id="path102" /><path
       d="m 81.3223,174.545 -6.7133,5.879 c -2.6809,2.348 -2.9508,6.424 -0.6035,9.104 L 299.98,447.254 c 2.347,2.681 6.423,2.951 9.104,0.603 l 6.714,-5.879 c 2.679,-2.347 2.95,-6.423 0.602,-9.104 L 90.4262,175.149 c -2.3477,-2.681 -6.4235,-2.952 -9.1039,-0.604"
       style="fill:#492721;fill-opacity:1;fill-rule:nonzero;stroke:none;stroke-width:0.1"
       id="path104" /><path
       d="m 73.5301,188.916 c 0.2578,0.768 0.6547,1.475 1.1965,2.094 0.0871,-0.118 0.1765,-0.236 0.2687,-0.353 l -0.9898,-1.129 c -0.1727,-0.197 -0.3313,-0.401 -0.4754,-0.612"
       style="fill:#ded5d2;fill-opacity:1;fill-rule:nonzero;stroke:none;stroke-width:0.1"
       id="path106" /><path
       d="m 85.6688,174.493 c -2.2356,0 -4.6891,0.781 -6.9161,2.391 -4.4863,3.243 -6.4644,8.334 -5.2226,12.032 0.1441,0.211 0.3027,0.415 0.4754,0.612 l 0.9898,1.129 c 0.5277,-0.668 1.1367,-1.309 1.8082,-1.897 2.527,-2.213 5.5203,-3.353 8.1844,-3.353 2.1258,0 4.0414,0.726 5.3426,2.212 l 176.6785,201.501 4.006,-3.508 c 0.024,-0.021 0.049,-0.042 0.073,-0.063 l 1.121,-0.982 c 0.243,-0.213 0.502,-0.395 0.771,-0.548 L 91.3223,176.838 c -1.3543,-1.546 -3.3922,-2.345 -5.6535,-2.345 m 225.3602,252.92 c -0.192,0.258 -0.415,0.5 -0.667,0.72 l -5.173,4.531 9.015,10.282 c 1.09,-1.451 1.817,-3.033 2.161,-4.593 0.528,-2.401 0.121,-4.714 -1.341,-6.383 l -3.995,-4.557"
       style="fill:#3e211d;fill-opacity:1;fill-rule:nonzero;stroke:none;stroke-width:0.1"
       id="path108" /><path
       d="m 272.209,384.567 -14.915,13.061 c -1.929,1.69 -2.124,4.625 -0.434,6.555 l 32.033,36.578 c 1.689,1.929 4.625,2.124 6.554,0.434 l 14.915,-13.062 c 1.93,-1.69 2.124,-4.625 0.435,-6.554 l -32.033,-36.578 c -1.69,-1.93 -4.624,-2.124 -6.555,-0.434"
       style="fill:#252b38;fill-opacity:1;fill-rule:nonzero;stroke:none;stroke-width:0.1"
       id="path110" /><path
       d="m 267.009,389.12 -3.815,3.341 c 0.019,-0.017 0.038,-0.033 0.058,-0.05 l 3.757,-3.29 v -10e-4"
       style="fill:#361f1b;fill-opacity:1;fill-rule:nonzero;stroke:none;stroke-width:0.1"
       id="path112" /><path
       d="m 271.088,385.549 c -0.024,0.021 -0.049,0.042 -0.073,0.063 l -4.006,3.508 v 10e-4 l 4.079,-3.572"
       style="fill:#2f1b18;fill-opacity:1;fill-rule:nonzero;stroke:none;stroke-width:0.1"
       id="path114" /><path
       d="m 279.495,385.836 2.442,2.788 v 0 l -2.414,-2.757 c -0.009,-0.01 -0.018,-0.021 -0.028,-0.031"
       style="fill:#c3c4c9;fill-opacity:1;fill-rule:nonzero;stroke:none;stroke-width:0.1"
       id="path116" /><path
       d="m 281.937,388.624 v 0 l 10.417,11.896 -10.417,-11.896"
       style="fill:#2b3046;fill-opacity:1;fill-rule:nonzero;stroke:none;stroke-width:0.1"
       id="path118" /><path
       d="m 275.267,383.984 c -1.455,0 -2.95,0.519 -4.179,1.565 l -4.079,3.572 -3.757,3.29 c 1.232,-1.055 2.733,-1.578 4.194,-1.578 1.604,0 3.159,0.631 4.256,1.883 l 30.521,34.852 c 2.103,2.402 1.71,6.193 -0.877,8.458 l 7.821,-6.849 c 2.587,-2.265 2.979,-6.056 0.877,-8.458 l -17.69,-20.199 -10.417,-11.896 -2.442,-2.788 c -1.095,-1.231 -2.637,-1.852 -4.228,-1.852"
       style="fill:#1f212b;fill-opacity:1;fill-rule:nonzero;stroke:none;stroke-width:0.1"
       id="path120" /><path
       d="m 425.373,340.863 -13.276,-29.661 -29.661,13.276 c 7.244,16.195 26.181,23.611 42.523,16.567 0.14,-0.06 0.277,-0.121 0.414,-0.182"
       style="fill:#fbe35d;fill-opacity:1;fill-rule:nonzero;stroke:none;stroke-width:0.1"
       id="path122" /><path
       d="m 441.76,297.924 c -7.242,-16.195 -26.183,-23.611 -42.525,-16.568 -0.139,0.061 -0.279,0.123 -0.416,0.185 l 13.278,29.661 29.663,-13.278"
       style="fill:#f08f13;fill-opacity:1;fill-rule:nonzero;stroke:none;stroke-width:0.1"
       id="path124" /><path
       d="m 382.436,324.478 29.661,-13.276 -13.278,-29.661 c -16.195,7.244 -23.611,26.179 -16.567,42.521 0.059,0.141 0.122,0.279 0.184,0.416"
       style="fill:#f4ae2e;fill-opacity:1;fill-rule:nonzero;stroke:none;stroke-width:0.1"
       id="path126" /><path
       d="m 441.76,297.924 -29.663,13.278 13.276,29.661 c 16.196,-7.242 23.612,-26.183 16.569,-42.525 -0.06,-0.14 -0.122,-0.277 -0.182,-0.414"
       style="fill:#f4ae2e;fill-opacity:1;fill-rule:nonzero;stroke:none;stroke-width:0.1"
       id="path128" /><path
       d="m 436.54,300.687 -0.007,-0.016 c -5.816,-13.495 -21.472,-19.725 -34.967,-13.908 l -0.021,0.008 c -1.436,0.619 -2.787,1.348 -4.051,2.181 -1.873,1.224 -3.554,2.665 -5.021,4.265 -2.917,3.192 -4.996,7.034 -6.101,11.166 -0.519,1.975 -0.822,4.016 -0.879,6.087 -0.11,3.752 0.581,7.588 2.166,11.265 0.073,0.17 0.148,0.341 0.232,0.507 5.903,12.974 21.009,18.981 34.213,13.609 0.174,-0.063 0.35,-0.139 0.526,-0.215 3.678,-1.585 6.809,-3.896 9.306,-6.699 1.382,-1.539 2.564,-3.23 3.54,-5.029 2.038,-3.756 3.168,-7.979 3.233,-12.306 0.038,-2.172 -0.2,-4.372 -0.722,-6.548 -0.346,-1.474 -0.828,-2.932 -1.447,-4.367"
       style="fill:#fbc640;fill-opacity:1;fill-rule:nonzero;stroke:none;stroke-width:0.1"
       id="path130" /><path
       d="m 386.488,310.865 c 0.023,3.485 0.73,7.022 2.196,10.424 0.229,0.531 0.472,1.05 0.731,1.559 l 32.689,13.003 c 0.174,-0.063 0.35,-0.139 0.526,-0.215 3.678,-1.585 6.809,-3.896 9.306,-6.699 l -7.492,-2.979 0.094,0.22 -3.21,1.374 -1.461,-3.414 -2.98,-1.185 -0.107,0.046 2.35,5.493 -3.213,1.374 -2.35,-5.492 -6.34,2.712 -1.375,-3.212 3.89,-1.665 -1.081,-2.527 -22.173,-8.817 m 0.075,7.84 c 0.3,1.018 0.665,2.03 1.096,3.03 0.054,0.125 0.109,0.251 0.167,0.374 -0.056,-0.125 -0.112,-0.251 -0.167,-0.378 -0.43,-0.999 -0.795,-2.009 -1.096,-3.026"
       style="fill:#fcd261;fill-opacity:1;fill-rule:nonzero;stroke:none;stroke-width:0.1"
       id="path132" /><path
       d="m 392.829,293.359 c -2.773,3.284 -4.708,7.184 -5.662,11.34 l 18.177,7.228 -2.76,-6.452 -3.892,1.665 -1.592,-3.721 6.341,-2.713 -1.612,-3.769 -9,-3.578 m 13.581,5.4 0.245,0.573 0.577,-0.247 -0.822,-0.326 m 5.622,2.235 c -0.624,0.206 -1.226,0.446 -1.772,0.686 -0.955,0.412 -1.736,0.827 -2.15,1.054 -0.206,0.116 -0.323,0.186 -0.323,0.186 l 3.048,7.124 0.34,-0.146 c 0.754,-0.322 1.492,-0.634 2.194,-0.95 1.166,-0.526 2.229,-1.058 3.088,-1.658 1.41,-0.979 2.273,-2.129 2.136,-3.687 l -6.561,-2.609 m 12.768,5.077 c -0.412,0.696 -0.904,1.206 -1.295,1.543 -0.144,0.119 -0.066,0.346 0.119,0.371 0.898,0.116 1.895,0.914 2.356,1.395 1.599,1.672 2.604,4.311 1.686,6.595 -0.576,1.433 -1.832,2.596 -3.277,3.525 l 11.087,4.408 c 2.038,-3.756 3.168,-7.979 3.233,-12.306 L 424.8,306.071 m -6.543,5.299 c -0.018,0 -0.036,0 -0.054,10e-4 -1.126,0.012 -2.381,0.394 -3.444,0.826 -0.941,0.383 -1.737,0.805 -2.156,1.038 -0.207,0.116 -0.323,0.189 -0.323,0.189 l 0.651,1.52 6.768,2.691 c 0.327,-0.236 0.616,-0.486 0.861,-0.755 0.882,-0.971 1.166,-2.185 0.438,-3.884 -0.517,-1.21 -1.556,-1.626 -2.741,-1.626"
       style="fill:#fcd261;fill-opacity:1;fill-rule:nonzero;stroke:none;stroke-width:0.1"
       id="path134" /><path
       d="m 401.545,286.771 v 0 c -1.084,0.467 -2.121,0.998 -3.108,1.588 -0.3,0.2 -0.596,0.406 -0.886,0.616 l 9.515,3.783 2.683,-1.148 1.142,2.669 3.974,1.581 c 0.515,-0.132 1.718,-0.395 3.143,-0.395 2.392,0 5.409,0.741 6.84,4.085 0.048,0.112 0.093,0.223 0.136,0.333 l 13.003,5.171 c -0.346,-1.474 -0.828,-2.932 -1.447,-4.367 v 0 l -34.995,-13.916"
       style="fill:#fcd261;fill-opacity:1;fill-rule:nonzero;stroke:none;stroke-width:0.1"
       id="path136" /><path
       d="m 407.066,292.758 -0.527,0.225 2.313,5.409 -1.62,0.693 4.8,1.909 c 0.509,-0.169 1.032,-0.315 1.551,-0.422 0.557,-0.115 1.108,-0.184 1.629,-0.184 1.315,0 2.437,0.441 2.974,1.694 0.234,0.548 0.365,1.053 0.407,1.521 l 6.207,2.468 c 0.794,-1.341 1.289,-3.371 0.184,-6.188 l -10.119,-4.023 c -0.172,0.044 -0.267,0.074 -0.267,0.074 l -2.536,1.085 -1.171,-2.74 -3.825,-1.521 m -2.724,1.166 -3.214,1.375 0.701,1.638 4.581,1.822 -2.068,-4.835 m 1.002,18.003 3.317,7.755 8.226,3.271 2.091,-0.894 0.889,2.079 4.577,1.82 -2.251,-5.259 c 0.739,-0.347 1.49,-0.745 2.196,-1.199 l -4.69,-1.865 c -0.596,0.431 -1.315,0.817 -2.105,1.188 -0.69,0.326 -1.429,0.638 -2.189,0.963 l -0.34,0.146 -2.134,-4.988 -7.587,-3.017"
       style="fill:#f9ac28;fill-opacity:1;fill-rule:nonzero;stroke:none;stroke-width:0.1"
       id="path138" /><path
       d="m 408.661,319.682 1.081,2.527 -3.89,1.665 1.375,3.212 6.34,-2.712 2.35,5.492 3.213,-1.374 -2.35,-5.493 0.107,-0.046 -8.226,-3.271 m 11.206,4.456 1.461,3.414 3.21,-1.374 -0.094,-0.22 -4.577,-1.82"
       style="fill:#fab63c;fill-opacity:1;fill-rule:nonzero;stroke:none;stroke-width:0.1"
       id="path140" /><path
       d="m 401.829,296.937 1.612,3.769 -6.341,2.713 1.592,3.721 3.892,-1.665 2.76,6.452 7.587,3.017 -0.651,-1.52 c 0,0 0.116,-0.073 0.323,-0.189 0.419,-0.233 1.215,-0.655 2.156,-1.038 1.063,-0.432 2.318,-0.814 3.444,-0.826 0.018,-10e-4 0.036,-10e-4 0.054,-10e-4 1.185,0 2.224,0.416 2.741,1.626 0.728,1.699 0.444,2.913 -0.438,3.884 -0.245,0.269 -0.534,0.519 -0.861,0.755 l 4.69,1.865 c 1.445,-0.929 2.701,-2.092 3.277,-3.525 0.918,-2.284 -0.087,-4.923 -1.686,-6.595 -0.461,-0.481 -1.458,-1.279 -2.356,-1.395 -0.185,-0.025 -0.263,-0.252 -0.119,-0.371 0.391,-0.337 0.883,-0.847 1.295,-1.543 l -6.207,-2.468 c 0.137,1.558 -0.726,2.708 -2.136,3.687 -0.859,0.6 -1.922,1.132 -3.088,1.658 -0.702,0.316 -1.44,0.628 -2.194,0.95 l -0.34,0.146 -3.048,-7.124 c 0,0 0.117,-0.07 0.323,-0.186 0.414,-0.227 1.195,-0.642 2.15,-1.054 0.546,-0.24 1.148,-0.48 1.772,-0.686 l -4.8,-1.909 -0.577,0.247 -0.245,-0.573 -4.581,-1.822"
       style="fill:#fab63c;fill-opacity:1;fill-rule:nonzero;stroke:none;stroke-width:0.1"
       id="path142" /><path
       d="m 409.749,291.61 -2.683,1.148 3.825,1.521 -1.142,-2.669 m 8.259,3.855 c -1.425,0 -2.628,0.263 -3.143,0.395 l 10.119,4.023 c -0.043,-0.11 -0.088,-0.221 -0.136,-0.333 -1.431,-3.344 -4.448,-4.085 -6.84,-4.085"
       style="fill:#fab63c;fill-opacity:1;fill-rule:nonzero;stroke:none;stroke-width:0.1"
       id="path144" /><path
       d="m 412.8,301.573 c -1.154,0.238 -2.332,0.672 -3.323,1.108 -0.956,0.412 -1.735,0.827 -2.149,1.054 -0.207,0.116 -0.324,0.186 -0.324,0.186 l 3.048,7.123 0.341,-0.145 c 0.753,-0.322 1.491,-0.634 2.193,-0.95 1.166,-0.526 2.228,-1.058 3.088,-1.658 1.835,-1.273 2.743,-2.836 1.728,-5.208 -0.748,-1.749 -2.637,-1.917 -4.602,-1.51 z m 1.482,19.36 0.341,-0.146 c 0.76,-0.325 1.498,-0.637 2.188,-0.963 1.223,-0.574 2.276,-1.183 2.965,-1.943 0.883,-0.971 1.166,-2.185 0.439,-3.884 -0.526,-1.229 -1.588,-1.638 -2.795,-1.625 -1.126,0.012 -2.381,0.394 -3.444,0.826 -0.941,0.383 -1.737,0.804 -2.156,1.038 -0.206,0.116 -0.322,0.189 -0.322,0.189 z m 8.44,-12.318 c -0.143,0.119 -0.066,0.346 0.12,0.371 0.897,0.116 1.894,0.914 2.355,1.395 1.599,1.672 2.604,4.311 1.686,6.595 -0.858,2.133 -3.223,3.669 -5.473,4.724 l 2.345,5.479 -3.21,1.374 -2.35,-5.493 -2.198,0.94 2.351,5.493 -3.214,1.374 -2.35,-5.492 -6.341,2.712 -1.375,-3.212 3.892,-1.666 -7.159,-16.733 -3.892,1.665 -1.592,-3.721 6.342,-2.713 -2.313,-5.407 3.213,-1.375 2.313,5.408 2.197,-0.94 -2.313,-5.409 3.21,-1.373 2.313,5.409 2.535,-1.085 c 0,0 7.682,-2.388 10.25,3.616 1.918,4.484 -0.168,7.051 -1.342,8.064"
       style="fill:#ffffff;fill-opacity:1;fill-rule:nonzero;stroke:none;stroke-width:0.1"
       id="path146" /><path
       d="m 387.826,322.109 c 4.452,9.915 14.221,15.833 24.475,15.833 3.544,0 7.143,-0.705 10.603,-2.197 0.05,-0.021 0.1,-0.043 0.149,-0.065 l -0.008,-0.017 c -1.264,0.493 -2.546,0.885 -3.834,1.177 -2.356,0.658 -4.747,0.975 -7.111,0.975 -10.126,0 -19.77,-5.816 -24.209,-15.573 -0.023,-0.044 -0.044,-0.088 -0.065,-0.133"
       style="fill:#f3a92d;fill-opacity:1;fill-rule:nonzero;stroke:none;stroke-width:0.1"
       id="path148" /><path
       d="m 402.191,286.276 c -0.173,0.066 -0.344,0.14 -0.515,0.213 -0.18,0.078 -0.359,0.157 -0.535,0.238 l 0.02,0.045 c 0.338,-0.172 0.682,-0.337 1.03,-0.496"
       style="fill:#e76819;fill-opacity:1;fill-rule:nonzero;stroke:none;stroke-width:0.1"
       id="path150" /><path
       d="m 401.141,286.727 c -12.248,5.592 -18.328,19.323 -14.578,31.978 -0.728,-2.464 -1.079,-4.968 -1.081,-7.443 0,-0.264 0.003,-0.528 0.011,-0.792 v 0 c 0.057,-2.071 0.36,-4.112 0.879,-6.087 v 0 c 1.105,-4.132 3.184,-7.974 6.101,-11.166 v 0 c 1.467,-1.6 3.148,-3.041 5.021,-4.265 v 0 c 0.309,-0.204 0.624,-0.401 0.943,-0.593 0.867,-0.576 1.776,-1.106 2.724,-1.587 l -0.02,-0.045"
       style="fill:#ec8015;fill-opacity:1;fill-rule:nonzero;stroke:none;stroke-width:0.1"
       id="path152" /><path
       d="m 423.413,335.516 c -0.123,0.05 -0.245,0.099 -0.368,0.147 l 0.008,0.017 c 0.121,-0.052 0.241,-0.106 0.36,-0.164"
       style="fill:#ec8015;fill-opacity:1;fill-rule:nonzero;stroke:none;stroke-width:0.1"
       id="path154" /><path
       d="m 397.494,288.952 v 0 c -1.873,1.224 -3.554,2.665 -5.021,4.265 l 0.356,0.142 c 1.374,-1.627 2.954,-3.103 4.722,-4.384 l -0.057,-0.023 m -11.122,15.431 v 0 c -0.519,1.975 -0.822,4.016 -0.879,6.087 l 0.995,0.395 c -0.014,-2.088 0.218,-4.157 0.679,-6.166 l -0.795,-0.316 m 1.454,17.726 v 0 c 0.021,0.045 0.042,0.089 0.065,0.133 4.439,9.757 14.083,15.573 24.209,15.573 2.364,0 4.755,-0.317 7.111,-0.975 -1.958,0.444 -3.934,0.66 -5.89,0.66 -9.841,0 -19.229,-5.449 -23.906,-14.652 l -1.524,-0.606 c -0.023,-0.044 -0.044,-0.088 -0.065,-0.133"
       style="fill:#f49322;fill-opacity:1;fill-rule:nonzero;stroke:none;stroke-width:0.1"
       id="path156" /><path
       d="m 385.493,310.47 v 0 c -0.008,0.264 -0.011,0.528 -0.011,0.792 0.002,2.475 0.353,4.979 1.081,7.443 0.301,1.017 0.666,2.027 1.096,3.026 0.055,0.127 0.111,0.253 0.167,0.378 0.021,0.045 0.042,0.089 0.065,0.133 l 1.524,0.606 c -0.259,-0.509 -0.502,-1.028 -0.731,-1.559 -1.466,-3.402 -2.173,-6.939 -2.196,-10.424 l -0.995,-0.395"
       style="fill:#f49c31;fill-opacity:1;fill-rule:nonzero;stroke:none;stroke-width:0.1"
       id="path158" /><path
       d="m 392.473,293.217 v 0 c -2.917,3.192 -4.996,7.034 -6.101,11.166 l 0.795,0.316 c 0.954,-4.156 2.889,-8.056 5.662,-11.34 l -0.356,-0.142"
       style="fill:#f49c31;fill-opacity:1;fill-rule:nonzero;stroke:none;stroke-width:0.1"
       id="path160" /><path
       d="m 398.437,288.359 c -0.319,0.192 -0.634,0.389 -0.943,0.593 l 0.057,0.023 c 0.29,-0.21 0.586,-0.416 0.886,-0.616"
       style="fill:#f49c31;fill-opacity:1;fill-rule:nonzero;stroke:none;stroke-width:0.1"
       id="path162" /><path
       d="m 261.923,328.98 16.751,-16.871 -16.87,-16.751 c -9.147,9.208 -9.224,24.086 -0.114,33.387 l 0.233,0.235"
       style="fill:#fbe35d;fill-opacity:1;fill-rule:nonzero;stroke:none;stroke-width:0.1"
       id="path164" /><path
       d="m 295.546,328.861 c 9.148,-9.207 9.224,-24.086 0.114,-33.386 l -0.235,-0.236 -16.751,16.87 16.872,16.752"
       style="fill:#f08f13;fill-opacity:1;fill-rule:nonzero;stroke:none;stroke-width:0.1"
       id="path166" /><path
       d="m 261.804,295.358 16.87,16.751 16.751,-16.87 c -9.208,-9.147 -24.085,-9.225 -33.385,-0.116 l -0.236,0.235"
       style="fill:#f4ae2e;fill-opacity:1;fill-rule:nonzero;stroke:none;stroke-width:0.1"
       id="path168" /><path
       d="m 295.546,328.861 -16.872,-16.752 -16.751,16.871 c 9.207,9.148 24.088,9.225 33.389,0.115 l 0.234,-0.234"
       style="fill:#f4ae2e;fill-opacity:1;fill-rule:nonzero;stroke:none;stroke-width:0.1"
       id="path170" /><path
       d="m 292.286,326.026 0.009,-0.009 c 7.681,-7.522 7.811,-19.848 0.289,-27.529 l -0.012,-0.011 c -0.8,-0.818 -1.654,-1.548 -2.554,-2.192 -1.329,-0.956 -2.755,-1.724 -4.233,-2.305 -2.947,-1.15 -6.117,-1.558 -9.228,-1.224 -1.485,0.165 -2.958,0.496 -4.386,1.002 -2.59,0.913 -5.026,2.394 -7.119,4.444 -0.097,0.095 -0.194,0.19 -0.285,0.291 -7.302,7.445 -7.425,19.338 -0.283,26.936 0.089,0.102 0.187,0.202 0.285,0.302 2.049,2.093 4.452,3.622 7.022,4.589 1.414,0.538 2.88,0.9 4.365,1.093 3.1,0.401 6.281,0.062 9.251,-1.033 1.492,-0.546 2.931,-1.288 4.279,-2.216 0.915,-0.625 1.783,-1.338 2.6,-2.138"
       style="fill:#fbc640;fill-opacity:1;fill-rule:nonzero;stroke:none;stroke-width:0.1"
       id="path172" /><path
       d="m 272.163,294.542 c -2.372,0.933 -4.602,2.347 -6.537,4.242 -0.302,0.296 -0.593,0.599 -0.872,0.91 l -0.27,25.735 c 0.089,0.102 0.187,0.202 0.285,0.302 2.049,2.093 4.452,3.622 7.022,4.589 l 0.061,-5.899 -0.125,0.123 -1.783,-1.83 1.946,-1.895 0.024,-2.346 -0.06,-0.061 -3.13,3.05 -1.784,-1.832 3.131,-3.049 -3.521,-3.615 1.831,-1.784 2.161,2.218 1.439,-1.403 0.182,-17.455 m -5.713,2.415 c -0.481,0.389 -0.947,0.804 -1.398,1.245 -0.072,0.07 -0.144,0.141 -0.214,0.214 0.072,-0.072 0.144,-0.144 0.217,-0.216 0.45,-0.44 0.915,-0.855 1.395,-1.243"
       style="fill:#fcd261;fill-opacity:1;fill-rule:nonzero;stroke:none;stroke-width:0.1"
       id="path174" /><path
       d="m 279.35,293.182 c -0.935,0 -1.871,0.066 -2.799,0.2 l -0.149,14.309 3.677,-3.583 -2.161,-2.217 2.121,-2.066 3.521,3.615 2.148,-2.094 0.074,-7.085 c -2.079,-0.719 -4.254,-1.079 -6.432,-1.079 m 6.321,11.77 -0.327,0.319 0.32,0.328 0.007,-0.647 m -2.478,2.036 -4.06,3.955 0.189,0.194 c 0.418,0.43 0.825,0.851 1.226,1.247 0.666,0.658 1.309,1.243 1.945,1.672 0.678,0.46 1.345,0.742 2.012,0.742 0.355,0 0.71,-0.08 1.066,-0.255 l 0.054,-5.165 c -0.305,-0.371 -0.627,-0.719 -0.935,-1.029 -0.533,-0.543 -1.021,-0.966 -1.285,-1.189 -0.134,-0.111 -0.212,-0.172 -0.212,-0.172 m -5.987,5.832 -0.866,0.844 -0.055,5.329 c 0.247,0.16 0.494,0.292 0.741,0.388 0.293,0.113 0.587,0.176 0.884,0.176 0.61,0 1.231,-0.265 1.883,-0.9 0.7,-0.681 0.7,-1.514 0.373,-2.335 -0.305,-0.765 -0.895,-1.521 -1.47,-2.134 -0.509,-0.541 -1.007,-0.973 -1.277,-1.198 -0.132,-0.11 -0.213,-0.17 -0.213,-0.17 m 6.847,6.112 c -0.094,0 -0.174,0.093 -0.149,0.199 0.157,0.644 -0.125,1.534 -0.331,1.976 -0.714,1.517 -2.23,2.886 -4.009,2.886 -0.016,0 -0.033,0 -0.049,0 -1.13,-0.016 -2.254,-0.567 -3.269,-1.308 l -0.09,8.728 c 0.837,0.108 1.681,0.162 2.524,0.162 2.279,0 4.559,-0.396 6.727,-1.195 l 0.114,-10.95 c -0.584,-0.098 -1.062,-0.3 -1.395,-0.478 -0.024,-0.014 -0.049,-0.02 -0.073,-0.02"
       style="fill:#fcd261;fill-opacity:1;fill-rule:nonzero;stroke:none;stroke-width:0.1"
       id="path176" /><path
       d="m 290.017,296.33 -0.078,7.491 1.49,1.529 -1.521,1.481 -0.033,3.13 c 0.605,0.848 3.15,4.822 0.109,7.785 -0.064,0.062 -0.128,0.122 -0.191,0.181 l -0.107,10.237 c 0.915,-0.625 1.783,-1.338 2.6,-2.138 l 0.286,-27.549 c -0.06,-0.062 -0.12,-0.122 -0.18,-0.183 -0.551,-0.547 -1.126,-1.055 -1.723,-1.522 -0.215,-0.152 -0.433,-0.3 -0.652,-0.442"
       style="fill:#fcd261;fill-opacity:1;fill-rule:nonzero;stroke:none;stroke-width:0.1"
       id="path178" /><path
       d="m 286.642,300.436 -0.934,0.91 -0.037,3.606 2.755,-2.684 -1.784,-1.832 m 3.005,3.085 -3.083,3.002 -0.9,-0.924 -0.039,3.779 c 0.249,0.303 0.487,0.622 0.696,0.948 0.795,1.234 1.178,2.567 0.181,3.539 -0.312,0.304 -0.622,0.527 -0.931,0.678 l -0.05,4.887 c 0.222,0.037 0.461,0.059 0.713,0.059 1.017,0 2.251,-0.364 3.559,-1.562 l 0.082,-7.966 c -0.075,-0.106 -0.121,-0.164 -0.121,-0.164 l -1.407,-1.444 1.561,-1.522 0.031,-3.01 -0.292,-0.3 m -13.245,4.17 -4.421,4.306 -0.067,6.476 1.161,1.192 -1.185,1.154 -0.038,3.602 2.998,-2.92 c 0.431,0.413 0.9,0.821 1.396,1.184 l 0.039,-3.692 c -0.452,-0.294 -0.905,-0.683 -1.366,-1.125 -0.404,-0.385 -0.811,-0.807 -1.233,-1.24 l -0.189,-0.194 2.843,-2.77 0.062,-5.973"
       style="fill:#f9ac28;fill-opacity:1;fill-rule:nonzero;stroke:none;stroke-width:0.1"
       id="path180" /><path
       d="m 268.381,311.182 -1.831,1.784 3.521,3.615 -3.131,3.049 1.784,1.832 3.13,-3.05 0.06,0.061 0.067,-6.476 -1.439,1.403 -2.161,-2.218 m 3.509,9.637 -1.946,1.895 1.783,1.83 0.125,-0.123 0.038,-3.602"
       style="fill:#fab63c;fill-opacity:1;fill-rule:nonzero;stroke:none;stroke-width:0.1"
       id="path182" /><path
       d="m 280.039,299.825 -2.121,2.066 2.161,2.217 -3.677,3.583 -0.062,5.973 0.866,-0.844 c 0,0 0.081,0.06 0.213,0.17 0.27,0.225 0.768,0.657 1.277,1.198 0.575,0.613 1.165,1.369 1.47,2.134 0.327,0.821 0.327,1.654 -0.373,2.335 -0.652,0.635 -1.273,0.9 -1.883,0.9 -0.297,0 -0.591,-0.063 -0.884,-0.176 -0.247,-0.096 -0.494,-0.228 -0.741,-0.388 l -0.039,3.692 c 1.015,0.741 2.139,1.292 3.269,1.308 0.016,0 0.033,0 0.049,0 1.779,0 3.295,-1.369 4.009,-2.886 0.206,-0.442 0.488,-1.332 0.331,-1.976 -0.025,-0.106 0.055,-0.199 0.149,-0.199 0.024,0 0.049,0.006 0.073,0.02 0.333,0.178 0.811,0.38 1.395,0.478 l 0.05,-4.887 c -0.356,0.175 -0.711,0.255 -1.066,0.255 -0.667,0 -1.334,-0.282 -2.012,-0.742 -0.636,-0.429 -1.279,-1.014 -1.945,-1.672 -0.401,-0.396 -0.808,-0.817 -1.226,-1.247 l -0.189,-0.194 4.06,-3.955 c 0,0 0.078,0.061 0.212,0.172 0.264,0.223 0.752,0.646 1.285,1.189 0.308,0.31 0.63,0.658 0.935,1.029 l 0.039,-3.779 -0.32,-0.328 0.327,-0.319 0.037,-3.606 -2.148,2.094 -3.521,-3.615"
       style="fill:#fab63c;fill-opacity:1;fill-rule:nonzero;stroke:none;stroke-width:0.1"
       id="path184" /><path
       d="m 289.939,303.821 -0.031,3.01 1.521,-1.481 -1.49,-1.529 m -0.064,6.14 -0.082,7.966 c 0.063,-0.059 0.127,-0.119 0.191,-0.181 3.041,-2.963 0.496,-6.937 -0.109,-7.785"
       style="fill:#fab63c;fill-opacity:1;fill-rule:nonzero;stroke:none;stroke-width:0.1"
       id="path186" /><path
       d="m 285.432,310.055 c -0.466,-0.725 -1.073,-1.415 -1.631,-1.977 -0.533,-0.543 -1.021,-0.966 -1.286,-1.189 -0.133,-0.11 -0.211,-0.172 -0.211,-0.172 l -4.06,3.955 0.189,0.194 c 0.418,0.43 0.825,0.852 1.226,1.248 0.665,0.657 1.308,1.242 1.944,1.671 1.352,0.917 2.658,1.126 4.009,-0.191 0.997,-0.971 0.615,-2.305 -0.18,-3.539 z m -12.825,6.108 0.19,0.194 c 0.422,0.433 0.829,0.855 1.233,1.24 0.714,0.684 1.407,1.242 2.107,1.513 0.895,0.347 1.798,0.221 2.767,-0.723 0.7,-0.682 0.7,-1.515 0.373,-2.336 -0.305,-0.765 -0.896,-1.521 -1.47,-2.134 -0.509,-0.541 -1.007,-0.973 -1.277,-1.197 -0.133,-0.111 -0.213,-0.171 -0.213,-0.171 z m 10.63,2.518 c -0.119,-0.066 -0.254,0.047 -0.222,0.179 0.157,0.644 -0.125,1.534 -0.332,1.975 -0.72,1.532 -2.257,2.913 -4.057,2.887 -1.683,-0.024 -3.353,-1.234 -4.666,-2.492 l -3.123,3.043 -1.782,-1.83 3.131,-3.049 -1.221,-1.253 -3.13,3.05 -1.784,-1.832 3.13,-3.049 -3.52,-3.614 1.831,-1.784 2.16,2.217 9.538,-9.291 -2.161,-2.218 2.121,-2.066 3.521,3.614 3.082,-3.002 1.784,1.831 -3.082,3.002 1.22,1.253 3.082,-3.002 1.783,1.829 -3.082,3.003 1.407,1.444 c 0,0 3.652,4.615 0.23,7.949 -2.556,2.489 -4.857,1.741 -5.858,1.206"
       style="fill:#ffffff;fill-opacity:1;fill-rule:nonzero;stroke:none;stroke-width:0.1"
       id="path188" /><path
       d="m 264.838,298.416 c -7.527,7.601 -7.583,19.862 -0.071,27.531 0.027,0.028 0.055,0.057 0.083,0.085 l 0.01,-0.01 c -0.67,-0.733 -1.274,-1.505 -1.812,-2.307 -5.651,-7.582 -5.055,-18.315 1.719,-25.222 v 0 c 0.023,-0.026 0.047,-0.052 0.071,-0.077"
       style="fill:#f3a92d;fill-opacity:1;fill-rule:nonzero;stroke:none;stroke-width:0.1"
       id="path190" /><path
       d="m 292.497,298.189 -0.026,0.025 c 0.206,0.186 0.409,0.377 0.609,0.573 -0.091,-0.101 -0.185,-0.199 -0.281,-0.296 -0.1,-0.102 -0.201,-0.203 -0.302,-0.302"
       style="fill:#e76819;fill-opacity:1;fill-rule:nonzero;stroke:none;stroke-width:0.1"
       id="path192" /><path
       d="m 278.78,292.599 c -4.369,0 -8.74,1.45 -12.33,4.358 1.751,-1.416 3.689,-2.483 5.721,-3.199 v 0 0 0 c 1.428,-0.506 2.901,-0.837 4.386,-1.002 v 0 c 0.7,-0.075 1.403,-0.113 2.106,-0.113 2.42,0 4.838,0.446 7.122,1.337 v 0 0 c 1.478,0.581 2.904,1.349 4.233,2.305 v 0 c 0.219,0.157 0.436,0.319 0.651,0.487 0.621,0.44 1.224,0.921 1.802,1.442 l 0.026,-0.025 c -3.806,-3.723 -8.76,-5.59 -13.717,-5.59"
       style="fill:#ec8015;fill-opacity:1;fill-rule:nonzero;stroke:none;stroke-width:0.1"
       id="path194" /><path
       d="m 264.86,326.022 -0.01,0.01 c 0.068,0.068 0.136,0.136 0.207,0.202 -0.067,-0.071 -0.132,-0.141 -0.197,-0.212"
       style="fill:#ec8015;fill-opacity:1;fill-rule:nonzero;stroke:none;stroke-width:0.1"
       id="path196" /><path
       d="m 276.557,292.756 c -1.485,0.165 -2.958,0.496 -4.386,1.002 v 0 l -0.008,0.784 c 1.421,-0.56 2.895,-0.946 4.388,-1.16 l 0.006,-0.626 m 9.228,1.224 -0.003,0.281 c 1.473,0.51 2.895,1.199 4.235,2.069 l 10e-4,-0.045 c -1.329,-0.956 -2.755,-1.724 -4.233,-2.305 v 0 m -21.018,4.513 c -6.774,6.907 -7.37,17.64 -1.719,25.222 -4.938,-7.355 -4.348,-17.29 1.706,-24.021 l 0.013,-1.201"
       style="fill:#f49322;fill-opacity:1;fill-rule:nonzero;stroke:none;stroke-width:0.1"
       id="path198" /><path
       d="m 272.171,293.758 c -2.032,0.716 -3.97,1.783 -5.721,3.199 -0.48,0.388 -0.945,0.803 -1.395,1.243 -0.073,0.072 -0.145,0.144 -0.217,0.216 -0.024,0.025 -0.048,0.051 -0.071,0.077 v 0 l -0.013,1.201 c 0.279,-0.311 0.57,-0.614 0.872,-0.91 1.935,-1.895 4.165,-3.309 6.537,-4.242 l 0.008,-0.784"
       style="fill:#f49c31;fill-opacity:1;fill-rule:nonzero;stroke:none;stroke-width:0.1"
       id="path200" /><path
       d="m 278.663,292.643 c -0.703,0 -1.406,0.038 -2.106,0.113 v 0 l -0.006,0.626 c 0.928,-0.134 1.864,-0.2 2.799,-0.2 2.178,0 4.353,0.36 6.432,1.079 l 0.003,-0.281 c -2.284,-0.891 -4.702,-1.337 -7.122,-1.337"
       style="fill:#f49c31;fill-opacity:1;fill-rule:nonzero;stroke:none;stroke-width:0.1"
       id="path202" /><path
       d="m 290.018,296.285 -10e-4,0.045 c 0.219,0.142 0.437,0.29 0.652,0.442 -0.215,-0.168 -0.432,-0.33 -0.651,-0.487 v 0"
       style="fill:#f49c31;fill-opacity:1;fill-rule:nonzero;stroke:none;stroke-width:0.1"
       id="path204" /><path
       d="M 529.972,114.432 521.841,85.4012 H 339.91 l 4.539,20.4198 -82.729,73.651 38.58,95.219 30.8,18.821 115.16,-56.87 21,-71.11 62.712,-51.1"
       style="fill:#c7d6df;fill-opacity:1;fill-rule:nonzero;stroke:none;stroke-width:0.1"
       id="path206" /><path
       d="m 331.104,293.507 90.095,-71.295 v -82.065 l 58.839,-54.7431 h 41.806 l 8.13,29.0331 -62.71,51.096 -21.007,71.106 -115.153,56.868"
       style="fill:#748997;fill-opacity:1;fill-rule:nonzero;stroke:none;stroke-width:0.1"
       id="path208" /><path
       d="m 331.104,293.507 -25.776,-22.521 -43.613,-91.517 38.581,95.225 30.808,18.813"
       style="fill:#eef2f4;fill-opacity:1;fill-rule:nonzero;stroke:none;stroke-width:0.1"
       id="path210" /><path
       d="m 342.384,109.064 -5.262,-23.6628 h -148.93 l 5.389,54.4988 52.934,54.511 95.869,-85.347"
       style="fill:#c7d6df;fill-opacity:1;fill-rule:nonzero;stroke:none;stroke-width:0.1"
       id="path212" /><path
       d="m 207.13,136.502 54.59,42.97 -45.68,-47.04 -4.65,-47.0308 h -20.51 l 16.25,51.1008"
       style="fill:#c7d6df;fill-opacity:1;fill-rule:nonzero;stroke:none;stroke-width:0.1"
       id="path214" /><path
       d="M 246.515,194.411 193.581,139.9 188.192,85.4012 h -23.767 l 18.83,59.2158 63.26,49.794"
       style="fill:#eef2f4;fill-opacity:1;fill-rule:nonzero;stroke:none;stroke-width:0.1"
       id="path216" /><path
       d="m 337.122,85.4012 5.262,23.6628 -95.869,85.347 106.159,-77.57 4.786,-31.4398 h -20.338"
       style="fill:#748997;fill-opacity:1;fill-rule:nonzero;stroke:none;stroke-width:0.1"
       id="path218" /><path
       d="m 369.814,262.873 -27.43,-30.932 -17.257,-4.129 17.257,-2.064 v -23.226 l 15.076,-28.029 -11.224,31.126 1.235,23.226 27.893,29.637 -5.55,4.391"
       style="fill:#748997;fill-opacity:1;fill-rule:nonzero;stroke:none;stroke-width:0.1"
       id="path220" /><path
       d="m 296.409,149.993 -5.347,-26.438 13.419,-13.42 V 91.0379 l -5.107,18.0651 -15.545,16.516 3.466,24.374 -8.62,-3.213 11.157,9.069 6.577,-5.856"
       style="fill:#748997;fill-opacity:1;fill-rule:nonzero;stroke:none;stroke-width:0.1"
       id="path222" /><path
       d="m 375.364,258.482 4.226,-18.282 -4.226,-11.871 11.651,15.076 -1.552,10.73 -10.099,4.347"
       style="fill:#748997;fill-opacity:1;fill-rule:nonzero;stroke:none;stroke-width:0.1"
       id="path224" /></g></svg>
