<?xml version="1.0" encoding="UTF-8" standalone="no"?>
<!DOCTYPE svg PUBLIC "-//W3C//DTD SVG 1.1//EN"
 "http://www.w3.org/Graphics/SVG/1.1/DTD/svg11.dtd">
<!-- Generated by graphviz version 2.43.0 (0)
 -->
<!-- Title: B Pages: 1 -->
<svg width="145pt" height="176pt"
 viewBox="0.00 0.00 145.00 176.00" xmlns="http://www.w3.org/2000/svg" xmlns:xlink="http://www.w3.org/1999/xlink">
<g id="page0,1_graph0" class="graph" transform="scale(1 1) rotate(0) translate(4 172)">
<title>B</title>
<polygon fill="white" stroke="transparent" points="-4,4 -4,-172 141,-172 141,4 -4,4"/>
<!-- txn1 -->
<g id="node1" class="node">
<title>txn1</title>
<polygon fill="none" stroke="black" points="0.5,-147 0.5,-168 137.5,-168 137.5,-147 0.5,-147"/>
<text text-anchor="start" x="50" y="-153.8" font-family="Helvetica,sans-Serif" font-size="14.00">Block</text>
<polygon fill="none" stroke="black" points="0.5,-81 0.5,-147 137.5,-147 137.5,-81 0.5,-81"/>
<text text-anchor="start" x="47.5" y="-132.8" font-family="Helvetica,sans-Serif" font-size="14.00">TXN 1</text>
<text text-anchor="start" x="27.5" y="-117.8" font-family="Helvetica,sans-Serif" font-size="14.00" fill="forestgreen">calls A.bar()</text>
<text text-anchor="start" x="26.5" y="-102.8" font-family="Helvetica,sans-Serif" font-size="14.00" fill="forestgreen">A has 2 ETH</text>
<text text-anchor="start" x="6.5" y="-87.8" font-family="Helvetica,sans-Serif" font-size="14.00" fill="forestgreen">A pays Bob 8 ETH</text>
<polygon fill="none" stroke="black" points="0.5,0 0.5,-81 137.5,-81 137.5,0 0.5,0"/>
<text text-anchor="start" x="47.5" y="-66.8" font-family="Helvetica,sans-Serif" font-size="14.00">TXN 2</text>
<text text-anchor="start" x="28" y="-51.8" font-family="Helvetica,sans-Serif" font-size="14.00" fill="blue">calls A.foo()</text>
<text text-anchor="start" x="22" y="-36.8" font-family="Helvetica,sans-Serif" font-size="14.00" fill="blue">A has 10 ETH</text>
<text text-anchor="start" x="3.5" y="-21.8" font-family="Helvetica,sans-Serif" font-size="14.00" fill="blue">A pays Alice 8 ETH</text>
<text text-anchor="start" x="34" y="-6.8" font-family="Helvetica,sans-Serif" font-size="14.00" fill="magenta">REVERTS!</text>
</g>
</g>
</svg>
