<?xml version="1.0" encoding="UTF-8" standalone="no"?>
<!DOCTYPE svg PUBLIC "-//W3C//DTD SVG 1.1//EN"
 "http://www.w3.org/Graphics/SVG/1.1/DTD/svg11.dtd">
<!-- Generated by graphviz version 2.43.0 (0)
 -->
<!-- Title: E Pages: 1 -->
<svg width="114pt" height="297pt"
 viewBox="0.00 0.00 114.00 297.00" xmlns="http://www.w3.org/2000/svg" xmlns:xlink="http://www.w3.org/1999/xlink">
<g id="page0,1_graph0" class="graph" transform="scale(1 1) rotate(0) translate(4 293)">
<title>E</title>
<polygon fill="white" stroke="transparent" points="-4,4 -4,-293 110,-293 110,4 -4,4"/>
<!-- txn1 -->
<g id="node1" class="node">
<title>txn1</title>
<polygon fill="none" stroke="black" points="0,-0.5 0,-288.5 106,-288.5 106,-0.5 0,-0.5"/>
<text text-anchor="middle" x="53" y="-273.3" font-family="Helvetica,sans-Serif" font-size="14.00">Block</text>
<polyline fill="none" stroke="black" points="0,-265.5 106,-265.5 "/>
<text text-anchor="middle" x="53" y="-250.3" font-family="Helvetica,sans-Serif" font-size="14.00">TXN 1</text>
<text text-anchor="middle" x="53" y="-235.3" font-family="Helvetica,sans-Serif" font-size="14.00">contract call:</text>
<text text-anchor="middle" x="53" y="-220.3" font-family="Helvetica,sans-Serif" font-size="14.00">y = x[1]</text>
<polyline fill="none" stroke="black" points="0,-212.5 106,-212.5 "/>
<text text-anchor="middle" x="53" y="-197.3" font-family="Helvetica,sans-Serif" font-size="14.00">TXN 2</text>
<text text-anchor="middle" x="53" y="-182.3" font-family="Helvetica,sans-Serif" font-size="14.00">contract call:</text>
<text text-anchor="middle" x="53" y="-167.3" font-family="Helvetica,sans-Serif" font-size="14.00">x[2] = 10</text>
<polyline fill="none" stroke="black" points="0,-159.5 106,-159.5 "/>
<text text-anchor="middle" x="53" y="-144.3" font-family="Helvetica,sans-Serif" font-size="14.00">TXN 3</text>
<text text-anchor="middle" x="53" y="-129.3" font-family="Helvetica,sans-Serif" font-size="14.00">contract call:</text>
<text text-anchor="middle" x="53" y="-114.3" font-family="Helvetica,sans-Serif" font-size="14.00">x[3] += 5</text>
<polyline fill="none" stroke="black" points="0,-106.5 106,-106.5 "/>
<text text-anchor="middle" x="53" y="-91.3" font-family="Helvetica,sans-Serif" font-size="14.00">TXN 4</text>
<text text-anchor="middle" x="53" y="-76.3" font-family="Helvetica,sans-Serif" font-size="14.00">contract call:</text>
<text text-anchor="middle" x="53" y="-61.3" font-family="Helvetica,sans-Serif" font-size="14.00">z = x[1]</text>
<polyline fill="none" stroke="black" points="0,-53.5 106,-53.5 "/>
<text text-anchor="middle" x="53" y="-38.3" font-family="Helvetica,sans-Serif" font-size="14.00">TXN 5</text>
<text text-anchor="middle" x="53" y="-23.3" font-family="Helvetica,sans-Serif" font-size="14.00">contract call:</text>
<text text-anchor="middle" x="53" y="-8.3" font-family="Helvetica,sans-Serif" font-size="14.00">x[1] = 4</text>
</g>
</g>
</svg>
